G04 #@! TF.GenerationSoftware,KiCad,Pcbnew,7.0.2-0*
G04 #@! TF.CreationDate,2023-07-29T18:05:03-04:00*
G04 #@! TF.ProjectId,glowtie,676c6f77-7469-4652-9e6b-696361645f70,rev?*
G04 #@! TF.SameCoordinates,Original*
G04 #@! TF.FileFunction,Legend,Top*
G04 #@! TF.FilePolarity,Positive*
%FSLAX46Y46*%
G04 Gerber Fmt 4.6, Leading zero omitted, Abs format (unit mm)*
G04 Created by KiCad (PCBNEW 7.0.2-0) date 2023-07-29 18:05:03*
%MOMM*%
%LPD*%
G01*
G04 APERTURE LIST*
%ADD10C,0.150000*%
%ADD11C,0.200000*%
%ADD12C,0.120000*%
%ADD13C,0.152400*%
G04 APERTURE END LIST*
D10*
X20066095Y-38324619D02*
X20637523Y-38324619D01*
X20351809Y-39324619D02*
X20351809Y-38324619D01*
X20875619Y-38324619D02*
X21542285Y-39324619D01*
X21542285Y-38324619D02*
X20875619Y-39324619D01*
D11*
X74644429Y-46150952D02*
X74882524Y-46817619D01*
X74882524Y-46817619D02*
X75120619Y-46150952D01*
X76025381Y-46817619D02*
X75453953Y-46817619D01*
X75739667Y-46817619D02*
X75739667Y-45817619D01*
X75739667Y-45817619D02*
X75644429Y-45960476D01*
X75644429Y-45960476D02*
X75549191Y-46055714D01*
X75549191Y-46055714D02*
X75453953Y-46103333D01*
X76453953Y-46722380D02*
X76501572Y-46770000D01*
X76501572Y-46770000D02*
X76453953Y-46817619D01*
X76453953Y-46817619D02*
X76406334Y-46770000D01*
X76406334Y-46770000D02*
X76453953Y-46722380D01*
X76453953Y-46722380D02*
X76453953Y-46817619D01*
X77453952Y-46817619D02*
X76882524Y-46817619D01*
X77168238Y-46817619D02*
X77168238Y-45817619D01*
X77168238Y-45817619D02*
X77073000Y-45960476D01*
X77073000Y-45960476D02*
X76977762Y-46055714D01*
X76977762Y-46055714D02*
X76882524Y-46103333D01*
D10*
X19081905Y-40864619D02*
X19700952Y-40864619D01*
X19700952Y-40864619D02*
X19367619Y-41245571D01*
X19367619Y-41245571D02*
X19510476Y-41245571D01*
X19510476Y-41245571D02*
X19605714Y-41293190D01*
X19605714Y-41293190D02*
X19653333Y-41340809D01*
X19653333Y-41340809D02*
X19700952Y-41436047D01*
X19700952Y-41436047D02*
X19700952Y-41674142D01*
X19700952Y-41674142D02*
X19653333Y-41769380D01*
X19653333Y-41769380D02*
X19605714Y-41817000D01*
X19605714Y-41817000D02*
X19510476Y-41864619D01*
X19510476Y-41864619D02*
X19224762Y-41864619D01*
X19224762Y-41864619D02*
X19129524Y-41817000D01*
X19129524Y-41817000D02*
X19081905Y-41769380D01*
X19986667Y-40864619D02*
X20320000Y-41864619D01*
X20320000Y-41864619D02*
X20653333Y-40864619D01*
X20891429Y-40864619D02*
X21510476Y-40864619D01*
X21510476Y-40864619D02*
X21177143Y-41245571D01*
X21177143Y-41245571D02*
X21320000Y-41245571D01*
X21320000Y-41245571D02*
X21415238Y-41293190D01*
X21415238Y-41293190D02*
X21462857Y-41340809D01*
X21462857Y-41340809D02*
X21510476Y-41436047D01*
X21510476Y-41436047D02*
X21510476Y-41674142D01*
X21510476Y-41674142D02*
X21462857Y-41769380D01*
X21462857Y-41769380D02*
X21415238Y-41817000D01*
X21415238Y-41817000D02*
X21320000Y-41864619D01*
X21320000Y-41864619D02*
X21034286Y-41864619D01*
X21034286Y-41864619D02*
X20939048Y-41817000D01*
X20939048Y-41817000D02*
X20891429Y-41769380D01*
X19431095Y-43452238D02*
X19335857Y-43404619D01*
X19335857Y-43404619D02*
X19193000Y-43404619D01*
X19193000Y-43404619D02*
X19050143Y-43452238D01*
X19050143Y-43452238D02*
X18954905Y-43547476D01*
X18954905Y-43547476D02*
X18907286Y-43642714D01*
X18907286Y-43642714D02*
X18859667Y-43833190D01*
X18859667Y-43833190D02*
X18859667Y-43976047D01*
X18859667Y-43976047D02*
X18907286Y-44166523D01*
X18907286Y-44166523D02*
X18954905Y-44261761D01*
X18954905Y-44261761D02*
X19050143Y-44357000D01*
X19050143Y-44357000D02*
X19193000Y-44404619D01*
X19193000Y-44404619D02*
X19288238Y-44404619D01*
X19288238Y-44404619D02*
X19431095Y-44357000D01*
X19431095Y-44357000D02*
X19478714Y-44309380D01*
X19478714Y-44309380D02*
X19478714Y-43976047D01*
X19478714Y-43976047D02*
X19288238Y-43976047D01*
X19907286Y-44404619D02*
X19907286Y-43404619D01*
X19907286Y-43404619D02*
X20478714Y-44404619D01*
X20478714Y-44404619D02*
X20478714Y-43404619D01*
X20954905Y-44404619D02*
X20954905Y-43404619D01*
X20954905Y-43404619D02*
X21193000Y-43404619D01*
X21193000Y-43404619D02*
X21335857Y-43452238D01*
X21335857Y-43452238D02*
X21431095Y-43547476D01*
X21431095Y-43547476D02*
X21478714Y-43642714D01*
X21478714Y-43642714D02*
X21526333Y-43833190D01*
X21526333Y-43833190D02*
X21526333Y-43976047D01*
X21526333Y-43976047D02*
X21478714Y-44166523D01*
X21478714Y-44166523D02*
X21431095Y-44261761D01*
X21431095Y-44261761D02*
X21335857Y-44357000D01*
X21335857Y-44357000D02*
X21193000Y-44404619D01*
X21193000Y-44404619D02*
X20954905Y-44404619D01*
X19891476Y-46944619D02*
X19891476Y-45944619D01*
X19891476Y-45944619D02*
X20224809Y-46658904D01*
X20224809Y-46658904D02*
X20558142Y-45944619D01*
X20558142Y-45944619D02*
X20558142Y-46944619D01*
X20986714Y-46897000D02*
X21129571Y-46944619D01*
X21129571Y-46944619D02*
X21367666Y-46944619D01*
X21367666Y-46944619D02*
X21462904Y-46897000D01*
X21462904Y-46897000D02*
X21510523Y-46849380D01*
X21510523Y-46849380D02*
X21558142Y-46754142D01*
X21558142Y-46754142D02*
X21558142Y-46658904D01*
X21558142Y-46658904D02*
X21510523Y-46563666D01*
X21510523Y-46563666D02*
X21462904Y-46516047D01*
X21462904Y-46516047D02*
X21367666Y-46468428D01*
X21367666Y-46468428D02*
X21177190Y-46420809D01*
X21177190Y-46420809D02*
X21081952Y-46373190D01*
X21081952Y-46373190D02*
X21034333Y-46325571D01*
X21034333Y-46325571D02*
X20986714Y-46230333D01*
X20986714Y-46230333D02*
X20986714Y-46135095D01*
X20986714Y-46135095D02*
X21034333Y-46039857D01*
X21034333Y-46039857D02*
X21081952Y-45992238D01*
X21081952Y-45992238D02*
X21177190Y-45944619D01*
X21177190Y-45944619D02*
X21415285Y-45944619D01*
X21415285Y-45944619D02*
X21558142Y-45992238D01*
X20534333Y-36784619D02*
X20201000Y-36308428D01*
X19962905Y-36784619D02*
X19962905Y-35784619D01*
X19962905Y-35784619D02*
X20343857Y-35784619D01*
X20343857Y-35784619D02*
X20439095Y-35832238D01*
X20439095Y-35832238D02*
X20486714Y-35879857D01*
X20486714Y-35879857D02*
X20534333Y-35975095D01*
X20534333Y-35975095D02*
X20534333Y-36117952D01*
X20534333Y-36117952D02*
X20486714Y-36213190D01*
X20486714Y-36213190D02*
X20439095Y-36260809D01*
X20439095Y-36260809D02*
X20343857Y-36308428D01*
X20343857Y-36308428D02*
X19962905Y-36308428D01*
X20867667Y-35784619D02*
X21534333Y-36784619D01*
X21534333Y-35784619D02*
X20867667Y-36784619D01*
D12*
X46447597Y-57408041D02*
X51809908Y-52908528D01*
X49790092Y-61391472D02*
X55152403Y-56891959D01*
X55152403Y-56891959D02*
X54509616Y-56125914D01*
X27615000Y-63440000D02*
X34615000Y-63440000D01*
X27615000Y-68640000D02*
X34615000Y-68640000D01*
X34615000Y-68640000D02*
X34615000Y-67640000D01*
X19110000Y-46665000D02*
X19110000Y-53665000D01*
X13910000Y-46665000D02*
X13910000Y-53665000D01*
X13910000Y-53665000D02*
X14910000Y-53665000D01*
X19110000Y-28885000D02*
X19110000Y-35885000D01*
X13910000Y-28885000D02*
X13910000Y-35885000D01*
X13910000Y-35885000D02*
X14910000Y-35885000D01*
X34615000Y-19110000D02*
X27615000Y-19110000D01*
X34615000Y-13910000D02*
X27615000Y-13910000D01*
X27615000Y-13910000D02*
X27615000Y-14910000D01*
X51809908Y-29641472D02*
X46447597Y-25141959D01*
X55152403Y-25658041D02*
X49790092Y-21158528D01*
X49790092Y-21158528D02*
X49147305Y-21924572D01*
X79700000Y-43240000D02*
X72700000Y-43240000D01*
X79700000Y-38040000D02*
X72700000Y-38040000D01*
X72700000Y-38040000D02*
X72700000Y-39040000D01*
X105952403Y-25141959D02*
X100590092Y-29641472D01*
X102609908Y-21158528D02*
X97247597Y-25658041D01*
X97247597Y-25658041D02*
X97890384Y-26424086D01*
X124785000Y-19110000D02*
X117785000Y-19110000D01*
X124785000Y-13910000D02*
X117785000Y-13910000D01*
X117785000Y-13910000D02*
X117785000Y-14910000D01*
X77830000Y-52000000D02*
X77830000Y-52790000D01*
X78430000Y-53800000D02*
X84130000Y-53800000D01*
X79680000Y-50950000D02*
X81380000Y-50950000D01*
X79880000Y-53800000D02*
X79880000Y-55090000D01*
X79880000Y-55090000D02*
X80080000Y-55300000D01*
X80080000Y-55300000D02*
X80980000Y-55300000D01*
X81180000Y-55090000D02*
X80980000Y-55300000D01*
X81180000Y-55090000D02*
X81180000Y-53800000D01*
X82680000Y-50950000D02*
X82880000Y-50950000D01*
X84730000Y-52790000D02*
X84730000Y-52000000D01*
X133290000Y-35885000D02*
X133290000Y-28885000D01*
X138490000Y-35885000D02*
X138490000Y-28885000D01*
X138490000Y-28885000D02*
X137490000Y-28885000D01*
X133290000Y-53665000D02*
X133290000Y-46665000D01*
X138490000Y-53665000D02*
X138490000Y-46665000D01*
X138490000Y-46665000D02*
X137490000Y-46665000D01*
X117785000Y-63440000D02*
X124785000Y-63440000D01*
X117785000Y-68640000D02*
X124785000Y-68640000D01*
X124785000Y-68640000D02*
X124785000Y-67640000D01*
X100590092Y-52908528D02*
X105952403Y-57408041D01*
X97247597Y-56891959D02*
X102609908Y-61391472D01*
X102609908Y-61391472D02*
X103252695Y-60625428D01*
D13*
X49784000Y-49276000D02*
X50546000Y-49276000D01*
X50546000Y-49276000D02*
X50546000Y-33274000D01*
X50546000Y-33274000D02*
X49784000Y-33274000D01*
D12*
X109866000Y-39601500D02*
X108066000Y-39601500D01*
X108066000Y-42821500D02*
X110516000Y-42821500D01*
X56904000Y-47332000D02*
X57904000Y-47332000D01*
X57904000Y-45632000D02*
X56904000Y-45632000D01*
X113323000Y-41600500D02*
X113323000Y-42600500D01*
X115023000Y-42600500D02*
X115023000Y-41600500D01*
X121307000Y-36260000D02*
X121307000Y-34860000D01*
X121307000Y-36260000D02*
X118507000Y-36260000D01*
X121307000Y-34860000D02*
X118507000Y-34860000D01*
X117707000Y-46290000D02*
X117707000Y-47690000D01*
X117707000Y-46290000D02*
X120507000Y-46290000D01*
X117707000Y-47690000D02*
X120507000Y-47690000D01*
X66770000Y-48547000D02*
X75470000Y-48547000D01*
X66770000Y-54957000D02*
X66770000Y-48547000D01*
X66770000Y-54957000D02*
X75470000Y-54957000D01*
X75470000Y-48547000D02*
X75470000Y-54957000D01*
X75470000Y-53727000D02*
X66770000Y-53727000D01*
X36738000Y-51190000D02*
X37938000Y-51190000D01*
X37938000Y-52950000D02*
X36738000Y-52950000D01*
X108366000Y-44395500D02*
X109566000Y-44395500D01*
X109566000Y-46155500D02*
X108366000Y-46155500D01*
X47279000Y-29346000D02*
X48479000Y-29346000D01*
X48479000Y-31106000D02*
X47279000Y-31106000D01*
X21980000Y-50638000D02*
X21980000Y-49438000D01*
X23740000Y-49438000D02*
X23740000Y-50638000D01*
X43215000Y-29346000D02*
X44415000Y-29346000D01*
X44415000Y-31106000D02*
X43215000Y-31106000D01*
X118907000Y-38490000D02*
X120107000Y-38490000D01*
X120107000Y-40250000D02*
X118907000Y-40250000D01*
X118907000Y-42300000D02*
X120107000Y-42300000D01*
X120107000Y-44060000D02*
X118907000Y-44060000D01*
X23810000Y-36195000D02*
G75*
G03*
X23810000Y-36195000I-950000J0D01*
G01*
X23810000Y-38735000D02*
G75*
G03*
X23810000Y-38735000I-950000J0D01*
G01*
X23810000Y-46355000D02*
G75*
G03*
X23810000Y-46355000I-950000J0D01*
G01*
X23810000Y-41275000D02*
G75*
G03*
X23810000Y-41275000I-950000J0D01*
G01*
X23810000Y-43815000D02*
G75*
G03*
X23810000Y-43815000I-950000J0D01*
G01*
X53300000Y-37890000D02*
X59310000Y-37890000D01*
X55550000Y-44710000D02*
X59310000Y-44710000D01*
X59310000Y-37890000D02*
X59310000Y-39150000D01*
X59310000Y-44710000D02*
X59310000Y-43450000D01*
M02*
