G04 #@! TF.GenerationSoftware,KiCad,Pcbnew,7.0.2-0*
G04 #@! TF.CreationDate,2023-07-29T18:05:03-04:00*
G04 #@! TF.ProjectId,glowtie,676c6f77-7469-4652-9e6b-696361645f70,rev?*
G04 #@! TF.SameCoordinates,Original*
G04 #@! TF.FileFunction,Soldermask,Bot*
G04 #@! TF.FilePolarity,Negative*
%FSLAX46Y46*%
G04 Gerber Fmt 4.6, Leading zero omitted, Abs format (unit mm)*
G04 Created by KiCad (PCBNEW 7.0.2-0) date 2023-07-29 18:05:03*
%MOMM*%
%LPD*%
G01*
G04 APERTURE LIST*
G04 APERTURE END LIST*
G36*
X67674053Y-51459546D02*
G01*
X67731901Y-51463504D01*
X67748251Y-51469314D01*
X67762237Y-51471156D01*
X67815437Y-51493192D01*
X67873036Y-51513663D01*
X67884652Y-51521862D01*
X67894783Y-51526059D01*
X67942860Y-51562950D01*
X67995404Y-51600040D01*
X68002396Y-51608634D01*
X68008604Y-51613398D01*
X68047314Y-51663846D01*
X68089931Y-51716229D01*
X68093090Y-51723502D01*
X68095939Y-51727215D01*
X68121362Y-51788591D01*
X68149605Y-51853612D01*
X68150255Y-51858343D01*
X68150843Y-51859762D01*
X68159770Y-51927573D01*
X68170000Y-52002000D01*
X68170000Y-52552000D01*
X68164877Y-52626892D01*
X68155128Y-52661684D01*
X68150843Y-52694237D01*
X68135900Y-52730310D01*
X68124466Y-52771121D01*
X68107309Y-52799332D01*
X68095939Y-52826784D01*
X68070285Y-52860216D01*
X68046641Y-52899098D01*
X68024795Y-52919499D01*
X68008603Y-52940603D01*
X67972710Y-52968143D01*
X67937174Y-53001333D01*
X67913410Y-53013646D01*
X67894784Y-53027939D01*
X67850135Y-53046433D01*
X67804184Y-53070244D01*
X67781045Y-53075052D01*
X67762237Y-53082843D01*
X67711254Y-53089554D01*
X67657533Y-53100718D01*
X67637082Y-53099319D01*
X67620000Y-53101568D01*
X67565961Y-53094454D01*
X67508099Y-53090496D01*
X67491744Y-53084683D01*
X67477762Y-53082843D01*
X67424572Y-53060810D01*
X67366964Y-53040337D01*
X67355345Y-53032135D01*
X67345216Y-53027940D01*
X67297142Y-52991051D01*
X67244596Y-52953960D01*
X67237603Y-52945364D01*
X67231395Y-52940601D01*
X67192681Y-52890148D01*
X67150069Y-52837771D01*
X67146909Y-52830498D01*
X67144060Y-52826784D01*
X67118624Y-52765379D01*
X67090395Y-52700388D01*
X67089745Y-52695659D01*
X67089156Y-52694237D01*
X67080219Y-52626357D01*
X67070000Y-52552000D01*
X67070000Y-52002000D01*
X67075123Y-51927108D01*
X67084869Y-51892321D01*
X67089156Y-51859762D01*
X67104102Y-51823679D01*
X67115534Y-51782879D01*
X67132685Y-51754674D01*
X67144060Y-51727215D01*
X67169721Y-51693772D01*
X67193359Y-51654902D01*
X67215197Y-51634505D01*
X67231396Y-51613396D01*
X67267299Y-51585846D01*
X67302826Y-51552667D01*
X67326582Y-51540357D01*
X67345215Y-51526060D01*
X67389877Y-51507559D01*
X67435816Y-51483756D01*
X67458948Y-51478949D01*
X67477762Y-51471156D01*
X67528759Y-51464442D01*
X67582467Y-51453282D01*
X67602912Y-51454680D01*
X67620000Y-51452431D01*
X67674053Y-51459546D01*
G37*
G36*
X74674053Y-51459546D02*
G01*
X74731901Y-51463504D01*
X74748251Y-51469314D01*
X74762237Y-51471156D01*
X74815437Y-51493192D01*
X74873036Y-51513663D01*
X74884652Y-51521862D01*
X74894783Y-51526059D01*
X74942860Y-51562950D01*
X74995404Y-51600040D01*
X75002396Y-51608634D01*
X75008604Y-51613398D01*
X75047314Y-51663846D01*
X75089931Y-51716229D01*
X75093090Y-51723502D01*
X75095939Y-51727215D01*
X75121362Y-51788591D01*
X75149605Y-51853612D01*
X75150255Y-51858343D01*
X75150843Y-51859762D01*
X75159770Y-51927573D01*
X75170000Y-52002000D01*
X75170000Y-52552000D01*
X75164877Y-52626892D01*
X75155128Y-52661684D01*
X75150843Y-52694237D01*
X75135900Y-52730310D01*
X75124466Y-52771121D01*
X75107309Y-52799332D01*
X75095939Y-52826784D01*
X75070285Y-52860216D01*
X75046641Y-52899098D01*
X75024795Y-52919499D01*
X75008603Y-52940603D01*
X74972710Y-52968143D01*
X74937174Y-53001333D01*
X74913410Y-53013646D01*
X74894784Y-53027939D01*
X74850135Y-53046433D01*
X74804184Y-53070244D01*
X74781045Y-53075052D01*
X74762237Y-53082843D01*
X74711254Y-53089554D01*
X74657533Y-53100718D01*
X74637082Y-53099319D01*
X74620000Y-53101568D01*
X74565961Y-53094454D01*
X74508099Y-53090496D01*
X74491744Y-53084683D01*
X74477762Y-53082843D01*
X74424572Y-53060810D01*
X74366964Y-53040337D01*
X74355345Y-53032135D01*
X74345216Y-53027940D01*
X74297142Y-52991051D01*
X74244596Y-52953960D01*
X74237603Y-52945364D01*
X74231395Y-52940601D01*
X74192681Y-52890148D01*
X74150069Y-52837771D01*
X74146909Y-52830498D01*
X74144060Y-52826784D01*
X74118624Y-52765379D01*
X74090395Y-52700388D01*
X74089745Y-52695659D01*
X74089156Y-52694237D01*
X74080219Y-52626357D01*
X74070000Y-52552000D01*
X74070000Y-52002000D01*
X74075123Y-51927108D01*
X74084869Y-51892321D01*
X74089156Y-51859762D01*
X74104102Y-51823679D01*
X74115534Y-51782879D01*
X74132685Y-51754674D01*
X74144060Y-51727215D01*
X74169721Y-51693772D01*
X74193359Y-51654902D01*
X74215197Y-51634505D01*
X74231396Y-51613396D01*
X74267299Y-51585846D01*
X74302826Y-51552667D01*
X74326582Y-51540357D01*
X74345215Y-51526060D01*
X74389877Y-51507559D01*
X74435816Y-51483756D01*
X74458948Y-51478949D01*
X74477762Y-51471156D01*
X74528759Y-51464442D01*
X74582467Y-51453282D01*
X74602912Y-51454680D01*
X74620000Y-51452431D01*
X74674053Y-51459546D01*
G37*
G36*
X79966937Y-51990666D02*
G01*
X80074687Y-52059913D01*
X80158564Y-52156712D01*
X80211772Y-52273220D01*
X80230000Y-52400000D01*
X80211772Y-52526780D01*
X80158564Y-52643288D01*
X80074687Y-52740087D01*
X79966937Y-52809334D01*
X79844042Y-52845420D01*
X79715958Y-52845420D01*
X79593063Y-52809334D01*
X79485313Y-52740087D01*
X79401436Y-52643288D01*
X79348228Y-52526780D01*
X79330000Y-52400000D01*
X79348228Y-52273220D01*
X79401436Y-52156712D01*
X79485313Y-52059913D01*
X79593063Y-51990666D01*
X79715958Y-51954580D01*
X79844042Y-51954580D01*
X79966937Y-51990666D01*
G37*
G36*
X82966937Y-51990666D02*
G01*
X83074687Y-52059913D01*
X83158564Y-52156712D01*
X83211772Y-52273220D01*
X83230000Y-52400000D01*
X83211772Y-52526780D01*
X83158564Y-52643288D01*
X83074687Y-52740087D01*
X82966937Y-52809334D01*
X82844042Y-52845420D01*
X82715958Y-52845420D01*
X82593063Y-52809334D01*
X82485313Y-52740087D01*
X82401436Y-52643288D01*
X82348228Y-52526780D01*
X82330000Y-52400000D01*
X82348228Y-52273220D01*
X82401436Y-52156712D01*
X82485313Y-52059913D01*
X82593063Y-51990666D01*
X82715958Y-51954580D01*
X82844042Y-51954580D01*
X82966937Y-51990666D01*
G37*
G36*
X68841487Y-49056890D02*
G01*
X68874829Y-49066232D01*
X68905767Y-49070305D01*
X68940052Y-49084506D01*
X68979161Y-49095464D01*
X69006193Y-49111902D01*
X69032284Y-49122710D01*
X69064063Y-49147094D01*
X69101321Y-49169752D01*
X69120869Y-49190683D01*
X69140926Y-49206073D01*
X69167099Y-49240183D01*
X69198909Y-49274243D01*
X69210710Y-49297019D01*
X69224289Y-49314715D01*
X69241857Y-49357130D01*
X69264687Y-49401188D01*
X69269297Y-49423375D01*
X69276694Y-49441232D01*
X69283066Y-49489634D01*
X69293776Y-49541173D01*
X69292434Y-49560791D01*
X69294568Y-49577000D01*
X69287818Y-49628267D01*
X69284019Y-49683814D01*
X69278438Y-49699516D01*
X69276694Y-49712767D01*
X69255813Y-49763177D01*
X69236140Y-49818534D01*
X69228260Y-49829696D01*
X69224289Y-49839285D01*
X69189363Y-49884800D01*
X69153689Y-49935340D01*
X69145423Y-49942064D01*
X69140926Y-49947926D01*
X69093300Y-49984469D01*
X69042782Y-50025570D01*
X69035765Y-50028617D01*
X69032284Y-50031289D01*
X68974764Y-50055114D01*
X68911643Y-50082532D01*
X68907047Y-50083163D01*
X68905767Y-50083694D01*
X68844520Y-50091757D01*
X68770000Y-50102000D01*
X68766725Y-50102000D01*
X68473275Y-50102000D01*
X68470000Y-50102000D01*
X68398513Y-50097110D01*
X68365165Y-50087766D01*
X68334232Y-50083694D01*
X68299952Y-50069494D01*
X68260839Y-50058536D01*
X68233803Y-50042095D01*
X68207715Y-50031289D01*
X68175938Y-50006906D01*
X68138679Y-49984248D01*
X68119129Y-49963315D01*
X68099073Y-49947926D01*
X68072898Y-49913814D01*
X68041091Y-49879757D01*
X68029289Y-49856981D01*
X68015710Y-49839284D01*
X67998139Y-49796864D01*
X67975313Y-49752812D01*
X67970703Y-49730627D01*
X67963305Y-49712767D01*
X67956931Y-49664353D01*
X67946224Y-49612827D01*
X67947565Y-49593213D01*
X67945431Y-49577000D01*
X67952182Y-49525715D01*
X67955981Y-49470186D01*
X67961559Y-49454488D01*
X67963305Y-49441232D01*
X67984194Y-49390798D01*
X68003860Y-49335466D01*
X68011735Y-49324308D01*
X68015710Y-49314714D01*
X68050656Y-49269170D01*
X68086311Y-49218660D01*
X68094571Y-49211939D01*
X68099073Y-49206073D01*
X68146737Y-49169499D01*
X68197218Y-49128430D01*
X68204229Y-49125384D01*
X68207715Y-49122710D01*
X68265306Y-49098854D01*
X68328357Y-49071468D01*
X68332947Y-49070837D01*
X68334232Y-49070305D01*
X68395588Y-49062227D01*
X68470000Y-49052000D01*
X68770000Y-49052000D01*
X68841487Y-49056890D01*
G37*
G36*
X73841487Y-49056890D02*
G01*
X73874829Y-49066232D01*
X73905767Y-49070305D01*
X73940052Y-49084506D01*
X73979161Y-49095464D01*
X74006193Y-49111902D01*
X74032284Y-49122710D01*
X74064063Y-49147094D01*
X74101321Y-49169752D01*
X74120869Y-49190683D01*
X74140926Y-49206073D01*
X74167099Y-49240183D01*
X74198909Y-49274243D01*
X74210710Y-49297019D01*
X74224289Y-49314715D01*
X74241857Y-49357130D01*
X74264687Y-49401188D01*
X74269297Y-49423375D01*
X74276694Y-49441232D01*
X74283066Y-49489634D01*
X74293776Y-49541173D01*
X74292434Y-49560791D01*
X74294568Y-49577000D01*
X74287818Y-49628267D01*
X74284019Y-49683814D01*
X74278438Y-49699516D01*
X74276694Y-49712767D01*
X74255813Y-49763177D01*
X74236140Y-49818534D01*
X74228260Y-49829696D01*
X74224289Y-49839285D01*
X74189363Y-49884800D01*
X74153689Y-49935340D01*
X74145423Y-49942064D01*
X74140926Y-49947926D01*
X74093300Y-49984469D01*
X74042782Y-50025570D01*
X74035765Y-50028617D01*
X74032284Y-50031289D01*
X73974764Y-50055114D01*
X73911643Y-50082532D01*
X73907047Y-50083163D01*
X73905767Y-50083694D01*
X73844520Y-50091757D01*
X73770000Y-50102000D01*
X73766725Y-50102000D01*
X73473275Y-50102000D01*
X73470000Y-50102000D01*
X73398513Y-50097110D01*
X73365165Y-50087766D01*
X73334232Y-50083694D01*
X73299952Y-50069494D01*
X73260839Y-50058536D01*
X73233803Y-50042095D01*
X73207715Y-50031289D01*
X73175938Y-50006906D01*
X73138679Y-49984248D01*
X73119129Y-49963315D01*
X73099073Y-49947926D01*
X73072898Y-49913814D01*
X73041091Y-49879757D01*
X73029289Y-49856981D01*
X73015710Y-49839284D01*
X72998139Y-49796864D01*
X72975313Y-49752812D01*
X72970703Y-49730627D01*
X72963305Y-49712767D01*
X72956931Y-49664353D01*
X72946224Y-49612827D01*
X72947565Y-49593213D01*
X72945431Y-49577000D01*
X72952182Y-49525715D01*
X72955981Y-49470186D01*
X72961559Y-49454488D01*
X72963305Y-49441232D01*
X72984194Y-49390798D01*
X73003860Y-49335466D01*
X73011735Y-49324308D01*
X73015710Y-49314714D01*
X73050656Y-49269170D01*
X73086311Y-49218660D01*
X73094571Y-49211939D01*
X73099073Y-49206073D01*
X73146737Y-49169499D01*
X73197218Y-49128430D01*
X73204229Y-49125384D01*
X73207715Y-49122710D01*
X73265306Y-49098854D01*
X73328357Y-49071468D01*
X73332947Y-49070837D01*
X73334232Y-49070305D01*
X73395588Y-49062227D01*
X73470000Y-49052000D01*
X73770000Y-49052000D01*
X73841487Y-49056890D01*
G37*
G36*
X33262473Y-25774083D02*
G01*
X33498976Y-25830862D01*
X33723685Y-25923940D01*
X33931067Y-26051024D01*
X34116016Y-26208984D01*
X34273976Y-26393933D01*
X34401060Y-26601315D01*
X34494138Y-26826024D01*
X34550917Y-27062527D01*
X34570000Y-27305000D01*
X34550917Y-27547473D01*
X34494138Y-27783976D01*
X34401060Y-28008685D01*
X34273976Y-28216067D01*
X34116016Y-28401016D01*
X33931067Y-28558976D01*
X33723685Y-28686060D01*
X33498976Y-28779138D01*
X33262473Y-28835917D01*
X33020000Y-28855000D01*
X32777527Y-28835917D01*
X32541024Y-28779138D01*
X32316315Y-28686060D01*
X32108933Y-28558976D01*
X31923984Y-28401016D01*
X31766024Y-28216067D01*
X31638940Y-28008685D01*
X31545862Y-27783976D01*
X31489083Y-27547473D01*
X31470000Y-27305000D01*
X31489083Y-27062527D01*
X31545862Y-26826024D01*
X31638940Y-26601315D01*
X31766024Y-26393933D01*
X31923984Y-26208984D01*
X32108933Y-26051024D01*
X32316315Y-25923940D01*
X32541024Y-25830862D01*
X32777527Y-25774083D01*
X33020000Y-25755000D01*
X33262473Y-25774083D01*
G37*
G36*
X39619134Y-25758806D02*
G01*
X39635355Y-25769645D01*
X39646194Y-25785866D01*
X39650000Y-25805000D01*
X39650000Y-28805000D01*
X39646194Y-28824134D01*
X39635355Y-28840355D01*
X39619134Y-28851194D01*
X39600000Y-28855000D01*
X36600000Y-28855000D01*
X36580866Y-28851194D01*
X36564645Y-28840355D01*
X36553806Y-28824134D01*
X36550000Y-28805000D01*
X36550000Y-25805000D01*
X36553806Y-25785866D01*
X36564645Y-25769645D01*
X36580866Y-25758806D01*
X36600000Y-25755000D01*
X39600000Y-25755000D01*
X39619134Y-25758806D01*
G37*
G36*
X114415473Y-25774083D02*
G01*
X114651976Y-25830862D01*
X114876685Y-25923940D01*
X115084067Y-26051024D01*
X115269016Y-26208984D01*
X115426976Y-26393933D01*
X115554060Y-26601315D01*
X115647138Y-26826024D01*
X115703917Y-27062527D01*
X115723000Y-27305000D01*
X115703917Y-27547473D01*
X115647138Y-27783976D01*
X115554060Y-28008685D01*
X115426976Y-28216067D01*
X115269016Y-28401016D01*
X115084067Y-28558976D01*
X114876685Y-28686060D01*
X114651976Y-28779138D01*
X114415473Y-28835917D01*
X114173000Y-28855000D01*
X113930527Y-28835917D01*
X113694024Y-28779138D01*
X113469315Y-28686060D01*
X113261933Y-28558976D01*
X113076984Y-28401016D01*
X112919024Y-28216067D01*
X112791940Y-28008685D01*
X112698862Y-27783976D01*
X112642083Y-27547473D01*
X112623000Y-27305000D01*
X112642083Y-27062527D01*
X112698862Y-26826024D01*
X112791940Y-26601315D01*
X112919024Y-26393933D01*
X113076984Y-26208984D01*
X113261933Y-26051024D01*
X113469315Y-25923940D01*
X113694024Y-25830862D01*
X113930527Y-25774083D01*
X114173000Y-25755000D01*
X114415473Y-25774083D01*
G37*
G36*
X120899134Y-25758806D02*
G01*
X120915355Y-25769645D01*
X120926194Y-25785866D01*
X120930000Y-25805000D01*
X120930000Y-28805000D01*
X120926194Y-28824134D01*
X120915355Y-28840355D01*
X120899134Y-28851194D01*
X120880000Y-28855000D01*
X117880000Y-28855000D01*
X117860866Y-28851194D01*
X117844645Y-28840355D01*
X117833806Y-28824134D01*
X117830000Y-28805000D01*
X117830000Y-25805000D01*
X117833806Y-25785866D01*
X117844645Y-25769645D01*
X117860866Y-25758806D01*
X117880000Y-25755000D01*
X120880000Y-25755000D01*
X120899134Y-25758806D01*
G37*
M02*
