M48
INCH,TZ
T1C0.0157
T2C0.0197
T3C0.0217
%
G90
G05
T1
X5906Y-12992
X5906Y-14567
X5906Y-19980
X6102Y-21457
X8465Y-17717
X8500Y-16750
X10531Y-6102
X12106Y-5807
X12500Y-26673
X13976Y-26673
X15700Y-21000
X16900Y-15400
X17500Y-10650
X18602Y-7677
X19685Y-10335
X19783Y-11909
X19882Y-12894
X19882Y-13386
X20400Y-12850
X20571Y-22736
X21752Y-14665
X21752Y-21850
X22244Y-15256
X23031Y-18996
X23071Y-14921
X23622Y-18307
X28150Y-15350
X28248Y-18898
X28248Y-20177
X29823Y-15354
X31125Y-18225
X38484Y-11909
X38878Y-11614
X39469Y-9646
X39764Y-10039
X39862Y-23031
X41043Y-23917
X43307Y-18504
X43898Y-17717
X44100Y-15975
X44100Y-16600
X44291Y-17224
X44500Y-8100
X45650Y-17375
X45850Y-15925
X45965Y-5807
X46000Y-16600
X46555Y-17815
X46555Y-19193
X47244Y-9449
X47539Y-5807
X47933Y-26575
X48327Y-10433
X49508Y-26476
X53937Y-10925
X53937Y-12598
X53937Y-19587
X54429Y-18012
T2
G00X26622Y-20709
M15
G01X26622Y-20454
M16
G05
G00X29378Y-20709
M15
G01X29378Y-20454
M16
G05
T3
G00X26957Y-19519
M15
G01X27075Y-19519
M16
G05
G00X28925Y-19519
M15
G01X29043Y-19519
M16
G05
T0
M30
