G04 #@! TF.GenerationSoftware,KiCad,Pcbnew,7.0.2-0*
G04 #@! TF.CreationDate,2023-07-29T18:05:03-04:00*
G04 #@! TF.ProjectId,glowtie,676c6f77-7469-4652-9e6b-696361645f70,rev?*
G04 #@! TF.SameCoordinates,Original*
G04 #@! TF.FileFunction,Profile,NP*
%FSLAX46Y46*%
G04 Gerber Fmt 4.6, Leading zero omitted, Abs format (unit mm)*
G04 Created by KiCad (PCBNEW 7.0.2-0) date 2023-07-29 18:05:03*
%MOMM*%
%LPD*%
G01*
G04 APERTURE LIST*
G04 #@! TA.AperFunction,Profile*
%ADD10C,0.100000*%
G04 #@! TD*
G04 APERTURE END LIST*
D10*
X63500000Y-31115000D02*
X66040000Y-28575000D01*
X127000000Y-12700000D02*
X111125000Y-12700000D01*
X86360000Y-28575000D02*
X88900000Y-31115000D01*
X127000000Y-69850000D02*
X111125000Y-69850000D01*
X66040000Y-28575000D02*
X86360000Y-28575000D01*
X127000000Y-12700000D02*
X139700000Y-28575000D01*
X12700000Y-28575000D02*
X12700000Y-53975000D01*
X111125000Y-12700000D02*
X88900000Y-31115000D01*
X111125000Y-69850000D02*
X88900000Y-51435000D01*
X139700000Y-53975000D02*
X139700000Y-28575000D01*
X25400000Y-69850000D02*
X41275000Y-69850000D01*
X76200000Y-53975000D02*
X86360000Y-53975000D01*
X25400000Y-12700000D02*
X12700000Y-28575000D01*
X41275000Y-69850000D02*
X63500000Y-51435000D01*
X76200000Y-53975000D02*
X66040000Y-53975000D01*
X86360000Y-53975000D02*
X88900000Y-51435000D01*
X25400000Y-12700000D02*
X41275000Y-12700000D01*
X63500000Y-31115000D02*
X41275000Y-12700000D01*
X139700000Y-53975000D02*
X127000000Y-69850000D01*
X12700000Y-53975000D02*
X25400000Y-69850000D01*
X66040000Y-53975000D02*
X63500000Y-51435000D01*
M02*
