G04 #@! TF.GenerationSoftware,KiCad,Pcbnew,(5.0.1-3-g963ef8bb5)*
G04 #@! TF.CreationDate,2019-02-10T00:29:52-05:00*
G04 #@! TF.ProjectId,glowtieProgrammer,676C6F7774696550726F6772616D6D65,rev?*
G04 #@! TF.SameCoordinates,Original*
G04 #@! TF.FileFunction,Legend,Top*
G04 #@! TF.FilePolarity,Positive*
%FSLAX46Y46*%
G04 Gerber Fmt 4.6, Leading zero omitted, Abs format (unit mm)*
G04 Created by KiCad (PCBNEW (5.0.1-3-g963ef8bb5)) date Sunday, February 10, 2019 at 12:29:52 AM*
%MOMM*%
%LPD*%
G01*
G04 APERTURE LIST*
%ADD10C,0.120000*%
%ADD11C,0.150000*%
G04 APERTURE END LIST*
D10*
G04 #@! TO.C,J1*
X175955000Y-52130000D02*
X174625000Y-52130000D01*
X175955000Y-50800000D02*
X175955000Y-52130000D01*
X175955000Y-49530000D02*
X173295000Y-49530000D01*
X173295000Y-49530000D02*
X173295000Y-39310000D01*
X175955000Y-49530000D02*
X175955000Y-39310000D01*
X175955000Y-39310000D02*
X173295000Y-39310000D01*
G04 #@! TO.C,J2*
X161230000Y-47565000D02*
X162560000Y-47565000D01*
X161230000Y-48895000D02*
X161230000Y-47565000D01*
X161230000Y-50165000D02*
X163890000Y-50165000D01*
X163890000Y-50165000D02*
X163890000Y-62925000D01*
X161230000Y-50165000D02*
X161230000Y-62925000D01*
X161230000Y-62925000D02*
X163890000Y-62925000D01*
G04 #@! TO.C,SW1*
X148230000Y-64220000D02*
X148230000Y-63430000D01*
X141330000Y-63430000D02*
X141330000Y-64220000D01*
X143180000Y-62380000D02*
X144880000Y-62380000D01*
X141930000Y-65230000D02*
X147630000Y-65230000D01*
X144680000Y-66520000D02*
X144680000Y-65230000D01*
X143580000Y-66730000D02*
X144480000Y-66730000D01*
X143380000Y-65230000D02*
X143380000Y-66520000D01*
X144680000Y-66520000D02*
X144480000Y-66730000D01*
X143380000Y-66520000D02*
X143580000Y-66730000D01*
X146180000Y-62380000D02*
X146380000Y-62380000D01*
G04 #@! TO.C,J1*
D11*
X174291666Y-52582380D02*
X174291666Y-53296666D01*
X174244047Y-53439523D01*
X174148809Y-53534761D01*
X174005952Y-53582380D01*
X173910714Y-53582380D01*
X175291666Y-53582380D02*
X174720238Y-53582380D01*
X175005952Y-53582380D02*
X175005952Y-52582380D01*
X174910714Y-52725238D01*
X174815476Y-52820476D01*
X174720238Y-52868095D01*
G04 #@! TO.C,J2*
X162226666Y-46017380D02*
X162226666Y-46731666D01*
X162179047Y-46874523D01*
X162083809Y-46969761D01*
X161940952Y-47017380D01*
X161845714Y-47017380D01*
X162655238Y-46112619D02*
X162702857Y-46065000D01*
X162798095Y-46017380D01*
X163036190Y-46017380D01*
X163131428Y-46065000D01*
X163179047Y-46112619D01*
X163226666Y-46207857D01*
X163226666Y-46303095D01*
X163179047Y-46445952D01*
X162607619Y-47017380D01*
X163226666Y-47017380D01*
G04 #@! TO.C,SW1*
X143446666Y-60704761D02*
X143589523Y-60752380D01*
X143827619Y-60752380D01*
X143922857Y-60704761D01*
X143970476Y-60657142D01*
X144018095Y-60561904D01*
X144018095Y-60466666D01*
X143970476Y-60371428D01*
X143922857Y-60323809D01*
X143827619Y-60276190D01*
X143637142Y-60228571D01*
X143541904Y-60180952D01*
X143494285Y-60133333D01*
X143446666Y-60038095D01*
X143446666Y-59942857D01*
X143494285Y-59847619D01*
X143541904Y-59800000D01*
X143637142Y-59752380D01*
X143875238Y-59752380D01*
X144018095Y-59800000D01*
X144351428Y-59752380D02*
X144589523Y-60752380D01*
X144780000Y-60038095D01*
X144970476Y-60752380D01*
X145208571Y-59752380D01*
X146113333Y-60752380D02*
X145541904Y-60752380D01*
X145827619Y-60752380D02*
X145827619Y-59752380D01*
X145732380Y-59895238D01*
X145637142Y-59990476D01*
X145541904Y-60038095D01*
G04 #@! TD*
M02*
