G04 #@! TF.GenerationSoftware,KiCad,Pcbnew,(5.0.1-3-g963ef8bb5)*
G04 #@! TF.CreationDate,2019-02-10T00:29:52-05:00*
G04 #@! TF.ProjectId,glowtieProgrammer,676C6F7774696550726F6772616D6D65,rev?*
G04 #@! TF.SameCoordinates,Original*
G04 #@! TF.FileFunction,Soldermask,Top*
G04 #@! TF.FilePolarity,Negative*
%FSLAX46Y46*%
G04 Gerber Fmt 4.6, Leading zero omitted, Abs format (unit mm)*
G04 Created by KiCad (PCBNEW (5.0.1-3-g963ef8bb5)) date Sunday, February 10, 2019 at 12:29:52 AM*
%MOMM*%
%LPD*%
G01*
G04 APERTURE LIST*
%ADD10C,0.100000*%
G04 APERTURE END LIST*
D10*
G36*
X148981000Y-65381000D02*
X147879000Y-65381000D01*
X147879000Y-64479000D01*
X148981000Y-64479000D01*
X148981000Y-65381000D01*
X148981000Y-65381000D01*
G37*
G36*
X141681000Y-65381000D02*
X140579000Y-65381000D01*
X140579000Y-64479000D01*
X141681000Y-64479000D01*
X141681000Y-65381000D01*
X141681000Y-65381000D01*
G37*
G36*
X143426136Y-63348253D02*
X143517312Y-63386019D01*
X143599372Y-63440850D01*
X143669150Y-63510628D01*
X143723981Y-63592688D01*
X143761747Y-63683864D01*
X143781000Y-63780656D01*
X143781000Y-63879344D01*
X143761747Y-63976136D01*
X143723981Y-64067312D01*
X143669150Y-64149372D01*
X143599372Y-64219150D01*
X143517312Y-64273981D01*
X143426136Y-64311747D01*
X143329344Y-64331000D01*
X143230656Y-64331000D01*
X143133864Y-64311747D01*
X143042688Y-64273981D01*
X142960628Y-64219150D01*
X142890850Y-64149372D01*
X142836019Y-64067312D01*
X142798253Y-63976136D01*
X142779000Y-63879344D01*
X142779000Y-63780656D01*
X142798253Y-63683864D01*
X142836019Y-63592688D01*
X142890850Y-63510628D01*
X142960628Y-63440850D01*
X143042688Y-63386019D01*
X143133864Y-63348253D01*
X143230656Y-63329000D01*
X143329344Y-63329000D01*
X143426136Y-63348253D01*
X143426136Y-63348253D01*
G37*
G36*
X146426136Y-63348253D02*
X146517312Y-63386019D01*
X146599372Y-63440850D01*
X146669150Y-63510628D01*
X146723981Y-63592688D01*
X146761747Y-63683864D01*
X146781000Y-63780656D01*
X146781000Y-63879344D01*
X146761747Y-63976136D01*
X146723981Y-64067312D01*
X146669150Y-64149372D01*
X146599372Y-64219150D01*
X146517312Y-64273981D01*
X146426136Y-64311747D01*
X146329344Y-64331000D01*
X146230656Y-64331000D01*
X146133864Y-64311747D01*
X146042688Y-64273981D01*
X145960628Y-64219150D01*
X145890850Y-64149372D01*
X145836019Y-64067312D01*
X145798253Y-63976136D01*
X145779000Y-63879344D01*
X145779000Y-63780656D01*
X145798253Y-63683864D01*
X145836019Y-63592688D01*
X145890850Y-63510628D01*
X145960628Y-63440850D01*
X146042688Y-63386019D01*
X146133864Y-63348253D01*
X146230656Y-63329000D01*
X146329344Y-63329000D01*
X146426136Y-63348253D01*
X146426136Y-63348253D01*
G37*
G36*
X141681000Y-63171000D02*
X140579000Y-63171000D01*
X140579000Y-62269000D01*
X141681000Y-62269000D01*
X141681000Y-63171000D01*
X141681000Y-63171000D01*
G37*
G36*
X148981000Y-63171000D02*
X147879000Y-63171000D01*
X147879000Y-62269000D01*
X148981000Y-62269000D01*
X148981000Y-63171000D01*
X148981000Y-63171000D01*
G37*
G36*
X147431000Y-62871000D02*
X146629000Y-62871000D01*
X146629000Y-61269000D01*
X147431000Y-61269000D01*
X147431000Y-62871000D01*
X147431000Y-62871000D01*
G37*
G36*
X145931000Y-62871000D02*
X145129000Y-62871000D01*
X145129000Y-61269000D01*
X145931000Y-61269000D01*
X145931000Y-62871000D01*
X145931000Y-62871000D01*
G37*
G36*
X142931000Y-62871000D02*
X142129000Y-62871000D01*
X142129000Y-61269000D01*
X142931000Y-61269000D01*
X142931000Y-62871000D01*
X142931000Y-62871000D01*
G37*
G36*
X162670443Y-60700519D02*
X162736627Y-60707037D01*
X162849853Y-60741384D01*
X162906467Y-60758557D01*
X163045087Y-60832652D01*
X163062991Y-60842222D01*
X163098729Y-60871552D01*
X163200186Y-60954814D01*
X163283448Y-61056271D01*
X163312778Y-61092009D01*
X163312779Y-61092011D01*
X163396443Y-61248533D01*
X163396443Y-61248534D01*
X163447963Y-61418373D01*
X163465359Y-61595000D01*
X163447963Y-61771627D01*
X163413616Y-61884853D01*
X163396443Y-61941467D01*
X163322348Y-62080087D01*
X163312778Y-62097991D01*
X163283448Y-62133729D01*
X163200186Y-62235186D01*
X163098729Y-62318448D01*
X163062991Y-62347778D01*
X163062989Y-62347779D01*
X162906467Y-62431443D01*
X162849853Y-62448616D01*
X162736627Y-62482963D01*
X162670443Y-62489481D01*
X162604260Y-62496000D01*
X162515740Y-62496000D01*
X162449557Y-62489481D01*
X162383373Y-62482963D01*
X162270147Y-62448616D01*
X162213533Y-62431443D01*
X162057011Y-62347779D01*
X162057009Y-62347778D01*
X162021271Y-62318448D01*
X161919814Y-62235186D01*
X161836552Y-62133729D01*
X161807222Y-62097991D01*
X161797652Y-62080087D01*
X161723557Y-61941467D01*
X161706384Y-61884853D01*
X161672037Y-61771627D01*
X161654641Y-61595000D01*
X161672037Y-61418373D01*
X161723557Y-61248534D01*
X161723557Y-61248533D01*
X161807221Y-61092011D01*
X161807222Y-61092009D01*
X161836552Y-61056271D01*
X161919814Y-60954814D01*
X162021271Y-60871552D01*
X162057009Y-60842222D01*
X162074913Y-60832652D01*
X162213533Y-60758557D01*
X162270147Y-60741384D01*
X162383373Y-60707037D01*
X162449557Y-60700519D01*
X162515740Y-60694000D01*
X162604260Y-60694000D01*
X162670443Y-60700519D01*
X162670443Y-60700519D01*
G37*
G36*
X162670442Y-58160518D02*
X162736627Y-58167037D01*
X162849853Y-58201384D01*
X162906467Y-58218557D01*
X163045087Y-58292652D01*
X163062991Y-58302222D01*
X163098729Y-58331552D01*
X163200186Y-58414814D01*
X163283448Y-58516271D01*
X163312778Y-58552009D01*
X163312779Y-58552011D01*
X163396443Y-58708533D01*
X163396443Y-58708534D01*
X163447963Y-58878373D01*
X163465359Y-59055000D01*
X163447963Y-59231627D01*
X163413616Y-59344853D01*
X163396443Y-59401467D01*
X163322348Y-59540087D01*
X163312778Y-59557991D01*
X163283448Y-59593729D01*
X163200186Y-59695186D01*
X163098729Y-59778448D01*
X163062991Y-59807778D01*
X163062989Y-59807779D01*
X162906467Y-59891443D01*
X162849853Y-59908616D01*
X162736627Y-59942963D01*
X162670442Y-59949482D01*
X162604260Y-59956000D01*
X162515740Y-59956000D01*
X162449558Y-59949482D01*
X162383373Y-59942963D01*
X162270147Y-59908616D01*
X162213533Y-59891443D01*
X162057011Y-59807779D01*
X162057009Y-59807778D01*
X162021271Y-59778448D01*
X161919814Y-59695186D01*
X161836552Y-59593729D01*
X161807222Y-59557991D01*
X161797652Y-59540087D01*
X161723557Y-59401467D01*
X161706384Y-59344853D01*
X161672037Y-59231627D01*
X161654641Y-59055000D01*
X161672037Y-58878373D01*
X161723557Y-58708534D01*
X161723557Y-58708533D01*
X161807221Y-58552011D01*
X161807222Y-58552009D01*
X161836552Y-58516271D01*
X161919814Y-58414814D01*
X162021271Y-58331552D01*
X162057009Y-58302222D01*
X162074913Y-58292652D01*
X162213533Y-58218557D01*
X162270147Y-58201384D01*
X162383373Y-58167037D01*
X162449558Y-58160518D01*
X162515740Y-58154000D01*
X162604260Y-58154000D01*
X162670442Y-58160518D01*
X162670442Y-58160518D01*
G37*
G36*
X162670443Y-55620519D02*
X162736627Y-55627037D01*
X162849853Y-55661384D01*
X162906467Y-55678557D01*
X163045087Y-55752652D01*
X163062991Y-55762222D01*
X163098729Y-55791552D01*
X163200186Y-55874814D01*
X163283448Y-55976271D01*
X163312778Y-56012009D01*
X163312779Y-56012011D01*
X163396443Y-56168533D01*
X163396443Y-56168534D01*
X163447963Y-56338373D01*
X163465359Y-56515000D01*
X163447963Y-56691627D01*
X163413616Y-56804853D01*
X163396443Y-56861467D01*
X163322348Y-57000087D01*
X163312778Y-57017991D01*
X163283448Y-57053729D01*
X163200186Y-57155186D01*
X163098729Y-57238448D01*
X163062991Y-57267778D01*
X163062989Y-57267779D01*
X162906467Y-57351443D01*
X162849853Y-57368616D01*
X162736627Y-57402963D01*
X162670443Y-57409481D01*
X162604260Y-57416000D01*
X162515740Y-57416000D01*
X162449557Y-57409481D01*
X162383373Y-57402963D01*
X162270147Y-57368616D01*
X162213533Y-57351443D01*
X162057011Y-57267779D01*
X162057009Y-57267778D01*
X162021271Y-57238448D01*
X161919814Y-57155186D01*
X161836552Y-57053729D01*
X161807222Y-57017991D01*
X161797652Y-57000087D01*
X161723557Y-56861467D01*
X161706384Y-56804853D01*
X161672037Y-56691627D01*
X161654641Y-56515000D01*
X161672037Y-56338373D01*
X161723557Y-56168534D01*
X161723557Y-56168533D01*
X161807221Y-56012011D01*
X161807222Y-56012009D01*
X161836552Y-55976271D01*
X161919814Y-55874814D01*
X162021271Y-55791552D01*
X162057009Y-55762222D01*
X162074913Y-55752652D01*
X162213533Y-55678557D01*
X162270147Y-55661384D01*
X162383373Y-55627037D01*
X162449557Y-55620519D01*
X162515740Y-55614000D01*
X162604260Y-55614000D01*
X162670443Y-55620519D01*
X162670443Y-55620519D01*
G37*
G36*
X162670442Y-53080518D02*
X162736627Y-53087037D01*
X162849853Y-53121384D01*
X162906467Y-53138557D01*
X163045087Y-53212652D01*
X163062991Y-53222222D01*
X163098729Y-53251552D01*
X163200186Y-53334814D01*
X163283448Y-53436271D01*
X163312778Y-53472009D01*
X163312779Y-53472011D01*
X163396443Y-53628533D01*
X163396443Y-53628534D01*
X163447963Y-53798373D01*
X163465359Y-53975000D01*
X163447963Y-54151627D01*
X163413616Y-54264853D01*
X163396443Y-54321467D01*
X163322348Y-54460087D01*
X163312778Y-54477991D01*
X163283448Y-54513729D01*
X163200186Y-54615186D01*
X163098729Y-54698448D01*
X163062991Y-54727778D01*
X163062989Y-54727779D01*
X162906467Y-54811443D01*
X162849853Y-54828616D01*
X162736627Y-54862963D01*
X162670443Y-54869481D01*
X162604260Y-54876000D01*
X162515740Y-54876000D01*
X162449557Y-54869481D01*
X162383373Y-54862963D01*
X162270147Y-54828616D01*
X162213533Y-54811443D01*
X162057011Y-54727779D01*
X162057009Y-54727778D01*
X162021271Y-54698448D01*
X161919814Y-54615186D01*
X161836552Y-54513729D01*
X161807222Y-54477991D01*
X161797652Y-54460087D01*
X161723557Y-54321467D01*
X161706384Y-54264853D01*
X161672037Y-54151627D01*
X161654641Y-53975000D01*
X161672037Y-53798373D01*
X161723557Y-53628534D01*
X161723557Y-53628533D01*
X161807221Y-53472011D01*
X161807222Y-53472009D01*
X161836552Y-53436271D01*
X161919814Y-53334814D01*
X162021271Y-53251552D01*
X162057009Y-53222222D01*
X162074913Y-53212652D01*
X162213533Y-53138557D01*
X162270147Y-53121384D01*
X162383373Y-53087037D01*
X162449558Y-53080518D01*
X162515740Y-53074000D01*
X162604260Y-53074000D01*
X162670442Y-53080518D01*
X162670442Y-53080518D01*
G37*
G36*
X162670442Y-50540518D02*
X162736627Y-50547037D01*
X162849853Y-50581384D01*
X162906467Y-50598557D01*
X163045087Y-50672652D01*
X163062991Y-50682222D01*
X163098729Y-50711552D01*
X163200186Y-50794814D01*
X163283448Y-50896271D01*
X163312778Y-50932009D01*
X163312779Y-50932011D01*
X163396443Y-51088533D01*
X163396443Y-51088534D01*
X163447963Y-51258373D01*
X163465359Y-51435000D01*
X163447963Y-51611627D01*
X163420852Y-51701000D01*
X163396443Y-51781467D01*
X163322348Y-51920087D01*
X163312778Y-51937991D01*
X163283448Y-51973729D01*
X163200186Y-52075186D01*
X163098729Y-52158448D01*
X163062991Y-52187778D01*
X163062989Y-52187779D01*
X162906467Y-52271443D01*
X162849853Y-52288616D01*
X162736627Y-52322963D01*
X162670443Y-52329481D01*
X162604260Y-52336000D01*
X162515740Y-52336000D01*
X162449558Y-52329482D01*
X162383373Y-52322963D01*
X162270147Y-52288616D01*
X162213533Y-52271443D01*
X162057011Y-52187779D01*
X162057009Y-52187778D01*
X162021271Y-52158448D01*
X161919814Y-52075186D01*
X161836552Y-51973729D01*
X161807222Y-51937991D01*
X161797652Y-51920087D01*
X161723557Y-51781467D01*
X161699148Y-51701000D01*
X161672037Y-51611627D01*
X161654641Y-51435000D01*
X161672037Y-51258373D01*
X161723557Y-51088534D01*
X161723557Y-51088533D01*
X161807221Y-50932011D01*
X161807222Y-50932009D01*
X161836552Y-50896271D01*
X161919814Y-50794814D01*
X162021271Y-50711552D01*
X162057009Y-50682222D01*
X162074913Y-50672652D01*
X162213533Y-50598557D01*
X162270147Y-50581384D01*
X162383373Y-50547037D01*
X162449558Y-50540518D01*
X162515740Y-50534000D01*
X162604260Y-50534000D01*
X162670442Y-50540518D01*
X162670442Y-50540518D01*
G37*
G36*
X175526000Y-51701000D02*
X173724000Y-51701000D01*
X173724000Y-49899000D01*
X175526000Y-49899000D01*
X175526000Y-51701000D01*
X175526000Y-51701000D01*
G37*
G36*
X163461000Y-49796000D02*
X161659000Y-49796000D01*
X161659000Y-47994000D01*
X163461000Y-47994000D01*
X163461000Y-49796000D01*
X163461000Y-49796000D01*
G37*
G36*
X174735443Y-47365519D02*
X174801627Y-47372037D01*
X174914853Y-47406384D01*
X174971467Y-47423557D01*
X175110087Y-47497652D01*
X175127991Y-47507222D01*
X175163729Y-47536552D01*
X175265186Y-47619814D01*
X175348448Y-47721271D01*
X175377778Y-47757009D01*
X175377779Y-47757011D01*
X175461443Y-47913533D01*
X175461443Y-47913534D01*
X175512963Y-48083373D01*
X175530359Y-48260000D01*
X175512963Y-48436627D01*
X175478616Y-48549853D01*
X175461443Y-48606467D01*
X175387348Y-48745087D01*
X175377778Y-48762991D01*
X175348448Y-48798729D01*
X175265186Y-48900186D01*
X175163729Y-48983448D01*
X175127991Y-49012778D01*
X175127989Y-49012779D01*
X174971467Y-49096443D01*
X174914853Y-49113616D01*
X174801627Y-49147963D01*
X174735443Y-49154481D01*
X174669260Y-49161000D01*
X174580740Y-49161000D01*
X174514557Y-49154481D01*
X174448373Y-49147963D01*
X174335147Y-49113616D01*
X174278533Y-49096443D01*
X174122011Y-49012779D01*
X174122009Y-49012778D01*
X174086271Y-48983448D01*
X173984814Y-48900186D01*
X173901552Y-48798729D01*
X173872222Y-48762991D01*
X173862652Y-48745087D01*
X173788557Y-48606467D01*
X173771384Y-48549853D01*
X173737037Y-48436627D01*
X173719641Y-48260000D01*
X173737037Y-48083373D01*
X173788557Y-47913534D01*
X173788557Y-47913533D01*
X173872221Y-47757011D01*
X173872222Y-47757009D01*
X173901552Y-47721271D01*
X173984814Y-47619814D01*
X174086271Y-47536552D01*
X174122009Y-47507222D01*
X174139913Y-47497652D01*
X174278533Y-47423557D01*
X174335147Y-47406384D01*
X174448373Y-47372037D01*
X174514557Y-47365519D01*
X174580740Y-47359000D01*
X174669260Y-47359000D01*
X174735443Y-47365519D01*
X174735443Y-47365519D01*
G37*
G36*
X174735442Y-44825518D02*
X174801627Y-44832037D01*
X174914853Y-44866384D01*
X174971467Y-44883557D01*
X175110087Y-44957652D01*
X175127991Y-44967222D01*
X175163729Y-44996552D01*
X175265186Y-45079814D01*
X175348448Y-45181271D01*
X175377778Y-45217009D01*
X175377779Y-45217011D01*
X175461443Y-45373533D01*
X175461443Y-45373534D01*
X175512963Y-45543373D01*
X175530359Y-45720000D01*
X175512963Y-45896627D01*
X175478616Y-46009853D01*
X175461443Y-46066467D01*
X175387348Y-46205087D01*
X175377778Y-46222991D01*
X175348448Y-46258729D01*
X175265186Y-46360186D01*
X175163729Y-46443448D01*
X175127991Y-46472778D01*
X175127989Y-46472779D01*
X174971467Y-46556443D01*
X174914853Y-46573616D01*
X174801627Y-46607963D01*
X174735443Y-46614481D01*
X174669260Y-46621000D01*
X174580740Y-46621000D01*
X174514558Y-46614482D01*
X174448373Y-46607963D01*
X174335147Y-46573616D01*
X174278533Y-46556443D01*
X174122011Y-46472779D01*
X174122009Y-46472778D01*
X174086271Y-46443448D01*
X173984814Y-46360186D01*
X173901552Y-46258729D01*
X173872222Y-46222991D01*
X173862652Y-46205087D01*
X173788557Y-46066467D01*
X173771384Y-46009853D01*
X173737037Y-45896627D01*
X173719641Y-45720000D01*
X173737037Y-45543373D01*
X173788557Y-45373534D01*
X173788557Y-45373533D01*
X173872221Y-45217011D01*
X173872222Y-45217009D01*
X173901552Y-45181271D01*
X173984814Y-45079814D01*
X174086271Y-44996552D01*
X174122009Y-44967222D01*
X174139913Y-44957652D01*
X174278533Y-44883557D01*
X174335147Y-44866384D01*
X174448373Y-44832037D01*
X174514558Y-44825518D01*
X174580740Y-44819000D01*
X174669260Y-44819000D01*
X174735442Y-44825518D01*
X174735442Y-44825518D01*
G37*
G36*
X174735442Y-42285518D02*
X174801627Y-42292037D01*
X174914853Y-42326384D01*
X174971467Y-42343557D01*
X175110087Y-42417652D01*
X175127991Y-42427222D01*
X175163729Y-42456552D01*
X175265186Y-42539814D01*
X175348448Y-42641271D01*
X175377778Y-42677009D01*
X175377779Y-42677011D01*
X175461443Y-42833533D01*
X175461443Y-42833534D01*
X175512963Y-43003373D01*
X175530359Y-43180000D01*
X175512963Y-43356627D01*
X175478616Y-43469853D01*
X175461443Y-43526467D01*
X175387348Y-43665087D01*
X175377778Y-43682991D01*
X175348448Y-43718729D01*
X175265186Y-43820186D01*
X175163729Y-43903448D01*
X175127991Y-43932778D01*
X175127989Y-43932779D01*
X174971467Y-44016443D01*
X174914853Y-44033616D01*
X174801627Y-44067963D01*
X174735443Y-44074481D01*
X174669260Y-44081000D01*
X174580740Y-44081000D01*
X174514557Y-44074481D01*
X174448373Y-44067963D01*
X174335147Y-44033616D01*
X174278533Y-44016443D01*
X174122011Y-43932779D01*
X174122009Y-43932778D01*
X174086271Y-43903448D01*
X173984814Y-43820186D01*
X173901552Y-43718729D01*
X173872222Y-43682991D01*
X173862652Y-43665087D01*
X173788557Y-43526467D01*
X173771384Y-43469853D01*
X173737037Y-43356627D01*
X173719641Y-43180000D01*
X173737037Y-43003373D01*
X173788557Y-42833534D01*
X173788557Y-42833533D01*
X173872221Y-42677011D01*
X173872222Y-42677009D01*
X173901552Y-42641271D01*
X173984814Y-42539814D01*
X174086271Y-42456552D01*
X174122009Y-42427222D01*
X174139913Y-42417652D01*
X174278533Y-42343557D01*
X174335147Y-42326384D01*
X174448373Y-42292037D01*
X174514557Y-42285519D01*
X174580740Y-42279000D01*
X174669260Y-42279000D01*
X174735442Y-42285518D01*
X174735442Y-42285518D01*
G37*
G36*
X174735442Y-39745518D02*
X174801627Y-39752037D01*
X174914853Y-39786384D01*
X174971467Y-39803557D01*
X175110087Y-39877652D01*
X175127991Y-39887222D01*
X175163729Y-39916552D01*
X175265186Y-39999814D01*
X175348448Y-40101271D01*
X175377778Y-40137009D01*
X175377779Y-40137011D01*
X175461443Y-40293533D01*
X175461443Y-40293534D01*
X175512963Y-40463373D01*
X175530359Y-40640000D01*
X175512963Y-40816627D01*
X175478616Y-40929853D01*
X175461443Y-40986467D01*
X175387348Y-41125087D01*
X175377778Y-41142991D01*
X175348448Y-41178729D01*
X175265186Y-41280186D01*
X175163729Y-41363448D01*
X175127991Y-41392778D01*
X175127989Y-41392779D01*
X174971467Y-41476443D01*
X174914853Y-41493616D01*
X174801627Y-41527963D01*
X174735442Y-41534482D01*
X174669260Y-41541000D01*
X174580740Y-41541000D01*
X174514558Y-41534482D01*
X174448373Y-41527963D01*
X174335147Y-41493616D01*
X174278533Y-41476443D01*
X174122011Y-41392779D01*
X174122009Y-41392778D01*
X174086271Y-41363448D01*
X173984814Y-41280186D01*
X173901552Y-41178729D01*
X173872222Y-41142991D01*
X173862652Y-41125087D01*
X173788557Y-40986467D01*
X173771384Y-40929853D01*
X173737037Y-40816627D01*
X173719641Y-40640000D01*
X173737037Y-40463373D01*
X173788557Y-40293534D01*
X173788557Y-40293533D01*
X173872221Y-40137011D01*
X173872222Y-40137009D01*
X173901552Y-40101271D01*
X173984814Y-39999814D01*
X174086271Y-39916552D01*
X174122009Y-39887222D01*
X174139913Y-39877652D01*
X174278533Y-39803557D01*
X174335147Y-39786384D01*
X174448373Y-39752037D01*
X174514557Y-39745519D01*
X174580740Y-39739000D01*
X174669260Y-39739000D01*
X174735442Y-39745518D01*
X174735442Y-39745518D01*
G37*
M02*
