G04 #@! TF.FileFunction,Soldermask,Bot*
%FSLAX46Y46*%
G04 Gerber Fmt 4.6, Leading zero omitted, Abs format (unit mm)*
G04 Created by KiCad (PCBNEW 4.0.5) date Sunday, March 11, 2018 'PMt' 06:28:43 PM*
%MOMM*%
%LPD*%
G01*
G04 APERTURE LIST*
%ADD10C,0.100000*%
G04 APERTURE END LIST*
D10*
G36*
X67750651Y-51428429D02*
X67750664Y-51428433D01*
X67750701Y-51428437D01*
X67871885Y-51465950D01*
X67983475Y-51526287D01*
X68081221Y-51607149D01*
X68161399Y-51705456D01*
X68220955Y-51817465D01*
X68257621Y-51938909D01*
X68270000Y-52065161D01*
X68270000Y-52774839D01*
X68269937Y-52783914D01*
X68255796Y-52909982D01*
X68217438Y-53030901D01*
X68156324Y-53142068D01*
X68074781Y-53239246D01*
X67975916Y-53318736D01*
X67863494Y-53377509D01*
X67741798Y-53413326D01*
X67741764Y-53413329D01*
X67741751Y-53413333D01*
X67615464Y-53424826D01*
X67489349Y-53411571D01*
X67489336Y-53411567D01*
X67489299Y-53411563D01*
X67368115Y-53374050D01*
X67256525Y-53313713D01*
X67158779Y-53232851D01*
X67078601Y-53134544D01*
X67019045Y-53022535D01*
X66982379Y-52901091D01*
X66970000Y-52774839D01*
X66970000Y-52065161D01*
X66970063Y-52056086D01*
X66984204Y-51930018D01*
X67022562Y-51809099D01*
X67083676Y-51697932D01*
X67165219Y-51600754D01*
X67264084Y-51521264D01*
X67376506Y-51462491D01*
X67498202Y-51426674D01*
X67498236Y-51426671D01*
X67498249Y-51426667D01*
X67624536Y-51415174D01*
X67750651Y-51428429D01*
X67750651Y-51428429D01*
G37*
G36*
X74750651Y-51428429D02*
X74750664Y-51428433D01*
X74750701Y-51428437D01*
X74871885Y-51465950D01*
X74983475Y-51526287D01*
X75081221Y-51607149D01*
X75161399Y-51705456D01*
X75220955Y-51817465D01*
X75257621Y-51938909D01*
X75270000Y-52065161D01*
X75270000Y-52774839D01*
X75269937Y-52783914D01*
X75255796Y-52909982D01*
X75217438Y-53030901D01*
X75156324Y-53142068D01*
X75074781Y-53239246D01*
X74975916Y-53318736D01*
X74863494Y-53377509D01*
X74741798Y-53413326D01*
X74741764Y-53413329D01*
X74741751Y-53413333D01*
X74615464Y-53424826D01*
X74489349Y-53411571D01*
X74489336Y-53411567D01*
X74489299Y-53411563D01*
X74368115Y-53374050D01*
X74256525Y-53313713D01*
X74158779Y-53232851D01*
X74078601Y-53134544D01*
X74019045Y-53022535D01*
X73982379Y-52901091D01*
X73970000Y-52774839D01*
X73970000Y-52065161D01*
X73970063Y-52056086D01*
X73984204Y-51930018D01*
X74022562Y-51809099D01*
X74083676Y-51697932D01*
X74165219Y-51600754D01*
X74264084Y-51521264D01*
X74376506Y-51462491D01*
X74498202Y-51426674D01*
X74498236Y-51426671D01*
X74498249Y-51426667D01*
X74624536Y-51415174D01*
X74750651Y-51428429D01*
X74750651Y-51428429D01*
G37*
G36*
X79832517Y-51900332D02*
X79928571Y-51920049D01*
X80018965Y-51958047D01*
X80100255Y-52012877D01*
X80169348Y-52082454D01*
X80223614Y-52164130D01*
X80260976Y-52254780D01*
X80279955Y-52350629D01*
X80279955Y-52350638D01*
X80280021Y-52350972D01*
X80278457Y-52462970D01*
X80278381Y-52463304D01*
X80278381Y-52463316D01*
X80256737Y-52558587D01*
X80216852Y-52648168D01*
X80160334Y-52728289D01*
X80089321Y-52795913D01*
X80006527Y-52848455D01*
X79915110Y-52883913D01*
X79818547Y-52900940D01*
X79720514Y-52898887D01*
X79624741Y-52877830D01*
X79534889Y-52838574D01*
X79454370Y-52782613D01*
X79386254Y-52712076D01*
X79333139Y-52629658D01*
X79297042Y-52538488D01*
X79279340Y-52442038D01*
X79280710Y-52343995D01*
X79301096Y-52248085D01*
X79339725Y-52157957D01*
X79395123Y-52077050D01*
X79465183Y-52008442D01*
X79547230Y-51954752D01*
X79638146Y-51918020D01*
X79734461Y-51899647D01*
X79832517Y-51900332D01*
X79832517Y-51900332D01*
G37*
G36*
X82832517Y-51900332D02*
X82928571Y-51920049D01*
X83018965Y-51958047D01*
X83100255Y-52012877D01*
X83169348Y-52082454D01*
X83223614Y-52164130D01*
X83260976Y-52254780D01*
X83279955Y-52350629D01*
X83279955Y-52350638D01*
X83280021Y-52350972D01*
X83278457Y-52462970D01*
X83278381Y-52463304D01*
X83278381Y-52463316D01*
X83256737Y-52558587D01*
X83216852Y-52648168D01*
X83160334Y-52728289D01*
X83089321Y-52795913D01*
X83006527Y-52848455D01*
X82915110Y-52883913D01*
X82818547Y-52900940D01*
X82720514Y-52898887D01*
X82624741Y-52877830D01*
X82534889Y-52838574D01*
X82454370Y-52782613D01*
X82386254Y-52712076D01*
X82333139Y-52629658D01*
X82297042Y-52538488D01*
X82279340Y-52442038D01*
X82280710Y-52343995D01*
X82301096Y-52248085D01*
X82339725Y-52157957D01*
X82395123Y-52077050D01*
X82465183Y-52008442D01*
X82547230Y-51954752D01*
X82638146Y-51918020D01*
X82734461Y-51899647D01*
X82832517Y-51900332D01*
X82832517Y-51900332D01*
G37*
G36*
X68701401Y-48945514D02*
X68850285Y-48976076D01*
X68990392Y-49034971D01*
X69116397Y-49119963D01*
X69223491Y-49227807D01*
X69307596Y-49354397D01*
X69365514Y-49494914D01*
X69394968Y-49643664D01*
X69394968Y-49643678D01*
X69395033Y-49644007D01*
X69392609Y-49817603D01*
X69392533Y-49817937D01*
X69392533Y-49817945D01*
X69358939Y-49965816D01*
X69297121Y-50104658D01*
X69209513Y-50228851D01*
X69099444Y-50333668D01*
X68971123Y-50415103D01*
X68829421Y-50470066D01*
X68679747Y-50496457D01*
X68527795Y-50493274D01*
X68379350Y-50460636D01*
X68240077Y-50399789D01*
X68115276Y-50313050D01*
X68009695Y-50203718D01*
X67927366Y-50075969D01*
X67871416Y-49934655D01*
X67843978Y-49785161D01*
X67846101Y-49633192D01*
X67877700Y-49484531D01*
X67937575Y-49344833D01*
X68023441Y-49219428D01*
X68132032Y-49113087D01*
X68259207Y-49029866D01*
X68400126Y-48972931D01*
X68549416Y-48944453D01*
X68701401Y-48945514D01*
X68701401Y-48945514D01*
G37*
G36*
X73701401Y-48945514D02*
X73850285Y-48976076D01*
X73990392Y-49034971D01*
X74116397Y-49119963D01*
X74223491Y-49227807D01*
X74307596Y-49354397D01*
X74365514Y-49494914D01*
X74394968Y-49643664D01*
X74394968Y-49643678D01*
X74395033Y-49644007D01*
X74392609Y-49817603D01*
X74392533Y-49817937D01*
X74392533Y-49817945D01*
X74358939Y-49965816D01*
X74297121Y-50104658D01*
X74209513Y-50228851D01*
X74099444Y-50333668D01*
X73971123Y-50415103D01*
X73829421Y-50470066D01*
X73679747Y-50496457D01*
X73527795Y-50493274D01*
X73379350Y-50460636D01*
X73240077Y-50399789D01*
X73115276Y-50313050D01*
X73009695Y-50203718D01*
X72927366Y-50075969D01*
X72871416Y-49934655D01*
X72843978Y-49785161D01*
X72846101Y-49633192D01*
X72877700Y-49484531D01*
X72937575Y-49344833D01*
X73023441Y-49219428D01*
X73132032Y-49113087D01*
X73259207Y-49029866D01*
X73400126Y-48972931D01*
X73549416Y-48944453D01*
X73701401Y-48945514D01*
X73701401Y-48945514D01*
G37*
G36*
X49045597Y-47665957D02*
X49045610Y-47665961D01*
X49045647Y-47665965D01*
X49157509Y-47700592D01*
X49260516Y-47756287D01*
X49350742Y-47830929D01*
X49424753Y-47921675D01*
X49479728Y-48025068D01*
X49513573Y-48137169D01*
X49525000Y-48253710D01*
X49525000Y-49666290D01*
X49524942Y-49674667D01*
X49511889Y-49791037D01*
X49476481Y-49902655D01*
X49420068Y-50005270D01*
X49344798Y-50094974D01*
X49253538Y-50168349D01*
X49149764Y-50222600D01*
X49037429Y-50255662D01*
X49037399Y-50255665D01*
X49037381Y-50255670D01*
X48920813Y-50266278D01*
X48804403Y-50254043D01*
X48804390Y-50254039D01*
X48804353Y-50254035D01*
X48692491Y-50219408D01*
X48589484Y-50163713D01*
X48499258Y-50089071D01*
X48425247Y-49998325D01*
X48370272Y-49894932D01*
X48336427Y-49782831D01*
X48325000Y-49666290D01*
X48325000Y-48253710D01*
X48325058Y-48245333D01*
X48338111Y-48128963D01*
X48373519Y-48017345D01*
X48429932Y-47914730D01*
X48505202Y-47825026D01*
X48596462Y-47751651D01*
X48700236Y-47697400D01*
X48812571Y-47664338D01*
X48812601Y-47664335D01*
X48812619Y-47664330D01*
X48929187Y-47653722D01*
X49045597Y-47665957D01*
X49045597Y-47665957D01*
G37*
G36*
X37045597Y-47665957D02*
X37045610Y-47665961D01*
X37045647Y-47665965D01*
X37157509Y-47700592D01*
X37260516Y-47756287D01*
X37350742Y-47830929D01*
X37424753Y-47921675D01*
X37479728Y-48025068D01*
X37513573Y-48137169D01*
X37525000Y-48253710D01*
X37525000Y-49666290D01*
X37524942Y-49674667D01*
X37511889Y-49791037D01*
X37476481Y-49902655D01*
X37420068Y-50005270D01*
X37344798Y-50094974D01*
X37253538Y-50168349D01*
X37149764Y-50222600D01*
X37037429Y-50255662D01*
X37037399Y-50255665D01*
X37037381Y-50255670D01*
X36920813Y-50266278D01*
X36804403Y-50254043D01*
X36804390Y-50254039D01*
X36804353Y-50254035D01*
X36692491Y-50219408D01*
X36589484Y-50163713D01*
X36499258Y-50089071D01*
X36425247Y-49998325D01*
X36370272Y-49894932D01*
X36336427Y-49782831D01*
X36325000Y-49666290D01*
X36325000Y-48253710D01*
X36325058Y-48245333D01*
X36338111Y-48128963D01*
X36373519Y-48017345D01*
X36429932Y-47914730D01*
X36505202Y-47825026D01*
X36596462Y-47751651D01*
X36700236Y-47697400D01*
X36812571Y-47664338D01*
X36812601Y-47664335D01*
X36812619Y-47664330D01*
X36929187Y-47653722D01*
X37045597Y-47665957D01*
X37045597Y-47665957D01*
G37*
G36*
X39045597Y-47665957D02*
X39045610Y-47665961D01*
X39045647Y-47665965D01*
X39157509Y-47700592D01*
X39260516Y-47756287D01*
X39350742Y-47830929D01*
X39424753Y-47921675D01*
X39479728Y-48025068D01*
X39513573Y-48137169D01*
X39525000Y-48253710D01*
X39525000Y-49666290D01*
X39524942Y-49674667D01*
X39511889Y-49791037D01*
X39476481Y-49902655D01*
X39420068Y-50005270D01*
X39344798Y-50094974D01*
X39253538Y-50168349D01*
X39149764Y-50222600D01*
X39037429Y-50255662D01*
X39037399Y-50255665D01*
X39037381Y-50255670D01*
X38920813Y-50266278D01*
X38804403Y-50254043D01*
X38804390Y-50254039D01*
X38804353Y-50254035D01*
X38692491Y-50219408D01*
X38589484Y-50163713D01*
X38499258Y-50089071D01*
X38425247Y-49998325D01*
X38370272Y-49894932D01*
X38336427Y-49782831D01*
X38325000Y-49666290D01*
X38325000Y-48253710D01*
X38325058Y-48245333D01*
X38338111Y-48128963D01*
X38373519Y-48017345D01*
X38429932Y-47914730D01*
X38505202Y-47825026D01*
X38596462Y-47751651D01*
X38700236Y-47697400D01*
X38812571Y-47664338D01*
X38812601Y-47664335D01*
X38812619Y-47664330D01*
X38929187Y-47653722D01*
X39045597Y-47665957D01*
X39045597Y-47665957D01*
G37*
G36*
X41045597Y-47665957D02*
X41045610Y-47665961D01*
X41045647Y-47665965D01*
X41157509Y-47700592D01*
X41260516Y-47756287D01*
X41350742Y-47830929D01*
X41424753Y-47921675D01*
X41479728Y-48025068D01*
X41513573Y-48137169D01*
X41525000Y-48253710D01*
X41525000Y-49666290D01*
X41524942Y-49674667D01*
X41511889Y-49791037D01*
X41476481Y-49902655D01*
X41420068Y-50005270D01*
X41344798Y-50094974D01*
X41253538Y-50168349D01*
X41149764Y-50222600D01*
X41037429Y-50255662D01*
X41037399Y-50255665D01*
X41037381Y-50255670D01*
X40920813Y-50266278D01*
X40804403Y-50254043D01*
X40804390Y-50254039D01*
X40804353Y-50254035D01*
X40692491Y-50219408D01*
X40589484Y-50163713D01*
X40499258Y-50089071D01*
X40425247Y-49998325D01*
X40370272Y-49894932D01*
X40336427Y-49782831D01*
X40325000Y-49666290D01*
X40325000Y-48253710D01*
X40325058Y-48245333D01*
X40338111Y-48128963D01*
X40373519Y-48017345D01*
X40429932Y-47914730D01*
X40505202Y-47825026D01*
X40596462Y-47751651D01*
X40700236Y-47697400D01*
X40812571Y-47664338D01*
X40812601Y-47664335D01*
X40812619Y-47664330D01*
X40929187Y-47653722D01*
X41045597Y-47665957D01*
X41045597Y-47665957D01*
G37*
G36*
X43045597Y-47665957D02*
X43045610Y-47665961D01*
X43045647Y-47665965D01*
X43157509Y-47700592D01*
X43260516Y-47756287D01*
X43350742Y-47830929D01*
X43424753Y-47921675D01*
X43479728Y-48025068D01*
X43513573Y-48137169D01*
X43525000Y-48253710D01*
X43525000Y-49666290D01*
X43524942Y-49674667D01*
X43511889Y-49791037D01*
X43476481Y-49902655D01*
X43420068Y-50005270D01*
X43344798Y-50094974D01*
X43253538Y-50168349D01*
X43149764Y-50222600D01*
X43037429Y-50255662D01*
X43037399Y-50255665D01*
X43037381Y-50255670D01*
X42920813Y-50266278D01*
X42804403Y-50254043D01*
X42804390Y-50254039D01*
X42804353Y-50254035D01*
X42692491Y-50219408D01*
X42589484Y-50163713D01*
X42499258Y-50089071D01*
X42425247Y-49998325D01*
X42370272Y-49894932D01*
X42336427Y-49782831D01*
X42325000Y-49666290D01*
X42325000Y-48253710D01*
X42325058Y-48245333D01*
X42338111Y-48128963D01*
X42373519Y-48017345D01*
X42429932Y-47914730D01*
X42505202Y-47825026D01*
X42596462Y-47751651D01*
X42700236Y-47697400D01*
X42812571Y-47664338D01*
X42812601Y-47664335D01*
X42812619Y-47664330D01*
X42929187Y-47653722D01*
X43045597Y-47665957D01*
X43045597Y-47665957D01*
G37*
G36*
X45045597Y-47665957D02*
X45045610Y-47665961D01*
X45045647Y-47665965D01*
X45157509Y-47700592D01*
X45260516Y-47756287D01*
X45350742Y-47830929D01*
X45424753Y-47921675D01*
X45479728Y-48025068D01*
X45513573Y-48137169D01*
X45525000Y-48253710D01*
X45525000Y-49666290D01*
X45524942Y-49674667D01*
X45511889Y-49791037D01*
X45476481Y-49902655D01*
X45420068Y-50005270D01*
X45344798Y-50094974D01*
X45253538Y-50168349D01*
X45149764Y-50222600D01*
X45037429Y-50255662D01*
X45037399Y-50255665D01*
X45037381Y-50255670D01*
X44920813Y-50266278D01*
X44804403Y-50254043D01*
X44804390Y-50254039D01*
X44804353Y-50254035D01*
X44692491Y-50219408D01*
X44589484Y-50163713D01*
X44499258Y-50089071D01*
X44425247Y-49998325D01*
X44370272Y-49894932D01*
X44336427Y-49782831D01*
X44325000Y-49666290D01*
X44325000Y-48253710D01*
X44325058Y-48245333D01*
X44338111Y-48128963D01*
X44373519Y-48017345D01*
X44429932Y-47914730D01*
X44505202Y-47825026D01*
X44596462Y-47751651D01*
X44700236Y-47697400D01*
X44812571Y-47664338D01*
X44812601Y-47664335D01*
X44812619Y-47664330D01*
X44929187Y-47653722D01*
X45045597Y-47665957D01*
X45045597Y-47665957D01*
G37*
G36*
X47045597Y-47665957D02*
X47045610Y-47665961D01*
X47045647Y-47665965D01*
X47157509Y-47700592D01*
X47260516Y-47756287D01*
X47350742Y-47830929D01*
X47424753Y-47921675D01*
X47479728Y-48025068D01*
X47513573Y-48137169D01*
X47525000Y-48253710D01*
X47525000Y-49666290D01*
X47524942Y-49674667D01*
X47511889Y-49791037D01*
X47476481Y-49902655D01*
X47420068Y-50005270D01*
X47344798Y-50094974D01*
X47253538Y-50168349D01*
X47149764Y-50222600D01*
X47037429Y-50255662D01*
X47037399Y-50255665D01*
X47037381Y-50255670D01*
X46920813Y-50266278D01*
X46804403Y-50254043D01*
X46804390Y-50254039D01*
X46804353Y-50254035D01*
X46692491Y-50219408D01*
X46589484Y-50163713D01*
X46499258Y-50089071D01*
X46425247Y-49998325D01*
X46370272Y-49894932D01*
X46336427Y-49782831D01*
X46325000Y-49666290D01*
X46325000Y-48253710D01*
X46325058Y-48245333D01*
X46338111Y-48128963D01*
X46373519Y-48017345D01*
X46429932Y-47914730D01*
X46505202Y-47825026D01*
X46596462Y-47751651D01*
X46700236Y-47697400D01*
X46812571Y-47664338D01*
X46812601Y-47664335D01*
X46812619Y-47664330D01*
X46929187Y-47653722D01*
X47045597Y-47665957D01*
X47045597Y-47665957D01*
G37*
G36*
X35525000Y-50260000D02*
X34325000Y-50260000D01*
X34325000Y-47660000D01*
X35525000Y-47660000D01*
X35525000Y-50260000D01*
X35525000Y-50260000D01*
G37*
G36*
X47045597Y-32365957D02*
X47045610Y-32365961D01*
X47045647Y-32365965D01*
X47157509Y-32400592D01*
X47260516Y-32456287D01*
X47350742Y-32530929D01*
X47424753Y-32621675D01*
X47479728Y-32725068D01*
X47513573Y-32837169D01*
X47525000Y-32953710D01*
X47525000Y-34366290D01*
X47524942Y-34374667D01*
X47511889Y-34491037D01*
X47476481Y-34602655D01*
X47420068Y-34705270D01*
X47344798Y-34794974D01*
X47253538Y-34868349D01*
X47149764Y-34922600D01*
X47037429Y-34955662D01*
X47037399Y-34955665D01*
X47037381Y-34955670D01*
X46920813Y-34966278D01*
X46804403Y-34954043D01*
X46804390Y-34954039D01*
X46804353Y-34954035D01*
X46692491Y-34919408D01*
X46589484Y-34863713D01*
X46499258Y-34789071D01*
X46425247Y-34698325D01*
X46370272Y-34594932D01*
X46336427Y-34482831D01*
X46325000Y-34366290D01*
X46325000Y-32953710D01*
X46325058Y-32945333D01*
X46338111Y-32828963D01*
X46373519Y-32717345D01*
X46429932Y-32614730D01*
X46505202Y-32525026D01*
X46596462Y-32451651D01*
X46700236Y-32397400D01*
X46812571Y-32364338D01*
X46812601Y-32364335D01*
X46812619Y-32364330D01*
X46929187Y-32353722D01*
X47045597Y-32365957D01*
X47045597Y-32365957D01*
G37*
G36*
X49045597Y-32265957D02*
X49045610Y-32265961D01*
X49045647Y-32265965D01*
X49157509Y-32300592D01*
X49260516Y-32356287D01*
X49350742Y-32430929D01*
X49424753Y-32521675D01*
X49479728Y-32625068D01*
X49513573Y-32737169D01*
X49525000Y-32853710D01*
X49525000Y-34266290D01*
X49524942Y-34274667D01*
X49511889Y-34391037D01*
X49476481Y-34502655D01*
X49420068Y-34605270D01*
X49344798Y-34694974D01*
X49253538Y-34768349D01*
X49149764Y-34822600D01*
X49037429Y-34855662D01*
X49037399Y-34855665D01*
X49037381Y-34855670D01*
X48920813Y-34866278D01*
X48804403Y-34854043D01*
X48804390Y-34854039D01*
X48804353Y-34854035D01*
X48692491Y-34819408D01*
X48589484Y-34763713D01*
X48499258Y-34689071D01*
X48425247Y-34598325D01*
X48370272Y-34494932D01*
X48336427Y-34382831D01*
X48325000Y-34266290D01*
X48325000Y-32853710D01*
X48325058Y-32845333D01*
X48338111Y-32728963D01*
X48373519Y-32617345D01*
X48429932Y-32514730D01*
X48505202Y-32425026D01*
X48596462Y-32351651D01*
X48700236Y-32297400D01*
X48812571Y-32264338D01*
X48812601Y-32264335D01*
X48812619Y-32264330D01*
X48929187Y-32253722D01*
X49045597Y-32265957D01*
X49045597Y-32265957D01*
G37*
G36*
X45045597Y-32265957D02*
X45045610Y-32265961D01*
X45045647Y-32265965D01*
X45157509Y-32300592D01*
X45260516Y-32356287D01*
X45350742Y-32430929D01*
X45424753Y-32521675D01*
X45479728Y-32625068D01*
X45513573Y-32737169D01*
X45525000Y-32853710D01*
X45525000Y-34266290D01*
X45524942Y-34274667D01*
X45511889Y-34391037D01*
X45476481Y-34502655D01*
X45420068Y-34605270D01*
X45344798Y-34694974D01*
X45253538Y-34768349D01*
X45149764Y-34822600D01*
X45037429Y-34855662D01*
X45037399Y-34855665D01*
X45037381Y-34855670D01*
X44920813Y-34866278D01*
X44804403Y-34854043D01*
X44804390Y-34854039D01*
X44804353Y-34854035D01*
X44692491Y-34819408D01*
X44589484Y-34763713D01*
X44499258Y-34689071D01*
X44425247Y-34598325D01*
X44370272Y-34494932D01*
X44336427Y-34382831D01*
X44325000Y-34266290D01*
X44325000Y-32853710D01*
X44325058Y-32845333D01*
X44338111Y-32728963D01*
X44373519Y-32617345D01*
X44429932Y-32514730D01*
X44505202Y-32425026D01*
X44596462Y-32351651D01*
X44700236Y-32297400D01*
X44812571Y-32264338D01*
X44812601Y-32264335D01*
X44812619Y-32264330D01*
X44929187Y-32253722D01*
X45045597Y-32265957D01*
X45045597Y-32265957D01*
G37*
G36*
X43045597Y-32265957D02*
X43045610Y-32265961D01*
X43045647Y-32265965D01*
X43157509Y-32300592D01*
X43260516Y-32356287D01*
X43350742Y-32430929D01*
X43424753Y-32521675D01*
X43479728Y-32625068D01*
X43513573Y-32737169D01*
X43525000Y-32853710D01*
X43525000Y-34266290D01*
X43524942Y-34274667D01*
X43511889Y-34391037D01*
X43476481Y-34502655D01*
X43420068Y-34605270D01*
X43344798Y-34694974D01*
X43253538Y-34768349D01*
X43149764Y-34822600D01*
X43037429Y-34855662D01*
X43037399Y-34855665D01*
X43037381Y-34855670D01*
X42920813Y-34866278D01*
X42804403Y-34854043D01*
X42804390Y-34854039D01*
X42804353Y-34854035D01*
X42692491Y-34819408D01*
X42589484Y-34763713D01*
X42499258Y-34689071D01*
X42425247Y-34598325D01*
X42370272Y-34494932D01*
X42336427Y-34382831D01*
X42325000Y-34266290D01*
X42325000Y-32853710D01*
X42325058Y-32845333D01*
X42338111Y-32728963D01*
X42373519Y-32617345D01*
X42429932Y-32514730D01*
X42505202Y-32425026D01*
X42596462Y-32351651D01*
X42700236Y-32297400D01*
X42812571Y-32264338D01*
X42812601Y-32264335D01*
X42812619Y-32264330D01*
X42929187Y-32253722D01*
X43045597Y-32265957D01*
X43045597Y-32265957D01*
G37*
G36*
X41045597Y-32265957D02*
X41045610Y-32265961D01*
X41045647Y-32265965D01*
X41157509Y-32300592D01*
X41260516Y-32356287D01*
X41350742Y-32430929D01*
X41424753Y-32521675D01*
X41479728Y-32625068D01*
X41513573Y-32737169D01*
X41525000Y-32853710D01*
X41525000Y-34266290D01*
X41524942Y-34274667D01*
X41511889Y-34391037D01*
X41476481Y-34502655D01*
X41420068Y-34605270D01*
X41344798Y-34694974D01*
X41253538Y-34768349D01*
X41149764Y-34822600D01*
X41037429Y-34855662D01*
X41037399Y-34855665D01*
X41037381Y-34855670D01*
X40920813Y-34866278D01*
X40804403Y-34854043D01*
X40804390Y-34854039D01*
X40804353Y-34854035D01*
X40692491Y-34819408D01*
X40589484Y-34763713D01*
X40499258Y-34689071D01*
X40425247Y-34598325D01*
X40370272Y-34494932D01*
X40336427Y-34382831D01*
X40325000Y-34266290D01*
X40325000Y-32853710D01*
X40325058Y-32845333D01*
X40338111Y-32728963D01*
X40373519Y-32617345D01*
X40429932Y-32514730D01*
X40505202Y-32425026D01*
X40596462Y-32351651D01*
X40700236Y-32297400D01*
X40812571Y-32264338D01*
X40812601Y-32264335D01*
X40812619Y-32264330D01*
X40929187Y-32253722D01*
X41045597Y-32265957D01*
X41045597Y-32265957D01*
G37*
G36*
X39045597Y-32265957D02*
X39045610Y-32265961D01*
X39045647Y-32265965D01*
X39157509Y-32300592D01*
X39260516Y-32356287D01*
X39350742Y-32430929D01*
X39424753Y-32521675D01*
X39479728Y-32625068D01*
X39513573Y-32737169D01*
X39525000Y-32853710D01*
X39525000Y-34266290D01*
X39524942Y-34274667D01*
X39511889Y-34391037D01*
X39476481Y-34502655D01*
X39420068Y-34605270D01*
X39344798Y-34694974D01*
X39253538Y-34768349D01*
X39149764Y-34822600D01*
X39037429Y-34855662D01*
X39037399Y-34855665D01*
X39037381Y-34855670D01*
X38920813Y-34866278D01*
X38804403Y-34854043D01*
X38804390Y-34854039D01*
X38804353Y-34854035D01*
X38692491Y-34819408D01*
X38589484Y-34763713D01*
X38499258Y-34689071D01*
X38425247Y-34598325D01*
X38370272Y-34494932D01*
X38336427Y-34382831D01*
X38325000Y-34266290D01*
X38325000Y-32853710D01*
X38325058Y-32845333D01*
X38338111Y-32728963D01*
X38373519Y-32617345D01*
X38429932Y-32514730D01*
X38505202Y-32425026D01*
X38596462Y-32351651D01*
X38700236Y-32297400D01*
X38812571Y-32264338D01*
X38812601Y-32264335D01*
X38812619Y-32264330D01*
X38929187Y-32253722D01*
X39045597Y-32265957D01*
X39045597Y-32265957D01*
G37*
G36*
X37045597Y-32265957D02*
X37045610Y-32265961D01*
X37045647Y-32265965D01*
X37157509Y-32300592D01*
X37260516Y-32356287D01*
X37350742Y-32430929D01*
X37424753Y-32521675D01*
X37479728Y-32625068D01*
X37513573Y-32737169D01*
X37525000Y-32853710D01*
X37525000Y-34266290D01*
X37524942Y-34274667D01*
X37511889Y-34391037D01*
X37476481Y-34502655D01*
X37420068Y-34605270D01*
X37344798Y-34694974D01*
X37253538Y-34768349D01*
X37149764Y-34822600D01*
X37037429Y-34855662D01*
X37037399Y-34855665D01*
X37037381Y-34855670D01*
X36920813Y-34866278D01*
X36804403Y-34854043D01*
X36804390Y-34854039D01*
X36804353Y-34854035D01*
X36692491Y-34819408D01*
X36589484Y-34763713D01*
X36499258Y-34689071D01*
X36425247Y-34598325D01*
X36370272Y-34494932D01*
X36336427Y-34382831D01*
X36325000Y-34266290D01*
X36325000Y-32853710D01*
X36325058Y-32845333D01*
X36338111Y-32728963D01*
X36373519Y-32617345D01*
X36429932Y-32514730D01*
X36505202Y-32425026D01*
X36596462Y-32351651D01*
X36700236Y-32297400D01*
X36812571Y-32264338D01*
X36812601Y-32264335D01*
X36812619Y-32264330D01*
X36929187Y-32253722D01*
X37045597Y-32265957D01*
X37045597Y-32265957D01*
G37*
G36*
X35045597Y-32265957D02*
X35045610Y-32265961D01*
X35045647Y-32265965D01*
X35157509Y-32300592D01*
X35260516Y-32356287D01*
X35350742Y-32430929D01*
X35424753Y-32521675D01*
X35479728Y-32625068D01*
X35513573Y-32737169D01*
X35525000Y-32853710D01*
X35525000Y-34266290D01*
X35524942Y-34274667D01*
X35511889Y-34391037D01*
X35476481Y-34502655D01*
X35420068Y-34605270D01*
X35344798Y-34694974D01*
X35253538Y-34768349D01*
X35149764Y-34822600D01*
X35037429Y-34855662D01*
X35037399Y-34855665D01*
X35037381Y-34855670D01*
X34920813Y-34866278D01*
X34804403Y-34854043D01*
X34804390Y-34854039D01*
X34804353Y-34854035D01*
X34692491Y-34819408D01*
X34589484Y-34763713D01*
X34499258Y-34689071D01*
X34425247Y-34598325D01*
X34370272Y-34494932D01*
X34336427Y-34382831D01*
X34325000Y-34266290D01*
X34325000Y-32853710D01*
X34325058Y-32845333D01*
X34338111Y-32728963D01*
X34373519Y-32617345D01*
X34429932Y-32514730D01*
X34505202Y-32425026D01*
X34596462Y-32351651D01*
X34700236Y-32297400D01*
X34812571Y-32264338D01*
X34812601Y-32264335D01*
X34812619Y-32264330D01*
X34929187Y-32253722D01*
X35045597Y-32265957D01*
X35045597Y-32265957D01*
G37*
G36*
X33182803Y-25756030D02*
X33480567Y-25817153D01*
X33760784Y-25934945D01*
X34012788Y-26104923D01*
X34226979Y-26320615D01*
X34395194Y-26573798D01*
X34511027Y-26854830D01*
X34570001Y-27152671D01*
X34570001Y-27152681D01*
X34570067Y-27153015D01*
X34565219Y-27500207D01*
X34565142Y-27500545D01*
X34565142Y-27500553D01*
X34497878Y-27796622D01*
X34374241Y-28074315D01*
X34199023Y-28322703D01*
X33978891Y-28532331D01*
X33722244Y-28695204D01*
X33438843Y-28805129D01*
X33139492Y-28857912D01*
X32835588Y-28851546D01*
X32538703Y-28786272D01*
X32260161Y-28664579D01*
X32010549Y-28491095D01*
X31799394Y-28272437D01*
X31634733Y-28016934D01*
X31522833Y-27734308D01*
X31467960Y-27435325D01*
X31472205Y-27131385D01*
X31535402Y-26834061D01*
X31655151Y-26554667D01*
X31826884Y-26303857D01*
X32044065Y-26091178D01*
X32298416Y-25924735D01*
X32580253Y-25810866D01*
X32878836Y-25753908D01*
X33182803Y-25756030D01*
X33182803Y-25756030D01*
G37*
G36*
X41437803Y-25756030D02*
X41735567Y-25817153D01*
X42015784Y-25934945D01*
X42267788Y-26104923D01*
X42481979Y-26320615D01*
X42650194Y-26573798D01*
X42766027Y-26854830D01*
X42825001Y-27152671D01*
X42825001Y-27152681D01*
X42825067Y-27153015D01*
X42820219Y-27500207D01*
X42820142Y-27500545D01*
X42820142Y-27500553D01*
X42752878Y-27796622D01*
X42629241Y-28074315D01*
X42454023Y-28322703D01*
X42233891Y-28532331D01*
X41977244Y-28695204D01*
X41693843Y-28805129D01*
X41394492Y-28857912D01*
X41090588Y-28851546D01*
X40793703Y-28786272D01*
X40515161Y-28664579D01*
X40265549Y-28491095D01*
X40054394Y-28272437D01*
X39889733Y-28016934D01*
X39777833Y-27734308D01*
X39722960Y-27435325D01*
X39727205Y-27131385D01*
X39790402Y-26834061D01*
X39910151Y-26554667D01*
X40081884Y-26303857D01*
X40299065Y-26091178D01*
X40553416Y-25924735D01*
X40835253Y-25810866D01*
X41133836Y-25753908D01*
X41437803Y-25756030D01*
X41437803Y-25756030D01*
G37*
G36*
X111287803Y-25756030D02*
X111585567Y-25817153D01*
X111865784Y-25934945D01*
X112117788Y-26104923D01*
X112331979Y-26320615D01*
X112500194Y-26573798D01*
X112616027Y-26854830D01*
X112675001Y-27152671D01*
X112675001Y-27152681D01*
X112675067Y-27153015D01*
X112670219Y-27500207D01*
X112670142Y-27500545D01*
X112670142Y-27500553D01*
X112602878Y-27796622D01*
X112479241Y-28074315D01*
X112304023Y-28322703D01*
X112083891Y-28532331D01*
X111827244Y-28695204D01*
X111543843Y-28805129D01*
X111244492Y-28857912D01*
X110940588Y-28851546D01*
X110643703Y-28786272D01*
X110365161Y-28664579D01*
X110115549Y-28491095D01*
X109904394Y-28272437D01*
X109739733Y-28016934D01*
X109627833Y-27734308D01*
X109572960Y-27435325D01*
X109577205Y-27131385D01*
X109640402Y-26834061D01*
X109760151Y-26554667D01*
X109931884Y-26303857D01*
X110149065Y-26091178D01*
X110403416Y-25924735D01*
X110685253Y-25810866D01*
X110983836Y-25753908D01*
X111287803Y-25756030D01*
X111287803Y-25756030D01*
G37*
G36*
X119542803Y-25756030D02*
X119840567Y-25817153D01*
X120120784Y-25934945D01*
X120372788Y-26104923D01*
X120586979Y-26320615D01*
X120755194Y-26573798D01*
X120871027Y-26854830D01*
X120930001Y-27152671D01*
X120930001Y-27152681D01*
X120930067Y-27153015D01*
X120925219Y-27500207D01*
X120925142Y-27500545D01*
X120925142Y-27500553D01*
X120857878Y-27796622D01*
X120734241Y-28074315D01*
X120559023Y-28322703D01*
X120338891Y-28532331D01*
X120082244Y-28695204D01*
X119798843Y-28805129D01*
X119499492Y-28857912D01*
X119195588Y-28851546D01*
X118898703Y-28786272D01*
X118620161Y-28664579D01*
X118370549Y-28491095D01*
X118159394Y-28272437D01*
X117994733Y-28016934D01*
X117882833Y-27734308D01*
X117827960Y-27435325D01*
X117832205Y-27131385D01*
X117895402Y-26834061D01*
X118015151Y-26554667D01*
X118186884Y-26303857D01*
X118404065Y-26091178D01*
X118658416Y-25924735D01*
X118940253Y-25810866D01*
X119238836Y-25753908D01*
X119542803Y-25756030D01*
X119542803Y-25756030D01*
G37*
M02*
