G04 #@! TF.GenerationSoftware,KiCad,Pcbnew,(5.0.1-3-g963ef8bb5)*
G04 #@! TF.CreationDate,2019-01-12T19:40:24-05:00*
G04 #@! TF.ProjectId,glowtie,676C6F777469652E6B696361645F7063,rev?*
G04 #@! TF.SameCoordinates,Original*
G04 #@! TF.FileFunction,Copper,L2,Bot,Signal*
G04 #@! TF.FilePolarity,Positive*
%FSLAX46Y46*%
G04 Gerber Fmt 4.6, Leading zero omitted, Abs format (unit mm)*
G04 Created by KiCad (PCBNEW (5.0.1-3-g963ef8bb5)) date Saturday, January 12, 2019 at 07:40:24 PM*
%MOMM*%
%LPD*%
G01*
G04 APERTURE LIST*
G04 #@! TA.AperFunction,BGAPad,CuDef*
%ADD10C,3.000000*%
G04 #@! TD*
G04 #@! TA.AperFunction,SMDPad,CuDef*
%ADD11R,3.000000X3.000000*%
G04 #@! TD*
G04 #@! TA.AperFunction,ComponentPad*
%ADD12O,1.250000X0.950000*%
G04 #@! TD*
G04 #@! TA.AperFunction,ComponentPad*
%ADD13O,1.000000X1.550000*%
G04 #@! TD*
G04 #@! TA.AperFunction,ComponentPad*
%ADD14C,1.700000*%
G04 #@! TD*
G04 #@! TA.AperFunction,ViaPad*
%ADD15C,0.600000*%
G04 #@! TD*
G04 #@! TA.AperFunction,Conductor*
%ADD16C,0.508000*%
G04 #@! TD*
G04 #@! TA.AperFunction,Conductor*
%ADD17C,1.270000*%
G04 #@! TD*
G04 #@! TA.AperFunction,Conductor*
%ADD18C,0.635000*%
G04 #@! TD*
G04 #@! TA.AperFunction,Conductor*
%ADD19C,0.254000*%
G04 #@! TD*
G04 APERTURE END LIST*
D10*
G04 #@! TO.P,J8,1*
G04 #@! TO.N,Net-(10uF2-Pad1)*
X114173000Y-27305000D03*
G04 #@! TD*
G04 #@! TO.P,J9,1*
G04 #@! TO.N,Net-(10uF2-Pad1)*
X33020000Y-27305000D03*
G04 #@! TD*
D11*
G04 #@! TO.P,J6,1*
G04 #@! TO.N,GND*
X119380000Y-27305000D03*
G04 #@! TD*
G04 #@! TO.P,J7,1*
G04 #@! TO.N,GND*
X38100000Y-27305000D03*
G04 #@! TD*
D12*
G04 #@! TO.P,J1,6*
G04 #@! TO.N,Net-(J1-Pad6)*
X68620000Y-49577000D03*
X73620000Y-49577000D03*
D13*
X67620000Y-52277000D03*
X74620000Y-52277000D03*
G04 #@! TD*
D14*
G04 #@! TO.P,J11,1*
G04 #@! TO.N,GND*
X22860000Y-43815000D03*
G04 #@! TD*
G04 #@! TO.P,J10,1*
G04 #@! TO.N,+3V3*
X22860000Y-41275000D03*
G04 #@! TD*
G04 #@! TO.P,J5,1*
G04 #@! TO.N,Net-(J5-Pad1)*
X22860000Y-46355000D03*
G04 #@! TD*
G04 #@! TO.P,J4,1*
G04 #@! TO.N,Net-(J4-Pad1)*
X22860000Y-38735000D03*
G04 #@! TD*
G04 #@! TO.P,J2,1*
G04 #@! TO.N,Net-(J2-Pad1)*
X22860000Y-36195000D03*
G04 #@! TD*
D15*
G04 #@! TO.N,GND*
X112014000Y-40576500D03*
X115951000Y-44132500D03*
X71501000Y-38989000D03*
X63119000Y-41402000D03*
X113030000Y-20574000D03*
X51816000Y-32639000D03*
G04 #@! TO.N,Net-(10uF2-Pad1)*
X79057500Y-46291500D03*
X116459000Y-40449500D03*
G04 #@! TO.N,Net-(R470-Pad1)*
X116840000Y-42164000D03*
X112014000Y-42164000D03*
G04 #@! TO.N,Net-(J5-Pad1)*
X42926000Y-39116000D03*
X39878000Y-53340000D03*
G04 #@! TD*
D16*
G04 #@! TO.N,GND*
X111569500Y-44132500D02*
X115951000Y-44132500D01*
X110363000Y-42926000D02*
X111569500Y-44132500D01*
X110363000Y-41211500D02*
X110363000Y-42926000D01*
X110998000Y-40576500D02*
X110363000Y-41211500D01*
X112014000Y-40576500D02*
X110998000Y-40576500D01*
X119348250Y-27336750D02*
X119380000Y-27305000D01*
X65532000Y-38989000D02*
X71501000Y-38989000D01*
X63119000Y-41402000D02*
X65532000Y-38989000D01*
X113030000Y-20574000D02*
X113030000Y-20955000D01*
X113030000Y-20955000D02*
X119380000Y-27305000D01*
X51816000Y-32639000D02*
X46228000Y-27051000D01*
X46228000Y-27051000D02*
X38481000Y-27051000D01*
X38481000Y-27051000D02*
X38100000Y-26670000D01*
G04 #@! TO.N,Net-(10uF2-Pad1)*
X79057500Y-46291500D02*
X79057500Y-35052000D01*
X79057500Y-35052000D02*
X79057500Y-35242500D01*
X79057500Y-35242500D02*
X79057500Y-35052000D01*
X116459000Y-40449500D02*
X116459000Y-29591000D01*
X116459000Y-29591000D02*
X114173000Y-27305000D01*
X114173000Y-27305000D02*
X114173000Y-27432000D01*
D17*
X36195000Y-21590000D02*
X33147000Y-24638000D01*
X59690001Y-33019999D02*
X48260002Y-21590000D01*
X36195000Y-21590000D02*
X48260002Y-21590000D01*
X33147000Y-24638000D02*
X33147000Y-27178000D01*
X33147000Y-27178000D02*
X33020000Y-27305000D01*
X86360000Y-35052000D02*
X90043000Y-35052000D01*
X92075000Y-33020000D02*
X96520000Y-28575000D01*
X90043000Y-35052000D02*
X92075000Y-33020000D01*
X61722000Y-35052000D02*
X79057500Y-35052000D01*
X79057500Y-35052000D02*
X86360000Y-35052000D01*
X59690001Y-33020001D02*
X61722000Y-35052000D01*
X59690001Y-33019999D02*
X59690001Y-33020001D01*
X97790000Y-27305000D02*
X114300000Y-27305000D01*
X96520000Y-28575000D02*
X97790000Y-27305000D01*
X59690001Y-33019999D02*
X59690002Y-33020000D01*
D16*
G04 #@! TO.N,Net-(R470-Pad1)*
X112014000Y-42164000D02*
X116840000Y-42164000D01*
D18*
G04 #@! TO.N,Net-(J5-Pad1)*
X39878000Y-42164000D02*
X42926000Y-39116000D01*
X39878000Y-53340000D02*
X39878000Y-42164000D01*
G04 #@! TD*
D19*
G04 #@! TO.N,GND*
G36*
X62985987Y-31578689D02*
X63006144Y-31608856D01*
X63090097Y-31664952D01*
X63114904Y-31685506D01*
X63146084Y-31702361D01*
X63232727Y-31760254D01*
X63265089Y-31766691D01*
X63294121Y-31782385D01*
X63397790Y-31793088D01*
X63500000Y-31813419D01*
X63532365Y-31806981D01*
X63565190Y-31810370D01*
X63665064Y-31780585D01*
X63767273Y-31760254D01*
X63794710Y-31741922D01*
X63826335Y-31732490D01*
X63907207Y-31666753D01*
X63936665Y-31647070D01*
X63959437Y-31624298D01*
X64037797Y-31560603D01*
X64055052Y-31528683D01*
X66323736Y-29260000D01*
X86076265Y-29260000D01*
X88344949Y-31528685D01*
X88362203Y-31560603D01*
X88440558Y-31624294D01*
X88463334Y-31647070D01*
X88492798Y-31666757D01*
X88573665Y-31732490D01*
X88605289Y-31741921D01*
X88632726Y-31760254D01*
X88734934Y-31780584D01*
X88834810Y-31810370D01*
X88867638Y-31806981D01*
X88899999Y-31813418D01*
X89002203Y-31793088D01*
X89105878Y-31782385D01*
X89134910Y-31766691D01*
X89167273Y-31760254D01*
X89253921Y-31702358D01*
X89285095Y-31685506D01*
X89309898Y-31664955D01*
X89393856Y-31608856D01*
X89414014Y-31578687D01*
X111371913Y-13385000D01*
X126670772Y-13385000D01*
X139015001Y-28815286D01*
X139015000Y-53734715D01*
X126670772Y-69165000D01*
X111371913Y-69165000D01*
X89414014Y-50971313D01*
X89393856Y-50941144D01*
X89309898Y-50885045D01*
X89285095Y-50864494D01*
X89253921Y-50847642D01*
X89167273Y-50789746D01*
X89134910Y-50783309D01*
X89105878Y-50767615D01*
X89002203Y-50756912D01*
X88899999Y-50736582D01*
X88867638Y-50743019D01*
X88834810Y-50739630D01*
X88734934Y-50769416D01*
X88632726Y-50789746D01*
X88605289Y-50808079D01*
X88573665Y-50817510D01*
X88492798Y-50883243D01*
X88463334Y-50902930D01*
X88440558Y-50925706D01*
X88362203Y-50989397D01*
X88344949Y-51021315D01*
X86076265Y-53290000D01*
X83424421Y-53290000D01*
X83699818Y-53014603D01*
X83865000Y-52615820D01*
X83865000Y-52184180D01*
X83699818Y-51785397D01*
X83394603Y-51480182D01*
X82995820Y-51315000D01*
X82564180Y-51315000D01*
X82165397Y-51480182D01*
X81860182Y-51785397D01*
X81695000Y-52184180D01*
X81695000Y-52615820D01*
X81860182Y-53014603D01*
X82135579Y-53290000D01*
X80424421Y-53290000D01*
X80699818Y-53014603D01*
X80865000Y-52615820D01*
X80865000Y-52184180D01*
X80699818Y-51785397D01*
X80394603Y-51480182D01*
X79995820Y-51315000D01*
X79564180Y-51315000D01*
X79165397Y-51480182D01*
X78860182Y-51785397D01*
X78695000Y-52184180D01*
X78695000Y-52615820D01*
X78860182Y-53014603D01*
X79135579Y-53290000D01*
X75491936Y-53290000D01*
X75689146Y-52994854D01*
X75755000Y-52663782D01*
X75755000Y-51890217D01*
X75689146Y-51559145D01*
X75438289Y-51183711D01*
X75062854Y-50932854D01*
X74620000Y-50844765D01*
X74177145Y-50932854D01*
X73801711Y-51183711D01*
X73550854Y-51559146D01*
X73485000Y-51890218D01*
X73485000Y-52663783D01*
X73550854Y-52994855D01*
X73748064Y-53290000D01*
X68491936Y-53290000D01*
X68689146Y-52994854D01*
X68755000Y-52663782D01*
X68755000Y-51890217D01*
X68689146Y-51559145D01*
X68438289Y-51183711D01*
X68062854Y-50932854D01*
X67620000Y-50844765D01*
X67177145Y-50932854D01*
X66801711Y-51183711D01*
X66550854Y-51559146D01*
X66485000Y-51890218D01*
X66485000Y-52663783D01*
X66550854Y-52994855D01*
X66748064Y-53290000D01*
X66323736Y-53290000D01*
X64055052Y-51021317D01*
X64037797Y-50989397D01*
X63959437Y-50925702D01*
X63936665Y-50902930D01*
X63907207Y-50883247D01*
X63826335Y-50817510D01*
X63794710Y-50808078D01*
X63767273Y-50789746D01*
X63665064Y-50769415D01*
X63565190Y-50739630D01*
X63532365Y-50743019D01*
X63500000Y-50736581D01*
X63397790Y-50756912D01*
X63294121Y-50767615D01*
X63265089Y-50783309D01*
X63232727Y-50789746D01*
X63146084Y-50847639D01*
X63114904Y-50864494D01*
X63090097Y-50885048D01*
X63006144Y-50941144D01*
X62985987Y-50971311D01*
X41028088Y-69165000D01*
X25729228Y-69165000D01*
X13385000Y-53734716D01*
X13385000Y-46059615D01*
X21375000Y-46059615D01*
X21375000Y-46650385D01*
X21601078Y-47196185D01*
X22018815Y-47613922D01*
X22564615Y-47840000D01*
X23155385Y-47840000D01*
X23701185Y-47613922D01*
X24118922Y-47196185D01*
X24345000Y-46650385D01*
X24345000Y-46059615D01*
X24118922Y-45513815D01*
X23701185Y-45096078D01*
X23654753Y-45076845D01*
X23724353Y-44858958D01*
X22860000Y-43994605D01*
X21995647Y-44858958D01*
X22065247Y-45076845D01*
X22018815Y-45096078D01*
X21601078Y-45513815D01*
X21375000Y-46059615D01*
X13385000Y-46059615D01*
X13385000Y-43586279D01*
X21363282Y-43586279D01*
X21389685Y-44176458D01*
X21564741Y-44599080D01*
X21816042Y-44679353D01*
X22680395Y-43815000D01*
X23039605Y-43815000D01*
X23903958Y-44679353D01*
X24155259Y-44599080D01*
X24356718Y-44043721D01*
X24330315Y-43453542D01*
X24155259Y-43030920D01*
X23903958Y-42950647D01*
X23039605Y-43815000D01*
X22680395Y-43815000D01*
X21816042Y-42950647D01*
X21564741Y-43030920D01*
X21363282Y-43586279D01*
X13385000Y-43586279D01*
X13385000Y-35899615D01*
X21375000Y-35899615D01*
X21375000Y-36490385D01*
X21601078Y-37036185D01*
X22018815Y-37453922D01*
X22045560Y-37465000D01*
X22018815Y-37476078D01*
X21601078Y-37893815D01*
X21375000Y-38439615D01*
X21375000Y-39030385D01*
X21601078Y-39576185D01*
X22018815Y-39993922D01*
X22045560Y-40005000D01*
X22018815Y-40016078D01*
X21601078Y-40433815D01*
X21375000Y-40979615D01*
X21375000Y-41570385D01*
X21601078Y-42116185D01*
X22018815Y-42533922D01*
X22065247Y-42553155D01*
X21995647Y-42771042D01*
X22860000Y-43635395D01*
X23724353Y-42771042D01*
X23654753Y-42553155D01*
X23701185Y-42533922D01*
X24118922Y-42116185D01*
X24345000Y-41570385D01*
X24345000Y-40979615D01*
X24118922Y-40433815D01*
X23701185Y-40016078D01*
X23674440Y-40005000D01*
X23701185Y-39993922D01*
X24118922Y-39576185D01*
X24345000Y-39030385D01*
X24345000Y-38439615D01*
X24118922Y-37893815D01*
X23701185Y-37476078D01*
X23674440Y-37465000D01*
X23701185Y-37453922D01*
X24118922Y-37036185D01*
X24345000Y-36490385D01*
X24345000Y-35899615D01*
X24118922Y-35353815D01*
X23701185Y-34936078D01*
X23155385Y-34710000D01*
X22564615Y-34710000D01*
X22018815Y-34936078D01*
X21601078Y-35353815D01*
X21375000Y-35899615D01*
X13385000Y-35899615D01*
X13385000Y-33020000D01*
X25908000Y-33020000D01*
X25908000Y-49530000D01*
X25917667Y-49578601D01*
X25945197Y-49619803D01*
X25986399Y-49647333D01*
X26035000Y-49657000D01*
X32385000Y-49657000D01*
X32433601Y-49647333D01*
X32474803Y-49619803D01*
X32502333Y-49578601D01*
X32512000Y-49530000D01*
X32512000Y-42164000D01*
X38906840Y-42164000D01*
X38925501Y-42257815D01*
X38925500Y-53433809D01*
X38943000Y-53521788D01*
X38943000Y-53525983D01*
X38944605Y-53529859D01*
X38980765Y-53711646D01*
X39083739Y-53865758D01*
X39085345Y-53869635D01*
X39088312Y-53872602D01*
X39191286Y-54026714D01*
X39345399Y-54129689D01*
X39348365Y-54132655D01*
X39352240Y-54134260D01*
X39506353Y-54237235D01*
X39688142Y-54273395D01*
X39692017Y-54275000D01*
X39696211Y-54275000D01*
X39878000Y-54311160D01*
X40059789Y-54275000D01*
X40063983Y-54275000D01*
X40067858Y-54273395D01*
X40249646Y-54237235D01*
X40403758Y-54134261D01*
X40407635Y-54132655D01*
X40410602Y-54129688D01*
X40564714Y-54026714D01*
X40667689Y-53872601D01*
X40670655Y-53869635D01*
X40672260Y-53865760D01*
X40775235Y-53711647D01*
X40811395Y-53529858D01*
X40813000Y-53525983D01*
X40813000Y-53521789D01*
X40830500Y-53433810D01*
X40830500Y-49577000D01*
X67338254Y-49577000D01*
X67424403Y-50010100D01*
X67669735Y-50377265D01*
X68036900Y-50622597D01*
X68360676Y-50687000D01*
X68879324Y-50687000D01*
X69203100Y-50622597D01*
X69570265Y-50377265D01*
X69815597Y-50010100D01*
X69901746Y-49577000D01*
X72338254Y-49577000D01*
X72424403Y-50010100D01*
X72669735Y-50377265D01*
X73036900Y-50622597D01*
X73360676Y-50687000D01*
X73879324Y-50687000D01*
X74203100Y-50622597D01*
X74570265Y-50377265D01*
X74815597Y-50010100D01*
X74901746Y-49577000D01*
X74815597Y-49143900D01*
X74570265Y-48776735D01*
X74203100Y-48531403D01*
X73879324Y-48467000D01*
X73360676Y-48467000D01*
X73036900Y-48531403D01*
X72669735Y-48776735D01*
X72424403Y-49143900D01*
X72338254Y-49577000D01*
X69901746Y-49577000D01*
X69815597Y-49143900D01*
X69570265Y-48776735D01*
X69203100Y-48531403D01*
X68879324Y-48467000D01*
X68360676Y-48467000D01*
X68036900Y-48531403D01*
X67669735Y-48776735D01*
X67424403Y-49143900D01*
X67338254Y-49577000D01*
X40830500Y-49577000D01*
X40830500Y-42558537D01*
X43665852Y-39723186D01*
X43715687Y-39648603D01*
X43718655Y-39645635D01*
X43720261Y-39641757D01*
X43823235Y-39487647D01*
X43859395Y-39305858D01*
X43861000Y-39301983D01*
X43861000Y-39297789D01*
X43897160Y-39116000D01*
X43861000Y-38934211D01*
X43861000Y-38930017D01*
X43859395Y-38926142D01*
X43823235Y-38744354D01*
X43720262Y-38590245D01*
X43718655Y-38586365D01*
X43715685Y-38583395D01*
X43612713Y-38429287D01*
X43458605Y-38326315D01*
X43455635Y-38323345D01*
X43451755Y-38321738D01*
X43297646Y-38218765D01*
X43115858Y-38182605D01*
X43111983Y-38181000D01*
X43107789Y-38181000D01*
X42926000Y-38144840D01*
X42744211Y-38181000D01*
X42740017Y-38181000D01*
X42736142Y-38182605D01*
X42554353Y-38218765D01*
X42400243Y-38321739D01*
X42396365Y-38323345D01*
X42393397Y-38326313D01*
X42318814Y-38376148D01*
X39270818Y-41424145D01*
X39191287Y-41477286D01*
X39086330Y-41634365D01*
X38980765Y-41792354D01*
X38906840Y-42164000D01*
X32512000Y-42164000D01*
X32512000Y-33020000D01*
X32502333Y-32971399D01*
X32474803Y-32930197D01*
X32433601Y-32902667D01*
X32385000Y-32893000D01*
X26035000Y-32893000D01*
X25986399Y-32902667D01*
X25945197Y-32930197D01*
X25917667Y-32971399D01*
X25908000Y-33020000D01*
X13385000Y-33020000D01*
X13385000Y-28815284D01*
X14932969Y-26880322D01*
X30885000Y-26880322D01*
X30885000Y-27729678D01*
X31210034Y-28514380D01*
X31810620Y-29114966D01*
X32595322Y-29440000D01*
X33444678Y-29440000D01*
X34229380Y-29114966D01*
X34829966Y-28514380D01*
X35155000Y-27729678D01*
X35155000Y-27590750D01*
X35965000Y-27590750D01*
X35965000Y-28931310D01*
X36061673Y-29164699D01*
X36240302Y-29343327D01*
X36473691Y-29440000D01*
X37814250Y-29440000D01*
X37973000Y-29281250D01*
X37973000Y-27432000D01*
X38227000Y-27432000D01*
X38227000Y-29281250D01*
X38385750Y-29440000D01*
X39726309Y-29440000D01*
X39959698Y-29343327D01*
X40138327Y-29164699D01*
X40235000Y-28931310D01*
X40235000Y-27590750D01*
X40076250Y-27432000D01*
X38227000Y-27432000D01*
X37973000Y-27432000D01*
X36123750Y-27432000D01*
X35965000Y-27590750D01*
X35155000Y-27590750D01*
X35155000Y-26880322D01*
X34829966Y-26095620D01*
X34417000Y-25682654D01*
X34417000Y-25678690D01*
X35965000Y-25678690D01*
X35965000Y-27019250D01*
X36123750Y-27178000D01*
X37973000Y-27178000D01*
X37973000Y-25328750D01*
X38227000Y-25328750D01*
X38227000Y-27178000D01*
X40076250Y-27178000D01*
X40235000Y-27019250D01*
X40235000Y-25678690D01*
X40138327Y-25445301D01*
X39959698Y-25266673D01*
X39726309Y-25170000D01*
X38385750Y-25170000D01*
X38227000Y-25328750D01*
X37973000Y-25328750D01*
X37814250Y-25170000D01*
X36473691Y-25170000D01*
X36240302Y-25266673D01*
X36061673Y-25445301D01*
X35965000Y-25678690D01*
X34417000Y-25678690D01*
X34417000Y-25164050D01*
X36721051Y-22860000D01*
X47733952Y-22860000D01*
X58703528Y-33829577D01*
X58774383Y-33935619D01*
X58880422Y-34006472D01*
X60735530Y-35861581D01*
X60806382Y-35967618D01*
X61226471Y-36248313D01*
X61596920Y-36322000D01*
X61596924Y-36322000D01*
X61722000Y-36346879D01*
X61847076Y-36322000D01*
X78168501Y-36322000D01*
X78168500Y-45994463D01*
X78122500Y-46105517D01*
X78122500Y-46477483D01*
X78264845Y-46821135D01*
X78527865Y-47084155D01*
X78871517Y-47226500D01*
X79243483Y-47226500D01*
X79587135Y-47084155D01*
X79850155Y-46821135D01*
X79992500Y-46477483D01*
X79992500Y-46105517D01*
X79946500Y-45994463D01*
X79946500Y-36322000D01*
X89917925Y-36322000D01*
X90043000Y-36346879D01*
X90168075Y-36322000D01*
X90168080Y-36322000D01*
X90538529Y-36248313D01*
X90958618Y-35967618D01*
X91029471Y-35861579D01*
X93061470Y-33829581D01*
X93061472Y-33829578D01*
X97506470Y-29384581D01*
X97506472Y-29384578D01*
X98316051Y-28575000D01*
X112423654Y-28575000D01*
X112963620Y-29114966D01*
X113748322Y-29440000D01*
X114597678Y-29440000D01*
X114918059Y-29307294D01*
X115570001Y-29959237D01*
X115570000Y-40152463D01*
X115524000Y-40263517D01*
X115524000Y-40635483D01*
X115666345Y-40979135D01*
X115929365Y-41242155D01*
X116008660Y-41275000D01*
X112311037Y-41275000D01*
X112199983Y-41229000D01*
X111828017Y-41229000D01*
X111484365Y-41371345D01*
X111221345Y-41634365D01*
X111079000Y-41978017D01*
X111079000Y-42349983D01*
X111221345Y-42693635D01*
X111484365Y-42956655D01*
X111828017Y-43099000D01*
X112199983Y-43099000D01*
X112311037Y-43053000D01*
X116542963Y-43053000D01*
X116654017Y-43099000D01*
X117025983Y-43099000D01*
X117369635Y-42956655D01*
X117632655Y-42693635D01*
X117775000Y-42349983D01*
X117775000Y-41978017D01*
X117632655Y-41634365D01*
X117369635Y-41371345D01*
X117025983Y-41229000D01*
X117001790Y-41229000D01*
X117251655Y-40979135D01*
X117394000Y-40635483D01*
X117394000Y-40263517D01*
X117348000Y-40152463D01*
X117348000Y-29678550D01*
X117365415Y-29590999D01*
X117348000Y-29503448D01*
X117348000Y-29503444D01*
X117296419Y-29244130D01*
X117099933Y-28950067D01*
X117025707Y-28900471D01*
X116175294Y-28050059D01*
X116308000Y-27729678D01*
X116308000Y-27590750D01*
X117245000Y-27590750D01*
X117245000Y-28931310D01*
X117341673Y-29164699D01*
X117520302Y-29343327D01*
X117753691Y-29440000D01*
X119094250Y-29440000D01*
X119253000Y-29281250D01*
X119253000Y-27432000D01*
X119507000Y-27432000D01*
X119507000Y-29281250D01*
X119665750Y-29440000D01*
X121006309Y-29440000D01*
X121239698Y-29343327D01*
X121418327Y-29164699D01*
X121515000Y-28931310D01*
X121515000Y-27590750D01*
X121356250Y-27432000D01*
X119507000Y-27432000D01*
X119253000Y-27432000D01*
X117403750Y-27432000D01*
X117245000Y-27590750D01*
X116308000Y-27590750D01*
X116308000Y-26880322D01*
X115982966Y-26095620D01*
X115566036Y-25678690D01*
X117245000Y-25678690D01*
X117245000Y-27019250D01*
X117403750Y-27178000D01*
X119253000Y-27178000D01*
X119253000Y-25328750D01*
X119507000Y-25328750D01*
X119507000Y-27178000D01*
X121356250Y-27178000D01*
X121515000Y-27019250D01*
X121515000Y-25678690D01*
X121418327Y-25445301D01*
X121239698Y-25266673D01*
X121006309Y-25170000D01*
X119665750Y-25170000D01*
X119507000Y-25328750D01*
X119253000Y-25328750D01*
X119094250Y-25170000D01*
X117753691Y-25170000D01*
X117520302Y-25266673D01*
X117341673Y-25445301D01*
X117245000Y-25678690D01*
X115566036Y-25678690D01*
X115382380Y-25495034D01*
X114597678Y-25170000D01*
X113748322Y-25170000D01*
X112963620Y-25495034D01*
X112423654Y-26035000D01*
X97915074Y-26035000D01*
X97789999Y-26010121D01*
X97664924Y-26035000D01*
X97664920Y-26035000D01*
X97294471Y-26108687D01*
X97294469Y-26108688D01*
X97294470Y-26108688D01*
X97064451Y-26262382D01*
X96874382Y-26389382D01*
X96803530Y-26495419D01*
X95710422Y-27588528D01*
X95710419Y-27588530D01*
X91265422Y-32033528D01*
X91265419Y-32033530D01*
X89516950Y-33782000D01*
X62248051Y-33782000D01*
X60676476Y-32210426D01*
X60605619Y-32104381D01*
X60499583Y-32033530D01*
X49246473Y-20780421D01*
X49175620Y-20674382D01*
X48755531Y-20393687D01*
X48385082Y-20320000D01*
X48385077Y-20320000D01*
X48260002Y-20295121D01*
X48134927Y-20320000D01*
X36320075Y-20320000D01*
X36195000Y-20295121D01*
X36069925Y-20320000D01*
X36069920Y-20320000D01*
X35699471Y-20393687D01*
X35279382Y-20674382D01*
X35208531Y-20780419D01*
X32337421Y-23651529D01*
X32231382Y-23722382D01*
X31950687Y-24142472D01*
X31877000Y-24512921D01*
X31877000Y-24512925D01*
X31852121Y-24638000D01*
X31877000Y-24763075D01*
X31877000Y-25467538D01*
X31810620Y-25495034D01*
X31210034Y-26095620D01*
X30885000Y-26880322D01*
X14932969Y-26880322D01*
X25729228Y-13385000D01*
X41028088Y-13385000D01*
X62985987Y-31578689D01*
X62985987Y-31578689D01*
G37*
X62985987Y-31578689D02*
X63006144Y-31608856D01*
X63090097Y-31664952D01*
X63114904Y-31685506D01*
X63146084Y-31702361D01*
X63232727Y-31760254D01*
X63265089Y-31766691D01*
X63294121Y-31782385D01*
X63397790Y-31793088D01*
X63500000Y-31813419D01*
X63532365Y-31806981D01*
X63565190Y-31810370D01*
X63665064Y-31780585D01*
X63767273Y-31760254D01*
X63794710Y-31741922D01*
X63826335Y-31732490D01*
X63907207Y-31666753D01*
X63936665Y-31647070D01*
X63959437Y-31624298D01*
X64037797Y-31560603D01*
X64055052Y-31528683D01*
X66323736Y-29260000D01*
X86076265Y-29260000D01*
X88344949Y-31528685D01*
X88362203Y-31560603D01*
X88440558Y-31624294D01*
X88463334Y-31647070D01*
X88492798Y-31666757D01*
X88573665Y-31732490D01*
X88605289Y-31741921D01*
X88632726Y-31760254D01*
X88734934Y-31780584D01*
X88834810Y-31810370D01*
X88867638Y-31806981D01*
X88899999Y-31813418D01*
X89002203Y-31793088D01*
X89105878Y-31782385D01*
X89134910Y-31766691D01*
X89167273Y-31760254D01*
X89253921Y-31702358D01*
X89285095Y-31685506D01*
X89309898Y-31664955D01*
X89393856Y-31608856D01*
X89414014Y-31578687D01*
X111371913Y-13385000D01*
X126670772Y-13385000D01*
X139015001Y-28815286D01*
X139015000Y-53734715D01*
X126670772Y-69165000D01*
X111371913Y-69165000D01*
X89414014Y-50971313D01*
X89393856Y-50941144D01*
X89309898Y-50885045D01*
X89285095Y-50864494D01*
X89253921Y-50847642D01*
X89167273Y-50789746D01*
X89134910Y-50783309D01*
X89105878Y-50767615D01*
X89002203Y-50756912D01*
X88899999Y-50736582D01*
X88867638Y-50743019D01*
X88834810Y-50739630D01*
X88734934Y-50769416D01*
X88632726Y-50789746D01*
X88605289Y-50808079D01*
X88573665Y-50817510D01*
X88492798Y-50883243D01*
X88463334Y-50902930D01*
X88440558Y-50925706D01*
X88362203Y-50989397D01*
X88344949Y-51021315D01*
X86076265Y-53290000D01*
X83424421Y-53290000D01*
X83699818Y-53014603D01*
X83865000Y-52615820D01*
X83865000Y-52184180D01*
X83699818Y-51785397D01*
X83394603Y-51480182D01*
X82995820Y-51315000D01*
X82564180Y-51315000D01*
X82165397Y-51480182D01*
X81860182Y-51785397D01*
X81695000Y-52184180D01*
X81695000Y-52615820D01*
X81860182Y-53014603D01*
X82135579Y-53290000D01*
X80424421Y-53290000D01*
X80699818Y-53014603D01*
X80865000Y-52615820D01*
X80865000Y-52184180D01*
X80699818Y-51785397D01*
X80394603Y-51480182D01*
X79995820Y-51315000D01*
X79564180Y-51315000D01*
X79165397Y-51480182D01*
X78860182Y-51785397D01*
X78695000Y-52184180D01*
X78695000Y-52615820D01*
X78860182Y-53014603D01*
X79135579Y-53290000D01*
X75491936Y-53290000D01*
X75689146Y-52994854D01*
X75755000Y-52663782D01*
X75755000Y-51890217D01*
X75689146Y-51559145D01*
X75438289Y-51183711D01*
X75062854Y-50932854D01*
X74620000Y-50844765D01*
X74177145Y-50932854D01*
X73801711Y-51183711D01*
X73550854Y-51559146D01*
X73485000Y-51890218D01*
X73485000Y-52663783D01*
X73550854Y-52994855D01*
X73748064Y-53290000D01*
X68491936Y-53290000D01*
X68689146Y-52994854D01*
X68755000Y-52663782D01*
X68755000Y-51890217D01*
X68689146Y-51559145D01*
X68438289Y-51183711D01*
X68062854Y-50932854D01*
X67620000Y-50844765D01*
X67177145Y-50932854D01*
X66801711Y-51183711D01*
X66550854Y-51559146D01*
X66485000Y-51890218D01*
X66485000Y-52663783D01*
X66550854Y-52994855D01*
X66748064Y-53290000D01*
X66323736Y-53290000D01*
X64055052Y-51021317D01*
X64037797Y-50989397D01*
X63959437Y-50925702D01*
X63936665Y-50902930D01*
X63907207Y-50883247D01*
X63826335Y-50817510D01*
X63794710Y-50808078D01*
X63767273Y-50789746D01*
X63665064Y-50769415D01*
X63565190Y-50739630D01*
X63532365Y-50743019D01*
X63500000Y-50736581D01*
X63397790Y-50756912D01*
X63294121Y-50767615D01*
X63265089Y-50783309D01*
X63232727Y-50789746D01*
X63146084Y-50847639D01*
X63114904Y-50864494D01*
X63090097Y-50885048D01*
X63006144Y-50941144D01*
X62985987Y-50971311D01*
X41028088Y-69165000D01*
X25729228Y-69165000D01*
X13385000Y-53734716D01*
X13385000Y-46059615D01*
X21375000Y-46059615D01*
X21375000Y-46650385D01*
X21601078Y-47196185D01*
X22018815Y-47613922D01*
X22564615Y-47840000D01*
X23155385Y-47840000D01*
X23701185Y-47613922D01*
X24118922Y-47196185D01*
X24345000Y-46650385D01*
X24345000Y-46059615D01*
X24118922Y-45513815D01*
X23701185Y-45096078D01*
X23654753Y-45076845D01*
X23724353Y-44858958D01*
X22860000Y-43994605D01*
X21995647Y-44858958D01*
X22065247Y-45076845D01*
X22018815Y-45096078D01*
X21601078Y-45513815D01*
X21375000Y-46059615D01*
X13385000Y-46059615D01*
X13385000Y-43586279D01*
X21363282Y-43586279D01*
X21389685Y-44176458D01*
X21564741Y-44599080D01*
X21816042Y-44679353D01*
X22680395Y-43815000D01*
X23039605Y-43815000D01*
X23903958Y-44679353D01*
X24155259Y-44599080D01*
X24356718Y-44043721D01*
X24330315Y-43453542D01*
X24155259Y-43030920D01*
X23903958Y-42950647D01*
X23039605Y-43815000D01*
X22680395Y-43815000D01*
X21816042Y-42950647D01*
X21564741Y-43030920D01*
X21363282Y-43586279D01*
X13385000Y-43586279D01*
X13385000Y-35899615D01*
X21375000Y-35899615D01*
X21375000Y-36490385D01*
X21601078Y-37036185D01*
X22018815Y-37453922D01*
X22045560Y-37465000D01*
X22018815Y-37476078D01*
X21601078Y-37893815D01*
X21375000Y-38439615D01*
X21375000Y-39030385D01*
X21601078Y-39576185D01*
X22018815Y-39993922D01*
X22045560Y-40005000D01*
X22018815Y-40016078D01*
X21601078Y-40433815D01*
X21375000Y-40979615D01*
X21375000Y-41570385D01*
X21601078Y-42116185D01*
X22018815Y-42533922D01*
X22065247Y-42553155D01*
X21995647Y-42771042D01*
X22860000Y-43635395D01*
X23724353Y-42771042D01*
X23654753Y-42553155D01*
X23701185Y-42533922D01*
X24118922Y-42116185D01*
X24345000Y-41570385D01*
X24345000Y-40979615D01*
X24118922Y-40433815D01*
X23701185Y-40016078D01*
X23674440Y-40005000D01*
X23701185Y-39993922D01*
X24118922Y-39576185D01*
X24345000Y-39030385D01*
X24345000Y-38439615D01*
X24118922Y-37893815D01*
X23701185Y-37476078D01*
X23674440Y-37465000D01*
X23701185Y-37453922D01*
X24118922Y-37036185D01*
X24345000Y-36490385D01*
X24345000Y-35899615D01*
X24118922Y-35353815D01*
X23701185Y-34936078D01*
X23155385Y-34710000D01*
X22564615Y-34710000D01*
X22018815Y-34936078D01*
X21601078Y-35353815D01*
X21375000Y-35899615D01*
X13385000Y-35899615D01*
X13385000Y-33020000D01*
X25908000Y-33020000D01*
X25908000Y-49530000D01*
X25917667Y-49578601D01*
X25945197Y-49619803D01*
X25986399Y-49647333D01*
X26035000Y-49657000D01*
X32385000Y-49657000D01*
X32433601Y-49647333D01*
X32474803Y-49619803D01*
X32502333Y-49578601D01*
X32512000Y-49530000D01*
X32512000Y-42164000D01*
X38906840Y-42164000D01*
X38925501Y-42257815D01*
X38925500Y-53433809D01*
X38943000Y-53521788D01*
X38943000Y-53525983D01*
X38944605Y-53529859D01*
X38980765Y-53711646D01*
X39083739Y-53865758D01*
X39085345Y-53869635D01*
X39088312Y-53872602D01*
X39191286Y-54026714D01*
X39345399Y-54129689D01*
X39348365Y-54132655D01*
X39352240Y-54134260D01*
X39506353Y-54237235D01*
X39688142Y-54273395D01*
X39692017Y-54275000D01*
X39696211Y-54275000D01*
X39878000Y-54311160D01*
X40059789Y-54275000D01*
X40063983Y-54275000D01*
X40067858Y-54273395D01*
X40249646Y-54237235D01*
X40403758Y-54134261D01*
X40407635Y-54132655D01*
X40410602Y-54129688D01*
X40564714Y-54026714D01*
X40667689Y-53872601D01*
X40670655Y-53869635D01*
X40672260Y-53865760D01*
X40775235Y-53711647D01*
X40811395Y-53529858D01*
X40813000Y-53525983D01*
X40813000Y-53521789D01*
X40830500Y-53433810D01*
X40830500Y-49577000D01*
X67338254Y-49577000D01*
X67424403Y-50010100D01*
X67669735Y-50377265D01*
X68036900Y-50622597D01*
X68360676Y-50687000D01*
X68879324Y-50687000D01*
X69203100Y-50622597D01*
X69570265Y-50377265D01*
X69815597Y-50010100D01*
X69901746Y-49577000D01*
X72338254Y-49577000D01*
X72424403Y-50010100D01*
X72669735Y-50377265D01*
X73036900Y-50622597D01*
X73360676Y-50687000D01*
X73879324Y-50687000D01*
X74203100Y-50622597D01*
X74570265Y-50377265D01*
X74815597Y-50010100D01*
X74901746Y-49577000D01*
X74815597Y-49143900D01*
X74570265Y-48776735D01*
X74203100Y-48531403D01*
X73879324Y-48467000D01*
X73360676Y-48467000D01*
X73036900Y-48531403D01*
X72669735Y-48776735D01*
X72424403Y-49143900D01*
X72338254Y-49577000D01*
X69901746Y-49577000D01*
X69815597Y-49143900D01*
X69570265Y-48776735D01*
X69203100Y-48531403D01*
X68879324Y-48467000D01*
X68360676Y-48467000D01*
X68036900Y-48531403D01*
X67669735Y-48776735D01*
X67424403Y-49143900D01*
X67338254Y-49577000D01*
X40830500Y-49577000D01*
X40830500Y-42558537D01*
X43665852Y-39723186D01*
X43715687Y-39648603D01*
X43718655Y-39645635D01*
X43720261Y-39641757D01*
X43823235Y-39487647D01*
X43859395Y-39305858D01*
X43861000Y-39301983D01*
X43861000Y-39297789D01*
X43897160Y-39116000D01*
X43861000Y-38934211D01*
X43861000Y-38930017D01*
X43859395Y-38926142D01*
X43823235Y-38744354D01*
X43720262Y-38590245D01*
X43718655Y-38586365D01*
X43715685Y-38583395D01*
X43612713Y-38429287D01*
X43458605Y-38326315D01*
X43455635Y-38323345D01*
X43451755Y-38321738D01*
X43297646Y-38218765D01*
X43115858Y-38182605D01*
X43111983Y-38181000D01*
X43107789Y-38181000D01*
X42926000Y-38144840D01*
X42744211Y-38181000D01*
X42740017Y-38181000D01*
X42736142Y-38182605D01*
X42554353Y-38218765D01*
X42400243Y-38321739D01*
X42396365Y-38323345D01*
X42393397Y-38326313D01*
X42318814Y-38376148D01*
X39270818Y-41424145D01*
X39191287Y-41477286D01*
X39086330Y-41634365D01*
X38980765Y-41792354D01*
X38906840Y-42164000D01*
X32512000Y-42164000D01*
X32512000Y-33020000D01*
X32502333Y-32971399D01*
X32474803Y-32930197D01*
X32433601Y-32902667D01*
X32385000Y-32893000D01*
X26035000Y-32893000D01*
X25986399Y-32902667D01*
X25945197Y-32930197D01*
X25917667Y-32971399D01*
X25908000Y-33020000D01*
X13385000Y-33020000D01*
X13385000Y-28815284D01*
X14932969Y-26880322D01*
X30885000Y-26880322D01*
X30885000Y-27729678D01*
X31210034Y-28514380D01*
X31810620Y-29114966D01*
X32595322Y-29440000D01*
X33444678Y-29440000D01*
X34229380Y-29114966D01*
X34829966Y-28514380D01*
X35155000Y-27729678D01*
X35155000Y-27590750D01*
X35965000Y-27590750D01*
X35965000Y-28931310D01*
X36061673Y-29164699D01*
X36240302Y-29343327D01*
X36473691Y-29440000D01*
X37814250Y-29440000D01*
X37973000Y-29281250D01*
X37973000Y-27432000D01*
X38227000Y-27432000D01*
X38227000Y-29281250D01*
X38385750Y-29440000D01*
X39726309Y-29440000D01*
X39959698Y-29343327D01*
X40138327Y-29164699D01*
X40235000Y-28931310D01*
X40235000Y-27590750D01*
X40076250Y-27432000D01*
X38227000Y-27432000D01*
X37973000Y-27432000D01*
X36123750Y-27432000D01*
X35965000Y-27590750D01*
X35155000Y-27590750D01*
X35155000Y-26880322D01*
X34829966Y-26095620D01*
X34417000Y-25682654D01*
X34417000Y-25678690D01*
X35965000Y-25678690D01*
X35965000Y-27019250D01*
X36123750Y-27178000D01*
X37973000Y-27178000D01*
X37973000Y-25328750D01*
X38227000Y-25328750D01*
X38227000Y-27178000D01*
X40076250Y-27178000D01*
X40235000Y-27019250D01*
X40235000Y-25678690D01*
X40138327Y-25445301D01*
X39959698Y-25266673D01*
X39726309Y-25170000D01*
X38385750Y-25170000D01*
X38227000Y-25328750D01*
X37973000Y-25328750D01*
X37814250Y-25170000D01*
X36473691Y-25170000D01*
X36240302Y-25266673D01*
X36061673Y-25445301D01*
X35965000Y-25678690D01*
X34417000Y-25678690D01*
X34417000Y-25164050D01*
X36721051Y-22860000D01*
X47733952Y-22860000D01*
X58703528Y-33829577D01*
X58774383Y-33935619D01*
X58880422Y-34006472D01*
X60735530Y-35861581D01*
X60806382Y-35967618D01*
X61226471Y-36248313D01*
X61596920Y-36322000D01*
X61596924Y-36322000D01*
X61722000Y-36346879D01*
X61847076Y-36322000D01*
X78168501Y-36322000D01*
X78168500Y-45994463D01*
X78122500Y-46105517D01*
X78122500Y-46477483D01*
X78264845Y-46821135D01*
X78527865Y-47084155D01*
X78871517Y-47226500D01*
X79243483Y-47226500D01*
X79587135Y-47084155D01*
X79850155Y-46821135D01*
X79992500Y-46477483D01*
X79992500Y-46105517D01*
X79946500Y-45994463D01*
X79946500Y-36322000D01*
X89917925Y-36322000D01*
X90043000Y-36346879D01*
X90168075Y-36322000D01*
X90168080Y-36322000D01*
X90538529Y-36248313D01*
X90958618Y-35967618D01*
X91029471Y-35861579D01*
X93061470Y-33829581D01*
X93061472Y-33829578D01*
X97506470Y-29384581D01*
X97506472Y-29384578D01*
X98316051Y-28575000D01*
X112423654Y-28575000D01*
X112963620Y-29114966D01*
X113748322Y-29440000D01*
X114597678Y-29440000D01*
X114918059Y-29307294D01*
X115570001Y-29959237D01*
X115570000Y-40152463D01*
X115524000Y-40263517D01*
X115524000Y-40635483D01*
X115666345Y-40979135D01*
X115929365Y-41242155D01*
X116008660Y-41275000D01*
X112311037Y-41275000D01*
X112199983Y-41229000D01*
X111828017Y-41229000D01*
X111484365Y-41371345D01*
X111221345Y-41634365D01*
X111079000Y-41978017D01*
X111079000Y-42349983D01*
X111221345Y-42693635D01*
X111484365Y-42956655D01*
X111828017Y-43099000D01*
X112199983Y-43099000D01*
X112311037Y-43053000D01*
X116542963Y-43053000D01*
X116654017Y-43099000D01*
X117025983Y-43099000D01*
X117369635Y-42956655D01*
X117632655Y-42693635D01*
X117775000Y-42349983D01*
X117775000Y-41978017D01*
X117632655Y-41634365D01*
X117369635Y-41371345D01*
X117025983Y-41229000D01*
X117001790Y-41229000D01*
X117251655Y-40979135D01*
X117394000Y-40635483D01*
X117394000Y-40263517D01*
X117348000Y-40152463D01*
X117348000Y-29678550D01*
X117365415Y-29590999D01*
X117348000Y-29503448D01*
X117348000Y-29503444D01*
X117296419Y-29244130D01*
X117099933Y-28950067D01*
X117025707Y-28900471D01*
X116175294Y-28050059D01*
X116308000Y-27729678D01*
X116308000Y-27590750D01*
X117245000Y-27590750D01*
X117245000Y-28931310D01*
X117341673Y-29164699D01*
X117520302Y-29343327D01*
X117753691Y-29440000D01*
X119094250Y-29440000D01*
X119253000Y-29281250D01*
X119253000Y-27432000D01*
X119507000Y-27432000D01*
X119507000Y-29281250D01*
X119665750Y-29440000D01*
X121006309Y-29440000D01*
X121239698Y-29343327D01*
X121418327Y-29164699D01*
X121515000Y-28931310D01*
X121515000Y-27590750D01*
X121356250Y-27432000D01*
X119507000Y-27432000D01*
X119253000Y-27432000D01*
X117403750Y-27432000D01*
X117245000Y-27590750D01*
X116308000Y-27590750D01*
X116308000Y-26880322D01*
X115982966Y-26095620D01*
X115566036Y-25678690D01*
X117245000Y-25678690D01*
X117245000Y-27019250D01*
X117403750Y-27178000D01*
X119253000Y-27178000D01*
X119253000Y-25328750D01*
X119507000Y-25328750D01*
X119507000Y-27178000D01*
X121356250Y-27178000D01*
X121515000Y-27019250D01*
X121515000Y-25678690D01*
X121418327Y-25445301D01*
X121239698Y-25266673D01*
X121006309Y-25170000D01*
X119665750Y-25170000D01*
X119507000Y-25328750D01*
X119253000Y-25328750D01*
X119094250Y-25170000D01*
X117753691Y-25170000D01*
X117520302Y-25266673D01*
X117341673Y-25445301D01*
X117245000Y-25678690D01*
X115566036Y-25678690D01*
X115382380Y-25495034D01*
X114597678Y-25170000D01*
X113748322Y-25170000D01*
X112963620Y-25495034D01*
X112423654Y-26035000D01*
X97915074Y-26035000D01*
X97789999Y-26010121D01*
X97664924Y-26035000D01*
X97664920Y-26035000D01*
X97294471Y-26108687D01*
X97294469Y-26108688D01*
X97294470Y-26108688D01*
X97064451Y-26262382D01*
X96874382Y-26389382D01*
X96803530Y-26495419D01*
X95710422Y-27588528D01*
X95710419Y-27588530D01*
X91265422Y-32033528D01*
X91265419Y-32033530D01*
X89516950Y-33782000D01*
X62248051Y-33782000D01*
X60676476Y-32210426D01*
X60605619Y-32104381D01*
X60499583Y-32033530D01*
X49246473Y-20780421D01*
X49175620Y-20674382D01*
X48755531Y-20393687D01*
X48385082Y-20320000D01*
X48385077Y-20320000D01*
X48260002Y-20295121D01*
X48134927Y-20320000D01*
X36320075Y-20320000D01*
X36195000Y-20295121D01*
X36069925Y-20320000D01*
X36069920Y-20320000D01*
X35699471Y-20393687D01*
X35279382Y-20674382D01*
X35208531Y-20780419D01*
X32337421Y-23651529D01*
X32231382Y-23722382D01*
X31950687Y-24142472D01*
X31877000Y-24512921D01*
X31877000Y-24512925D01*
X31852121Y-24638000D01*
X31877000Y-24763075D01*
X31877000Y-25467538D01*
X31810620Y-25495034D01*
X31210034Y-26095620D01*
X30885000Y-26880322D01*
X14932969Y-26880322D01*
X25729228Y-13385000D01*
X41028088Y-13385000D01*
X62985987Y-31578689D01*
G04 #@! TD*
M02*
