<?xml version="1.0" standalone="no"?>
 <!DOCTYPE svg PUBLIC "-//W3C//DTD SVG 1.1//EN" 
 "http://www.w3.org/Graphics/SVG/1.1/DTD/svg11.dtd"> 
<svg xmlns="http://www.w3.org/2000/svg" version="1.1" 
    width="29.7002cm" height="21.0007cm" viewBox="0 0 116930 82680 ">
<title>SVG Picture created as glowtie-B.Mask.svg date 2019/01/06 16:51:35 </title>
  <desc>Picture generated by PCBNEW </desc>
<g style="fill:#000000; fill-opacity:1;stroke:#000000; stroke-opacity:1;
stroke-linecap:round; stroke-linejoin:round; "
 transform="translate(0 0) scale(1 1)">
</g>
<g style="fill:#000000; fill-opacity:0.0; 
stroke:#000000; stroke-width:-0.000393701; stroke-opacity:1; 
stroke-linecap:round; stroke-linejoin:round;">
</g>
<g style="fill:#000000; fill-opacity:1.0; 
stroke:#000000; stroke-width:3.93701; stroke-opacity:1; 
stroke-linecap:round; stroke-linejoin:round;">
<polyline style="fill-rule:evenodd;"
points="51203,14344
51207,14350
51212,14361
51220,14374
51228,14390
51239,14407
51250,14427
51259,14443
51271,14464
51286,14489
51302,14516
51319,14545
51336,14575
51354,14606
51372,14636
51388,14665
51396,14677
51413,14708
51429,14734
51442,14757
51454,14776
51463,14791
51471,14803
51477,14812
51482,14819
51485,14823
51485,14823
51500,14834
51519,14845
51540,14853
51545,14855
51554,14857
51561,14860
51565,14862
51565,14862
51564,14864
51560,14868
51552,14872
51548,14875
51539,14881
51530,14886
51524,14890
51522,14891
51518,14895
51517,14898
51520,14903
51520,14904
51525,14911
51531,14922
51540,14936
51549,14952
51560,14971
51571,14990
51583,15011
51595,15032
51607,15053
51619,15073
51631,15093
51641,15112
51651,15128
51659,15142
51665,15154
51670,15162
51672,15167
51673,15168
51675,15172
51679,15181
51685,15192
51693,15206
51702,15221
51711,15237
51720,15253
51730,15269
51739,15284
51747,15297
51754,15308
51759,15316
51762,15321
51762,15321
51767,15327
51773,15336
51776,15341
51778,15344
51780,15348
51783,15353
51786,15359
51791,15367
51797,15377
51804,15390
51813,15404
51823,15422
51835,15444
51850,15468
51865,15495
51879,15519
51895,15546
51913,15576
51931,15607
51949,15639
51968,15671
51986,15702
52004,15732
52020,15761
52035,15786
52048,15809
52053,15817
52061,15830
52071,15847
52082,15867
52095,15889
52109,15913
52124,15938
52139,15963
52153,15989
52158,15997
52175,16026
52190,16051
52202,16073
52212,16091
52220,16106
52226,16117
52229,16124
52230,16126
52228,16130
52224,16138
52219,16147
52211,16158
52209,16161
52201,16173
52192,16185
52183,16198
52173,16212
52162,16229
52148,16248
52133,16270
52117,16293
52107,16308
52096,16324
52085,16340
52076,16353
52070,16361
52062,16374
52051,16388
52040,16404
52030,16419
52027,16423
52019,16435
52011,16445
52005,16453
52001,16458
51999,16460
51993,16460
51986,16458
51972,16455
51957,16456
51946,16459
51943,16461
51939,16464
51936,16467
51931,16473
51926,16480
51920,16491
51911,16505
51906,16513
51897,16529
51889,16541
51884,16551
51880,16558
51878,16564
51877,16568
51877,16572
51879,16584
51884,16596
51890,16606
51895,16610
51900,16614
51902,16617
51902,16618
51901,16621
51898,16627
51893,16635
51892,16636
51886,16646
51883,16654
51882,16662
51882,16665
51884,16679
51890,16691
51894,16695
51895,16696
51897,16697
51901,16700
51906,16703
51913,16707
51921,16713
51932,16719
51946,16728
51962,16737
51981,16749
52003,16763
52029,16778
52059,16796
52092,16816
52106,16825
52124,16835
52144,16848
52166,16861
52188,16874
52209,16887
52217,16892
52235,16903
52249,16911
52260,16917
52268,16922
52275,16925
52280,16927
52284,16928
52289,16929
52290,16929
52302,16928
52312,16924
52321,16916
52329,16906
52335,16896
52339,16889
52343,16886
52345,16885
52348,16886
52352,16887
52364,16890
52377,16890
52389,16888
52395,16885
52399,16881
52405,16873
52412,16863
52420,16850
52429,16837
52438,16823
52446,16809
52452,16797
52458,16787
52461,16780
52461,16778
52462,16765
52458,16753
52449,16741
52448,16740
52442,16733
52438,16727
52437,16724
52438,16721
52441,16714
52446,16705
52451,16694
52452,16693
52464,16670
52474,16650
52483,16634
52489,16622
52495,16613
52499,16606
52502,16601
52504,16599
52505,16598
52506,16597
52508,16600
52512,16606
52518,16616
52526,16630
52537,16648
52549,16668
52563,16692
52579,16719
52596,16748
52615,16780
52635,16813
52656,16849
52678,16887
52701,16926
52725,16967
52749,17009
52774,17052
52800,17095
52825,17139
52851,17184
52877,17228
52885,17243
52895,17260
52906,17279
52917,17297
52926,17312
52943,17342
52959,17369
52972,17392
52984,17413
52995,17431
53005,17448
53014,17463
53023,17478
53031,17492
53041,17510
53053,17530
53065,17551
53076,17570
53084,17583
53093,17598
53101,17613
53109,17626
53115,17637
53120,17645
53120,17645
53135,17667
53152,17684
53171,17697
53195,17708
53203,17711
53214,17714
53225,17716
53236,17717
53250,17718
53251,17718
53273,17717
53291,17714
53307,17708
53321,17698
53335,17685
53336,17684
53351,17665
53362,17642
53370,17618
53371,17616
53374,17599
53375,17582
53374,17564
53372,17548
53369,17534
53367,17529
53366,17527
53364,17523
53361,17518
53356,17511
53351,17501
53344,17489
53335,17474
53324,17456
53312,17434
53298,17410
53281,17381
53262,17349
53251,17330
53242,17315
53232,17297
53220,17277
53208,17257
53197,17237
53189,17225
53178,17205
53165,17182
53151,17158
53137,17134
53124,17112
53116,17098
53098,17068
53079,17035
53058,17000
53037,16963
53015,16926
52994,16889
52973,16854
52954,16820
52936,16790
52932,16783
52925,16771
52915,16755
52904,16735
52891,16712
52876,16687
52860,16660
52843,16631
52826,16601
52808,16570
52790,16539
52775,16514
52753,16476
52733,16441
52715,16411
52700,16384
52686,16360
52676,16341
52667,16326
52661,16315
52658,16308
52657,16305
52658,16301
52661,16293
52666,16282
52672,16270
52677,16261
52685,16245
52694,16228
52703,16212
52710,16198
52713,16193
52720,16178
52729,16161
52738,16145
52744,16134
52753,16117
52759,16103
52762,16092
52763,16083
52762,16076
52758,16069
52753,16063
52748,16058
52745,16053
52745,16051
52746,16048
52749,16041
52754,16032
52757,16025
52763,16016
52770,16003
52778,15989
52786,15973
52794,15958
52802,15942
52811,15926
52819,15911
52827,15897
52832,15888
52838,15878
52845,15864
52854,15848
52863,15832
52869,15820
52878,15804
52887,15787
52895,15772
52903,15758
52908,15750
52914,15739
52921,15725
52930,15709
52939,15692
52946,15678
52955,15662
52964,15646
52972,15631
52979,15618
52985,15608
52990,15598
52998,15584
53006,15568
53015,15552
53022,15540
53031,15522
53042,15503
53052,15484
53062,15466
53067,15457
53076,15441
53085,15424
53095,15407
53103,15391
53106,15386
53113,15371
53123,15354
53132,15337
53141,15321
53143,15317
53152,15302
53161,15285
53170,15269
53178,15254
53179,15251
53186,15238
53194,15223
53203,15206
53213,15190
53220,15177
53229,15160
53240,15140
53251,15120
53260,15102
53266,15092
53274,15077
53283,15061
53291,15046
53298,15033
53302,15026
53310,15012
53318,14997
53326,14982
53329,14976
53336,14964
53344,14949
53352,14933
53360,14919
53360,14919
53366,14908
53371,14898
53375,14891
53377,14887
53377,14887
53376,14884
53374,14880
53372,14877
53368,14873
53361,14868
53351,14862
53338,14853
53321,14842
53300,14830
53288,14823
53266,14809
53248,14798
53233,14789
53221,14783
53211,14778
53204,14775
53199,14773
53195,14773
53192,14773
53190,14774
53189,14776
53185,14782
53178,14792
53169,14805
53158,14821
53145,14840
53131,14862
53115,14885
53098,14911
53079,14939
53060,14968
53039,14998
53018,15029
52997,15061
52975,15094
52954,15126
52932,15158
52911,15190
52890,15222
52869,15252
52850,15281
52831,15309
52814,15335
52798,15359
52784,15381
52771,15400
52760,15416
52751,15430
52745,15439
52743,15442
52738,15450
52730,15462
52720,15477
52710,15492
52699,15509
52692,15518
52665,15558
52636,15601
52605,15649
52570,15700
52555,15724
52535,15753
52518,15780
52502,15804
52488,15824
52476,15842
52466,15856
52458,15867
52453,15873
52450,15876
52450,15876
52446,15876
52444,15875
52436,15872
52426,15871
52415,15873
52414,15874
52408,15876
52404,15877
52403,15877
52403,15876
52401,15874
52399,15870
52396,15865
52392,15858
52387,15849
52380,15837
52372,15824
52363,15808
52352,15790
52340,15768
52326,15744
52310,15717
52292,15686
52272,15653
52250,15615
52226,15574
52200,15529
52172,15480
52141,15428
52120,15392
52099,15355
52077,15318
52056,15281
52034,15245
52014,15209
51994,15175
51975,15144
51958,15114
51943,15088
51929,15065
51918,15046
51903,15020
51887,14992
51871,14964
51854,14937
51839,14910
51824,14885
51811,14863
51800,14844
51798,14841
51788,14823
51778,14806
51769,14791
51761,14778
51755,14769
51751,14762
51749,14760
51749,14760
51746,14761
51740,14763
51734,14767
51726,14771
51726,14849
51727,14849
51729,14852
51733,14858
51739,14868
51746,14880
51755,14895
51765,14912
51776,14929
51787,14948
51798,14967
51809,14985
51819,15003
51829,15020
51837,15035
51844,15047
51850,15057
51852,15062
51857,15071
51863,15083
51871,15096
51879,15110
51883,15117
51890,15129
51896,15140
51901,15149
51904,15155
51904,15158
51903,15161
51898,15166
51895,15168
51890,15171
51882,15176
51871,15183
51857,15190
51843,15199
51837,15202
51822,15211
51810,15218
51801,15223
51795,15226
51791,15227
51788,15227
51786,15227
51785,15225
51782,15222
51778,15215
51772,15205
51764,15192
51755,15177
51745,15160
51736,15145
51725,15125
51713,15106
51703,15088
51693,15072
51685,15058
51679,15047
51676,15042
51660,15015
51646,14991
51634,14971
51625,14955
51618,14942
51613,14932
51609,14925
51607,14920
51606,14917
51607,14916
51610,14914
51616,14910
51626,14904
51638,14897
51652,14889
51666,14880
51686,14869
51702,14860
51714,14854
51722,14850
51726,14849
51726,14771
51724,14772
51719,14774
51716,14773
51715,14769
51716,14761
51716,14746
51714,14728
51710,14711
51705,14693
51697,14676
51689,14662
51680,14650
51671,14642
51667,14640
51660,14636
51652,14630
51652,14630
51648,14626
51640,14620
51630,14612
51619,14605
51618,14604
51595,14588
51570,14571
51545,14554
51522,14538
51511,14530
51499,14522
51486,14513
51471,14503
51461,14496
51448,14487
51434,14477
51420,14468
51411,14462
51400,14454
51387,14445
51372,14435
51359,14426
51357,14425
51344,14416
51332,14408
51320,14400
51311,14394
51310,14392
51299,14385
51287,14377
51276,14369
51275,14368
51259,14357
51246,14349
51237,14342
51231,14338
51226,14334
51223,14332
51218,14328
51214,14327
51209,14329
51204,14334
51202,14340
51202,14341
51203,14344
" /> 
<polyline style="fill-rule:evenodd;"
points="51245,18201
51247,18202
51248,18202
51251,18200
51256,18195
51265,18187
51275,18178
51286,18167
51296,18158
51340,18115
51409,18000
51422,17978
51434,17958
51446,17938
51456,17921
51465,17907
51472,17895
51478,17886
51481,17881
51481,17880
51485,17876
51488,17875
51491,17876
51498,17879
51506,17884
51508,17885
51519,17892
51526,17896
51531,17898
51534,17898
51536,17897
51538,17895
51542,17889
51548,17880
51555,17868
51563,17855
51565,17853
51574,17837
51586,17818
51598,17798
51610,17779
51618,17765
51626,17752
51636,17736
51648,17715
51662,17692
51679,17664
51697,17634
51717,17601
51739,17565
51762,17527
51787,17486
51812,17444
51839,17399
51867,17353
51895,17306
51924,17258
51954,17209
51984,17160
51995,17141
52014,17110
52032,17080
52049,17051
52066,17024
52081,16999
52094,16977
52107,16956
52117,16939
52126,16925
52132,16914
52137,16907
52138,16904
52142,16898
52144,16894
52144,16892
52142,16889
52141,16889
52139,16887
52132,16883
52122,16876
52110,16868
52095,16859
52078,16849
52065,16841
52043,16828
52025,16817
52011,16809
52000,16803
51993,16800
51989,16798
51988,16799
51987,16799
51987,16799
51986,16800
51985,16801
51984,16803
51982,16806
51979,16810
51976,16815
51973,16821
51968,16828
51962,16837
51956,16848
51948,16861
51939,16876
51928,16893
51916,16913
51903,16935
51888,16960
51871,16988
51852,17019
51832,17053
51809,17090
51784,17132
51757,17176
51728,17225
51696,17277
51676,17311
51645,17362
51616,17409
51590,17453
51566,17492
51544,17529
51524,17562
51506,17592
51490,17619
51475,17643
51462,17665
51450,17685
51439,17703
51429,17719
51420,17733
51412,17746
51405,17758
51399,17769
51393,17779
51391,17781
51386,17790
51382,17798
51380,17804
51380,17805
51383,17808
51389,17812
51397,17818
51402,17820
51410,17826
51418,17831
51422,17834
51423,17835
51423,17837
51421,17840
51418,17846
51414,17853
51408,17863
51401,17876
51392,17892
51381,17910
51367,17933
51352,17958
51334,17987
51314,18021
51307,18032
51299,18045
51293,18055
51288,18064
51284,18073
51280,18081
51276,18091
51272,18102
51268,18116
51263,18133
51256,18154
51256,18156
51251,18172
51248,18184
51246,18193
51245,18198
51245,18201
" /> 
<polyline style="fill-rule:evenodd;"
points="51117,16665
51124,16674
51134,16681
51136,16682
51148,16686
51159,16688
51171,16686
51185,16682
51196,16677
51205,16672
51213,16668
51218,16665
51220,16664
51222,16663
51228,16659
51237,16655
51248,16649
51252,16647
51264,16642
51274,16636
51282,16632
51286,16629
51287,16629
51290,16627
51297,16623
51307,16618
51318,16612
51322,16610
51337,16603
51354,16594
51371,16585
51386,16577
51433,16552
51481,16528
51512,16512
51526,16504
51542,16496
51556,16488
51568,16482
51574,16479
51579,16476
51583,16474
51587,16471
51591,16468
51594,16464
51596,16459
51598,16453
51599,16445
51600,16435
51601,16422
51602,16407
51602,16388
51602,16367
51602,16341
51602,16311
51602,16277
51602,16244
51602,16204
51602,16169
51601,16139
51601,16113
51601,16091
51601,16073
51600,16058
51600,16048
51600,16040
51599,16036
51599,16034
51595,16028
51592,16024
51588,16020
51579,16014
51566,16007
51548,15997
51527,15985
51501,15972
51485,15964
51468,15955
51452,15947
51438,15939
51432,15936
51418,15929
51401,15920
51385,15912
51376,15907
51363,15900
51348,15892
51331,15884
51316,15876
51313,15874
51298,15867
51282,15858
51265,15850
51252,15843
51250,15842
51238,15836
51229,15831
51222,15827
51218,15825
51218,15825
51214,15822
51212,15822
51209,15820
51209,15820
51207,15818
51201,15815
51193,15811
51191,15810
51174,15804
51158,15802
51143,15805
51135,15808
51128,15812
51123,15817
51119,15823
51114,15832
51114,15834
51113,15837
51113,15842
51112,15850
51112,15860
51112,15872
51112,15887
51111,15905
51111,15926
51111,15950
51111,15978
51111,16010
51111,16046
51111,16085
51111,16130
51111,16178
51111,16232
51111,16246
51111,16653
51117,16665
" /> 
<polyline style="fill-rule:evenodd;"
points="49395,16070
49395,16078
49395,16107
49395,16131
49395,16152
49395,16168
49395,16181
49395,16192
49396,16200
49396,16206
49397,16211
49398,16214
49399,16217
49399,16219
49403,16225
49409,16232
49417,16239
49429,16246
49444,16254
49455,16259
49469,16266
49485,16275
49501,16283
49515,16290
49530,16298
49547,16307
49563,16315
49576,16322
49589,16329
49603,16336
49617,16343
49626,16349
49647,16360
49648,16549
49648,16738
49654,16755
49659,16766
49665,16778
49670,16785
49675,16793
49678,16798
49679,16802
49680,16802
49681,16804
49685,16809
49691,16815
49697,16820
49701,16824
49703,16825
49706,16827
49712,16830
49720,16835
49730,16841
49741,16847
49748,16850
49751,16851
49755,16852
49758,16853
49762,16854
49767,16854
49774,16855
49783,16855
49794,16855
49808,16856
49825,16856
49846,16856
49871,16856
49900,16856
49920,16856
50076,16857
50087,16851
50095,16846
50101,16840
50105,16832
50112,16819
50112,16686
50112,16655
50112,16627
50112,16603
50113,16583
50113,16566
50114,16554
50114,16546
50115,16544
50118,16536
50124,16529
50126,16527
50133,16522
50140,16520
50147,16520
50154,16520
50160,16521
50161,16522
50164,16524
50164,16523
50167,16524
50170,16526
50172,16529
50174,16532
50176,16534
50177,16538
50178,16543
50179,16549
50180,16558
50180,16569
50181,16582
50181,16599
50181,16619
50182,16644
50182,16673
50182,16685
50182,16715
50183,16741
50183,16762
50183,16780
50183,16794
50184,16805
50184,16814
50185,16820
50185,16825
50186,16828
50187,16831
50188,16832
50188,16834
50194,16839
50201,16846
50203,16848
50212,16856
50299,16856
50322,16857
50341,16857
50356,16857
50367,16857
50376,16856
50382,16856
50386,16855
50390,16854
50393,16853
50395,16852
50396,16851
50403,16846
50411,16838
50413,16835
50421,16824
50422,16586
50422,16546
50422,16511
50423,16480
50423,16453
50423,16430
50423,16410
50424,16394
50424,16380
50424,16369
50425,16360
50425,16353
50425,16348
50426,16344
50427,16341
50427,16339
50428,16339
50432,16332
50438,16327
50438,16327
50446,16325
50456,16325
50467,16325
50477,16326
50484,16327
50491,16330
50491,16573
50491,16607
50491,16640
50491,16672
50491,16702
50491,16729
50491,16753
50492,16774
50492,16792
50492,16806
50492,16816
50493,16822
50493,16823
50496,16830
50503,16839
50511,16847
50519,16852
50521,16854
50526,16855
50535,16855
50548,16856
50564,16856
50582,16857
50602,16857
50623,16857
50645,16857
50666,16857
50687,16857
50707,16857
50724,16856
50739,16856
50750,16855
50758,16854
50759,16854
50772,16850
50772,16937
50772,16962
50772,16983
50773,17000
50773,17014
50774,17026
50775,17035
50777,17043
50780,17050
50782,17056
50786,17063
50787,17065
50792,17074
50796,17081
50799,17085
50804,17092
50811,17100
50819,17107
50825,17111
50832,17115
50837,17119
50842,17123
50849,17126
50859,17130
50859,17131
50868,17133
50876,17135
50885,17136
50896,17137
50907,17137
50929,17136
50948,17132
50965,17126
50981,17117
50984,17115
50992,17109
51000,17102
51008,17094
51014,17087
51018,17081
51020,17078
51021,17075
51025,17070
51028,17065
51032,17057
51035,17049
51041,17033
51041,16251
51041,16174
51041,16102
51041,16034
51041,15971
51041,15913
51041,15859
51041,15808
51041,15762
51041,15720
51041,15682
51041,15647
51041,15616
51041,15588
51041,15563
51040,15541
51040,15522
51040,15505
51040,15491
51040,15480
51039,15471
51039,15464
51039,15459
51039,15457
51038,15456
51030,15432
51017,15409
51002,15390
50995,15384
50989,15379
50986,15377
50985,15377
50982,15375
50982,15375
50980,15372
50979,15372
50975,15370
50974,15368
50971,15366
50964,15363
50955,15360
50951,15358
50941,15355
50933,15353
50924,15352
50914,15352
50901,15352
50900,15352
50887,15353
50877,15354
50869,15355
50862,15357
50855,15361
50855,15361
50845,15365
50837,15370
50832,15374
50827,15378
50823,15379
50823,15380
50820,15381
50815,15386
50809,15392
50803,15399
50798,15405
50797,15407
50786,15427
50779,15443
50775,15456
50774,15463
50773,15475
50773,15491
50772,15511
50772,15535
50772,15555
50772,15578
50772,15596
50772,15610
50772,15621
50771,15629
50771,15634
50770,15637
50769,15638
50768,15639
50768,15638
50765,15638
50762,15637
50759,15636
50754,15636
50748,15635
50741,15635
50732,15634
50721,15634
50708,15634
50693,15633
50676,15633
50655,15633
50632,15633
50606,15633
50576,15632
50543,15632
50506,15632
50466,15632
50421,15632
50372,15632
50318,15633
50259,15633
50251,15633
49763,15633
49746,15640
49735,15645
49724,15652
49716,15657
49709,15662
49703,15666
49700,15667
49700,15667
49697,15669
49693,15673
49688,15678
49684,15683
49682,15685
49681,15688
49677,15694
49674,15699
49660,15722
49651,15746
49647,15771
49647,15780
49647,15788
49646,15793
49643,15795
49642,15796
49638,15798
49630,15801
49620,15806
49609,15812
49606,15814
49591,15822
49575,15830
49559,15839
49547,15845
49533,15852
49517,15860
49501,15869
49486,15877
49486,15877
49472,15884
49458,15891
49445,15898
49434,15904
49433,15904
49425,15908
49419,15912
49413,15915
49408,15919
49404,15924
49401,15930
49399,15937
49397,15947
49396,15959
49395,15974
49395,15992
49395,16014
49395,16039
49395,16070
" /> 
<polyline style="fill-rule:evenodd;"
points="49078,16461
49096,16461
49110,16461
49121,16460
49129,16459
49135,16459
49141,16457
49145,16455
49147,16455
49170,16443
49190,16427
49207,16407
49221,16384
49231,16358
49232,16354
49234,16349
49235,16344
49236,16338
49237,16330
49237,16321
49238,16310
49238,16295
49239,16277
49239,16254
49239,16251
49241,16166
49248,16151
49253,16143
49259,16135
49262,16131
49265,16129
49268,16127
49272,16126
49277,16125
49285,16125
49295,16125
49310,16125
49315,16125
49360,16125
49360,16027
49311,16027
49287,16027
49267,16028
49250,16031
49236,16034
49224,16040
49212,16047
49201,16056
49191,16066
49173,16086
49160,16109
49150,16135
49149,16137
49148,16142
49147,16148
49146,16154
49145,16161
49144,16171
49144,16182
49143,16197
49143,16215
49142,16238
49142,16241
49141,16326
49134,16340
49130,16348
49126,16354
49122,16358
49116,16361
49109,16363
49099,16364
49085,16364
49068,16365
49022,16365
49022,16462
49078,16461
" /> 
</g>
<g style="fill:#000000; fill-opacity:1.0; 
stroke:#000000; stroke-width:0; stroke-opacity:1; 
stroke-linecap:round; stroke-linejoin:round;">
<polyline style="fill-rule:evenodd;"
points="26664,20259
26705,20272
26742,20292
26775,20319
26802,20352
26823,20389
26835,20430
26838,20462
26838,20700
26835,20732
26823,20773
26802,20810
26775,20843
26742,20870
26705,20890
26664,20903
26622,20907
26579,20903
26538,20890
26501,20870
26468,20843
26441,20810
26421,20773
26408,20732
26405,20700
26405,20462
26408,20430
26421,20389
26441,20352
26468,20319
26501,20292
26538,20272
26579,20259
26622,20255
26664,20259
" /> 
<polyline style="fill-rule:evenodd;"
points="29420,20259
29461,20272
29498,20292
29531,20319
29558,20352
29578,20389
29591,20430
29594,20462
29594,20700
29591,20732
29578,20773
29558,20810
29531,20843
29498,20870
29461,20890
29420,20903
29377,20907
29335,20903
29294,20890
29257,20870
29224,20843
29197,20810
29176,20773
29164,20732
29161,20700
29161,20462
29164,20430
29176,20389
29197,20352
29224,20319
29257,20292
29294,20272
29335,20259
29377,20255
29420,20259
" /> 
<polyline style="fill-rule:evenodd;"
points="32647,20440
32647,20440
32647,20440
32683,20455
32705,20469
32716,20477
32743,20504
32743,20504
32764,20536
32764,20536
32779,20572
32787,20610
32787,20649
32779,20687
32779,20687
32764,20723
32758,20732
32743,20755
32716,20782
32705,20790
32683,20804
32658,20814
32647,20819
32609,20826
32571,20826
32533,20819
32522,20814
32497,20804
32475,20790
32465,20782
32437,20755
32422,20732
32416,20723
32401,20687
32401,20687
32393,20649
32393,20610
32401,20572
32416,20536
32416,20536
32437,20504
32437,20504
32465,20477
32475,20469
32497,20455
32533,20440
32533,20440
32533,20440
32571,20433
32609,20433
32647,20440
" /> 
<polyline style="fill-rule:evenodd;"
points="31466,20440
31466,20440
31466,20440
31502,20455
31524,20469
31534,20477
31562,20504
31562,20504
31583,20536
31583,20536
31598,20572
31606,20610
31606,20649
31598,20687
31598,20687
31583,20723
31577,20732
31562,20755
31534,20782
31524,20790
31502,20804
31477,20814
31466,20819
31428,20826
31390,20826
31352,20819
31341,20814
31316,20804
31294,20790
31283,20782
31256,20755
31241,20732
31235,20723
31220,20687
31220,20687
31212,20649
31212,20610
31220,20572
31235,20536
31235,20536
31256,20504
31256,20504
31283,20477
31294,20469
31316,20455
31352,20440
31352,20440
31352,20440
31390,20433
31428,20433
31466,20440
" /> 
<polyline style="fill-rule:evenodd;"
points="29083,19314
29122,19326
29158,19345
29190,19371
29215,19403
29235,19439
29247,19477
29251,19518
29247,19559
29235,19597
29215,19633
29190,19665
29158,19691
29122,19710
29083,19722
29053,19725
28915,19725
28884,19722
28845,19710
28809,19691
28778,19665
28752,19633
28733,19597
28721,19559
28717,19518
28721,19477
28733,19439
28752,19403
28778,19371
28809,19345
28845,19326
28884,19314
28915,19311
29053,19311
29083,19314
" /> 
<polyline style="fill-rule:evenodd;"
points="27115,19314
27154,19326
27190,19345
27221,19371
27247,19403
27266,19439
27278,19477
27282,19518
27278,19559
27266,19597
27247,19633
27221,19665
27190,19691
27154,19710
27115,19722
27084,19725
26946,19725
26916,19722
26877,19710
26841,19691
26809,19665
26784,19633
26764,19597
26752,19559
26749,19518
26752,19477
26764,19439
26784,19403
26809,19371
26841,19345
26877,19326
26916,19314
26946,19311
27084,19311
27115,19314
" /> 
<polyline style="fill-rule:evenodd;"
points="9103,17909
9167,17935
9225,17974
9275,18024
9314,18082
9340,18146
9354,18215
9354,18284
9340,18353
9314,18417
9275,18475
9225,18525
9167,18564
9103,18590
9034,18604
8965,18604
8896,18590
8832,18564
8774,18525
8724,18475
8685,18417
8659,18353
8645,18284
8645,18215
8659,18146
8685,18082
8724,18024
8774,17974
8832,17935
8896,17909
8965,17895
9034,17895
9103,17909
" /> 
<polyline style="fill-rule:evenodd;"
points="9103,16909
9167,16935
9225,16974
9275,17024
9314,17082
9340,17146
9354,17215
9354,17284
9340,17353
9314,17417
9275,17475
9225,17525
9167,17564
9103,17590
9034,17604
8965,17604
8896,17590
8832,17564
8774,17525
8724,17475
8685,17417
8659,17353
8645,17284
8645,17215
8659,17146
8685,17082
8724,17024
8774,16974
8832,16935
8896,16909
8965,16895
9034,16895
9103,16909
" /> 
<polyline style="fill-rule:evenodd;"
points="9103,15909
9167,15935
9225,15974
9275,16024
9314,16082
9340,16146
9354,16215
9354,16284
9340,16353
9314,16417
9275,16475
9225,16525
9167,16564
9103,16590
9034,16604
8965,16604
8896,16590
8832,16564
8774,16525
8724,16475
8685,16417
8659,16353
8645,16284
8645,16215
8659,16146
8685,16082
8724,16024
8774,15974
8832,15935
8896,15909
8965,15895
9034,15895
9103,15909
" /> 
<polyline style="fill-rule:evenodd;"
points="9103,14909
9167,14935
9225,14974
9275,15024
9314,15082
9340,15146
9354,15215
9354,15284
9340,15353
9314,15417
9275,15475
9225,15525
9167,15564
9103,15590
9034,15604
8965,15604
8896,15590
8832,15564
8774,15525
8724,15475
8685,15417
8659,15353
8645,15284
8645,15215
8659,15146
8685,15082
8724,15024
8774,14974
8832,14935
8896,14909
8965,14895
9034,14895
9103,14909
" /> 
<polyline style="fill-rule:evenodd;"
points="9103,13909
9167,13935
9225,13974
9275,14024
9314,14082
9340,14146
9354,14215
9354,14284
9340,14353
9314,14417
9275,14475
9225,14525
9167,14564
9103,14590
9034,14604
8965,14604
8896,14590
8832,14564
8774,14525
8724,14475
8685,14417
8659,14353
8645,14284
8645,14215
8659,14146
8685,14082
8724,14024
8774,13974
8832,13935
8896,13909
8965,13895
9034,13895
9103,13909
" /> 
<polyline style="fill-rule:evenodd;"
points="47610,11360
46389,11360
46389,10139
47610,10139
47610,11360
" /> 
<polyline style="fill-rule:evenodd;"
points="45069,10151
45127,10163
45183,10186
45239,10209
45339,10275
45424,10360
45490,10460
45536,10572
45560,10689
45560,10810
45536,10927
45490,11039
45424,11139
45339,11224
45239,11290
45183,11313
45127,11336
45069,11348
45010,11360
44889,11360
44830,11348
44772,11336
44716,11313
44660,11290
44560,11224
44475,11139
44409,11039
44363,10927
44339,10810
44339,10689
44363,10572
44409,10460
44475,10360
44560,10275
44660,10209
44716,10186
44772,10163
44830,10151
44889,10139
45010,10139
45069,10151
" /> 
<polyline style="fill-rule:evenodd;"
points="15610,11360
14389,11360
14389,10139
15610,10139
15610,11360
" /> 
<polyline style="fill-rule:evenodd;"
points="13119,10151
13177,10163
13233,10186
13289,10209
13389,10275
13474,10360
13540,10460
13586,10572
13610,10689
13610,10810
13586,10927
13540,11039
13474,11139
13389,11224
13289,11290
13233,11313
13177,11336
13119,11348
13060,11360
12939,11360
12880,11348
12822,11336
12766,11313
12710,11290
12610,11224
12525,11139
12459,11039
12413,10927
12389,10810
12389,10689
12413,10572
12459,10460
12525,10360
12610,10275
12710,10209
12766,10186
12822,10163
12880,10151
12939,10139
13060,10139
13119,10151
" /> 
</g> 
</svg>
