<?xml version="1.0" standalone="no"?>
 <!DOCTYPE svg PUBLIC "-//W3C//DTD SVG 1.1//EN" 
 "http://www.w3.org/Graphics/SVG/1.1/DTD/svg11.dtd"> 
<svg xmlns="http://www.w3.org/2000/svg" version="1.1" 
    width="29.7002cm" height="21.0007cm" viewBox="0 0 116930 82680 ">
<title>SVG Picture created as glowtie-F.Cu.svg date 2019/01/06 16:51:35 </title>
  <desc>Picture generated by PCBNEW </desc>
<g style="fill:#000000; fill-opacity:1;stroke:#000000; stroke-opacity:1;
stroke-linecap:round; stroke-linejoin:round; "
 transform="translate(0 0) scale(1 1)">
</g>
<g style="fill:#000000; fill-opacity:0.0; 
stroke:#000000; stroke-width:-0.000393701; stroke-opacity:1; 
stroke-linecap:round; stroke-linejoin:round;">
</g>
<g style="fill:#000000; fill-opacity:0.0; 
stroke:#000000; stroke-width:0; stroke-opacity:1; 
stroke-linecap:round; stroke-linejoin:round;">
</g>
<g style="fill:#000000; fill-opacity:1.0; 
stroke:#000000; stroke-width:0; stroke-opacity:1; 
stroke-linecap:round; stroke-linejoin:round;">
<polyline style="fill-rule:evenodd;"
points="21044,22703
20791,22401
21273,21996
21526,22298
21044,22703
" /> 
<polyline style="fill-rule:evenodd;"
points="20234,21738
19981,21436
20463,21031
20716,21333
20234,21738
" /> 
<polyline style="fill-rule:evenodd;"
points="19536,23968
19283,23666
19765,23261
20018,23563
19536,23968
" /> 
<polyline style="fill-rule:evenodd;"
points="18726,23003
18473,22701
18955,22296
19208,22598
18726,23003
" /> 
<polyline style="fill-rule:evenodd;"
points="12919,26826
12919,26433
13549,26433
13549,26826
12919,26826
" /> 
<polyline style="fill-rule:evenodd;"
points="12919,25566
12919,25173
13549,25173
13549,25566
12919,25566
" /> 
<polyline style="fill-rule:evenodd;"
points="10950,26826
10950,26433
11580,26433
11580,26826
10950,26826
" /> 
<polyline style="fill-rule:evenodd;"
points="10950,25566
10950,25173
11580,25173
11580,25566
10950,25566
" /> 
<polyline style="fill-rule:evenodd;"
points="5673,20419
6066,20419
6066,21049
5673,21049
5673,20419
" /> 
<polyline style="fill-rule:evenodd;"
points="6933,20419
7326,20419
7326,21049
6933,21049
6933,20419
" /> 
<polyline style="fill-rule:evenodd;"
points="5673,18450
6066,18450
6066,19080
5673,19080
5673,18450
" /> 
<polyline style="fill-rule:evenodd;"
points="6933,18450
7326,18450
7326,19080
6933,19080
6933,18450
" /> 
<polyline style="fill-rule:evenodd;"
points="5673,13419
6066,13419
6066,14049
5673,14049
5673,13419
" /> 
<polyline style="fill-rule:evenodd;"
points="6933,13419
7326,13419
7326,14049
6933,14049
6933,13419
" /> 
<polyline style="fill-rule:evenodd;"
points="5673,11450
6066,11450
6066,12080
5673,12080
5673,11450
" /> 
<polyline style="fill-rule:evenodd;"
points="6933,11450
7326,11450
7326,12080
6933,12080
6933,11450
" /> 
<polyline style="fill-rule:evenodd;"
points="11580,5673
11580,6066
10950,6066
10950,5673
11580,5673
" /> 
<polyline style="fill-rule:evenodd;"
points="11580,6933
11580,7326
10950,7326
10950,6933
11580,6933
" /> 
<polyline style="fill-rule:evenodd;"
points="13549,5673
13549,6066
12919,6066
12919,5673
13549,5673
" /> 
<polyline style="fill-rule:evenodd;"
points="13549,6933
13549,7326
12919,7326
12919,6933
13549,6933
" /> 
<polyline style="fill-rule:evenodd;"
points="20018,8936
19765,9238
19283,8833
19536,8531
20018,8936
" /> 
<polyline style="fill-rule:evenodd;"
points="19208,9901
18955,10203
18473,9798
18726,9496
19208,9901
" /> 
<polyline style="fill-rule:evenodd;"
points="21526,10201
21273,10503
20791,10098
21044,9796
21526,10201
" /> 
<polyline style="fill-rule:evenodd;"
points="20716,11166
20463,11468
19981,11063
20234,10761
20716,11166
" /> 
<polyline style="fill-rule:evenodd;"
points="29330,15173
29330,15566
28700,15566
28700,15173
29330,15173
" /> 
<polyline style="fill-rule:evenodd;"
points="29330,16433
29330,16826
28700,16826
28700,16433
29330,16433
" /> 
<polyline style="fill-rule:evenodd;"
points="31299,15173
31299,15566
30669,15566
30669,15173
31299,15173
" /> 
<polyline style="fill-rule:evenodd;"
points="31299,16433
31299,16826
30669,16826
30669,16433
31299,16433
" /> 
<polyline style="fill-rule:evenodd;"
points="38955,9796
39208,10098
38726,10503
38473,10201
38955,9796
" /> 
<polyline style="fill-rule:evenodd;"
points="39765,10761
40018,11063
39536,11468
39283,11166
39765,10761
" /> 
<polyline style="fill-rule:evenodd;"
points="40463,8531
40716,8833
40234,9238
39981,8936
40463,8531
" /> 
<polyline style="fill-rule:evenodd;"
points="41273,9496
41526,9798
41044,10203
40791,9901
41273,9496
" /> 
<polyline style="fill-rule:evenodd;"
points="47080,5673
47080,6066
46450,6066
46450,5673
47080,5673
" /> 
<polyline style="fill-rule:evenodd;"
points="47080,6933
47080,7326
46450,7326
46450,6933
47080,6933
" /> 
<polyline style="fill-rule:evenodd;"
points="49049,5673
49049,6066
48419,6066
48419,5673
49049,5673
" /> 
<polyline style="fill-rule:evenodd;"
points="49049,6933
49049,7326
48419,7326
48419,6933
49049,6933
" /> 
<polyline style="fill-rule:evenodd;"
points="30976,20232
30976,19641
31251,19641
31251,20232
30976,20232
" /> 
<polyline style="fill-rule:evenodd;"
points="32157,20232
32157,19641
32433,19641
32433,20232
32157,20232
" /> 
<polyline style="fill-rule:evenodd;"
points="32748,20232
32748,19641
33023,19641
33023,20232
32748,20232
" /> 
<polyline style="fill-rule:evenodd;"
points="30366,21220
30366,20905
30759,20905
30759,21220
30366,21220
" /> 
<polyline style="fill-rule:evenodd;"
points="33240,21220
33240,20905
33633,20905
33633,21220
33240,21220
" /> 
<polyline style="fill-rule:evenodd;"
points="33240,20350
33240,20035
33633,20035
33633,20350
33240,20350
" /> 
<polyline style="fill-rule:evenodd;"
points="30366,20350
30366,20035
30759,20035
30759,20350
30366,20350
" /> 
<polyline style="fill-rule:evenodd;"
points="54326,12080
53933,12080
53933,11450
54326,11450
54326,12080
" /> 
<polyline style="fill-rule:evenodd;"
points="53066,12080
52673,12080
52673,11450
53066,11450
53066,12080
" /> 
<polyline style="fill-rule:evenodd;"
points="54326,14049
53933,14049
53933,13419
54326,13419
54326,14049
" /> 
<polyline style="fill-rule:evenodd;"
points="53066,14049
52673,14049
52673,13419
53066,13419
53066,14049
" /> 
<polyline style="fill-rule:evenodd;"
points="54326,19080
53933,19080
53933,18450
54326,18450
54326,19080
" /> 
<polyline style="fill-rule:evenodd;"
points="53066,19080
52673,19080
52673,18450
53066,18450
53066,19080
" /> 
<polyline style="fill-rule:evenodd;"
points="54326,21049
53933,21049
53933,20419
54326,20419
54326,21049
" /> 
<polyline style="fill-rule:evenodd;"
points="53066,21049
52673,21049
52673,20419
53066,20419
53066,21049
" /> 
<polyline style="fill-rule:evenodd;"
points="48419,26826
48419,26433
49049,26433
49049,26826
48419,26826
" /> 
<polyline style="fill-rule:evenodd;"
points="48419,25566
48419,25173
49049,25173
49049,25566
48419,25566
" /> 
<polyline style="fill-rule:evenodd;"
points="46450,26826
46450,26433
47080,26433
47080,26826
46450,26826
" /> 
<polyline style="fill-rule:evenodd;"
points="46450,25566
46450,25173
47080,25173
47080,25566
46450,25566
" /> 
<polyline style="fill-rule:evenodd;"
points="39981,23563
40234,23261
40716,23666
40463,23968
39981,23563
" /> 
<polyline style="fill-rule:evenodd;"
points="40791,22598
41044,22296
41526,22701
41273,23003
40791,22598
" /> 
<polyline style="fill-rule:evenodd;"
points="38473,22298
38726,21996
39208,22401
38955,22703
38473,22298
" /> 
<polyline style="fill-rule:evenodd;"
points="39283,21333
39536,21031
40018,21436
39765,21738
39283,21333
" /> 
<polyline style="fill-rule:evenodd;"
points="23446,17048
23446,15551
24233,15551
24233,17048
23446,17048
" /> 
<polyline style="fill-rule:evenodd;"
points="20966,16595
20966,16004
21753,16004
21753,16595
20966,16595
" /> 
<polyline style="fill-rule:evenodd;"
points="20966,17500
20966,16910
21753,16910
21753,17500
20966,17500
" /> 
<polyline style="fill-rule:evenodd;"
points="20966,15689
20966,15099
21753,15099
21753,15689
20966,15689
" /> 
<polyline style="fill-rule:evenodd;"
points="13966,19767
13533,19767
13533,18783
13966,18783
13966,19767
" /> 
<polyline style="fill-rule:evenodd;"
points="14753,19767
14320,19767
14320,18783
14753,18783
14753,19767
" /> 
<polyline style="fill-rule:evenodd;"
points="15541,19767
15108,19767
15108,18783
15541,18783
15541,19767
" /> 
<polyline style="fill-rule:evenodd;"
points="16328,19767
15895,19767
15895,18783
16328,18783
16328,19767
" /> 
<polyline style="fill-rule:evenodd;"
points="17116,19767
16683,19767
16683,18783
17116,18783
17116,19767
" /> 
<polyline style="fill-rule:evenodd;"
points="17903,19767
17470,19767
17470,18783
17903,18783
17903,19767
" /> 
<polyline style="fill-rule:evenodd;"
points="18690,19767
18257,19767
18257,18783
18690,18783
18690,19767
" /> 
<polyline style="fill-rule:evenodd;"
points="19478,19767
19045,19767
19045,18783
19478,18783
19478,19767
" /> 
<polyline style="fill-rule:evenodd;"
points="19478,13704
19045,13704
19045,12720
19478,12720
19478,13704
" /> 
<polyline style="fill-rule:evenodd;"
points="18690,13704
18257,13704
18257,12720
18690,12720
18690,13704
" /> 
<polyline style="fill-rule:evenodd;"
points="17903,13704
17470,13704
17470,12720
17903,12720
17903,13704
" /> 
<polyline style="fill-rule:evenodd;"
points="17116,13704
16683,13704
16683,12720
17116,12720
17116,13704
" /> 
<polyline style="fill-rule:evenodd;"
points="16328,13704
15895,13704
15895,12720
16328,12720
16328,13704
" /> 
<polyline style="fill-rule:evenodd;"
points="15541,13704
15108,13704
15108,12720
15541,12720
15541,13704
" /> 
<polyline style="fill-rule:evenodd;"
points="14753,13704
14320,13704
14320,12720
14753,12720
14753,13704
" /> 
<polyline style="fill-rule:evenodd;"
points="13966,13704
13533,13704
13533,12720
13966,12720
13966,13704
" /> 
<polyline style="fill-rule:evenodd;"
points="20423,18000
20423,18433
19438,18433
19438,18000
20423,18000
" /> 
<polyline style="fill-rule:evenodd;"
points="20423,17212
20423,17645
19438,17645
19438,17212
20423,17212
" /> 
<polyline style="fill-rule:evenodd;"
points="20423,16425
20423,16858
19438,16858
19438,16425
20423,16425
" /> 
<polyline style="fill-rule:evenodd;"
points="20423,15637
20423,16070
19438,16070
19438,15637
20423,15637
" /> 
<polyline style="fill-rule:evenodd;"
points="20423,14850
20423,15283
19438,15283
19438,14850
20423,14850
" /> 
<polyline style="fill-rule:evenodd;"
points="20423,14062
20423,14496
19438,14496
19438,14062
20423,14062
" /> 
<polyline style="fill-rule:evenodd;"
points="43541,16471
43541,16726
43124,16726
43124,16471
43541,16471
" /> 
<polyline style="fill-rule:evenodd;"
points="43541,16097
43541,16352
43124,16352
43124,16097
43541,16097
" /> 
<polyline style="fill-rule:evenodd;"
points="43541,15723
43541,15978
43124,15978
43124,15723
43541,15723
" /> 
<polyline style="fill-rule:evenodd;"
points="42675,15723
42675,15978
42258,15978
42258,15723
42675,15723
" /> 
<polyline style="fill-rule:evenodd;"
points="42675,16471
42675,16726
42258,16726
42258,16471
42675,16471
" /> 
<polyline style="fill-rule:evenodd;"
points="22009,18546
22009,18053
22403,18053
22403,18546
22009,18546
" /> 
<polyline style="fill-rule:evenodd;"
points="22796,18546
22796,18053
23190,18053
23190,18546
22796,18546
" /> 
<polyline style="fill-rule:evenodd;"
points="27409,18646
27409,18153
27803,18153
27803,18646
27409,18646
" /> 
<polyline style="fill-rule:evenodd;"
points="28196,18646
28196,18153
28590,18153
28590,18646
28196,18646
" /> 
<polyline style="fill-rule:evenodd;"
points="44703,15984
45196,15984
45196,16378
44703,16378
44703,15984
" /> 
<polyline style="fill-rule:evenodd;"
points="44703,16771
45196,16771
45196,17165
44703,17165
44703,16771
" /> 
<polyline style="fill-rule:evenodd;"
points="46380,15361
46380,14888
46853,14888
46853,15361
46380,15361
" /> 
<polyline style="fill-rule:evenodd;"
points="47246,15361
47246,14888
47719,14888
47719,15361
47246,15361
" /> 
<polyline style="fill-rule:evenodd;"
points="47719,17138
47719,17611
47246,17611
47246,17138
47719,17138
" /> 
<polyline style="fill-rule:evenodd;"
points="46853,17138
46853,17611
46380,17611
46380,17138
46853,17138
" /> 
<polyline style="fill-rule:evenodd;"
points="27566,19784
27409,19784
27409,19252
27566,19252
27566,19784
" /> 
<polyline style="fill-rule:evenodd;"
points="27822,19784
27665,19784
27665,19252
27822,19252
27822,19784
" /> 
<polyline style="fill-rule:evenodd;"
points="28078,19784
27921,19784
27921,19252
28078,19252
28078,19784
" /> 
<polyline style="fill-rule:evenodd;"
points="28334,19784
28177,19784
28177,19252
28334,19252
28334,19784
" /> 
<polyline style="fill-rule:evenodd;"
points="28590,19784
28433,19784
28433,19252
28590,19252
28590,19784
" /> 
</g>
<g style="fill:#000000; fill-opacity:1.0; 
stroke:#000000; stroke-width:374.016; stroke-opacity:1; 
stroke-linecap:round; stroke-linejoin:round;">
</g>
<g style="fill:#000000; fill-opacity:0.0; 
stroke:#000000; stroke-width:374.016; stroke-opacity:1; 
stroke-linecap:round; stroke-linejoin:round;">
<path d="M26956 19518
L27074 19518
" />
<path d="M28925 19518
L29043 19518
" />
</g>
<g style="fill:#000000; fill-opacity:0.0; 
stroke:#000000; stroke-width:393.701; stroke-opacity:1; 
stroke-linecap:round; stroke-linejoin:round;">
<path d="M26622 20689
L26622 20473
" />
<path d="M29377 20689
L29377 20473
" />
</g>
<g style="fill:#000000; fill-opacity:0.0; 
stroke:#000000; stroke-width:0; stroke-opacity:1; 
stroke-linecap:round; stroke-linejoin:round;">
</g>
<g style="fill:#000000; fill-opacity:1.0; 
stroke:#000000; stroke-width:0; stroke-opacity:1; 
stroke-linecap:round; stroke-linejoin:round;">
<polyline style="fill-rule:evenodd;"
points="14188,20755
14188,20244
14463,20244
14463,20755
14188,20755
" /> 
<polyline style="fill-rule:evenodd;"
points="14936,20755
14936,20244
15211,20244
15211,20755
14936,20755
" /> 
<polyline style="fill-rule:evenodd;"
points="42388,18080
42388,17569
42663,17569
42663,18080
42388,18080
" /> 
<polyline style="fill-rule:evenodd;"
points="43136,18080
43136,17569
43411,17569
43411,18080
43136,18080
" /> 
<polyline style="fill-rule:evenodd;"
points="18338,12155
18338,11644
18613,11644
18613,12155
18338,12155
" /> 
<polyline style="fill-rule:evenodd;"
points="19086,12155
19086,11644
19361,11644
19361,12155
19086,12155
" /> 
<polyline style="fill-rule:evenodd;"
points="9255,20211
8744,20211
8744,19936
9255,19936
9255,20211
" /> 
<polyline style="fill-rule:evenodd;"
points="9255,19463
8744,19463
8744,19188
9255,19188
9255,19463
" /> 
<polyline style="fill-rule:evenodd;"
points="16738,12155
16738,11644
17013,11644
17013,12155
16738,12155
" /> 
<polyline style="fill-rule:evenodd;"
points="17486,12155
17486,11644
17761,11644
17761,12155
17486,12155
" /> 
<polyline style="fill-rule:evenodd;"
points="46538,16130
46538,15619
46813,15619
46813,16130
46538,16130
" /> 
<polyline style="fill-rule:evenodd;"
points="47286,16130
47286,15619
47561,15619
47561,16130
47286,16130
" /> 
<polyline style="fill-rule:evenodd;"
points="46538,16880
46538,16369
46813,16369
46813,16880
46538,16880
" /> 
<polyline style="fill-rule:evenodd;"
points="47286,16880
47286,16369
47561,16369
47561,16880
47286,16880
" /> 
<circle cx="9000" cy="17250" r="334.646" /> 
</g>
<g style="fill:#000000; fill-opacity:1.0; 
stroke:#000000; stroke-width:39.3701; stroke-opacity:1; 
stroke-linecap:round; stroke-linejoin:round;">
</g>
<g style="fill:#000000; fill-opacity:1.0; 
stroke:#000000; stroke-width:0; stroke-opacity:1; 
stroke-linecap:round; stroke-linejoin:round;">
<circle cx="9000" cy="16250" r="334.646" /> 
</g>
<g style="fill:#000000; fill-opacity:1.0; 
stroke:#000000; stroke-width:39.3701; stroke-opacity:1; 
stroke-linecap:round; stroke-linejoin:round;">
</g>
<g style="fill:#000000; fill-opacity:1.0; 
stroke:#000000; stroke-width:0; stroke-opacity:1; 
stroke-linecap:round; stroke-linejoin:round;">
<circle cx="9000" cy="18250" r="334.646" /> 
</g>
<g style="fill:#000000; fill-opacity:1.0; 
stroke:#000000; stroke-width:39.3701; stroke-opacity:1; 
stroke-linecap:round; stroke-linejoin:round;">
</g>
<g style="fill:#000000; fill-opacity:1.0; 
stroke:#000000; stroke-width:0; stroke-opacity:1; 
stroke-linecap:round; stroke-linejoin:round;">
<circle cx="9000" cy="15250" r="334.646" /> 
</g>
<g style="fill:#000000; fill-opacity:1.0; 
stroke:#000000; stroke-width:39.3701; stroke-opacity:1; 
stroke-linecap:round; stroke-linejoin:round;">
</g>
<g style="fill:#000000; fill-opacity:1.0; 
stroke:#000000; stroke-width:0; stroke-opacity:1; 
stroke-linecap:round; stroke-linejoin:round;">
<circle cx="9000" cy="14250" r="334.646" /> 
</g>
<g style="fill:#000000; fill-opacity:1.0; 
stroke:#000000; stroke-width:39.3701; stroke-opacity:1; 
stroke-linecap:round; stroke-linejoin:round;">
</g>
<g style="fill:#000000; fill-opacity:1.0; 
stroke:#000000; stroke-width:0; stroke-opacity:1; 
stroke-linecap:round; stroke-linejoin:round;">
<circle cx="44100" cy="15975" r="118.11" /> 
</g>
<g style="fill:#000000; fill-opacity:1.0; 
stroke:#000000; stroke-width:39.3701; stroke-opacity:1; 
stroke-linecap:round; stroke-linejoin:round;">
</g>
<g style="fill:#000000; fill-opacity:1.0; 
stroke:#000000; stroke-width:0; stroke-opacity:1; 
stroke-linecap:round; stroke-linejoin:round;">
<circle cx="45650" cy="17375" r="118.11" /> 
</g>
<g style="fill:#000000; fill-opacity:1.0; 
stroke:#000000; stroke-width:39.3701; stroke-opacity:1; 
stroke-linecap:round; stroke-linejoin:round;">
</g>
<g style="fill:#000000; fill-opacity:1.0; 
stroke:#000000; stroke-width:0; stroke-opacity:1; 
stroke-linecap:round; stroke-linejoin:round;">
<circle cx="28150" cy="15350" r="118.11" /> 
</g>
<g style="fill:#000000; fill-opacity:1.0; 
stroke:#000000; stroke-width:39.3701; stroke-opacity:1; 
stroke-linecap:round; stroke-linejoin:round;">
</g>
<g style="fill:#000000; fill-opacity:1.0; 
stroke:#000000; stroke-width:0; stroke-opacity:1; 
stroke-linecap:round; stroke-linejoin:round;">
<circle cx="24850" cy="16300" r="118.11" /> 
</g>
<g style="fill:#000000; fill-opacity:1.0; 
stroke:#000000; stroke-width:39.3701; stroke-opacity:1; 
stroke-linecap:round; stroke-linejoin:round;">
</g>
<g style="fill:#000000; fill-opacity:1.0; 
stroke:#000000; stroke-width:0; stroke-opacity:1; 
stroke-linecap:round; stroke-linejoin:round;">
<circle cx="44500" cy="8100" r="118.11" /> 
</g>
<g style="fill:#000000; fill-opacity:1.0; 
stroke:#000000; stroke-width:39.3701; stroke-opacity:1; 
stroke-linecap:round; stroke-linejoin:round;">
</g>
<g style="fill:#000000; fill-opacity:1.0; 
stroke:#000000; stroke-width:0; stroke-opacity:1; 
stroke-linecap:round; stroke-linejoin:round;">
<circle cx="20400" cy="12850" r="118.11" /> 
</g>
<g style="fill:#000000; fill-opacity:1.0; 
stroke:#000000; stroke-width:39.3701; stroke-opacity:1; 
stroke-linecap:round; stroke-linejoin:round;">
</g>
<g style="fill:#000000; fill-opacity:1.0; 
stroke:#000000; stroke-width:0; stroke-opacity:1; 
stroke-linecap:round; stroke-linejoin:round;">
<circle cx="31125" cy="18225" r="118.11" /> 
</g>
<g style="fill:#000000; fill-opacity:1.0; 
stroke:#000000; stroke-width:39.3701; stroke-opacity:1; 
stroke-linecap:round; stroke-linejoin:round;">
</g>
<g style="fill:#000000; fill-opacity:1.0; 
stroke:#000000; stroke-width:0; stroke-opacity:1; 
stroke-linecap:round; stroke-linejoin:round;">
<circle cx="45850" cy="15925" r="118.11" /> 
</g>
<g style="fill:#000000; fill-opacity:1.0; 
stroke:#000000; stroke-width:39.3701; stroke-opacity:1; 
stroke-linecap:round; stroke-linejoin:round;">
</g>
<g style="fill:#000000; fill-opacity:1.0; 
stroke:#000000; stroke-width:0; stroke-opacity:1; 
stroke-linecap:round; stroke-linejoin:round;">
<circle cx="46000" cy="16600" r="118.11" /> 
</g>
<g style="fill:#000000; fill-opacity:1.0; 
stroke:#000000; stroke-width:39.3701; stroke-opacity:1; 
stroke-linecap:round; stroke-linejoin:round;">
</g>
<g style="fill:#000000; fill-opacity:1.0; 
stroke:#000000; stroke-width:0; stroke-opacity:1; 
stroke-linecap:round; stroke-linejoin:round;">
<circle cx="44100" cy="16600" r="118.11" /> 
</g>
<g style="fill:#000000; fill-opacity:1.0; 
stroke:#000000; stroke-width:39.3701; stroke-opacity:1; 
stroke-linecap:round; stroke-linejoin:round;">
</g>
<g style="fill:#000000; fill-opacity:1.0; 
stroke:#000000; stroke-width:0; stroke-opacity:1; 
stroke-linecap:round; stroke-linejoin:round;">
<circle cx="16900" cy="15400" r="118.11" /> 
</g>
<g style="fill:#000000; fill-opacity:1.0; 
stroke:#000000; stroke-width:39.3701; stroke-opacity:1; 
stroke-linecap:round; stroke-linejoin:round;">
</g>
<g style="fill:#000000; fill-opacity:1.0; 
stroke:#000000; stroke-width:0; stroke-opacity:1; 
stroke-linecap:round; stroke-linejoin:round;">
<circle cx="15700" cy="21000" r="118.11" /> 
</g>
<g style="fill:#000000; fill-opacity:1.0; 
stroke:#000000; stroke-width:39.3701; stroke-opacity:1; 
stroke-linecap:round; stroke-linejoin:round;">
</g>
<g style="fill:#000000; fill-opacity:1.0; 
stroke:#000000; stroke-width:200; stroke-opacity:1; 
stroke-linecap:round; stroke-linejoin:round;">
</g>
<g style="fill:#000000; fill-opacity:0.0; 
stroke:#000000; stroke-width:200; stroke-opacity:1; 
stroke-linecap:round; stroke-linejoin:round;">
<path d="M43333 16225
L43850 16225
" />
<path d="M43850 16225
L44100 15975
" />
<path d="M45356 17375
L45650 17375
" />
<path d="M29015 15370
L30029 15370
" />
<path d="M38841 11758
L38841 10150
" />
<path d="M35100 15500
L38841 11758
" />
<path d="M32050 15500
L35100 15500
" />
<path d="M31450 14900
L32050 15500
" />
<path d="M30500 14900
L31450 14900
" />
<path d="M30029 15370
L30500 14900
" />
<path d="M46616 17375
L45356 17375
" />
<path d="M45356 17375
L44950 16968
" />
</g>
<g style="fill:#000000; fill-opacity:0.0; 
stroke:#000000; stroke-width:100; stroke-opacity:1; 
stroke-linecap:round; stroke-linejoin:round;">
<path d="M25650 20050
L28400 20050
" />
<path d="M25650 20050
L23458 20050
" />
<path d="M21158 22349
L23458 20050
" />
<path d="M28511 19938
L28511 19518
" />
<path d="M28400 20050
L28511 19938
" />
<path d="M28511 19518
L28511 18518
" />
<path d="M28511 18518
L28393 18400
" />
</g>
<g style="fill:#000000; fill-opacity:0.0; 
stroke:#000000; stroke-width:250; stroke-opacity:1; 
stroke-linecap:round; stroke-linejoin:round;">
<path d="M28995 15350
L28150 15350
" />
</g>
<g style="fill:#000000; fill-opacity:0.0; 
stroke:#000000; stroke-width:200; stroke-opacity:1; 
stroke-linecap:round; stroke-linejoin:round;">
<path d="M24850 16300
L23840 16300
" />
</g>
<g style="fill:#000000; fill-opacity:0.0; 
stroke:#000000; stroke-width:250; stroke-opacity:1; 
stroke-linecap:round; stroke-linejoin:round;">
<path d="M28995 15350
L29015 15370
" />
<path d="M19224 11900
L19224 13450
" />
<path d="M19224 13450
L19261 13488
" />
</g>
<g style="fill:#000000; fill-opacity:0.0; 
stroke:#000000; stroke-width:100; stroke-opacity:1; 
stroke-linecap:round; stroke-linejoin:round;">
<path d="M28511 18616
L28295 18400
" />
</g>
<g style="fill:#000000; fill-opacity:0.0; 
stroke:#000000; stroke-width:200; stroke-opacity:1; 
stroke-linecap:round; stroke-linejoin:round;">
<path d="M45100 7500
L44500 8100
" />
<path d="M41000 7500
L39350 9150
" />
<path d="M39350 9150
L38750 9750
" />
<path d="M38750 9750
L38750 10059
" />
<path d="M38750 10059
L38841 10150
" />
<path d="M20400 13550
L20400 12850
" />
</g>
<g style="fill:#000000; fill-opacity:0.0; 
stroke:#000000; stroke-width:250; stroke-opacity:1; 
stroke-linecap:round; stroke-linejoin:round;">
<path d="M20700 13850
L20400 13550
" />
<path d="M20950 16300
L20700 16050
" />
<path d="M20700 16050
L20700 13850
" />
<path d="M21359 16300
L20950 16300
" />
<path d="M20400 13550
L19323 13550
" />
<path d="M19323 13550
L19261 13488
" />
<path d="M21359 16300
L23840 16300
" />
</g>
<g style="fill:#000000; fill-opacity:0.0; 
stroke:#000000; stroke-width:196.85; stroke-opacity:1; 
stroke-linecap:round; stroke-linejoin:round;">
<path d="M13234 26629
L16620 26629
" />
<path d="M16620 26629
L18500 24750
" />
<path d="M18500 24750
L19250 24750
" />
<path d="M19250 24750
L21158 22841
" />
<path d="M21158 22841
L21158 22349
" />
<path d="M5870 20734
L5870 22120
" />
<path d="M5870 22120
L11000 27250
" />
<path d="M11000 27250
L12614 27250
" />
<path d="M12614 27250
L13234 26629
" />
<path d="M5870 13734
L5870 13879
" />
<path d="M5870 13879
L5250 14500
" />
<path d="M5250 20114
L5870 20734
" />
<path d="M5250 14500
L5250 20114
" />
<path d="M11265 5870
L10879 5870
" />
<path d="M5250 13114
L5870 13734
" />
<path d="M5250 11500
L5250 13114
" />
<path d="M10879 5870
L5250 11500
" />
<path d="M19650 8884
L19634 8884
" />
<path d="M19634 8884
L16000 5250
" />
<path d="M11885 5250
L11265 5870
" />
<path d="M16000 5250
L11885 5250
" />
<path d="M41000 7500
L45100 7500
" />
<path d="M45100 7500
L45135 7500
" />
<path d="M45135 7500
L46765 5870
" />
<path d="M54129 11765
L54129 10629
" />
<path d="M47385 5250
L46765 5870
" />
<path d="M49250 5250
L47385 5250
" />
<path d="M49500 5500
L49250 5250
" />
<path d="M49500 6000
L49500 5500
" />
<path d="M54129 10629
L49500 6000
" />
<path d="M54129 18765
L54234 18765
" />
<path d="M54234 18765
L54750 18250
" />
<path d="M54750 12385
L54129 11765
" />
<path d="M54750 18250
L54750 12385
" />
<path d="M48734 26629
L49120 26629
" />
<path d="M54750 19385
L54129 18765
" />
<path d="M54750 21000
L54750 19385
" />
<path d="M49120 26629
L54750 21000
" />
<path d="M40349 23615
L40865 23615
" />
<path d="M48114 27250
L48734 26629
" />
<path d="M44500 27250
L48114 27250
" />
<path d="M40865 23615
L44500 27250
" />
</g>
<g style="fill:#000000; fill-opacity:0.0; 
stroke:#000000; stroke-width:250; stroke-opacity:1; 
stroke-linecap:round; stroke-linejoin:round;">
<path d="M9000 20074
L9925 20074
" />
<path d="M9925 20074
L10250 19750
" />
<path d="M14325 20500
L13500 20500
" />
<path d="M13500 20500
L12750 19750
" />
</g>
<g style="fill:#000000; fill-opacity:0.0; 
stroke:#000000; stroke-width:200; stroke-opacity:1; 
stroke-linecap:round; stroke-linejoin:round;">
<path d="M16825 11850
L16200 11850
" />
<path d="M8500 16250
L8250 16000
" />
<path d="M8250 16000
L8250 12900
" />
<path d="M8250 12900
L9300 11850
" />
<path d="M9300 11850
L16200 11850
" />
<path d="M8500 16250
L9000 16250
" />
<path d="M16825 11850
L16875 11900
" />
<path d="M16700 18500
L13200 18500
" />
<path d="M19000 18500
L16700 18500
" />
</g>
<g style="fill:#000000; fill-opacity:0.0; 
stroke:#000000; stroke-width:250; stroke-opacity:1; 
stroke-linecap:round; stroke-linejoin:round;">
<path d="M13000 18700
L13000 19500
" />
<path d="M13000 19500
L12750 19750
" />
<path d="M12750 19750
L10250 19750
" />
<path d="M19261 19000
L19261 18761
" />
<path d="M19000 18500
L19261 18761
" />
<path d="M13000 18700
L13200 18500
" />
<path d="M9500 16250
L9000 16250
" />
<path d="M9750 16500
L9500 16250
" />
<path d="M9750 19250
L9750 16500
" />
<path d="M10250 19750
L9750 19250
" />
<path d="M19261 19000
L21600 19000
" />
<path d="M21600 19000
L21604 19000
" />
<path d="M21604 19000
L22304 18300
" />
<path d="M22304 18300
L22304 18150
" />
<path d="M22304 18150
L21359 17205
" />
</g>
<g style="fill:#000000; fill-opacity:0.0; 
stroke:#000000; stroke-width:200; stroke-opacity:1; 
stroke-linecap:round; stroke-linejoin:round;">
<path d="M9000 14250
L9350 14250
" />
<path d="M14537 12637
L14537 13488
" />
<path d="M14250 12350
L14537 12637
" />
<path d="M10050 12350
L14250 12350
" />
<path d="M9600 12800
L10050 12350
" />
<path d="M9600 14000
L9600 12800
" />
<path d="M9350 14250
L9600 14000
" />
</g>
<g style="fill:#000000; fill-opacity:0.0; 
stroke:#000000; stroke-width:100; stroke-opacity:1; 
stroke-linecap:round; stroke-linejoin:round;">
<path d="M14537 13488
L14537 12937
" />
<path d="M14537 12787
L14537 13488
" />
</g>
<g style="fill:#000000; fill-opacity:0.0; 
stroke:#000000; stroke-width:200; stroke-opacity:1; 
stroke-linecap:round; stroke-linejoin:round;">
<path d="M13100 12700
L13600 12700
" />
<path d="M9700 15250
L9950 15000
" />
<path d="M9950 15000
L9950 12950
" />
<path d="M9950 12950
L10200 12700
" />
<path d="M10200 12700
L13100 12700
" />
<path d="M9000 15250
L9700 15250
" />
<path d="M13600 12700
L13750 12850
" />
<path d="M13750 12850
L13750 13488
" />
<path d="M13750 13350
L13750 13488
" />
</g>
<g style="fill:#000000; fill-opacity:0.0; 
stroke:#000000; stroke-width:100; stroke-opacity:1; 
stroke-linecap:round; stroke-linejoin:round;">
<path d="M13750 13488
L13750 13250
" />
<path d="M9000 15250
L8750 15250
" />
</g>
<g style="fill:#000000; fill-opacity:0.0; 
stroke:#000000; stroke-width:196.85; stroke-opacity:1; 
stroke-linecap:round; stroke-linejoin:round;">
<path d="M13234 25370
L17129 25370
" />
<path d="M18884 23615
L19650 23615
" />
<path d="M17129 25370
L18884 23615
" />
<path d="M7129 20734
L7129 22494
" />
<path d="M7129 22494
L11265 26629
" />
<path d="M7129 13734
L7129 17505
" />
<path d="M7129 17505
L5870 18765
" />
<path d="M5870 11765
L5870 11629
" />
<path d="M5870 11629
L10370 7129
" />
<path d="M10370 7129
L11265 7129
" />
<path d="M18841 9849
L18841 8841
" />
<path d="M15870 5870
L13234 5870
" />
<path d="M18841 8841
L15870 5870
" />
<path d="M29015 16629
L27638 16629
" />
<path d="M27638 16629
L21158 10150
" />
</g>
<g style="fill:#000000; fill-opacity:0.0; 
stroke:#000000; stroke-width:200; stroke-opacity:1; 
stroke-linecap:round; stroke-linejoin:round;">
<path d="M30984 15370
L30984 15534
" />
<path d="M30984 15534
L31500 16050
" />
<path d="M31500 16050
L35200 16050
" />
<path d="M35200 16050
L39650 11599
" />
<path d="M39650 11599
L39650 11115
" />
</g>
<g style="fill:#000000; fill-opacity:0.0; 
stroke:#000000; stroke-width:196.85; stroke-opacity:1; 
stroke-linecap:round; stroke-linejoin:round;">
<path d="M40349 8884
L44865 8884
" />
<path d="M44865 8884
L45250 8500
" />
<path d="M46765 7129
L46620 7129
" />
<path d="M46620 7129
L45250 8500
" />
<path d="M45250 8500
L45115 8634
" />
<path d="M52870 11765
L52870 10620
" />
<path d="M49500 6635
L48734 5870
" />
<path d="M49500 7250
L49500 6635
" />
<path d="M52870 10620
L49500 7250
" />
<path d="M54129 16120
L54129 17505
" />
<path d="M54129 13734
L54129 16120
" />
<path d="M54129 17505
L52870 18765
" />
<path d="M48734 25370
L49494 25370
" />
<path d="M49494 25370
L54129 20734
" />
<path d="M46765 26629
L45138 26629
" />
<path d="M45138 26629
L41158 22650
" />
</g>
<g style="fill:#000000; fill-opacity:0.0; 
stroke:#000000; stroke-width:200; stroke-opacity:1; 
stroke-linecap:round; stroke-linejoin:round;">
<path d="M42525 17825
L42525 16658
" />
<path d="M42525 16658
L42466 16599
" />
<path d="M42687 15137
L42900 14925
" />
<path d="M42466 15850
L42466 15358
" />
<path d="M42687 15137
L42466 15358
" />
<path d="M42900 14925
L46416 14925
" />
<path d="M46416 14925
L46616 15125
" />
<path d="M46604 15137
L46616 15125
" />
<path d="M42466 15850
L36999 15850
" />
<path d="M36999 15850
L35150 17700
" />
<path d="M34100 17700
L35150 17700
" />
</g>
<g style="fill:#000000; fill-opacity:0.0; 
stroke:#000000; stroke-width:100; stroke-opacity:1; 
stroke-linecap:round; stroke-linejoin:round;">
<path d="M27488 19518
L27488 18518
" />
<path d="M27488 18518
L27606 18400
" />
<path d="M27488 18518
L27606 18400
" />
</g>
<g style="fill:#000000; fill-opacity:0.0; 
stroke:#000000; stroke-width:200; stroke-opacity:1; 
stroke-linecap:round; stroke-linejoin:round;">
<path d="M30750 17700
L34100 17700
" />
<path d="M34100 17700
L34150 17700
" />
</g>
<g style="fill:#000000; fill-opacity:0.0; 
stroke:#000000; stroke-width:250; stroke-opacity:1; 
stroke-linecap:round; stroke-linejoin:round;">
<path d="M27704 18400
L27704 17995
" />
<path d="M27704 17995
L28000 17700
" />
<path d="M28000 17700
L30750 17700
" />
<path d="M30750 17700
L30800 17700
" />
</g>
<g style="fill:#000000; fill-opacity:0.0; 
stroke:#000000; stroke-width:100; stroke-opacity:1; 
stroke-linecap:round; stroke-linejoin:round;">
<path d="M27488 18616
L27704 18400
" />
</g>
<g style="fill:#000000; fill-opacity:0.0; 
stroke:#000000; stroke-width:200; stroke-opacity:1; 
stroke-linecap:round; stroke-linejoin:round;">
<path d="M43333 15850
L43399 15850
" />
<path d="M43399 15850
L43800 15450
" />
<path d="M43800 15450
L44525 15450
" />
<path d="M44525 15450
L44950 15875
" />
<path d="M44950 15875
L44950 16181
" />
<path d="M31114 19235
L31114 18235
" />
<path d="M31114 19937
L31114 19235
" />
<path d="M31114 18235
L31125 18225
" />
<path d="M44950 16181
L45593 16181
" />
<path d="M45850 15925
L45593 16181
" />
<path d="M43333 16599
L44099 16599
" />
<path d="M46025 16625
L46675 16625
" />
<path d="M46000 16600
L46025 16625
" />
<path d="M44099 16599
L44100 16600
" />
</g>
<g style="fill:#000000; fill-opacity:0.0; 
stroke:#000000; stroke-width:100; stroke-opacity:1; 
stroke-linecap:round; stroke-linejoin:round;">
<path d="M46650 16599
L46675 16625
" />
</g>
<g style="fill:#000000; fill-opacity:0.0; 
stroke:#000000; stroke-width:200; stroke-opacity:1; 
stroke-linecap:round; stroke-linejoin:round;">
<path d="M46675 16625
L46675 15875
" />
<path d="M47424 15875
L47424 15184
" />
<path d="M47424 15184
L47483 15125
" />
<path d="M47483 17375
L47483 16684
" />
<path d="M47483 16684
L47424 16625
" />
<path d="M52870 20734
L51401 20734
" />
<path d="M51401 20734
L46765 25370
" />
<path d="M52250 20000
L52250 20114
" />
</g>
<g style="fill:#000000; fill-opacity:0.0; 
stroke:#000000; stroke-width:196.85; stroke-opacity:1; 
stroke-linecap:round; stroke-linejoin:round;">
<path d="M52250 20000
L52250 18250
" />
<path d="M52250 18250
L53500 17000
" />
<path d="M53500 17000
L53500 14364
" />
<path d="M52870 13734
L53500 14364
" />
</g>
<g style="fill:#000000; fill-opacity:0.0; 
stroke:#000000; stroke-width:200; stroke-opacity:1; 
stroke-linecap:round; stroke-linejoin:round;">
<path d="M52250 20114
L52870 20734
" />
<path d="M39975 11825
L41150 10650
" />
<path d="M41150 10650
L41150 9858
" />
<path d="M41150 9858
L41158 9849
" />
<path d="M30984 16629
L35170 16629
" />
<path d="M35170 16629
L39975 11825
" />
<path d="M39975 11825
L40000 11800
" />
<path d="M32295 19937
L32295 19504
" />
<path d="M37734 21384
L39650 21384
" />
<path d="M35600 19250
L37734 21384
" />
<path d="M32550 19250
L35600 19250
" />
<path d="M32295 19504
L32550 19250
" />
</g>
<g style="fill:#000000; fill-opacity:0.0; 
stroke:#000000; stroke-width:250; stroke-opacity:1; 
stroke-linecap:round; stroke-linejoin:round;">
<path d="M7129 18765
L7129 19629
" />
<path d="M7650 21754
L11265 25370
" />
<path d="M7650 20150
L7650 21754
" />
<path d="M7129 19629
L7650 20150
" />
<path d="M20349 11115
L21300 12066
" />
<path d="M7129 11765
L7129 11829
" />
<path d="M7129 11829
L7600 12300
" />
<path d="M7600 12300
L7600 18295
" />
<path d="M7600 18295
L7129 18765
" />
<path d="M21359 15394
L21359 12125
" />
</g>
<g style="fill:#000000; fill-opacity:0.0; 
stroke:#000000; stroke-width:196.85; stroke-opacity:1; 
stroke-linecap:round; stroke-linejoin:round;">
<path d="M7129 18765
L7234 18765
" />
<path d="M41158 9849
L45400 9849
" />
<path d="M45400 9849
L45750 9500
" />
<path d="M18703 22787
L18841 22650
" />
<path d="M11265 25370
L11379 25370
" />
<path d="M11379 25370
L12500 24250
" />
<path d="M12500 24250
L15500 24250
" />
<path d="M17241 24250
L18841 22650
" />
<path d="M15500 24250
L17241 24250
" />
<path d="M7129 18765
L7129 19129
" />
<path d="M7129 11765
L7265 11765
" />
<path d="M13234 7129
L13120 7129
" />
<path d="M13120 7129
L12250 8000
" />
<path d="M10895 8000
L7129 11765
" />
<path d="M12250 8000
L10895 8000
" />
<path d="M20349 11115
L19365 11115
" />
<path d="M19365 11115
L16125 7875
" />
<path d="M16125 7875
L15379 7129
" />
<path d="M15379 7129
L13234 7129
" />
<path d="M30984 16629
L30870 16629
" />
<path d="M30870 16629
L30250 17250
" />
<path d="M30250 17250
L26483 17250
" />
<path d="M26483 17250
L21300 12066
" />
<path d="M48734 7129
L48120 7129
" />
<path d="M48120 7129
L45750 9500
" />
<path d="M45750 9500
L45650 9599
" />
<path d="M52870 13734
L52870 13120
" />
<path d="M52870 13120
L48734 8984
" />
<path d="M48734 8984
L48734 7129
" />
<path d="M46765 25370
L46879 25370
" />
<path d="M39650 21384
L42750 21384
" />
<path d="M42750 21384
L42780 21384
" />
<path d="M42780 21384
L46765 25370
" />
</g>
<g style="fill:#000000; fill-opacity:0.0; 
stroke:#000000; stroke-width:250; stroke-opacity:1; 
stroke-linecap:round; stroke-linejoin:round;">
<path d="M8400 20550
L9150 21300
" />
<path d="M8400 18550
L8400 20550
" />
<path d="M8700 18250
L8400 18550
" />
<path d="M16899 15399
L16899 13488
" />
<path d="M16900 15400
L16899 15399
" />
<path d="M15400 21300
L15700 21000
" />
<path d="M9150 21300
L15400 21300
" />
<path d="M9000 18250
L8700 18250
" />
<path d="M9000 19325
L9000 18250
" />
</g>
<g style="fill:#000000; fill-opacity:0.0; 
stroke:#000000; stroke-width:100; stroke-opacity:1; 
stroke-linecap:round; stroke-linejoin:round;">
<path d="M9000 18250
L8750 18250
" />
</g>
<g style="fill:#000000; fill-opacity:0.0; 
stroke:#000000; stroke-width:196.85; stroke-opacity:1; 
stroke-linecap:round; stroke-linejoin:round;">
<path d="M16899 13488
L16899 12899
" />
<path d="M20349 21384
L18384 21384
" />
<path d="M17687 20687
L17687 19000
" />
<path d="M18384 21384
L17687 20687
" />
</g>
<g style="fill:#000000; fill-opacity:0.0; 
stroke:#000000; stroke-width:250; stroke-opacity:1; 
stroke-linecap:round; stroke-linejoin:round;">
<path d="M15324 19000
L15324 20249
" />
<path d="M15324 20249
L15074 20500
" />
</g>
<g style="fill:#000000; fill-opacity:0.0; 
stroke:#000000; stroke-width:100; stroke-opacity:1; 
stroke-linecap:round; stroke-linejoin:round;">
<path d="M14995 20500
L15000 20500
" />
</g>
<g style="fill:#000000; fill-opacity:0.0; 
stroke:#000000; stroke-width:250; stroke-opacity:1; 
stroke-linecap:round; stroke-linejoin:round;">
<path d="M15231 19093
L15324 19000
" />
</g>
<g style="fill:#000000; fill-opacity:0.0; 
stroke:#000000; stroke-width:196.85; stroke-opacity:1; 
stroke-linecap:round; stroke-linejoin:round;">
<path d="M15250 19074
L15324 19000
" />
</g>
<g style="fill:#000000; fill-opacity:0.0; 
stroke:#000000; stroke-width:250; stroke-opacity:1; 
stroke-linecap:round; stroke-linejoin:round;">
<path d="M18474 13488
L18474 11901
" />
<path d="M18474 11901
L18475 11900
" />
<path d="M18368 13382
L18474 13488
" />
</g>
<g style="fill:#000000; fill-opacity:0.0; 
stroke:#000000; stroke-width:200; stroke-opacity:1; 
stroke-linecap:round; stroke-linejoin:round;">
<path d="M17687 13488
L17687 11962
" />
<path d="M17687 11962
L17624 11900
" />
</g>
<g style="fill:#000000; fill-opacity:0.0; 
stroke:#000000; stroke-width:250; stroke-opacity:1; 
stroke-linecap:round; stroke-linejoin:round;">
<path d="M17631 13432
L17687 13488
" />
</g>
<g style="fill:#000000; fill-opacity:0.0; 
stroke:#000000; stroke-width:196.85; stroke-opacity:1; 
stroke-linecap:round; stroke-linejoin:round;">
<path d="M17687 13488
L17687 12937
" />
</g>
<g style="fill:#000000; fill-opacity:1.0; 
stroke:#000000; stroke-width:100; stroke-opacity:1; 
stroke-linecap:round; stroke-linejoin:round;">
<polyline style="fill-rule:evenodd;"
points="24797,12432
24805,12444
24838,12466
24848,12474
24860,12481
24894,12504
24907,12506
24918,12512
24959,12516
25000,12524
25012,12522
25025,12523
25064,12512
25105,12504
25116,12496
25128,12493
25160,12467
25171,12459
25180,12450
25211,12425
25218,12412
26111,11519
33888,11519
34781,12412
34788,12425
34819,12450
34828,12459
34839,12467
34871,12493
34883,12496
34894,12504
34935,12512
34974,12523
34987,12522
34999,12524
35040,12516
35081,12512
35092,12506
35105,12504
35139,12481
35151,12474
35161,12466
35194,12444
35202,12432
37414,10599
38480,10599
38502,10625
38566,10702
38655,10748
38754,10756
38848,10726
39042,10564
39049,10476
38834,10220
38488,10511
38480,10599
37414,10599
37861,10229
38219,10229
38249,10324
38313,10400
38336,10427
38424,10434
38755,10156
38911,10156
39126,10412
39214,10420
39407,10258
39453,10169
39462,10070
39432,9975
39368,9899
39346,9873
39258,9865
38911,10156
38755,10156
38770,10143
38555,9887
38467,9880
38274,10042
38228,10130
38219,10229
37861,10229
38351,9823
38632,9823
38847,10079
39193,9788
39201,9700
39179,9674
39115,9598
39027,9552
38928,9543
38833,9573
38640,9735
38632,9823
38351,9823
42986,5982
46200,5982
46200,6116
46238,6208
46309,6278
46401,6316
46653,6316
46715,6254
46715,5920
46815,5920
46815,6254
46878,6316
47130,6316
47222,6278
47292,6208
47330,6116
47330,5982
47268,5920
46815,5920
46715,5920
46263,5920
46200,5982
42986,5982
43420,5623
46200,5623
46200,5757
46263,5820
46715,5820
46715,5485
46815,5485
46815,5820
47268,5820
47330,5757
47330,5623
47292,5531
47222,5461
47130,5423
46878,5423
46815,5485
46715,5485
46653,5423
46401,5423
46309,5461
46238,5531
46200,5623
43420,5623
43847,5269
49870,5269
54730,11344
54730,21155
49870,27230
43847,27230
39878,23941
40140,23941
40148,24029
40341,24191
40436,24221
40535,24213
40623,24167
40687,24091
40709,24064
40701,23976
40355,23685
40140,23941
39878,23941
39388,23535
39727,23535
39736,23634
39782,23723
39975,23885
40063,23877
40278,23621
40263,23609
40419,23609
40766,23899
40854,23892
40876,23865
40940,23789
40970,23694
40961,23595
40915,23507
40722,23345
40634,23352
40419,23609
40263,23609
39932,23330
39843,23338
39821,23364
39757,23440
39727,23535
39388,23535
38941,23165
39988,23165
39996,23253
40342,23544
40557,23288
40550,23200
40356,23038
40262,23008
40163,23017
40074,23063
40010,23139
39988,23165
38941,23165
37921,22320
38219,22320
38247,22415
38309,22493
38792,22898
38879,22946
38978,22957
39073,22929
39151,22866
39357,22620
40537,22620
40564,22716
40627,22793
41109,23198
41196,23246
41270,23254
44868,26852
44887,26881
44916,26900
44916,26900
44952,26924
45002,26958
45104,26978
45104,26978
45138,26985
45173,26978
46251,26978
46270,27007
46353,27062
46450,27081
47080,27081
47178,27062
47260,27007
47316,26924
47335,26826
47335,26742
48169,26742
48169,26876
48207,26968
48277,27038
48369,27076
48621,27076
48684,27014
48684,26679
48784,26679
48784,27014
48846,27076
49098,27076
49190,27038
49261,26968
49299,26876
49299,26742
49236,26679
48784,26679
48684,26679
48231,26679
48169,26742
47335,26742
47335,26433
47325,26383
48169,26383
48169,26517
48231,26579
48684,26579
48684,26245
48784,26245
48784,26579
49236,26579
49299,26517
49299,26383
49261,26291
49190,26221
49098,26183
48846,26183
48784,26245
48684,26245
48621,26183
48369,26183
48277,26221
48207,26291
48169,26383
47325,26383
47316,26335
47260,26252
47178,26197
47080,26178
46450,26178
46353,26197
46270,26252
46251,26281
45283,26281
41770,22769
41780,22679
41752,22584
41690,22506
41207,22101
41120,22053
41021,22042
40926,22070
40848,22133
40595,22434
40547,22521
40537,22620
39357,22620
39404,22565
39452,22478
39462,22379
39435,22283
39372,22206
38890,21801
38803,21753
38704,21742
38608,21770
38531,21832
38278,22134
38230,22221
38219,22320
37921,22320
35202,20067
35194,20055
35161,20033
35151,20025
35139,20018
35105,19995
35092,19993
35081,19987
35040,19983
34999,19975
34987,19977
34974,19976
34935,19987
34894,19995
34883,20003
34871,20006
34839,20032
34828,20040
34819,20049
34788,20074
34781,20087
33888,20979
33888,20905
33869,20807
33814,20725
33731,20670
33633,20650
33240,20650
33142,20670
33059,20725
33004,20807
32985,20905
32985,20980
32844,20980
32952,20871
33017,20714
33017,20544
32993,20487
33023,20487
33030,20485
33059,20530
33142,20585
33240,20605
33633,20605
33731,20585
33814,20530
33869,20447
33888,20350
33888,20035
33869,19937
33814,19855
33731,19799
33633,19780
33278,19780
33278,19641
33270,19600
35455,19600
37462,21607
37482,21637
37598,21714
37700,21734
37734,21741
37769,21734
39365,21734
39601,21933
39689,21981
39787,21991
39883,21964
39960,21901
40102,21733
42636,21733
46195,25292
46195,25566
46215,25664
46270,25747
46353,25802
46450,25821
47080,25821
47178,25802
47260,25747
47316,25664
47335,25566
47335,25295
51546,21084
52425,21084
52437,21146
52492,21229
52575,21284
52673,21304
53066,21304
53067,21304
49349,25021
49248,25021
49229,24992
49146,24937
49049,24918
48419,24918
48321,24937
48239,24992
48183,25075
48164,25173
48164,25566
48183,25664
48239,25747
48321,25802
48419,25821
49049,25821
49146,25802
49229,25747
49248,25718
49459,25718
49494,25725
49528,25718
49528,25718
49630,25698
49745,25621
49764,25592
54052,21304
54326,21304
54424,21284
54507,21229
54562,21146
54581,21049
54581,20419
54562,20321
54507,20239
54424,20183
54326,20164
53933,20164
53835,20183
53752,20239
53697,20321
53678,20419
53678,20693
53321,21049
53321,21049
53321,20419
53302,20321
53247,20239
53164,20183
53066,20164
52795,20164
52600,19969
52600,19965
52598,19957
52598,19320
52673,19335
53066,19335
53164,19316
53247,19260
53302,19178
53321,19080
53321,18878
53683,18878
53683,19130
53721,19222
53791,19292
53883,19330
54017,19330
54079,19268
54079,18815
54179,18815
54179,19268
54242,19330
54376,19330
54468,19292
54538,19222
54576,19130
54576,18878
54514,18815
54179,18815
54079,18815
53745,18815
53683,18878
53321,18878
53321,18806
53683,18445
53683,18653
53745,18715
54079,18715
54079,18263
54179,18263
54179,18715
54514,18715
54576,18653
54576,18401
54538,18309
54468,18238
54376,18200
54242,18200
54179,18263
54079,18263
54017,18200
53927,18200
54352,17776
54381,17757
54410,17712
54458,17641
54458,17641
54478,17540
54478,17540
54485,17505
54478,17471
54478,14248
54507,14229
54562,14146
54581,14049
54581,13419
54562,13321
54507,13239
54424,13183
54326,13164
53933,13164
53835,13183
53752,13239
53697,13321
53678,13419
53678,14049
53678,14049
53321,13693
53321,13419
53302,13321
53247,13239
53218,13219
53218,13154
53225,13120
53218,13085
53218,13085
53198,12984
53157,12923
53140,12897
53140,12897
53121,12868
53092,12849
52525,12282
52575,12316
52673,12335
53066,12335
53164,12316
53247,12260
53302,12178
53321,12080
53321,11878
53683,11878
53683,12130
53721,12222
53791,12292
53883,12330
54017,12330
54079,12268
54079,11815
54179,11815
54179,12268
54242,12330
54376,12330
54468,12292
54538,12222
54576,12130
54576,11878
54514,11815
54179,11815
54079,11815
53745,11815
53683,11878
53321,11878
53321,11450
53311,11401
53683,11401
53683,11653
53745,11715
54079,11715
54079,11263
54179,11263
54179,11715
54514,11715
54576,11653
54576,11401
54538,11309
54468,11238
54376,11200
54242,11200
54179,11263
54079,11263
54017,11200
53883,11200
53791,11238
53721,11309
53683,11401
53311,11401
53302,11353
53247,11270
53218,11251
53218,10654
53225,10620
53218,10585
53218,10585
53198,10484
53150,10412
53140,10397
53140,10397
53121,10368
53092,10349
49848,7105
49848,6670
49855,6635
49848,6601
49848,6601
49828,6499
49751,6384
49722,6365
49304,5947
49304,5673
49284,5575
49229,5492
49146,5437
49049,5418
48419,5418
48321,5437
48239,5492
48183,5575
48164,5673
48164,6066
48183,6164
48239,6247
48321,6302
48419,6321
48693,6321
49049,6678
49049,6678
48419,6678
48321,6697
48239,6752
48219,6781
48154,6781
48120,6774
48085,6781
48085,6781
47984,6801
47897,6859
47897,6859
47868,6878
47849,6907
47282,7474
47316,7424
47335,7326
47335,6933
47316,6835
47260,6752
47178,6697
47080,6678
46450,6678
46353,6697
46270,6752
46215,6835
46195,6933
46195,7061
45027,8229
45027,8229
44720,8536
40800,8536
40659,8367
40581,8305
40486,8277
40387,8288
40299,8336
39817,8741
39755,8818
39727,8914
39738,9013
39786,9100
40039,9401
40116,9464
40212,9491
40310,9481
40398,9433
40636,9233
44830,9233
44865,9240
44899,9233
44899,9233
45001,9212
45116,9135
45135,9106
45520,8722
45520,8722
46661,7581
47080,7581
47178,7562
47228,7528
45527,9229
45527,9229
45255,9501
41610,9501
41468,9332
41391,9270
41295,9242
41196,9253
41109,9301
40627,9706
40564,9783
40537,9879
40547,9978
40595,10065
40800,10308
40800,10505
40267,11037
40261,10986
40213,10899
39960,10598
39883,10535
39787,10508
39689,10518
39601,10566
39119,10971
39057,11049
39029,11144
39040,11243
39087,11330
39241,11513
35055,15700
31644,15700
31547,15602
31554,15566
31554,15173
31534,15075
31479,14992
31396,14937
31299,14918
30669,14918
30571,14937
30489,14992
30433,15075
30414,15173
30414,15566
30433,15664
30489,15747
30571,15802
30669,15821
30776,15821
31133,16178
30669,16178
30571,16197
30489,16252
30433,16335
30414,16433
30414,16592
30105,16901
29570,16901
29585,16826
29585,16433
29566,16335
29510,16252
29428,16197
29330,16178
28700,16178
28603,16197
28520,16252
28501,16281
27783,16281
26984,15482
28450,15482
28450,15616
28488,15708
28559,15778
28651,15816
28903,15816
28965,15754
28965,15420
29065,15420
29065,15754
29128,15816
29380,15816
29472,15778
29542,15708
29580,15616
29580,15482
29518,15420
29065,15420
28965,15420
28513,15420
28450,15482
26984,15482
26625,15123
28450,15123
28450,15257
28513,15320
28965,15320
28965,14985
29065,14985
29065,15320
29518,15320
29580,15257
29580,15123
29542,15031
29472,14961
29380,14923
29128,14923
29065,14985
28965,14985
28903,14923
28651,14923
28559,14961
28488,15031
28450,15123
26625,15123
21770,10269
21780,10179
21752,10084
21690,10006
21207,9601
21120,9553
21021,9542
20926,9570
20848,9633
20595,9934
20547,10021
20537,10120
20564,10216
20627,10293
21109,10698
21196,10746
21270,10754
27368,16852
27387,16881
27416,16900
27416,16900
27418,16901
26628,16901
21714,11988
21713,11979
21630,11855
21594,11831
21591,11827
20964,11200
20970,11144
20942,11049
20880,10971
20398,10566
20310,10518
20212,10508
20116,10535
20039,10598
19897,10766
19509,10766
19128,10385
19151,10366
19404,10065
19452,9978
19462,9879
19435,9783
19372,9706
19189,9552
19189,9211
19442,9211
19449,9299
19643,9461
19737,9491
19836,9482
19925,9436
19989,9360
20011,9334
20003,9246
19657,8955
19442,9211
19189,9211
19189,9080
19277,9154
19365,9147
19580,8890
19565,8878
19721,8878
20067,9169
20156,9161
20178,9135
20242,9059
20272,8964
20263,8865
20217,8776
20024,8614
19936,8622
19721,8878
19565,8878
19233,8600
19145,8607
19123,8634
19122,8635
19111,8619
19111,8619
19092,8589
19063,8570
18928,8435
19290,8435
19298,8523
19644,8814
19859,8558
19851,8470
19658,8308
19563,8278
19464,8286
19376,8332
19312,8408
19290,8435
18928,8435
16140,5647
16121,5618
16006,5541
15904,5521
15904,5521
15870,5514
15835,5521
13748,5521
13729,5492
13646,5437
13549,5418
12919,5418
12821,5437
12739,5492
12683,5575
12664,5673
12664,6066
12683,6164
12739,6247
12821,6302
12919,6321
13549,6321
13646,6302
13729,6247
13748,6218
15725,6218
18492,8985
18492,9378
18323,9580
16395,7652
16395,7652
15650,6907
15631,6878
15515,6801
15414,6781
15414,6781
15379,6774
15345,6781
13748,6781
13729,6752
13646,6697
13549,6678
12919,6678
12821,6697
12739,6752
12683,6835
12664,6933
12664,7092
12105,7651
10929,7651
10895,7644
10861,7651
10861,7651
10759,7671
10673,7729
10673,7729
10644,7748
10625,7777
7207,11195
6933,11195
6835,11215
6752,11270
6697,11353
6678,11450
6678,12080
6697,12178
6752,12260
6835,12316
6933,12335
7105,12335
7225,12455
7225,13164
6933,13164
6835,13183
6752,13239
6697,13321
6678,13419
6678,14049
6697,14146
6752,14229
6781,14248
6781,17361
5947,18195
5673,18195
5575,18215
5492,18270
5437,18353
5418,18450
5418,19080
5437,19178
5492,19260
5575,19316
5673,19335
6066,19335
6164,19316
6247,19260
6302,19178
6321,19080
6321,18806
6678,18450
6678,18450
6678,19080
6697,19178
6752,19260
6754,19262
6754,19592
6747,19629
6776,19776
6776,19776
6859,19900
6890,19921
7134,20164
6933,20164
6835,20183
6752,20239
6697,20321
6678,20419
6678,21049
6697,21146
6752,21229
6781,21248
6781,22459
6774,22494
6801,22630
6859,22716
6859,22716
6878,22745
6907,22764
10695,26552
10695,26826
10715,26924
10770,27007
10853,27062
10950,27081
11580,27081
11678,27062
11760,27007
11816,26924
11835,26826
11835,26742
12669,26742
12669,26876
12707,26968
12777,27038
12869,27076
13121,27076
13184,27014
13184,26679
13284,26679
13284,27014
13346,27076
13598,27076
13690,27038
13761,26968
13799,26876
13799,26742
13736,26679
13284,26679
13184,26679
12731,26679
12669,26742
11835,26742
11835,26433
11825,26383
12669,26383
12669,26517
12731,26579
13184,26579
13184,26245
13284,26245
13284,26579
13736,26579
13799,26517
13799,26383
13761,26291
13690,26221
13598,26183
13346,26183
13284,26245
13184,26245
13121,26183
12869,26183
12777,26221
12707,26291
12669,26383
11825,26383
11816,26335
11760,26252
11678,26197
11580,26178
11306,26178
10950,25821
10950,25821
11580,25821
11678,25802
11760,25747
11816,25664
11835,25566
11835,25407
12069,25173
12664,25173
12664,25566
12683,25664
12739,25747
12821,25802
12919,25821
13549,25821
13646,25802
13729,25747
13748,25718
17095,25718
17129,25725
17164,25718
17164,25718
17265,25698
17381,25621
17400,25592
19029,23963
19199,23963
19340,24132
19418,24194
19513,24222
19612,24211
19700,24163
20182,23758
20244,23681
20272,23585
20261,23486
20213,23399
19960,23098
19883,23035
19787,23008
19689,23018
19601,23066
19363,23266
18919,23266
18884,23259
18850,23266
18850,23266
18748,23287
18662,23344
18662,23344
18633,23364
18614,23393
16985,25021
13748,25021
13729,24992
13646,24937
13549,24918
12919,24918
12821,24937
12739,24992
12683,25075
12664,25173
12069,25173
12644,24598
17206,24598
17241,24605
17275,24598
17275,24598
17377,24578
17492,24501
17511,24472
18729,23254
18803,23246
18890,23198
19366,22799
20798,22799
20820,22825
20884,22901
20972,22947
21071,22956
21166,22926
21359,22764
21367,22676
21152,22420
20806,22711
20798,22799
19366,22799
19372,22793
19435,22716
19462,22620
19452,22521
19404,22434
19399,22429
20537,22429
20567,22524
20631,22600
20653,22626
20741,22634
21073,22356
21229,22356
21444,22612
21532,22619
21725,22457
21771,22369
21780,22270
21750,22175
21686,22099
21663,22072
21575,22065
21229,22356
21073,22356
21088,22343
20873,22087
20785,22079
20592,22241
20546,22330
20537,22429
19399,22429
19151,22133
19073,22070
18978,22042
18879,22053
18792,22101
18309,22506
18247,22584
18219,22679
18229,22769
17096,23901
12534,23901
12500,23894
12465,23901
12465,23901
12364,23921
12277,23979
12277,23979
12248,23998
12229,24027
11341,24915
8449,22023
20950,22023
21165,22279
21511,21988
21519,21900
21497,21874
21433,21797
21344,21751
21245,21743
21151,21773
20957,21935
20950,22023
8449,22023
8025,21599
8025,20586
8046,20696
8069,20729
8129,20820
8160,20841
8858,21539
8879,21570
8910,21591
8910,21591
9003,21653
9150,21682
9186,21675
15363,21675
15400,21682
15436,21675
15546,21653
15670,21570
15691,21539
15991,21239
16010,21209
16012,21208
16012,21206
16053,21146
16067,21074
16068,21073
16068,21071
16082,21000
16068,20928
16068,20926
16067,20925
16053,20853
16012,20793
16012,20791
16010,20790
15970,20729
15909,20689
15908,20687
15906,20687
15846,20646
15774,20632
15773,20631
15771,20631
15700,20617
15628,20631
15626,20631
15625,20632
15553,20646
15493,20687
15491,20687
15490,20689
15466,20704
15466,20637
15563,20540
15595,20519
15678,20395
15681,20378
15707,20249
15699,20212
15699,19962
15718,19950
15798,20003
15895,20022
16328,20022
16426,20003
16505,19950
16585,20003
16683,20022
17116,20022
17213,20003
17293,19950
17338,19980
17338,20652
17331,20687
17338,20721
17338,20721
17358,20822
17435,20938
17464,20957
18114,21606
18133,21635
18162,21655
18162,21655
18164,21656
18248,21712
18350,21733
18350,21733
18384,21740
18419,21733
19897,21733
20039,21901
20116,21964
20212,21991
20310,21981
20398,21933
20880,21528
20942,21450
20970,21355
20959,21256
20912,21169
20659,20867
20581,20805
20486,20777
20387,20788
20299,20836
20061,21036
18529,21036
18035,20542
18035,19980
18080,19950
18160,20003
18257,20022
18690,20022
18788,20003
18868,19950
18947,20003
19045,20022
19478,20022
19575,20003
19658,19947
19713,19865
19733,19767
19733,19375
21567,19375
21604,19382
21641,19375
21751,19353
21875,19270
21896,19239
22334,18800
22403,18800
22500,18781
22583,18726
22599,18702
22655,18758
22747,18796
22881,18796
22943,18733
22943,18350
23043,18350
23043,18733
23106,18796
23240,18796
23332,18758
23402,18687
23440,18595
23440,18412
23378,18350
23043,18350
22943,18350
22935,18350
22935,18250
22943,18250
22943,17866
23043,17866
23043,18250
23378,18250
23440,18187
23440,18004
23402,17912
23332,17841
23240,17803
23106,17803
23043,17866
22943,17866
22881,17803
22747,17803
22655,17841
22599,17897
22583,17873
22507,17823
22008,17323
22008,16910
21989,16812
21949,16753
21965,16736
22003,16645
22003,16412
23196,16412
23196,17097
23234,17189
23304,17259
23396,17298
23727,17298
23790,17235
23790,16350
23890,16350
23890,17235
23952,17298
24283,17298
24375,17259
24445,17189
24483,17097
24483,16412
24421,16350
23890,16350
23790,16350
23258,16350
23196,16412
22003,16412
21941,16350
21409,16350
21409,16357
21309,16357
21309,16350
20778,16350
20716,16412
20716,16645
20754,16736
20770,16753
20730,16812
20711,16910
20711,17500
20730,17598
20785,17681
20868,17736
20966,17755
21379,17755
21754,18130
21754,18319
21449,18625
20585,18625
20603,18613
20658,18530
20678,18433
20678,18000
20658,17902
20605,17822
20658,17743
20678,17645
20678,17212
20658,17115
20605,17035
20658,16955
20678,16858
20678,16425
20658,16327
20605,16248
20658,16168
20678,16070
20678,15637
20658,15540
20605,15460
20658,15381
20678,15283
20678,14850
20658,14752
20605,14673
20658,14593
20678,14496
20678,14062
20658,13965
20603,13882
20520,13827
20423,13808
19706,13808
19728,13754
19728,13325
19665,13262
19311,13262
19311,13270
19211,13270
19211,13262
19203,13262
19203,13162
19211,13162
19211,12532
19311,12532
19311,13162
19665,13162
19728,13100
19728,12670
19690,12578
19619,12508
19528,12470
19374,12470
19311,12532
19211,12532
19149,12470
18995,12470
18903,12508
18871,12540
18871,12540
18849,12525
18849,12252
18851,12242
18874,12297
18944,12367
19036,12405
19111,12405
19174,12343
19174,11950
19274,11950
19274,12343
19336,12405
19411,12405
19503,12367
19573,12297
19611,12205
19611,12012
19549,11950
19274,11950
19174,11950
19166,11950
19166,11850
19174,11850
19174,11842
19274,11842
19274,11850
19549,11850
19611,11787
19611,11594
19573,11502
19534,11463
20061,11463
20299,11663
20387,11711
20418,11714
20984,12281
20984,14844
20966,14844
20868,14863
20785,14918
20730,15001
20711,15099
20711,15689
20730,15787
20770,15846
20754,15863
20716,15954
20716,16187
20778,16250
21309,16250
21309,16242
21409,16242
21409,16250
21941,16250
22003,16187
22003,15954
21965,15863
21949,15846
21989,15787
22008,15689
22008,15502
23196,15502
23196,16187
23258,16250
23790,16250
23790,15364
23727,15301
23396,15301
23304,15340
23234,15410
23196,15502
22008,15502
22008,15099
21989,15001
21933,14918
21851,14863
21753,14844
21734,14844
21734,12993
24043,15301
23952,15301
23890,15364
23890,16250
24421,16250
24483,16187
24483,15742
26213,17472
26232,17501
26261,17520
26261,17520
26325,17563
26347,17578
26449,17598
26449,17598
26483,17605
26518,17598
27571,17598
27465,17703
27434,17724
27381,17803
27351,17848
27338,17913
27311,17918
27229,17973
27173,18056
27154,18153
27154,18646
27173,18743
27188,18764
27188,19095
27117,19081
26913,19081
26786,19106
26641,19203
26545,19347
26511,19518
26545,19689
26641,19833
26786,19930
26913,19955
27117,19955
27210,19937
27229,19964
27311,20019
27409,20039
27566,20039
27616,20029
27665,20039
27822,20039
27872,20029
27921,20039
28078,20039
28127,20029
28177,20039
28334,20039
28375,20031
28383,20034
28409,20034
28422,20021
28432,20019
28514,19964
28551,19910
28551,19971
28613,20034
28640,20034
28732,19996
28790,19937
28882,19955
29086,19955
29213,19930
29358,19833
29454,19689
29488,19518
29454,19347
29358,19203
29213,19106
29086,19081
28882,19081
28790,19099
28732,19040
28640,19002
28613,19002
28551,19065
28551,19126
28514,19072
28432,19017
28422,19015
28409,19002
28383,19002
28375,19005
28334,18997
28177,18997
28127,19007
28078,18997
27921,18997
27872,19007
27822,18997
27788,18997
27788,18900
27803,18900
27900,18881
27983,18826
27999,18802
28055,18858
28147,18896
28281,18896
28343,18833
28343,18450
28443,18450
28443,18833
28506,18896
28640,18896
28732,18858
28802,18787
28840,18695
28840,18512
28778,18450
28443,18450
28343,18450
28335,18450
28335,18350
28343,18350
28343,18342
28443,18342
28443,18350
28778,18350
28840,18287
28840,18104
28828,18075
30788,18075
30756,18151
30756,18298
30764,18315
30764,19270
30764,19270
30764,19509
30740,19544
30721,19641
30721,19780
30366,19780
30268,19799
30185,19855
30130,19937
30111,20035
30111,20350
30130,20447
30185,20530
30268,20585
30366,20605
30759,20605
30857,20585
30940,20530
30969,20485
30976,20487
31006,20487
30982,20544
30982,20714
31047,20871
31155,20980
31014,20980
31014,20905
30995,20807
30940,20725
30857,20670
30759,20650
30366,20650
30268,20670
30185,20725
30130,20807
30111,20905
30111,20980
29721,20980
29798,20864
29824,20733
29824,20429
29798,20298
29700,20151
29552,20052
29377,20017
29203,20052
29055,20151
28957,20298
28931,20429
28931,20733
28957,20864
29034,20980
26965,20980
27042,20864
27068,20733
27068,20429
27042,20298
26944,20151
26796,20052
26622,20017
26447,20052
26299,20151
26201,20298
26175,20429
26175,20733
26201,20864
26278,20980
26111,20980
25218,20087
25211,20074
25180,20049
25171,20040
25160,20032
25128,20006
25116,20003
25105,19995
25064,19987
25025,19976
25012,19977
25000,19975
24959,19983
24918,19987
24907,19993
24894,19995
24860,20018
24848,20025
24838,20033
24805,20055
24797,20067
16152,27230
10129,27230
5269,21155
5269,20846
5423,20846
5423,21098
5461,21190
5531,21261
5623,21299
5757,21299
5820,21236
5820,20784
5920,20784
5920,21236
5982,21299
6116,21299
6208,21261
6278,21190
6316,21098
6316,20846
6254,20784
5920,20784
5820,20784
5485,20784
5423,20846
5269,20846
5269,20369
5423,20369
5423,20621
5485,20684
5820,20684
5820,20231
5920,20231
5920,20684
6254,20684
6316,20621
6316,20369
6278,20277
6208,20207
6116,20169
5982,20169
5920,20231
5820,20231
5757,20169
5623,20169
5531,20207
5461,20277
5423,20369
5269,20369
5269,13846
5423,13846
5423,14098
5461,14190
5531,14261
5623,14299
5757,14299
5820,14236
5820,13784
5920,13784
5920,14236
5982,14299
6116,14299
6208,14261
6278,14190
6316,14098
6316,13846
6254,13784
5920,13784
5820,13784
5485,13784
5423,13846
5269,13846
5269,13369
5423,13369
5423,13621
5485,13684
5820,13684
5820,13231
5920,13231
5920,13684
6254,13684
6316,13621
6316,13369
6278,13277
6208,13207
6116,13169
5982,13169
5920,13231
5820,13231
5757,13169
5623,13169
5531,13207
5461,13277
5423,13369
5269,13369
5269,11450
5418,11450
5418,12080
5437,12178
5492,12260
5575,12316
5673,12335
6066,12335
6164,12316
6247,12260
6302,12178
6321,12080
6321,11670
10514,7478
10751,7478
10770,7507
10853,7562
10950,7581
11580,7581
11678,7562
11760,7507
11816,7424
11835,7326
11835,6933
11816,6835
11760,6752
11678,6697
11580,6678
10950,6678
10853,6697
10770,6752
10751,6781
10404,6781
10370,6774
10335,6781
10335,6781
10234,6801
10147,6859
10147,6859
10118,6878
10099,6907
5811,11195
5673,11195
5575,11215
5492,11270
5437,11353
5418,11450
5269,11450
5269,11344
9559,5982
10700,5982
10700,6116
10738,6208
10809,6278
10901,6316
11153,6316
11215,6254
11215,5920
11315,5920
11315,6254
11378,6316
11630,6316
11722,6278
11792,6208
11830,6116
11830,5982
11768,5920
11315,5920
11215,5920
10763,5920
10700,5982
9559,5982
9846,5623
10700,5623
10700,5757
10763,5820
11215,5820
11215,5485
11315,5485
11315,5820
11768,5820
11830,5757
11830,5623
11792,5531
11722,5461
11630,5423
11378,5423
11315,5485
11215,5485
11153,5423
10901,5423
10809,5461
10738,5531
10700,5623
9846,5623
10129,5269
16152,5269
24797,12432
" /> 
<polyline style="fill-rule:evenodd;"
points="48239,7507
48321,7562
48385,7575
48385,8949
48379,8984
48385,9018
48385,9018
48406,9120
48483,9235
48512,9254
52494,13237
52492,13239
52437,13321
52418,13419
52418,14049
52437,14146
52492,14229
52575,14284
52673,14304
52947,14304
53151,14508
53151,16855
52027,17979
51998,17998
51979,18027
51979,18027
51921,18114
51894,18250
51901,18284
51901,19957
51900,19965
51900,20079
51893,20114
51900,20148
51900,20148
51920,20250
51997,20366
52024,20384
51436,20384
51401,20377
51367,20384
51367,20384
51265,20404
51149,20481
51129,20511
46764,24876
43051,21162
43031,21133
42916,21056
42814,21036
42814,21036
42780,21029
42746,21036
39938,21036
39700,20836
39612,20788
39513,20777
39418,20805
39340,20867
39200,21034
37879,21034
35871,19026
35852,18997
35736,18920
35634,18900
35634,18900
35600,18893
35565,18900
32584,18900
32549,18893
32515,18900
32413,18920
32297,18997
32278,19026
32072,19232
32042,19252
32023,19281
32023,19281
31965,19368
31938,19504
31940,19516
31921,19544
31902,19641
31902,20232
31921,20329
31977,20412
32059,20467
32157,20487
32187,20487
32163,20544
32163,20714
32228,20871
32336,20980
31663,20980
31771,20871
31836,20714
31836,20544
31771,20387
31651,20267
31506,20207
31506,19641
31487,19544
31464,19509
31464,18368
31493,18298
31493,18151
31450,18050
35115,18050
35150,18056
35184,18050
35184,18050
35286,18029
35402,17952
35421,17923
37143,16200
42140,16200
42160,16214
42213,16225
42160,16235
42078,16290
42022,16373
42003,16471
42003,16726
42022,16824
42078,16907
42160,16962
42175,16965
42175,17436
42152,17471
42133,17569
42133,18080
42152,18178
42207,18261
42290,18316
42388,18335
42663,18335
42761,18316
42844,18261
42899,18178
42901,18167
42924,18222
42994,18292
43086,18330
43161,18330
43224,18268
43224,17875
43324,17875
43324,18268
43386,18330
43461,18330
43553,18292
43623,18222
43661,18130
43661,17937
43599,17875
43324,17875
43224,17875
43216,17875
43216,17775
43224,17775
43224,17381
43324,17381
43324,17775
43599,17775
43661,17712
43661,17519
43648,17487
46130,17487
46130,17660
46168,17752
46239,17823
46330,17861
46504,17861
46566,17798
46566,17425
46193,17425
46130,17487
43648,17487
43623,17427
43553,17357
43461,17319
43386,17319
43324,17381
43224,17381
43161,17319
43086,17319
42994,17357
42924,17427
42901,17482
42899,17471
42875,17436
42875,17081
44453,17081
44453,17215
44491,17307
44562,17377
44654,17415
44837,17415
44900,17353
44900,17018
45000,17018
45000,17353
45062,17415
45245,17415
45337,17377
45408,17307
45446,17215
45446,17081
45383,17018
45000,17018
44900,17018
44516,17018
44453,17081
42875,17081
42875,16877
42900,16841
42944,16907
43026,16962
43124,16981
43541,16981
43639,16962
43659,16949
43980,16949
44026,16968
44173,16968
44308,16912
44412,16808
44468,16673
44468,16526
44412,16391
44308,16287
44173,16231
44026,16231
43985,16249
43659,16249
43639,16235
43586,16225
43639,16214
43698,16175
43729,16175
43791,16112
43791,16047
43785,16033
43796,15978
43796,15948
43944,15800
44380,15800
44468,15888
44449,15984
44449,16378
44468,16475
44523,16558
44547,16574
44491,16630
44453,16722
44453,16856
44516,16918
44900,16918
44900,16910
45000,16910
45000,16918
45383,16918
45446,16856
45446,16722
45408,16630
45352,16574
45376,16558
45394,16531
45559,16531
45593,16538
45628,16531
45628,16531
45631,16530
45631,16673
45687,16808
45791,16912
45878,16948
45888,16954
45899,16956
45926,16968
45955,16968
46025,16981
46059,16975
46190,16975
46168,16997
46130,17089
46130,17262
46193,17325
46566,17325
46566,17317
46666,17317
46666,17325
46674,17325
46674,17425
46666,17425
46666,17798
46729,17861
46902,17861
46994,17823
47050,17767
47066,17791
47149,17846
47246,17866
47719,17866
47816,17846
47899,17791
47954,17708
47974,17611
47974,17138
47954,17041
47899,16958
47833,16914
47833,16718
47839,16684
47833,16649
47816,16567
47816,16369
47797,16271
47782,16250
47797,16228
47816,16130
47816,15619
47812,15597
47816,15596
47899,15541
47954,15458
47974,15361
47974,14888
47954,14791
47899,14708
47816,14653
47719,14633
47246,14633
47149,14653
47066,14708
47050,14733
47033,14708
46950,14653
46853,14633
46611,14633
46553,14595
46451,14575
46451,14575
46416,14568
46382,14575
42934,14575
42900,14568
42865,14575
42865,14575
42763,14595
42647,14672
42628,14701
42243,15086
42214,15105
42195,15134
42195,15134
42137,15221
42110,15358
42116,15392
42116,15500
37033,15500
36999,15494
36964,15500
36964,15500
36862,15521
36746,15598
36727,15627
35005,17350
30951,17350
30946,17346
30836,17325
30667,17325
30911,17081
31299,17081
31396,17062
31479,17007
31497,16979
35135,16979
35170,16986
35204,16979
35204,16979
35306,16959
35422,16882
35441,16853
40246,12048
40246,12048
41373,10921
41402,10902
41479,10786
41500,10684
41500,10684
41506,10650
41500,10615
41500,10198
45365,10198
45400,10205
45434,10198
45434,10198
45536,10178
45651,10101
45670,10071
46020,9722
46020,9722
48237,7505
48239,7507
" /> 
<polyline style="fill-rule:evenodd;"
points="7997,16252
8026,16271
8228,16473
8247,16502
8276,16521
8363,16579
8500,16606
8525,16601
8668,16745
8687,16753
8659,16838
9000,17179
9005,17173
9076,17244
9070,17250
9076,17255
9005,17326
9000,17320
8659,17661
8687,17746
8668,17754
8504,17918
8498,17933
8470,17952
8429,17979
8408,18010
8160,18258
8129,18279
8048,18401
8046,18403
8017,18550
8025,18586
8025,20113
8022,20102
8003,20003
7920,19879
7889,19858
7504,19474
7504,19262
7507,19260
7562,19178
7581,19080
7581,18844
7839,18586
7870,18566
7953,18441
7965,18379
7982,18295
7975,18258
7975,17159
8410,17159
8421,17392
8490,17558
8588,17590
8929,17250
8588,16909
8490,16941
8410,17159
7975,17159
7975,16218
7997,16252
" /> 
</g> 
</svg>
