M48
;DRILL file {KiCad (5.0.1-3-g963ef8bb5)} date Friday, February 08, 2019 at 07:31:29 PM
;FORMAT={-:-/ absolute / inch / decimal}
FMAT,2
INCH,TZ
T1C0.0157
T2C0.0217
T3C0.0394
T4C0.0354
%
G90
G05
M72
T1
X1.57Y-2.1
X1.69Y-1.54
X2.04Y-1.285
X2.485Y-1.63
X2.815Y-1.535
X3.1125Y-1.8225
X4.41Y-1.5975
X4.41Y-1.66
X4.45Y-0.81
X4.565Y-1.7375
X4.585Y-1.5925
X4.6Y-1.66
T2
X2.7016Y-1.9519
X2.8984Y-1.9519
T3
X0.9Y-1.725
X2.6622Y-2.0581
X2.9378Y-2.0581
X0.9Y-1.525
X0.9Y-1.625
X0.9Y-1.825
X0.9Y-1.425
T4
X3.1409Y-2.063
X3.2591Y-2.063
T0
M30
