G04 #@! TF.GenerationSoftware,KiCad,Pcbnew,(5.0.2-5-10.14)*
G04 #@! TF.CreationDate,2019-03-11T19:31:18-04:00*
G04 #@! TF.ProjectId,glowtie,676c6f77-7469-4652-9e6b-696361645f70,rev?*
G04 #@! TF.SameCoordinates,Original*
G04 #@! TF.FileFunction,Copper,L1,Top*
G04 #@! TF.FilePolarity,Positive*
%FSLAX46Y46*%
G04 Gerber Fmt 4.6, Leading zero omitted, Abs format (unit mm)*
G04 Created by KiCad (PCBNEW (5.0.2-5-10.14)) date Monday, March 11, 2019 at 07:31:18 PM*
%MOMM*%
%LPD*%
G01*
G04 APERTURE LIST*
G04 #@! TA.AperFunction,SMDPad,CuDef*
%ADD10C,1.000000*%
G04 #@! TD*
G04 #@! TA.AperFunction,Conductor*
%ADD11C,0.100000*%
G04 #@! TD*
G04 #@! TA.AperFunction,SMDPad,CuDef*
%ADD12R,1.600000X1.000000*%
G04 #@! TD*
G04 #@! TA.AperFunction,SMDPad,CuDef*
%ADD13R,1.000000X1.600000*%
G04 #@! TD*
G04 #@! TA.AperFunction,SMDPad,CuDef*
%ADD14R,0.700000X1.500000*%
G04 #@! TD*
G04 #@! TA.AperFunction,SMDPad,CuDef*
%ADD15R,1.000000X0.800000*%
G04 #@! TD*
G04 #@! TA.AperFunction,SMDPad,CuDef*
%ADD16R,2.000000X3.800000*%
G04 #@! TD*
G04 #@! TA.AperFunction,SMDPad,CuDef*
%ADD17R,2.000000X1.500000*%
G04 #@! TD*
G04 #@! TA.AperFunction,SMDPad,CuDef*
%ADD18R,1.100000X2.500000*%
G04 #@! TD*
G04 #@! TA.AperFunction,SMDPad,CuDef*
%ADD19R,2.500000X1.100000*%
G04 #@! TD*
G04 #@! TA.AperFunction,SMDPad,CuDef*
%ADD20R,1.060000X0.650000*%
G04 #@! TD*
G04 #@! TA.AperFunction,SMDPad,CuDef*
%ADD21R,1.000000X1.250000*%
G04 #@! TD*
G04 #@! TA.AperFunction,SMDPad,CuDef*
%ADD22R,1.250000X1.000000*%
G04 #@! TD*
G04 #@! TA.AperFunction,SMDPad,CuDef*
%ADD23R,1.200000X1.200000*%
G04 #@! TD*
G04 #@! TA.AperFunction,ComponentPad*
%ADD24O,1.000000X1.550000*%
G04 #@! TD*
G04 #@! TA.AperFunction,ComponentPad*
%ADD25O,1.250000X0.950000*%
G04 #@! TD*
G04 #@! TA.AperFunction,SMDPad,CuDef*
%ADD26R,0.400000X1.350000*%
G04 #@! TD*
G04 #@! TA.AperFunction,SMDPad,CuDef*
%ADD27R,0.700000X1.300000*%
G04 #@! TD*
G04 #@! TA.AperFunction,SMDPad,CuDef*
%ADD28R,1.300000X0.700000*%
G04 #@! TD*
G04 #@! TA.AperFunction,BGAPad,CuDef*
%ADD29C,1.500000*%
G04 #@! TD*
G04 #@! TA.AperFunction,ViaPad*
%ADD30C,0.600000*%
G04 #@! TD*
G04 #@! TA.AperFunction,Conductor*
%ADD31C,0.508000*%
G04 #@! TD*
G04 #@! TA.AperFunction,Conductor*
%ADD32C,0.254000*%
G04 #@! TD*
G04 #@! TA.AperFunction,Conductor*
%ADD33C,0.635000*%
G04 #@! TD*
G04 #@! TA.AperFunction,Conductor*
%ADD34C,0.500000*%
G04 #@! TD*
G04 #@! TA.AperFunction,Conductor*
%ADD35C,0.381000*%
G04 #@! TD*
G04 APERTURE END LIST*
D10*
G04 #@! TO.P,LED1,3*
G04 #@! TO.N,GND*
X53743571Y-56768702D03*
D11*
G04 #@! TD*
G04 #@! TO.N,GND*
G04 #@! TO.C,LED1*
G36*
X53452129Y-57665954D02*
X52809342Y-56899910D01*
X54035013Y-55871450D01*
X54677800Y-56637494D01*
X53452129Y-57665954D01*
X53452129Y-57665954D01*
G37*
D10*
G04 #@! TO.P,LED1,4*
G04 #@! TO.N,LED_SIG*
X51686651Y-54317360D03*
D11*
G04 #@! TD*
G04 #@! TO.N,LED_SIG*
G04 #@! TO.C,LED1*
G36*
X51395209Y-55214612D02*
X50752422Y-54448568D01*
X51978093Y-53420108D01*
X52620880Y-54186152D01*
X51395209Y-55214612D01*
X51395209Y-55214612D01*
G37*
D10*
G04 #@! TO.P,LED1,2*
G04 #@! TO.N,Net-(LED1-Pad2)*
X49913349Y-59982640D03*
D11*
G04 #@! TD*
G04 #@! TO.N,Net-(LED1-Pad2)*
G04 #@! TO.C,LED1*
G36*
X49621907Y-60879892D02*
X48979120Y-60113848D01*
X50204791Y-59085388D01*
X50847578Y-59851432D01*
X49621907Y-60879892D01*
X49621907Y-60879892D01*
G37*
D10*
G04 #@! TO.P,LED1,1*
G04 #@! TO.N,+BATT*
X47856429Y-57531298D03*
D11*
G04 #@! TD*
G04 #@! TO.N,+BATT*
G04 #@! TO.C,LED1*
G36*
X47564987Y-58428550D02*
X46922200Y-57662506D01*
X48147871Y-56634046D01*
X48790658Y-57400090D01*
X47564987Y-58428550D01*
X47564987Y-58428550D01*
G37*
D12*
G04 #@! TO.P,LED2,3*
G04 #@! TO.N,GND*
X33615000Y-67640000D03*
G04 #@! TO.P,LED2,4*
G04 #@! TO.N,Net-(LED1-Pad2)*
X33615000Y-64440000D03*
G04 #@! TO.P,LED2,2*
G04 #@! TO.N,Net-(LED2-Pad2)*
X28615000Y-67640000D03*
G04 #@! TO.P,LED2,1*
G04 #@! TO.N,+BATT*
X28615000Y-64440000D03*
G04 #@! TD*
D13*
G04 #@! TO.P,LED3,3*
G04 #@! TO.N,GND*
X14910000Y-52665000D03*
G04 #@! TO.P,LED3,4*
G04 #@! TO.N,Net-(LED2-Pad2)*
X18110000Y-52665000D03*
G04 #@! TO.P,LED3,2*
G04 #@! TO.N,Net-(LED3-Pad2)*
X14910000Y-47665000D03*
G04 #@! TO.P,LED3,1*
G04 #@! TO.N,+BATT*
X18110000Y-47665000D03*
G04 #@! TD*
G04 #@! TO.P,LED4,3*
G04 #@! TO.N,GND*
X14910000Y-34885000D03*
G04 #@! TO.P,LED4,4*
G04 #@! TO.N,Net-(LED3-Pad2)*
X18110000Y-34885000D03*
G04 #@! TO.P,LED4,2*
G04 #@! TO.N,Net-(LED4-Pad2)*
X14910000Y-29885000D03*
G04 #@! TO.P,LED4,1*
G04 #@! TO.N,+BATT*
X18110000Y-29885000D03*
G04 #@! TD*
D12*
G04 #@! TO.P,LED5,3*
G04 #@! TO.N,GND*
X28615000Y-14910000D03*
G04 #@! TO.P,LED5,4*
G04 #@! TO.N,Net-(LED4-Pad2)*
X28615000Y-18110000D03*
G04 #@! TO.P,LED5,2*
G04 #@! TO.N,Net-(LED5-Pad2)*
X33615000Y-14910000D03*
G04 #@! TO.P,LED5,1*
G04 #@! TO.N,+BATT*
X33615000Y-18110000D03*
G04 #@! TD*
D10*
G04 #@! TO.P,LED6,3*
G04 #@! TO.N,GND*
X49913349Y-22567360D03*
D11*
G04 #@! TD*
G04 #@! TO.N,GND*
G04 #@! TO.C,LED6*
G36*
X50847578Y-22698568D02*
X50204791Y-23464612D01*
X48979120Y-22436152D01*
X49621907Y-21670108D01*
X50847578Y-22698568D01*
X50847578Y-22698568D01*
G37*
D10*
G04 #@! TO.P,LED6,4*
G04 #@! TO.N,Net-(LED5-Pad2)*
X47856429Y-25018702D03*
D11*
G04 #@! TD*
G04 #@! TO.N,Net-(LED5-Pad2)*
G04 #@! TO.C,LED6*
G36*
X48790658Y-25149910D02*
X48147871Y-25915954D01*
X46922200Y-24887494D01*
X47564987Y-24121450D01*
X48790658Y-25149910D01*
X48790658Y-25149910D01*
G37*
D10*
G04 #@! TO.P,LED6,2*
G04 #@! TO.N,Net-(LED6-Pad2)*
X53743571Y-25781298D03*
D11*
G04 #@! TD*
G04 #@! TO.N,Net-(LED6-Pad2)*
G04 #@! TO.C,LED6*
G36*
X54677800Y-25912506D02*
X54035013Y-26678550D01*
X52809342Y-25650090D01*
X53452129Y-24884046D01*
X54677800Y-25912506D01*
X54677800Y-25912506D01*
G37*
D10*
G04 #@! TO.P,LED6,1*
G04 #@! TO.N,+BATT*
X51686651Y-28232640D03*
D11*
G04 #@! TD*
G04 #@! TO.N,+BATT*
G04 #@! TO.C,LED6*
G36*
X52620880Y-28363848D02*
X51978093Y-29129892D01*
X50752422Y-28101432D01*
X51395209Y-27335388D01*
X52620880Y-28363848D01*
X52620880Y-28363848D01*
G37*
D12*
G04 #@! TO.P,LED7,3*
G04 #@! TO.N,GND*
X73700000Y-39040000D03*
G04 #@! TO.P,LED7,4*
G04 #@! TO.N,Net-(LED6-Pad2)*
X73700000Y-42240000D03*
G04 #@! TO.P,LED7,2*
G04 #@! TO.N,Net-(LED7-Pad2)*
X78700000Y-39040000D03*
G04 #@! TO.P,LED7,1*
G04 #@! TO.N,+BATT*
X78700000Y-42240000D03*
G04 #@! TD*
D10*
G04 #@! TO.P,LED8,3*
G04 #@! TO.N,GND*
X98656429Y-25781298D03*
D11*
G04 #@! TD*
G04 #@! TO.N,GND*
G04 #@! TO.C,LED8*
G36*
X98947871Y-24884046D02*
X99590658Y-25650090D01*
X98364987Y-26678550D01*
X97722200Y-25912506D01*
X98947871Y-24884046D01*
X98947871Y-24884046D01*
G37*
D10*
G04 #@! TO.P,LED8,4*
G04 #@! TO.N,Net-(LED7-Pad2)*
X100713349Y-28232640D03*
D11*
G04 #@! TD*
G04 #@! TO.N,Net-(LED7-Pad2)*
G04 #@! TO.C,LED8*
G36*
X101004791Y-27335388D02*
X101647578Y-28101432D01*
X100421907Y-29129892D01*
X99779120Y-28363848D01*
X101004791Y-27335388D01*
X101004791Y-27335388D01*
G37*
D10*
G04 #@! TO.P,LED8,2*
G04 #@! TO.N,Net-(LED8-Pad2)*
X102486651Y-22567360D03*
D11*
G04 #@! TD*
G04 #@! TO.N,Net-(LED8-Pad2)*
G04 #@! TO.C,LED8*
G36*
X102778093Y-21670108D02*
X103420880Y-22436152D01*
X102195209Y-23464612D01*
X101552422Y-22698568D01*
X102778093Y-21670108D01*
X102778093Y-21670108D01*
G37*
D10*
G04 #@! TO.P,LED8,1*
G04 #@! TO.N,+BATT*
X104543571Y-25018702D03*
D11*
G04 #@! TD*
G04 #@! TO.N,+BATT*
G04 #@! TO.C,LED8*
G36*
X104835013Y-24121450D02*
X105477800Y-24887494D01*
X104252129Y-25915954D01*
X103609342Y-25149910D01*
X104835013Y-24121450D01*
X104835013Y-24121450D01*
G37*
D12*
G04 #@! TO.P,LED9,3*
G04 #@! TO.N,GND*
X118785000Y-14910000D03*
G04 #@! TO.P,LED9,4*
G04 #@! TO.N,Net-(LED8-Pad2)*
X118785000Y-18110000D03*
G04 #@! TO.P,LED9,2*
G04 #@! TO.N,Net-(LED10-Pad4)*
X123785000Y-14910000D03*
G04 #@! TO.P,LED9,1*
G04 #@! TO.N,+BATT*
X123785000Y-18110000D03*
G04 #@! TD*
D14*
G04 #@! TO.P,SW1,1*
G04 #@! TO.N,Net-(10uF2-Pad1)*
X79030000Y-50640000D03*
G04 #@! TO.P,SW1,2*
G04 #@! TO.N,+BATT*
X82030000Y-50640000D03*
G04 #@! TO.P,SW1,3*
G04 #@! TO.N,Net-(SW1-Pad3)*
X83530000Y-50640000D03*
D15*
G04 #@! TO.P,SW1,*
G04 #@! TO.N,*
X77630000Y-53500000D03*
X84930000Y-53500000D03*
X84930000Y-51290000D03*
X77630000Y-51290000D03*
G04 #@! TD*
D13*
G04 #@! TO.P,LED10,3*
G04 #@! TO.N,GND*
X137490000Y-29885000D03*
G04 #@! TO.P,LED10,4*
G04 #@! TO.N,Net-(LED10-Pad4)*
X134290000Y-29885000D03*
G04 #@! TO.P,LED10,2*
G04 #@! TO.N,Net-(LED10-Pad2)*
X137490000Y-34885000D03*
G04 #@! TO.P,LED10,1*
G04 #@! TO.N,+BATT*
X134290000Y-34885000D03*
G04 #@! TD*
G04 #@! TO.P,LED11,3*
G04 #@! TO.N,GND*
X137490000Y-47665000D03*
G04 #@! TO.P,LED11,4*
G04 #@! TO.N,Net-(LED10-Pad2)*
X134290000Y-47665000D03*
G04 #@! TO.P,LED11,2*
G04 #@! TO.N,Net-(LED11-Pad2)*
X137490000Y-52665000D03*
G04 #@! TO.P,LED11,1*
G04 #@! TO.N,+BATT*
X134290000Y-52665000D03*
G04 #@! TD*
D12*
G04 #@! TO.P,LED12,3*
G04 #@! TO.N,GND*
X123785000Y-67640000D03*
G04 #@! TO.P,LED12,4*
G04 #@! TO.N,Net-(LED11-Pad2)*
X123785000Y-64440000D03*
G04 #@! TO.P,LED12,2*
G04 #@! TO.N,Net-(LED12-Pad2)*
X118785000Y-67640000D03*
G04 #@! TO.P,LED12,1*
G04 #@! TO.N,+BATT*
X118785000Y-64440000D03*
G04 #@! TD*
D10*
G04 #@! TO.P,LED13,3*
G04 #@! TO.N,GND*
X102486651Y-59982640D03*
D11*
G04 #@! TD*
G04 #@! TO.N,GND*
G04 #@! TO.C,LED13*
G36*
X101552422Y-59851432D02*
X102195209Y-59085388D01*
X103420880Y-60113848D01*
X102778093Y-60879892D01*
X101552422Y-59851432D01*
X101552422Y-59851432D01*
G37*
D10*
G04 #@! TO.P,LED13,4*
G04 #@! TO.N,Net-(LED12-Pad2)*
X104543571Y-57531298D03*
D11*
G04 #@! TD*
G04 #@! TO.N,Net-(LED12-Pad2)*
G04 #@! TO.C,LED13*
G36*
X103609342Y-57400090D02*
X104252129Y-56634046D01*
X105477800Y-57662506D01*
X104835013Y-58428550D01*
X103609342Y-57400090D01*
X103609342Y-57400090D01*
G37*
D10*
G04 #@! TO.P,LED13,2*
G04 #@! TO.N,Net-(LED13-Pad2)*
X98656429Y-56768702D03*
D11*
G04 #@! TD*
G04 #@! TO.N,Net-(LED13-Pad2)*
G04 #@! TO.C,LED13*
G36*
X97722200Y-56637494D02*
X98364987Y-55871450D01*
X99590658Y-56899910D01*
X98947871Y-57665954D01*
X97722200Y-56637494D01*
X97722200Y-56637494D01*
G37*
D10*
G04 #@! TO.P,LED13,1*
G04 #@! TO.N,+BATT*
X100713349Y-54317360D03*
D11*
G04 #@! TD*
G04 #@! TO.N,+BATT*
G04 #@! TO.C,LED13*
G36*
X99779120Y-54186152D02*
X100421907Y-53420108D01*
X101647578Y-54448568D01*
X101004791Y-55214612D01*
X99779120Y-54186152D01*
X99779120Y-54186152D01*
G37*
D16*
G04 #@! TO.P,U2,4*
G04 #@! TO.N,GND*
X60554000Y-41402000D03*
D17*
G04 #@! TO.P,U2,2*
X54254000Y-41402000D03*
G04 #@! TO.P,U2,3*
G04 #@! TO.N,+3V3*
X54254000Y-43702000D03*
G04 #@! TO.P,U2,1*
G04 #@! TO.N,+BATT*
X54254000Y-39102000D03*
G04 #@! TD*
D18*
G04 #@! TO.P,U3,1*
G04 #@! TO.N,Net-(U3-Pad1)*
X34925000Y-48960000D03*
G04 #@! TO.P,U3,2*
G04 #@! TO.N,Net-(U3-Pad2)*
X36925000Y-48960000D03*
G04 #@! TO.P,U3,3*
G04 #@! TO.N,Net-(R1-Pad2)*
X38925000Y-48960000D03*
G04 #@! TO.P,U3,4*
G04 #@! TO.N,Net-(U3-Pad4)*
X40925000Y-48960000D03*
G04 #@! TO.P,U3,5*
G04 #@! TO.N,Net-(U3-Pad5)*
X42925000Y-48960000D03*
G04 #@! TO.P,U3,6*
G04 #@! TO.N,LED_SIG*
X44925000Y-48960000D03*
G04 #@! TO.P,U3,7*
G04 #@! TO.N,Net-(U3-Pad7)*
X46925000Y-48960000D03*
G04 #@! TO.P,U3,8*
G04 #@! TO.N,+3V3*
X48925000Y-48960000D03*
G04 #@! TO.P,U3,9*
G04 #@! TO.N,GND*
X48925000Y-33560000D03*
G04 #@! TO.P,U3,10*
G04 #@! TO.N,Net-(R3-Pad1)*
X46925000Y-33560000D03*
G04 #@! TO.P,U3,11*
G04 #@! TO.N,Net-(R5-Pad2)*
X44925000Y-33560000D03*
G04 #@! TO.P,U3,12*
G04 #@! TO.N,Net-(J5-Pad1)*
X42925000Y-33560000D03*
G04 #@! TO.P,U3,13*
G04 #@! TO.N,Net-(U3-Pad13)*
X40925000Y-33560000D03*
G04 #@! TO.P,U3,14*
G04 #@! TO.N,Net-(U3-Pad14)*
X38925000Y-33560000D03*
G04 #@! TO.P,U3,15*
G04 #@! TO.N,Net-(J2-Pad1)*
X36925000Y-33560000D03*
G04 #@! TO.P,U3,16*
G04 #@! TO.N,Net-(J4-Pad1)*
X34925000Y-33560000D03*
D19*
G04 #@! TO.P,U3,17*
G04 #@! TO.N,Net-(U3-Pad17)*
X50625000Y-46270000D03*
G04 #@! TO.P,U3,18*
G04 #@! TO.N,Net-(U3-Pad18)*
X50625000Y-44270000D03*
G04 #@! TO.P,U3,19*
G04 #@! TO.N,Net-(U3-Pad19)*
X50625000Y-42270000D03*
G04 #@! TO.P,U3,20*
G04 #@! TO.N,Net-(U3-Pad20)*
X50625000Y-40270000D03*
G04 #@! TO.P,U3,21*
G04 #@! TO.N,Net-(U3-Pad21)*
X50625000Y-38270000D03*
G04 #@! TO.P,U3,22*
G04 #@! TO.N,Net-(U3-Pad22)*
X50625000Y-36270000D03*
G04 #@! TD*
D20*
G04 #@! TO.P,U1,1*
G04 #@! TO.N,Net-(R470-Pad1)*
X110066000Y-42161500D03*
G04 #@! TO.P,U1,2*
G04 #@! TO.N,GND*
X110066000Y-41211500D03*
G04 #@! TO.P,U1,3*
G04 #@! TO.N,Net-(10uF2-Pad1)*
X110066000Y-40261500D03*
G04 #@! TO.P,U1,4*
G04 #@! TO.N,Net-(D1-Pad2)*
X107866000Y-40261500D03*
G04 #@! TO.P,U1,5*
G04 #@! TO.N,Net-(R2-Pad1)*
X107866000Y-42161500D03*
G04 #@! TD*
D21*
G04 #@! TO.P,1uF3,1*
G04 #@! TO.N,+3V3*
X56404000Y-46482000D03*
G04 #@! TO.P,1uF3,2*
G04 #@! TO.N,GND*
X58404000Y-46482000D03*
G04 #@! TD*
D22*
G04 #@! TO.P,10uF2,1*
G04 #@! TO.N,Net-(10uF2-Pad1)*
X114173000Y-41100500D03*
G04 #@! TO.P,10uF2,2*
G04 #@! TO.N,GND*
X114173000Y-43100500D03*
G04 #@! TD*
D23*
G04 #@! TO.P,D1,2*
G04 #@! TO.N,Net-(D1-Pad2)*
X118407000Y-35560000D03*
G04 #@! TO.P,D1,1*
G04 #@! TO.N,Net-(D1-Pad1)*
X120607000Y-35560000D03*
G04 #@! TD*
G04 #@! TO.P,D2,2*
G04 #@! TO.N,Net-(D2-Pad2)*
X120607000Y-46990000D03*
G04 #@! TO.P,D2,1*
G04 #@! TO.N,GND*
X118407000Y-46990000D03*
G04 #@! TD*
D24*
G04 #@! TO.P,J1,6*
G04 #@! TO.N,Net-(J1-Pad6)*
X74620000Y-52277000D03*
X67620000Y-52277000D03*
D25*
X73620000Y-49577000D03*
X68620000Y-49577000D03*
D26*
G04 #@! TO.P,J1,5*
G04 #@! TO.N,GND*
X72420000Y-49577000D03*
G04 #@! TO.P,J1,4*
G04 #@! TO.N,Net-(J1-Pad4)*
X71770000Y-49577000D03*
G04 #@! TO.P,J1,3*
G04 #@! TO.N,Net-(J1-Pad3)*
X71120000Y-49577000D03*
G04 #@! TO.P,J1,2*
G04 #@! TO.N,Net-(J1-Pad2)*
X70470000Y-49577000D03*
G04 #@! TO.P,J1,1*
G04 #@! TO.N,Net-(D1-Pad2)*
X69820000Y-49577000D03*
G04 #@! TD*
D27*
G04 #@! TO.P,R1,1*
G04 #@! TO.N,+3V3*
X36388000Y-52070000D03*
G04 #@! TO.P,R1,2*
G04 #@! TO.N,Net-(R1-Pad2)*
X38288000Y-52070000D03*
G04 #@! TD*
G04 #@! TO.P,R2,1*
G04 #@! TO.N,Net-(R2-Pad1)*
X108016000Y-45275500D03*
G04 #@! TO.P,R2,2*
G04 #@! TO.N,GND*
X109916000Y-45275500D03*
G04 #@! TD*
G04 #@! TO.P,R3,1*
G04 #@! TO.N,Net-(R3-Pad1)*
X46929000Y-30226000D03*
G04 #@! TO.P,R3,2*
G04 #@! TO.N,GND*
X48829000Y-30226000D03*
G04 #@! TD*
D28*
G04 #@! TO.P,R4,1*
G04 #@! TO.N,+3V3*
X22860000Y-50988000D03*
G04 #@! TO.P,R4,2*
G04 #@! TO.N,Net-(J5-Pad1)*
X22860000Y-49088000D03*
G04 #@! TD*
D27*
G04 #@! TO.P,R5,1*
G04 #@! TO.N,+3V3*
X42865000Y-30226000D03*
G04 #@! TO.P,R5,2*
G04 #@! TO.N,Net-(R5-Pad2)*
X44765000Y-30226000D03*
G04 #@! TD*
G04 #@! TO.P,R470,1*
G04 #@! TO.N,Net-(R470-Pad1)*
X118557000Y-39370000D03*
G04 #@! TO.P,R470,2*
G04 #@! TO.N,Net-(D1-Pad1)*
X120457000Y-39370000D03*
G04 #@! TD*
G04 #@! TO.P,R470_1,1*
G04 #@! TO.N,Net-(R470-Pad1)*
X118557000Y-43180000D03*
G04 #@! TO.P,R470_1,2*
G04 #@! TO.N,Net-(D2-Pad2)*
X120457000Y-43180000D03*
G04 #@! TD*
D29*
G04 #@! TO.P,J2,1*
G04 #@! TO.N,Net-(J2-Pad1)*
X22860000Y-36195000D03*
G04 #@! TD*
G04 #@! TO.P,J4,1*
G04 #@! TO.N,Net-(J4-Pad1)*
X22860000Y-38735000D03*
G04 #@! TD*
G04 #@! TO.P,J5,1*
G04 #@! TO.N,Net-(J5-Pad1)*
X22860000Y-46355000D03*
G04 #@! TD*
G04 #@! TO.P,J10,1*
G04 #@! TO.N,+3V3*
X22860000Y-41275000D03*
G04 #@! TD*
G04 #@! TO.P,J11,1*
G04 #@! TO.N,GND*
X22860000Y-43815000D03*
G04 #@! TD*
D30*
G04 #@! TO.N,GND*
X112014000Y-40576500D03*
X115951000Y-44132500D03*
X71501000Y-38989000D03*
X63119000Y-41402000D03*
X113030000Y-20574000D03*
X51816000Y-32639000D03*
X21590000Y-42545000D03*
X44450000Y-27051000D03*
G04 #@! TO.N,Net-(10uF2-Pad1)*
X79057500Y-46291500D03*
X116459000Y-40449500D03*
G04 #@! TO.N,Net-(R470-Pad1)*
X116840000Y-42164000D03*
X112014000Y-42164000D03*
G04 #@! TO.N,Net-(J5-Pad1)*
X42926000Y-39116000D03*
X39878000Y-53340000D03*
G04 #@! TD*
D31*
G04 #@! TO.N,GND*
X110066000Y-41211500D02*
X111379000Y-41211500D01*
X111379000Y-41211500D02*
X112014000Y-40576500D01*
D32*
X72420000Y-50643000D02*
X72420000Y-49577000D01*
D33*
X73649000Y-38989000D02*
X71501000Y-38989000D01*
D31*
X63119000Y-41402000D02*
X60554000Y-41402000D01*
D33*
X73649000Y-38989000D02*
X73700000Y-39040000D01*
X48829000Y-30226000D02*
X48829000Y-34164000D01*
X48829000Y-34164000D02*
X48925000Y-34260000D01*
D31*
X98425000Y-25549869D02*
X98656429Y-25781298D01*
X51816000Y-34417000D02*
X51816000Y-32639000D01*
D33*
X52578000Y-35179000D02*
X51816000Y-34417000D01*
X53213000Y-41402000D02*
X52578000Y-40767000D01*
X52578000Y-40767000D02*
X52578000Y-35179000D01*
X54254000Y-41402000D02*
X53213000Y-41402000D01*
X51816000Y-34417000D02*
X49082000Y-34417000D01*
X49082000Y-34417000D02*
X48925000Y-34260000D01*
X54254000Y-41402000D02*
X60554000Y-41402000D01*
D34*
X14910000Y-34885000D02*
X14910000Y-35255000D01*
X49913349Y-22567360D02*
X49872360Y-22567360D01*
X137490000Y-47665000D02*
X137755000Y-47665000D01*
D35*
X72420000Y-47934400D02*
X72415400Y-47929800D01*
X72420000Y-49577000D02*
X72420000Y-47934400D01*
X72420000Y-49577000D02*
X72420000Y-51147500D01*
D33*
G04 #@! TO.N,+3V3*
X22860000Y-50988000D02*
X25212000Y-50988000D01*
X25212000Y-50988000D02*
X26035000Y-50165000D01*
X36388000Y-52070000D02*
X34290000Y-52070000D01*
X34290000Y-52070000D02*
X32385000Y-50165000D01*
D31*
X42738000Y-30099000D02*
X41148000Y-30099000D01*
X21590000Y-41275000D02*
X20955000Y-40640000D01*
X20955000Y-40640000D02*
X20955000Y-32766000D01*
X20955000Y-32766000D02*
X23622000Y-30099000D01*
X23622000Y-30099000D02*
X41148000Y-30099000D01*
X21590000Y-41275000D02*
X22860000Y-41275000D01*
X42738000Y-30099000D02*
X42865000Y-30226000D01*
D33*
X33020000Y-47498000D02*
X33020000Y-49530000D01*
X33020000Y-49530000D02*
X32385000Y-50165000D01*
X32385000Y-50165000D02*
X26035000Y-50165000D01*
X33020000Y-47498000D02*
X33528000Y-46990000D01*
X24130000Y-41275000D02*
X22860000Y-41275000D01*
X24765000Y-41910000D02*
X24130000Y-41275000D01*
X24765000Y-48895000D02*
X24765000Y-41910000D01*
X26035000Y-50165000D02*
X24765000Y-48895000D01*
X48925000Y-48260000D02*
X54864000Y-48260000D01*
X54864000Y-48260000D02*
X54876000Y-48260000D01*
X54876000Y-48260000D02*
X56654000Y-46482000D01*
X56654000Y-46482000D02*
X56654000Y-46102000D01*
X56654000Y-46102000D02*
X54254000Y-43702000D01*
D31*
X48925000Y-47655000D02*
X48925000Y-48260000D01*
D33*
X48260000Y-46990000D02*
X48925000Y-47655000D01*
X33528000Y-46990000D02*
X48260000Y-46990000D01*
D31*
G04 #@! TO.N,Net-(J2-Pad1)*
X22860000Y-36195000D02*
X23749000Y-36195000D01*
X36925000Y-32099000D02*
X36925000Y-34260000D01*
X36195000Y-31369000D02*
X36925000Y-32099000D01*
X25527000Y-31369000D02*
X36195000Y-31369000D01*
X24384000Y-32512000D02*
X25527000Y-31369000D01*
X24384000Y-35560000D02*
X24384000Y-32512000D01*
X23749000Y-36195000D02*
X24384000Y-35560000D01*
D32*
X36925000Y-34260000D02*
X36925000Y-32861000D01*
X36925000Y-32480000D02*
X36925000Y-34260000D01*
D31*
G04 #@! TO.N,Net-(J4-Pad1)*
X33274000Y-32258000D02*
X34544000Y-32258000D01*
X24638000Y-38735000D02*
X25273000Y-38100000D01*
X25273000Y-38100000D02*
X25273000Y-32893000D01*
X25273000Y-32893000D02*
X25908000Y-32258000D01*
X25908000Y-32258000D02*
X33274000Y-32258000D01*
X22860000Y-38735000D02*
X24638000Y-38735000D01*
X34544000Y-32258000D02*
X34925000Y-32639000D01*
X34925000Y-32639000D02*
X34925000Y-34260000D01*
X34925000Y-33909000D02*
X34925000Y-34260000D01*
D32*
X34925000Y-34260000D02*
X34925000Y-33655000D01*
X22860000Y-38735000D02*
X22225000Y-38735000D01*
D34*
G04 #@! TO.N,Net-(LED1-Pad2)*
X33615000Y-64440000D02*
X43510000Y-64440000D01*
X47967360Y-59982640D02*
X49913349Y-59982640D01*
X43510000Y-64440000D02*
X47967360Y-59982640D01*
G04 #@! TO.N,Net-(LED2-Pad2)*
X18110000Y-52665000D02*
X18110000Y-57135000D01*
X18110000Y-57135000D02*
X28615000Y-67640000D01*
G04 #@! TO.N,Net-(LED3-Pad2)*
X18110000Y-34885000D02*
X18110000Y-44465000D01*
X18110000Y-44465000D02*
X14910000Y-47665000D01*
G04 #@! TO.N,Net-(LED4-Pad2)*
X14910000Y-29885000D02*
X14910000Y-29540000D01*
X14910000Y-29540000D02*
X26340000Y-18110000D01*
X26340000Y-18110000D02*
X28615000Y-18110000D01*
G04 #@! TO.N,Net-(LED5-Pad2)*
X47856429Y-25018702D02*
X47856429Y-22456429D01*
X40310000Y-14910000D02*
X33615000Y-14910000D01*
X47856429Y-22456429D02*
X40310000Y-14910000D01*
G04 #@! TO.N,Net-(LED6-Pad2)*
X73700000Y-42240000D02*
X70202273Y-42240000D01*
X70202273Y-42240000D02*
X53743571Y-25781298D01*
D31*
G04 #@! TO.N,Net-(LED7-Pad2)*
X78700000Y-39040000D02*
X78700000Y-39457000D01*
X78700000Y-39457000D02*
X80010000Y-40767000D01*
X80010000Y-40767000D02*
X89408000Y-40767000D01*
X89408000Y-40767000D02*
X100713349Y-29461651D01*
X100713349Y-29461651D02*
X100713349Y-28232640D01*
D34*
G04 #@! TO.N,Net-(LED8-Pad2)*
X102486651Y-22567360D02*
X113957640Y-22567360D01*
X113957640Y-22567360D02*
X114935000Y-21590000D01*
X118785000Y-18110000D02*
X118415000Y-18110000D01*
X118415000Y-18110000D02*
X114935000Y-21590000D01*
X114935000Y-21590000D02*
X114592640Y-21932360D01*
G04 #@! TO.N,Net-(LED10-Pad4)*
X134290000Y-29885000D02*
X134290000Y-26975000D01*
X125730000Y-16855000D02*
X123785000Y-14910000D01*
X125730000Y-18415000D02*
X125730000Y-16855000D01*
X134290000Y-26975000D02*
X125730000Y-18415000D01*
G04 #@! TO.N,Net-(LED10-Pad2)*
X137490000Y-40945000D02*
X137490000Y-44465000D01*
X137490000Y-34885000D02*
X137490000Y-40945000D01*
X137490000Y-44465000D02*
X134290000Y-47665000D01*
G04 #@! TO.N,Net-(LED11-Pad2)*
X123785000Y-64440000D02*
X125715000Y-64440000D01*
X125715000Y-64440000D02*
X137490000Y-52665000D01*
G04 #@! TO.N,Net-(LED12-Pad2)*
X118785000Y-67640000D02*
X114652273Y-67640000D01*
X114652273Y-67640000D02*
X104543571Y-57531298D01*
D31*
G04 #@! TO.N,Net-(R2-Pad1)*
X108016000Y-45275500D02*
X108016000Y-42311500D01*
X108016000Y-42311500D02*
X107866000Y-42161500D01*
G04 #@! TO.N,Net-(D1-Pad2)*
X107866000Y-40261500D02*
X93977500Y-40261500D01*
X93977500Y-40261500D02*
X89281000Y-44958000D01*
X86614000Y-44958000D02*
X89281000Y-44958000D01*
X86614000Y-44958000D02*
X86741000Y-44958000D01*
X111315500Y-35560000D02*
X118407000Y-35560000D01*
X107866000Y-39009500D02*
X111315500Y-35560000D01*
X107866000Y-40261500D02*
X107866000Y-39009500D01*
G04 #@! TO.N,Net-(10uF2-Pad1)*
X110066000Y-40261500D02*
X110233500Y-40261500D01*
X110233500Y-40261500D02*
X111252000Y-39243000D01*
X111252000Y-39243000D02*
X113093500Y-39243000D01*
X113093500Y-39243000D02*
X114173000Y-40322500D01*
X114173000Y-40322500D02*
X114173000Y-41100500D01*
X79030000Y-48859000D02*
X79030000Y-46319000D01*
X79030000Y-50640000D02*
X79030000Y-48859000D01*
X79030000Y-46319000D02*
X79057500Y-46291500D01*
X114173000Y-41100500D02*
X115808000Y-41100500D01*
X116459000Y-40449500D02*
X115808000Y-41100500D01*
G04 #@! TO.N,Net-(R470-Pad1)*
X110066000Y-42161500D02*
X112011500Y-42161500D01*
X116840000Y-42164000D02*
X116903500Y-42227500D01*
X112011500Y-42161500D02*
X112014000Y-42164000D01*
X116840000Y-42164000D02*
X116906000Y-42164000D01*
X117541000Y-42164000D02*
X118557000Y-43180000D01*
X116840000Y-42164000D02*
X117541000Y-42164000D01*
X118557000Y-41148000D02*
X118557000Y-39370000D01*
X117541000Y-42164000D02*
X118557000Y-41148000D01*
G04 #@! TO.N,Net-(D1-Pad1)*
X120457000Y-35710000D02*
X120607000Y-35560000D01*
X120457000Y-39370000D02*
X120457000Y-35710000D01*
G04 #@! TO.N,Net-(D2-Pad2)*
X120457000Y-46840000D02*
X120607000Y-46990000D01*
X120457000Y-43815000D02*
X120457000Y-46840000D01*
G04 #@! TO.N,+BATT*
X134290000Y-52665000D02*
X130560000Y-52665000D01*
X130560000Y-52665000D02*
X118785000Y-64440000D01*
X132715000Y-50800000D02*
X132715000Y-51090000D01*
D34*
X132715000Y-50800000D02*
X132715000Y-46355000D01*
X132715000Y-46355000D02*
X135890000Y-43180000D01*
X135890000Y-43180000D02*
X135890000Y-36485000D01*
X134290000Y-34885000D02*
X135890000Y-36485000D01*
D31*
X132715000Y-51090000D02*
X134290000Y-52665000D01*
X101536500Y-30035500D02*
X104521000Y-27051000D01*
X104521000Y-27051000D02*
X104521000Y-25041273D01*
X104521000Y-25041273D02*
X104543571Y-25018702D01*
X78700000Y-42240000D02*
X89332000Y-42240000D01*
X89332000Y-42240000D02*
X101536500Y-30035500D01*
X101536500Y-30035500D02*
X101600000Y-29972000D01*
X82030000Y-50640000D02*
X82030000Y-49542000D01*
X95846360Y-54317360D02*
X100713349Y-54317360D01*
X90424000Y-48895000D02*
X95846360Y-54317360D01*
X82677000Y-48895000D02*
X90424000Y-48895000D01*
X82030000Y-49542000D02*
X82677000Y-48895000D01*
D33*
X18110000Y-47665000D02*
X18110000Y-49860000D01*
X19431000Y-55256000D02*
X28615000Y-64440000D01*
X19431000Y-51181000D02*
X19431000Y-55256000D01*
X18110000Y-49860000D02*
X19431000Y-51181000D01*
X51686651Y-28232640D02*
X54102000Y-30647989D01*
X18110000Y-29885000D02*
X18110000Y-30048000D01*
X18110000Y-30048000D02*
X19304000Y-31242000D01*
X19304000Y-31242000D02*
X19304000Y-46471000D01*
X19304000Y-46471000D02*
X18110000Y-47665000D01*
X54254000Y-39102000D02*
X54254000Y-30799989D01*
D34*
X18110000Y-47665000D02*
X18375000Y-47665000D01*
X104543571Y-25018702D02*
X115316298Y-25018702D01*
X115316298Y-25018702D02*
X116205000Y-24130000D01*
X47507727Y-57880000D02*
X47856429Y-57531298D01*
X28615000Y-64440000D02*
X28905000Y-64440000D01*
X28905000Y-64440000D02*
X31750000Y-61595000D01*
X31750000Y-61595000D02*
X39370000Y-61595000D01*
X43792727Y-61595000D02*
X47856429Y-57531298D01*
X39370000Y-61595000D02*
X43792727Y-61595000D01*
X18110000Y-47665000D02*
X18110000Y-48590000D01*
X18110000Y-29885000D02*
X18455000Y-29885000D01*
X33615000Y-18110000D02*
X33325000Y-18110000D01*
X33325000Y-18110000D02*
X31115000Y-20320000D01*
X27675000Y-20320000D02*
X18110000Y-29885000D01*
X31115000Y-20320000D02*
X27675000Y-20320000D01*
X51686651Y-28232640D02*
X49187640Y-28232640D01*
X49187640Y-28232640D02*
X40957500Y-20002500D01*
X40957500Y-20002500D02*
X39065000Y-18110000D01*
X39065000Y-18110000D02*
X33615000Y-18110000D01*
X78700000Y-42240000D02*
X78410000Y-42240000D01*
X78410000Y-42240000D02*
X76835000Y-43815000D01*
X76835000Y-43815000D02*
X67269011Y-43815000D01*
X67269011Y-43815000D02*
X54102000Y-30647989D01*
X123785000Y-18110000D02*
X122225000Y-18110000D01*
X122225000Y-18110000D02*
X116205000Y-24130000D01*
X116205000Y-24130000D02*
X115951298Y-24383702D01*
X134290000Y-34885000D02*
X134290000Y-33325000D01*
X134290000Y-33325000D02*
X123785000Y-22820000D01*
X123785000Y-22820000D02*
X123785000Y-18110000D01*
X118785000Y-64440000D02*
X119075000Y-64440000D01*
X100713349Y-54317360D02*
X108585000Y-54317360D01*
X108585000Y-54317360D02*
X108662360Y-54317360D01*
X108662360Y-54317360D02*
X118785000Y-64440000D01*
D33*
G04 #@! TO.N,Net-(J5-Pad1)*
X21336000Y-52197000D02*
X23241000Y-54102000D01*
X21336000Y-47117000D02*
X21336000Y-52197000D01*
X22098000Y-46355000D02*
X21336000Y-47117000D01*
X42925000Y-39115000D02*
X42925000Y-34260000D01*
X42926000Y-39116000D02*
X42925000Y-39115000D01*
X39116000Y-54102000D02*
X39878000Y-53340000D01*
X23241000Y-54102000D02*
X39116000Y-54102000D01*
X22860000Y-46355000D02*
X22098000Y-46355000D01*
X22860000Y-49088000D02*
X22860000Y-46355000D01*
D32*
X22860000Y-46355000D02*
X22225000Y-46355000D01*
D34*
X42925000Y-34260000D02*
X42925000Y-32765000D01*
G04 #@! TO.N,LED_SIG*
X51686651Y-54317360D02*
X46697360Y-54317360D01*
X44925000Y-52545000D02*
X44925000Y-48260000D01*
X46697360Y-54317360D02*
X44925000Y-52545000D01*
D33*
G04 #@! TO.N,Net-(R1-Pad2)*
X38925000Y-48260000D02*
X38925000Y-51433000D01*
X38925000Y-51433000D02*
X38288000Y-52070000D01*
D32*
X38088000Y-52070000D02*
X38100000Y-52070000D01*
D33*
X38688000Y-48497000D02*
X38925000Y-48260000D01*
D34*
X38735000Y-48450000D02*
X38925000Y-48260000D01*
D33*
G04 #@! TO.N,Net-(R3-Pad1)*
X46925000Y-34260000D02*
X46925000Y-30230000D01*
X46925000Y-30230000D02*
X46929000Y-30226000D01*
X46656000Y-33991000D02*
X46925000Y-34260000D01*
D31*
G04 #@! TO.N,Net-(R5-Pad2)*
X44925000Y-34260000D02*
X44925000Y-30386000D01*
X44925000Y-30386000D02*
X44765000Y-30226000D01*
D33*
X44784000Y-34119000D02*
X44925000Y-34260000D01*
D34*
X44925000Y-34260000D02*
X44925000Y-32860000D01*
D32*
G04 #@! TO.N,Net-(D1-Pad2)*
X69820000Y-47752000D02*
X69820000Y-47036000D01*
D31*
X70612000Y-44958000D02*
X69820000Y-45750000D01*
X69820000Y-45750000D02*
X69820000Y-48006000D01*
X86614000Y-44958000D02*
X70612000Y-44958000D01*
D32*
X69820000Y-48006000D02*
X69820000Y-47752000D01*
X69820000Y-49577000D02*
X69820000Y-48006000D01*
D35*
X69820000Y-49577000D02*
X69820000Y-47752000D01*
G04 #@! TD*
D32*
G04 #@! TO.N,GND*
G36*
X62985987Y-31578689D02*
X63006144Y-31608856D01*
X63090097Y-31664952D01*
X63114904Y-31685506D01*
X63146084Y-31702361D01*
X63232727Y-31760254D01*
X63265089Y-31766691D01*
X63294121Y-31782385D01*
X63397790Y-31793088D01*
X63500000Y-31813419D01*
X63532365Y-31806981D01*
X63565190Y-31810370D01*
X63665064Y-31780585D01*
X63767273Y-31760254D01*
X63794710Y-31741922D01*
X63826335Y-31732490D01*
X63907207Y-31666753D01*
X63936665Y-31647070D01*
X63959437Y-31624298D01*
X64037797Y-31560603D01*
X64055052Y-31528683D01*
X66323736Y-29260000D01*
X86076265Y-29260000D01*
X88344949Y-31528685D01*
X88362203Y-31560603D01*
X88440558Y-31624294D01*
X88463334Y-31647070D01*
X88492798Y-31666757D01*
X88573665Y-31732490D01*
X88605289Y-31741921D01*
X88632726Y-31760254D01*
X88734934Y-31780584D01*
X88834810Y-31810370D01*
X88867638Y-31806981D01*
X88899999Y-31813418D01*
X89002203Y-31793088D01*
X89105878Y-31782385D01*
X89134910Y-31766691D01*
X89167273Y-31760254D01*
X89253921Y-31702358D01*
X89285095Y-31685506D01*
X89309898Y-31664955D01*
X89393856Y-31608856D01*
X89414014Y-31578687D01*
X95033435Y-26922595D01*
X97740832Y-26922595D01*
X97797359Y-26989962D01*
X97959740Y-27183480D01*
X98183815Y-27300126D01*
X98435473Y-27322142D01*
X98676399Y-27246178D01*
X99167096Y-26834435D01*
X99186663Y-26610783D01*
X98640775Y-25960220D01*
X97760399Y-26698943D01*
X97740832Y-26922595D01*
X95033435Y-26922595D01*
X96167441Y-25982990D01*
X97078607Y-25982990D01*
X97154571Y-26223917D01*
X97316951Y-26417434D01*
X97373479Y-26484801D01*
X97597131Y-26504368D01*
X98440195Y-25796952D01*
X98835351Y-25796952D01*
X99381238Y-26447515D01*
X99604890Y-26467082D01*
X100095587Y-26055338D01*
X100212233Y-25831263D01*
X100234251Y-25579606D01*
X100158287Y-25338679D01*
X99995907Y-25145162D01*
X99939379Y-25077795D01*
X99715727Y-25058228D01*
X98835351Y-25796952D01*
X98440195Y-25796952D01*
X98477507Y-25765644D01*
X97931620Y-25115081D01*
X97707968Y-25095514D01*
X97217271Y-25507258D01*
X97100625Y-25731333D01*
X97078607Y-25982990D01*
X96167441Y-25982990D01*
X97411965Y-24951813D01*
X98126195Y-24951813D01*
X98672083Y-25602376D01*
X99552459Y-24863653D01*
X99572026Y-24640001D01*
X99515499Y-24572634D01*
X99353118Y-24379116D01*
X99129043Y-24262470D01*
X98877385Y-24240454D01*
X98636459Y-24316418D01*
X98145762Y-24728161D01*
X98126195Y-24951813D01*
X97411965Y-24951813D01*
X109186524Y-15195750D01*
X117350000Y-15195750D01*
X117350000Y-15536310D01*
X117446673Y-15769699D01*
X117625302Y-15948327D01*
X117858691Y-16045000D01*
X118499250Y-16045000D01*
X118658000Y-15886250D01*
X118658000Y-15037000D01*
X118912000Y-15037000D01*
X118912000Y-15886250D01*
X119070750Y-16045000D01*
X119711309Y-16045000D01*
X119944698Y-15948327D01*
X120123327Y-15769699D01*
X120220000Y-15536310D01*
X120220000Y-15195750D01*
X120061250Y-15037000D01*
X118912000Y-15037000D01*
X118658000Y-15037000D01*
X117508750Y-15037000D01*
X117350000Y-15195750D01*
X109186524Y-15195750D01*
X110287286Y-14283690D01*
X117350000Y-14283690D01*
X117350000Y-14624250D01*
X117508750Y-14783000D01*
X118658000Y-14783000D01*
X118658000Y-13933750D01*
X118912000Y-13933750D01*
X118912000Y-14783000D01*
X120061250Y-14783000D01*
X120220000Y-14624250D01*
X120220000Y-14283690D01*
X120123327Y-14050301D01*
X119944698Y-13871673D01*
X119711309Y-13775000D01*
X119070750Y-13775000D01*
X118912000Y-13933750D01*
X118658000Y-13933750D01*
X118499250Y-13775000D01*
X117858691Y-13775000D01*
X117625302Y-13871673D01*
X117446673Y-14050301D01*
X117350000Y-14283690D01*
X110287286Y-14283690D01*
X111371913Y-13385000D01*
X126670772Y-13385000D01*
X139015001Y-28815286D01*
X139015000Y-53734715D01*
X126670772Y-69165000D01*
X111371913Y-69165000D01*
X101290858Y-60812125D01*
X101956417Y-60812125D01*
X101975984Y-61035777D01*
X102466681Y-61447520D01*
X102707607Y-61523484D01*
X102959265Y-61501468D01*
X103183340Y-61384822D01*
X103345721Y-61191304D01*
X103402248Y-61123937D01*
X103382681Y-60900285D01*
X102502305Y-60161562D01*
X101956417Y-60812125D01*
X101290858Y-60812125D01*
X100046334Y-59780948D01*
X100908829Y-59780948D01*
X100930847Y-60032605D01*
X101047493Y-60256680D01*
X101538190Y-60668424D01*
X101761842Y-60648857D01*
X102307729Y-59998294D01*
X102270418Y-59966986D01*
X102665573Y-59966986D01*
X103545949Y-60705710D01*
X103769601Y-60686143D01*
X103826129Y-60618776D01*
X103988509Y-60425259D01*
X104064473Y-60184332D01*
X104042455Y-59932675D01*
X103925809Y-59708600D01*
X103435112Y-59296856D01*
X103211460Y-59316423D01*
X102665573Y-59966986D01*
X102270418Y-59966986D01*
X101427353Y-59259570D01*
X101203701Y-59279137D01*
X101147173Y-59346504D01*
X100984793Y-59540021D01*
X100908829Y-59780948D01*
X100046334Y-59780948D01*
X98912328Y-58841343D01*
X101571054Y-58841343D01*
X101590621Y-59064995D01*
X102470997Y-59803718D01*
X103016885Y-59153155D01*
X102997318Y-58929503D01*
X102506621Y-58517760D01*
X102265695Y-58441796D01*
X102014037Y-58463812D01*
X101789962Y-58580458D01*
X101627581Y-58773976D01*
X101571054Y-58841343D01*
X98912328Y-58841343D01*
X96320612Y-56693922D01*
X97077224Y-56693922D01*
X97147914Y-56936449D01*
X97306034Y-57133462D01*
X98531705Y-58161922D01*
X98753182Y-58283429D01*
X99004299Y-58310930D01*
X99246826Y-58240240D01*
X99443839Y-58082120D01*
X99968781Y-57456518D01*
X102964366Y-57456518D01*
X103035056Y-57699045D01*
X103193176Y-57896058D01*
X104418847Y-58924518D01*
X104640324Y-59046025D01*
X104827184Y-59066489D01*
X113964850Y-68204156D01*
X114014224Y-68278049D01*
X114088117Y-68327423D01*
X114088118Y-68327424D01*
X114178425Y-68387765D01*
X114306963Y-68473652D01*
X114565108Y-68525000D01*
X114565112Y-68525000D01*
X114652272Y-68542337D01*
X114739432Y-68525000D01*
X117478541Y-68525000D01*
X117527191Y-68597809D01*
X117737235Y-68738157D01*
X117985000Y-68787440D01*
X119585000Y-68787440D01*
X119832765Y-68738157D01*
X120042809Y-68597809D01*
X120183157Y-68387765D01*
X120232440Y-68140000D01*
X120232440Y-67925750D01*
X122350000Y-67925750D01*
X122350000Y-68266310D01*
X122446673Y-68499699D01*
X122625302Y-68678327D01*
X122858691Y-68775000D01*
X123499250Y-68775000D01*
X123658000Y-68616250D01*
X123658000Y-67767000D01*
X123912000Y-67767000D01*
X123912000Y-68616250D01*
X124070750Y-68775000D01*
X124711309Y-68775000D01*
X124944698Y-68678327D01*
X125123327Y-68499699D01*
X125220000Y-68266310D01*
X125220000Y-67925750D01*
X125061250Y-67767000D01*
X123912000Y-67767000D01*
X123658000Y-67767000D01*
X122508750Y-67767000D01*
X122350000Y-67925750D01*
X120232440Y-67925750D01*
X120232440Y-67140000D01*
X120207316Y-67013690D01*
X122350000Y-67013690D01*
X122350000Y-67354250D01*
X122508750Y-67513000D01*
X123658000Y-67513000D01*
X123658000Y-66663750D01*
X123912000Y-66663750D01*
X123912000Y-67513000D01*
X125061250Y-67513000D01*
X125220000Y-67354250D01*
X125220000Y-67013690D01*
X125123327Y-66780301D01*
X124944698Y-66601673D01*
X124711309Y-66505000D01*
X124070750Y-66505000D01*
X123912000Y-66663750D01*
X123658000Y-66663750D01*
X123499250Y-66505000D01*
X122858691Y-66505000D01*
X122625302Y-66601673D01*
X122446673Y-66780301D01*
X122350000Y-67013690D01*
X120207316Y-67013690D01*
X120183157Y-66892235D01*
X120042809Y-66682191D01*
X119832765Y-66541843D01*
X119585000Y-66492560D01*
X117985000Y-66492560D01*
X117737235Y-66541843D01*
X117527191Y-66682191D01*
X117478541Y-66755000D01*
X115018852Y-66755000D01*
X106097819Y-57833968D01*
X106122776Y-57606078D01*
X106052086Y-57363551D01*
X105893966Y-57166538D01*
X104668295Y-56138078D01*
X104446818Y-56016571D01*
X104195701Y-55989070D01*
X103953174Y-56059760D01*
X103756161Y-56217880D01*
X103113374Y-56983924D01*
X102991867Y-57205401D01*
X102964366Y-57456518D01*
X99968781Y-57456518D01*
X100086626Y-57316076D01*
X100208133Y-57094599D01*
X100235634Y-56843482D01*
X100164944Y-56600955D01*
X100006824Y-56403942D01*
X98781153Y-55375482D01*
X98559676Y-55253975D01*
X98308559Y-55226474D01*
X98066032Y-55297164D01*
X97869019Y-55455284D01*
X97226232Y-56221328D01*
X97104725Y-56442805D01*
X97077224Y-56693922D01*
X96320612Y-56693922D01*
X89414014Y-50971313D01*
X89393856Y-50941144D01*
X89309898Y-50885045D01*
X89285095Y-50864494D01*
X89253921Y-50847642D01*
X89167273Y-50789746D01*
X89134910Y-50783309D01*
X89105878Y-50767615D01*
X89002203Y-50756912D01*
X88899999Y-50736582D01*
X88867638Y-50743019D01*
X88834810Y-50739630D01*
X88734934Y-50769416D01*
X88632726Y-50789746D01*
X88605289Y-50808079D01*
X88573665Y-50817510D01*
X88492798Y-50883243D01*
X88463334Y-50902930D01*
X88440558Y-50925706D01*
X88362203Y-50989397D01*
X88344949Y-51021315D01*
X86077440Y-53288825D01*
X86077440Y-53100000D01*
X86028157Y-52852235D01*
X85887809Y-52642191D01*
X85677765Y-52501843D01*
X85430000Y-52452560D01*
X84430000Y-52452560D01*
X84182235Y-52501843D01*
X83972191Y-52642191D01*
X83831843Y-52852235D01*
X83782560Y-53100000D01*
X83782560Y-53290000D01*
X83424421Y-53290000D01*
X83699818Y-53014603D01*
X83865000Y-52615820D01*
X83865000Y-52184180D01*
X83804218Y-52037440D01*
X83880000Y-52037440D01*
X83896280Y-52034202D01*
X83972191Y-52147809D01*
X84182235Y-52288157D01*
X84430000Y-52337440D01*
X85430000Y-52337440D01*
X85677765Y-52288157D01*
X85887809Y-52147809D01*
X86028157Y-51937765D01*
X86077440Y-51690000D01*
X86077440Y-50890000D01*
X86028157Y-50642235D01*
X85887809Y-50432191D01*
X85677765Y-50291843D01*
X85430000Y-50242560D01*
X84527440Y-50242560D01*
X84527440Y-49890000D01*
X84506356Y-49784000D01*
X90055765Y-49784000D01*
X95155831Y-54884067D01*
X95205427Y-54958293D01*
X95499490Y-55154779D01*
X95758804Y-55206360D01*
X95846359Y-55223776D01*
X95933914Y-55206360D01*
X99987719Y-55206360D01*
X100588625Y-55710580D01*
X100810102Y-55832087D01*
X101061219Y-55859588D01*
X101303746Y-55788898D01*
X101500759Y-55630778D01*
X101860244Y-55202360D01*
X108295782Y-55202360D01*
X117337560Y-64244139D01*
X117337560Y-64940000D01*
X117386843Y-65187765D01*
X117527191Y-65397809D01*
X117737235Y-65538157D01*
X117985000Y-65587440D01*
X119585000Y-65587440D01*
X119832765Y-65538157D01*
X120042809Y-65397809D01*
X120183157Y-65187765D01*
X120232440Y-64940000D01*
X120232440Y-64249795D01*
X130928236Y-53554000D01*
X133160263Y-53554000D01*
X133191843Y-53712765D01*
X133332191Y-53922809D01*
X133542235Y-54063157D01*
X133790000Y-54112440D01*
X134790000Y-54112440D01*
X134791225Y-54112196D01*
X125348422Y-63555000D01*
X125091459Y-63555000D01*
X125042809Y-63482191D01*
X124832765Y-63341843D01*
X124585000Y-63292560D01*
X122985000Y-63292560D01*
X122737235Y-63341843D01*
X122527191Y-63482191D01*
X122386843Y-63692235D01*
X122337560Y-63940000D01*
X122337560Y-64940000D01*
X122386843Y-65187765D01*
X122527191Y-65397809D01*
X122737235Y-65538157D01*
X122985000Y-65587440D01*
X124585000Y-65587440D01*
X124832765Y-65538157D01*
X125042809Y-65397809D01*
X125091459Y-65325000D01*
X125627839Y-65325000D01*
X125715000Y-65342337D01*
X125802161Y-65325000D01*
X125802165Y-65325000D01*
X126060310Y-65273652D01*
X126353049Y-65078049D01*
X126402425Y-65004153D01*
X137294139Y-54112440D01*
X137990000Y-54112440D01*
X138237765Y-54063157D01*
X138447809Y-53922809D01*
X138588157Y-53712765D01*
X138637440Y-53465000D01*
X138637440Y-51865000D01*
X138588157Y-51617235D01*
X138447809Y-51407191D01*
X138237765Y-51266843D01*
X137990000Y-51217560D01*
X136990000Y-51217560D01*
X136742235Y-51266843D01*
X136532191Y-51407191D01*
X136391843Y-51617235D01*
X136342560Y-51865000D01*
X136342560Y-52560861D01*
X135437196Y-53466225D01*
X135437440Y-53465000D01*
X135437440Y-51865000D01*
X135388157Y-51617235D01*
X135247809Y-51407191D01*
X135037765Y-51266843D01*
X134790000Y-51217560D01*
X134099795Y-51217560D01*
X133604000Y-50721765D01*
X133604000Y-50712444D01*
X133600000Y-50692335D01*
X133600000Y-49074647D01*
X133790000Y-49112440D01*
X134790000Y-49112440D01*
X135037765Y-49063157D01*
X135247809Y-48922809D01*
X135388157Y-48712765D01*
X135437440Y-48465000D01*
X135437440Y-47950750D01*
X136355000Y-47950750D01*
X136355000Y-48591309D01*
X136451673Y-48824698D01*
X136630301Y-49003327D01*
X136863690Y-49100000D01*
X137204250Y-49100000D01*
X137363000Y-48941250D01*
X137363000Y-47792000D01*
X137617000Y-47792000D01*
X137617000Y-48941250D01*
X137775750Y-49100000D01*
X138116310Y-49100000D01*
X138349699Y-49003327D01*
X138528327Y-48824698D01*
X138625000Y-48591309D01*
X138625000Y-47950750D01*
X138466250Y-47792000D01*
X137617000Y-47792000D01*
X137363000Y-47792000D01*
X136513750Y-47792000D01*
X136355000Y-47950750D01*
X135437440Y-47950750D01*
X135437440Y-47769138D01*
X136355000Y-46851578D01*
X136355000Y-47379250D01*
X136513750Y-47538000D01*
X137363000Y-47538000D01*
X137363000Y-46388750D01*
X137617000Y-46388750D01*
X137617000Y-47538000D01*
X138466250Y-47538000D01*
X138625000Y-47379250D01*
X138625000Y-46738691D01*
X138528327Y-46505302D01*
X138349699Y-46326673D01*
X138116310Y-46230000D01*
X137775750Y-46230000D01*
X137617000Y-46388750D01*
X137363000Y-46388750D01*
X137204250Y-46230000D01*
X136976579Y-46230000D01*
X138054156Y-45152423D01*
X138128049Y-45103049D01*
X138178557Y-45027460D01*
X138323651Y-44810311D01*
X138323652Y-44810310D01*
X138375000Y-44552165D01*
X138375000Y-44552161D01*
X138392337Y-44465001D01*
X138375000Y-44377841D01*
X138375000Y-36191459D01*
X138447809Y-36142809D01*
X138588157Y-35932765D01*
X138637440Y-35685000D01*
X138637440Y-34085000D01*
X138588157Y-33837235D01*
X138447809Y-33627191D01*
X138237765Y-33486843D01*
X137990000Y-33437560D01*
X136990000Y-33437560D01*
X136742235Y-33486843D01*
X136532191Y-33627191D01*
X136391843Y-33837235D01*
X136342560Y-34085000D01*
X136342560Y-35685000D01*
X136342804Y-35686225D01*
X135437440Y-34780862D01*
X135437440Y-34085000D01*
X135388157Y-33837235D01*
X135247809Y-33627191D01*
X135175000Y-33578541D01*
X135175000Y-33412159D01*
X135192337Y-33324999D01*
X135175000Y-33237839D01*
X135175000Y-33237835D01*
X135123652Y-32979690D01*
X135020095Y-32824707D01*
X134977424Y-32760845D01*
X134977423Y-32760844D01*
X134928049Y-32686951D01*
X134854156Y-32637577D01*
X133414155Y-31197576D01*
X133542235Y-31283157D01*
X133790000Y-31332440D01*
X134790000Y-31332440D01*
X135037765Y-31283157D01*
X135247809Y-31142809D01*
X135388157Y-30932765D01*
X135437440Y-30685000D01*
X135437440Y-30170750D01*
X136355000Y-30170750D01*
X136355000Y-30811309D01*
X136451673Y-31044698D01*
X136630301Y-31223327D01*
X136863690Y-31320000D01*
X137204250Y-31320000D01*
X137363000Y-31161250D01*
X137363000Y-30012000D01*
X137617000Y-30012000D01*
X137617000Y-31161250D01*
X137775750Y-31320000D01*
X138116310Y-31320000D01*
X138349699Y-31223327D01*
X138528327Y-31044698D01*
X138625000Y-30811309D01*
X138625000Y-30170750D01*
X138466250Y-30012000D01*
X137617000Y-30012000D01*
X137363000Y-30012000D01*
X136513750Y-30012000D01*
X136355000Y-30170750D01*
X135437440Y-30170750D01*
X135437440Y-29085000D01*
X135412316Y-28958691D01*
X136355000Y-28958691D01*
X136355000Y-29599250D01*
X136513750Y-29758000D01*
X137363000Y-29758000D01*
X137363000Y-28608750D01*
X137617000Y-28608750D01*
X137617000Y-29758000D01*
X138466250Y-29758000D01*
X138625000Y-29599250D01*
X138625000Y-28958691D01*
X138528327Y-28725302D01*
X138349699Y-28546673D01*
X138116310Y-28450000D01*
X137775750Y-28450000D01*
X137617000Y-28608750D01*
X137363000Y-28608750D01*
X137204250Y-28450000D01*
X136863690Y-28450000D01*
X136630301Y-28546673D01*
X136451673Y-28725302D01*
X136355000Y-28958691D01*
X135412316Y-28958691D01*
X135388157Y-28837235D01*
X135247809Y-28627191D01*
X135175000Y-28578541D01*
X135175000Y-27062159D01*
X135192337Y-26974999D01*
X135175000Y-26887839D01*
X135175000Y-26887835D01*
X135123652Y-26629690D01*
X135001926Y-26447515D01*
X134977424Y-26410845D01*
X134977423Y-26410844D01*
X134928049Y-26336951D01*
X134854156Y-26287577D01*
X126615000Y-18048422D01*
X126615000Y-16942159D01*
X126632337Y-16854999D01*
X126615000Y-16767839D01*
X126615000Y-16767835D01*
X126563652Y-16509690D01*
X126368049Y-16216951D01*
X126294156Y-16167577D01*
X125232440Y-15105862D01*
X125232440Y-14410000D01*
X125183157Y-14162235D01*
X125042809Y-13952191D01*
X124832765Y-13811843D01*
X124585000Y-13762560D01*
X122985000Y-13762560D01*
X122737235Y-13811843D01*
X122527191Y-13952191D01*
X122386843Y-14162235D01*
X122337560Y-14410000D01*
X122337560Y-15410000D01*
X122386843Y-15657765D01*
X122527191Y-15867809D01*
X122737235Y-16008157D01*
X122985000Y-16057440D01*
X123680862Y-16057440D01*
X124586225Y-16962804D01*
X124585000Y-16962560D01*
X122985000Y-16962560D01*
X122737235Y-17011843D01*
X122527191Y-17152191D01*
X122478541Y-17225000D01*
X122312161Y-17225000D01*
X122225000Y-17207663D01*
X122137839Y-17225000D01*
X122137835Y-17225000D01*
X121879690Y-17276348D01*
X121660845Y-17422576D01*
X121660844Y-17422577D01*
X121586951Y-17471951D01*
X121537577Y-17545844D01*
X120097576Y-18985846D01*
X120183157Y-18857765D01*
X120232440Y-18610000D01*
X120232440Y-17610000D01*
X120183157Y-17362235D01*
X120042809Y-17152191D01*
X119832765Y-17011843D01*
X119585000Y-16962560D01*
X117985000Y-16962560D01*
X117737235Y-17011843D01*
X117527191Y-17152191D01*
X117386843Y-17362235D01*
X117337560Y-17610000D01*
X117337560Y-17935861D01*
X114370848Y-20902574D01*
X114370845Y-20902576D01*
X113591062Y-21682360D01*
X103633546Y-21682360D01*
X103274061Y-21253942D01*
X103077048Y-21095822D01*
X102834521Y-21025132D01*
X102583404Y-21052633D01*
X102361927Y-21174140D01*
X101136256Y-22202600D01*
X100978136Y-22399613D01*
X100907446Y-22642140D01*
X100934947Y-22893257D01*
X101056454Y-23114734D01*
X101699241Y-23880778D01*
X101896254Y-24038898D01*
X102138781Y-24109588D01*
X102389898Y-24082087D01*
X102611375Y-23960580D01*
X103217048Y-23452360D01*
X113870479Y-23452360D01*
X113957640Y-23469697D01*
X114044801Y-23452360D01*
X114044805Y-23452360D01*
X114302950Y-23401012D01*
X114595689Y-23205409D01*
X114645065Y-23131513D01*
X115622424Y-22154155D01*
X115622426Y-22154152D01*
X118519139Y-19257440D01*
X119585000Y-19257440D01*
X119832765Y-19208157D01*
X119960846Y-19122575D01*
X115640848Y-23442574D01*
X115640845Y-23442576D01*
X114949720Y-24133702D01*
X105690466Y-24133702D01*
X105330981Y-23705284D01*
X105133968Y-23547164D01*
X104891441Y-23476474D01*
X104640324Y-23503975D01*
X104418847Y-23625482D01*
X103193176Y-24653942D01*
X103035056Y-24850955D01*
X102964366Y-25093482D01*
X102991867Y-25344599D01*
X103113374Y-25566076D01*
X103632000Y-26184151D01*
X103632000Y-26682764D01*
X102279165Y-28035600D01*
X102265053Y-27906743D01*
X102143546Y-27685266D01*
X101500759Y-26919222D01*
X101303746Y-26761102D01*
X101061219Y-26690412D01*
X100810102Y-26717913D01*
X100588625Y-26839420D01*
X99362954Y-27867880D01*
X99204834Y-28064893D01*
X99134144Y-28307420D01*
X99161645Y-28558537D01*
X99283152Y-28780014D01*
X99673067Y-29244697D01*
X89039765Y-39878000D01*
X80378236Y-39878000D01*
X80129654Y-39629418D01*
X80147440Y-39540000D01*
X80147440Y-38540000D01*
X80098157Y-38292235D01*
X79957809Y-38082191D01*
X79747765Y-37941843D01*
X79500000Y-37892560D01*
X77900000Y-37892560D01*
X77652235Y-37941843D01*
X77442191Y-38082191D01*
X77301843Y-38292235D01*
X77252560Y-38540000D01*
X77252560Y-39540000D01*
X77301843Y-39787765D01*
X77442191Y-39997809D01*
X77652235Y-40138157D01*
X77900000Y-40187440D01*
X78173205Y-40187440D01*
X79078324Y-41092560D01*
X77900000Y-41092560D01*
X77652235Y-41141843D01*
X77442191Y-41282191D01*
X77301843Y-41492235D01*
X77252560Y-41740000D01*
X77252560Y-42145861D01*
X76468422Y-42930000D01*
X75109647Y-42930000D01*
X75147440Y-42740000D01*
X75147440Y-41740000D01*
X75098157Y-41492235D01*
X74957809Y-41282191D01*
X74747765Y-41141843D01*
X74500000Y-41092560D01*
X72900000Y-41092560D01*
X72652235Y-41141843D01*
X72442191Y-41282191D01*
X72393541Y-41355000D01*
X70568852Y-41355000D01*
X68539602Y-39325750D01*
X72265000Y-39325750D01*
X72265000Y-39666310D01*
X72361673Y-39899699D01*
X72540302Y-40078327D01*
X72773691Y-40175000D01*
X73414250Y-40175000D01*
X73573000Y-40016250D01*
X73573000Y-39167000D01*
X73827000Y-39167000D01*
X73827000Y-40016250D01*
X73985750Y-40175000D01*
X74626309Y-40175000D01*
X74859698Y-40078327D01*
X75038327Y-39899699D01*
X75135000Y-39666310D01*
X75135000Y-39325750D01*
X74976250Y-39167000D01*
X73827000Y-39167000D01*
X73573000Y-39167000D01*
X72423750Y-39167000D01*
X72265000Y-39325750D01*
X68539602Y-39325750D01*
X67627542Y-38413690D01*
X72265000Y-38413690D01*
X72265000Y-38754250D01*
X72423750Y-38913000D01*
X73573000Y-38913000D01*
X73573000Y-38063750D01*
X73827000Y-38063750D01*
X73827000Y-38913000D01*
X74976250Y-38913000D01*
X75135000Y-38754250D01*
X75135000Y-38413690D01*
X75038327Y-38180301D01*
X74859698Y-38001673D01*
X74626309Y-37905000D01*
X73985750Y-37905000D01*
X73827000Y-38063750D01*
X73573000Y-38063750D01*
X73414250Y-37905000D01*
X72773691Y-37905000D01*
X72540302Y-38001673D01*
X72361673Y-38180301D01*
X72265000Y-38413690D01*
X67627542Y-38413690D01*
X55297819Y-26083968D01*
X55322776Y-25856078D01*
X55252086Y-25613551D01*
X55093966Y-25416538D01*
X53868295Y-24388078D01*
X53646818Y-24266571D01*
X53395701Y-24239070D01*
X53153174Y-24309760D01*
X52956161Y-24467880D01*
X52313374Y-25233924D01*
X52191867Y-25455401D01*
X52164366Y-25706518D01*
X52235056Y-25949045D01*
X52393176Y-26146058D01*
X53618847Y-27174518D01*
X53840324Y-27296025D01*
X54027184Y-27316489D01*
X69514849Y-42804155D01*
X69564224Y-42878049D01*
X69638117Y-42927423D01*
X69638118Y-42927424D01*
X69641973Y-42930000D01*
X67635590Y-42930000D01*
X55155532Y-30449943D01*
X55151235Y-30428342D01*
X54940714Y-30113275D01*
X54849595Y-30052391D01*
X54841852Y-30040803D01*
X53250321Y-28449273D01*
X53265856Y-28307420D01*
X53195166Y-28064893D01*
X53037046Y-27867880D01*
X51811375Y-26839420D01*
X51589898Y-26717913D01*
X51338781Y-26690412D01*
X51096254Y-26761102D01*
X50899241Y-26919222D01*
X50539756Y-27347640D01*
X49554219Y-27347640D01*
X48585512Y-26378933D01*
X48643839Y-26332120D01*
X49286626Y-25566076D01*
X49408133Y-25344599D01*
X49435634Y-25093482D01*
X49364944Y-24850955D01*
X49206824Y-24653942D01*
X48741429Y-24263429D01*
X48741429Y-23396845D01*
X49383115Y-23396845D01*
X49402682Y-23620497D01*
X49893379Y-24032240D01*
X50134305Y-24108204D01*
X50385963Y-24086188D01*
X50610038Y-23969542D01*
X50772419Y-23776024D01*
X50828946Y-23708657D01*
X50809379Y-23485005D01*
X49929003Y-22746282D01*
X49383115Y-23396845D01*
X48741429Y-23396845D01*
X48741429Y-23065639D01*
X48964888Y-23253144D01*
X49188540Y-23233577D01*
X49734427Y-22583014D01*
X49697116Y-22551706D01*
X50092271Y-22551706D01*
X50972647Y-23290430D01*
X51196299Y-23270863D01*
X51252827Y-23203496D01*
X51415207Y-23009979D01*
X51491171Y-22769052D01*
X51469153Y-22517395D01*
X51352507Y-22293320D01*
X50861810Y-21881576D01*
X50638158Y-21901143D01*
X50092271Y-22551706D01*
X49697116Y-22551706D01*
X48854051Y-21844290D01*
X48630399Y-21863857D01*
X48573871Y-21931224D01*
X48571648Y-21933873D01*
X48543853Y-21892274D01*
X48543852Y-21892273D01*
X48494478Y-21818380D01*
X48420585Y-21769006D01*
X48077642Y-21426063D01*
X48997752Y-21426063D01*
X49017319Y-21649715D01*
X49897695Y-22388438D01*
X50443583Y-21737875D01*
X50424016Y-21514223D01*
X49933319Y-21102480D01*
X49692393Y-21026516D01*
X49440735Y-21048532D01*
X49216660Y-21165178D01*
X49054279Y-21358696D01*
X48997752Y-21426063D01*
X48077642Y-21426063D01*
X40997425Y-14345847D01*
X40948049Y-14271951D01*
X40655310Y-14076348D01*
X40397165Y-14025000D01*
X40397161Y-14025000D01*
X40310000Y-14007663D01*
X40222839Y-14025000D01*
X34921459Y-14025000D01*
X34872809Y-13952191D01*
X34662765Y-13811843D01*
X34415000Y-13762560D01*
X32815000Y-13762560D01*
X32567235Y-13811843D01*
X32357191Y-13952191D01*
X32216843Y-14162235D01*
X32167560Y-14410000D01*
X32167560Y-15410000D01*
X32216843Y-15657765D01*
X32357191Y-15867809D01*
X32567235Y-16008157D01*
X32815000Y-16057440D01*
X34415000Y-16057440D01*
X34662765Y-16008157D01*
X34872809Y-15867809D01*
X34921459Y-15795000D01*
X39943422Y-15795000D01*
X46971430Y-22823009D01*
X46971429Y-23821587D01*
X46541060Y-24334481D01*
X41644926Y-19438348D01*
X41644924Y-19438345D01*
X39752425Y-17545847D01*
X39703049Y-17471951D01*
X39410310Y-17276348D01*
X39152165Y-17225000D01*
X39152161Y-17225000D01*
X39065000Y-17207663D01*
X38977839Y-17225000D01*
X34921459Y-17225000D01*
X34872809Y-17152191D01*
X34662765Y-17011843D01*
X34415000Y-16962560D01*
X32815000Y-16962560D01*
X32567235Y-17011843D01*
X32357191Y-17152191D01*
X32216843Y-17362235D01*
X32167560Y-17610000D01*
X32167560Y-18015861D01*
X30748422Y-19435000D01*
X27762161Y-19435000D01*
X27675000Y-19417663D01*
X27587839Y-19435000D01*
X27587835Y-19435000D01*
X27329690Y-19486348D01*
X27110845Y-19632576D01*
X27110844Y-19632577D01*
X27036951Y-19681951D01*
X26987577Y-19755844D01*
X18305862Y-28437560D01*
X17610000Y-28437560D01*
X17362235Y-28486843D01*
X17152191Y-28627191D01*
X17011843Y-28837235D01*
X16962560Y-29085000D01*
X16962560Y-30685000D01*
X17011843Y-30932765D01*
X17152191Y-31142809D01*
X17362235Y-31283157D01*
X17610000Y-31332440D01*
X18047402Y-31332440D01*
X18351500Y-31636538D01*
X18351500Y-33437560D01*
X17610000Y-33437560D01*
X17362235Y-33486843D01*
X17152191Y-33627191D01*
X17011843Y-33837235D01*
X16962560Y-34085000D01*
X16962560Y-35685000D01*
X17011843Y-35932765D01*
X17152191Y-36142809D01*
X17225000Y-36191459D01*
X17225001Y-44098420D01*
X15105862Y-46217560D01*
X14410000Y-46217560D01*
X14162235Y-46266843D01*
X13952191Y-46407191D01*
X13811843Y-46617235D01*
X13762560Y-46865000D01*
X13762560Y-48465000D01*
X13811843Y-48712765D01*
X13952191Y-48922809D01*
X14162235Y-49063157D01*
X14410000Y-49112440D01*
X15410000Y-49112440D01*
X15657765Y-49063157D01*
X15867809Y-48922809D01*
X16008157Y-48712765D01*
X16057440Y-48465000D01*
X16057440Y-47769138D01*
X16962804Y-46863775D01*
X16962560Y-46865000D01*
X16962560Y-48465000D01*
X17011843Y-48712765D01*
X17152191Y-48922809D01*
X17157501Y-48926357D01*
X17157501Y-49766185D01*
X17138840Y-49860000D01*
X17212765Y-50231646D01*
X17212766Y-50231647D01*
X17423287Y-50546714D01*
X17502817Y-50599855D01*
X18120522Y-51217560D01*
X17610000Y-51217560D01*
X17362235Y-51266843D01*
X17152191Y-51407191D01*
X17011843Y-51617235D01*
X16962560Y-51865000D01*
X16962560Y-53465000D01*
X17011843Y-53712765D01*
X17152191Y-53922809D01*
X17225000Y-53971459D01*
X17225001Y-57047835D01*
X17207663Y-57135000D01*
X17276348Y-57480309D01*
X17422576Y-57699154D01*
X17422578Y-57699156D01*
X17471952Y-57773049D01*
X17545845Y-57822423D01*
X27167560Y-67444139D01*
X27167560Y-68140000D01*
X27216843Y-68387765D01*
X27357191Y-68597809D01*
X27567235Y-68738157D01*
X27815000Y-68787440D01*
X29415000Y-68787440D01*
X29662765Y-68738157D01*
X29872809Y-68597809D01*
X30013157Y-68387765D01*
X30062440Y-68140000D01*
X30062440Y-67925750D01*
X32180000Y-67925750D01*
X32180000Y-68266310D01*
X32276673Y-68499699D01*
X32455302Y-68678327D01*
X32688691Y-68775000D01*
X33329250Y-68775000D01*
X33488000Y-68616250D01*
X33488000Y-67767000D01*
X33742000Y-67767000D01*
X33742000Y-68616250D01*
X33900750Y-68775000D01*
X34541309Y-68775000D01*
X34774698Y-68678327D01*
X34953327Y-68499699D01*
X35050000Y-68266310D01*
X35050000Y-67925750D01*
X34891250Y-67767000D01*
X33742000Y-67767000D01*
X33488000Y-67767000D01*
X32338750Y-67767000D01*
X32180000Y-67925750D01*
X30062440Y-67925750D01*
X30062440Y-67140000D01*
X30037316Y-67013690D01*
X32180000Y-67013690D01*
X32180000Y-67354250D01*
X32338750Y-67513000D01*
X33488000Y-67513000D01*
X33488000Y-66663750D01*
X33742000Y-66663750D01*
X33742000Y-67513000D01*
X34891250Y-67513000D01*
X35050000Y-67354250D01*
X35050000Y-67013690D01*
X34953327Y-66780301D01*
X34774698Y-66601673D01*
X34541309Y-66505000D01*
X33900750Y-66505000D01*
X33742000Y-66663750D01*
X33488000Y-66663750D01*
X33329250Y-66505000D01*
X32688691Y-66505000D01*
X32455302Y-66601673D01*
X32276673Y-66780301D01*
X32180000Y-67013690D01*
X30037316Y-67013690D01*
X30013157Y-66892235D01*
X29872809Y-66682191D01*
X29662765Y-66541843D01*
X29415000Y-66492560D01*
X28719139Y-66492560D01*
X27813775Y-65587196D01*
X27815000Y-65587440D01*
X29415000Y-65587440D01*
X29662765Y-65538157D01*
X29872809Y-65397809D01*
X30013157Y-65187765D01*
X30062440Y-64940000D01*
X30062440Y-64534138D01*
X30656578Y-63940000D01*
X32167560Y-63940000D01*
X32167560Y-64940000D01*
X32216843Y-65187765D01*
X32357191Y-65397809D01*
X32567235Y-65538157D01*
X32815000Y-65587440D01*
X34415000Y-65587440D01*
X34662765Y-65538157D01*
X34872809Y-65397809D01*
X34921459Y-65325000D01*
X43422839Y-65325000D01*
X43510000Y-65342337D01*
X43597161Y-65325000D01*
X43597165Y-65325000D01*
X43855310Y-65273652D01*
X44148049Y-65078049D01*
X44197425Y-65004153D01*
X48333939Y-60867640D01*
X48766454Y-60867640D01*
X49125939Y-61296058D01*
X49322952Y-61454178D01*
X49565479Y-61524868D01*
X49816596Y-61497367D01*
X50038073Y-61375860D01*
X51263744Y-60347400D01*
X51421864Y-60150387D01*
X51492554Y-59907860D01*
X51465053Y-59656743D01*
X51343546Y-59435266D01*
X50700759Y-58669222D01*
X50503746Y-58511102D01*
X50261219Y-58440412D01*
X50010102Y-58467913D01*
X49788625Y-58589420D01*
X49182952Y-59097640D01*
X48054521Y-59097640D01*
X47967360Y-59080303D01*
X47880199Y-59097640D01*
X47880195Y-59097640D01*
X47622050Y-59148988D01*
X47403205Y-59295216D01*
X47403204Y-59295217D01*
X47329311Y-59344591D01*
X47279937Y-59418484D01*
X43143422Y-63555000D01*
X34921459Y-63555000D01*
X34872809Y-63482191D01*
X34662765Y-63341843D01*
X34415000Y-63292560D01*
X32815000Y-63292560D01*
X32567235Y-63341843D01*
X32357191Y-63482191D01*
X32216843Y-63692235D01*
X32167560Y-63940000D01*
X30656578Y-63940000D01*
X32116579Y-62480000D01*
X43705566Y-62480000D01*
X43792727Y-62497337D01*
X43879888Y-62480000D01*
X43879892Y-62480000D01*
X44138037Y-62428652D01*
X44430776Y-62233049D01*
X44480152Y-62159153D01*
X47572817Y-59066489D01*
X47759676Y-59046025D01*
X47981153Y-58924518D01*
X49190209Y-57909999D01*
X52827974Y-57909999D01*
X52884501Y-57977366D01*
X53046882Y-58170884D01*
X53270957Y-58287530D01*
X53522615Y-58309546D01*
X53763541Y-58233582D01*
X54254238Y-57821839D01*
X54273805Y-57598187D01*
X53727917Y-56947624D01*
X52847541Y-57686347D01*
X52827974Y-57909999D01*
X49190209Y-57909999D01*
X49206824Y-57896058D01*
X49364944Y-57699045D01*
X49435634Y-57456518D01*
X49408133Y-57205401D01*
X49286626Y-56983924D01*
X49275273Y-56970394D01*
X52165749Y-56970394D01*
X52241713Y-57211321D01*
X52404093Y-57404838D01*
X52460621Y-57472205D01*
X52684273Y-57491772D01*
X53527337Y-56784356D01*
X53922493Y-56784356D01*
X54468380Y-57434919D01*
X54692032Y-57454486D01*
X55182729Y-57042742D01*
X55299375Y-56818667D01*
X55321393Y-56567010D01*
X55245429Y-56326083D01*
X55083049Y-56132566D01*
X55026521Y-56065199D01*
X54802869Y-56045632D01*
X53922493Y-56784356D01*
X53527337Y-56784356D01*
X53564649Y-56753048D01*
X53018762Y-56102485D01*
X52795110Y-56082918D01*
X52304413Y-56494662D01*
X52187767Y-56718737D01*
X52165749Y-56970394D01*
X49275273Y-56970394D01*
X48643839Y-56217880D01*
X48446826Y-56059760D01*
X48204299Y-55989070D01*
X47953182Y-56016571D01*
X47731705Y-56138078D01*
X46506034Y-57166538D01*
X46347914Y-57363551D01*
X46277224Y-57606078D01*
X46302181Y-57833967D01*
X43426149Y-60710000D01*
X31837161Y-60710000D01*
X31750000Y-60692663D01*
X31662839Y-60710000D01*
X31662835Y-60710000D01*
X31404690Y-60761348D01*
X31185845Y-60907576D01*
X31185844Y-60907577D01*
X31111951Y-60956951D01*
X31062577Y-61030844D01*
X28807730Y-63285692D01*
X21461255Y-55939217D01*
X53213337Y-55939217D01*
X53759225Y-56589780D01*
X54639601Y-55851057D01*
X54659168Y-55627405D01*
X54602641Y-55560038D01*
X54440260Y-55366520D01*
X54216185Y-55249874D01*
X53964527Y-55227858D01*
X53723601Y-55303822D01*
X53232904Y-55715565D01*
X53213337Y-55939217D01*
X21461255Y-55939217D01*
X20383500Y-54861463D01*
X20383500Y-52290810D01*
X20438765Y-52568646D01*
X20495320Y-52653286D01*
X20649287Y-52883714D01*
X20728817Y-52936854D01*
X22501147Y-54709186D01*
X22554286Y-54788714D01*
X22633813Y-54841852D01*
X22633814Y-54841853D01*
X22869353Y-54999235D01*
X23241000Y-55073160D01*
X23334810Y-55054500D01*
X39022190Y-55054500D01*
X39116000Y-55073160D01*
X39209810Y-55054500D01*
X39487647Y-54999235D01*
X39802714Y-54788714D01*
X39855856Y-54709181D01*
X40617853Y-53947186D01*
X40667689Y-53872601D01*
X40670655Y-53869635D01*
X40672260Y-53865760D01*
X40775235Y-53711647D01*
X40811395Y-53529858D01*
X40813000Y-53525983D01*
X40813000Y-53521789D01*
X40849160Y-53340000D01*
X40813000Y-53158211D01*
X40813000Y-53154017D01*
X40811395Y-53150142D01*
X40775235Y-52968353D01*
X40672260Y-52814240D01*
X40670655Y-52810365D01*
X40667689Y-52807399D01*
X40564714Y-52653286D01*
X40410601Y-52550311D01*
X40407635Y-52547345D01*
X40403760Y-52545740D01*
X40249647Y-52442765D01*
X40067858Y-52406605D01*
X40063983Y-52405000D01*
X40059789Y-52405000D01*
X39878000Y-52368840D01*
X39696211Y-52405000D01*
X39692017Y-52405000D01*
X39688142Y-52406605D01*
X39506353Y-52442765D01*
X39352240Y-52545740D01*
X39348365Y-52547345D01*
X39345399Y-52550311D01*
X39285440Y-52590374D01*
X39285440Y-52419598D01*
X39532183Y-52172855D01*
X39611714Y-52119714D01*
X39822235Y-51804647D01*
X39830850Y-51761335D01*
X39896160Y-51433001D01*
X39877500Y-51339191D01*
X39877500Y-50704766D01*
X39925000Y-50673027D01*
X40127235Y-50808157D01*
X40375000Y-50857440D01*
X41475000Y-50857440D01*
X41722765Y-50808157D01*
X41925000Y-50673027D01*
X42127235Y-50808157D01*
X42375000Y-50857440D01*
X43475000Y-50857440D01*
X43722765Y-50808157D01*
X43925000Y-50673027D01*
X44040000Y-50749868D01*
X44040000Y-52457839D01*
X44022663Y-52545000D01*
X44040000Y-52632161D01*
X44040000Y-52632164D01*
X44091348Y-52890309D01*
X44286951Y-53183049D01*
X44360847Y-53232425D01*
X46009937Y-54881516D01*
X46059311Y-54955409D01*
X46133204Y-55004783D01*
X46133205Y-55004784D01*
X46137852Y-55007889D01*
X46352050Y-55151012D01*
X46610195Y-55202360D01*
X46610199Y-55202360D01*
X46697360Y-55219697D01*
X46784521Y-55202360D01*
X50539756Y-55202360D01*
X50899241Y-55630778D01*
X51096254Y-55788898D01*
X51338781Y-55859588D01*
X51589898Y-55832087D01*
X51811375Y-55710580D01*
X53037046Y-54682120D01*
X53195166Y-54485107D01*
X53265856Y-54242580D01*
X53238355Y-53991463D01*
X53116848Y-53769986D01*
X52474061Y-53003942D01*
X52277048Y-52845822D01*
X52034521Y-52775132D01*
X51783404Y-52802633D01*
X51561927Y-52924140D01*
X50956254Y-53432360D01*
X47063939Y-53432360D01*
X45810000Y-52178422D01*
X45810000Y-50749868D01*
X45925000Y-50673027D01*
X46127235Y-50808157D01*
X46375000Y-50857440D01*
X47475000Y-50857440D01*
X47722765Y-50808157D01*
X47925000Y-50673027D01*
X48127235Y-50808157D01*
X48375000Y-50857440D01*
X49475000Y-50857440D01*
X49722765Y-50808157D01*
X49932809Y-50667809D01*
X50073157Y-50457765D01*
X50122440Y-50210000D01*
X50122440Y-49212500D01*
X54782190Y-49212500D01*
X54876000Y-49231160D01*
X54969810Y-49212500D01*
X55247647Y-49157235D01*
X55562714Y-48946714D01*
X55615856Y-48867181D01*
X56728598Y-47754440D01*
X56904000Y-47754440D01*
X57151765Y-47705157D01*
X57361809Y-47564809D01*
X57402654Y-47503680D01*
X57544302Y-47645327D01*
X57777691Y-47742000D01*
X58118250Y-47742000D01*
X58277000Y-47583250D01*
X58277000Y-46609000D01*
X58531000Y-46609000D01*
X58531000Y-47583250D01*
X58689750Y-47742000D01*
X59030309Y-47742000D01*
X59263698Y-47645327D01*
X59442327Y-47466699D01*
X59539000Y-47233310D01*
X59539000Y-46767750D01*
X59380250Y-46609000D01*
X58531000Y-46609000D01*
X58277000Y-46609000D01*
X58257000Y-46609000D01*
X58257000Y-46355000D01*
X58277000Y-46355000D01*
X58277000Y-45380750D01*
X58531000Y-45380750D01*
X58531000Y-46355000D01*
X59380250Y-46355000D01*
X59539000Y-46196250D01*
X59539000Y-45730690D01*
X59442327Y-45497301D01*
X59263698Y-45318673D01*
X59030309Y-45222000D01*
X58689750Y-45222000D01*
X58531000Y-45380750D01*
X58277000Y-45380750D01*
X58118250Y-45222000D01*
X57777691Y-45222000D01*
X57544302Y-45318673D01*
X57402654Y-45460320D01*
X57361809Y-45399191D01*
X57170199Y-45271161D01*
X55901440Y-44002402D01*
X55901440Y-42952000D01*
X55852157Y-42704235D01*
X55751073Y-42552953D01*
X55792327Y-42511699D01*
X55889000Y-42278310D01*
X55889000Y-41687750D01*
X58919000Y-41687750D01*
X58919000Y-43428310D01*
X59015673Y-43661699D01*
X59194302Y-43840327D01*
X59427691Y-43937000D01*
X60268250Y-43937000D01*
X60427000Y-43778250D01*
X60427000Y-41529000D01*
X60681000Y-41529000D01*
X60681000Y-43778250D01*
X60839750Y-43937000D01*
X61680309Y-43937000D01*
X61913698Y-43840327D01*
X62092327Y-43661699D01*
X62189000Y-43428310D01*
X62189000Y-41687750D01*
X62030250Y-41529000D01*
X60681000Y-41529000D01*
X60427000Y-41529000D01*
X59077750Y-41529000D01*
X58919000Y-41687750D01*
X55889000Y-41687750D01*
X55730250Y-41529000D01*
X54381000Y-41529000D01*
X54381000Y-41549000D01*
X54127000Y-41549000D01*
X54127000Y-41529000D01*
X52777750Y-41529000D01*
X52619000Y-41687750D01*
X52619000Y-42278310D01*
X52715673Y-42511699D01*
X52756927Y-42552953D01*
X52655843Y-42704235D01*
X52606560Y-42952000D01*
X52606560Y-44452000D01*
X52655843Y-44699765D01*
X52796191Y-44909809D01*
X53006235Y-45050157D01*
X53254000Y-45099440D01*
X54304402Y-45099440D01*
X55256560Y-46051598D01*
X55256560Y-46532402D01*
X54481463Y-47307500D01*
X52288374Y-47307500D01*
X52332809Y-47277809D01*
X52473157Y-47067765D01*
X52522440Y-46820000D01*
X52522440Y-45720000D01*
X52473157Y-45472235D01*
X52338027Y-45270000D01*
X52473157Y-45067765D01*
X52522440Y-44820000D01*
X52522440Y-43720000D01*
X52473157Y-43472235D01*
X52338027Y-43270000D01*
X52473157Y-43067765D01*
X52522440Y-42820000D01*
X52522440Y-41720000D01*
X52473157Y-41472235D01*
X52338027Y-41270000D01*
X52473157Y-41067765D01*
X52522440Y-40820000D01*
X52522440Y-39720000D01*
X52473157Y-39472235D01*
X52338027Y-39270000D01*
X52473157Y-39067765D01*
X52522440Y-38820000D01*
X52522440Y-37720000D01*
X52473157Y-37472235D01*
X52338027Y-37270000D01*
X52473157Y-37067765D01*
X52522440Y-36820000D01*
X52522440Y-35720000D01*
X52473157Y-35472235D01*
X52332809Y-35262191D01*
X52122765Y-35121843D01*
X51875000Y-35072560D01*
X50053563Y-35072560D01*
X50110000Y-34936309D01*
X50110000Y-33845750D01*
X49951250Y-33687000D01*
X49052000Y-33687000D01*
X49052000Y-33707000D01*
X48798000Y-33707000D01*
X48798000Y-33687000D01*
X48778000Y-33687000D01*
X48778000Y-33433000D01*
X48798000Y-33433000D01*
X48798000Y-31833750D01*
X49052000Y-31833750D01*
X49052000Y-33433000D01*
X49951250Y-33433000D01*
X50110000Y-33274250D01*
X50110000Y-32183691D01*
X50013327Y-31950302D01*
X49834699Y-31771673D01*
X49601310Y-31675000D01*
X49210750Y-31675000D01*
X49052000Y-31833750D01*
X48798000Y-31833750D01*
X48639250Y-31675000D01*
X48248690Y-31675000D01*
X48015301Y-31771673D01*
X47933600Y-31853375D01*
X47932809Y-31852191D01*
X47877500Y-31815234D01*
X47877500Y-31122041D01*
X47882721Y-31095791D01*
X47940673Y-31235699D01*
X48119302Y-31414327D01*
X48352691Y-31511000D01*
X48543250Y-31511000D01*
X48702000Y-31352250D01*
X48702000Y-30353000D01*
X48956000Y-30353000D01*
X48956000Y-31352250D01*
X49114750Y-31511000D01*
X49305309Y-31511000D01*
X49538698Y-31414327D01*
X49717327Y-31235699D01*
X49814000Y-31002310D01*
X49814000Y-30511750D01*
X49655250Y-30353000D01*
X48956000Y-30353000D01*
X48702000Y-30353000D01*
X48682000Y-30353000D01*
X48682000Y-30099000D01*
X48702000Y-30099000D01*
X48702000Y-30079000D01*
X48956000Y-30079000D01*
X48956000Y-30099000D01*
X49655250Y-30099000D01*
X49814000Y-29940250D01*
X49814000Y-29449690D01*
X49717327Y-29216301D01*
X49618665Y-29117640D01*
X50956254Y-29117640D01*
X51561927Y-29625860D01*
X51783404Y-29747367D01*
X51863065Y-29756091D01*
X53301501Y-31194528D01*
X53301500Y-37704560D01*
X53254000Y-37704560D01*
X53006235Y-37753843D01*
X52796191Y-37894191D01*
X52655843Y-38104235D01*
X52606560Y-38352000D01*
X52606560Y-39852000D01*
X52655843Y-40099765D01*
X52756927Y-40251047D01*
X52715673Y-40292301D01*
X52619000Y-40525690D01*
X52619000Y-41116250D01*
X52777750Y-41275000D01*
X54127000Y-41275000D01*
X54127000Y-41255000D01*
X54381000Y-41255000D01*
X54381000Y-41275000D01*
X55730250Y-41275000D01*
X55889000Y-41116250D01*
X55889000Y-40525690D01*
X55792327Y-40292301D01*
X55751073Y-40251047D01*
X55852157Y-40099765D01*
X55901440Y-39852000D01*
X55901440Y-39375690D01*
X58919000Y-39375690D01*
X58919000Y-41116250D01*
X59077750Y-41275000D01*
X60427000Y-41275000D01*
X60427000Y-39025750D01*
X60268250Y-38867000D01*
X59427691Y-38867000D01*
X59194302Y-38963673D01*
X59015673Y-39142301D01*
X58919000Y-39375690D01*
X55901440Y-39375690D01*
X55901440Y-38352000D01*
X55852157Y-38104235D01*
X55711809Y-37894191D01*
X55501765Y-37753843D01*
X55254000Y-37704560D01*
X55206500Y-37704560D01*
X55206500Y-33004067D01*
X61069432Y-38867000D01*
X60839750Y-38867000D01*
X60681000Y-39025750D01*
X60681000Y-41275000D01*
X62030250Y-41275000D01*
X62189000Y-41116250D01*
X62189000Y-39986568D01*
X66581588Y-44379156D01*
X66630962Y-44453049D01*
X66704855Y-44502423D01*
X66704856Y-44502424D01*
X66861233Y-44606912D01*
X66923701Y-44648652D01*
X67181846Y-44700000D01*
X67181850Y-44700000D01*
X67269011Y-44717337D01*
X67356172Y-44700000D01*
X69612764Y-44700000D01*
X69253296Y-45059469D01*
X69179067Y-45109067D01*
X68982581Y-45403131D01*
X68931000Y-45662444D01*
X68913584Y-45750000D01*
X68931000Y-45837555D01*
X68931001Y-48093556D01*
X68982582Y-48352870D01*
X68994501Y-48370708D01*
X68994501Y-48489910D01*
X68879324Y-48467000D01*
X68360676Y-48467000D01*
X68036900Y-48531403D01*
X67669735Y-48776735D01*
X67424403Y-49143900D01*
X67338254Y-49577000D01*
X67424403Y-50010100D01*
X67669735Y-50377265D01*
X68036900Y-50622597D01*
X68360676Y-50687000D01*
X68879324Y-50687000D01*
X69115553Y-50640011D01*
X69162191Y-50709809D01*
X69372235Y-50850157D01*
X69620000Y-50899440D01*
X70020000Y-50899440D01*
X70145000Y-50874576D01*
X70270000Y-50899440D01*
X70670000Y-50899440D01*
X70795000Y-50874576D01*
X70920000Y-50899440D01*
X71320000Y-50899440D01*
X71445000Y-50874576D01*
X71570000Y-50899440D01*
X71970000Y-50899440D01*
X72073852Y-50878783D01*
X72093690Y-50887000D01*
X72161250Y-50887000D01*
X72193208Y-50855042D01*
X72217765Y-50850157D01*
X72427809Y-50709809D01*
X72520000Y-50571836D01*
X72520000Y-50728250D01*
X72678750Y-50887000D01*
X72746310Y-50887000D01*
X72979699Y-50790327D01*
X73129090Y-50640935D01*
X73360676Y-50687000D01*
X73879324Y-50687000D01*
X74203100Y-50622597D01*
X74570265Y-50377265D01*
X74815597Y-50010100D01*
X74901746Y-49577000D01*
X74815597Y-49143900D01*
X74570265Y-48776735D01*
X74203100Y-48531403D01*
X73879324Y-48467000D01*
X73360676Y-48467000D01*
X73129090Y-48513065D01*
X72979699Y-48363673D01*
X72746310Y-48267000D01*
X72678750Y-48267000D01*
X72520000Y-48425750D01*
X72520000Y-48582164D01*
X72427809Y-48444191D01*
X72217765Y-48303843D01*
X72193208Y-48298958D01*
X72161250Y-48267000D01*
X72093690Y-48267000D01*
X72073852Y-48275217D01*
X71970000Y-48254560D01*
X71570000Y-48254560D01*
X71445000Y-48279424D01*
X71320000Y-48254560D01*
X70920000Y-48254560D01*
X70795000Y-48279424D01*
X70676709Y-48255894D01*
X70709000Y-48093556D01*
X70709000Y-46118235D01*
X70980236Y-45847000D01*
X78229581Y-45847000D01*
X78122500Y-46105517D01*
X78122500Y-46477483D01*
X78141001Y-46522148D01*
X78141000Y-48946555D01*
X78141001Y-48946560D01*
X78141001Y-49553700D01*
X78081843Y-49642235D01*
X78032560Y-49890000D01*
X78032560Y-50242560D01*
X77130000Y-50242560D01*
X76882235Y-50291843D01*
X76672191Y-50432191D01*
X76531843Y-50642235D01*
X76482560Y-50890000D01*
X76482560Y-51690000D01*
X76531843Y-51937765D01*
X76672191Y-52147809D01*
X76882235Y-52288157D01*
X77130000Y-52337440D01*
X78130000Y-52337440D01*
X78377765Y-52288157D01*
X78587809Y-52147809D01*
X78663720Y-52034202D01*
X78680000Y-52037440D01*
X78755782Y-52037440D01*
X78695000Y-52184180D01*
X78695000Y-52615820D01*
X78860182Y-53014603D01*
X79135579Y-53290000D01*
X78777440Y-53290000D01*
X78777440Y-53100000D01*
X78728157Y-52852235D01*
X78587809Y-52642191D01*
X78377765Y-52501843D01*
X78130000Y-52452560D01*
X77130000Y-52452560D01*
X76882235Y-52501843D01*
X76672191Y-52642191D01*
X76531843Y-52852235D01*
X76482560Y-53100000D01*
X76482560Y-53290000D01*
X75491936Y-53290000D01*
X75689146Y-52994854D01*
X75755000Y-52663782D01*
X75755000Y-51890217D01*
X75689146Y-51559145D01*
X75438289Y-51183711D01*
X75062854Y-50932854D01*
X74620000Y-50844765D01*
X74177145Y-50932854D01*
X73801711Y-51183711D01*
X73550854Y-51559146D01*
X73485000Y-51890218D01*
X73485000Y-52663783D01*
X73550854Y-52994855D01*
X73748064Y-53290000D01*
X68491936Y-53290000D01*
X68689146Y-52994854D01*
X68755000Y-52663782D01*
X68755000Y-51890217D01*
X68689146Y-51559145D01*
X68438289Y-51183711D01*
X68062854Y-50932854D01*
X67620000Y-50844765D01*
X67177145Y-50932854D01*
X66801711Y-51183711D01*
X66550854Y-51559146D01*
X66485000Y-51890218D01*
X66485000Y-52663783D01*
X66550854Y-52994855D01*
X66748064Y-53290000D01*
X66323736Y-53290000D01*
X64055052Y-51021317D01*
X64037797Y-50989397D01*
X63959437Y-50925702D01*
X63936665Y-50902930D01*
X63907207Y-50883247D01*
X63826335Y-50817510D01*
X63794710Y-50808078D01*
X63767273Y-50789746D01*
X63665064Y-50769415D01*
X63565190Y-50739630D01*
X63532365Y-50743019D01*
X63500000Y-50736581D01*
X63397790Y-50756912D01*
X63294121Y-50767615D01*
X63265089Y-50783309D01*
X63232727Y-50789746D01*
X63146084Y-50847639D01*
X63114904Y-50864494D01*
X63090097Y-50885048D01*
X63006144Y-50941144D01*
X62985987Y-50971311D01*
X41028088Y-69165000D01*
X25729228Y-69165000D01*
X13385000Y-53734716D01*
X13385000Y-52950750D01*
X13775000Y-52950750D01*
X13775000Y-53591309D01*
X13871673Y-53824698D01*
X14050301Y-54003327D01*
X14283690Y-54100000D01*
X14624250Y-54100000D01*
X14783000Y-53941250D01*
X14783000Y-52792000D01*
X15037000Y-52792000D01*
X15037000Y-53941250D01*
X15195750Y-54100000D01*
X15536310Y-54100000D01*
X15769699Y-54003327D01*
X15948327Y-53824698D01*
X16045000Y-53591309D01*
X16045000Y-52950750D01*
X15886250Y-52792000D01*
X15037000Y-52792000D01*
X14783000Y-52792000D01*
X13933750Y-52792000D01*
X13775000Y-52950750D01*
X13385000Y-52950750D01*
X13385000Y-51738691D01*
X13775000Y-51738691D01*
X13775000Y-52379250D01*
X13933750Y-52538000D01*
X14783000Y-52538000D01*
X14783000Y-51388750D01*
X15037000Y-51388750D01*
X15037000Y-52538000D01*
X15886250Y-52538000D01*
X16045000Y-52379250D01*
X16045000Y-51738691D01*
X15948327Y-51505302D01*
X15769699Y-51326673D01*
X15536310Y-51230000D01*
X15195750Y-51230000D01*
X15037000Y-51388750D01*
X14783000Y-51388750D01*
X14624250Y-51230000D01*
X14283690Y-51230000D01*
X14050301Y-51326673D01*
X13871673Y-51505302D01*
X13775000Y-51738691D01*
X13385000Y-51738691D01*
X13385000Y-35170750D01*
X13775000Y-35170750D01*
X13775000Y-35811309D01*
X13871673Y-36044698D01*
X14050301Y-36223327D01*
X14283690Y-36320000D01*
X14624250Y-36320000D01*
X14783000Y-36161250D01*
X14783000Y-35012000D01*
X15037000Y-35012000D01*
X15037000Y-36161250D01*
X15195750Y-36320000D01*
X15536310Y-36320000D01*
X15769699Y-36223327D01*
X15948327Y-36044698D01*
X16045000Y-35811309D01*
X16045000Y-35170750D01*
X15886250Y-35012000D01*
X15037000Y-35012000D01*
X14783000Y-35012000D01*
X13933750Y-35012000D01*
X13775000Y-35170750D01*
X13385000Y-35170750D01*
X13385000Y-33958691D01*
X13775000Y-33958691D01*
X13775000Y-34599250D01*
X13933750Y-34758000D01*
X14783000Y-34758000D01*
X14783000Y-33608750D01*
X15037000Y-33608750D01*
X15037000Y-34758000D01*
X15886250Y-34758000D01*
X16045000Y-34599250D01*
X16045000Y-33958691D01*
X15948327Y-33725302D01*
X15769699Y-33546673D01*
X15536310Y-33450000D01*
X15195750Y-33450000D01*
X15037000Y-33608750D01*
X14783000Y-33608750D01*
X14624250Y-33450000D01*
X14283690Y-33450000D01*
X14050301Y-33546673D01*
X13871673Y-33725302D01*
X13775000Y-33958691D01*
X13385000Y-33958691D01*
X13385000Y-29085000D01*
X13762560Y-29085000D01*
X13762560Y-30685000D01*
X13811843Y-30932765D01*
X13952191Y-31142809D01*
X14162235Y-31283157D01*
X14410000Y-31332440D01*
X15410000Y-31332440D01*
X15657765Y-31283157D01*
X15867809Y-31142809D01*
X16008157Y-30932765D01*
X16057440Y-30685000D01*
X16057440Y-29644138D01*
X26706579Y-18995000D01*
X27308541Y-18995000D01*
X27357191Y-19067809D01*
X27567235Y-19208157D01*
X27815000Y-19257440D01*
X29415000Y-19257440D01*
X29662765Y-19208157D01*
X29872809Y-19067809D01*
X30013157Y-18857765D01*
X30062440Y-18610000D01*
X30062440Y-17610000D01*
X30013157Y-17362235D01*
X29872809Y-17152191D01*
X29662765Y-17011843D01*
X29415000Y-16962560D01*
X27815000Y-16962560D01*
X27567235Y-17011843D01*
X27357191Y-17152191D01*
X27308541Y-17225000D01*
X26427160Y-17225000D01*
X26339999Y-17207663D01*
X26252838Y-17225000D01*
X26252835Y-17225000D01*
X25994690Y-17276348D01*
X25775845Y-17422576D01*
X25775844Y-17422577D01*
X25701951Y-17471951D01*
X25652577Y-17545844D01*
X14760862Y-28437560D01*
X14410000Y-28437560D01*
X14162235Y-28486843D01*
X13952191Y-28627191D01*
X13811843Y-28837235D01*
X13762560Y-29085000D01*
X13385000Y-29085000D01*
X13385000Y-28815284D01*
X24280627Y-15195750D01*
X27180000Y-15195750D01*
X27180000Y-15536310D01*
X27276673Y-15769699D01*
X27455302Y-15948327D01*
X27688691Y-16045000D01*
X28329250Y-16045000D01*
X28488000Y-15886250D01*
X28488000Y-15037000D01*
X28742000Y-15037000D01*
X28742000Y-15886250D01*
X28900750Y-16045000D01*
X29541309Y-16045000D01*
X29774698Y-15948327D01*
X29953327Y-15769699D01*
X30050000Y-15536310D01*
X30050000Y-15195750D01*
X29891250Y-15037000D01*
X28742000Y-15037000D01*
X28488000Y-15037000D01*
X27338750Y-15037000D01*
X27180000Y-15195750D01*
X24280627Y-15195750D01*
X25010275Y-14283690D01*
X27180000Y-14283690D01*
X27180000Y-14624250D01*
X27338750Y-14783000D01*
X28488000Y-14783000D01*
X28488000Y-13933750D01*
X28742000Y-13933750D01*
X28742000Y-14783000D01*
X29891250Y-14783000D01*
X30050000Y-14624250D01*
X30050000Y-14283690D01*
X29953327Y-14050301D01*
X29774698Y-13871673D01*
X29541309Y-13775000D01*
X28900750Y-13775000D01*
X28742000Y-13933750D01*
X28488000Y-13933750D01*
X28329250Y-13775000D01*
X27688691Y-13775000D01*
X27455302Y-13871673D01*
X27276673Y-14050301D01*
X27180000Y-14283690D01*
X25010275Y-14283690D01*
X25729228Y-13385000D01*
X41028088Y-13385000D01*
X62985987Y-31578689D01*
X62985987Y-31578689D01*
G37*
X62985987Y-31578689D02*
X63006144Y-31608856D01*
X63090097Y-31664952D01*
X63114904Y-31685506D01*
X63146084Y-31702361D01*
X63232727Y-31760254D01*
X63265089Y-31766691D01*
X63294121Y-31782385D01*
X63397790Y-31793088D01*
X63500000Y-31813419D01*
X63532365Y-31806981D01*
X63565190Y-31810370D01*
X63665064Y-31780585D01*
X63767273Y-31760254D01*
X63794710Y-31741922D01*
X63826335Y-31732490D01*
X63907207Y-31666753D01*
X63936665Y-31647070D01*
X63959437Y-31624298D01*
X64037797Y-31560603D01*
X64055052Y-31528683D01*
X66323736Y-29260000D01*
X86076265Y-29260000D01*
X88344949Y-31528685D01*
X88362203Y-31560603D01*
X88440558Y-31624294D01*
X88463334Y-31647070D01*
X88492798Y-31666757D01*
X88573665Y-31732490D01*
X88605289Y-31741921D01*
X88632726Y-31760254D01*
X88734934Y-31780584D01*
X88834810Y-31810370D01*
X88867638Y-31806981D01*
X88899999Y-31813418D01*
X89002203Y-31793088D01*
X89105878Y-31782385D01*
X89134910Y-31766691D01*
X89167273Y-31760254D01*
X89253921Y-31702358D01*
X89285095Y-31685506D01*
X89309898Y-31664955D01*
X89393856Y-31608856D01*
X89414014Y-31578687D01*
X95033435Y-26922595D01*
X97740832Y-26922595D01*
X97797359Y-26989962D01*
X97959740Y-27183480D01*
X98183815Y-27300126D01*
X98435473Y-27322142D01*
X98676399Y-27246178D01*
X99167096Y-26834435D01*
X99186663Y-26610783D01*
X98640775Y-25960220D01*
X97760399Y-26698943D01*
X97740832Y-26922595D01*
X95033435Y-26922595D01*
X96167441Y-25982990D01*
X97078607Y-25982990D01*
X97154571Y-26223917D01*
X97316951Y-26417434D01*
X97373479Y-26484801D01*
X97597131Y-26504368D01*
X98440195Y-25796952D01*
X98835351Y-25796952D01*
X99381238Y-26447515D01*
X99604890Y-26467082D01*
X100095587Y-26055338D01*
X100212233Y-25831263D01*
X100234251Y-25579606D01*
X100158287Y-25338679D01*
X99995907Y-25145162D01*
X99939379Y-25077795D01*
X99715727Y-25058228D01*
X98835351Y-25796952D01*
X98440195Y-25796952D01*
X98477507Y-25765644D01*
X97931620Y-25115081D01*
X97707968Y-25095514D01*
X97217271Y-25507258D01*
X97100625Y-25731333D01*
X97078607Y-25982990D01*
X96167441Y-25982990D01*
X97411965Y-24951813D01*
X98126195Y-24951813D01*
X98672083Y-25602376D01*
X99552459Y-24863653D01*
X99572026Y-24640001D01*
X99515499Y-24572634D01*
X99353118Y-24379116D01*
X99129043Y-24262470D01*
X98877385Y-24240454D01*
X98636459Y-24316418D01*
X98145762Y-24728161D01*
X98126195Y-24951813D01*
X97411965Y-24951813D01*
X109186524Y-15195750D01*
X117350000Y-15195750D01*
X117350000Y-15536310D01*
X117446673Y-15769699D01*
X117625302Y-15948327D01*
X117858691Y-16045000D01*
X118499250Y-16045000D01*
X118658000Y-15886250D01*
X118658000Y-15037000D01*
X118912000Y-15037000D01*
X118912000Y-15886250D01*
X119070750Y-16045000D01*
X119711309Y-16045000D01*
X119944698Y-15948327D01*
X120123327Y-15769699D01*
X120220000Y-15536310D01*
X120220000Y-15195750D01*
X120061250Y-15037000D01*
X118912000Y-15037000D01*
X118658000Y-15037000D01*
X117508750Y-15037000D01*
X117350000Y-15195750D01*
X109186524Y-15195750D01*
X110287286Y-14283690D01*
X117350000Y-14283690D01*
X117350000Y-14624250D01*
X117508750Y-14783000D01*
X118658000Y-14783000D01*
X118658000Y-13933750D01*
X118912000Y-13933750D01*
X118912000Y-14783000D01*
X120061250Y-14783000D01*
X120220000Y-14624250D01*
X120220000Y-14283690D01*
X120123327Y-14050301D01*
X119944698Y-13871673D01*
X119711309Y-13775000D01*
X119070750Y-13775000D01*
X118912000Y-13933750D01*
X118658000Y-13933750D01*
X118499250Y-13775000D01*
X117858691Y-13775000D01*
X117625302Y-13871673D01*
X117446673Y-14050301D01*
X117350000Y-14283690D01*
X110287286Y-14283690D01*
X111371913Y-13385000D01*
X126670772Y-13385000D01*
X139015001Y-28815286D01*
X139015000Y-53734715D01*
X126670772Y-69165000D01*
X111371913Y-69165000D01*
X101290858Y-60812125D01*
X101956417Y-60812125D01*
X101975984Y-61035777D01*
X102466681Y-61447520D01*
X102707607Y-61523484D01*
X102959265Y-61501468D01*
X103183340Y-61384822D01*
X103345721Y-61191304D01*
X103402248Y-61123937D01*
X103382681Y-60900285D01*
X102502305Y-60161562D01*
X101956417Y-60812125D01*
X101290858Y-60812125D01*
X100046334Y-59780948D01*
X100908829Y-59780948D01*
X100930847Y-60032605D01*
X101047493Y-60256680D01*
X101538190Y-60668424D01*
X101761842Y-60648857D01*
X102307729Y-59998294D01*
X102270418Y-59966986D01*
X102665573Y-59966986D01*
X103545949Y-60705710D01*
X103769601Y-60686143D01*
X103826129Y-60618776D01*
X103988509Y-60425259D01*
X104064473Y-60184332D01*
X104042455Y-59932675D01*
X103925809Y-59708600D01*
X103435112Y-59296856D01*
X103211460Y-59316423D01*
X102665573Y-59966986D01*
X102270418Y-59966986D01*
X101427353Y-59259570D01*
X101203701Y-59279137D01*
X101147173Y-59346504D01*
X100984793Y-59540021D01*
X100908829Y-59780948D01*
X100046334Y-59780948D01*
X98912328Y-58841343D01*
X101571054Y-58841343D01*
X101590621Y-59064995D01*
X102470997Y-59803718D01*
X103016885Y-59153155D01*
X102997318Y-58929503D01*
X102506621Y-58517760D01*
X102265695Y-58441796D01*
X102014037Y-58463812D01*
X101789962Y-58580458D01*
X101627581Y-58773976D01*
X101571054Y-58841343D01*
X98912328Y-58841343D01*
X96320612Y-56693922D01*
X97077224Y-56693922D01*
X97147914Y-56936449D01*
X97306034Y-57133462D01*
X98531705Y-58161922D01*
X98753182Y-58283429D01*
X99004299Y-58310930D01*
X99246826Y-58240240D01*
X99443839Y-58082120D01*
X99968781Y-57456518D01*
X102964366Y-57456518D01*
X103035056Y-57699045D01*
X103193176Y-57896058D01*
X104418847Y-58924518D01*
X104640324Y-59046025D01*
X104827184Y-59066489D01*
X113964850Y-68204156D01*
X114014224Y-68278049D01*
X114088117Y-68327423D01*
X114088118Y-68327424D01*
X114178425Y-68387765D01*
X114306963Y-68473652D01*
X114565108Y-68525000D01*
X114565112Y-68525000D01*
X114652272Y-68542337D01*
X114739432Y-68525000D01*
X117478541Y-68525000D01*
X117527191Y-68597809D01*
X117737235Y-68738157D01*
X117985000Y-68787440D01*
X119585000Y-68787440D01*
X119832765Y-68738157D01*
X120042809Y-68597809D01*
X120183157Y-68387765D01*
X120232440Y-68140000D01*
X120232440Y-67925750D01*
X122350000Y-67925750D01*
X122350000Y-68266310D01*
X122446673Y-68499699D01*
X122625302Y-68678327D01*
X122858691Y-68775000D01*
X123499250Y-68775000D01*
X123658000Y-68616250D01*
X123658000Y-67767000D01*
X123912000Y-67767000D01*
X123912000Y-68616250D01*
X124070750Y-68775000D01*
X124711309Y-68775000D01*
X124944698Y-68678327D01*
X125123327Y-68499699D01*
X125220000Y-68266310D01*
X125220000Y-67925750D01*
X125061250Y-67767000D01*
X123912000Y-67767000D01*
X123658000Y-67767000D01*
X122508750Y-67767000D01*
X122350000Y-67925750D01*
X120232440Y-67925750D01*
X120232440Y-67140000D01*
X120207316Y-67013690D01*
X122350000Y-67013690D01*
X122350000Y-67354250D01*
X122508750Y-67513000D01*
X123658000Y-67513000D01*
X123658000Y-66663750D01*
X123912000Y-66663750D01*
X123912000Y-67513000D01*
X125061250Y-67513000D01*
X125220000Y-67354250D01*
X125220000Y-67013690D01*
X125123327Y-66780301D01*
X124944698Y-66601673D01*
X124711309Y-66505000D01*
X124070750Y-66505000D01*
X123912000Y-66663750D01*
X123658000Y-66663750D01*
X123499250Y-66505000D01*
X122858691Y-66505000D01*
X122625302Y-66601673D01*
X122446673Y-66780301D01*
X122350000Y-67013690D01*
X120207316Y-67013690D01*
X120183157Y-66892235D01*
X120042809Y-66682191D01*
X119832765Y-66541843D01*
X119585000Y-66492560D01*
X117985000Y-66492560D01*
X117737235Y-66541843D01*
X117527191Y-66682191D01*
X117478541Y-66755000D01*
X115018852Y-66755000D01*
X106097819Y-57833968D01*
X106122776Y-57606078D01*
X106052086Y-57363551D01*
X105893966Y-57166538D01*
X104668295Y-56138078D01*
X104446818Y-56016571D01*
X104195701Y-55989070D01*
X103953174Y-56059760D01*
X103756161Y-56217880D01*
X103113374Y-56983924D01*
X102991867Y-57205401D01*
X102964366Y-57456518D01*
X99968781Y-57456518D01*
X100086626Y-57316076D01*
X100208133Y-57094599D01*
X100235634Y-56843482D01*
X100164944Y-56600955D01*
X100006824Y-56403942D01*
X98781153Y-55375482D01*
X98559676Y-55253975D01*
X98308559Y-55226474D01*
X98066032Y-55297164D01*
X97869019Y-55455284D01*
X97226232Y-56221328D01*
X97104725Y-56442805D01*
X97077224Y-56693922D01*
X96320612Y-56693922D01*
X89414014Y-50971313D01*
X89393856Y-50941144D01*
X89309898Y-50885045D01*
X89285095Y-50864494D01*
X89253921Y-50847642D01*
X89167273Y-50789746D01*
X89134910Y-50783309D01*
X89105878Y-50767615D01*
X89002203Y-50756912D01*
X88899999Y-50736582D01*
X88867638Y-50743019D01*
X88834810Y-50739630D01*
X88734934Y-50769416D01*
X88632726Y-50789746D01*
X88605289Y-50808079D01*
X88573665Y-50817510D01*
X88492798Y-50883243D01*
X88463334Y-50902930D01*
X88440558Y-50925706D01*
X88362203Y-50989397D01*
X88344949Y-51021315D01*
X86077440Y-53288825D01*
X86077440Y-53100000D01*
X86028157Y-52852235D01*
X85887809Y-52642191D01*
X85677765Y-52501843D01*
X85430000Y-52452560D01*
X84430000Y-52452560D01*
X84182235Y-52501843D01*
X83972191Y-52642191D01*
X83831843Y-52852235D01*
X83782560Y-53100000D01*
X83782560Y-53290000D01*
X83424421Y-53290000D01*
X83699818Y-53014603D01*
X83865000Y-52615820D01*
X83865000Y-52184180D01*
X83804218Y-52037440D01*
X83880000Y-52037440D01*
X83896280Y-52034202D01*
X83972191Y-52147809D01*
X84182235Y-52288157D01*
X84430000Y-52337440D01*
X85430000Y-52337440D01*
X85677765Y-52288157D01*
X85887809Y-52147809D01*
X86028157Y-51937765D01*
X86077440Y-51690000D01*
X86077440Y-50890000D01*
X86028157Y-50642235D01*
X85887809Y-50432191D01*
X85677765Y-50291843D01*
X85430000Y-50242560D01*
X84527440Y-50242560D01*
X84527440Y-49890000D01*
X84506356Y-49784000D01*
X90055765Y-49784000D01*
X95155831Y-54884067D01*
X95205427Y-54958293D01*
X95499490Y-55154779D01*
X95758804Y-55206360D01*
X95846359Y-55223776D01*
X95933914Y-55206360D01*
X99987719Y-55206360D01*
X100588625Y-55710580D01*
X100810102Y-55832087D01*
X101061219Y-55859588D01*
X101303746Y-55788898D01*
X101500759Y-55630778D01*
X101860244Y-55202360D01*
X108295782Y-55202360D01*
X117337560Y-64244139D01*
X117337560Y-64940000D01*
X117386843Y-65187765D01*
X117527191Y-65397809D01*
X117737235Y-65538157D01*
X117985000Y-65587440D01*
X119585000Y-65587440D01*
X119832765Y-65538157D01*
X120042809Y-65397809D01*
X120183157Y-65187765D01*
X120232440Y-64940000D01*
X120232440Y-64249795D01*
X130928236Y-53554000D01*
X133160263Y-53554000D01*
X133191843Y-53712765D01*
X133332191Y-53922809D01*
X133542235Y-54063157D01*
X133790000Y-54112440D01*
X134790000Y-54112440D01*
X134791225Y-54112196D01*
X125348422Y-63555000D01*
X125091459Y-63555000D01*
X125042809Y-63482191D01*
X124832765Y-63341843D01*
X124585000Y-63292560D01*
X122985000Y-63292560D01*
X122737235Y-63341843D01*
X122527191Y-63482191D01*
X122386843Y-63692235D01*
X122337560Y-63940000D01*
X122337560Y-64940000D01*
X122386843Y-65187765D01*
X122527191Y-65397809D01*
X122737235Y-65538157D01*
X122985000Y-65587440D01*
X124585000Y-65587440D01*
X124832765Y-65538157D01*
X125042809Y-65397809D01*
X125091459Y-65325000D01*
X125627839Y-65325000D01*
X125715000Y-65342337D01*
X125802161Y-65325000D01*
X125802165Y-65325000D01*
X126060310Y-65273652D01*
X126353049Y-65078049D01*
X126402425Y-65004153D01*
X137294139Y-54112440D01*
X137990000Y-54112440D01*
X138237765Y-54063157D01*
X138447809Y-53922809D01*
X138588157Y-53712765D01*
X138637440Y-53465000D01*
X138637440Y-51865000D01*
X138588157Y-51617235D01*
X138447809Y-51407191D01*
X138237765Y-51266843D01*
X137990000Y-51217560D01*
X136990000Y-51217560D01*
X136742235Y-51266843D01*
X136532191Y-51407191D01*
X136391843Y-51617235D01*
X136342560Y-51865000D01*
X136342560Y-52560861D01*
X135437196Y-53466225D01*
X135437440Y-53465000D01*
X135437440Y-51865000D01*
X135388157Y-51617235D01*
X135247809Y-51407191D01*
X135037765Y-51266843D01*
X134790000Y-51217560D01*
X134099795Y-51217560D01*
X133604000Y-50721765D01*
X133604000Y-50712444D01*
X133600000Y-50692335D01*
X133600000Y-49074647D01*
X133790000Y-49112440D01*
X134790000Y-49112440D01*
X135037765Y-49063157D01*
X135247809Y-48922809D01*
X135388157Y-48712765D01*
X135437440Y-48465000D01*
X135437440Y-47950750D01*
X136355000Y-47950750D01*
X136355000Y-48591309D01*
X136451673Y-48824698D01*
X136630301Y-49003327D01*
X136863690Y-49100000D01*
X137204250Y-49100000D01*
X137363000Y-48941250D01*
X137363000Y-47792000D01*
X137617000Y-47792000D01*
X137617000Y-48941250D01*
X137775750Y-49100000D01*
X138116310Y-49100000D01*
X138349699Y-49003327D01*
X138528327Y-48824698D01*
X138625000Y-48591309D01*
X138625000Y-47950750D01*
X138466250Y-47792000D01*
X137617000Y-47792000D01*
X137363000Y-47792000D01*
X136513750Y-47792000D01*
X136355000Y-47950750D01*
X135437440Y-47950750D01*
X135437440Y-47769138D01*
X136355000Y-46851578D01*
X136355000Y-47379250D01*
X136513750Y-47538000D01*
X137363000Y-47538000D01*
X137363000Y-46388750D01*
X137617000Y-46388750D01*
X137617000Y-47538000D01*
X138466250Y-47538000D01*
X138625000Y-47379250D01*
X138625000Y-46738691D01*
X138528327Y-46505302D01*
X138349699Y-46326673D01*
X138116310Y-46230000D01*
X137775750Y-46230000D01*
X137617000Y-46388750D01*
X137363000Y-46388750D01*
X137204250Y-46230000D01*
X136976579Y-46230000D01*
X138054156Y-45152423D01*
X138128049Y-45103049D01*
X138178557Y-45027460D01*
X138323651Y-44810311D01*
X138323652Y-44810310D01*
X138375000Y-44552165D01*
X138375000Y-44552161D01*
X138392337Y-44465001D01*
X138375000Y-44377841D01*
X138375000Y-36191459D01*
X138447809Y-36142809D01*
X138588157Y-35932765D01*
X138637440Y-35685000D01*
X138637440Y-34085000D01*
X138588157Y-33837235D01*
X138447809Y-33627191D01*
X138237765Y-33486843D01*
X137990000Y-33437560D01*
X136990000Y-33437560D01*
X136742235Y-33486843D01*
X136532191Y-33627191D01*
X136391843Y-33837235D01*
X136342560Y-34085000D01*
X136342560Y-35685000D01*
X136342804Y-35686225D01*
X135437440Y-34780862D01*
X135437440Y-34085000D01*
X135388157Y-33837235D01*
X135247809Y-33627191D01*
X135175000Y-33578541D01*
X135175000Y-33412159D01*
X135192337Y-33324999D01*
X135175000Y-33237839D01*
X135175000Y-33237835D01*
X135123652Y-32979690D01*
X135020095Y-32824707D01*
X134977424Y-32760845D01*
X134977423Y-32760844D01*
X134928049Y-32686951D01*
X134854156Y-32637577D01*
X133414155Y-31197576D01*
X133542235Y-31283157D01*
X133790000Y-31332440D01*
X134790000Y-31332440D01*
X135037765Y-31283157D01*
X135247809Y-31142809D01*
X135388157Y-30932765D01*
X135437440Y-30685000D01*
X135437440Y-30170750D01*
X136355000Y-30170750D01*
X136355000Y-30811309D01*
X136451673Y-31044698D01*
X136630301Y-31223327D01*
X136863690Y-31320000D01*
X137204250Y-31320000D01*
X137363000Y-31161250D01*
X137363000Y-30012000D01*
X137617000Y-30012000D01*
X137617000Y-31161250D01*
X137775750Y-31320000D01*
X138116310Y-31320000D01*
X138349699Y-31223327D01*
X138528327Y-31044698D01*
X138625000Y-30811309D01*
X138625000Y-30170750D01*
X138466250Y-30012000D01*
X137617000Y-30012000D01*
X137363000Y-30012000D01*
X136513750Y-30012000D01*
X136355000Y-30170750D01*
X135437440Y-30170750D01*
X135437440Y-29085000D01*
X135412316Y-28958691D01*
X136355000Y-28958691D01*
X136355000Y-29599250D01*
X136513750Y-29758000D01*
X137363000Y-29758000D01*
X137363000Y-28608750D01*
X137617000Y-28608750D01*
X137617000Y-29758000D01*
X138466250Y-29758000D01*
X138625000Y-29599250D01*
X138625000Y-28958691D01*
X138528327Y-28725302D01*
X138349699Y-28546673D01*
X138116310Y-28450000D01*
X137775750Y-28450000D01*
X137617000Y-28608750D01*
X137363000Y-28608750D01*
X137204250Y-28450000D01*
X136863690Y-28450000D01*
X136630301Y-28546673D01*
X136451673Y-28725302D01*
X136355000Y-28958691D01*
X135412316Y-28958691D01*
X135388157Y-28837235D01*
X135247809Y-28627191D01*
X135175000Y-28578541D01*
X135175000Y-27062159D01*
X135192337Y-26974999D01*
X135175000Y-26887839D01*
X135175000Y-26887835D01*
X135123652Y-26629690D01*
X135001926Y-26447515D01*
X134977424Y-26410845D01*
X134977423Y-26410844D01*
X134928049Y-26336951D01*
X134854156Y-26287577D01*
X126615000Y-18048422D01*
X126615000Y-16942159D01*
X126632337Y-16854999D01*
X126615000Y-16767839D01*
X126615000Y-16767835D01*
X126563652Y-16509690D01*
X126368049Y-16216951D01*
X126294156Y-16167577D01*
X125232440Y-15105862D01*
X125232440Y-14410000D01*
X125183157Y-14162235D01*
X125042809Y-13952191D01*
X124832765Y-13811843D01*
X124585000Y-13762560D01*
X122985000Y-13762560D01*
X122737235Y-13811843D01*
X122527191Y-13952191D01*
X122386843Y-14162235D01*
X122337560Y-14410000D01*
X122337560Y-15410000D01*
X122386843Y-15657765D01*
X122527191Y-15867809D01*
X122737235Y-16008157D01*
X122985000Y-16057440D01*
X123680862Y-16057440D01*
X124586225Y-16962804D01*
X124585000Y-16962560D01*
X122985000Y-16962560D01*
X122737235Y-17011843D01*
X122527191Y-17152191D01*
X122478541Y-17225000D01*
X122312161Y-17225000D01*
X122225000Y-17207663D01*
X122137839Y-17225000D01*
X122137835Y-17225000D01*
X121879690Y-17276348D01*
X121660845Y-17422576D01*
X121660844Y-17422577D01*
X121586951Y-17471951D01*
X121537577Y-17545844D01*
X120097576Y-18985846D01*
X120183157Y-18857765D01*
X120232440Y-18610000D01*
X120232440Y-17610000D01*
X120183157Y-17362235D01*
X120042809Y-17152191D01*
X119832765Y-17011843D01*
X119585000Y-16962560D01*
X117985000Y-16962560D01*
X117737235Y-17011843D01*
X117527191Y-17152191D01*
X117386843Y-17362235D01*
X117337560Y-17610000D01*
X117337560Y-17935861D01*
X114370848Y-20902574D01*
X114370845Y-20902576D01*
X113591062Y-21682360D01*
X103633546Y-21682360D01*
X103274061Y-21253942D01*
X103077048Y-21095822D01*
X102834521Y-21025132D01*
X102583404Y-21052633D01*
X102361927Y-21174140D01*
X101136256Y-22202600D01*
X100978136Y-22399613D01*
X100907446Y-22642140D01*
X100934947Y-22893257D01*
X101056454Y-23114734D01*
X101699241Y-23880778D01*
X101896254Y-24038898D01*
X102138781Y-24109588D01*
X102389898Y-24082087D01*
X102611375Y-23960580D01*
X103217048Y-23452360D01*
X113870479Y-23452360D01*
X113957640Y-23469697D01*
X114044801Y-23452360D01*
X114044805Y-23452360D01*
X114302950Y-23401012D01*
X114595689Y-23205409D01*
X114645065Y-23131513D01*
X115622424Y-22154155D01*
X115622426Y-22154152D01*
X118519139Y-19257440D01*
X119585000Y-19257440D01*
X119832765Y-19208157D01*
X119960846Y-19122575D01*
X115640848Y-23442574D01*
X115640845Y-23442576D01*
X114949720Y-24133702D01*
X105690466Y-24133702D01*
X105330981Y-23705284D01*
X105133968Y-23547164D01*
X104891441Y-23476474D01*
X104640324Y-23503975D01*
X104418847Y-23625482D01*
X103193176Y-24653942D01*
X103035056Y-24850955D01*
X102964366Y-25093482D01*
X102991867Y-25344599D01*
X103113374Y-25566076D01*
X103632000Y-26184151D01*
X103632000Y-26682764D01*
X102279165Y-28035600D01*
X102265053Y-27906743D01*
X102143546Y-27685266D01*
X101500759Y-26919222D01*
X101303746Y-26761102D01*
X101061219Y-26690412D01*
X100810102Y-26717913D01*
X100588625Y-26839420D01*
X99362954Y-27867880D01*
X99204834Y-28064893D01*
X99134144Y-28307420D01*
X99161645Y-28558537D01*
X99283152Y-28780014D01*
X99673067Y-29244697D01*
X89039765Y-39878000D01*
X80378236Y-39878000D01*
X80129654Y-39629418D01*
X80147440Y-39540000D01*
X80147440Y-38540000D01*
X80098157Y-38292235D01*
X79957809Y-38082191D01*
X79747765Y-37941843D01*
X79500000Y-37892560D01*
X77900000Y-37892560D01*
X77652235Y-37941843D01*
X77442191Y-38082191D01*
X77301843Y-38292235D01*
X77252560Y-38540000D01*
X77252560Y-39540000D01*
X77301843Y-39787765D01*
X77442191Y-39997809D01*
X77652235Y-40138157D01*
X77900000Y-40187440D01*
X78173205Y-40187440D01*
X79078324Y-41092560D01*
X77900000Y-41092560D01*
X77652235Y-41141843D01*
X77442191Y-41282191D01*
X77301843Y-41492235D01*
X77252560Y-41740000D01*
X77252560Y-42145861D01*
X76468422Y-42930000D01*
X75109647Y-42930000D01*
X75147440Y-42740000D01*
X75147440Y-41740000D01*
X75098157Y-41492235D01*
X74957809Y-41282191D01*
X74747765Y-41141843D01*
X74500000Y-41092560D01*
X72900000Y-41092560D01*
X72652235Y-41141843D01*
X72442191Y-41282191D01*
X72393541Y-41355000D01*
X70568852Y-41355000D01*
X68539602Y-39325750D01*
X72265000Y-39325750D01*
X72265000Y-39666310D01*
X72361673Y-39899699D01*
X72540302Y-40078327D01*
X72773691Y-40175000D01*
X73414250Y-40175000D01*
X73573000Y-40016250D01*
X73573000Y-39167000D01*
X73827000Y-39167000D01*
X73827000Y-40016250D01*
X73985750Y-40175000D01*
X74626309Y-40175000D01*
X74859698Y-40078327D01*
X75038327Y-39899699D01*
X75135000Y-39666310D01*
X75135000Y-39325750D01*
X74976250Y-39167000D01*
X73827000Y-39167000D01*
X73573000Y-39167000D01*
X72423750Y-39167000D01*
X72265000Y-39325750D01*
X68539602Y-39325750D01*
X67627542Y-38413690D01*
X72265000Y-38413690D01*
X72265000Y-38754250D01*
X72423750Y-38913000D01*
X73573000Y-38913000D01*
X73573000Y-38063750D01*
X73827000Y-38063750D01*
X73827000Y-38913000D01*
X74976250Y-38913000D01*
X75135000Y-38754250D01*
X75135000Y-38413690D01*
X75038327Y-38180301D01*
X74859698Y-38001673D01*
X74626309Y-37905000D01*
X73985750Y-37905000D01*
X73827000Y-38063750D01*
X73573000Y-38063750D01*
X73414250Y-37905000D01*
X72773691Y-37905000D01*
X72540302Y-38001673D01*
X72361673Y-38180301D01*
X72265000Y-38413690D01*
X67627542Y-38413690D01*
X55297819Y-26083968D01*
X55322776Y-25856078D01*
X55252086Y-25613551D01*
X55093966Y-25416538D01*
X53868295Y-24388078D01*
X53646818Y-24266571D01*
X53395701Y-24239070D01*
X53153174Y-24309760D01*
X52956161Y-24467880D01*
X52313374Y-25233924D01*
X52191867Y-25455401D01*
X52164366Y-25706518D01*
X52235056Y-25949045D01*
X52393176Y-26146058D01*
X53618847Y-27174518D01*
X53840324Y-27296025D01*
X54027184Y-27316489D01*
X69514849Y-42804155D01*
X69564224Y-42878049D01*
X69638117Y-42927423D01*
X69638118Y-42927424D01*
X69641973Y-42930000D01*
X67635590Y-42930000D01*
X55155532Y-30449943D01*
X55151235Y-30428342D01*
X54940714Y-30113275D01*
X54849595Y-30052391D01*
X54841852Y-30040803D01*
X53250321Y-28449273D01*
X53265856Y-28307420D01*
X53195166Y-28064893D01*
X53037046Y-27867880D01*
X51811375Y-26839420D01*
X51589898Y-26717913D01*
X51338781Y-26690412D01*
X51096254Y-26761102D01*
X50899241Y-26919222D01*
X50539756Y-27347640D01*
X49554219Y-27347640D01*
X48585512Y-26378933D01*
X48643839Y-26332120D01*
X49286626Y-25566076D01*
X49408133Y-25344599D01*
X49435634Y-25093482D01*
X49364944Y-24850955D01*
X49206824Y-24653942D01*
X48741429Y-24263429D01*
X48741429Y-23396845D01*
X49383115Y-23396845D01*
X49402682Y-23620497D01*
X49893379Y-24032240D01*
X50134305Y-24108204D01*
X50385963Y-24086188D01*
X50610038Y-23969542D01*
X50772419Y-23776024D01*
X50828946Y-23708657D01*
X50809379Y-23485005D01*
X49929003Y-22746282D01*
X49383115Y-23396845D01*
X48741429Y-23396845D01*
X48741429Y-23065639D01*
X48964888Y-23253144D01*
X49188540Y-23233577D01*
X49734427Y-22583014D01*
X49697116Y-22551706D01*
X50092271Y-22551706D01*
X50972647Y-23290430D01*
X51196299Y-23270863D01*
X51252827Y-23203496D01*
X51415207Y-23009979D01*
X51491171Y-22769052D01*
X51469153Y-22517395D01*
X51352507Y-22293320D01*
X50861810Y-21881576D01*
X50638158Y-21901143D01*
X50092271Y-22551706D01*
X49697116Y-22551706D01*
X48854051Y-21844290D01*
X48630399Y-21863857D01*
X48573871Y-21931224D01*
X48571648Y-21933873D01*
X48543853Y-21892274D01*
X48543852Y-21892273D01*
X48494478Y-21818380D01*
X48420585Y-21769006D01*
X48077642Y-21426063D01*
X48997752Y-21426063D01*
X49017319Y-21649715D01*
X49897695Y-22388438D01*
X50443583Y-21737875D01*
X50424016Y-21514223D01*
X49933319Y-21102480D01*
X49692393Y-21026516D01*
X49440735Y-21048532D01*
X49216660Y-21165178D01*
X49054279Y-21358696D01*
X48997752Y-21426063D01*
X48077642Y-21426063D01*
X40997425Y-14345847D01*
X40948049Y-14271951D01*
X40655310Y-14076348D01*
X40397165Y-14025000D01*
X40397161Y-14025000D01*
X40310000Y-14007663D01*
X40222839Y-14025000D01*
X34921459Y-14025000D01*
X34872809Y-13952191D01*
X34662765Y-13811843D01*
X34415000Y-13762560D01*
X32815000Y-13762560D01*
X32567235Y-13811843D01*
X32357191Y-13952191D01*
X32216843Y-14162235D01*
X32167560Y-14410000D01*
X32167560Y-15410000D01*
X32216843Y-15657765D01*
X32357191Y-15867809D01*
X32567235Y-16008157D01*
X32815000Y-16057440D01*
X34415000Y-16057440D01*
X34662765Y-16008157D01*
X34872809Y-15867809D01*
X34921459Y-15795000D01*
X39943422Y-15795000D01*
X46971430Y-22823009D01*
X46971429Y-23821587D01*
X46541060Y-24334481D01*
X41644926Y-19438348D01*
X41644924Y-19438345D01*
X39752425Y-17545847D01*
X39703049Y-17471951D01*
X39410310Y-17276348D01*
X39152165Y-17225000D01*
X39152161Y-17225000D01*
X39065000Y-17207663D01*
X38977839Y-17225000D01*
X34921459Y-17225000D01*
X34872809Y-17152191D01*
X34662765Y-17011843D01*
X34415000Y-16962560D01*
X32815000Y-16962560D01*
X32567235Y-17011843D01*
X32357191Y-17152191D01*
X32216843Y-17362235D01*
X32167560Y-17610000D01*
X32167560Y-18015861D01*
X30748422Y-19435000D01*
X27762161Y-19435000D01*
X27675000Y-19417663D01*
X27587839Y-19435000D01*
X27587835Y-19435000D01*
X27329690Y-19486348D01*
X27110845Y-19632576D01*
X27110844Y-19632577D01*
X27036951Y-19681951D01*
X26987577Y-19755844D01*
X18305862Y-28437560D01*
X17610000Y-28437560D01*
X17362235Y-28486843D01*
X17152191Y-28627191D01*
X17011843Y-28837235D01*
X16962560Y-29085000D01*
X16962560Y-30685000D01*
X17011843Y-30932765D01*
X17152191Y-31142809D01*
X17362235Y-31283157D01*
X17610000Y-31332440D01*
X18047402Y-31332440D01*
X18351500Y-31636538D01*
X18351500Y-33437560D01*
X17610000Y-33437560D01*
X17362235Y-33486843D01*
X17152191Y-33627191D01*
X17011843Y-33837235D01*
X16962560Y-34085000D01*
X16962560Y-35685000D01*
X17011843Y-35932765D01*
X17152191Y-36142809D01*
X17225000Y-36191459D01*
X17225001Y-44098420D01*
X15105862Y-46217560D01*
X14410000Y-46217560D01*
X14162235Y-46266843D01*
X13952191Y-46407191D01*
X13811843Y-46617235D01*
X13762560Y-46865000D01*
X13762560Y-48465000D01*
X13811843Y-48712765D01*
X13952191Y-48922809D01*
X14162235Y-49063157D01*
X14410000Y-49112440D01*
X15410000Y-49112440D01*
X15657765Y-49063157D01*
X15867809Y-48922809D01*
X16008157Y-48712765D01*
X16057440Y-48465000D01*
X16057440Y-47769138D01*
X16962804Y-46863775D01*
X16962560Y-46865000D01*
X16962560Y-48465000D01*
X17011843Y-48712765D01*
X17152191Y-48922809D01*
X17157501Y-48926357D01*
X17157501Y-49766185D01*
X17138840Y-49860000D01*
X17212765Y-50231646D01*
X17212766Y-50231647D01*
X17423287Y-50546714D01*
X17502817Y-50599855D01*
X18120522Y-51217560D01*
X17610000Y-51217560D01*
X17362235Y-51266843D01*
X17152191Y-51407191D01*
X17011843Y-51617235D01*
X16962560Y-51865000D01*
X16962560Y-53465000D01*
X17011843Y-53712765D01*
X17152191Y-53922809D01*
X17225000Y-53971459D01*
X17225001Y-57047835D01*
X17207663Y-57135000D01*
X17276348Y-57480309D01*
X17422576Y-57699154D01*
X17422578Y-57699156D01*
X17471952Y-57773049D01*
X17545845Y-57822423D01*
X27167560Y-67444139D01*
X27167560Y-68140000D01*
X27216843Y-68387765D01*
X27357191Y-68597809D01*
X27567235Y-68738157D01*
X27815000Y-68787440D01*
X29415000Y-68787440D01*
X29662765Y-68738157D01*
X29872809Y-68597809D01*
X30013157Y-68387765D01*
X30062440Y-68140000D01*
X30062440Y-67925750D01*
X32180000Y-67925750D01*
X32180000Y-68266310D01*
X32276673Y-68499699D01*
X32455302Y-68678327D01*
X32688691Y-68775000D01*
X33329250Y-68775000D01*
X33488000Y-68616250D01*
X33488000Y-67767000D01*
X33742000Y-67767000D01*
X33742000Y-68616250D01*
X33900750Y-68775000D01*
X34541309Y-68775000D01*
X34774698Y-68678327D01*
X34953327Y-68499699D01*
X35050000Y-68266310D01*
X35050000Y-67925750D01*
X34891250Y-67767000D01*
X33742000Y-67767000D01*
X33488000Y-67767000D01*
X32338750Y-67767000D01*
X32180000Y-67925750D01*
X30062440Y-67925750D01*
X30062440Y-67140000D01*
X30037316Y-67013690D01*
X32180000Y-67013690D01*
X32180000Y-67354250D01*
X32338750Y-67513000D01*
X33488000Y-67513000D01*
X33488000Y-66663750D01*
X33742000Y-66663750D01*
X33742000Y-67513000D01*
X34891250Y-67513000D01*
X35050000Y-67354250D01*
X35050000Y-67013690D01*
X34953327Y-66780301D01*
X34774698Y-66601673D01*
X34541309Y-66505000D01*
X33900750Y-66505000D01*
X33742000Y-66663750D01*
X33488000Y-66663750D01*
X33329250Y-66505000D01*
X32688691Y-66505000D01*
X32455302Y-66601673D01*
X32276673Y-66780301D01*
X32180000Y-67013690D01*
X30037316Y-67013690D01*
X30013157Y-66892235D01*
X29872809Y-66682191D01*
X29662765Y-66541843D01*
X29415000Y-66492560D01*
X28719139Y-66492560D01*
X27813775Y-65587196D01*
X27815000Y-65587440D01*
X29415000Y-65587440D01*
X29662765Y-65538157D01*
X29872809Y-65397809D01*
X30013157Y-65187765D01*
X30062440Y-64940000D01*
X30062440Y-64534138D01*
X30656578Y-63940000D01*
X32167560Y-63940000D01*
X32167560Y-64940000D01*
X32216843Y-65187765D01*
X32357191Y-65397809D01*
X32567235Y-65538157D01*
X32815000Y-65587440D01*
X34415000Y-65587440D01*
X34662765Y-65538157D01*
X34872809Y-65397809D01*
X34921459Y-65325000D01*
X43422839Y-65325000D01*
X43510000Y-65342337D01*
X43597161Y-65325000D01*
X43597165Y-65325000D01*
X43855310Y-65273652D01*
X44148049Y-65078049D01*
X44197425Y-65004153D01*
X48333939Y-60867640D01*
X48766454Y-60867640D01*
X49125939Y-61296058D01*
X49322952Y-61454178D01*
X49565479Y-61524868D01*
X49816596Y-61497367D01*
X50038073Y-61375860D01*
X51263744Y-60347400D01*
X51421864Y-60150387D01*
X51492554Y-59907860D01*
X51465053Y-59656743D01*
X51343546Y-59435266D01*
X50700759Y-58669222D01*
X50503746Y-58511102D01*
X50261219Y-58440412D01*
X50010102Y-58467913D01*
X49788625Y-58589420D01*
X49182952Y-59097640D01*
X48054521Y-59097640D01*
X47967360Y-59080303D01*
X47880199Y-59097640D01*
X47880195Y-59097640D01*
X47622050Y-59148988D01*
X47403205Y-59295216D01*
X47403204Y-59295217D01*
X47329311Y-59344591D01*
X47279937Y-59418484D01*
X43143422Y-63555000D01*
X34921459Y-63555000D01*
X34872809Y-63482191D01*
X34662765Y-63341843D01*
X34415000Y-63292560D01*
X32815000Y-63292560D01*
X32567235Y-63341843D01*
X32357191Y-63482191D01*
X32216843Y-63692235D01*
X32167560Y-63940000D01*
X30656578Y-63940000D01*
X32116579Y-62480000D01*
X43705566Y-62480000D01*
X43792727Y-62497337D01*
X43879888Y-62480000D01*
X43879892Y-62480000D01*
X44138037Y-62428652D01*
X44430776Y-62233049D01*
X44480152Y-62159153D01*
X47572817Y-59066489D01*
X47759676Y-59046025D01*
X47981153Y-58924518D01*
X49190209Y-57909999D01*
X52827974Y-57909999D01*
X52884501Y-57977366D01*
X53046882Y-58170884D01*
X53270957Y-58287530D01*
X53522615Y-58309546D01*
X53763541Y-58233582D01*
X54254238Y-57821839D01*
X54273805Y-57598187D01*
X53727917Y-56947624D01*
X52847541Y-57686347D01*
X52827974Y-57909999D01*
X49190209Y-57909999D01*
X49206824Y-57896058D01*
X49364944Y-57699045D01*
X49435634Y-57456518D01*
X49408133Y-57205401D01*
X49286626Y-56983924D01*
X49275273Y-56970394D01*
X52165749Y-56970394D01*
X52241713Y-57211321D01*
X52404093Y-57404838D01*
X52460621Y-57472205D01*
X52684273Y-57491772D01*
X53527337Y-56784356D01*
X53922493Y-56784356D01*
X54468380Y-57434919D01*
X54692032Y-57454486D01*
X55182729Y-57042742D01*
X55299375Y-56818667D01*
X55321393Y-56567010D01*
X55245429Y-56326083D01*
X55083049Y-56132566D01*
X55026521Y-56065199D01*
X54802869Y-56045632D01*
X53922493Y-56784356D01*
X53527337Y-56784356D01*
X53564649Y-56753048D01*
X53018762Y-56102485D01*
X52795110Y-56082918D01*
X52304413Y-56494662D01*
X52187767Y-56718737D01*
X52165749Y-56970394D01*
X49275273Y-56970394D01*
X48643839Y-56217880D01*
X48446826Y-56059760D01*
X48204299Y-55989070D01*
X47953182Y-56016571D01*
X47731705Y-56138078D01*
X46506034Y-57166538D01*
X46347914Y-57363551D01*
X46277224Y-57606078D01*
X46302181Y-57833967D01*
X43426149Y-60710000D01*
X31837161Y-60710000D01*
X31750000Y-60692663D01*
X31662839Y-60710000D01*
X31662835Y-60710000D01*
X31404690Y-60761348D01*
X31185845Y-60907576D01*
X31185844Y-60907577D01*
X31111951Y-60956951D01*
X31062577Y-61030844D01*
X28807730Y-63285692D01*
X21461255Y-55939217D01*
X53213337Y-55939217D01*
X53759225Y-56589780D01*
X54639601Y-55851057D01*
X54659168Y-55627405D01*
X54602641Y-55560038D01*
X54440260Y-55366520D01*
X54216185Y-55249874D01*
X53964527Y-55227858D01*
X53723601Y-55303822D01*
X53232904Y-55715565D01*
X53213337Y-55939217D01*
X21461255Y-55939217D01*
X20383500Y-54861463D01*
X20383500Y-52290810D01*
X20438765Y-52568646D01*
X20495320Y-52653286D01*
X20649287Y-52883714D01*
X20728817Y-52936854D01*
X22501147Y-54709186D01*
X22554286Y-54788714D01*
X22633813Y-54841852D01*
X22633814Y-54841853D01*
X22869353Y-54999235D01*
X23241000Y-55073160D01*
X23334810Y-55054500D01*
X39022190Y-55054500D01*
X39116000Y-55073160D01*
X39209810Y-55054500D01*
X39487647Y-54999235D01*
X39802714Y-54788714D01*
X39855856Y-54709181D01*
X40617853Y-53947186D01*
X40667689Y-53872601D01*
X40670655Y-53869635D01*
X40672260Y-53865760D01*
X40775235Y-53711647D01*
X40811395Y-53529858D01*
X40813000Y-53525983D01*
X40813000Y-53521789D01*
X40849160Y-53340000D01*
X40813000Y-53158211D01*
X40813000Y-53154017D01*
X40811395Y-53150142D01*
X40775235Y-52968353D01*
X40672260Y-52814240D01*
X40670655Y-52810365D01*
X40667689Y-52807399D01*
X40564714Y-52653286D01*
X40410601Y-52550311D01*
X40407635Y-52547345D01*
X40403760Y-52545740D01*
X40249647Y-52442765D01*
X40067858Y-52406605D01*
X40063983Y-52405000D01*
X40059789Y-52405000D01*
X39878000Y-52368840D01*
X39696211Y-52405000D01*
X39692017Y-52405000D01*
X39688142Y-52406605D01*
X39506353Y-52442765D01*
X39352240Y-52545740D01*
X39348365Y-52547345D01*
X39345399Y-52550311D01*
X39285440Y-52590374D01*
X39285440Y-52419598D01*
X39532183Y-52172855D01*
X39611714Y-52119714D01*
X39822235Y-51804647D01*
X39830850Y-51761335D01*
X39896160Y-51433001D01*
X39877500Y-51339191D01*
X39877500Y-50704766D01*
X39925000Y-50673027D01*
X40127235Y-50808157D01*
X40375000Y-50857440D01*
X41475000Y-50857440D01*
X41722765Y-50808157D01*
X41925000Y-50673027D01*
X42127235Y-50808157D01*
X42375000Y-50857440D01*
X43475000Y-50857440D01*
X43722765Y-50808157D01*
X43925000Y-50673027D01*
X44040000Y-50749868D01*
X44040000Y-52457839D01*
X44022663Y-52545000D01*
X44040000Y-52632161D01*
X44040000Y-52632164D01*
X44091348Y-52890309D01*
X44286951Y-53183049D01*
X44360847Y-53232425D01*
X46009937Y-54881516D01*
X46059311Y-54955409D01*
X46133204Y-55004783D01*
X46133205Y-55004784D01*
X46137852Y-55007889D01*
X46352050Y-55151012D01*
X46610195Y-55202360D01*
X46610199Y-55202360D01*
X46697360Y-55219697D01*
X46784521Y-55202360D01*
X50539756Y-55202360D01*
X50899241Y-55630778D01*
X51096254Y-55788898D01*
X51338781Y-55859588D01*
X51589898Y-55832087D01*
X51811375Y-55710580D01*
X53037046Y-54682120D01*
X53195166Y-54485107D01*
X53265856Y-54242580D01*
X53238355Y-53991463D01*
X53116848Y-53769986D01*
X52474061Y-53003942D01*
X52277048Y-52845822D01*
X52034521Y-52775132D01*
X51783404Y-52802633D01*
X51561927Y-52924140D01*
X50956254Y-53432360D01*
X47063939Y-53432360D01*
X45810000Y-52178422D01*
X45810000Y-50749868D01*
X45925000Y-50673027D01*
X46127235Y-50808157D01*
X46375000Y-50857440D01*
X47475000Y-50857440D01*
X47722765Y-50808157D01*
X47925000Y-50673027D01*
X48127235Y-50808157D01*
X48375000Y-50857440D01*
X49475000Y-50857440D01*
X49722765Y-50808157D01*
X49932809Y-50667809D01*
X50073157Y-50457765D01*
X50122440Y-50210000D01*
X50122440Y-49212500D01*
X54782190Y-49212500D01*
X54876000Y-49231160D01*
X54969810Y-49212500D01*
X55247647Y-49157235D01*
X55562714Y-48946714D01*
X55615856Y-48867181D01*
X56728598Y-47754440D01*
X56904000Y-47754440D01*
X57151765Y-47705157D01*
X57361809Y-47564809D01*
X57402654Y-47503680D01*
X57544302Y-47645327D01*
X57777691Y-47742000D01*
X58118250Y-47742000D01*
X58277000Y-47583250D01*
X58277000Y-46609000D01*
X58531000Y-46609000D01*
X58531000Y-47583250D01*
X58689750Y-47742000D01*
X59030309Y-47742000D01*
X59263698Y-47645327D01*
X59442327Y-47466699D01*
X59539000Y-47233310D01*
X59539000Y-46767750D01*
X59380250Y-46609000D01*
X58531000Y-46609000D01*
X58277000Y-46609000D01*
X58257000Y-46609000D01*
X58257000Y-46355000D01*
X58277000Y-46355000D01*
X58277000Y-45380750D01*
X58531000Y-45380750D01*
X58531000Y-46355000D01*
X59380250Y-46355000D01*
X59539000Y-46196250D01*
X59539000Y-45730690D01*
X59442327Y-45497301D01*
X59263698Y-45318673D01*
X59030309Y-45222000D01*
X58689750Y-45222000D01*
X58531000Y-45380750D01*
X58277000Y-45380750D01*
X58118250Y-45222000D01*
X57777691Y-45222000D01*
X57544302Y-45318673D01*
X57402654Y-45460320D01*
X57361809Y-45399191D01*
X57170199Y-45271161D01*
X55901440Y-44002402D01*
X55901440Y-42952000D01*
X55852157Y-42704235D01*
X55751073Y-42552953D01*
X55792327Y-42511699D01*
X55889000Y-42278310D01*
X55889000Y-41687750D01*
X58919000Y-41687750D01*
X58919000Y-43428310D01*
X59015673Y-43661699D01*
X59194302Y-43840327D01*
X59427691Y-43937000D01*
X60268250Y-43937000D01*
X60427000Y-43778250D01*
X60427000Y-41529000D01*
X60681000Y-41529000D01*
X60681000Y-43778250D01*
X60839750Y-43937000D01*
X61680309Y-43937000D01*
X61913698Y-43840327D01*
X62092327Y-43661699D01*
X62189000Y-43428310D01*
X62189000Y-41687750D01*
X62030250Y-41529000D01*
X60681000Y-41529000D01*
X60427000Y-41529000D01*
X59077750Y-41529000D01*
X58919000Y-41687750D01*
X55889000Y-41687750D01*
X55730250Y-41529000D01*
X54381000Y-41529000D01*
X54381000Y-41549000D01*
X54127000Y-41549000D01*
X54127000Y-41529000D01*
X52777750Y-41529000D01*
X52619000Y-41687750D01*
X52619000Y-42278310D01*
X52715673Y-42511699D01*
X52756927Y-42552953D01*
X52655843Y-42704235D01*
X52606560Y-42952000D01*
X52606560Y-44452000D01*
X52655843Y-44699765D01*
X52796191Y-44909809D01*
X53006235Y-45050157D01*
X53254000Y-45099440D01*
X54304402Y-45099440D01*
X55256560Y-46051598D01*
X55256560Y-46532402D01*
X54481463Y-47307500D01*
X52288374Y-47307500D01*
X52332809Y-47277809D01*
X52473157Y-47067765D01*
X52522440Y-46820000D01*
X52522440Y-45720000D01*
X52473157Y-45472235D01*
X52338027Y-45270000D01*
X52473157Y-45067765D01*
X52522440Y-44820000D01*
X52522440Y-43720000D01*
X52473157Y-43472235D01*
X52338027Y-43270000D01*
X52473157Y-43067765D01*
X52522440Y-42820000D01*
X52522440Y-41720000D01*
X52473157Y-41472235D01*
X52338027Y-41270000D01*
X52473157Y-41067765D01*
X52522440Y-40820000D01*
X52522440Y-39720000D01*
X52473157Y-39472235D01*
X52338027Y-39270000D01*
X52473157Y-39067765D01*
X52522440Y-38820000D01*
X52522440Y-37720000D01*
X52473157Y-37472235D01*
X52338027Y-37270000D01*
X52473157Y-37067765D01*
X52522440Y-36820000D01*
X52522440Y-35720000D01*
X52473157Y-35472235D01*
X52332809Y-35262191D01*
X52122765Y-35121843D01*
X51875000Y-35072560D01*
X50053563Y-35072560D01*
X50110000Y-34936309D01*
X50110000Y-33845750D01*
X49951250Y-33687000D01*
X49052000Y-33687000D01*
X49052000Y-33707000D01*
X48798000Y-33707000D01*
X48798000Y-33687000D01*
X48778000Y-33687000D01*
X48778000Y-33433000D01*
X48798000Y-33433000D01*
X48798000Y-31833750D01*
X49052000Y-31833750D01*
X49052000Y-33433000D01*
X49951250Y-33433000D01*
X50110000Y-33274250D01*
X50110000Y-32183691D01*
X50013327Y-31950302D01*
X49834699Y-31771673D01*
X49601310Y-31675000D01*
X49210750Y-31675000D01*
X49052000Y-31833750D01*
X48798000Y-31833750D01*
X48639250Y-31675000D01*
X48248690Y-31675000D01*
X48015301Y-31771673D01*
X47933600Y-31853375D01*
X47932809Y-31852191D01*
X47877500Y-31815234D01*
X47877500Y-31122041D01*
X47882721Y-31095791D01*
X47940673Y-31235699D01*
X48119302Y-31414327D01*
X48352691Y-31511000D01*
X48543250Y-31511000D01*
X48702000Y-31352250D01*
X48702000Y-30353000D01*
X48956000Y-30353000D01*
X48956000Y-31352250D01*
X49114750Y-31511000D01*
X49305309Y-31511000D01*
X49538698Y-31414327D01*
X49717327Y-31235699D01*
X49814000Y-31002310D01*
X49814000Y-30511750D01*
X49655250Y-30353000D01*
X48956000Y-30353000D01*
X48702000Y-30353000D01*
X48682000Y-30353000D01*
X48682000Y-30099000D01*
X48702000Y-30099000D01*
X48702000Y-30079000D01*
X48956000Y-30079000D01*
X48956000Y-30099000D01*
X49655250Y-30099000D01*
X49814000Y-29940250D01*
X49814000Y-29449690D01*
X49717327Y-29216301D01*
X49618665Y-29117640D01*
X50956254Y-29117640D01*
X51561927Y-29625860D01*
X51783404Y-29747367D01*
X51863065Y-29756091D01*
X53301501Y-31194528D01*
X53301500Y-37704560D01*
X53254000Y-37704560D01*
X53006235Y-37753843D01*
X52796191Y-37894191D01*
X52655843Y-38104235D01*
X52606560Y-38352000D01*
X52606560Y-39852000D01*
X52655843Y-40099765D01*
X52756927Y-40251047D01*
X52715673Y-40292301D01*
X52619000Y-40525690D01*
X52619000Y-41116250D01*
X52777750Y-41275000D01*
X54127000Y-41275000D01*
X54127000Y-41255000D01*
X54381000Y-41255000D01*
X54381000Y-41275000D01*
X55730250Y-41275000D01*
X55889000Y-41116250D01*
X55889000Y-40525690D01*
X55792327Y-40292301D01*
X55751073Y-40251047D01*
X55852157Y-40099765D01*
X55901440Y-39852000D01*
X55901440Y-39375690D01*
X58919000Y-39375690D01*
X58919000Y-41116250D01*
X59077750Y-41275000D01*
X60427000Y-41275000D01*
X60427000Y-39025750D01*
X60268250Y-38867000D01*
X59427691Y-38867000D01*
X59194302Y-38963673D01*
X59015673Y-39142301D01*
X58919000Y-39375690D01*
X55901440Y-39375690D01*
X55901440Y-38352000D01*
X55852157Y-38104235D01*
X55711809Y-37894191D01*
X55501765Y-37753843D01*
X55254000Y-37704560D01*
X55206500Y-37704560D01*
X55206500Y-33004067D01*
X61069432Y-38867000D01*
X60839750Y-38867000D01*
X60681000Y-39025750D01*
X60681000Y-41275000D01*
X62030250Y-41275000D01*
X62189000Y-41116250D01*
X62189000Y-39986568D01*
X66581588Y-44379156D01*
X66630962Y-44453049D01*
X66704855Y-44502423D01*
X66704856Y-44502424D01*
X66861233Y-44606912D01*
X66923701Y-44648652D01*
X67181846Y-44700000D01*
X67181850Y-44700000D01*
X67269011Y-44717337D01*
X67356172Y-44700000D01*
X69612764Y-44700000D01*
X69253296Y-45059469D01*
X69179067Y-45109067D01*
X68982581Y-45403131D01*
X68931000Y-45662444D01*
X68913584Y-45750000D01*
X68931000Y-45837555D01*
X68931001Y-48093556D01*
X68982582Y-48352870D01*
X68994501Y-48370708D01*
X68994501Y-48489910D01*
X68879324Y-48467000D01*
X68360676Y-48467000D01*
X68036900Y-48531403D01*
X67669735Y-48776735D01*
X67424403Y-49143900D01*
X67338254Y-49577000D01*
X67424403Y-50010100D01*
X67669735Y-50377265D01*
X68036900Y-50622597D01*
X68360676Y-50687000D01*
X68879324Y-50687000D01*
X69115553Y-50640011D01*
X69162191Y-50709809D01*
X69372235Y-50850157D01*
X69620000Y-50899440D01*
X70020000Y-50899440D01*
X70145000Y-50874576D01*
X70270000Y-50899440D01*
X70670000Y-50899440D01*
X70795000Y-50874576D01*
X70920000Y-50899440D01*
X71320000Y-50899440D01*
X71445000Y-50874576D01*
X71570000Y-50899440D01*
X71970000Y-50899440D01*
X72073852Y-50878783D01*
X72093690Y-50887000D01*
X72161250Y-50887000D01*
X72193208Y-50855042D01*
X72217765Y-50850157D01*
X72427809Y-50709809D01*
X72520000Y-50571836D01*
X72520000Y-50728250D01*
X72678750Y-50887000D01*
X72746310Y-50887000D01*
X72979699Y-50790327D01*
X73129090Y-50640935D01*
X73360676Y-50687000D01*
X73879324Y-50687000D01*
X74203100Y-50622597D01*
X74570265Y-50377265D01*
X74815597Y-50010100D01*
X74901746Y-49577000D01*
X74815597Y-49143900D01*
X74570265Y-48776735D01*
X74203100Y-48531403D01*
X73879324Y-48467000D01*
X73360676Y-48467000D01*
X73129090Y-48513065D01*
X72979699Y-48363673D01*
X72746310Y-48267000D01*
X72678750Y-48267000D01*
X72520000Y-48425750D01*
X72520000Y-48582164D01*
X72427809Y-48444191D01*
X72217765Y-48303843D01*
X72193208Y-48298958D01*
X72161250Y-48267000D01*
X72093690Y-48267000D01*
X72073852Y-48275217D01*
X71970000Y-48254560D01*
X71570000Y-48254560D01*
X71445000Y-48279424D01*
X71320000Y-48254560D01*
X70920000Y-48254560D01*
X70795000Y-48279424D01*
X70676709Y-48255894D01*
X70709000Y-48093556D01*
X70709000Y-46118235D01*
X70980236Y-45847000D01*
X78229581Y-45847000D01*
X78122500Y-46105517D01*
X78122500Y-46477483D01*
X78141001Y-46522148D01*
X78141000Y-48946555D01*
X78141001Y-48946560D01*
X78141001Y-49553700D01*
X78081843Y-49642235D01*
X78032560Y-49890000D01*
X78032560Y-50242560D01*
X77130000Y-50242560D01*
X76882235Y-50291843D01*
X76672191Y-50432191D01*
X76531843Y-50642235D01*
X76482560Y-50890000D01*
X76482560Y-51690000D01*
X76531843Y-51937765D01*
X76672191Y-52147809D01*
X76882235Y-52288157D01*
X77130000Y-52337440D01*
X78130000Y-52337440D01*
X78377765Y-52288157D01*
X78587809Y-52147809D01*
X78663720Y-52034202D01*
X78680000Y-52037440D01*
X78755782Y-52037440D01*
X78695000Y-52184180D01*
X78695000Y-52615820D01*
X78860182Y-53014603D01*
X79135579Y-53290000D01*
X78777440Y-53290000D01*
X78777440Y-53100000D01*
X78728157Y-52852235D01*
X78587809Y-52642191D01*
X78377765Y-52501843D01*
X78130000Y-52452560D01*
X77130000Y-52452560D01*
X76882235Y-52501843D01*
X76672191Y-52642191D01*
X76531843Y-52852235D01*
X76482560Y-53100000D01*
X76482560Y-53290000D01*
X75491936Y-53290000D01*
X75689146Y-52994854D01*
X75755000Y-52663782D01*
X75755000Y-51890217D01*
X75689146Y-51559145D01*
X75438289Y-51183711D01*
X75062854Y-50932854D01*
X74620000Y-50844765D01*
X74177145Y-50932854D01*
X73801711Y-51183711D01*
X73550854Y-51559146D01*
X73485000Y-51890218D01*
X73485000Y-52663783D01*
X73550854Y-52994855D01*
X73748064Y-53290000D01*
X68491936Y-53290000D01*
X68689146Y-52994854D01*
X68755000Y-52663782D01*
X68755000Y-51890217D01*
X68689146Y-51559145D01*
X68438289Y-51183711D01*
X68062854Y-50932854D01*
X67620000Y-50844765D01*
X67177145Y-50932854D01*
X66801711Y-51183711D01*
X66550854Y-51559146D01*
X66485000Y-51890218D01*
X66485000Y-52663783D01*
X66550854Y-52994855D01*
X66748064Y-53290000D01*
X66323736Y-53290000D01*
X64055052Y-51021317D01*
X64037797Y-50989397D01*
X63959437Y-50925702D01*
X63936665Y-50902930D01*
X63907207Y-50883247D01*
X63826335Y-50817510D01*
X63794710Y-50808078D01*
X63767273Y-50789746D01*
X63665064Y-50769415D01*
X63565190Y-50739630D01*
X63532365Y-50743019D01*
X63500000Y-50736581D01*
X63397790Y-50756912D01*
X63294121Y-50767615D01*
X63265089Y-50783309D01*
X63232727Y-50789746D01*
X63146084Y-50847639D01*
X63114904Y-50864494D01*
X63090097Y-50885048D01*
X63006144Y-50941144D01*
X62985987Y-50971311D01*
X41028088Y-69165000D01*
X25729228Y-69165000D01*
X13385000Y-53734716D01*
X13385000Y-52950750D01*
X13775000Y-52950750D01*
X13775000Y-53591309D01*
X13871673Y-53824698D01*
X14050301Y-54003327D01*
X14283690Y-54100000D01*
X14624250Y-54100000D01*
X14783000Y-53941250D01*
X14783000Y-52792000D01*
X15037000Y-52792000D01*
X15037000Y-53941250D01*
X15195750Y-54100000D01*
X15536310Y-54100000D01*
X15769699Y-54003327D01*
X15948327Y-53824698D01*
X16045000Y-53591309D01*
X16045000Y-52950750D01*
X15886250Y-52792000D01*
X15037000Y-52792000D01*
X14783000Y-52792000D01*
X13933750Y-52792000D01*
X13775000Y-52950750D01*
X13385000Y-52950750D01*
X13385000Y-51738691D01*
X13775000Y-51738691D01*
X13775000Y-52379250D01*
X13933750Y-52538000D01*
X14783000Y-52538000D01*
X14783000Y-51388750D01*
X15037000Y-51388750D01*
X15037000Y-52538000D01*
X15886250Y-52538000D01*
X16045000Y-52379250D01*
X16045000Y-51738691D01*
X15948327Y-51505302D01*
X15769699Y-51326673D01*
X15536310Y-51230000D01*
X15195750Y-51230000D01*
X15037000Y-51388750D01*
X14783000Y-51388750D01*
X14624250Y-51230000D01*
X14283690Y-51230000D01*
X14050301Y-51326673D01*
X13871673Y-51505302D01*
X13775000Y-51738691D01*
X13385000Y-51738691D01*
X13385000Y-35170750D01*
X13775000Y-35170750D01*
X13775000Y-35811309D01*
X13871673Y-36044698D01*
X14050301Y-36223327D01*
X14283690Y-36320000D01*
X14624250Y-36320000D01*
X14783000Y-36161250D01*
X14783000Y-35012000D01*
X15037000Y-35012000D01*
X15037000Y-36161250D01*
X15195750Y-36320000D01*
X15536310Y-36320000D01*
X15769699Y-36223327D01*
X15948327Y-36044698D01*
X16045000Y-35811309D01*
X16045000Y-35170750D01*
X15886250Y-35012000D01*
X15037000Y-35012000D01*
X14783000Y-35012000D01*
X13933750Y-35012000D01*
X13775000Y-35170750D01*
X13385000Y-35170750D01*
X13385000Y-33958691D01*
X13775000Y-33958691D01*
X13775000Y-34599250D01*
X13933750Y-34758000D01*
X14783000Y-34758000D01*
X14783000Y-33608750D01*
X15037000Y-33608750D01*
X15037000Y-34758000D01*
X15886250Y-34758000D01*
X16045000Y-34599250D01*
X16045000Y-33958691D01*
X15948327Y-33725302D01*
X15769699Y-33546673D01*
X15536310Y-33450000D01*
X15195750Y-33450000D01*
X15037000Y-33608750D01*
X14783000Y-33608750D01*
X14624250Y-33450000D01*
X14283690Y-33450000D01*
X14050301Y-33546673D01*
X13871673Y-33725302D01*
X13775000Y-33958691D01*
X13385000Y-33958691D01*
X13385000Y-29085000D01*
X13762560Y-29085000D01*
X13762560Y-30685000D01*
X13811843Y-30932765D01*
X13952191Y-31142809D01*
X14162235Y-31283157D01*
X14410000Y-31332440D01*
X15410000Y-31332440D01*
X15657765Y-31283157D01*
X15867809Y-31142809D01*
X16008157Y-30932765D01*
X16057440Y-30685000D01*
X16057440Y-29644138D01*
X26706579Y-18995000D01*
X27308541Y-18995000D01*
X27357191Y-19067809D01*
X27567235Y-19208157D01*
X27815000Y-19257440D01*
X29415000Y-19257440D01*
X29662765Y-19208157D01*
X29872809Y-19067809D01*
X30013157Y-18857765D01*
X30062440Y-18610000D01*
X30062440Y-17610000D01*
X30013157Y-17362235D01*
X29872809Y-17152191D01*
X29662765Y-17011843D01*
X29415000Y-16962560D01*
X27815000Y-16962560D01*
X27567235Y-17011843D01*
X27357191Y-17152191D01*
X27308541Y-17225000D01*
X26427160Y-17225000D01*
X26339999Y-17207663D01*
X26252838Y-17225000D01*
X26252835Y-17225000D01*
X25994690Y-17276348D01*
X25775845Y-17422576D01*
X25775844Y-17422577D01*
X25701951Y-17471951D01*
X25652577Y-17545844D01*
X14760862Y-28437560D01*
X14410000Y-28437560D01*
X14162235Y-28486843D01*
X13952191Y-28627191D01*
X13811843Y-28837235D01*
X13762560Y-29085000D01*
X13385000Y-29085000D01*
X13385000Y-28815284D01*
X24280627Y-15195750D01*
X27180000Y-15195750D01*
X27180000Y-15536310D01*
X27276673Y-15769699D01*
X27455302Y-15948327D01*
X27688691Y-16045000D01*
X28329250Y-16045000D01*
X28488000Y-15886250D01*
X28488000Y-15037000D01*
X28742000Y-15037000D01*
X28742000Y-15886250D01*
X28900750Y-16045000D01*
X29541309Y-16045000D01*
X29774698Y-15948327D01*
X29953327Y-15769699D01*
X30050000Y-15536310D01*
X30050000Y-15195750D01*
X29891250Y-15037000D01*
X28742000Y-15037000D01*
X28488000Y-15037000D01*
X27338750Y-15037000D01*
X27180000Y-15195750D01*
X24280627Y-15195750D01*
X25010275Y-14283690D01*
X27180000Y-14283690D01*
X27180000Y-14624250D01*
X27338750Y-14783000D01*
X28488000Y-14783000D01*
X28488000Y-13933750D01*
X28742000Y-13933750D01*
X28742000Y-14783000D01*
X29891250Y-14783000D01*
X30050000Y-14624250D01*
X30050000Y-14283690D01*
X29953327Y-14050301D01*
X29774698Y-13871673D01*
X29541309Y-13775000D01*
X28900750Y-13775000D01*
X28742000Y-13933750D01*
X28488000Y-13933750D01*
X28329250Y-13775000D01*
X27688691Y-13775000D01*
X27455302Y-13871673D01*
X27276673Y-14050301D01*
X27180000Y-14283690D01*
X25010275Y-14283690D01*
X25729228Y-13385000D01*
X41028088Y-13385000D01*
X62985987Y-31578689D01*
G36*
X122527191Y-19067809D02*
X122737235Y-19208157D01*
X122900001Y-19240533D01*
X122900000Y-22732839D01*
X122882663Y-22820000D01*
X122900000Y-22907161D01*
X122900000Y-22907164D01*
X122951348Y-23165309D01*
X123146951Y-23458049D01*
X123220847Y-23507425D01*
X133337239Y-33623818D01*
X133332191Y-33627191D01*
X133191843Y-33837235D01*
X133142560Y-34085000D01*
X133142560Y-35685000D01*
X133191843Y-35932765D01*
X133332191Y-36142809D01*
X133542235Y-36283157D01*
X133790000Y-36332440D01*
X134485861Y-36332440D01*
X135005001Y-36851580D01*
X135005000Y-42813421D01*
X132150845Y-45667577D01*
X132076952Y-45716951D01*
X132027578Y-45790844D01*
X132027576Y-45790846D01*
X131881348Y-46009691D01*
X131812663Y-46355000D01*
X131830001Y-46442165D01*
X131830000Y-50692336D01*
X131826000Y-50712445D01*
X131826000Y-51002445D01*
X131808584Y-51090000D01*
X131826000Y-51177555D01*
X131826000Y-51177556D01*
X131877581Y-51436870D01*
X132074067Y-51730933D01*
X132141515Y-51776000D01*
X130647555Y-51776000D01*
X130560000Y-51758584D01*
X130472445Y-51776000D01*
X130472444Y-51776000D01*
X130213130Y-51827581D01*
X129919067Y-52024067D01*
X129869471Y-52098293D01*
X118782172Y-63185593D01*
X109349785Y-53753207D01*
X109300409Y-53679311D01*
X109007670Y-53483708D01*
X108749525Y-53432360D01*
X108749521Y-53432360D01*
X108662360Y-53415023D01*
X108575199Y-53432360D01*
X101443746Y-53432360D01*
X100838073Y-52924140D01*
X100616596Y-52802633D01*
X100365479Y-52775132D01*
X100122952Y-52845822D01*
X99925939Y-53003942D01*
X99569810Y-53428360D01*
X96214596Y-53428360D01*
X91114531Y-48328296D01*
X91064933Y-48254067D01*
X90770870Y-48057581D01*
X90511556Y-48006000D01*
X90511555Y-48006000D01*
X90424000Y-47988584D01*
X90336445Y-48006000D01*
X82764554Y-48006000D01*
X82676999Y-47988584D01*
X82589444Y-48006000D01*
X82330130Y-48057581D01*
X82036067Y-48254067D01*
X81986470Y-48328294D01*
X81463294Y-48851471D01*
X81389068Y-48901067D01*
X81339472Y-48975293D01*
X81339471Y-48975294D01*
X81192582Y-49195130D01*
X81123584Y-49542000D01*
X81129373Y-49571102D01*
X81081843Y-49642235D01*
X81032560Y-49890000D01*
X81032560Y-51390000D01*
X81081843Y-51637765D01*
X81222191Y-51847809D01*
X81432235Y-51988157D01*
X81680000Y-52037440D01*
X81755782Y-52037440D01*
X81695000Y-52184180D01*
X81695000Y-52615820D01*
X81860182Y-53014603D01*
X82135579Y-53290000D01*
X80424421Y-53290000D01*
X80699818Y-53014603D01*
X80865000Y-52615820D01*
X80865000Y-52184180D01*
X80699818Y-51785397D01*
X80394603Y-51480182D01*
X80027440Y-51328097D01*
X80027440Y-49890000D01*
X79978157Y-49642235D01*
X79919000Y-49553701D01*
X79919000Y-47275750D01*
X117172000Y-47275750D01*
X117172000Y-47716310D01*
X117268673Y-47949699D01*
X117447302Y-48128327D01*
X117680691Y-48225000D01*
X118121250Y-48225000D01*
X118280000Y-48066250D01*
X118280000Y-47117000D01*
X117330750Y-47117000D01*
X117172000Y-47275750D01*
X79919000Y-47275750D01*
X79919000Y-46654928D01*
X79992500Y-46477483D01*
X79992500Y-46105517D01*
X79885419Y-45847000D01*
X89193445Y-45847000D01*
X89281000Y-45864416D01*
X89368555Y-45847000D01*
X89368556Y-45847000D01*
X89627870Y-45795419D01*
X89921933Y-45598933D01*
X89971531Y-45524704D01*
X94345736Y-41150500D01*
X107037116Y-41150500D01*
X107088235Y-41184657D01*
X107223185Y-41211500D01*
X107088235Y-41238343D01*
X106878191Y-41378691D01*
X106737843Y-41588735D01*
X106688560Y-41836500D01*
X106688560Y-42486500D01*
X106737843Y-42734265D01*
X106878191Y-42944309D01*
X107088235Y-43084657D01*
X107127001Y-43092368D01*
X107127000Y-44289200D01*
X107067843Y-44377735D01*
X107018560Y-44625500D01*
X107018560Y-45925500D01*
X107067843Y-46173265D01*
X107208191Y-46383309D01*
X107418235Y-46523657D01*
X107666000Y-46572940D01*
X108366000Y-46572940D01*
X108613765Y-46523657D01*
X108823809Y-46383309D01*
X108964157Y-46173265D01*
X108969721Y-46145291D01*
X109027673Y-46285199D01*
X109206302Y-46463827D01*
X109439691Y-46560500D01*
X109630250Y-46560500D01*
X109789000Y-46401750D01*
X109789000Y-45402500D01*
X110043000Y-45402500D01*
X110043000Y-46401750D01*
X110201750Y-46560500D01*
X110392309Y-46560500D01*
X110625698Y-46463827D01*
X110804327Y-46285199D01*
X110813236Y-46263690D01*
X117172000Y-46263690D01*
X117172000Y-46704250D01*
X117330750Y-46863000D01*
X118280000Y-46863000D01*
X118280000Y-45913750D01*
X118121250Y-45755000D01*
X117680691Y-45755000D01*
X117447302Y-45851673D01*
X117268673Y-46030301D01*
X117172000Y-46263690D01*
X110813236Y-46263690D01*
X110901000Y-46051810D01*
X110901000Y-45561250D01*
X110742250Y-45402500D01*
X110043000Y-45402500D01*
X109789000Y-45402500D01*
X109769000Y-45402500D01*
X109769000Y-45148500D01*
X109789000Y-45148500D01*
X109789000Y-44149250D01*
X110043000Y-44149250D01*
X110043000Y-45148500D01*
X110742250Y-45148500D01*
X110901000Y-44989750D01*
X110901000Y-44499190D01*
X110804327Y-44265801D01*
X110625698Y-44087173D01*
X110392309Y-43990500D01*
X110201750Y-43990500D01*
X110043000Y-44149250D01*
X109789000Y-44149250D01*
X109630250Y-43990500D01*
X109439691Y-43990500D01*
X109206302Y-44087173D01*
X109027673Y-44265801D01*
X108969721Y-44405709D01*
X108964157Y-44377735D01*
X108905000Y-44289201D01*
X108905000Y-43386250D01*
X112913000Y-43386250D01*
X112913000Y-43726809D01*
X113009673Y-43960198D01*
X113188301Y-44138827D01*
X113421690Y-44235500D01*
X113887250Y-44235500D01*
X114046000Y-44076750D01*
X114046000Y-43227500D01*
X114300000Y-43227500D01*
X114300000Y-44076750D01*
X114458750Y-44235500D01*
X114924310Y-44235500D01*
X115157699Y-44138827D01*
X115336327Y-43960198D01*
X115433000Y-43726809D01*
X115433000Y-43386250D01*
X115274250Y-43227500D01*
X114300000Y-43227500D01*
X114046000Y-43227500D01*
X113071750Y-43227500D01*
X112913000Y-43386250D01*
X108905000Y-43386250D01*
X108905000Y-42867697D01*
X108966000Y-42776405D01*
X109078191Y-42944309D01*
X109288235Y-43084657D01*
X109536000Y-43133940D01*
X110596000Y-43133940D01*
X110843765Y-43084657D01*
X110894884Y-43050500D01*
X111710927Y-43050500D01*
X111828017Y-43099000D01*
X112199983Y-43099000D01*
X112543635Y-42956655D01*
X112806655Y-42693635D01*
X112949000Y-42349983D01*
X112949000Y-41978017D01*
X112806655Y-41634365D01*
X112543635Y-41371345D01*
X112199983Y-41229000D01*
X111828017Y-41229000D01*
X111722998Y-41272500D01*
X110894884Y-41272500D01*
X110843765Y-41238343D01*
X110708815Y-41211500D01*
X110843765Y-41184657D01*
X110993659Y-41084500D01*
X111072250Y-41084500D01*
X111231000Y-40925750D01*
X111231000Y-40760190D01*
X111216064Y-40724131D01*
X111243440Y-40586500D01*
X111243440Y-40508795D01*
X111620236Y-40132000D01*
X112725265Y-40132000D01*
X112949205Y-40355941D01*
X112900560Y-40600500D01*
X112900560Y-41600500D01*
X112949843Y-41848265D01*
X113090191Y-42058309D01*
X113151320Y-42099154D01*
X113009673Y-42240802D01*
X112913000Y-42474191D01*
X112913000Y-42814750D01*
X113071750Y-42973500D01*
X114046000Y-42973500D01*
X114046000Y-42953500D01*
X114300000Y-42953500D01*
X114300000Y-42973500D01*
X115274250Y-42973500D01*
X115433000Y-42814750D01*
X115433000Y-42474191D01*
X115336327Y-42240802D01*
X115194680Y-42099154D01*
X115255809Y-42058309D01*
X115301786Y-41989500D01*
X115720445Y-41989500D01*
X115808000Y-42006916D01*
X115895555Y-41989500D01*
X115895556Y-41989500D01*
X115905000Y-41987621D01*
X115905000Y-42349983D01*
X116047345Y-42693635D01*
X116310365Y-42956655D01*
X116531989Y-43048455D01*
X116556630Y-43064919D01*
X116585696Y-43070701D01*
X116654017Y-43099000D01*
X116727966Y-43099000D01*
X116903500Y-43133916D01*
X117195582Y-43075817D01*
X117559560Y-43439796D01*
X117559560Y-43830000D01*
X117608843Y-44077765D01*
X117749191Y-44287809D01*
X117959235Y-44428157D01*
X118207000Y-44477440D01*
X118907000Y-44477440D01*
X119154765Y-44428157D01*
X119364809Y-44287809D01*
X119505157Y-44077765D01*
X119507000Y-44068500D01*
X119508843Y-44077765D01*
X119568000Y-44166299D01*
X119568001Y-45919623D01*
X119549191Y-45932191D01*
X119508346Y-45993320D01*
X119366698Y-45851673D01*
X119133309Y-45755000D01*
X118692750Y-45755000D01*
X118534000Y-45913750D01*
X118534000Y-46863000D01*
X118554000Y-46863000D01*
X118554000Y-47117000D01*
X118534000Y-47117000D01*
X118534000Y-48066250D01*
X118692750Y-48225000D01*
X119133309Y-48225000D01*
X119366698Y-48128327D01*
X119508346Y-47986680D01*
X119549191Y-48047809D01*
X119759235Y-48188157D01*
X120007000Y-48237440D01*
X121207000Y-48237440D01*
X121454765Y-48188157D01*
X121664809Y-48047809D01*
X121805157Y-47837765D01*
X121854440Y-47590000D01*
X121854440Y-46390000D01*
X121805157Y-46142235D01*
X121664809Y-45932191D01*
X121454765Y-45791843D01*
X121346000Y-45770209D01*
X121346000Y-44166299D01*
X121405157Y-44077765D01*
X121454440Y-43830000D01*
X121454440Y-42530000D01*
X121405157Y-42282235D01*
X121264809Y-42072191D01*
X121054765Y-41931843D01*
X120807000Y-41882560D01*
X120107000Y-41882560D01*
X119859235Y-41931843D01*
X119649191Y-42072191D01*
X119508843Y-42282235D01*
X119507000Y-42291500D01*
X119505157Y-42282235D01*
X119364809Y-42072191D01*
X119154765Y-41931843D01*
X119051027Y-41911209D01*
X119123707Y-41838529D01*
X119197933Y-41788933D01*
X119394419Y-41494870D01*
X119446000Y-41235556D01*
X119446000Y-41235555D01*
X119463416Y-41148000D01*
X119446000Y-41060445D01*
X119446000Y-40356299D01*
X119505157Y-40267765D01*
X119507000Y-40258500D01*
X119508843Y-40267765D01*
X119649191Y-40477809D01*
X119859235Y-40618157D01*
X120107000Y-40667440D01*
X120807000Y-40667440D01*
X121054765Y-40618157D01*
X121264809Y-40477809D01*
X121405157Y-40267765D01*
X121454440Y-40020000D01*
X121454440Y-38720000D01*
X121405157Y-38472235D01*
X121346000Y-38383701D01*
X121346000Y-36779791D01*
X121454765Y-36758157D01*
X121664809Y-36617809D01*
X121805157Y-36407765D01*
X121854440Y-36160000D01*
X121854440Y-34960000D01*
X121805157Y-34712235D01*
X121664809Y-34502191D01*
X121454765Y-34361843D01*
X121207000Y-34312560D01*
X120007000Y-34312560D01*
X119759235Y-34361843D01*
X119549191Y-34502191D01*
X119507000Y-34565334D01*
X119464809Y-34502191D01*
X119254765Y-34361843D01*
X119007000Y-34312560D01*
X117807000Y-34312560D01*
X117559235Y-34361843D01*
X117349191Y-34502191D01*
X117236396Y-34671000D01*
X111403056Y-34671000D01*
X111315500Y-34653584D01*
X110968629Y-34722581D01*
X110770283Y-34855112D01*
X110674567Y-34919067D01*
X110624971Y-34993293D01*
X107299294Y-38318971D01*
X107225068Y-38368567D01*
X107175472Y-38442793D01*
X107175471Y-38442794D01*
X107028582Y-38662630D01*
X106959584Y-39009500D01*
X106977001Y-39097059D01*
X106977001Y-39372500D01*
X94065055Y-39372500D01*
X93977500Y-39355084D01*
X93889945Y-39372500D01*
X93889944Y-39372500D01*
X93630630Y-39424081D01*
X93336567Y-39620567D01*
X93286971Y-39694793D01*
X88912765Y-44069000D01*
X77832578Y-44069000D01*
X78514139Y-43387440D01*
X79500000Y-43387440D01*
X79747765Y-43338157D01*
X79957809Y-43197809D01*
X80003786Y-43129000D01*
X89244445Y-43129000D01*
X89332000Y-43146416D01*
X89419555Y-43129000D01*
X89419556Y-43129000D01*
X89678870Y-43077419D01*
X89972933Y-42880933D01*
X90022531Y-42806704D01*
X102227029Y-30602207D01*
X102227031Y-30602204D01*
X102290529Y-30538706D01*
X105087707Y-27741529D01*
X105161933Y-27691933D01*
X105358419Y-27397870D01*
X105410000Y-27138556D01*
X105410000Y-27138552D01*
X105427415Y-27051001D01*
X105410000Y-26963450D01*
X105410000Y-25903702D01*
X115229137Y-25903702D01*
X115316298Y-25921039D01*
X115403459Y-25903702D01*
X115403463Y-25903702D01*
X115661608Y-25852354D01*
X115954347Y-25656751D01*
X116003723Y-25582855D01*
X116892424Y-24694155D01*
X116892426Y-24694152D01*
X122523818Y-19062761D01*
X122527191Y-19067809D01*
X122527191Y-19067809D01*
G37*
X122527191Y-19067809D02*
X122737235Y-19208157D01*
X122900001Y-19240533D01*
X122900000Y-22732839D01*
X122882663Y-22820000D01*
X122900000Y-22907161D01*
X122900000Y-22907164D01*
X122951348Y-23165309D01*
X123146951Y-23458049D01*
X123220847Y-23507425D01*
X133337239Y-33623818D01*
X133332191Y-33627191D01*
X133191843Y-33837235D01*
X133142560Y-34085000D01*
X133142560Y-35685000D01*
X133191843Y-35932765D01*
X133332191Y-36142809D01*
X133542235Y-36283157D01*
X133790000Y-36332440D01*
X134485861Y-36332440D01*
X135005001Y-36851580D01*
X135005000Y-42813421D01*
X132150845Y-45667577D01*
X132076952Y-45716951D01*
X132027578Y-45790844D01*
X132027576Y-45790846D01*
X131881348Y-46009691D01*
X131812663Y-46355000D01*
X131830001Y-46442165D01*
X131830000Y-50692336D01*
X131826000Y-50712445D01*
X131826000Y-51002445D01*
X131808584Y-51090000D01*
X131826000Y-51177555D01*
X131826000Y-51177556D01*
X131877581Y-51436870D01*
X132074067Y-51730933D01*
X132141515Y-51776000D01*
X130647555Y-51776000D01*
X130560000Y-51758584D01*
X130472445Y-51776000D01*
X130472444Y-51776000D01*
X130213130Y-51827581D01*
X129919067Y-52024067D01*
X129869471Y-52098293D01*
X118782172Y-63185593D01*
X109349785Y-53753207D01*
X109300409Y-53679311D01*
X109007670Y-53483708D01*
X108749525Y-53432360D01*
X108749521Y-53432360D01*
X108662360Y-53415023D01*
X108575199Y-53432360D01*
X101443746Y-53432360D01*
X100838073Y-52924140D01*
X100616596Y-52802633D01*
X100365479Y-52775132D01*
X100122952Y-52845822D01*
X99925939Y-53003942D01*
X99569810Y-53428360D01*
X96214596Y-53428360D01*
X91114531Y-48328296D01*
X91064933Y-48254067D01*
X90770870Y-48057581D01*
X90511556Y-48006000D01*
X90511555Y-48006000D01*
X90424000Y-47988584D01*
X90336445Y-48006000D01*
X82764554Y-48006000D01*
X82676999Y-47988584D01*
X82589444Y-48006000D01*
X82330130Y-48057581D01*
X82036067Y-48254067D01*
X81986470Y-48328294D01*
X81463294Y-48851471D01*
X81389068Y-48901067D01*
X81339472Y-48975293D01*
X81339471Y-48975294D01*
X81192582Y-49195130D01*
X81123584Y-49542000D01*
X81129373Y-49571102D01*
X81081843Y-49642235D01*
X81032560Y-49890000D01*
X81032560Y-51390000D01*
X81081843Y-51637765D01*
X81222191Y-51847809D01*
X81432235Y-51988157D01*
X81680000Y-52037440D01*
X81755782Y-52037440D01*
X81695000Y-52184180D01*
X81695000Y-52615820D01*
X81860182Y-53014603D01*
X82135579Y-53290000D01*
X80424421Y-53290000D01*
X80699818Y-53014603D01*
X80865000Y-52615820D01*
X80865000Y-52184180D01*
X80699818Y-51785397D01*
X80394603Y-51480182D01*
X80027440Y-51328097D01*
X80027440Y-49890000D01*
X79978157Y-49642235D01*
X79919000Y-49553701D01*
X79919000Y-47275750D01*
X117172000Y-47275750D01*
X117172000Y-47716310D01*
X117268673Y-47949699D01*
X117447302Y-48128327D01*
X117680691Y-48225000D01*
X118121250Y-48225000D01*
X118280000Y-48066250D01*
X118280000Y-47117000D01*
X117330750Y-47117000D01*
X117172000Y-47275750D01*
X79919000Y-47275750D01*
X79919000Y-46654928D01*
X79992500Y-46477483D01*
X79992500Y-46105517D01*
X79885419Y-45847000D01*
X89193445Y-45847000D01*
X89281000Y-45864416D01*
X89368555Y-45847000D01*
X89368556Y-45847000D01*
X89627870Y-45795419D01*
X89921933Y-45598933D01*
X89971531Y-45524704D01*
X94345736Y-41150500D01*
X107037116Y-41150500D01*
X107088235Y-41184657D01*
X107223185Y-41211500D01*
X107088235Y-41238343D01*
X106878191Y-41378691D01*
X106737843Y-41588735D01*
X106688560Y-41836500D01*
X106688560Y-42486500D01*
X106737843Y-42734265D01*
X106878191Y-42944309D01*
X107088235Y-43084657D01*
X107127001Y-43092368D01*
X107127000Y-44289200D01*
X107067843Y-44377735D01*
X107018560Y-44625500D01*
X107018560Y-45925500D01*
X107067843Y-46173265D01*
X107208191Y-46383309D01*
X107418235Y-46523657D01*
X107666000Y-46572940D01*
X108366000Y-46572940D01*
X108613765Y-46523657D01*
X108823809Y-46383309D01*
X108964157Y-46173265D01*
X108969721Y-46145291D01*
X109027673Y-46285199D01*
X109206302Y-46463827D01*
X109439691Y-46560500D01*
X109630250Y-46560500D01*
X109789000Y-46401750D01*
X109789000Y-45402500D01*
X110043000Y-45402500D01*
X110043000Y-46401750D01*
X110201750Y-46560500D01*
X110392309Y-46560500D01*
X110625698Y-46463827D01*
X110804327Y-46285199D01*
X110813236Y-46263690D01*
X117172000Y-46263690D01*
X117172000Y-46704250D01*
X117330750Y-46863000D01*
X118280000Y-46863000D01*
X118280000Y-45913750D01*
X118121250Y-45755000D01*
X117680691Y-45755000D01*
X117447302Y-45851673D01*
X117268673Y-46030301D01*
X117172000Y-46263690D01*
X110813236Y-46263690D01*
X110901000Y-46051810D01*
X110901000Y-45561250D01*
X110742250Y-45402500D01*
X110043000Y-45402500D01*
X109789000Y-45402500D01*
X109769000Y-45402500D01*
X109769000Y-45148500D01*
X109789000Y-45148500D01*
X109789000Y-44149250D01*
X110043000Y-44149250D01*
X110043000Y-45148500D01*
X110742250Y-45148500D01*
X110901000Y-44989750D01*
X110901000Y-44499190D01*
X110804327Y-44265801D01*
X110625698Y-44087173D01*
X110392309Y-43990500D01*
X110201750Y-43990500D01*
X110043000Y-44149250D01*
X109789000Y-44149250D01*
X109630250Y-43990500D01*
X109439691Y-43990500D01*
X109206302Y-44087173D01*
X109027673Y-44265801D01*
X108969721Y-44405709D01*
X108964157Y-44377735D01*
X108905000Y-44289201D01*
X108905000Y-43386250D01*
X112913000Y-43386250D01*
X112913000Y-43726809D01*
X113009673Y-43960198D01*
X113188301Y-44138827D01*
X113421690Y-44235500D01*
X113887250Y-44235500D01*
X114046000Y-44076750D01*
X114046000Y-43227500D01*
X114300000Y-43227500D01*
X114300000Y-44076750D01*
X114458750Y-44235500D01*
X114924310Y-44235500D01*
X115157699Y-44138827D01*
X115336327Y-43960198D01*
X115433000Y-43726809D01*
X115433000Y-43386250D01*
X115274250Y-43227500D01*
X114300000Y-43227500D01*
X114046000Y-43227500D01*
X113071750Y-43227500D01*
X112913000Y-43386250D01*
X108905000Y-43386250D01*
X108905000Y-42867697D01*
X108966000Y-42776405D01*
X109078191Y-42944309D01*
X109288235Y-43084657D01*
X109536000Y-43133940D01*
X110596000Y-43133940D01*
X110843765Y-43084657D01*
X110894884Y-43050500D01*
X111710927Y-43050500D01*
X111828017Y-43099000D01*
X112199983Y-43099000D01*
X112543635Y-42956655D01*
X112806655Y-42693635D01*
X112949000Y-42349983D01*
X112949000Y-41978017D01*
X112806655Y-41634365D01*
X112543635Y-41371345D01*
X112199983Y-41229000D01*
X111828017Y-41229000D01*
X111722998Y-41272500D01*
X110894884Y-41272500D01*
X110843765Y-41238343D01*
X110708815Y-41211500D01*
X110843765Y-41184657D01*
X110993659Y-41084500D01*
X111072250Y-41084500D01*
X111231000Y-40925750D01*
X111231000Y-40760190D01*
X111216064Y-40724131D01*
X111243440Y-40586500D01*
X111243440Y-40508795D01*
X111620236Y-40132000D01*
X112725265Y-40132000D01*
X112949205Y-40355941D01*
X112900560Y-40600500D01*
X112900560Y-41600500D01*
X112949843Y-41848265D01*
X113090191Y-42058309D01*
X113151320Y-42099154D01*
X113009673Y-42240802D01*
X112913000Y-42474191D01*
X112913000Y-42814750D01*
X113071750Y-42973500D01*
X114046000Y-42973500D01*
X114046000Y-42953500D01*
X114300000Y-42953500D01*
X114300000Y-42973500D01*
X115274250Y-42973500D01*
X115433000Y-42814750D01*
X115433000Y-42474191D01*
X115336327Y-42240802D01*
X115194680Y-42099154D01*
X115255809Y-42058309D01*
X115301786Y-41989500D01*
X115720445Y-41989500D01*
X115808000Y-42006916D01*
X115895555Y-41989500D01*
X115895556Y-41989500D01*
X115905000Y-41987621D01*
X115905000Y-42349983D01*
X116047345Y-42693635D01*
X116310365Y-42956655D01*
X116531989Y-43048455D01*
X116556630Y-43064919D01*
X116585696Y-43070701D01*
X116654017Y-43099000D01*
X116727966Y-43099000D01*
X116903500Y-43133916D01*
X117195582Y-43075817D01*
X117559560Y-43439796D01*
X117559560Y-43830000D01*
X117608843Y-44077765D01*
X117749191Y-44287809D01*
X117959235Y-44428157D01*
X118207000Y-44477440D01*
X118907000Y-44477440D01*
X119154765Y-44428157D01*
X119364809Y-44287809D01*
X119505157Y-44077765D01*
X119507000Y-44068500D01*
X119508843Y-44077765D01*
X119568000Y-44166299D01*
X119568001Y-45919623D01*
X119549191Y-45932191D01*
X119508346Y-45993320D01*
X119366698Y-45851673D01*
X119133309Y-45755000D01*
X118692750Y-45755000D01*
X118534000Y-45913750D01*
X118534000Y-46863000D01*
X118554000Y-46863000D01*
X118554000Y-47117000D01*
X118534000Y-47117000D01*
X118534000Y-48066250D01*
X118692750Y-48225000D01*
X119133309Y-48225000D01*
X119366698Y-48128327D01*
X119508346Y-47986680D01*
X119549191Y-48047809D01*
X119759235Y-48188157D01*
X120007000Y-48237440D01*
X121207000Y-48237440D01*
X121454765Y-48188157D01*
X121664809Y-48047809D01*
X121805157Y-47837765D01*
X121854440Y-47590000D01*
X121854440Y-46390000D01*
X121805157Y-46142235D01*
X121664809Y-45932191D01*
X121454765Y-45791843D01*
X121346000Y-45770209D01*
X121346000Y-44166299D01*
X121405157Y-44077765D01*
X121454440Y-43830000D01*
X121454440Y-42530000D01*
X121405157Y-42282235D01*
X121264809Y-42072191D01*
X121054765Y-41931843D01*
X120807000Y-41882560D01*
X120107000Y-41882560D01*
X119859235Y-41931843D01*
X119649191Y-42072191D01*
X119508843Y-42282235D01*
X119507000Y-42291500D01*
X119505157Y-42282235D01*
X119364809Y-42072191D01*
X119154765Y-41931843D01*
X119051027Y-41911209D01*
X119123707Y-41838529D01*
X119197933Y-41788933D01*
X119394419Y-41494870D01*
X119446000Y-41235556D01*
X119446000Y-41235555D01*
X119463416Y-41148000D01*
X119446000Y-41060445D01*
X119446000Y-40356299D01*
X119505157Y-40267765D01*
X119507000Y-40258500D01*
X119508843Y-40267765D01*
X119649191Y-40477809D01*
X119859235Y-40618157D01*
X120107000Y-40667440D01*
X120807000Y-40667440D01*
X121054765Y-40618157D01*
X121264809Y-40477809D01*
X121405157Y-40267765D01*
X121454440Y-40020000D01*
X121454440Y-38720000D01*
X121405157Y-38472235D01*
X121346000Y-38383701D01*
X121346000Y-36779791D01*
X121454765Y-36758157D01*
X121664809Y-36617809D01*
X121805157Y-36407765D01*
X121854440Y-36160000D01*
X121854440Y-34960000D01*
X121805157Y-34712235D01*
X121664809Y-34502191D01*
X121454765Y-34361843D01*
X121207000Y-34312560D01*
X120007000Y-34312560D01*
X119759235Y-34361843D01*
X119549191Y-34502191D01*
X119507000Y-34565334D01*
X119464809Y-34502191D01*
X119254765Y-34361843D01*
X119007000Y-34312560D01*
X117807000Y-34312560D01*
X117559235Y-34361843D01*
X117349191Y-34502191D01*
X117236396Y-34671000D01*
X111403056Y-34671000D01*
X111315500Y-34653584D01*
X110968629Y-34722581D01*
X110770283Y-34855112D01*
X110674567Y-34919067D01*
X110624971Y-34993293D01*
X107299294Y-38318971D01*
X107225068Y-38368567D01*
X107175472Y-38442793D01*
X107175471Y-38442794D01*
X107028582Y-38662630D01*
X106959584Y-39009500D01*
X106977001Y-39097059D01*
X106977001Y-39372500D01*
X94065055Y-39372500D01*
X93977500Y-39355084D01*
X93889945Y-39372500D01*
X93889944Y-39372500D01*
X93630630Y-39424081D01*
X93336567Y-39620567D01*
X93286971Y-39694793D01*
X88912765Y-44069000D01*
X77832578Y-44069000D01*
X78514139Y-43387440D01*
X79500000Y-43387440D01*
X79747765Y-43338157D01*
X79957809Y-43197809D01*
X80003786Y-43129000D01*
X89244445Y-43129000D01*
X89332000Y-43146416D01*
X89419555Y-43129000D01*
X89419556Y-43129000D01*
X89678870Y-43077419D01*
X89972933Y-42880933D01*
X90022531Y-42806704D01*
X102227029Y-30602207D01*
X102227031Y-30602204D01*
X102290529Y-30538706D01*
X105087707Y-27741529D01*
X105161933Y-27691933D01*
X105358419Y-27397870D01*
X105410000Y-27138556D01*
X105410000Y-27138552D01*
X105427415Y-27051001D01*
X105410000Y-26963450D01*
X105410000Y-25903702D01*
X115229137Y-25903702D01*
X115316298Y-25921039D01*
X115403459Y-25903702D01*
X115403463Y-25903702D01*
X115661608Y-25852354D01*
X115954347Y-25656751D01*
X116003723Y-25582855D01*
X116892424Y-24694155D01*
X116892426Y-24694152D01*
X122523818Y-19062761D01*
X122527191Y-19067809D01*
G36*
X20314067Y-41280933D02*
X20388296Y-41330531D01*
X20899470Y-41841706D01*
X20949067Y-41915933D01*
X21023293Y-41965529D01*
X21243129Y-42112419D01*
X21590000Y-42181416D01*
X21677556Y-42164000D01*
X21790313Y-42164000D01*
X22075460Y-42449147D01*
X22290930Y-42538397D01*
X22136077Y-42602540D01*
X22068088Y-42843483D01*
X22860000Y-43635395D01*
X22874143Y-43621253D01*
X23053748Y-43800858D01*
X23039605Y-43815000D01*
X23053748Y-43829143D01*
X22874143Y-44008748D01*
X22860000Y-43994605D01*
X22068088Y-44786517D01*
X22136077Y-45027460D01*
X22302658Y-45086745D01*
X22075460Y-45180853D01*
X21816474Y-45439839D01*
X21726353Y-45457765D01*
X21515082Y-45598932D01*
X21411286Y-45668286D01*
X21358147Y-45747815D01*
X20728819Y-46377144D01*
X20649286Y-46430286D01*
X20468863Y-46700309D01*
X20438765Y-46745354D01*
X20364840Y-47117000D01*
X20383500Y-47210810D01*
X20383501Y-51087194D01*
X20378361Y-51061354D01*
X20328235Y-50809353D01*
X20117714Y-50494286D01*
X20038184Y-50441146D01*
X19062500Y-49465463D01*
X19062500Y-48926356D01*
X19067809Y-48922809D01*
X19208157Y-48712765D01*
X19257440Y-48465000D01*
X19257440Y-47864597D01*
X19911183Y-47210855D01*
X19990714Y-47157714D01*
X20201235Y-46842647D01*
X20243435Y-46630494D01*
X20275160Y-46471000D01*
X20256500Y-46377190D01*
X20256500Y-43610171D01*
X21462799Y-43610171D01*
X21490770Y-44160448D01*
X21647540Y-44538923D01*
X21888483Y-44606912D01*
X22680395Y-43815000D01*
X21888483Y-43023088D01*
X21647540Y-43091077D01*
X21462799Y-43610171D01*
X20256500Y-43610171D01*
X20256500Y-41194777D01*
X20314067Y-41280933D01*
X20314067Y-41280933D01*
G37*
X20314067Y-41280933D02*
X20388296Y-41330531D01*
X20899470Y-41841706D01*
X20949067Y-41915933D01*
X21023293Y-41965529D01*
X21243129Y-42112419D01*
X21590000Y-42181416D01*
X21677556Y-42164000D01*
X21790313Y-42164000D01*
X22075460Y-42449147D01*
X22290930Y-42538397D01*
X22136077Y-42602540D01*
X22068088Y-42843483D01*
X22860000Y-43635395D01*
X22874143Y-43621253D01*
X23053748Y-43800858D01*
X23039605Y-43815000D01*
X23053748Y-43829143D01*
X22874143Y-44008748D01*
X22860000Y-43994605D01*
X22068088Y-44786517D01*
X22136077Y-45027460D01*
X22302658Y-45086745D01*
X22075460Y-45180853D01*
X21816474Y-45439839D01*
X21726353Y-45457765D01*
X21515082Y-45598932D01*
X21411286Y-45668286D01*
X21358147Y-45747815D01*
X20728819Y-46377144D01*
X20649286Y-46430286D01*
X20468863Y-46700309D01*
X20438765Y-46745354D01*
X20364840Y-47117000D01*
X20383500Y-47210810D01*
X20383501Y-51087194D01*
X20378361Y-51061354D01*
X20328235Y-50809353D01*
X20117714Y-50494286D01*
X20038184Y-50441146D01*
X19062500Y-49465463D01*
X19062500Y-48926356D01*
X19067809Y-48922809D01*
X19208157Y-48712765D01*
X19257440Y-48465000D01*
X19257440Y-47864597D01*
X19911183Y-47210855D01*
X19990714Y-47157714D01*
X20201235Y-46842647D01*
X20243435Y-46630494D01*
X20275160Y-46471000D01*
X20256500Y-46377190D01*
X20256500Y-43610171D01*
X21462799Y-43610171D01*
X21490770Y-44160448D01*
X21647540Y-44538923D01*
X21888483Y-44606912D01*
X22680395Y-43815000D01*
X21888483Y-43023088D01*
X21647540Y-43091077D01*
X21462799Y-43610171D01*
X20256500Y-43610171D01*
X20256500Y-41194777D01*
X20314067Y-41280933D01*
G36*
X40393345Y-20689924D02*
X40393348Y-20689926D01*
X48500217Y-28796796D01*
X48549591Y-28870689D01*
X48623484Y-28920063D01*
X48623485Y-28920064D01*
X48701998Y-28972525D01*
X48701998Y-29099748D01*
X48543250Y-28941000D01*
X48352691Y-28941000D01*
X48119302Y-29037673D01*
X47940673Y-29216301D01*
X47882721Y-29356209D01*
X47877157Y-29328235D01*
X47736809Y-29118191D01*
X47526765Y-28977843D01*
X47279000Y-28928560D01*
X46579000Y-28928560D01*
X46331235Y-28977843D01*
X46121191Y-29118191D01*
X45980843Y-29328235D01*
X45931560Y-29576000D01*
X45931560Y-30876000D01*
X45972501Y-31081825D01*
X45972501Y-31815234D01*
X45925000Y-31846973D01*
X45814000Y-31772805D01*
X45814000Y-30473554D01*
X45831416Y-30385999D01*
X45800447Y-30230309D01*
X45762440Y-30039236D01*
X45762440Y-29576000D01*
X45713157Y-29328235D01*
X45572809Y-29118191D01*
X45362765Y-28977843D01*
X45115000Y-28928560D01*
X44415000Y-28928560D01*
X44167235Y-28977843D01*
X43957191Y-29118191D01*
X43816843Y-29328235D01*
X43815000Y-29337500D01*
X43813157Y-29328235D01*
X43672809Y-29118191D01*
X43462765Y-28977843D01*
X43215000Y-28928560D01*
X42515000Y-28928560D01*
X42267235Y-28977843D01*
X42057191Y-29118191D01*
X41995846Y-29210000D01*
X23709556Y-29210000D01*
X23622000Y-29192584D01*
X23275129Y-29261581D01*
X23125909Y-29361287D01*
X22981067Y-29458067D01*
X22931471Y-29532293D01*
X20388294Y-32075471D01*
X20314068Y-32125067D01*
X20264472Y-32199293D01*
X20264471Y-32199294D01*
X20256500Y-32211224D01*
X20256500Y-31335810D01*
X20275160Y-31242000D01*
X20201235Y-30870353D01*
X20114091Y-30739933D01*
X19990714Y-30555286D01*
X19911183Y-30502146D01*
X19346836Y-29937798D01*
X19356285Y-29890293D01*
X28041579Y-21205000D01*
X31027839Y-21205000D01*
X31115000Y-21222337D01*
X31202161Y-21205000D01*
X31202165Y-21205000D01*
X31460310Y-21153652D01*
X31753049Y-20958049D01*
X31802425Y-20884153D01*
X33429139Y-19257440D01*
X34415000Y-19257440D01*
X34662765Y-19208157D01*
X34872809Y-19067809D01*
X34921459Y-18995000D01*
X38698422Y-18995000D01*
X40393345Y-20689924D01*
X40393345Y-20689924D01*
G37*
X40393345Y-20689924D02*
X40393348Y-20689926D01*
X48500217Y-28796796D01*
X48549591Y-28870689D01*
X48623484Y-28920063D01*
X48623485Y-28920064D01*
X48701998Y-28972525D01*
X48701998Y-29099748D01*
X48543250Y-28941000D01*
X48352691Y-28941000D01*
X48119302Y-29037673D01*
X47940673Y-29216301D01*
X47882721Y-29356209D01*
X47877157Y-29328235D01*
X47736809Y-29118191D01*
X47526765Y-28977843D01*
X47279000Y-28928560D01*
X46579000Y-28928560D01*
X46331235Y-28977843D01*
X46121191Y-29118191D01*
X45980843Y-29328235D01*
X45931560Y-29576000D01*
X45931560Y-30876000D01*
X45972501Y-31081825D01*
X45972501Y-31815234D01*
X45925000Y-31846973D01*
X45814000Y-31772805D01*
X45814000Y-30473554D01*
X45831416Y-30385999D01*
X45800447Y-30230309D01*
X45762440Y-30039236D01*
X45762440Y-29576000D01*
X45713157Y-29328235D01*
X45572809Y-29118191D01*
X45362765Y-28977843D01*
X45115000Y-28928560D01*
X44415000Y-28928560D01*
X44167235Y-28977843D01*
X43957191Y-29118191D01*
X43816843Y-29328235D01*
X43815000Y-29337500D01*
X43813157Y-29328235D01*
X43672809Y-29118191D01*
X43462765Y-28977843D01*
X43215000Y-28928560D01*
X42515000Y-28928560D01*
X42267235Y-28977843D01*
X42057191Y-29118191D01*
X41995846Y-29210000D01*
X23709556Y-29210000D01*
X23622000Y-29192584D01*
X23275129Y-29261581D01*
X23125909Y-29361287D01*
X22981067Y-29458067D01*
X22931471Y-29532293D01*
X20388294Y-32075471D01*
X20314068Y-32125067D01*
X20264472Y-32199293D01*
X20264471Y-32199294D01*
X20256500Y-32211224D01*
X20256500Y-31335810D01*
X20275160Y-31242000D01*
X20201235Y-30870353D01*
X20114091Y-30739933D01*
X19990714Y-30555286D01*
X19911183Y-30502146D01*
X19346836Y-29937798D01*
X19356285Y-29890293D01*
X28041579Y-21205000D01*
X31027839Y-21205000D01*
X31115000Y-21222337D01*
X31202161Y-21205000D01*
X31202165Y-21205000D01*
X31460310Y-21153652D01*
X31753049Y-20958049D01*
X31802425Y-20884153D01*
X33429139Y-19257440D01*
X34415000Y-19257440D01*
X34662765Y-19208157D01*
X34872809Y-19067809D01*
X34921459Y-18995000D01*
X38698422Y-18995000D01*
X40393345Y-20689924D01*
G04 #@! TD*
M02*
