G04 #@! TF.GenerationSoftware,KiCad,Pcbnew,(5.0.2-5-10.14)*
G04 #@! TF.CreationDate,2019-03-11T19:31:18-04:00*
G04 #@! TF.ProjectId,glowtie,676c6f77-7469-4652-9e6b-696361645f70,rev?*
G04 #@! TF.SameCoordinates,Original*
G04 #@! TF.FileFunction,Soldermask,Top*
G04 #@! TF.FilePolarity,Negative*
%FSLAX46Y46*%
G04 Gerber Fmt 4.6, Leading zero omitted, Abs format (unit mm)*
G04 Created by KiCad (PCBNEW (5.0.2-5-10.14)) date Monday, March 11, 2019 at 07:31:18 PM*
%MOMM*%
%LPD*%
G01*
G04 APERTURE LIST*
%ADD10C,0.010000*%
%ADD11C,0.100000*%
G04 APERTURE END LIST*
D10*
G04 #@! TO.C,G\002A\002A\002A*
G36*
X83930066Y-32173333D02*
X82634666Y-32173333D01*
X82634666Y-32850667D01*
X83743800Y-32850667D01*
X83743800Y-33274000D01*
X82634666Y-33274000D01*
X82634666Y-34027534D01*
X83930066Y-34027534D01*
X83930066Y-34459334D01*
X82101266Y-34459334D01*
X82101266Y-31741533D01*
X83930066Y-31741533D01*
X83930066Y-32173333D01*
X83930066Y-32173333D01*
G37*
X83930066Y-32173333D02*
X82634666Y-32173333D01*
X82634666Y-32850667D01*
X83743800Y-32850667D01*
X83743800Y-33274000D01*
X82634666Y-33274000D01*
X82634666Y-34027534D01*
X83930066Y-34027534D01*
X83930066Y-34459334D01*
X82101266Y-34459334D01*
X82101266Y-31741533D01*
X83930066Y-31741533D01*
X83930066Y-32173333D01*
G36*
X81474733Y-32173333D02*
X80949800Y-32173333D01*
X80949800Y-34027534D01*
X81474733Y-34027534D01*
X81474733Y-34459334D01*
X79899933Y-34459334D01*
X79899933Y-34027534D01*
X80416400Y-34027534D01*
X80416400Y-32173333D01*
X79899933Y-32173333D01*
X79899933Y-31741533D01*
X81474733Y-31741533D01*
X81474733Y-32173333D01*
X81474733Y-32173333D01*
G37*
X81474733Y-32173333D02*
X80949800Y-32173333D01*
X80949800Y-34027534D01*
X81474733Y-34027534D01*
X81474733Y-34459334D01*
X79899933Y-34459334D01*
X79899933Y-34027534D01*
X80416400Y-34027534D01*
X80416400Y-32173333D01*
X79899933Y-32173333D01*
X79899933Y-31741533D01*
X81474733Y-31741533D01*
X81474733Y-32173333D01*
G36*
X79493533Y-32173333D02*
X78663800Y-32173333D01*
X78663800Y-34459334D01*
X78130400Y-34459334D01*
X78130400Y-32173333D01*
X77300666Y-32173333D01*
X77300666Y-31741533D01*
X79493533Y-31741533D01*
X79493533Y-32173333D01*
X79493533Y-32173333D01*
G37*
X79493533Y-32173333D02*
X78663800Y-32173333D01*
X78663800Y-34459334D01*
X78130400Y-34459334D01*
X78130400Y-32173333D01*
X77300666Y-32173333D01*
X77300666Y-31741533D01*
X79493533Y-31741533D01*
X79493533Y-32173333D01*
G36*
X75334078Y-31741690D02*
X75392866Y-31742203D01*
X75437635Y-31743133D01*
X75469842Y-31744544D01*
X75490943Y-31746499D01*
X75502395Y-31749060D01*
X75505662Y-31752117D01*
X75506627Y-31763278D01*
X75509448Y-31789671D01*
X75513951Y-31829845D01*
X75519962Y-31882347D01*
X75527308Y-31945725D01*
X75535814Y-32018526D01*
X75545307Y-32099299D01*
X75555614Y-32186592D01*
X75566560Y-32278951D01*
X75577973Y-32374925D01*
X75589677Y-32473062D01*
X75601500Y-32571909D01*
X75613268Y-32670015D01*
X75624807Y-32765926D01*
X75635943Y-32858192D01*
X75646502Y-32945358D01*
X75656312Y-33025975D01*
X75665198Y-33098588D01*
X75672986Y-33161747D01*
X75679504Y-33213998D01*
X75684576Y-33253890D01*
X75688030Y-33279970D01*
X75689691Y-33290786D01*
X75689735Y-33290933D01*
X75691596Y-33284609D01*
X75695672Y-33262659D01*
X75701788Y-33226223D01*
X75709771Y-33176440D01*
X75719446Y-33114449D01*
X75730640Y-33041389D01*
X75743177Y-32958398D01*
X75756884Y-32866615D01*
X75771587Y-32767180D01*
X75787112Y-32661231D01*
X75803283Y-32549907D01*
X75806926Y-32524700D01*
X75823206Y-32411968D01*
X75838791Y-32304085D01*
X75853514Y-32202219D01*
X75867204Y-32107538D01*
X75879693Y-32021209D01*
X75890811Y-31944401D01*
X75900390Y-31878281D01*
X75908260Y-31824017D01*
X75914253Y-31782777D01*
X75918199Y-31755729D01*
X75919930Y-31744041D01*
X75919995Y-31743650D01*
X75928242Y-31743040D01*
X75951016Y-31742499D01*
X75985910Y-31742053D01*
X76030518Y-31741730D01*
X76082432Y-31741556D01*
X76110041Y-31741533D01*
X76299483Y-31741533D01*
X76303907Y-31764817D01*
X76305779Y-31776476D01*
X76309950Y-31803657D01*
X76316234Y-31845134D01*
X76324448Y-31899679D01*
X76334408Y-31966064D01*
X76345931Y-32043062D01*
X76358834Y-32129444D01*
X76372931Y-32223984D01*
X76388040Y-32325454D01*
X76403976Y-32432625D01*
X76420557Y-32544272D01*
X76420794Y-32545867D01*
X76437349Y-32657113D01*
X76453279Y-32763574D01*
X76468400Y-32864058D01*
X76482530Y-32957373D01*
X76495485Y-33042327D01*
X76507081Y-33117729D01*
X76517136Y-33182386D01*
X76525465Y-33235107D01*
X76531886Y-33274699D01*
X76536215Y-33299972D01*
X76538269Y-33309733D01*
X76538303Y-33309785D01*
X76540025Y-33302487D01*
X76543591Y-33279542D01*
X76548850Y-33242118D01*
X76555654Y-33191383D01*
X76563854Y-33128506D01*
X76573299Y-33054654D01*
X76583841Y-32970996D01*
X76595330Y-32878700D01*
X76607617Y-32778935D01*
X76620553Y-32672869D01*
X76633989Y-32561670D01*
X76635149Y-32552018D01*
X76648668Y-32439656D01*
X76661679Y-32331769D01*
X76674034Y-32229586D01*
X76685581Y-32134336D01*
X76696171Y-32047249D01*
X76705654Y-31969553D01*
X76713879Y-31902477D01*
X76720697Y-31847251D01*
X76725958Y-31805104D01*
X76729511Y-31777265D01*
X76731207Y-31764963D01*
X76731233Y-31764817D01*
X76735516Y-31741533D01*
X77222855Y-31741533D01*
X77218575Y-31773283D01*
X77216948Y-31785113D01*
X77213121Y-31812793D01*
X77207222Y-31855401D01*
X77199380Y-31912016D01*
X77189722Y-31981716D01*
X77178375Y-32063579D01*
X77165468Y-32156682D01*
X77151128Y-32260104D01*
X77135484Y-32372923D01*
X77118662Y-32494217D01*
X77100792Y-32623063D01*
X77082000Y-32758540D01*
X77062415Y-32899726D01*
X77042164Y-33045699D01*
X77030459Y-33130067D01*
X76846624Y-34455100D01*
X76365092Y-34459586D01*
X76243682Y-33699577D01*
X76225806Y-33587808D01*
X76208603Y-33480492D01*
X76192270Y-33378852D01*
X76177005Y-33284109D01*
X76163007Y-33197486D01*
X76150475Y-33120205D01*
X76139605Y-33053486D01*
X76130596Y-32998554D01*
X76123647Y-32956629D01*
X76118956Y-32928934D01*
X76116721Y-32916691D01*
X76116685Y-32916540D01*
X76114408Y-32920424D01*
X76109767Y-32940647D01*
X76102835Y-32976791D01*
X76093680Y-33028439D01*
X76082372Y-33095171D01*
X76068982Y-33176570D01*
X76053578Y-33272217D01*
X76036231Y-33381694D01*
X76017011Y-33504582D01*
X75997947Y-33627740D01*
X75980892Y-33738341D01*
X75964427Y-33844990D01*
X75948754Y-33946382D01*
X75934076Y-34041214D01*
X75920595Y-34128180D01*
X75908514Y-34205978D01*
X75898035Y-34273302D01*
X75889361Y-34328850D01*
X75882693Y-34371316D01*
X75878236Y-34399397D01*
X75876393Y-34410650D01*
X75867990Y-34459334D01*
X75627595Y-34459334D01*
X75565764Y-34459168D01*
X75509823Y-34458700D01*
X75461900Y-34457972D01*
X75424121Y-34457030D01*
X75398614Y-34455915D01*
X75387507Y-34454671D01*
X75387200Y-34454423D01*
X75386070Y-34445435D01*
X75382780Y-34420759D01*
X75377480Y-34381484D01*
X75370319Y-34328695D01*
X75361445Y-34263480D01*
X75351008Y-34186928D01*
X75339158Y-34100125D01*
X75326043Y-34004158D01*
X75311813Y-33900116D01*
X75296617Y-33789085D01*
X75280604Y-33672152D01*
X75263924Y-33550407D01*
X75246725Y-33424934D01*
X75229157Y-33296823D01*
X75211370Y-33167161D01*
X75193511Y-33037034D01*
X75175731Y-32907531D01*
X75158179Y-32779738D01*
X75141004Y-32654743D01*
X75124355Y-32533634D01*
X75108382Y-32417498D01*
X75093233Y-32307423D01*
X75079058Y-32204495D01*
X75066006Y-32109802D01*
X75054227Y-32024431D01*
X75043869Y-31949471D01*
X75035082Y-31886008D01*
X75028016Y-31835129D01*
X75022818Y-31797923D01*
X75019639Y-31775476D01*
X75018681Y-31769050D01*
X75013899Y-31741533D01*
X75259816Y-31741533D01*
X75334078Y-31741690D01*
X75334078Y-31741690D01*
G37*
X75334078Y-31741690D02*
X75392866Y-31742203D01*
X75437635Y-31743133D01*
X75469842Y-31744544D01*
X75490943Y-31746499D01*
X75502395Y-31749060D01*
X75505662Y-31752117D01*
X75506627Y-31763278D01*
X75509448Y-31789671D01*
X75513951Y-31829845D01*
X75519962Y-31882347D01*
X75527308Y-31945725D01*
X75535814Y-32018526D01*
X75545307Y-32099299D01*
X75555614Y-32186592D01*
X75566560Y-32278951D01*
X75577973Y-32374925D01*
X75589677Y-32473062D01*
X75601500Y-32571909D01*
X75613268Y-32670015D01*
X75624807Y-32765926D01*
X75635943Y-32858192D01*
X75646502Y-32945358D01*
X75656312Y-33025975D01*
X75665198Y-33098588D01*
X75672986Y-33161747D01*
X75679504Y-33213998D01*
X75684576Y-33253890D01*
X75688030Y-33279970D01*
X75689691Y-33290786D01*
X75689735Y-33290933D01*
X75691596Y-33284609D01*
X75695672Y-33262659D01*
X75701788Y-33226223D01*
X75709771Y-33176440D01*
X75719446Y-33114449D01*
X75730640Y-33041389D01*
X75743177Y-32958398D01*
X75756884Y-32866615D01*
X75771587Y-32767180D01*
X75787112Y-32661231D01*
X75803283Y-32549907D01*
X75806926Y-32524700D01*
X75823206Y-32411968D01*
X75838791Y-32304085D01*
X75853514Y-32202219D01*
X75867204Y-32107538D01*
X75879693Y-32021209D01*
X75890811Y-31944401D01*
X75900390Y-31878281D01*
X75908260Y-31824017D01*
X75914253Y-31782777D01*
X75918199Y-31755729D01*
X75919930Y-31744041D01*
X75919995Y-31743650D01*
X75928242Y-31743040D01*
X75951016Y-31742499D01*
X75985910Y-31742053D01*
X76030518Y-31741730D01*
X76082432Y-31741556D01*
X76110041Y-31741533D01*
X76299483Y-31741533D01*
X76303907Y-31764817D01*
X76305779Y-31776476D01*
X76309950Y-31803657D01*
X76316234Y-31845134D01*
X76324448Y-31899679D01*
X76334408Y-31966064D01*
X76345931Y-32043062D01*
X76358834Y-32129444D01*
X76372931Y-32223984D01*
X76388040Y-32325454D01*
X76403976Y-32432625D01*
X76420557Y-32544272D01*
X76420794Y-32545867D01*
X76437349Y-32657113D01*
X76453279Y-32763574D01*
X76468400Y-32864058D01*
X76482530Y-32957373D01*
X76495485Y-33042327D01*
X76507081Y-33117729D01*
X76517136Y-33182386D01*
X76525465Y-33235107D01*
X76531886Y-33274699D01*
X76536215Y-33299972D01*
X76538269Y-33309733D01*
X76538303Y-33309785D01*
X76540025Y-33302487D01*
X76543591Y-33279542D01*
X76548850Y-33242118D01*
X76555654Y-33191383D01*
X76563854Y-33128506D01*
X76573299Y-33054654D01*
X76583841Y-32970996D01*
X76595330Y-32878700D01*
X76607617Y-32778935D01*
X76620553Y-32672869D01*
X76633989Y-32561670D01*
X76635149Y-32552018D01*
X76648668Y-32439656D01*
X76661679Y-32331769D01*
X76674034Y-32229586D01*
X76685581Y-32134336D01*
X76696171Y-32047249D01*
X76705654Y-31969553D01*
X76713879Y-31902477D01*
X76720697Y-31847251D01*
X76725958Y-31805104D01*
X76729511Y-31777265D01*
X76731207Y-31764963D01*
X76731233Y-31764817D01*
X76735516Y-31741533D01*
X77222855Y-31741533D01*
X77218575Y-31773283D01*
X77216948Y-31785113D01*
X77213121Y-31812793D01*
X77207222Y-31855401D01*
X77199380Y-31912016D01*
X77189722Y-31981716D01*
X77178375Y-32063579D01*
X77165468Y-32156682D01*
X77151128Y-32260104D01*
X77135484Y-32372923D01*
X77118662Y-32494217D01*
X77100792Y-32623063D01*
X77082000Y-32758540D01*
X77062415Y-32899726D01*
X77042164Y-33045699D01*
X77030459Y-33130067D01*
X76846624Y-34455100D01*
X76365092Y-34459586D01*
X76243682Y-33699577D01*
X76225806Y-33587808D01*
X76208603Y-33480492D01*
X76192270Y-33378852D01*
X76177005Y-33284109D01*
X76163007Y-33197486D01*
X76150475Y-33120205D01*
X76139605Y-33053486D01*
X76130596Y-32998554D01*
X76123647Y-32956629D01*
X76118956Y-32928934D01*
X76116721Y-32916691D01*
X76116685Y-32916540D01*
X76114408Y-32920424D01*
X76109767Y-32940647D01*
X76102835Y-32976791D01*
X76093680Y-33028439D01*
X76082372Y-33095171D01*
X76068982Y-33176570D01*
X76053578Y-33272217D01*
X76036231Y-33381694D01*
X76017011Y-33504582D01*
X75997947Y-33627740D01*
X75980892Y-33738341D01*
X75964427Y-33844990D01*
X75948754Y-33946382D01*
X75934076Y-34041214D01*
X75920595Y-34128180D01*
X75908514Y-34205978D01*
X75898035Y-34273302D01*
X75889361Y-34328850D01*
X75882693Y-34371316D01*
X75878236Y-34399397D01*
X75876393Y-34410650D01*
X75867990Y-34459334D01*
X75627595Y-34459334D01*
X75565764Y-34459168D01*
X75509823Y-34458700D01*
X75461900Y-34457972D01*
X75424121Y-34457030D01*
X75398614Y-34455915D01*
X75387507Y-34454671D01*
X75387200Y-34454423D01*
X75386070Y-34445435D01*
X75382780Y-34420759D01*
X75377480Y-34381484D01*
X75370319Y-34328695D01*
X75361445Y-34263480D01*
X75351008Y-34186928D01*
X75339158Y-34100125D01*
X75326043Y-34004158D01*
X75311813Y-33900116D01*
X75296617Y-33789085D01*
X75280604Y-33672152D01*
X75263924Y-33550407D01*
X75246725Y-33424934D01*
X75229157Y-33296823D01*
X75211370Y-33167161D01*
X75193511Y-33037034D01*
X75175731Y-32907531D01*
X75158179Y-32779738D01*
X75141004Y-32654743D01*
X75124355Y-32533634D01*
X75108382Y-32417498D01*
X75093233Y-32307423D01*
X75079058Y-32204495D01*
X75066006Y-32109802D01*
X75054227Y-32024431D01*
X75043869Y-31949471D01*
X75035082Y-31886008D01*
X75028016Y-31835129D01*
X75022818Y-31797923D01*
X75019639Y-31775476D01*
X75018681Y-31769050D01*
X75013899Y-31741533D01*
X75259816Y-31741533D01*
X75334078Y-31741690D01*
G36*
X71204666Y-34027534D02*
X72474666Y-34027534D01*
X72474666Y-34459334D01*
X70671266Y-34459334D01*
X70671266Y-31741533D01*
X71204666Y-31741533D01*
X71204666Y-34027534D01*
X71204666Y-34027534D01*
G37*
X71204666Y-34027534D02*
X72474666Y-34027534D01*
X72474666Y-34459334D01*
X70671266Y-34459334D01*
X70671266Y-31741533D01*
X71204666Y-31741533D01*
X71204666Y-34027534D01*
G36*
X73816633Y-31712420D02*
X73877575Y-31712741D01*
X73924869Y-31713494D01*
X73961800Y-31714966D01*
X73991654Y-31717443D01*
X74017715Y-31721212D01*
X74043269Y-31726560D01*
X74071599Y-31733774D01*
X74076609Y-31735120D01*
X74196739Y-31775881D01*
X74307497Y-31830622D01*
X74408575Y-31899021D01*
X74499666Y-31980753D01*
X74580461Y-32075496D01*
X74650652Y-32182928D01*
X74709931Y-32302724D01*
X74757991Y-32434561D01*
X74764682Y-32456967D01*
X74775709Y-32495556D01*
X74785022Y-32530228D01*
X74792767Y-32562815D01*
X74799087Y-32595151D01*
X74804127Y-32629070D01*
X74808031Y-32666407D01*
X74810944Y-32708993D01*
X74813010Y-32758663D01*
X74814373Y-32817252D01*
X74815179Y-32886591D01*
X74815571Y-32968516D01*
X74815693Y-33064859D01*
X74815699Y-33104667D01*
X74815672Y-33200245D01*
X74815547Y-33280616D01*
X74815259Y-33347505D01*
X74814743Y-33402638D01*
X74813935Y-33447741D01*
X74812770Y-33484540D01*
X74811182Y-33514761D01*
X74809108Y-33540130D01*
X74806483Y-33562371D01*
X74803241Y-33583212D01*
X74799318Y-33604378D01*
X74796385Y-33619063D01*
X74760145Y-33763854D01*
X74712666Y-33896211D01*
X74654009Y-34016045D01*
X74584238Y-34123268D01*
X74503412Y-34217789D01*
X74411595Y-34299521D01*
X74308847Y-34368374D01*
X74256899Y-34396210D01*
X74190219Y-34427252D01*
X74128615Y-34450802D01*
X74067769Y-34467835D01*
X74003359Y-34479324D01*
X73931065Y-34486241D01*
X73846568Y-34489559D01*
X73842033Y-34489646D01*
X73757921Y-34490064D01*
X73690077Y-34487891D01*
X73638029Y-34483109D01*
X73624620Y-34481022D01*
X73506673Y-34451994D01*
X73396124Y-34408050D01*
X73293600Y-34349795D01*
X73199728Y-34277834D01*
X73115136Y-34192772D01*
X73040452Y-34095215D01*
X72976304Y-33985767D01*
X72923320Y-33865033D01*
X72893954Y-33776684D01*
X72880603Y-33729728D01*
X72869475Y-33686714D01*
X72860342Y-33645422D01*
X72852979Y-33603632D01*
X72847158Y-33559124D01*
X72842653Y-33509678D01*
X72839238Y-33453075D01*
X72836686Y-33387095D01*
X72834769Y-33309517D01*
X72833263Y-33218122D01*
X72832719Y-33176807D01*
X72832021Y-33100433D01*
X73372133Y-33100433D01*
X73372389Y-33207029D01*
X73373246Y-33298584D01*
X73374837Y-33376984D01*
X73377295Y-33444115D01*
X73380754Y-33501863D01*
X73385347Y-33552115D01*
X73391207Y-33596756D01*
X73398467Y-33637672D01*
X73407260Y-33676749D01*
X73414891Y-33705800D01*
X73446386Y-33796357D01*
X73487030Y-33874463D01*
X73536193Y-33939462D01*
X73593245Y-33990701D01*
X73657557Y-34027526D01*
X73728499Y-34049284D01*
X73748646Y-34052482D01*
X73816445Y-34056038D01*
X73885848Y-34050661D01*
X73926558Y-34042763D01*
X73996796Y-34016530D01*
X74060181Y-33975084D01*
X74116465Y-33918805D01*
X74165395Y-33848073D01*
X74206721Y-33763270D01*
X74240193Y-33664776D01*
X74265560Y-33552970D01*
X74271145Y-33519534D01*
X74274325Y-33492226D01*
X74276920Y-33454492D01*
X74278959Y-33405219D01*
X74280468Y-33343298D01*
X74281478Y-33267614D01*
X74282016Y-33177058D01*
X74282123Y-33087733D01*
X74281917Y-32988309D01*
X74281296Y-32903845D01*
X74280097Y-32832371D01*
X74278157Y-32771915D01*
X74275313Y-32720508D01*
X74271402Y-32676177D01*
X74266261Y-32636953D01*
X74259727Y-32600864D01*
X74251637Y-32565940D01*
X74241828Y-32530209D01*
X74233812Y-32503533D01*
X74199674Y-32413914D01*
X74156361Y-32335664D01*
X74104780Y-32269883D01*
X74045840Y-32217670D01*
X73980448Y-32180124D01*
X73960136Y-32172039D01*
X73909401Y-32158762D01*
X73850075Y-32150942D01*
X73789421Y-32149056D01*
X73734701Y-32153579D01*
X73720349Y-32156296D01*
X73647568Y-32180848D01*
X73582666Y-32220171D01*
X73526006Y-32273861D01*
X73477953Y-32341515D01*
X73438869Y-32422730D01*
X73414891Y-32495067D01*
X73404868Y-32534000D01*
X73396478Y-32573367D01*
X73389587Y-32615053D01*
X73384063Y-32660943D01*
X73379771Y-32712925D01*
X73376580Y-32772884D01*
X73374355Y-32842706D01*
X73372963Y-32924278D01*
X73372272Y-33019484D01*
X73372133Y-33100433D01*
X72832021Y-33100433D01*
X72831621Y-33056718D01*
X72831543Y-32953471D01*
X72832486Y-32867007D01*
X72834449Y-32797263D01*
X72837435Y-32744181D01*
X72838439Y-32732460D01*
X72859129Y-32581054D01*
X72891565Y-32440045D01*
X72935429Y-32309874D01*
X72990402Y-32190982D01*
X73056163Y-32083810D01*
X73132394Y-31988800D01*
X73218775Y-31906392D01*
X73314988Y-31837028D01*
X73420713Y-31781149D01*
X73535631Y-31739195D01*
X73562633Y-31731743D01*
X73590220Y-31724950D01*
X73615590Y-31719912D01*
X73641980Y-31716383D01*
X73672626Y-31714117D01*
X73710763Y-31712869D01*
X73759627Y-31712391D01*
X73816633Y-31712420D01*
X73816633Y-31712420D01*
G37*
X73816633Y-31712420D02*
X73877575Y-31712741D01*
X73924869Y-31713494D01*
X73961800Y-31714966D01*
X73991654Y-31717443D01*
X74017715Y-31721212D01*
X74043269Y-31726560D01*
X74071599Y-31733774D01*
X74076609Y-31735120D01*
X74196739Y-31775881D01*
X74307497Y-31830622D01*
X74408575Y-31899021D01*
X74499666Y-31980753D01*
X74580461Y-32075496D01*
X74650652Y-32182928D01*
X74709931Y-32302724D01*
X74757991Y-32434561D01*
X74764682Y-32456967D01*
X74775709Y-32495556D01*
X74785022Y-32530228D01*
X74792767Y-32562815D01*
X74799087Y-32595151D01*
X74804127Y-32629070D01*
X74808031Y-32666407D01*
X74810944Y-32708993D01*
X74813010Y-32758663D01*
X74814373Y-32817252D01*
X74815179Y-32886591D01*
X74815571Y-32968516D01*
X74815693Y-33064859D01*
X74815699Y-33104667D01*
X74815672Y-33200245D01*
X74815547Y-33280616D01*
X74815259Y-33347505D01*
X74814743Y-33402638D01*
X74813935Y-33447741D01*
X74812770Y-33484540D01*
X74811182Y-33514761D01*
X74809108Y-33540130D01*
X74806483Y-33562371D01*
X74803241Y-33583212D01*
X74799318Y-33604378D01*
X74796385Y-33619063D01*
X74760145Y-33763854D01*
X74712666Y-33896211D01*
X74654009Y-34016045D01*
X74584238Y-34123268D01*
X74503412Y-34217789D01*
X74411595Y-34299521D01*
X74308847Y-34368374D01*
X74256899Y-34396210D01*
X74190219Y-34427252D01*
X74128615Y-34450802D01*
X74067769Y-34467835D01*
X74003359Y-34479324D01*
X73931065Y-34486241D01*
X73846568Y-34489559D01*
X73842033Y-34489646D01*
X73757921Y-34490064D01*
X73690077Y-34487891D01*
X73638029Y-34483109D01*
X73624620Y-34481022D01*
X73506673Y-34451994D01*
X73396124Y-34408050D01*
X73293600Y-34349795D01*
X73199728Y-34277834D01*
X73115136Y-34192772D01*
X73040452Y-34095215D01*
X72976304Y-33985767D01*
X72923320Y-33865033D01*
X72893954Y-33776684D01*
X72880603Y-33729728D01*
X72869475Y-33686714D01*
X72860342Y-33645422D01*
X72852979Y-33603632D01*
X72847158Y-33559124D01*
X72842653Y-33509678D01*
X72839238Y-33453075D01*
X72836686Y-33387095D01*
X72834769Y-33309517D01*
X72833263Y-33218122D01*
X72832719Y-33176807D01*
X72832021Y-33100433D01*
X73372133Y-33100433D01*
X73372389Y-33207029D01*
X73373246Y-33298584D01*
X73374837Y-33376984D01*
X73377295Y-33444115D01*
X73380754Y-33501863D01*
X73385347Y-33552115D01*
X73391207Y-33596756D01*
X73398467Y-33637672D01*
X73407260Y-33676749D01*
X73414891Y-33705800D01*
X73446386Y-33796357D01*
X73487030Y-33874463D01*
X73536193Y-33939462D01*
X73593245Y-33990701D01*
X73657557Y-34027526D01*
X73728499Y-34049284D01*
X73748646Y-34052482D01*
X73816445Y-34056038D01*
X73885848Y-34050661D01*
X73926558Y-34042763D01*
X73996796Y-34016530D01*
X74060181Y-33975084D01*
X74116465Y-33918805D01*
X74165395Y-33848073D01*
X74206721Y-33763270D01*
X74240193Y-33664776D01*
X74265560Y-33552970D01*
X74271145Y-33519534D01*
X74274325Y-33492226D01*
X74276920Y-33454492D01*
X74278959Y-33405219D01*
X74280468Y-33343298D01*
X74281478Y-33267614D01*
X74282016Y-33177058D01*
X74282123Y-33087733D01*
X74281917Y-32988309D01*
X74281296Y-32903845D01*
X74280097Y-32832371D01*
X74278157Y-32771915D01*
X74275313Y-32720508D01*
X74271402Y-32676177D01*
X74266261Y-32636953D01*
X74259727Y-32600864D01*
X74251637Y-32565940D01*
X74241828Y-32530209D01*
X74233812Y-32503533D01*
X74199674Y-32413914D01*
X74156361Y-32335664D01*
X74104780Y-32269883D01*
X74045840Y-32217670D01*
X73980448Y-32180124D01*
X73960136Y-32172039D01*
X73909401Y-32158762D01*
X73850075Y-32150942D01*
X73789421Y-32149056D01*
X73734701Y-32153579D01*
X73720349Y-32156296D01*
X73647568Y-32180848D01*
X73582666Y-32220171D01*
X73526006Y-32273861D01*
X73477953Y-32341515D01*
X73438869Y-32422730D01*
X73414891Y-32495067D01*
X73404868Y-32534000D01*
X73396478Y-32573367D01*
X73389587Y-32615053D01*
X73384063Y-32660943D01*
X73379771Y-32712925D01*
X73376580Y-32772884D01*
X73374355Y-32842706D01*
X73372963Y-32924278D01*
X73372272Y-33019484D01*
X73372133Y-33100433D01*
X72832021Y-33100433D01*
X72831621Y-33056718D01*
X72831543Y-32953471D01*
X72832486Y-32867007D01*
X72834449Y-32797263D01*
X72837435Y-32744181D01*
X72838439Y-32732460D01*
X72859129Y-32581054D01*
X72891565Y-32440045D01*
X72935429Y-32309874D01*
X72990402Y-32190982D01*
X73056163Y-32083810D01*
X73132394Y-31988800D01*
X73218775Y-31906392D01*
X73314988Y-31837028D01*
X73420713Y-31781149D01*
X73535631Y-31739195D01*
X73562633Y-31731743D01*
X73590220Y-31724950D01*
X73615590Y-31719912D01*
X73641980Y-31716383D01*
X73672626Y-31714117D01*
X73710763Y-31712869D01*
X73759627Y-31712391D01*
X73816633Y-31712420D01*
G36*
X69398034Y-31711733D02*
X69507340Y-31724373D01*
X69607903Y-31746247D01*
X69702837Y-31778016D01*
X69786500Y-31815849D01*
X69832085Y-31840016D01*
X69868861Y-31862560D01*
X69902153Y-31887344D01*
X69937288Y-31918233D01*
X69967357Y-31947048D01*
X70036905Y-32026069D01*
X70095726Y-32116674D01*
X70144050Y-32219385D01*
X70182109Y-32334724D01*
X70210133Y-32463214D01*
X70218011Y-32514240D01*
X70223607Y-32554580D01*
X69703629Y-32550100D01*
X69689014Y-32478133D01*
X69664790Y-32389462D01*
X69630779Y-32314569D01*
X69586702Y-32253224D01*
X69532281Y-32205195D01*
X69467237Y-32170249D01*
X69391291Y-32148155D01*
X69304166Y-32138680D01*
X69280939Y-32138257D01*
X69209408Y-32143365D01*
X69146454Y-32159991D01*
X69088740Y-32189614D01*
X69032928Y-32233715D01*
X69006124Y-32260158D01*
X68961419Y-32313026D01*
X68923748Y-32371916D01*
X68890985Y-32440611D01*
X68864584Y-32512000D01*
X68851431Y-32553152D01*
X68840427Y-32592145D01*
X68831411Y-32630915D01*
X68824219Y-32671397D01*
X68818691Y-32715527D01*
X68814664Y-32765240D01*
X68811975Y-32822471D01*
X68810463Y-32889155D01*
X68809965Y-32967227D01*
X68810319Y-33058623D01*
X68811183Y-33149417D01*
X68812332Y-33243525D01*
X68813598Y-33322694D01*
X68815147Y-33388918D01*
X68817144Y-33444191D01*
X68819752Y-33490509D01*
X68823138Y-33529865D01*
X68827467Y-33564254D01*
X68832902Y-33595670D01*
X68839610Y-33626107D01*
X68847755Y-33657560D01*
X68855487Y-33685038D01*
X68890091Y-33781706D01*
X68934216Y-33864556D01*
X68987614Y-33933414D01*
X69050040Y-33988109D01*
X69121249Y-34028467D01*
X69200995Y-34054315D01*
X69289031Y-34065481D01*
X69385111Y-34061792D01*
X69390569Y-34061161D01*
X69465144Y-34049127D01*
X69533955Y-34031955D01*
X69594056Y-34010651D01*
X69642500Y-33986219D01*
X69670083Y-33965836D01*
X69675636Y-33960372D01*
X69679989Y-33954030D01*
X69683289Y-33944839D01*
X69685680Y-33930825D01*
X69687310Y-33910017D01*
X69688324Y-33880442D01*
X69688869Y-33840128D01*
X69689090Y-33787103D01*
X69689133Y-33719395D01*
X69689133Y-33468734D01*
X69240400Y-33468734D01*
X69240400Y-33062333D01*
X70222533Y-33062333D01*
X70222533Y-34146067D01*
X70189606Y-34178994D01*
X70105136Y-34252165D01*
X70006743Y-34317032D01*
X69895586Y-34372987D01*
X69772822Y-34419427D01*
X69677501Y-34446729D01*
X69627640Y-34458449D01*
X69575251Y-34469429D01*
X69526733Y-34478400D01*
X69490166Y-34483893D01*
X69439123Y-34488423D01*
X69378464Y-34491165D01*
X69312591Y-34492165D01*
X69245910Y-34491470D01*
X69182823Y-34489127D01*
X69127736Y-34485181D01*
X69085053Y-34479681D01*
X69084588Y-34479597D01*
X68960198Y-34449215D01*
X68845163Y-34404849D01*
X68739737Y-34346794D01*
X68644172Y-34275346D01*
X68558719Y-34190798D01*
X68483631Y-34093446D01*
X68419161Y-33983583D01*
X68365560Y-33861506D01*
X68323082Y-33727508D01*
X68291978Y-33581884D01*
X68286563Y-33547481D01*
X68281806Y-33504605D01*
X68277862Y-33447725D01*
X68274731Y-33379488D01*
X68272413Y-33302540D01*
X68270908Y-33219529D01*
X68270216Y-33133099D01*
X68270339Y-33045898D01*
X68271275Y-32960572D01*
X68273026Y-32879768D01*
X68275590Y-32806131D01*
X68278970Y-32742309D01*
X68283164Y-32690947D01*
X68286495Y-32664400D01*
X68316429Y-32514210D01*
X68357874Y-32375501D01*
X68410662Y-32248568D01*
X68474622Y-32133711D01*
X68549588Y-32031226D01*
X68635390Y-31941411D01*
X68731859Y-31864563D01*
X68744823Y-31855775D01*
X68836606Y-31801747D01*
X68931122Y-31760673D01*
X69031023Y-31731813D01*
X69138960Y-31714429D01*
X69257587Y-31707783D01*
X69276871Y-31707667D01*
X69398034Y-31711733D01*
X69398034Y-31711733D01*
G37*
X69398034Y-31711733D02*
X69507340Y-31724373D01*
X69607903Y-31746247D01*
X69702837Y-31778016D01*
X69786500Y-31815849D01*
X69832085Y-31840016D01*
X69868861Y-31862560D01*
X69902153Y-31887344D01*
X69937288Y-31918233D01*
X69967357Y-31947048D01*
X70036905Y-32026069D01*
X70095726Y-32116674D01*
X70144050Y-32219385D01*
X70182109Y-32334724D01*
X70210133Y-32463214D01*
X70218011Y-32514240D01*
X70223607Y-32554580D01*
X69703629Y-32550100D01*
X69689014Y-32478133D01*
X69664790Y-32389462D01*
X69630779Y-32314569D01*
X69586702Y-32253224D01*
X69532281Y-32205195D01*
X69467237Y-32170249D01*
X69391291Y-32148155D01*
X69304166Y-32138680D01*
X69280939Y-32138257D01*
X69209408Y-32143365D01*
X69146454Y-32159991D01*
X69088740Y-32189614D01*
X69032928Y-32233715D01*
X69006124Y-32260158D01*
X68961419Y-32313026D01*
X68923748Y-32371916D01*
X68890985Y-32440611D01*
X68864584Y-32512000D01*
X68851431Y-32553152D01*
X68840427Y-32592145D01*
X68831411Y-32630915D01*
X68824219Y-32671397D01*
X68818691Y-32715527D01*
X68814664Y-32765240D01*
X68811975Y-32822471D01*
X68810463Y-32889155D01*
X68809965Y-32967227D01*
X68810319Y-33058623D01*
X68811183Y-33149417D01*
X68812332Y-33243525D01*
X68813598Y-33322694D01*
X68815147Y-33388918D01*
X68817144Y-33444191D01*
X68819752Y-33490509D01*
X68823138Y-33529865D01*
X68827467Y-33564254D01*
X68832902Y-33595670D01*
X68839610Y-33626107D01*
X68847755Y-33657560D01*
X68855487Y-33685038D01*
X68890091Y-33781706D01*
X68934216Y-33864556D01*
X68987614Y-33933414D01*
X69050040Y-33988109D01*
X69121249Y-34028467D01*
X69200995Y-34054315D01*
X69289031Y-34065481D01*
X69385111Y-34061792D01*
X69390569Y-34061161D01*
X69465144Y-34049127D01*
X69533955Y-34031955D01*
X69594056Y-34010651D01*
X69642500Y-33986219D01*
X69670083Y-33965836D01*
X69675636Y-33960372D01*
X69679989Y-33954030D01*
X69683289Y-33944839D01*
X69685680Y-33930825D01*
X69687310Y-33910017D01*
X69688324Y-33880442D01*
X69688869Y-33840128D01*
X69689090Y-33787103D01*
X69689133Y-33719395D01*
X69689133Y-33468734D01*
X69240400Y-33468734D01*
X69240400Y-33062333D01*
X70222533Y-33062333D01*
X70222533Y-34146067D01*
X70189606Y-34178994D01*
X70105136Y-34252165D01*
X70006743Y-34317032D01*
X69895586Y-34372987D01*
X69772822Y-34419427D01*
X69677501Y-34446729D01*
X69627640Y-34458449D01*
X69575251Y-34469429D01*
X69526733Y-34478400D01*
X69490166Y-34483893D01*
X69439123Y-34488423D01*
X69378464Y-34491165D01*
X69312591Y-34492165D01*
X69245910Y-34491470D01*
X69182823Y-34489127D01*
X69127736Y-34485181D01*
X69085053Y-34479681D01*
X69084588Y-34479597D01*
X68960198Y-34449215D01*
X68845163Y-34404849D01*
X68739737Y-34346794D01*
X68644172Y-34275346D01*
X68558719Y-34190798D01*
X68483631Y-34093446D01*
X68419161Y-33983583D01*
X68365560Y-33861506D01*
X68323082Y-33727508D01*
X68291978Y-33581884D01*
X68286563Y-33547481D01*
X68281806Y-33504605D01*
X68277862Y-33447725D01*
X68274731Y-33379488D01*
X68272413Y-33302540D01*
X68270908Y-33219529D01*
X68270216Y-33133099D01*
X68270339Y-33045898D01*
X68271275Y-32960572D01*
X68273026Y-32879768D01*
X68275590Y-32806131D01*
X68278970Y-32742309D01*
X68283164Y-32690947D01*
X68286495Y-32664400D01*
X68316429Y-32514210D01*
X68357874Y-32375501D01*
X68410662Y-32248568D01*
X68474622Y-32133711D01*
X68549588Y-32031226D01*
X68635390Y-31941411D01*
X68731859Y-31864563D01*
X68744823Y-31855775D01*
X68836606Y-31801747D01*
X68931122Y-31760673D01*
X69031023Y-31731813D01*
X69138960Y-31714429D01*
X69257587Y-31707783D01*
X69276871Y-31707667D01*
X69398034Y-31711733D01*
D11*
G36*
X124635000Y-68190000D02*
X122935000Y-68190000D01*
X122935000Y-67090000D01*
X124635000Y-67090000D01*
X124635000Y-68190000D01*
X124635000Y-68190000D01*
G37*
G36*
X119635000Y-68190000D02*
X117935000Y-68190000D01*
X117935000Y-67090000D01*
X119635000Y-67090000D01*
X119635000Y-68190000D01*
X119635000Y-68190000D01*
G37*
G36*
X34465000Y-68190000D02*
X32765000Y-68190000D01*
X32765000Y-67090000D01*
X34465000Y-67090000D01*
X34465000Y-68190000D01*
X34465000Y-68190000D01*
G37*
G36*
X29465000Y-68190000D02*
X27765000Y-68190000D01*
X27765000Y-67090000D01*
X29465000Y-67090000D01*
X29465000Y-68190000D01*
X29465000Y-68190000D01*
G37*
G36*
X124635000Y-64990000D02*
X122935000Y-64990000D01*
X122935000Y-63890000D01*
X124635000Y-63890000D01*
X124635000Y-64990000D01*
X124635000Y-64990000D01*
G37*
G36*
X119635000Y-64990000D02*
X117935000Y-64990000D01*
X117935000Y-63890000D01*
X119635000Y-63890000D01*
X119635000Y-64990000D01*
X119635000Y-64990000D01*
G37*
G36*
X34465000Y-64990000D02*
X32765000Y-64990000D01*
X32765000Y-63890000D01*
X34465000Y-63890000D01*
X34465000Y-64990000D01*
X34465000Y-64990000D01*
G37*
G36*
X29465000Y-64990000D02*
X27765000Y-64990000D01*
X27765000Y-63890000D01*
X29465000Y-63890000D01*
X29465000Y-64990000D01*
X29465000Y-64990000D01*
G37*
G36*
X50918021Y-59857595D02*
X49615745Y-60950335D01*
X48908677Y-60107685D01*
X50210953Y-59014945D01*
X50918021Y-59857595D01*
X50918021Y-59857595D01*
G37*
G36*
X103491323Y-60107685D02*
X102784255Y-60950335D01*
X101481979Y-59857595D01*
X102189047Y-59014945D01*
X103491323Y-60107685D01*
X103491323Y-60107685D01*
G37*
G36*
X48861101Y-57406253D02*
X47558825Y-58498993D01*
X46851757Y-57656343D01*
X48154033Y-56563603D01*
X48861101Y-57406253D01*
X48861101Y-57406253D01*
G37*
G36*
X105548243Y-57656343D02*
X104841175Y-58498993D01*
X103538899Y-57406253D01*
X104245967Y-56563603D01*
X105548243Y-57656343D01*
X105548243Y-57656343D01*
G37*
G36*
X54748243Y-56643657D02*
X53445967Y-57736397D01*
X52738899Y-56893747D01*
X54041175Y-55801007D01*
X54748243Y-56643657D01*
X54748243Y-56643657D01*
G37*
G36*
X99661101Y-56893747D02*
X98954033Y-57736397D01*
X97651757Y-56643657D01*
X98358825Y-55801007D01*
X99661101Y-56893747D01*
X99661101Y-56893747D01*
G37*
G36*
X101718021Y-54442405D02*
X101010953Y-55285055D01*
X99708677Y-54192315D01*
X100415745Y-53349665D01*
X101718021Y-54442405D01*
X101718021Y-54442405D01*
G37*
G36*
X52691323Y-54192315D02*
X51389047Y-55285055D01*
X50681979Y-54442405D01*
X51984255Y-53349665D01*
X52691323Y-54192315D01*
X52691323Y-54192315D01*
G37*
G36*
X78180000Y-53950000D02*
X77080000Y-53950000D01*
X77080000Y-53050000D01*
X78180000Y-53050000D01*
X78180000Y-53950000D01*
X78180000Y-53950000D01*
G37*
G36*
X85480000Y-53950000D02*
X84380000Y-53950000D01*
X84380000Y-53050000D01*
X85480000Y-53050000D01*
X85480000Y-53950000D01*
X85480000Y-53950000D01*
G37*
G36*
X15460000Y-53515000D02*
X14360000Y-53515000D01*
X14360000Y-51815000D01*
X15460000Y-51815000D01*
X15460000Y-53515000D01*
X15460000Y-53515000D01*
G37*
G36*
X18660000Y-53515000D02*
X17560000Y-53515000D01*
X17560000Y-51815000D01*
X18660000Y-51815000D01*
X18660000Y-53515000D01*
X18660000Y-53515000D01*
G37*
G36*
X138040000Y-53515000D02*
X136940000Y-53515000D01*
X136940000Y-51815000D01*
X138040000Y-51815000D01*
X138040000Y-53515000D01*
X138040000Y-53515000D01*
G37*
G36*
X134840000Y-53515000D02*
X133740000Y-53515000D01*
X133740000Y-51815000D01*
X134840000Y-51815000D01*
X134840000Y-53515000D01*
X134840000Y-53515000D01*
G37*
G36*
X74727818Y-51459958D02*
X74831493Y-51491407D01*
X74927042Y-51542479D01*
X75010791Y-51611210D01*
X75079521Y-51694957D01*
X75130593Y-51790506D01*
X75162042Y-51894181D01*
X75170000Y-51974980D01*
X75170000Y-52579020D01*
X75162042Y-52659819D01*
X75130593Y-52763494D01*
X75079521Y-52859043D01*
X75010791Y-52942791D01*
X74927043Y-53011521D01*
X74831494Y-53062593D01*
X74727819Y-53094042D01*
X74620000Y-53104661D01*
X74512182Y-53094042D01*
X74408507Y-53062593D01*
X74312958Y-53011521D01*
X74229210Y-52942791D01*
X74160480Y-52859043D01*
X74109407Y-52763494D01*
X74077958Y-52659819D01*
X74070000Y-52579020D01*
X74070000Y-51974981D01*
X74077958Y-51894182D01*
X74109407Y-51790507D01*
X74160479Y-51694958D01*
X74229210Y-51611209D01*
X74312957Y-51542479D01*
X74408506Y-51491407D01*
X74512181Y-51459958D01*
X74620000Y-51449339D01*
X74727818Y-51459958D01*
X74727818Y-51459958D01*
G37*
G36*
X67727818Y-51459958D02*
X67831493Y-51491407D01*
X67927042Y-51542479D01*
X68010791Y-51611210D01*
X68079521Y-51694957D01*
X68130593Y-51790506D01*
X68162042Y-51894181D01*
X68170000Y-51974980D01*
X68170000Y-52579020D01*
X68162042Y-52659819D01*
X68130593Y-52763494D01*
X68079521Y-52859043D01*
X68010791Y-52942791D01*
X67927043Y-53011521D01*
X67831494Y-53062593D01*
X67727819Y-53094042D01*
X67620000Y-53104661D01*
X67512182Y-53094042D01*
X67408507Y-53062593D01*
X67312958Y-53011521D01*
X67229210Y-52942791D01*
X67160480Y-52859043D01*
X67109407Y-52763494D01*
X67077958Y-52659819D01*
X67070000Y-52579020D01*
X67070000Y-51974981D01*
X67077958Y-51894182D01*
X67109407Y-51790507D01*
X67160479Y-51694958D01*
X67229210Y-51611209D01*
X67312957Y-51542479D01*
X67408506Y-51491407D01*
X67512181Y-51459958D01*
X67620000Y-51449339D01*
X67727818Y-51459958D01*
X67727818Y-51459958D01*
G37*
G36*
X79925843Y-51919214D02*
X79925846Y-51919215D01*
X79925845Y-51919215D01*
X80016839Y-51956906D01*
X80071311Y-51993303D01*
X80098733Y-52011626D01*
X80168374Y-52081267D01*
X80168375Y-52081269D01*
X80223094Y-52163161D01*
X80223094Y-52163162D01*
X80260786Y-52254157D01*
X80280000Y-52350753D01*
X80280000Y-52449247D01*
X80260786Y-52545843D01*
X80260785Y-52545845D01*
X80223094Y-52636839D01*
X80207739Y-52659819D01*
X80168374Y-52718733D01*
X80098733Y-52788374D01*
X80071311Y-52806697D01*
X80016839Y-52843094D01*
X79952495Y-52869746D01*
X79925843Y-52880786D01*
X79829247Y-52900000D01*
X79730753Y-52900000D01*
X79634157Y-52880786D01*
X79607505Y-52869746D01*
X79543161Y-52843094D01*
X79488689Y-52806697D01*
X79461267Y-52788374D01*
X79391626Y-52718733D01*
X79352261Y-52659819D01*
X79336906Y-52636839D01*
X79299215Y-52545845D01*
X79299214Y-52545843D01*
X79280000Y-52449247D01*
X79280000Y-52350753D01*
X79299214Y-52254157D01*
X79336906Y-52163162D01*
X79336906Y-52163161D01*
X79391625Y-52081269D01*
X79391626Y-52081267D01*
X79461267Y-52011626D01*
X79488689Y-51993303D01*
X79543161Y-51956906D01*
X79634155Y-51919215D01*
X79634154Y-51919215D01*
X79634157Y-51919214D01*
X79730753Y-51900000D01*
X79829247Y-51900000D01*
X79925843Y-51919214D01*
X79925843Y-51919214D01*
G37*
G36*
X82925843Y-51919214D02*
X82925846Y-51919215D01*
X82925845Y-51919215D01*
X83016839Y-51956906D01*
X83071311Y-51993303D01*
X83098733Y-52011626D01*
X83168374Y-52081267D01*
X83168375Y-52081269D01*
X83223094Y-52163161D01*
X83223094Y-52163162D01*
X83260786Y-52254157D01*
X83280000Y-52350753D01*
X83280000Y-52449247D01*
X83260786Y-52545843D01*
X83260785Y-52545845D01*
X83223094Y-52636839D01*
X83207739Y-52659819D01*
X83168374Y-52718733D01*
X83098733Y-52788374D01*
X83071311Y-52806697D01*
X83016839Y-52843094D01*
X82952495Y-52869746D01*
X82925843Y-52880786D01*
X82829247Y-52900000D01*
X82730753Y-52900000D01*
X82634157Y-52880786D01*
X82607505Y-52869746D01*
X82543161Y-52843094D01*
X82488689Y-52806697D01*
X82461267Y-52788374D01*
X82391626Y-52718733D01*
X82352261Y-52659819D01*
X82336906Y-52636839D01*
X82299215Y-52545845D01*
X82299214Y-52545843D01*
X82280000Y-52449247D01*
X82280000Y-52350753D01*
X82299214Y-52254157D01*
X82336906Y-52163162D01*
X82336906Y-52163161D01*
X82391625Y-52081269D01*
X82391626Y-52081267D01*
X82461267Y-52011626D01*
X82488689Y-51993303D01*
X82543161Y-51956906D01*
X82634155Y-51919215D01*
X82634154Y-51919215D01*
X82634157Y-51919214D01*
X82730753Y-51900000D01*
X82829247Y-51900000D01*
X82925843Y-51919214D01*
X82925843Y-51919214D01*
G37*
G36*
X38688000Y-52770000D02*
X37888000Y-52770000D01*
X37888000Y-51370000D01*
X38688000Y-51370000D01*
X38688000Y-52770000D01*
X38688000Y-52770000D01*
G37*
G36*
X36788000Y-52770000D02*
X35988000Y-52770000D01*
X35988000Y-51370000D01*
X36788000Y-51370000D01*
X36788000Y-52770000D01*
X36788000Y-52770000D01*
G37*
G36*
X85480000Y-51740000D02*
X84380000Y-51740000D01*
X84380000Y-50840000D01*
X85480000Y-50840000D01*
X85480000Y-51740000D01*
X85480000Y-51740000D01*
G37*
G36*
X78180000Y-51740000D02*
X77080000Y-51740000D01*
X77080000Y-50840000D01*
X78180000Y-50840000D01*
X78180000Y-51740000D01*
X78180000Y-51740000D01*
G37*
G36*
X83930000Y-51440000D02*
X83130000Y-51440000D01*
X83130000Y-49840000D01*
X83930000Y-49840000D01*
X83930000Y-51440000D01*
X83930000Y-51440000D01*
G37*
G36*
X82430000Y-51440000D02*
X81630000Y-51440000D01*
X81630000Y-49840000D01*
X82430000Y-49840000D01*
X82430000Y-51440000D01*
X82430000Y-51440000D01*
G37*
G36*
X79430000Y-51440000D02*
X78630000Y-51440000D01*
X78630000Y-49840000D01*
X79430000Y-49840000D01*
X79430000Y-51440000D01*
X79430000Y-51440000D01*
G37*
G36*
X23560000Y-51388000D02*
X22160000Y-51388000D01*
X22160000Y-50588000D01*
X23560000Y-50588000D01*
X23560000Y-51388000D01*
X23560000Y-51388000D01*
G37*
G36*
X72020000Y-50302000D02*
X71520000Y-50302000D01*
X71520000Y-48852000D01*
X72020000Y-48852000D01*
X72020000Y-50302000D01*
X72020000Y-50302000D01*
G37*
G36*
X72670000Y-50302000D02*
X72170000Y-50302000D01*
X72170000Y-48852000D01*
X72670000Y-48852000D01*
X72670000Y-50302000D01*
X72670000Y-50302000D01*
G37*
G36*
X71370000Y-50302000D02*
X70870000Y-50302000D01*
X70870000Y-48852000D01*
X71370000Y-48852000D01*
X71370000Y-50302000D01*
X71370000Y-50302000D01*
G37*
G36*
X70720000Y-50302000D02*
X70220000Y-50302000D01*
X70220000Y-48852000D01*
X70720000Y-48852000D01*
X70720000Y-50302000D01*
X70720000Y-50302000D01*
G37*
G36*
X70070000Y-50302000D02*
X69570000Y-50302000D01*
X69570000Y-48852000D01*
X70070000Y-48852000D01*
X70070000Y-50302000D01*
X70070000Y-50302000D01*
G37*
G36*
X49525000Y-50260000D02*
X48325000Y-50260000D01*
X48325000Y-47660000D01*
X49525000Y-47660000D01*
X49525000Y-50260000D01*
X49525000Y-50260000D01*
G37*
G36*
X41525000Y-50260000D02*
X40325000Y-50260000D01*
X40325000Y-47660000D01*
X41525000Y-47660000D01*
X41525000Y-50260000D01*
X41525000Y-50260000D01*
G37*
G36*
X47525000Y-50260000D02*
X46325000Y-50260000D01*
X46325000Y-47660000D01*
X47525000Y-47660000D01*
X47525000Y-50260000D01*
X47525000Y-50260000D01*
G37*
G36*
X45525000Y-50260000D02*
X44325000Y-50260000D01*
X44325000Y-47660000D01*
X45525000Y-47660000D01*
X45525000Y-50260000D01*
X45525000Y-50260000D01*
G37*
G36*
X43525000Y-50260000D02*
X42325000Y-50260000D01*
X42325000Y-47660000D01*
X43525000Y-47660000D01*
X43525000Y-50260000D01*
X43525000Y-50260000D01*
G37*
G36*
X39525000Y-50260000D02*
X38325000Y-50260000D01*
X38325000Y-47660000D01*
X39525000Y-47660000D01*
X39525000Y-50260000D01*
X39525000Y-50260000D01*
G37*
G36*
X37525000Y-50260000D02*
X36325000Y-50260000D01*
X36325000Y-47660000D01*
X37525000Y-47660000D01*
X37525000Y-50260000D01*
X37525000Y-50260000D01*
G37*
G36*
X35525000Y-50260000D02*
X34325000Y-50260000D01*
X34325000Y-47660000D01*
X35525000Y-47660000D01*
X35525000Y-50260000D01*
X35525000Y-50260000D01*
G37*
G36*
X68872918Y-49059596D02*
X68971881Y-49089616D01*
X69063086Y-49138367D01*
X69143028Y-49203972D01*
X69208633Y-49283914D01*
X69257384Y-49375119D01*
X69287404Y-49474082D01*
X69297540Y-49577000D01*
X69287404Y-49679918D01*
X69257384Y-49778881D01*
X69208633Y-49870086D01*
X69143028Y-49950028D01*
X69063086Y-50015633D01*
X68971881Y-50064384D01*
X68872918Y-50094404D01*
X68795792Y-50102000D01*
X68444208Y-50102000D01*
X68367082Y-50094404D01*
X68268119Y-50064384D01*
X68176914Y-50015633D01*
X68096972Y-49950028D01*
X68031367Y-49870086D01*
X67982616Y-49778881D01*
X67952596Y-49679918D01*
X67942460Y-49577000D01*
X67952596Y-49474082D01*
X67982616Y-49375119D01*
X68031367Y-49283914D01*
X68096972Y-49203972D01*
X68176914Y-49138367D01*
X68268119Y-49089616D01*
X68367082Y-49059596D01*
X68444208Y-49052000D01*
X68795792Y-49052000D01*
X68872918Y-49059596D01*
X68872918Y-49059596D01*
G37*
G36*
X73872918Y-49059596D02*
X73971881Y-49089616D01*
X74063086Y-49138367D01*
X74143028Y-49203972D01*
X74208633Y-49283914D01*
X74257384Y-49375119D01*
X74287404Y-49474082D01*
X74297540Y-49577000D01*
X74287404Y-49679918D01*
X74257384Y-49778881D01*
X74208633Y-49870086D01*
X74143028Y-49950028D01*
X74063086Y-50015633D01*
X73971881Y-50064384D01*
X73872918Y-50094404D01*
X73795792Y-50102000D01*
X73444208Y-50102000D01*
X73367082Y-50094404D01*
X73268119Y-50064384D01*
X73176914Y-50015633D01*
X73096972Y-49950028D01*
X73031367Y-49870086D01*
X72982616Y-49778881D01*
X72952596Y-49679918D01*
X72942460Y-49577000D01*
X72952596Y-49474082D01*
X72982616Y-49375119D01*
X73031367Y-49283914D01*
X73096972Y-49203972D01*
X73176914Y-49138367D01*
X73268119Y-49089616D01*
X73367082Y-49059596D01*
X73444208Y-49052000D01*
X73795792Y-49052000D01*
X73872918Y-49059596D01*
X73872918Y-49059596D01*
G37*
G36*
X23560000Y-49488000D02*
X22160000Y-49488000D01*
X22160000Y-48688000D01*
X23560000Y-48688000D01*
X23560000Y-49488000D01*
X23560000Y-49488000D01*
G37*
G36*
X15460000Y-48515000D02*
X14360000Y-48515000D01*
X14360000Y-46815000D01*
X15460000Y-46815000D01*
X15460000Y-48515000D01*
X15460000Y-48515000D01*
G37*
G36*
X134840000Y-48515000D02*
X133740000Y-48515000D01*
X133740000Y-46815000D01*
X134840000Y-46815000D01*
X134840000Y-48515000D01*
X134840000Y-48515000D01*
G37*
G36*
X138040000Y-48515000D02*
X136940000Y-48515000D01*
X136940000Y-46815000D01*
X138040000Y-46815000D01*
X138040000Y-48515000D01*
X138040000Y-48515000D01*
G37*
G36*
X18660000Y-48515000D02*
X17560000Y-48515000D01*
X17560000Y-46815000D01*
X18660000Y-46815000D01*
X18660000Y-48515000D01*
X18660000Y-48515000D01*
G37*
G36*
X121257000Y-47640000D02*
X119957000Y-47640000D01*
X119957000Y-46340000D01*
X121257000Y-46340000D01*
X121257000Y-47640000D01*
X121257000Y-47640000D01*
G37*
G36*
X119057000Y-47640000D02*
X117757000Y-47640000D01*
X117757000Y-46340000D01*
X119057000Y-46340000D01*
X119057000Y-47640000D01*
X119057000Y-47640000D01*
G37*
G36*
X58954000Y-47157000D02*
X57854000Y-47157000D01*
X57854000Y-45807000D01*
X58954000Y-45807000D01*
X58954000Y-47157000D01*
X58954000Y-47157000D01*
G37*
G36*
X56954000Y-47157000D02*
X55854000Y-47157000D01*
X55854000Y-45807000D01*
X56954000Y-45807000D01*
X56954000Y-47157000D01*
X56954000Y-47157000D01*
G37*
G36*
X23093351Y-45585743D02*
X23238942Y-45646049D01*
X23274787Y-45670000D01*
X23369973Y-45733601D01*
X23481399Y-45845027D01*
X23481401Y-45845030D01*
X23568951Y-45976058D01*
X23629257Y-46121649D01*
X23660000Y-46276207D01*
X23660000Y-46433793D01*
X23629257Y-46588351D01*
X23568951Y-46733942D01*
X23514790Y-46815000D01*
X23481399Y-46864973D01*
X23369973Y-46976399D01*
X23369970Y-46976401D01*
X23238942Y-47063951D01*
X23093351Y-47124257D01*
X22938794Y-47155000D01*
X22781206Y-47155000D01*
X22626649Y-47124257D01*
X22481058Y-47063951D01*
X22350030Y-46976401D01*
X22350027Y-46976399D01*
X22238601Y-46864973D01*
X22205210Y-46815000D01*
X22151049Y-46733942D01*
X22090743Y-46588351D01*
X22060000Y-46433793D01*
X22060000Y-46276207D01*
X22090743Y-46121649D01*
X22151049Y-45976058D01*
X22238599Y-45845030D01*
X22238601Y-45845027D01*
X22350027Y-45733601D01*
X22445213Y-45670000D01*
X22481058Y-45646049D01*
X22626649Y-45585743D01*
X22781206Y-45555000D01*
X22938794Y-45555000D01*
X23093351Y-45585743D01*
X23093351Y-45585743D01*
G37*
G36*
X51925000Y-46870000D02*
X49325000Y-46870000D01*
X49325000Y-45670000D01*
X51925000Y-45670000D01*
X51925000Y-46870000D01*
X51925000Y-46870000D01*
G37*
G36*
X110316000Y-45975500D02*
X109516000Y-45975500D01*
X109516000Y-44575500D01*
X110316000Y-44575500D01*
X110316000Y-45975500D01*
X110316000Y-45975500D01*
G37*
G36*
X108416000Y-45975500D02*
X107616000Y-45975500D01*
X107616000Y-44575500D01*
X108416000Y-44575500D01*
X108416000Y-45975500D01*
X108416000Y-45975500D01*
G37*
G36*
X51925000Y-44870000D02*
X49325000Y-44870000D01*
X49325000Y-43670000D01*
X51925000Y-43670000D01*
X51925000Y-44870000D01*
X51925000Y-44870000D01*
G37*
G36*
X23093351Y-43045743D02*
X23238942Y-43106049D01*
X23369090Y-43193011D01*
X23369973Y-43193601D01*
X23481399Y-43305027D01*
X23481401Y-43305030D01*
X23568951Y-43436058D01*
X23629257Y-43581649D01*
X23660000Y-43736207D01*
X23660000Y-43893793D01*
X23629257Y-44048351D01*
X23568951Y-44193942D01*
X23481989Y-44324090D01*
X23481399Y-44324973D01*
X23369973Y-44436399D01*
X23369970Y-44436401D01*
X23238942Y-44523951D01*
X23114492Y-44575500D01*
X23093351Y-44584257D01*
X22938794Y-44615000D01*
X22781206Y-44615000D01*
X22626649Y-44584257D01*
X22605508Y-44575500D01*
X22481058Y-44523951D01*
X22350030Y-44436401D01*
X22350027Y-44436399D01*
X22238601Y-44324973D01*
X22238011Y-44324090D01*
X22151049Y-44193942D01*
X22090743Y-44048351D01*
X22060000Y-43893793D01*
X22060000Y-43736207D01*
X22090743Y-43581649D01*
X22151049Y-43436058D01*
X22238599Y-43305030D01*
X22238601Y-43305027D01*
X22350027Y-43193601D01*
X22350910Y-43193011D01*
X22481058Y-43106049D01*
X22626649Y-43045743D01*
X22781206Y-43015000D01*
X22938794Y-43015000D01*
X23093351Y-43045743D01*
X23093351Y-43045743D01*
G37*
G36*
X55304000Y-44502000D02*
X53204000Y-44502000D01*
X53204000Y-42902000D01*
X55304000Y-42902000D01*
X55304000Y-44502000D01*
X55304000Y-44502000D01*
G37*
G36*
X118957000Y-43880000D02*
X118157000Y-43880000D01*
X118157000Y-42480000D01*
X118957000Y-42480000D01*
X118957000Y-43880000D01*
X118957000Y-43880000D01*
G37*
G36*
X120857000Y-43880000D02*
X120057000Y-43880000D01*
X120057000Y-42480000D01*
X120857000Y-42480000D01*
X120857000Y-43880000D01*
X120857000Y-43880000D01*
G37*
G36*
X114848000Y-43650500D02*
X113498000Y-43650500D01*
X113498000Y-42550500D01*
X114848000Y-42550500D01*
X114848000Y-43650500D01*
X114848000Y-43650500D01*
G37*
G36*
X61604000Y-43352000D02*
X59504000Y-43352000D01*
X59504000Y-39452000D01*
X61604000Y-39452000D01*
X61604000Y-43352000D01*
X61604000Y-43352000D01*
G37*
G36*
X51925000Y-42870000D02*
X49325000Y-42870000D01*
X49325000Y-41670000D01*
X51925000Y-41670000D01*
X51925000Y-42870000D01*
X51925000Y-42870000D01*
G37*
G36*
X79550000Y-42790000D02*
X77850000Y-42790000D01*
X77850000Y-41690000D01*
X79550000Y-41690000D01*
X79550000Y-42790000D01*
X79550000Y-42790000D01*
G37*
G36*
X74550000Y-42790000D02*
X72850000Y-42790000D01*
X72850000Y-41690000D01*
X74550000Y-41690000D01*
X74550000Y-42790000D01*
X74550000Y-42790000D01*
G37*
G36*
X110646000Y-42536500D02*
X109486000Y-42536500D01*
X109486000Y-41786500D01*
X110646000Y-41786500D01*
X110646000Y-42536500D01*
X110646000Y-42536500D01*
G37*
G36*
X108446000Y-42536500D02*
X107286000Y-42536500D01*
X107286000Y-41786500D01*
X108446000Y-41786500D01*
X108446000Y-42536500D01*
X108446000Y-42536500D01*
G37*
G36*
X55304000Y-42202000D02*
X53204000Y-42202000D01*
X53204000Y-40602000D01*
X55304000Y-40602000D01*
X55304000Y-42202000D01*
X55304000Y-42202000D01*
G37*
G36*
X23093351Y-40505743D02*
X23238942Y-40566049D01*
X23369090Y-40653011D01*
X23369973Y-40653601D01*
X23481399Y-40765027D01*
X23481401Y-40765030D01*
X23568951Y-40896058D01*
X23629257Y-41041649D01*
X23660000Y-41196207D01*
X23660000Y-41353793D01*
X23629257Y-41508351D01*
X23568951Y-41653942D01*
X23481989Y-41784090D01*
X23481399Y-41784973D01*
X23369973Y-41896399D01*
X23369970Y-41896401D01*
X23238942Y-41983951D01*
X23093351Y-42044257D01*
X22938794Y-42075000D01*
X22781206Y-42075000D01*
X22626649Y-42044257D01*
X22481058Y-41983951D01*
X22350030Y-41896401D01*
X22350027Y-41896399D01*
X22238601Y-41784973D01*
X22238011Y-41784090D01*
X22151049Y-41653942D01*
X22090743Y-41508351D01*
X22060000Y-41353793D01*
X22060000Y-41196207D01*
X22090743Y-41041649D01*
X22151049Y-40896058D01*
X22238599Y-40765030D01*
X22238601Y-40765027D01*
X22350027Y-40653601D01*
X22350910Y-40653011D01*
X22481058Y-40566049D01*
X22626649Y-40505743D01*
X22781206Y-40475000D01*
X22938794Y-40475000D01*
X23093351Y-40505743D01*
X23093351Y-40505743D01*
G37*
G36*
X114848000Y-41650500D02*
X113498000Y-41650500D01*
X113498000Y-40550500D01*
X114848000Y-40550500D01*
X114848000Y-41650500D01*
X114848000Y-41650500D01*
G37*
G36*
X110646000Y-41586500D02*
X109486000Y-41586500D01*
X109486000Y-40836500D01*
X110646000Y-40836500D01*
X110646000Y-41586500D01*
X110646000Y-41586500D01*
G37*
G36*
X51925000Y-40870000D02*
X49325000Y-40870000D01*
X49325000Y-39670000D01*
X51925000Y-39670000D01*
X51925000Y-40870000D01*
X51925000Y-40870000D01*
G37*
G36*
X110646000Y-40636500D02*
X109486000Y-40636500D01*
X109486000Y-39886500D01*
X110646000Y-39886500D01*
X110646000Y-40636500D01*
X110646000Y-40636500D01*
G37*
G36*
X108446000Y-40636500D02*
X107286000Y-40636500D01*
X107286000Y-39886500D01*
X108446000Y-39886500D01*
X108446000Y-40636500D01*
X108446000Y-40636500D01*
G37*
G36*
X118957000Y-40070000D02*
X118157000Y-40070000D01*
X118157000Y-38670000D01*
X118957000Y-38670000D01*
X118957000Y-40070000D01*
X118957000Y-40070000D01*
G37*
G36*
X120857000Y-40070000D02*
X120057000Y-40070000D01*
X120057000Y-38670000D01*
X120857000Y-38670000D01*
X120857000Y-40070000D01*
X120857000Y-40070000D01*
G37*
G36*
X55304000Y-39902000D02*
X53204000Y-39902000D01*
X53204000Y-38302000D01*
X55304000Y-38302000D01*
X55304000Y-39902000D01*
X55304000Y-39902000D01*
G37*
G36*
X74550000Y-39590000D02*
X72850000Y-39590000D01*
X72850000Y-38490000D01*
X74550000Y-38490000D01*
X74550000Y-39590000D01*
X74550000Y-39590000D01*
G37*
G36*
X79550000Y-39590000D02*
X77850000Y-39590000D01*
X77850000Y-38490000D01*
X79550000Y-38490000D01*
X79550000Y-39590000D01*
X79550000Y-39590000D01*
G37*
G36*
X23093351Y-37965743D02*
X23238942Y-38026049D01*
X23369090Y-38113011D01*
X23369973Y-38113601D01*
X23481399Y-38225027D01*
X23481401Y-38225030D01*
X23568951Y-38356058D01*
X23629257Y-38501649D01*
X23660000Y-38656207D01*
X23660000Y-38813793D01*
X23629257Y-38968351D01*
X23568951Y-39113942D01*
X23481989Y-39244090D01*
X23481399Y-39244973D01*
X23369973Y-39356399D01*
X23369970Y-39356401D01*
X23238942Y-39443951D01*
X23093351Y-39504257D01*
X22938794Y-39535000D01*
X22781206Y-39535000D01*
X22626649Y-39504257D01*
X22481058Y-39443951D01*
X22350030Y-39356401D01*
X22350027Y-39356399D01*
X22238601Y-39244973D01*
X22238011Y-39244090D01*
X22151049Y-39113942D01*
X22090743Y-38968351D01*
X22060000Y-38813793D01*
X22060000Y-38656207D01*
X22090743Y-38501649D01*
X22151049Y-38356058D01*
X22238599Y-38225030D01*
X22238601Y-38225027D01*
X22350027Y-38113601D01*
X22350910Y-38113011D01*
X22481058Y-38026049D01*
X22626649Y-37965743D01*
X22781206Y-37935000D01*
X22938794Y-37935000D01*
X23093351Y-37965743D01*
X23093351Y-37965743D01*
G37*
G36*
X51925000Y-38870000D02*
X49325000Y-38870000D01*
X49325000Y-37670000D01*
X51925000Y-37670000D01*
X51925000Y-38870000D01*
X51925000Y-38870000D01*
G37*
G36*
X23093351Y-35425743D02*
X23238942Y-35486049D01*
X23369090Y-35573011D01*
X23369973Y-35573601D01*
X23481399Y-35685027D01*
X23481401Y-35685030D01*
X23568951Y-35816058D01*
X23629257Y-35961649D01*
X23660000Y-36116207D01*
X23660000Y-36273793D01*
X23629257Y-36428351D01*
X23568951Y-36573942D01*
X23481989Y-36704090D01*
X23481399Y-36704973D01*
X23369973Y-36816399D01*
X23369970Y-36816401D01*
X23238942Y-36903951D01*
X23093351Y-36964257D01*
X22938794Y-36995000D01*
X22781206Y-36995000D01*
X22626649Y-36964257D01*
X22481058Y-36903951D01*
X22350030Y-36816401D01*
X22350027Y-36816399D01*
X22238601Y-36704973D01*
X22238011Y-36704090D01*
X22151049Y-36573942D01*
X22090743Y-36428351D01*
X22060000Y-36273793D01*
X22060000Y-36116207D01*
X22090743Y-35961649D01*
X22151049Y-35816058D01*
X22238599Y-35685030D01*
X22238601Y-35685027D01*
X22350027Y-35573601D01*
X22350910Y-35573011D01*
X22481058Y-35486049D01*
X22626649Y-35425743D01*
X22781206Y-35395000D01*
X22938794Y-35395000D01*
X23093351Y-35425743D01*
X23093351Y-35425743D01*
G37*
G36*
X51925000Y-36870000D02*
X49325000Y-36870000D01*
X49325000Y-35670000D01*
X51925000Y-35670000D01*
X51925000Y-36870000D01*
X51925000Y-36870000D01*
G37*
G36*
X119057000Y-36210000D02*
X117757000Y-36210000D01*
X117757000Y-34910000D01*
X119057000Y-34910000D01*
X119057000Y-36210000D01*
X119057000Y-36210000D01*
G37*
G36*
X121257000Y-36210000D02*
X119957000Y-36210000D01*
X119957000Y-34910000D01*
X121257000Y-34910000D01*
X121257000Y-36210000D01*
X121257000Y-36210000D01*
G37*
G36*
X18660000Y-35735000D02*
X17560000Y-35735000D01*
X17560000Y-34035000D01*
X18660000Y-34035000D01*
X18660000Y-35735000D01*
X18660000Y-35735000D01*
G37*
G36*
X15460000Y-35735000D02*
X14360000Y-35735000D01*
X14360000Y-34035000D01*
X15460000Y-34035000D01*
X15460000Y-35735000D01*
X15460000Y-35735000D01*
G37*
G36*
X134840000Y-35735000D02*
X133740000Y-35735000D01*
X133740000Y-34035000D01*
X134840000Y-34035000D01*
X134840000Y-35735000D01*
X134840000Y-35735000D01*
G37*
G36*
X138040000Y-35735000D02*
X136940000Y-35735000D01*
X136940000Y-34035000D01*
X138040000Y-34035000D01*
X138040000Y-35735000D01*
X138040000Y-35735000D01*
G37*
G36*
X41525000Y-34860000D02*
X40325000Y-34860000D01*
X40325000Y-32260000D01*
X41525000Y-32260000D01*
X41525000Y-34860000D01*
X41525000Y-34860000D01*
G37*
G36*
X47525000Y-34860000D02*
X46325000Y-34860000D01*
X46325000Y-32260000D01*
X47525000Y-32260000D01*
X47525000Y-34860000D01*
X47525000Y-34860000D01*
G37*
G36*
X39525000Y-34860000D02*
X38325000Y-34860000D01*
X38325000Y-32260000D01*
X39525000Y-32260000D01*
X39525000Y-34860000D01*
X39525000Y-34860000D01*
G37*
G36*
X37525000Y-34860000D02*
X36325000Y-34860000D01*
X36325000Y-32260000D01*
X37525000Y-32260000D01*
X37525000Y-34860000D01*
X37525000Y-34860000D01*
G37*
G36*
X35525000Y-34860000D02*
X34325000Y-34860000D01*
X34325000Y-32260000D01*
X35525000Y-32260000D01*
X35525000Y-34860000D01*
X35525000Y-34860000D01*
G37*
G36*
X43525000Y-34860000D02*
X42325000Y-34860000D01*
X42325000Y-32260000D01*
X43525000Y-32260000D01*
X43525000Y-34860000D01*
X43525000Y-34860000D01*
G37*
G36*
X45525000Y-34860000D02*
X44325000Y-34860000D01*
X44325000Y-32260000D01*
X45525000Y-32260000D01*
X45525000Y-34860000D01*
X45525000Y-34860000D01*
G37*
G36*
X49525000Y-34860000D02*
X48325000Y-34860000D01*
X48325000Y-32260000D01*
X49525000Y-32260000D01*
X49525000Y-34860000D01*
X49525000Y-34860000D01*
G37*
G36*
X49229000Y-30926000D02*
X48429000Y-30926000D01*
X48429000Y-29526000D01*
X49229000Y-29526000D01*
X49229000Y-30926000D01*
X49229000Y-30926000D01*
G37*
G36*
X43265000Y-30926000D02*
X42465000Y-30926000D01*
X42465000Y-29526000D01*
X43265000Y-29526000D01*
X43265000Y-30926000D01*
X43265000Y-30926000D01*
G37*
G36*
X47329000Y-30926000D02*
X46529000Y-30926000D01*
X46529000Y-29526000D01*
X47329000Y-29526000D01*
X47329000Y-30926000D01*
X47329000Y-30926000D01*
G37*
G36*
X45165000Y-30926000D02*
X44365000Y-30926000D01*
X44365000Y-29526000D01*
X45165000Y-29526000D01*
X45165000Y-30926000D01*
X45165000Y-30926000D01*
G37*
G36*
X15460000Y-30735000D02*
X14360000Y-30735000D01*
X14360000Y-29035000D01*
X15460000Y-29035000D01*
X15460000Y-30735000D01*
X15460000Y-30735000D01*
G37*
G36*
X134840000Y-30735000D02*
X133740000Y-30735000D01*
X133740000Y-29035000D01*
X134840000Y-29035000D01*
X134840000Y-30735000D01*
X134840000Y-30735000D01*
G37*
G36*
X138040000Y-30735000D02*
X136940000Y-30735000D01*
X136940000Y-29035000D01*
X138040000Y-29035000D01*
X138040000Y-30735000D01*
X138040000Y-30735000D01*
G37*
G36*
X18660000Y-30735000D02*
X17560000Y-30735000D01*
X17560000Y-29035000D01*
X18660000Y-29035000D01*
X18660000Y-30735000D01*
X18660000Y-30735000D01*
G37*
G36*
X52691323Y-28357685D02*
X51984255Y-29200335D01*
X50681979Y-28107595D01*
X51389047Y-27264945D01*
X52691323Y-28357685D01*
X52691323Y-28357685D01*
G37*
G36*
X101718021Y-28107595D02*
X100415745Y-29200335D01*
X99708677Y-28357685D01*
X101010953Y-27264945D01*
X101718021Y-28107595D01*
X101718021Y-28107595D01*
G37*
G36*
X99661101Y-25656253D02*
X98358825Y-26748993D01*
X97651757Y-25906343D01*
X98954033Y-24813603D01*
X99661101Y-25656253D01*
X99661101Y-25656253D01*
G37*
G36*
X54748243Y-25906343D02*
X54041175Y-26748993D01*
X52738899Y-25656253D01*
X53445967Y-24813603D01*
X54748243Y-25906343D01*
X54748243Y-25906343D01*
G37*
G36*
X105548243Y-24893657D02*
X104245967Y-25986397D01*
X103538899Y-25143747D01*
X104841175Y-24051007D01*
X105548243Y-24893657D01*
X105548243Y-24893657D01*
G37*
G36*
X48861101Y-25143747D02*
X48154033Y-25986397D01*
X46851757Y-24893657D01*
X47558825Y-24051007D01*
X48861101Y-25143747D01*
X48861101Y-25143747D01*
G37*
G36*
X50918021Y-22692405D02*
X50210953Y-23535055D01*
X48908677Y-22442315D01*
X49615745Y-21599665D01*
X50918021Y-22692405D01*
X50918021Y-22692405D01*
G37*
G36*
X103491323Y-22442315D02*
X102189047Y-23535055D01*
X101481979Y-22692405D01*
X102784255Y-21599665D01*
X103491323Y-22442315D01*
X103491323Y-22442315D01*
G37*
G36*
X29465000Y-18660000D02*
X27765000Y-18660000D01*
X27765000Y-17560000D01*
X29465000Y-17560000D01*
X29465000Y-18660000D01*
X29465000Y-18660000D01*
G37*
G36*
X124635000Y-18660000D02*
X122935000Y-18660000D01*
X122935000Y-17560000D01*
X124635000Y-17560000D01*
X124635000Y-18660000D01*
X124635000Y-18660000D01*
G37*
G36*
X34465000Y-18660000D02*
X32765000Y-18660000D01*
X32765000Y-17560000D01*
X34465000Y-17560000D01*
X34465000Y-18660000D01*
X34465000Y-18660000D01*
G37*
G36*
X119635000Y-18660000D02*
X117935000Y-18660000D01*
X117935000Y-17560000D01*
X119635000Y-17560000D01*
X119635000Y-18660000D01*
X119635000Y-18660000D01*
G37*
G36*
X34465000Y-15460000D02*
X32765000Y-15460000D01*
X32765000Y-14360000D01*
X34465000Y-14360000D01*
X34465000Y-15460000D01*
X34465000Y-15460000D01*
G37*
G36*
X29465000Y-15460000D02*
X27765000Y-15460000D01*
X27765000Y-14360000D01*
X29465000Y-14360000D01*
X29465000Y-15460000D01*
X29465000Y-15460000D01*
G37*
G36*
X119635000Y-15460000D02*
X117935000Y-15460000D01*
X117935000Y-14360000D01*
X119635000Y-14360000D01*
X119635000Y-15460000D01*
X119635000Y-15460000D01*
G37*
G36*
X124635000Y-15460000D02*
X122935000Y-15460000D01*
X122935000Y-14360000D01*
X124635000Y-14360000D01*
X124635000Y-15460000D01*
X124635000Y-15460000D01*
G37*
M02*
