M48
;DRILL file {KiCad 4.0.7} date Thursday, August 02, 2018 'PMt' 05:35:04 PM
;FORMAT={-:-/ absolute / inch / decimal}
FMAT,2
INCH,TZ
T1C0.016
T2C0.024
T3C0.033
T4C0.039
%
G90
G05
M72
T1
X1.455Y-1.83
X1.69Y-1.805
X1.69Y-2.035
X1.89Y-1.585
X1.89Y-1.665
X2.04Y-1.285
X2.37Y-1.765
X2.37Y-1.825
X2.37Y-1.885
X2.485Y-1.63
X2.815Y-1.535
X3.265Y-1.765
X3.265Y-1.825
X3.4Y-1.435
X3.475Y-1.435
X3.49Y-1.835
X3.52Y-1.625
X3.595Y-1.885
X3.785Y-1.355
X3.825Y-1.25
X3.865Y-1.645
X3.91Y-1.475
X3.92Y-1.415
X3.965Y-1.355
X4.45Y-0.81
T3
X2.7016Y-1.9575
X2.8984Y-1.9575
T4
X0.9Y-1.425
X0.9Y-1.525
X0.9Y-1.625
X0.9Y-1.725
X0.9Y-1.825
T2
X2.6622Y-2.0776G85X2.6622Y-2.05
G05
X2.9378Y-2.05G85X2.9378Y-2.0776
G05
T0
M30
