G04 #@! TF.FileFunction,Copper,L1,Top,Signal*
%FSLAX46Y46*%
G04 Gerber Fmt 4.6, Leading zero omitted, Abs format (unit mm)*
G04 Created by KiCad (PCBNEW 4.0.7) date Thursday, August 02, 2018 'PMt' 05:34:58 PM*
%MOMM*%
%LPD*%
G01*
G04 APERTURE LIST*
%ADD10C,0.100000*%
%ADD11R,1.500000X1.900000*%
%ADD12C,1.450000*%
%ADD13R,0.400000X1.350000*%
%ADD14O,1.200000X1.900000*%
%ADD15R,1.200000X1.900000*%
%ADD16R,1.600000X1.000000*%
%ADD17R,1.000000X1.600000*%
%ADD18R,0.700000X1.500000*%
%ADD19R,1.000000X0.800000*%
%ADD20R,2.000000X3.800000*%
%ADD21R,2.000000X1.500000*%
%ADD22C,1.700000*%
%ADD23R,1.100000X2.500000*%
%ADD24R,2.500000X1.100000*%
%ADD25R,0.250000X0.700000*%
%ADD26R,1.175000X0.890000*%
%ADD27R,0.750000X0.800000*%
%ADD28R,0.800000X0.750000*%
%ADD29R,0.800000X0.800000*%
%ADD30O,2.000000X1.500000*%
%ADD31R,0.500000X0.900000*%
%ADD32R,0.900000X0.500000*%
%ADD33R,1.060000X0.650000*%
%ADD34R,0.950000X0.300000*%
%ADD35R,1.900000X2.500000*%
%ADD36C,0.600000*%
%ADD37C,0.254000*%
%ADD38C,0.508000*%
%ADD39C,0.635000*%
%ADD40C,0.500000*%
G04 APERTURE END LIST*
D10*
D11*
X72120000Y-52420000D03*
D12*
X68620000Y-49720000D03*
D13*
X70470000Y-49720000D03*
X69820000Y-49720000D03*
X72420000Y-49720000D03*
X71770000Y-49720000D03*
X71120000Y-49720000D03*
D12*
X73620000Y-49720000D03*
D11*
X70120000Y-52420000D03*
D14*
X67620000Y-52420000D03*
X74620000Y-52420000D03*
D15*
X74020000Y-52420000D03*
X68220000Y-52420000D03*
D10*
G36*
X53452129Y-57665954D02*
X52809342Y-56899910D01*
X54035013Y-55871450D01*
X54677800Y-56637494D01*
X53452129Y-57665954D01*
X53452129Y-57665954D01*
G37*
G36*
X51395209Y-55214612D02*
X50752422Y-54448568D01*
X51978093Y-53420108D01*
X52620880Y-54186152D01*
X51395209Y-55214612D01*
X51395209Y-55214612D01*
G37*
G36*
X49621907Y-60879892D02*
X48979120Y-60113848D01*
X50204791Y-59085388D01*
X50847578Y-59851432D01*
X49621907Y-60879892D01*
X49621907Y-60879892D01*
G37*
G36*
X47564987Y-58428550D02*
X46922200Y-57662506D01*
X48147871Y-56634046D01*
X48790658Y-57400090D01*
X47564987Y-58428550D01*
X47564987Y-58428550D01*
G37*
D16*
X33615000Y-67640000D03*
X33615000Y-64440000D03*
X28615000Y-67640000D03*
X28615000Y-64440000D03*
D17*
X14910000Y-52665000D03*
X18110000Y-52665000D03*
X14910000Y-47665000D03*
X18110000Y-47665000D03*
X14910000Y-34885000D03*
X18110000Y-34885000D03*
X14910000Y-29885000D03*
X18110000Y-29885000D03*
D16*
X28615000Y-14910000D03*
X28615000Y-18110000D03*
X33615000Y-14910000D03*
X33615000Y-18110000D03*
D10*
G36*
X50847578Y-22698568D02*
X50204791Y-23464612D01*
X48979120Y-22436152D01*
X49621907Y-21670108D01*
X50847578Y-22698568D01*
X50847578Y-22698568D01*
G37*
G36*
X48790658Y-25149910D02*
X48147871Y-25915954D01*
X46922200Y-24887494D01*
X47564987Y-24121450D01*
X48790658Y-25149910D01*
X48790658Y-25149910D01*
G37*
G36*
X54677800Y-25912506D02*
X54035013Y-26678550D01*
X52809342Y-25650090D01*
X53452129Y-24884046D01*
X54677800Y-25912506D01*
X54677800Y-25912506D01*
G37*
G36*
X52620880Y-28363848D02*
X51978093Y-29129892D01*
X50752422Y-28101432D01*
X51395209Y-27335388D01*
X52620880Y-28363848D01*
X52620880Y-28363848D01*
G37*
D16*
X73700000Y-39040000D03*
X73700000Y-42240000D03*
X78700000Y-39040000D03*
X78700000Y-42240000D03*
D10*
G36*
X98947871Y-24884046D02*
X99590658Y-25650090D01*
X98364987Y-26678550D01*
X97722200Y-25912506D01*
X98947871Y-24884046D01*
X98947871Y-24884046D01*
G37*
G36*
X101004791Y-27335388D02*
X101647578Y-28101432D01*
X100421907Y-29129892D01*
X99779120Y-28363848D01*
X101004791Y-27335388D01*
X101004791Y-27335388D01*
G37*
G36*
X102778093Y-21670108D02*
X103420880Y-22436152D01*
X102195209Y-23464612D01*
X101552422Y-22698568D01*
X102778093Y-21670108D01*
X102778093Y-21670108D01*
G37*
G36*
X104835013Y-24121450D02*
X105477800Y-24887494D01*
X104252129Y-25915954D01*
X103609342Y-25149910D01*
X104835013Y-24121450D01*
X104835013Y-24121450D01*
G37*
D16*
X118785000Y-14910000D03*
X118785000Y-18110000D03*
X123785000Y-14910000D03*
X123785000Y-18110000D03*
D18*
X79030000Y-50640000D03*
X82030000Y-50640000D03*
X83530000Y-50640000D03*
D19*
X77630000Y-53500000D03*
X84930000Y-53500000D03*
X84930000Y-51290000D03*
X77630000Y-51290000D03*
D17*
X137490000Y-29885000D03*
X134290000Y-29885000D03*
X137490000Y-34885000D03*
X134290000Y-34885000D03*
X137490000Y-47665000D03*
X134290000Y-47665000D03*
X137490000Y-52665000D03*
X134290000Y-52665000D03*
D16*
X123785000Y-67640000D03*
X123785000Y-64440000D03*
X118785000Y-67640000D03*
X118785000Y-64440000D03*
D10*
G36*
X101552422Y-59851432D02*
X102195209Y-59085388D01*
X103420880Y-60113848D01*
X102778093Y-60879892D01*
X101552422Y-59851432D01*
X101552422Y-59851432D01*
G37*
G36*
X103609342Y-57400090D02*
X104252129Y-56634046D01*
X105477800Y-57662506D01*
X104835013Y-58428550D01*
X103609342Y-57400090D01*
X103609342Y-57400090D01*
G37*
G36*
X97722200Y-56637494D02*
X98364987Y-55871450D01*
X99590658Y-56899910D01*
X98947871Y-57665954D01*
X97722200Y-56637494D01*
X97722200Y-56637494D01*
G37*
G36*
X99779120Y-54186152D02*
X100421907Y-53420108D01*
X101647578Y-54448568D01*
X101004791Y-55214612D01*
X99779120Y-54186152D01*
X99779120Y-54186152D01*
G37*
D20*
X60554000Y-41402000D03*
D21*
X54254000Y-41402000D03*
X54254000Y-43702000D03*
X54254000Y-39102000D03*
D22*
X22860000Y-36195000D03*
X22860000Y-38735000D03*
X22860000Y-46355000D03*
D23*
X34925000Y-48960000D03*
X36925000Y-48960000D03*
X38925000Y-48960000D03*
X40925000Y-48960000D03*
X42925000Y-48960000D03*
X44925000Y-48960000D03*
X46925000Y-48960000D03*
X48925000Y-48960000D03*
X48925000Y-33560000D03*
X46925000Y-33560000D03*
X44925000Y-33560000D03*
X42925000Y-33560000D03*
X40925000Y-33560000D03*
X38925000Y-33560000D03*
X36925000Y-33560000D03*
X34925000Y-33560000D03*
D24*
X50625000Y-46270000D03*
X50625000Y-44270000D03*
X50625000Y-42270000D03*
X50625000Y-40270000D03*
X50625000Y-38270000D03*
X50625000Y-36270000D03*
D22*
X22860000Y-41275000D03*
X22860000Y-43815000D03*
D25*
X101784000Y-41480000D03*
X101384000Y-41480000D03*
X100984000Y-41480000D03*
X100584000Y-41480000D03*
X100184000Y-41480000D03*
X99784000Y-41480000D03*
X99784000Y-38530000D03*
X100184000Y-38530000D03*
X100584000Y-38530000D03*
X100984000Y-38530000D03*
X101384000Y-38530000D03*
X101784000Y-38530000D03*
X99384000Y-38530000D03*
X99384000Y-41480000D03*
D26*
X101171500Y-39560000D03*
X101171500Y-40450000D03*
X99996500Y-40450000D03*
X99996500Y-39560000D03*
D27*
X98171000Y-40755000D03*
X98171000Y-39255000D03*
D28*
X58154000Y-46482000D03*
X56654000Y-46482000D03*
X71870000Y-47498000D03*
X70370000Y-47498000D03*
D27*
X89408000Y-39993000D03*
X89408000Y-38493000D03*
X103886000Y-34429000D03*
X103886000Y-35929000D03*
D28*
X97167000Y-34417000D03*
X98667000Y-34417000D03*
X101334000Y-43434000D03*
X99834000Y-43434000D03*
D27*
X98171000Y-43446000D03*
X98171000Y-44946000D03*
D29*
X91275000Y-35433000D03*
X92875000Y-35433000D03*
X92875000Y-41148000D03*
X91275000Y-41148000D03*
D27*
X101981000Y-34429000D03*
X101981000Y-35929000D03*
D28*
X97167000Y-35941000D03*
X98667000Y-35941000D03*
D21*
X119126000Y-43434000D03*
D30*
X119126000Y-38862000D03*
D31*
X36588000Y-52070000D03*
X38088000Y-52070000D03*
X85483000Y-41656000D03*
X86983000Y-41656000D03*
X47256000Y-30734000D03*
X48756000Y-30734000D03*
D32*
X22860000Y-50788000D03*
X22860000Y-49288000D03*
D31*
X42684000Y-30734000D03*
X44184000Y-30734000D03*
X101334000Y-45085000D03*
X99834000Y-45085000D03*
D32*
X102743000Y-46724000D03*
X102743000Y-45224000D03*
D31*
X101334000Y-46736000D03*
X99834000Y-46736000D03*
X62853000Y-44831000D03*
X61353000Y-44831000D03*
X62853000Y-46355000D03*
X61353000Y-46355000D03*
X91325000Y-37338000D03*
X92825000Y-37338000D03*
X91325000Y-39243000D03*
X92825000Y-39243000D03*
D33*
X87333000Y-39304000D03*
X87333000Y-38354000D03*
X87333000Y-37404000D03*
X85133000Y-37404000D03*
X85133000Y-39304000D03*
D29*
X92875000Y-43815000D03*
X91275000Y-43815000D03*
D31*
X92825000Y-45593000D03*
X91325000Y-45593000D03*
D34*
X88641000Y-45806000D03*
X88641000Y-45156000D03*
X88641000Y-44506000D03*
X88641000Y-43856000D03*
X84841000Y-43856000D03*
X84841000Y-44506000D03*
X84841000Y-45156000D03*
X84841000Y-45806000D03*
D35*
X86741000Y-44831000D03*
D36*
X96139000Y-34417000D03*
X97155000Y-31750000D03*
X63119000Y-41402000D03*
X71501000Y-38989000D03*
X88646000Y-46609000D03*
X89408000Y-41275000D03*
X113030000Y-20574000D03*
X51816000Y-32639000D03*
X100711000Y-34417000D03*
X60198000Y-47879000D03*
X91313000Y-47879000D03*
X86360000Y-36449000D03*
X88265000Y-36449000D03*
X42926000Y-51689000D03*
X42926000Y-45847000D03*
X98171000Y-41783000D03*
X99568000Y-35941000D03*
X82931000Y-44831000D03*
X60198000Y-44831000D03*
X48006000Y-40259000D03*
X82931000Y-46355000D03*
X48006000Y-42291000D03*
X60198000Y-46355000D03*
X36957000Y-46482000D03*
X99314000Y-37465000D03*
D37*
X102997000Y-32893000D02*
X101854000Y-31750000D01*
X103886000Y-33782000D02*
X102997000Y-32893000D01*
X103886000Y-34429000D02*
X103886000Y-33782000D01*
X96139000Y-34417000D02*
X97167000Y-34417000D01*
X101854000Y-31750000D02*
X97155000Y-31750000D01*
D38*
X60554000Y-41402000D02*
X63119000Y-41402000D01*
D37*
X88641000Y-45806000D02*
X88641000Y-46604000D01*
X88641000Y-46604000D02*
X88646000Y-46609000D01*
X89408000Y-39993000D02*
X89408000Y-41275000D01*
X59585273Y-50927000D02*
X53743571Y-56768702D01*
X72263000Y-50927000D02*
X59585273Y-50927000D01*
X72420000Y-50770000D02*
X72263000Y-50927000D01*
X72420000Y-49720000D02*
X72420000Y-50770000D01*
D38*
X114554000Y-19050000D02*
X113030000Y-20574000D01*
X104140000Y-19050000D02*
X99949000Y-23241000D01*
X99949000Y-23241000D02*
X98425000Y-24765000D01*
X98425000Y-24765000D02*
X98425000Y-25549869D01*
X98425000Y-25549869D02*
X98656429Y-25781298D01*
X98656429Y-25781298D02*
X97408702Y-25781298D01*
X97408702Y-25781298D02*
X91313000Y-31877000D01*
X91313000Y-31877000D02*
X76327000Y-31877000D01*
X76327000Y-31877000D02*
X73700000Y-34504000D01*
X73700000Y-34504000D02*
X73700000Y-39040000D01*
X51816000Y-34417000D02*
X51816000Y-32639000D01*
D37*
X97675000Y-36969000D02*
X97155000Y-36449000D01*
X98806000Y-38100000D02*
X97675000Y-36969000D01*
X97155000Y-36449000D02*
X97155000Y-35953000D01*
X97155000Y-35953000D02*
X97167000Y-35941000D01*
X97167000Y-35941000D02*
X97167000Y-34417000D01*
D38*
X87333000Y-38354000D02*
X86868000Y-38354000D01*
X86868000Y-38354000D02*
X86233000Y-38989000D01*
X86233000Y-38989000D02*
X86233000Y-40906000D01*
X86233000Y-40906000D02*
X86983000Y-41656000D01*
D37*
X91275000Y-41148000D02*
X90563000Y-41148000D01*
X90563000Y-41148000D02*
X89408000Y-39993000D01*
X86983000Y-41656000D02*
X87745000Y-41656000D01*
X87745000Y-41656000D02*
X89408000Y-39993000D01*
X88641000Y-45156000D02*
X88641000Y-45806000D01*
X98806000Y-38100000D02*
X99187000Y-38481000D01*
X99187000Y-38481000D02*
X99335000Y-38481000D01*
X99335000Y-38481000D02*
X99384000Y-38530000D01*
X98855000Y-38149000D02*
X98806000Y-38100000D01*
X99384000Y-38530000D02*
X99384000Y-38424000D01*
D39*
X52578000Y-35179000D02*
X51816000Y-34417000D01*
X53213000Y-41402000D02*
X52578000Y-40767000D01*
X52578000Y-40767000D02*
X52578000Y-35179000D01*
X54254000Y-41402000D02*
X53213000Y-41402000D01*
X51816000Y-34417000D02*
X49082000Y-34417000D01*
X49082000Y-34417000D02*
X48925000Y-34260000D01*
X54254000Y-41402000D02*
X60554000Y-41402000D01*
D37*
X72420000Y-49720000D02*
X72420000Y-48048000D01*
X72420000Y-48048000D02*
X71870000Y-47498000D01*
D40*
X33615000Y-67640000D02*
X42215000Y-67640000D01*
X42215000Y-67640000D02*
X46990000Y-62865000D01*
X46990000Y-62865000D02*
X48895000Y-62865000D01*
X48895000Y-62865000D02*
X53743571Y-58016429D01*
X53743571Y-58016429D02*
X53743571Y-56768702D01*
X14910000Y-52665000D02*
X14910000Y-56185000D01*
X14910000Y-56185000D02*
X27940000Y-69215000D01*
X27940000Y-69215000D02*
X32040000Y-69215000D01*
X32040000Y-69215000D02*
X33615000Y-67640000D01*
X14910000Y-34885000D02*
X14910000Y-35255000D01*
X14910000Y-35255000D02*
X13335000Y-36830000D01*
X13335000Y-51090000D02*
X14910000Y-52665000D01*
X13335000Y-36830000D02*
X13335000Y-51090000D01*
X28615000Y-14910000D02*
X27635000Y-14910000D01*
X13335000Y-33310000D02*
X14910000Y-34885000D01*
X13335000Y-29210000D02*
X13335000Y-33310000D01*
X27635000Y-14910000D02*
X13335000Y-29210000D01*
X49913349Y-22567360D02*
X49872360Y-22567360D01*
X49872360Y-22567360D02*
X40640000Y-13335000D01*
X30190000Y-13335000D02*
X28615000Y-14910000D01*
X40640000Y-13335000D02*
X30190000Y-13335000D01*
X104140000Y-19050000D02*
X114554000Y-19050000D01*
X114554000Y-19050000D02*
X114645000Y-19050000D01*
X114645000Y-19050000D02*
X118785000Y-14910000D01*
X137490000Y-29885000D02*
X137490000Y-27000000D01*
X120360000Y-13335000D02*
X118785000Y-14910000D01*
X125095000Y-13335000D02*
X120360000Y-13335000D01*
X125730000Y-13970000D02*
X125095000Y-13335000D01*
X125730000Y-15240000D02*
X125730000Y-13970000D01*
X137490000Y-27000000D02*
X125730000Y-15240000D01*
X137490000Y-47665000D02*
X137755000Y-47665000D01*
X137755000Y-47665000D02*
X139065000Y-46355000D01*
X139065000Y-31460000D02*
X137490000Y-29885000D01*
X139065000Y-46355000D02*
X139065000Y-31460000D01*
X123785000Y-67640000D02*
X124765000Y-67640000D01*
X139065000Y-49240000D02*
X137490000Y-47665000D01*
X139065000Y-53340000D02*
X139065000Y-49240000D01*
X124765000Y-67640000D02*
X139065000Y-53340000D01*
X102486651Y-59982640D02*
X103797640Y-59982640D01*
X122210000Y-69215000D02*
X123785000Y-67640000D01*
X113030000Y-69215000D02*
X122210000Y-69215000D01*
X103797640Y-59982640D02*
X113030000Y-69215000D01*
D38*
X48260000Y-46990000D02*
X42418000Y-46990000D01*
X42418000Y-46990000D02*
X40259000Y-44831000D01*
X40259000Y-44831000D02*
X35687000Y-44831000D01*
X35687000Y-44831000D02*
X33528000Y-46990000D01*
D37*
X100723000Y-34429000D02*
X100711000Y-34417000D01*
X101981000Y-34429000D02*
X100723000Y-34429000D01*
X91325000Y-45593000D02*
X91325000Y-47867000D01*
X60198000Y-47879000D02*
X60198000Y-47371000D01*
X91325000Y-47867000D02*
X91313000Y-47879000D01*
X62853000Y-46355000D02*
X62853000Y-47002000D01*
X57543000Y-47371000D02*
X56654000Y-46482000D01*
X62484000Y-47371000D02*
X60198000Y-47371000D01*
X60198000Y-47371000D02*
X57543000Y-47371000D01*
X62853000Y-47002000D02*
X62484000Y-47371000D01*
X62853000Y-44831000D02*
X62853000Y-46355000D01*
X20955000Y-40640000D02*
X20955000Y-34925000D01*
X21590000Y-41275000D02*
X20955000Y-40640000D01*
X22860000Y-41275000D02*
X21590000Y-41275000D01*
X25146000Y-30734000D02*
X41910000Y-30734000D01*
X20955000Y-34925000D02*
X25146000Y-30734000D01*
X34544000Y-52070000D02*
X34290000Y-52070000D01*
X36588000Y-52070000D02*
X34544000Y-52070000D01*
X34290000Y-52070000D02*
X32385000Y-50165000D01*
X24130000Y-50788000D02*
X25412000Y-50788000D01*
X25412000Y-50788000D02*
X26035000Y-50165000D01*
D39*
X33020000Y-47498000D02*
X33020000Y-49530000D01*
X33020000Y-49530000D02*
X32385000Y-50165000D01*
X32385000Y-50165000D02*
X26035000Y-50165000D01*
X48925000Y-48260000D02*
X48925000Y-47655000D01*
X48260000Y-46990000D02*
X48925000Y-47655000D01*
X33020000Y-47498000D02*
X33528000Y-46990000D01*
X24130000Y-41275000D02*
X22860000Y-41275000D01*
X26035000Y-50165000D02*
X24765000Y-48895000D01*
X24765000Y-48895000D02*
X24765000Y-41910000D01*
X24765000Y-41910000D02*
X24130000Y-41275000D01*
X48925000Y-48260000D02*
X54876000Y-48260000D01*
X54876000Y-48260000D02*
X56654000Y-46482000D01*
X56654000Y-46482000D02*
X56654000Y-46102000D01*
X56654000Y-46102000D02*
X54254000Y-43702000D01*
D37*
X41910000Y-30734000D02*
X42684000Y-30734000D01*
X22860000Y-50788000D02*
X24130000Y-50788000D01*
X24130000Y-50788000D02*
X24142000Y-50788000D01*
X41910000Y-30734000D02*
X42084000Y-30734000D01*
D40*
X68620000Y-52020000D02*
X68220000Y-52420000D01*
X68220000Y-52420000D02*
X67620000Y-52420000D01*
X67620000Y-52420000D02*
X70120000Y-52420000D01*
X70120000Y-52420000D02*
X72120000Y-52420000D01*
X72120000Y-52420000D02*
X74020000Y-52420000D01*
X74020000Y-52420000D02*
X73620000Y-52020000D01*
X73620000Y-52020000D02*
X73620000Y-49720000D01*
D37*
X36925000Y-34260000D02*
X36925000Y-32861000D01*
X36925000Y-32861000D02*
X35814000Y-31750000D01*
X35814000Y-31750000D02*
X25654000Y-31750000D01*
X25654000Y-31750000D02*
X24638000Y-32766000D01*
X24638000Y-32766000D02*
X24638000Y-35560000D01*
X24638000Y-35560000D02*
X24003000Y-36195000D01*
X24003000Y-36195000D02*
X22860000Y-36195000D01*
X36925000Y-32480000D02*
X36925000Y-34260000D01*
X34925000Y-34260000D02*
X34925000Y-33655000D01*
X34925000Y-33655000D02*
X33655000Y-32385000D01*
X33655000Y-32385000D02*
X26035000Y-32385000D01*
X26035000Y-32385000D02*
X25400000Y-33020000D01*
X25400000Y-33020000D02*
X25400000Y-38100000D01*
X25400000Y-38100000D02*
X24765000Y-38735000D01*
X24765000Y-38735000D02*
X22860000Y-38735000D01*
X22860000Y-38735000D02*
X22225000Y-38735000D01*
D40*
X33615000Y-64440000D02*
X43510000Y-64440000D01*
X47967360Y-59982640D02*
X49913349Y-59982640D01*
X43510000Y-64440000D02*
X47967360Y-59982640D01*
X18110000Y-52665000D02*
X18110000Y-57135000D01*
X18110000Y-57135000D02*
X28615000Y-67640000D01*
X18110000Y-34885000D02*
X18110000Y-44465000D01*
X18110000Y-44465000D02*
X14910000Y-47665000D01*
X14910000Y-29885000D02*
X14910000Y-29540000D01*
X14910000Y-29540000D02*
X26340000Y-18110000D01*
X26340000Y-18110000D02*
X28615000Y-18110000D01*
X47856429Y-25018702D02*
X47856429Y-22456429D01*
X40310000Y-14910000D02*
X33615000Y-14910000D01*
X47856429Y-22456429D02*
X40310000Y-14910000D01*
X73700000Y-42240000D02*
X70202273Y-42240000D01*
X70202273Y-42240000D02*
X53743571Y-25781298D01*
D39*
X78700000Y-39040000D02*
X78700000Y-34838000D01*
X78700000Y-34838000D02*
X80518000Y-33020000D01*
X80518000Y-33020000D02*
X92202000Y-33020000D01*
X92202000Y-33020000D02*
X96989360Y-28232640D01*
X96989360Y-28232640D02*
X100713349Y-28232640D01*
D40*
X102486651Y-22567360D02*
X113957640Y-22567360D01*
X113957640Y-22567360D02*
X114935000Y-21590000D01*
X118785000Y-18110000D02*
X118415000Y-18110000D01*
X118415000Y-18110000D02*
X114935000Y-21590000D01*
X114935000Y-21590000D02*
X114592640Y-21932360D01*
X134290000Y-29885000D02*
X134290000Y-26975000D01*
X125730000Y-16855000D02*
X123785000Y-14910000D01*
X125730000Y-18415000D02*
X125730000Y-16855000D01*
X134290000Y-26975000D02*
X125730000Y-18415000D01*
X137490000Y-40945000D02*
X137490000Y-44465000D01*
X137490000Y-34885000D02*
X137490000Y-40945000D01*
X137490000Y-44465000D02*
X134290000Y-47665000D01*
X123785000Y-64440000D02*
X125715000Y-64440000D01*
X125715000Y-64440000D02*
X137490000Y-52665000D01*
X118785000Y-67640000D02*
X114652273Y-67640000D01*
X114652273Y-67640000D02*
X104543571Y-57531298D01*
D37*
X85483000Y-41656000D02*
X85483000Y-39654000D01*
X85483000Y-39654000D02*
X85133000Y-39304000D01*
D39*
X85133000Y-37404000D02*
X85133000Y-37000000D01*
X85133000Y-37000000D02*
X83693000Y-35560000D01*
X83119000Y-36134000D02*
X83693000Y-35560000D01*
X71628000Y-44958000D02*
X78486000Y-44958000D01*
X70370000Y-47498000D02*
X70370000Y-46216000D01*
X70370000Y-46216000D02*
X71628000Y-44958000D01*
X81788000Y-41656000D02*
X78486000Y-44958000D01*
X81788000Y-39116000D02*
X81788000Y-37465000D01*
X81788000Y-37465000D02*
X83119000Y-36134000D01*
X81788000Y-39116000D02*
X81788000Y-41656000D01*
X83693000Y-35560000D02*
X91148000Y-35560000D01*
X91148000Y-35560000D02*
X91275000Y-35433000D01*
D37*
X69820000Y-49720000D02*
X69820000Y-48048000D01*
X69820000Y-48048000D02*
X70370000Y-47498000D01*
D39*
X87333000Y-37404000D02*
X87315000Y-37404000D01*
X87315000Y-37404000D02*
X86360000Y-36449000D01*
X88265000Y-36449000D02*
X87333000Y-37381000D01*
X87333000Y-37381000D02*
X87333000Y-37404000D01*
D38*
X82613500Y-39433500D02*
X83566000Y-38481000D01*
X79030000Y-50640000D02*
X79030000Y-47208000D01*
X79030000Y-45847000D02*
X79030000Y-47208000D01*
X82613500Y-42227500D02*
X82613500Y-39433500D01*
X79030000Y-45811000D02*
X82613500Y-42227500D01*
X79030000Y-45847000D02*
X79030000Y-45811000D01*
X86421000Y-37404000D02*
X87333000Y-37404000D01*
X86233000Y-37592000D02*
X86421000Y-37404000D01*
X86233000Y-37973000D02*
X86233000Y-37592000D01*
X85852000Y-38354000D02*
X86233000Y-37973000D01*
X83693000Y-38354000D02*
X85852000Y-38354000D01*
X83566000Y-38481000D02*
X83693000Y-38354000D01*
D37*
X87333000Y-37404000D02*
X88319000Y-37404000D01*
X88319000Y-37404000D02*
X89408000Y-38493000D01*
X91325000Y-39243000D02*
X87394000Y-39243000D01*
X87394000Y-39243000D02*
X87333000Y-39304000D01*
X91325000Y-37338000D02*
X91325000Y-39243000D01*
X92875000Y-35433000D02*
X92875000Y-37288000D01*
X92875000Y-37288000D02*
X92825000Y-37338000D01*
X92825000Y-39243000D02*
X92825000Y-41098000D01*
X92825000Y-41098000D02*
X92875000Y-41148000D01*
D39*
X81534000Y-34290000D02*
X92710000Y-34290000D01*
X104543571Y-25018702D02*
X104543571Y-27028429D01*
X80264000Y-35560000D02*
X81534000Y-34290000D01*
X80264000Y-39878000D02*
X80264000Y-35560000D01*
X78700000Y-41442000D02*
X80264000Y-39878000D01*
X78700000Y-41442000D02*
X78700000Y-42240000D01*
X101600000Y-29972000D02*
X104543571Y-27028429D01*
X97028000Y-29972000D02*
X101600000Y-29972000D01*
X92710000Y-34290000D02*
X97028000Y-29972000D01*
D37*
X88641000Y-44506000D02*
X89464000Y-44506000D01*
X89662000Y-44704000D02*
X89662000Y-49276000D01*
X89464000Y-44506000D02*
X89662000Y-44704000D01*
D39*
X51686651Y-28232640D02*
X54102000Y-30647989D01*
X18110000Y-29885000D02*
X18110000Y-30048000D01*
X18110000Y-30048000D02*
X19304000Y-31242000D01*
X19304000Y-31242000D02*
X19304000Y-46471000D01*
X19304000Y-46471000D02*
X18110000Y-47665000D01*
X82030000Y-50640000D02*
X82030000Y-49542000D01*
X82030000Y-49542000D02*
X82296000Y-49276000D01*
X82296000Y-49276000D02*
X89662000Y-49276000D01*
X89662000Y-49276000D02*
X94703360Y-54317360D01*
X94703360Y-54317360D02*
X100713349Y-54317360D01*
X78700000Y-42240000D02*
X78700000Y-42204000D01*
X54254000Y-39102000D02*
X54254000Y-30799989D01*
D40*
X18110000Y-47665000D02*
X18375000Y-47665000D01*
X104543571Y-25018702D02*
X115316298Y-25018702D01*
X115316298Y-25018702D02*
X116205000Y-24130000D01*
X130810000Y-52705000D02*
X132715000Y-50800000D01*
X135890000Y-36485000D02*
X134290000Y-34885000D01*
X135890000Y-43180000D02*
X135890000Y-36485000D01*
X132715000Y-46355000D02*
X135890000Y-43180000D01*
X132715000Y-50800000D02*
X132715000Y-46355000D01*
X47507727Y-57880000D02*
X47856429Y-57531298D01*
X28615000Y-64440000D02*
X28905000Y-64440000D01*
X28905000Y-64440000D02*
X31750000Y-61595000D01*
X31750000Y-61595000D02*
X39370000Y-61595000D01*
X43792727Y-61595000D02*
X47856429Y-57531298D01*
X39370000Y-61595000D02*
X43792727Y-61595000D01*
X18110000Y-47665000D02*
X18110000Y-48590000D01*
X20320000Y-56145000D02*
X28615000Y-64440000D01*
X20320000Y-50800000D02*
X20320000Y-56145000D01*
X18110000Y-48590000D02*
X20320000Y-50800000D01*
X18110000Y-29885000D02*
X18455000Y-29885000D01*
X33615000Y-18110000D02*
X33325000Y-18110000D01*
X33325000Y-18110000D02*
X31115000Y-20320000D01*
X27675000Y-20320000D02*
X18110000Y-29885000D01*
X31115000Y-20320000D02*
X27675000Y-20320000D01*
X51686651Y-28232640D02*
X49187640Y-28232640D01*
X49187640Y-28232640D02*
X40957500Y-20002500D01*
X40957500Y-20002500D02*
X39065000Y-18110000D01*
X39065000Y-18110000D02*
X33615000Y-18110000D01*
X78700000Y-42240000D02*
X78410000Y-42240000D01*
X78410000Y-42240000D02*
X76835000Y-43815000D01*
X76835000Y-43815000D02*
X67269011Y-43815000D01*
X67269011Y-43815000D02*
X54102000Y-30647989D01*
X123785000Y-18110000D02*
X122225000Y-18110000D01*
X122225000Y-18110000D02*
X116205000Y-24130000D01*
X116205000Y-24130000D02*
X115951298Y-24383702D01*
X134290000Y-34885000D02*
X134290000Y-33325000D01*
X134290000Y-33325000D02*
X123785000Y-22820000D01*
X123785000Y-22820000D02*
X123785000Y-18110000D01*
X118785000Y-64440000D02*
X119075000Y-64440000D01*
X119075000Y-64440000D02*
X130810000Y-52705000D01*
X130810000Y-52705000D02*
X130850000Y-52665000D01*
X130850000Y-52665000D02*
X134290000Y-52665000D01*
X100713349Y-54317360D02*
X108585000Y-54317360D01*
X108585000Y-54317360D02*
X108662360Y-54317360D01*
X108662360Y-54317360D02*
X118785000Y-64440000D01*
D37*
X42925000Y-34260000D02*
X42925000Y-45846000D01*
X22225000Y-53340000D02*
X27940000Y-53340000D01*
X21590000Y-52705000D02*
X22225000Y-53340000D01*
X21590000Y-46990000D02*
X21590000Y-52705000D01*
X21590000Y-46990000D02*
X22225000Y-46355000D01*
X27940000Y-53340000D02*
X41275000Y-53340000D01*
X42926000Y-51689000D02*
X41275000Y-53340000D01*
X42925000Y-45846000D02*
X42926000Y-45847000D01*
X22860000Y-49288000D02*
X22860000Y-46355000D01*
X22860000Y-46355000D02*
X22225000Y-46355000D01*
D40*
X42925000Y-34260000D02*
X42925000Y-32765000D01*
X51686651Y-54317360D02*
X46697360Y-54317360D01*
X44925000Y-52545000D02*
X44925000Y-48260000D01*
X46697360Y-54317360D02*
X44925000Y-52545000D01*
D37*
X38088000Y-52070000D02*
X38100000Y-52070000D01*
X38100000Y-52070000D02*
X38925000Y-51245000D01*
X38925000Y-51245000D02*
X38925000Y-48260000D01*
D39*
X38688000Y-48497000D02*
X38925000Y-48260000D01*
D40*
X38735000Y-48450000D02*
X38925000Y-48260000D01*
D37*
X46925000Y-34260000D02*
X46925000Y-31065000D01*
X46925000Y-31065000D02*
X47256000Y-30734000D01*
D39*
X46656000Y-33991000D02*
X46925000Y-34260000D01*
D37*
X44925000Y-34260000D02*
X44925000Y-31475000D01*
X44925000Y-31475000D02*
X44184000Y-30734000D01*
D39*
X44784000Y-34119000D02*
X44925000Y-34260000D01*
D40*
X44925000Y-34260000D02*
X44925000Y-32860000D01*
D37*
X96647000Y-33528000D02*
X96012000Y-33528000D01*
X98171000Y-38354000D02*
X96901000Y-37084000D01*
X98171000Y-38735000D02*
X98171000Y-38354000D01*
X96393000Y-36576000D02*
X96901000Y-37084000D01*
X96774000Y-33528000D02*
X96647000Y-33528000D01*
X97663000Y-33528000D02*
X96774000Y-33528000D01*
X98171000Y-39255000D02*
X98171000Y-38735000D01*
X97663000Y-33528000D02*
X97917000Y-33528000D01*
X95504000Y-35687000D02*
X96393000Y-36576000D01*
X95504000Y-34036000D02*
X95504000Y-35687000D01*
X96012000Y-33528000D02*
X95504000Y-34036000D01*
X97917000Y-33528000D02*
X97917000Y-33782000D01*
X97917000Y-36449000D02*
X97917000Y-33782000D01*
X98171000Y-36703000D02*
X97917000Y-36449000D01*
X99695000Y-36703000D02*
X98171000Y-36703000D01*
X100184000Y-37192000D02*
X99695000Y-36703000D01*
X100184000Y-37192000D02*
X100184000Y-38530000D01*
X101981000Y-35929000D02*
X102501000Y-35929000D01*
X102743000Y-33528000D02*
X97917000Y-33528000D01*
X102997000Y-33782000D02*
X102743000Y-33528000D01*
X102997000Y-35433000D02*
X102997000Y-33782000D01*
X102501000Y-35929000D02*
X102997000Y-35433000D01*
X101854000Y-37084000D02*
X101981000Y-36957000D01*
X101981000Y-36957000D02*
X101981000Y-35929000D01*
X101384000Y-38530000D02*
X101384000Y-37554000D01*
X101384000Y-37554000D02*
X101854000Y-37084000D01*
X100844000Y-47746000D02*
X110242000Y-47746000D01*
X110242000Y-47746000D02*
X119126000Y-38862000D01*
X98171000Y-41783000D02*
X98171000Y-40755000D01*
X100584000Y-38530000D02*
X100584000Y-36957000D01*
X99568000Y-35941000D02*
X98667000Y-35941000D01*
X100584000Y-36957000D02*
X99568000Y-35941000D01*
X98679000Y-35941000D02*
X98667000Y-35941000D01*
X119126000Y-38862000D02*
X118872000Y-38862000D01*
X100850000Y-47752000D02*
X100844000Y-47746000D01*
X100844000Y-47746000D02*
X99834000Y-46736000D01*
X99834000Y-43434000D02*
X99695000Y-43434000D01*
X99695000Y-43434000D02*
X98933000Y-44196000D01*
X97409000Y-41517000D02*
X98171000Y-40755000D01*
X97409000Y-44069000D02*
X97409000Y-41517000D01*
X97536000Y-44196000D02*
X97409000Y-44069000D01*
X98933000Y-44196000D02*
X97536000Y-44196000D01*
X99834000Y-43434000D02*
X99822000Y-43434000D01*
X99834000Y-46736000D02*
X99834000Y-46597000D01*
X99834000Y-46597000D02*
X100584000Y-45847000D01*
X100584000Y-45847000D02*
X100584000Y-44184000D01*
X100584000Y-44184000D02*
X99834000Y-43434000D01*
X100584000Y-41480000D02*
X100584000Y-42037000D01*
X99834000Y-42787000D02*
X99834000Y-43434000D01*
X100584000Y-42037000D02*
X99834000Y-42787000D01*
X103378000Y-36957000D02*
X103759000Y-36576000D01*
X102235000Y-38100000D02*
X103378000Y-36957000D01*
X103886000Y-36449000D02*
X103886000Y-35929000D01*
X103759000Y-36576000D02*
X103886000Y-36449000D01*
X102235000Y-38100000D02*
X102214000Y-38100000D01*
X102214000Y-38100000D02*
X101784000Y-38530000D01*
X102186000Y-38149000D02*
X102235000Y-38100000D01*
X100984000Y-38530000D02*
X100984000Y-36087000D01*
X99314000Y-34417000D02*
X98667000Y-34417000D01*
X100984000Y-36087000D02*
X99314000Y-34417000D01*
X100984000Y-41480000D02*
X100984000Y-43084000D01*
X100984000Y-43084000D02*
X101334000Y-43434000D01*
X100330000Y-48641000D02*
X113919000Y-48641000D01*
X113919000Y-48641000D02*
X119126000Y-43434000D01*
X98171000Y-44946000D02*
X98171000Y-46482000D01*
X98171000Y-46482000D02*
X100330000Y-48641000D01*
X98171000Y-44946000D02*
X99695000Y-44946000D01*
X99695000Y-44946000D02*
X99834000Y-45085000D01*
X99384000Y-41480000D02*
X99384000Y-41586000D01*
X99384000Y-41586000D02*
X98171000Y-42799000D01*
X98171000Y-42799000D02*
X98171000Y-43446000D01*
X101384000Y-41480000D02*
X101384000Y-42456000D01*
X102743000Y-43561000D02*
X102743000Y-45224000D01*
X101981000Y-42799000D02*
X102743000Y-43561000D01*
X101727000Y-42799000D02*
X101981000Y-42799000D01*
X101384000Y-42456000D02*
X101727000Y-42799000D01*
X101334000Y-45085000D02*
X102604000Y-45085000D01*
X102604000Y-45085000D02*
X102743000Y-45224000D01*
X101784000Y-41480000D02*
X101932000Y-41480000D01*
X103759000Y-45708000D02*
X102743000Y-46724000D01*
X103759000Y-43307000D02*
X103759000Y-45708000D01*
X101932000Y-41480000D02*
X103759000Y-43307000D01*
X101334000Y-46736000D02*
X102731000Y-46736000D01*
X102731000Y-46736000D02*
X102743000Y-46724000D01*
X84841000Y-45156000D02*
X83256000Y-45156000D01*
X83256000Y-45156000D02*
X82931000Y-44831000D01*
X49925000Y-40270000D02*
X48017000Y-40270000D01*
X60198000Y-44831000D02*
X61353000Y-44831000D01*
X48017000Y-40270000D02*
X48006000Y-40259000D01*
X84841000Y-45806000D02*
X83480000Y-45806000D01*
X83480000Y-45806000D02*
X82931000Y-46355000D01*
X48027000Y-42270000D02*
X48006000Y-42291000D01*
X48027000Y-42270000D02*
X49925000Y-42270000D01*
X60198000Y-46355000D02*
X61353000Y-46355000D01*
X36957000Y-46482000D02*
X36925000Y-46514000D01*
X36925000Y-46514000D02*
X36925000Y-48260000D01*
X99784000Y-38530000D02*
X99784000Y-37935000D01*
X99784000Y-37935000D02*
X99314000Y-37465000D01*
X92825000Y-45593000D02*
X92825000Y-43865000D01*
X92825000Y-43865000D02*
X92875000Y-43815000D01*
X88641000Y-43856000D02*
X91234000Y-43856000D01*
X91234000Y-43856000D02*
X91275000Y-43815000D01*
G36*
X63062958Y-31642465D02*
X63152876Y-31691071D01*
X63237862Y-31747857D01*
X63269607Y-31754171D01*
X63298078Y-31769562D01*
X63399746Y-31780058D01*
X63500000Y-31800000D01*
X63531745Y-31793685D01*
X63563938Y-31797009D01*
X63661887Y-31767798D01*
X63762138Y-31747857D01*
X63789049Y-31729876D01*
X63820065Y-31720626D01*
X63899381Y-31656154D01*
X63984368Y-31599368D01*
X66323736Y-29260000D01*
X86076264Y-29260000D01*
X88415632Y-31599368D01*
X88500619Y-31656154D01*
X88579935Y-31720626D01*
X88610951Y-31729876D01*
X88637862Y-31747857D01*
X88738109Y-31767797D01*
X88836062Y-31797009D01*
X88868258Y-31793685D01*
X88900000Y-31799999D01*
X89000247Y-31780059D01*
X89101922Y-31769562D01*
X89130394Y-31754171D01*
X89162138Y-31747857D01*
X89247124Y-31691071D01*
X89337042Y-31642465D01*
X96167443Y-25982990D01*
X97078607Y-25982990D01*
X97154571Y-26223917D01*
X97316951Y-26417434D01*
X97373479Y-26484801D01*
X97597131Y-26504368D01*
X98440195Y-25796952D01*
X98835351Y-25796952D01*
X99381238Y-26447515D01*
X99604890Y-26467082D01*
X100095587Y-26055338D01*
X100212233Y-25831263D01*
X100234251Y-25579606D01*
X100158287Y-25338679D01*
X99995907Y-25145162D01*
X99939379Y-25077795D01*
X99715727Y-25058228D01*
X98835351Y-25796952D01*
X98440195Y-25796952D01*
X98477507Y-25765644D01*
X97931620Y-25115081D01*
X97707968Y-25095514D01*
X97217271Y-25507258D01*
X97100625Y-25731333D01*
X97078607Y-25982990D01*
X96167443Y-25982990D01*
X97411966Y-24951813D01*
X98126195Y-24951813D01*
X98672083Y-25602376D01*
X99552459Y-24863653D01*
X99572026Y-24640001D01*
X99515499Y-24572634D01*
X99353118Y-24379116D01*
X99129043Y-24262470D01*
X98877385Y-24240454D01*
X98636459Y-24316418D01*
X98145762Y-24728161D01*
X98126195Y-24951813D01*
X97411966Y-24951813D01*
X109186525Y-15195750D01*
X117350000Y-15195750D01*
X117350000Y-15536310D01*
X117446673Y-15769699D01*
X117625302Y-15948327D01*
X117858691Y-16045000D01*
X118499250Y-16045000D01*
X118658000Y-15886250D01*
X118658000Y-15037000D01*
X118912000Y-15037000D01*
X118912000Y-15886250D01*
X119070750Y-16045000D01*
X119711309Y-16045000D01*
X119944698Y-15948327D01*
X120123327Y-15769699D01*
X120220000Y-15536310D01*
X120220000Y-15195750D01*
X120061250Y-15037000D01*
X118912000Y-15037000D01*
X118658000Y-15037000D01*
X117508750Y-15037000D01*
X117350000Y-15195750D01*
X109186525Y-15195750D01*
X110287287Y-14283690D01*
X117350000Y-14283690D01*
X117350000Y-14624250D01*
X117508750Y-14783000D01*
X118658000Y-14783000D01*
X118658000Y-13933750D01*
X118912000Y-13933750D01*
X118912000Y-14783000D01*
X120061250Y-14783000D01*
X120220000Y-14624250D01*
X120220000Y-14283690D01*
X120123327Y-14050301D01*
X119944698Y-13871673D01*
X119711309Y-13775000D01*
X119070750Y-13775000D01*
X118912000Y-13933750D01*
X118658000Y-13933750D01*
X118499250Y-13775000D01*
X117858691Y-13775000D01*
X117625302Y-13871673D01*
X117446673Y-14050301D01*
X117350000Y-14283690D01*
X110287287Y-14283690D01*
X111371914Y-13385000D01*
X126670772Y-13385000D01*
X139015000Y-28815285D01*
X139015000Y-53734715D01*
X126670772Y-69165000D01*
X111371914Y-69165000D01*
X101290859Y-60812125D01*
X101956417Y-60812125D01*
X101975984Y-61035777D01*
X102466681Y-61447520D01*
X102707607Y-61523484D01*
X102959265Y-61501468D01*
X103183340Y-61384822D01*
X103345721Y-61191304D01*
X103402248Y-61123937D01*
X103382681Y-60900285D01*
X102502305Y-60161562D01*
X101956417Y-60812125D01*
X101290859Y-60812125D01*
X100046335Y-59780948D01*
X100908829Y-59780948D01*
X100930847Y-60032605D01*
X101047493Y-60256680D01*
X101538190Y-60668424D01*
X101761842Y-60648857D01*
X102307729Y-59998294D01*
X102270418Y-59966986D01*
X102665573Y-59966986D01*
X103545949Y-60705710D01*
X103769601Y-60686143D01*
X103826129Y-60618776D01*
X103988509Y-60425259D01*
X104064473Y-60184332D01*
X104042455Y-59932675D01*
X103925809Y-59708600D01*
X103435112Y-59296856D01*
X103211460Y-59316423D01*
X102665573Y-59966986D01*
X102270418Y-59966986D01*
X101427353Y-59259570D01*
X101203701Y-59279137D01*
X101147173Y-59346504D01*
X100984793Y-59540021D01*
X100908829Y-59780948D01*
X100046335Y-59780948D01*
X98912329Y-58841343D01*
X101571054Y-58841343D01*
X101590621Y-59064995D01*
X102470997Y-59803718D01*
X103016885Y-59153155D01*
X102997318Y-58929503D01*
X102506621Y-58517760D01*
X102265695Y-58441796D01*
X102014037Y-58463812D01*
X101789962Y-58580458D01*
X101627581Y-58773976D01*
X101571054Y-58841343D01*
X98912329Y-58841343D01*
X94569871Y-55243307D01*
X94703360Y-55269860D01*
X98160107Y-55269860D01*
X98070006Y-55295112D01*
X97869019Y-55455284D01*
X97226232Y-56221328D01*
X97108892Y-56430052D01*
X97076506Y-56685007D01*
X97145862Y-56932475D01*
X97306034Y-57133462D01*
X98531705Y-58161922D01*
X98740429Y-58279262D01*
X98995384Y-58311648D01*
X99242852Y-58242292D01*
X99443839Y-58082120D01*
X99976261Y-57447603D01*
X102963648Y-57447603D01*
X103033004Y-57695071D01*
X103193176Y-57896058D01*
X104418847Y-58924518D01*
X104627571Y-59041858D01*
X104828012Y-59067319D01*
X114026481Y-68265787D01*
X114026483Y-68265790D01*
X114313598Y-68457633D01*
X114652273Y-68525000D01*
X117478156Y-68525000D01*
X117520910Y-68591441D01*
X117733110Y-68736431D01*
X117985000Y-68787440D01*
X119585000Y-68787440D01*
X119820317Y-68743162D01*
X120036441Y-68604090D01*
X120181431Y-68391890D01*
X120232440Y-68140000D01*
X120232440Y-67925750D01*
X122350000Y-67925750D01*
X122350000Y-68266310D01*
X122446673Y-68499699D01*
X122625302Y-68678327D01*
X122858691Y-68775000D01*
X123499250Y-68775000D01*
X123658000Y-68616250D01*
X123658000Y-67767000D01*
X123912000Y-67767000D01*
X123912000Y-68616250D01*
X124070750Y-68775000D01*
X124711309Y-68775000D01*
X124944698Y-68678327D01*
X125123327Y-68499699D01*
X125220000Y-68266310D01*
X125220000Y-67925750D01*
X125061250Y-67767000D01*
X123912000Y-67767000D01*
X123658000Y-67767000D01*
X122508750Y-67767000D01*
X122350000Y-67925750D01*
X120232440Y-67925750D01*
X120232440Y-67140000D01*
X120208674Y-67013690D01*
X122350000Y-67013690D01*
X122350000Y-67354250D01*
X122508750Y-67513000D01*
X123658000Y-67513000D01*
X123658000Y-66663750D01*
X123912000Y-66663750D01*
X123912000Y-67513000D01*
X125061250Y-67513000D01*
X125220000Y-67354250D01*
X125220000Y-67013690D01*
X125123327Y-66780301D01*
X124944698Y-66601673D01*
X124711309Y-66505000D01*
X124070750Y-66505000D01*
X123912000Y-66663750D01*
X123658000Y-66663750D01*
X123499250Y-66505000D01*
X122858691Y-66505000D01*
X122625302Y-66601673D01*
X122446673Y-66780301D01*
X122350000Y-67013690D01*
X120208674Y-67013690D01*
X120188162Y-66904683D01*
X120049090Y-66688559D01*
X119836890Y-66543569D01*
X119585000Y-66492560D01*
X117985000Y-66492560D01*
X117749683Y-66536838D01*
X117533559Y-66675910D01*
X117479519Y-66755000D01*
X115018852Y-66755000D01*
X106095920Y-57832067D01*
X106123494Y-57614993D01*
X106054138Y-57367525D01*
X105893966Y-57166538D01*
X104668295Y-56138078D01*
X104459571Y-56020738D01*
X104204616Y-55988352D01*
X103957148Y-56057708D01*
X103756161Y-56217880D01*
X103113374Y-56983924D01*
X102996034Y-57192648D01*
X102963648Y-57447603D01*
X99976261Y-57447603D01*
X100086626Y-57316076D01*
X100203966Y-57107352D01*
X100236352Y-56852397D01*
X100166996Y-56604929D01*
X100006824Y-56403942D01*
X98781153Y-55375482D01*
X98593273Y-55269860D01*
X100063395Y-55269860D01*
X100588625Y-55710580D01*
X100797349Y-55827920D01*
X101052304Y-55860306D01*
X101299772Y-55790950D01*
X101500759Y-55630778D01*
X101860244Y-55202360D01*
X108295780Y-55202360D01*
X117337560Y-64244139D01*
X117337560Y-64940000D01*
X117381838Y-65175317D01*
X117520910Y-65391441D01*
X117733110Y-65536431D01*
X117985000Y-65587440D01*
X119585000Y-65587440D01*
X119820317Y-65543162D01*
X120036441Y-65404090D01*
X120181431Y-65191890D01*
X120232440Y-64940000D01*
X120232440Y-64534140D01*
X131216579Y-53550000D01*
X133158554Y-53550000D01*
X133186838Y-53700317D01*
X133325910Y-53916441D01*
X133538110Y-54061431D01*
X133790000Y-54112440D01*
X134790000Y-54112440D01*
X134791208Y-54112213D01*
X125348420Y-63555000D01*
X125091844Y-63555000D01*
X125049090Y-63488559D01*
X124836890Y-63343569D01*
X124585000Y-63292560D01*
X122985000Y-63292560D01*
X122749683Y-63336838D01*
X122533559Y-63475910D01*
X122388569Y-63688110D01*
X122337560Y-63940000D01*
X122337560Y-64940000D01*
X122381838Y-65175317D01*
X122520910Y-65391441D01*
X122733110Y-65536431D01*
X122985000Y-65587440D01*
X124585000Y-65587440D01*
X124820317Y-65543162D01*
X125036441Y-65404090D01*
X125090481Y-65325000D01*
X125714995Y-65325000D01*
X125715000Y-65325001D01*
X125997484Y-65268810D01*
X126053675Y-65257633D01*
X126340790Y-65065790D01*
X126340791Y-65065789D01*
X137294139Y-54112440D01*
X137990000Y-54112440D01*
X138225317Y-54068162D01*
X138441441Y-53929090D01*
X138586431Y-53716890D01*
X138637440Y-53465000D01*
X138637440Y-51865000D01*
X138593162Y-51629683D01*
X138454090Y-51413559D01*
X138241890Y-51268569D01*
X137990000Y-51217560D01*
X136990000Y-51217560D01*
X136754683Y-51261838D01*
X136538559Y-51400910D01*
X136393569Y-51613110D01*
X136342560Y-51865000D01*
X136342560Y-52560861D01*
X135437191Y-53466230D01*
X135437440Y-53465000D01*
X135437440Y-51865000D01*
X135393162Y-51629683D01*
X135254090Y-51413559D01*
X135041890Y-51268569D01*
X134790000Y-51217560D01*
X133790000Y-51217560D01*
X133554683Y-51261838D01*
X133371636Y-51379626D01*
X133532633Y-51138675D01*
X133551267Y-51044995D01*
X133600001Y-50800000D01*
X133600000Y-50799995D01*
X133600000Y-49073964D01*
X133790000Y-49112440D01*
X134790000Y-49112440D01*
X135025317Y-49068162D01*
X135241441Y-48929090D01*
X135386431Y-48716890D01*
X135437440Y-48465000D01*
X135437440Y-47950750D01*
X136355000Y-47950750D01*
X136355000Y-48591309D01*
X136451673Y-48824698D01*
X136630301Y-49003327D01*
X136863690Y-49100000D01*
X137204250Y-49100000D01*
X137363000Y-48941250D01*
X137363000Y-47792000D01*
X137617000Y-47792000D01*
X137617000Y-48941250D01*
X137775750Y-49100000D01*
X138116310Y-49100000D01*
X138349699Y-49003327D01*
X138528327Y-48824698D01*
X138625000Y-48591309D01*
X138625000Y-47950750D01*
X138466250Y-47792000D01*
X137617000Y-47792000D01*
X137363000Y-47792000D01*
X136513750Y-47792000D01*
X136355000Y-47950750D01*
X135437440Y-47950750D01*
X135437440Y-47769140D01*
X136355000Y-46851580D01*
X136355000Y-47379250D01*
X136513750Y-47538000D01*
X137363000Y-47538000D01*
X137363000Y-46388750D01*
X137617000Y-46388750D01*
X137617000Y-47538000D01*
X138466250Y-47538000D01*
X138625000Y-47379250D01*
X138625000Y-46738691D01*
X138528327Y-46505302D01*
X138349699Y-46326673D01*
X138116310Y-46230000D01*
X137775750Y-46230000D01*
X137617000Y-46388750D01*
X137363000Y-46388750D01*
X137204250Y-46230000D01*
X136976579Y-46230000D01*
X138115787Y-45090792D01*
X138115790Y-45090790D01*
X138307633Y-44803675D01*
X138375000Y-44465000D01*
X138375000Y-36191844D01*
X138441441Y-36149090D01*
X138586431Y-35936890D01*
X138637440Y-35685000D01*
X138637440Y-34085000D01*
X138593162Y-33849683D01*
X138454090Y-33633559D01*
X138241890Y-33488569D01*
X137990000Y-33437560D01*
X136990000Y-33437560D01*
X136754683Y-33481838D01*
X136538559Y-33620910D01*
X136393569Y-33833110D01*
X136342560Y-34085000D01*
X136342560Y-35685000D01*
X136342787Y-35686208D01*
X135437440Y-34780860D01*
X135437440Y-34085000D01*
X135393162Y-33849683D01*
X135254090Y-33633559D01*
X135175000Y-33579519D01*
X135175000Y-33325000D01*
X135107633Y-32986325D01*
X134915790Y-32699210D01*
X134915787Y-32699208D01*
X133411504Y-31194925D01*
X133538110Y-31281431D01*
X133790000Y-31332440D01*
X134790000Y-31332440D01*
X135025317Y-31288162D01*
X135241441Y-31149090D01*
X135386431Y-30936890D01*
X135437440Y-30685000D01*
X135437440Y-30170750D01*
X136355000Y-30170750D01*
X136355000Y-30811309D01*
X136451673Y-31044698D01*
X136630301Y-31223327D01*
X136863690Y-31320000D01*
X137204250Y-31320000D01*
X137363000Y-31161250D01*
X137363000Y-30012000D01*
X137617000Y-30012000D01*
X137617000Y-31161250D01*
X137775750Y-31320000D01*
X138116310Y-31320000D01*
X138349699Y-31223327D01*
X138528327Y-31044698D01*
X138625000Y-30811309D01*
X138625000Y-30170750D01*
X138466250Y-30012000D01*
X137617000Y-30012000D01*
X137363000Y-30012000D01*
X136513750Y-30012000D01*
X136355000Y-30170750D01*
X135437440Y-30170750D01*
X135437440Y-29085000D01*
X135413674Y-28958691D01*
X136355000Y-28958691D01*
X136355000Y-29599250D01*
X136513750Y-29758000D01*
X137363000Y-29758000D01*
X137363000Y-28608750D01*
X137617000Y-28608750D01*
X137617000Y-29758000D01*
X138466250Y-29758000D01*
X138625000Y-29599250D01*
X138625000Y-28958691D01*
X138528327Y-28725302D01*
X138349699Y-28546673D01*
X138116310Y-28450000D01*
X137775750Y-28450000D01*
X137617000Y-28608750D01*
X137363000Y-28608750D01*
X137204250Y-28450000D01*
X136863690Y-28450000D01*
X136630301Y-28546673D01*
X136451673Y-28725302D01*
X136355000Y-28958691D01*
X135413674Y-28958691D01*
X135393162Y-28849683D01*
X135254090Y-28633559D01*
X135175000Y-28579519D01*
X135175000Y-26975005D01*
X135175001Y-26975000D01*
X135107633Y-26636325D01*
X135090566Y-26610783D01*
X134915790Y-26349210D01*
X134915787Y-26349208D01*
X126615000Y-18048420D01*
X126615000Y-16855000D01*
X126547633Y-16516325D01*
X126355790Y-16229210D01*
X126355787Y-16229208D01*
X125232440Y-15105860D01*
X125232440Y-14410000D01*
X125188162Y-14174683D01*
X125049090Y-13958559D01*
X124836890Y-13813569D01*
X124585000Y-13762560D01*
X122985000Y-13762560D01*
X122749683Y-13806838D01*
X122533559Y-13945910D01*
X122388569Y-14158110D01*
X122337560Y-14410000D01*
X122337560Y-15410000D01*
X122381838Y-15645317D01*
X122520910Y-15861441D01*
X122733110Y-16006431D01*
X122985000Y-16057440D01*
X123680860Y-16057440D01*
X124586230Y-16962809D01*
X124585000Y-16962560D01*
X122985000Y-16962560D01*
X122749683Y-17006838D01*
X122533559Y-17145910D01*
X122479519Y-17225000D01*
X122225005Y-17225000D01*
X122225000Y-17224999D01*
X121942516Y-17281190D01*
X121886325Y-17292367D01*
X121599210Y-17484210D01*
X121599208Y-17484213D01*
X120094925Y-18988496D01*
X120181431Y-18861890D01*
X120232440Y-18610000D01*
X120232440Y-17610000D01*
X120188162Y-17374683D01*
X120049090Y-17158559D01*
X119836890Y-17013569D01*
X119585000Y-16962560D01*
X117985000Y-16962560D01*
X117749683Y-17006838D01*
X117533559Y-17145910D01*
X117388569Y-17358110D01*
X117337560Y-17610000D01*
X117337560Y-17935861D01*
X114309210Y-20964210D01*
X114309208Y-20964213D01*
X113966850Y-21306570D01*
X113966849Y-21306572D01*
X113591060Y-21682360D01*
X103633546Y-21682360D01*
X103274061Y-21253942D01*
X103088883Y-21102140D01*
X102843426Y-21025973D01*
X102587674Y-21051303D01*
X102361927Y-21174140D01*
X101136256Y-22202600D01*
X100984454Y-22387778D01*
X100908287Y-22633235D01*
X100933617Y-22888987D01*
X101056454Y-23114734D01*
X101699241Y-23880778D01*
X101884419Y-24032580D01*
X102129876Y-24108747D01*
X102385628Y-24083417D01*
X102611375Y-23960580D01*
X103217048Y-23452360D01*
X113957635Y-23452360D01*
X113957640Y-23452361D01*
X114240124Y-23396170D01*
X114296315Y-23384993D01*
X114583430Y-23193150D01*
X115218428Y-22558151D01*
X115218430Y-22558150D01*
X115560787Y-22215792D01*
X115560790Y-22215790D01*
X118519139Y-19257440D01*
X119585000Y-19257440D01*
X119820317Y-19213162D01*
X119960399Y-19123022D01*
X115579210Y-23504210D01*
X115579208Y-23504213D01*
X115325508Y-23757912D01*
X115325507Y-23757914D01*
X114949718Y-24133702D01*
X105690466Y-24133702D01*
X105330981Y-23705284D01*
X105145803Y-23553482D01*
X104900346Y-23477315D01*
X104644594Y-23502645D01*
X104418847Y-23625482D01*
X103193176Y-24653942D01*
X103041374Y-24839120D01*
X102965207Y-25084577D01*
X102990537Y-25340329D01*
X103113374Y-25566076D01*
X103591071Y-26135373D01*
X103591071Y-26633891D01*
X102270669Y-27954293D01*
X102266383Y-27911013D01*
X102143546Y-27685266D01*
X101500759Y-26919222D01*
X101315581Y-26767420D01*
X101070124Y-26691253D01*
X100814372Y-26716583D01*
X100588625Y-26839420D01*
X100063395Y-27280140D01*
X98568686Y-27280140D01*
X98676399Y-27246178D01*
X99167096Y-26834435D01*
X99186663Y-26610783D01*
X98640775Y-25960220D01*
X97760399Y-26698943D01*
X97740832Y-26922595D01*
X97797359Y-26989962D01*
X97959740Y-27183480D01*
X98145422Y-27280140D01*
X96989360Y-27280140D01*
X96650016Y-27347640D01*
X96624854Y-27352645D01*
X96315840Y-27559121D01*
X91807462Y-32067500D01*
X80518000Y-32067500D01*
X80153494Y-32140005D01*
X79844481Y-32346481D01*
X78026481Y-34164481D01*
X77820005Y-34473494D01*
X77747500Y-34838000D01*
X77747500Y-37921255D01*
X77664683Y-37936838D01*
X77448559Y-38075910D01*
X77303569Y-38288110D01*
X77252560Y-38540000D01*
X77252560Y-39540000D01*
X77296838Y-39775317D01*
X77435910Y-39991441D01*
X77648110Y-40136431D01*
X77900000Y-40187440D01*
X78607522Y-40187440D01*
X78026481Y-40768481D01*
X77820005Y-41077494D01*
X77813781Y-41108783D01*
X77664683Y-41136838D01*
X77448559Y-41275910D01*
X77303569Y-41488110D01*
X77252560Y-41740000D01*
X77252560Y-42145861D01*
X76468420Y-42930000D01*
X75108964Y-42930000D01*
X75147440Y-42740000D01*
X75147440Y-41740000D01*
X75103162Y-41504683D01*
X74964090Y-41288559D01*
X74751890Y-41143569D01*
X74500000Y-41092560D01*
X72900000Y-41092560D01*
X72664683Y-41136838D01*
X72448559Y-41275910D01*
X72394519Y-41355000D01*
X70568852Y-41355000D01*
X68539603Y-39325750D01*
X72265000Y-39325750D01*
X72265000Y-39666310D01*
X72361673Y-39899699D01*
X72540302Y-40078327D01*
X72773691Y-40175000D01*
X73414250Y-40175000D01*
X73573000Y-40016250D01*
X73573000Y-39167000D01*
X73827000Y-39167000D01*
X73827000Y-40016250D01*
X73985750Y-40175000D01*
X74626309Y-40175000D01*
X74859698Y-40078327D01*
X75038327Y-39899699D01*
X75135000Y-39666310D01*
X75135000Y-39325750D01*
X74976250Y-39167000D01*
X73827000Y-39167000D01*
X73573000Y-39167000D01*
X72423750Y-39167000D01*
X72265000Y-39325750D01*
X68539603Y-39325750D01*
X67627543Y-38413690D01*
X72265000Y-38413690D01*
X72265000Y-38754250D01*
X72423750Y-38913000D01*
X73573000Y-38913000D01*
X73573000Y-38063750D01*
X73827000Y-38063750D01*
X73827000Y-38913000D01*
X74976250Y-38913000D01*
X75135000Y-38754250D01*
X75135000Y-38413690D01*
X75038327Y-38180301D01*
X74859698Y-38001673D01*
X74626309Y-37905000D01*
X73985750Y-37905000D01*
X73827000Y-38063750D01*
X73573000Y-38063750D01*
X73414250Y-37905000D01*
X72773691Y-37905000D01*
X72540302Y-38001673D01*
X72361673Y-38180301D01*
X72265000Y-38413690D01*
X67627543Y-38413690D01*
X55295920Y-26082067D01*
X55323494Y-25864993D01*
X55254138Y-25617525D01*
X55093966Y-25416538D01*
X53868295Y-24388078D01*
X53659571Y-24270738D01*
X53404616Y-24238352D01*
X53157148Y-24307708D01*
X52956161Y-24467880D01*
X52313374Y-25233924D01*
X52196034Y-25442648D01*
X52163648Y-25697603D01*
X52233004Y-25945071D01*
X52393176Y-26146058D01*
X53618847Y-27174518D01*
X53827571Y-27291858D01*
X54028012Y-27317319D01*
X69576481Y-42865787D01*
X69576483Y-42865790D01*
X69672581Y-42930000D01*
X67635590Y-42930000D01*
X55119740Y-30414149D01*
X54927519Y-30126470D01*
X54836402Y-30065587D01*
X54775519Y-29974470D01*
X53249759Y-28448710D01*
X53266574Y-28316335D01*
X53197218Y-28068867D01*
X53037046Y-27867880D01*
X51811375Y-26839420D01*
X51602651Y-26722080D01*
X51347696Y-26689694D01*
X51100228Y-26759050D01*
X50899241Y-26919222D01*
X50539756Y-27347640D01*
X49554219Y-27347640D01*
X48585328Y-26378749D01*
X48643839Y-26332120D01*
X49286626Y-25566076D01*
X49403966Y-25357352D01*
X49436352Y-25102397D01*
X49366996Y-24854929D01*
X49206824Y-24653942D01*
X48741429Y-24263429D01*
X48741429Y-23396845D01*
X49383115Y-23396845D01*
X49402682Y-23620497D01*
X49893379Y-24032240D01*
X50134305Y-24108204D01*
X50385963Y-24086188D01*
X50610038Y-23969542D01*
X50772419Y-23776024D01*
X50828946Y-23708657D01*
X50809379Y-23485005D01*
X49929003Y-22746282D01*
X49383115Y-23396845D01*
X48741429Y-23396845D01*
X48741429Y-23065639D01*
X48964888Y-23253144D01*
X49188540Y-23233577D01*
X49734427Y-22583014D01*
X49697116Y-22551706D01*
X50092271Y-22551706D01*
X50972647Y-23290430D01*
X51196299Y-23270863D01*
X51252827Y-23203496D01*
X51415207Y-23009979D01*
X51491171Y-22769052D01*
X51469153Y-22517395D01*
X51352507Y-22293320D01*
X50861810Y-21881576D01*
X50638158Y-21901143D01*
X50092271Y-22551706D01*
X49697116Y-22551706D01*
X48854051Y-21844290D01*
X48630399Y-21863857D01*
X48573871Y-21931224D01*
X48560263Y-21947442D01*
X48556340Y-21941570D01*
X48482219Y-21830639D01*
X48482216Y-21830637D01*
X48077643Y-21426063D01*
X48997752Y-21426063D01*
X49017319Y-21649715D01*
X49897695Y-22388438D01*
X50443583Y-21737875D01*
X50424016Y-21514223D01*
X49933319Y-21102480D01*
X49692393Y-21026516D01*
X49440735Y-21048532D01*
X49216660Y-21165178D01*
X49054279Y-21358696D01*
X48997752Y-21426063D01*
X48077643Y-21426063D01*
X40935790Y-14284210D01*
X40771870Y-14174683D01*
X40648675Y-14092367D01*
X40592484Y-14081190D01*
X40310000Y-14024999D01*
X40309995Y-14025000D01*
X34921844Y-14025000D01*
X34879090Y-13958559D01*
X34666890Y-13813569D01*
X34415000Y-13762560D01*
X32815000Y-13762560D01*
X32579683Y-13806838D01*
X32363559Y-13945910D01*
X32218569Y-14158110D01*
X32167560Y-14410000D01*
X32167560Y-15410000D01*
X32211838Y-15645317D01*
X32350910Y-15861441D01*
X32563110Y-16006431D01*
X32815000Y-16057440D01*
X34415000Y-16057440D01*
X34650317Y-16013162D01*
X34866441Y-15874090D01*
X34920481Y-15795000D01*
X39943420Y-15795000D01*
X46971429Y-22823008D01*
X46971429Y-23821587D01*
X46541060Y-24334481D01*
X41583290Y-19376710D01*
X41583287Y-19376708D01*
X39690790Y-17484210D01*
X39526870Y-17374683D01*
X39403675Y-17292367D01*
X39347484Y-17281190D01*
X39065000Y-17224999D01*
X39064995Y-17225000D01*
X34921844Y-17225000D01*
X34879090Y-17158559D01*
X34666890Y-17013569D01*
X34415000Y-16962560D01*
X32815000Y-16962560D01*
X32579683Y-17006838D01*
X32363559Y-17145910D01*
X32218569Y-17358110D01*
X32167560Y-17610000D01*
X32167560Y-18015861D01*
X30748420Y-19435000D01*
X27675005Y-19435000D01*
X27675000Y-19434999D01*
X27392516Y-19491190D01*
X27336325Y-19502367D01*
X27049210Y-19694210D01*
X27049208Y-19694213D01*
X18305860Y-28437560D01*
X17610000Y-28437560D01*
X17374683Y-28481838D01*
X17158559Y-28620910D01*
X17013569Y-28833110D01*
X16962560Y-29085000D01*
X16962560Y-30685000D01*
X17006838Y-30920317D01*
X17145910Y-31136441D01*
X17358110Y-31281431D01*
X17610000Y-31332440D01*
X18047402Y-31332440D01*
X18351500Y-31636538D01*
X18351500Y-33437560D01*
X17610000Y-33437560D01*
X17374683Y-33481838D01*
X17158559Y-33620910D01*
X17013569Y-33833110D01*
X16962560Y-34085000D01*
X16962560Y-35685000D01*
X17006838Y-35920317D01*
X17145910Y-36136441D01*
X17225000Y-36190481D01*
X17225000Y-44098421D01*
X15105860Y-46217560D01*
X14410000Y-46217560D01*
X14174683Y-46261838D01*
X13958559Y-46400910D01*
X13813569Y-46613110D01*
X13762560Y-46865000D01*
X13762560Y-48465000D01*
X13806838Y-48700317D01*
X13945910Y-48916441D01*
X14158110Y-49061431D01*
X14410000Y-49112440D01*
X15410000Y-49112440D01*
X15645317Y-49068162D01*
X15861441Y-48929090D01*
X16006431Y-48716890D01*
X16057440Y-48465000D01*
X16057440Y-47769140D01*
X16962809Y-46863771D01*
X16962560Y-46865000D01*
X16962560Y-48465000D01*
X17006838Y-48700317D01*
X17145910Y-48916441D01*
X17358110Y-49061431D01*
X17384664Y-49066808D01*
X17453961Y-49170519D01*
X17484210Y-49215790D01*
X19435000Y-51166579D01*
X19435000Y-56144995D01*
X19434999Y-56145000D01*
X19486507Y-56403942D01*
X19502367Y-56483675D01*
X19682355Y-56753048D01*
X19694210Y-56770790D01*
X27167560Y-64244139D01*
X27167560Y-64940000D01*
X27167787Y-64941208D01*
X18995000Y-56768420D01*
X18995000Y-53971844D01*
X19061441Y-53929090D01*
X19206431Y-53716890D01*
X19257440Y-53465000D01*
X19257440Y-51865000D01*
X19213162Y-51629683D01*
X19074090Y-51413559D01*
X18861890Y-51268569D01*
X18610000Y-51217560D01*
X17610000Y-51217560D01*
X17374683Y-51261838D01*
X17158559Y-51400910D01*
X17013569Y-51613110D01*
X16962560Y-51865000D01*
X16962560Y-53465000D01*
X17006838Y-53700317D01*
X17145910Y-53916441D01*
X17225000Y-53970481D01*
X17225000Y-57134995D01*
X17224999Y-57135000D01*
X17271252Y-57367525D01*
X17292367Y-57473675D01*
X17484210Y-57760790D01*
X27167560Y-67444139D01*
X27167560Y-68140000D01*
X27211838Y-68375317D01*
X27350910Y-68591441D01*
X27563110Y-68736431D01*
X27815000Y-68787440D01*
X29415000Y-68787440D01*
X29650317Y-68743162D01*
X29866441Y-68604090D01*
X30011431Y-68391890D01*
X30062440Y-68140000D01*
X30062440Y-67925750D01*
X32180000Y-67925750D01*
X32180000Y-68266310D01*
X32276673Y-68499699D01*
X32455302Y-68678327D01*
X32688691Y-68775000D01*
X33329250Y-68775000D01*
X33488000Y-68616250D01*
X33488000Y-67767000D01*
X33742000Y-67767000D01*
X33742000Y-68616250D01*
X33900750Y-68775000D01*
X34541309Y-68775000D01*
X34774698Y-68678327D01*
X34953327Y-68499699D01*
X35050000Y-68266310D01*
X35050000Y-67925750D01*
X34891250Y-67767000D01*
X33742000Y-67767000D01*
X33488000Y-67767000D01*
X32338750Y-67767000D01*
X32180000Y-67925750D01*
X30062440Y-67925750D01*
X30062440Y-67140000D01*
X30038674Y-67013690D01*
X32180000Y-67013690D01*
X32180000Y-67354250D01*
X32338750Y-67513000D01*
X33488000Y-67513000D01*
X33488000Y-66663750D01*
X33742000Y-66663750D01*
X33742000Y-67513000D01*
X34891250Y-67513000D01*
X35050000Y-67354250D01*
X35050000Y-67013690D01*
X34953327Y-66780301D01*
X34774698Y-66601673D01*
X34541309Y-66505000D01*
X33900750Y-66505000D01*
X33742000Y-66663750D01*
X33488000Y-66663750D01*
X33329250Y-66505000D01*
X32688691Y-66505000D01*
X32455302Y-66601673D01*
X32276673Y-66780301D01*
X32180000Y-67013690D01*
X30038674Y-67013690D01*
X30018162Y-66904683D01*
X29879090Y-66688559D01*
X29666890Y-66543569D01*
X29415000Y-66492560D01*
X28719139Y-66492560D01*
X27813770Y-65587191D01*
X27815000Y-65587440D01*
X29415000Y-65587440D01*
X29650317Y-65543162D01*
X29866441Y-65404090D01*
X30011431Y-65191890D01*
X30062440Y-64940000D01*
X30062440Y-64534140D01*
X30656579Y-63940000D01*
X32167560Y-63940000D01*
X32167560Y-64940000D01*
X32211838Y-65175317D01*
X32350910Y-65391441D01*
X32563110Y-65536431D01*
X32815000Y-65587440D01*
X34415000Y-65587440D01*
X34650317Y-65543162D01*
X34866441Y-65404090D01*
X34920481Y-65325000D01*
X43509995Y-65325000D01*
X43510000Y-65325001D01*
X43792484Y-65268810D01*
X43848675Y-65257633D01*
X44135790Y-65065790D01*
X44135791Y-65065789D01*
X48333939Y-60867640D01*
X48766454Y-60867640D01*
X49125939Y-61296058D01*
X49311117Y-61447860D01*
X49556574Y-61524027D01*
X49812326Y-61498697D01*
X50038073Y-61375860D01*
X51263744Y-60347400D01*
X51415546Y-60162222D01*
X51491713Y-59916765D01*
X51466383Y-59661013D01*
X51343546Y-59435266D01*
X50700759Y-58669222D01*
X50515581Y-58517420D01*
X50270124Y-58441253D01*
X50014372Y-58466583D01*
X49788625Y-58589420D01*
X49182952Y-59097640D01*
X47967365Y-59097640D01*
X47967360Y-59097639D01*
X47688269Y-59153155D01*
X47628685Y-59165007D01*
X47341570Y-59356850D01*
X47341568Y-59356853D01*
X43143420Y-63555000D01*
X34921844Y-63555000D01*
X34879090Y-63488559D01*
X34666890Y-63343569D01*
X34415000Y-63292560D01*
X32815000Y-63292560D01*
X32579683Y-63336838D01*
X32363559Y-63475910D01*
X32218569Y-63688110D01*
X32167560Y-63940000D01*
X30656579Y-63940000D01*
X32116579Y-62480000D01*
X43792722Y-62480000D01*
X43792727Y-62480001D01*
X44075211Y-62423810D01*
X44131402Y-62412633D01*
X44418517Y-62220790D01*
X44418518Y-62220789D01*
X47573983Y-59065323D01*
X47755406Y-59047355D01*
X47981153Y-58924518D01*
X49190209Y-57909999D01*
X52827974Y-57909999D01*
X52884501Y-57977366D01*
X53046882Y-58170884D01*
X53270957Y-58287530D01*
X53522615Y-58309546D01*
X53763541Y-58233582D01*
X54254238Y-57821839D01*
X54273805Y-57598187D01*
X53727917Y-56947624D01*
X52847541Y-57686347D01*
X52827974Y-57909999D01*
X49190209Y-57909999D01*
X49206824Y-57896058D01*
X49358626Y-57710880D01*
X49434793Y-57465423D01*
X49409463Y-57209671D01*
X49286626Y-56983924D01*
X49275273Y-56970394D01*
X52165749Y-56970394D01*
X52241713Y-57211321D01*
X52404093Y-57404838D01*
X52460621Y-57472205D01*
X52684273Y-57491772D01*
X53527337Y-56784356D01*
X53922493Y-56784356D01*
X54468380Y-57434919D01*
X54692032Y-57454486D01*
X55182729Y-57042742D01*
X55299375Y-56818667D01*
X55321393Y-56567010D01*
X55245429Y-56326083D01*
X55083049Y-56132566D01*
X55026521Y-56065199D01*
X54802869Y-56045632D01*
X53922493Y-56784356D01*
X53527337Y-56784356D01*
X53564649Y-56753048D01*
X53018762Y-56102485D01*
X52795110Y-56082918D01*
X52304413Y-56494662D01*
X52187767Y-56718737D01*
X52165749Y-56970394D01*
X49275273Y-56970394D01*
X48643839Y-56217880D01*
X48458661Y-56066078D01*
X48213204Y-55989911D01*
X47957452Y-56015241D01*
X47731705Y-56138078D01*
X46506034Y-57166538D01*
X46354232Y-57351716D01*
X46278065Y-57597173D01*
X46301577Y-57834571D01*
X43426147Y-60710000D01*
X31750005Y-60710000D01*
X31750000Y-60709999D01*
X31411326Y-60777366D01*
X31316054Y-60841025D01*
X31124210Y-60969210D01*
X31124208Y-60969213D01*
X28800860Y-63292560D01*
X28719139Y-63292560D01*
X21365797Y-55939217D01*
X53213337Y-55939217D01*
X53759225Y-56589780D01*
X54639601Y-55851057D01*
X54659168Y-55627405D01*
X54602641Y-55560038D01*
X54440260Y-55366520D01*
X54216185Y-55249874D01*
X53964527Y-55227858D01*
X53723601Y-55303822D01*
X53232904Y-55715565D01*
X53213337Y-55939217D01*
X21365797Y-55939217D01*
X21205000Y-55778420D01*
X21205000Y-53397630D01*
X21686185Y-53878816D01*
X21834377Y-53977834D01*
X21933395Y-54043996D01*
X22225000Y-54102000D01*
X41275000Y-54102000D01*
X41566605Y-54043996D01*
X41813815Y-53878815D01*
X43068506Y-52624125D01*
X43111167Y-52624162D01*
X43454943Y-52482117D01*
X43718192Y-52219327D01*
X43860838Y-51875799D01*
X43861162Y-51503833D01*
X43719117Y-51160057D01*
X43456327Y-50896808D01*
X43361519Y-50857440D01*
X43475000Y-50857440D01*
X43710317Y-50813162D01*
X43926441Y-50674090D01*
X43927390Y-50672701D01*
X44040000Y-50749644D01*
X44040000Y-52544995D01*
X44039999Y-52545000D01*
X44096190Y-52827484D01*
X44107367Y-52883675D01*
X44251910Y-53100000D01*
X44299210Y-53170790D01*
X46071568Y-54943147D01*
X46071570Y-54943150D01*
X46263414Y-55071335D01*
X46358686Y-55134994D01*
X46697360Y-55202361D01*
X46697365Y-55202360D01*
X50539756Y-55202360D01*
X50899241Y-55630778D01*
X51084419Y-55782580D01*
X51329876Y-55858747D01*
X51585628Y-55833417D01*
X51811375Y-55710580D01*
X53037046Y-54682120D01*
X53188848Y-54496942D01*
X53265015Y-54251485D01*
X53239685Y-53995733D01*
X53116848Y-53769986D01*
X52474061Y-53003942D01*
X52288883Y-52852140D01*
X52043426Y-52775973D01*
X51787674Y-52801303D01*
X51561927Y-52924140D01*
X50956254Y-53432360D01*
X47063939Y-53432360D01*
X45810000Y-52178420D01*
X45810000Y-50749018D01*
X45926441Y-50674090D01*
X45927390Y-50672701D01*
X46123110Y-50806431D01*
X46375000Y-50857440D01*
X47475000Y-50857440D01*
X47710317Y-50813162D01*
X47926441Y-50674090D01*
X47927390Y-50672701D01*
X48123110Y-50806431D01*
X48375000Y-50857440D01*
X49475000Y-50857440D01*
X49710317Y-50813162D01*
X49926441Y-50674090D01*
X50071431Y-50461890D01*
X50122440Y-50210000D01*
X50122440Y-49212500D01*
X54876000Y-49212500D01*
X55240506Y-49139995D01*
X55549519Y-48933519D01*
X56788704Y-47694334D01*
X57004185Y-47909815D01*
X57251395Y-48074996D01*
X57543000Y-48133000D01*
X59291279Y-48133000D01*
X59404883Y-48407943D01*
X59667673Y-48671192D01*
X60011201Y-48813838D01*
X60383167Y-48814162D01*
X60726943Y-48672117D01*
X60990192Y-48409327D01*
X61104934Y-48133000D01*
X62484000Y-48133000D01*
X62775605Y-48074996D01*
X63022815Y-47909815D01*
X63391816Y-47540815D01*
X63519276Y-47350057D01*
X63556996Y-47293605D01*
X63564924Y-47253747D01*
X63699431Y-47056890D01*
X63750440Y-46805000D01*
X63750440Y-45905000D01*
X63706162Y-45669683D01*
X63657566Y-45594162D01*
X63699431Y-45532890D01*
X63750440Y-45281000D01*
X63750440Y-44381000D01*
X63706162Y-44145683D01*
X63567090Y-43929559D01*
X63354890Y-43784569D01*
X63103000Y-43733560D01*
X62603000Y-43733560D01*
X62367683Y-43777838D01*
X62151559Y-43916910D01*
X62103866Y-43986711D01*
X62067090Y-43929559D01*
X61922952Y-43831073D01*
X62092327Y-43661699D01*
X62189000Y-43428310D01*
X62189000Y-41687750D01*
X62030250Y-41529000D01*
X60681000Y-41529000D01*
X60681000Y-43778250D01*
X60753842Y-43851092D01*
X60651559Y-43916910D01*
X60603645Y-43987035D01*
X60384799Y-43896162D01*
X60309154Y-43896096D01*
X60427000Y-43778250D01*
X60427000Y-41529000D01*
X59077750Y-41529000D01*
X58919000Y-41687750D01*
X58919000Y-43428310D01*
X59015673Y-43661699D01*
X59194302Y-43840327D01*
X59427691Y-43937000D01*
X59913213Y-43937000D01*
X59669057Y-44037883D01*
X59405808Y-44300673D01*
X59263162Y-44644201D01*
X59262838Y-45016167D01*
X59404883Y-45359943D01*
X59637709Y-45593176D01*
X59405808Y-45824673D01*
X59263162Y-46168201D01*
X59262838Y-46540167D01*
X59291279Y-46609000D01*
X58007000Y-46609000D01*
X58007000Y-46355000D01*
X58027000Y-46355000D01*
X58027000Y-45630750D01*
X58281000Y-45630750D01*
X58281000Y-46355000D01*
X59030250Y-46355000D01*
X59189000Y-46196250D01*
X59189000Y-45980690D01*
X59092327Y-45747301D01*
X58913698Y-45568673D01*
X58680309Y-45472000D01*
X58439750Y-45472000D01*
X58281000Y-45630750D01*
X58027000Y-45630750D01*
X57868250Y-45472000D01*
X57627691Y-45472000D01*
X57415363Y-45559949D01*
X57327520Y-45428481D01*
X55901440Y-44002402D01*
X55901440Y-42952000D01*
X55857162Y-42716683D01*
X55751518Y-42552508D01*
X55792327Y-42511699D01*
X55889000Y-42278310D01*
X55889000Y-41687750D01*
X55730250Y-41529000D01*
X54381000Y-41529000D01*
X54381000Y-41549000D01*
X54127000Y-41549000D01*
X54127000Y-41529000D01*
X52777750Y-41529000D01*
X52619000Y-41687750D01*
X52619000Y-42278310D01*
X52715673Y-42511699D01*
X52757634Y-42553660D01*
X52657569Y-42700110D01*
X52606560Y-42952000D01*
X52606560Y-44452000D01*
X52650838Y-44687317D01*
X52789910Y-44903441D01*
X53002110Y-45048431D01*
X53254000Y-45099440D01*
X54304402Y-45099440D01*
X55496962Y-46292000D01*
X54481462Y-47307500D01*
X52290061Y-47307500D01*
X52326441Y-47284090D01*
X52471431Y-47071890D01*
X52522440Y-46820000D01*
X52522440Y-45720000D01*
X52478162Y-45484683D01*
X52339090Y-45268559D01*
X52337701Y-45267610D01*
X52471431Y-45071890D01*
X52522440Y-44820000D01*
X52522440Y-43720000D01*
X52478162Y-43484683D01*
X52339090Y-43268559D01*
X52337701Y-43267610D01*
X52471431Y-43071890D01*
X52522440Y-42820000D01*
X52522440Y-41720000D01*
X52478162Y-41484683D01*
X52339090Y-41268559D01*
X52337701Y-41267610D01*
X52471431Y-41071890D01*
X52522440Y-40820000D01*
X52522440Y-39720000D01*
X52478162Y-39484683D01*
X52339090Y-39268559D01*
X52337701Y-39267610D01*
X52471431Y-39071890D01*
X52522440Y-38820000D01*
X52522440Y-37720000D01*
X52478162Y-37484683D01*
X52339090Y-37268559D01*
X52337701Y-37267610D01*
X52471431Y-37071890D01*
X52522440Y-36820000D01*
X52522440Y-35720000D01*
X52478162Y-35484683D01*
X52339090Y-35268559D01*
X52126890Y-35123569D01*
X51875000Y-35072560D01*
X50053563Y-35072560D01*
X50110000Y-34936309D01*
X50110000Y-33845750D01*
X49951250Y-33687000D01*
X49052000Y-33687000D01*
X49052000Y-33707000D01*
X48798000Y-33707000D01*
X48798000Y-33687000D01*
X48778000Y-33687000D01*
X48778000Y-33433000D01*
X48798000Y-33433000D01*
X48798000Y-33413000D01*
X49052000Y-33413000D01*
X49052000Y-33433000D01*
X49951250Y-33433000D01*
X50110000Y-33274250D01*
X50110000Y-32183691D01*
X50013327Y-31950302D01*
X49834699Y-31771673D01*
X49601310Y-31675000D01*
X49413025Y-31675000D01*
X49544327Y-31543699D01*
X49641000Y-31310310D01*
X49641000Y-31019750D01*
X49482250Y-30861000D01*
X48881000Y-30861000D01*
X48881000Y-30881000D01*
X48631000Y-30881000D01*
X48631000Y-30861000D01*
X48609000Y-30861000D01*
X48609000Y-30607000D01*
X48631000Y-30607000D01*
X48631000Y-29807750D01*
X48881000Y-29807750D01*
X48881000Y-30607000D01*
X49482250Y-30607000D01*
X49641000Y-30448250D01*
X49641000Y-30157690D01*
X49544327Y-29924301D01*
X49365698Y-29745673D01*
X49132309Y-29649000D01*
X49039750Y-29649000D01*
X48881000Y-29807750D01*
X48631000Y-29807750D01*
X48472250Y-29649000D01*
X48379691Y-29649000D01*
X48146302Y-29745673D01*
X48005064Y-29886910D01*
X47970090Y-29832559D01*
X47757890Y-29687569D01*
X47506000Y-29636560D01*
X47006000Y-29636560D01*
X46770683Y-29680838D01*
X46554559Y-29819910D01*
X46409569Y-30032110D01*
X46358560Y-30284000D01*
X46358560Y-30567529D01*
X46221004Y-30773395D01*
X46163000Y-31065000D01*
X46163000Y-31702451D01*
X46139683Y-31706838D01*
X45923559Y-31845910D01*
X45922610Y-31847299D01*
X45726890Y-31713569D01*
X45687000Y-31705491D01*
X45687000Y-31475000D01*
X45628996Y-31183395D01*
X45537194Y-31046004D01*
X45463815Y-30936184D01*
X45081440Y-30553810D01*
X45081440Y-30284000D01*
X45037162Y-30048683D01*
X44898090Y-29832559D01*
X44685890Y-29687569D01*
X44434000Y-29636560D01*
X43934000Y-29636560D01*
X43698683Y-29680838D01*
X43482559Y-29819910D01*
X43434866Y-29889711D01*
X43398090Y-29832559D01*
X43185890Y-29687569D01*
X42934000Y-29636560D01*
X42434000Y-29636560D01*
X42198683Y-29680838D01*
X41982559Y-29819910D01*
X41878640Y-29972000D01*
X25146000Y-29972000D01*
X24854395Y-30030004D01*
X24607185Y-30195185D01*
X20416185Y-34386185D01*
X20256500Y-34625170D01*
X20256500Y-31242000D01*
X20183995Y-30877494D01*
X19977519Y-30568481D01*
X19332374Y-29923336D01*
X19334642Y-29911938D01*
X28041579Y-21205000D01*
X31114995Y-21205000D01*
X31115000Y-21205001D01*
X31397484Y-21148810D01*
X31453675Y-21137633D01*
X31740790Y-20945790D01*
X31740791Y-20945789D01*
X33429139Y-19257440D01*
X34415000Y-19257440D01*
X34650317Y-19213162D01*
X34866441Y-19074090D01*
X34920481Y-18995000D01*
X38698420Y-18995000D01*
X40331708Y-20628287D01*
X40331710Y-20628290D01*
X48561848Y-28858427D01*
X48561850Y-28858430D01*
X48711902Y-28958691D01*
X48848966Y-29050274D01*
X49187640Y-29117641D01*
X49187645Y-29117640D01*
X50956254Y-29117640D01*
X51561927Y-29625860D01*
X51770651Y-29743200D01*
X51861744Y-29754771D01*
X53301500Y-31194527D01*
X53301500Y-37704560D01*
X53254000Y-37704560D01*
X53018683Y-37748838D01*
X52802559Y-37887910D01*
X52657569Y-38100110D01*
X52606560Y-38352000D01*
X52606560Y-39852000D01*
X52650838Y-40087317D01*
X52756482Y-40251492D01*
X52715673Y-40292301D01*
X52619000Y-40525690D01*
X52619000Y-41116250D01*
X52777750Y-41275000D01*
X54127000Y-41275000D01*
X54127000Y-41255000D01*
X54381000Y-41255000D01*
X54381000Y-41275000D01*
X55730250Y-41275000D01*
X55889000Y-41116250D01*
X55889000Y-40525690D01*
X55792327Y-40292301D01*
X55750366Y-40250340D01*
X55850431Y-40103890D01*
X55901440Y-39852000D01*
X55901440Y-39375690D01*
X58919000Y-39375690D01*
X58919000Y-41116250D01*
X59077750Y-41275000D01*
X60427000Y-41275000D01*
X60427000Y-39025750D01*
X60268250Y-38867000D01*
X59427691Y-38867000D01*
X59194302Y-38963673D01*
X59015673Y-39142301D01*
X58919000Y-39375690D01*
X55901440Y-39375690D01*
X55901440Y-38352000D01*
X55857162Y-38116683D01*
X55718090Y-37900559D01*
X55505890Y-37755569D01*
X55254000Y-37704560D01*
X55206500Y-37704560D01*
X55206500Y-33004069D01*
X61069432Y-38867000D01*
X60839750Y-38867000D01*
X60681000Y-39025750D01*
X60681000Y-41275000D01*
X62030250Y-41275000D01*
X62189000Y-41116250D01*
X62189000Y-39986568D01*
X66643219Y-44440787D01*
X66643221Y-44440790D01*
X66813489Y-44554559D01*
X66930337Y-44632634D01*
X67269011Y-44700001D01*
X67269016Y-44700000D01*
X70538962Y-44700000D01*
X69696481Y-45542481D01*
X69490005Y-45851494D01*
X69417500Y-46216000D01*
X69417500Y-46806815D01*
X69373569Y-46871110D01*
X69322560Y-47123000D01*
X69322560Y-47467810D01*
X69281185Y-47509185D01*
X69116004Y-47756395D01*
X69058000Y-48048000D01*
X69058000Y-48429287D01*
X68891708Y-48360237D01*
X68350666Y-48359764D01*
X67850628Y-48566376D01*
X67467720Y-48948616D01*
X67260237Y-49448292D01*
X67259764Y-49989334D01*
X67466376Y-50489372D01*
X67798983Y-50822560D01*
X67713569Y-50822560D01*
X67620000Y-50803948D01*
X67147386Y-50897957D01*
X66746723Y-51165671D01*
X66479009Y-51566334D01*
X66385000Y-52038948D01*
X66385000Y-52801052D01*
X66479009Y-53273666D01*
X66489923Y-53290000D01*
X66323736Y-53290000D01*
X63984368Y-50950632D01*
X63899381Y-50893846D01*
X63820065Y-50829374D01*
X63789049Y-50820124D01*
X63762138Y-50802143D01*
X63661887Y-50782202D01*
X63563938Y-50752991D01*
X63531745Y-50756315D01*
X63500000Y-50750000D01*
X63399746Y-50769942D01*
X63298078Y-50780438D01*
X63269607Y-50795829D01*
X63237862Y-50802143D01*
X63152876Y-50858929D01*
X63062958Y-50907535D01*
X41028086Y-69165000D01*
X25729228Y-69165000D01*
X13385000Y-53734715D01*
X13385000Y-52950750D01*
X13775000Y-52950750D01*
X13775000Y-53591309D01*
X13871673Y-53824698D01*
X14050301Y-54003327D01*
X14283690Y-54100000D01*
X14624250Y-54100000D01*
X14783000Y-53941250D01*
X14783000Y-52792000D01*
X15037000Y-52792000D01*
X15037000Y-53941250D01*
X15195750Y-54100000D01*
X15536310Y-54100000D01*
X15769699Y-54003327D01*
X15948327Y-53824698D01*
X16045000Y-53591309D01*
X16045000Y-52950750D01*
X15886250Y-52792000D01*
X15037000Y-52792000D01*
X14783000Y-52792000D01*
X13933750Y-52792000D01*
X13775000Y-52950750D01*
X13385000Y-52950750D01*
X13385000Y-51738691D01*
X13775000Y-51738691D01*
X13775000Y-52379250D01*
X13933750Y-52538000D01*
X14783000Y-52538000D01*
X14783000Y-51388750D01*
X15037000Y-51388750D01*
X15037000Y-52538000D01*
X15886250Y-52538000D01*
X16045000Y-52379250D01*
X16045000Y-51738691D01*
X15948327Y-51505302D01*
X15769699Y-51326673D01*
X15536310Y-51230000D01*
X15195750Y-51230000D01*
X15037000Y-51388750D01*
X14783000Y-51388750D01*
X14624250Y-51230000D01*
X14283690Y-51230000D01*
X14050301Y-51326673D01*
X13871673Y-51505302D01*
X13775000Y-51738691D01*
X13385000Y-51738691D01*
X13385000Y-35170750D01*
X13775000Y-35170750D01*
X13775000Y-35811309D01*
X13871673Y-36044698D01*
X14050301Y-36223327D01*
X14283690Y-36320000D01*
X14624250Y-36320000D01*
X14783000Y-36161250D01*
X14783000Y-35012000D01*
X15037000Y-35012000D01*
X15037000Y-36161250D01*
X15195750Y-36320000D01*
X15536310Y-36320000D01*
X15769699Y-36223327D01*
X15948327Y-36044698D01*
X16045000Y-35811309D01*
X16045000Y-35170750D01*
X15886250Y-35012000D01*
X15037000Y-35012000D01*
X14783000Y-35012000D01*
X13933750Y-35012000D01*
X13775000Y-35170750D01*
X13385000Y-35170750D01*
X13385000Y-33958691D01*
X13775000Y-33958691D01*
X13775000Y-34599250D01*
X13933750Y-34758000D01*
X14783000Y-34758000D01*
X14783000Y-33608750D01*
X15037000Y-33608750D01*
X15037000Y-34758000D01*
X15886250Y-34758000D01*
X16045000Y-34599250D01*
X16045000Y-33958691D01*
X15948327Y-33725302D01*
X15769699Y-33546673D01*
X15536310Y-33450000D01*
X15195750Y-33450000D01*
X15037000Y-33608750D01*
X14783000Y-33608750D01*
X14624250Y-33450000D01*
X14283690Y-33450000D01*
X14050301Y-33546673D01*
X13871673Y-33725302D01*
X13775000Y-33958691D01*
X13385000Y-33958691D01*
X13385000Y-29085000D01*
X13762560Y-29085000D01*
X13762560Y-30685000D01*
X13806838Y-30920317D01*
X13945910Y-31136441D01*
X14158110Y-31281431D01*
X14410000Y-31332440D01*
X15410000Y-31332440D01*
X15645317Y-31288162D01*
X15861441Y-31149090D01*
X16006431Y-30936890D01*
X16057440Y-30685000D01*
X16057440Y-29644140D01*
X26706579Y-18995000D01*
X27308156Y-18995000D01*
X27350910Y-19061441D01*
X27563110Y-19206431D01*
X27815000Y-19257440D01*
X29415000Y-19257440D01*
X29650317Y-19213162D01*
X29866441Y-19074090D01*
X30011431Y-18861890D01*
X30062440Y-18610000D01*
X30062440Y-17610000D01*
X30018162Y-17374683D01*
X29879090Y-17158559D01*
X29666890Y-17013569D01*
X29415000Y-16962560D01*
X27815000Y-16962560D01*
X27579683Y-17006838D01*
X27363559Y-17145910D01*
X27309519Y-17225000D01*
X26340005Y-17225000D01*
X26340000Y-17224999D01*
X26057516Y-17281190D01*
X26001325Y-17292367D01*
X25714210Y-17484210D01*
X25714208Y-17484213D01*
X14760860Y-28437560D01*
X14410000Y-28437560D01*
X14174683Y-28481838D01*
X13958559Y-28620910D01*
X13813569Y-28833110D01*
X13762560Y-29085000D01*
X13385000Y-29085000D01*
X13385000Y-28815285D01*
X24280628Y-15195750D01*
X27180000Y-15195750D01*
X27180000Y-15536310D01*
X27276673Y-15769699D01*
X27455302Y-15948327D01*
X27688691Y-16045000D01*
X28329250Y-16045000D01*
X28488000Y-15886250D01*
X28488000Y-15037000D01*
X28742000Y-15037000D01*
X28742000Y-15886250D01*
X28900750Y-16045000D01*
X29541309Y-16045000D01*
X29774698Y-15948327D01*
X29953327Y-15769699D01*
X30050000Y-15536310D01*
X30050000Y-15195750D01*
X29891250Y-15037000D01*
X28742000Y-15037000D01*
X28488000Y-15037000D01*
X27338750Y-15037000D01*
X27180000Y-15195750D01*
X24280628Y-15195750D01*
X25010276Y-14283690D01*
X27180000Y-14283690D01*
X27180000Y-14624250D01*
X27338750Y-14783000D01*
X28488000Y-14783000D01*
X28488000Y-13933750D01*
X28742000Y-13933750D01*
X28742000Y-14783000D01*
X29891250Y-14783000D01*
X30050000Y-14624250D01*
X30050000Y-14283690D01*
X29953327Y-14050301D01*
X29774698Y-13871673D01*
X29541309Y-13775000D01*
X28900750Y-13775000D01*
X28742000Y-13933750D01*
X28488000Y-13933750D01*
X28329250Y-13775000D01*
X27688691Y-13775000D01*
X27455302Y-13871673D01*
X27276673Y-14050301D01*
X27180000Y-14283690D01*
X25010276Y-14283690D01*
X25729228Y-13385000D01*
X41028086Y-13385000D01*
X63062958Y-31642465D01*
X63062958Y-31642465D01*
G37*
X63062958Y-31642465D02*
X63152876Y-31691071D01*
X63237862Y-31747857D01*
X63269607Y-31754171D01*
X63298078Y-31769562D01*
X63399746Y-31780058D01*
X63500000Y-31800000D01*
X63531745Y-31793685D01*
X63563938Y-31797009D01*
X63661887Y-31767798D01*
X63762138Y-31747857D01*
X63789049Y-31729876D01*
X63820065Y-31720626D01*
X63899381Y-31656154D01*
X63984368Y-31599368D01*
X66323736Y-29260000D01*
X86076264Y-29260000D01*
X88415632Y-31599368D01*
X88500619Y-31656154D01*
X88579935Y-31720626D01*
X88610951Y-31729876D01*
X88637862Y-31747857D01*
X88738109Y-31767797D01*
X88836062Y-31797009D01*
X88868258Y-31793685D01*
X88900000Y-31799999D01*
X89000247Y-31780059D01*
X89101922Y-31769562D01*
X89130394Y-31754171D01*
X89162138Y-31747857D01*
X89247124Y-31691071D01*
X89337042Y-31642465D01*
X96167443Y-25982990D01*
X97078607Y-25982990D01*
X97154571Y-26223917D01*
X97316951Y-26417434D01*
X97373479Y-26484801D01*
X97597131Y-26504368D01*
X98440195Y-25796952D01*
X98835351Y-25796952D01*
X99381238Y-26447515D01*
X99604890Y-26467082D01*
X100095587Y-26055338D01*
X100212233Y-25831263D01*
X100234251Y-25579606D01*
X100158287Y-25338679D01*
X99995907Y-25145162D01*
X99939379Y-25077795D01*
X99715727Y-25058228D01*
X98835351Y-25796952D01*
X98440195Y-25796952D01*
X98477507Y-25765644D01*
X97931620Y-25115081D01*
X97707968Y-25095514D01*
X97217271Y-25507258D01*
X97100625Y-25731333D01*
X97078607Y-25982990D01*
X96167443Y-25982990D01*
X97411966Y-24951813D01*
X98126195Y-24951813D01*
X98672083Y-25602376D01*
X99552459Y-24863653D01*
X99572026Y-24640001D01*
X99515499Y-24572634D01*
X99353118Y-24379116D01*
X99129043Y-24262470D01*
X98877385Y-24240454D01*
X98636459Y-24316418D01*
X98145762Y-24728161D01*
X98126195Y-24951813D01*
X97411966Y-24951813D01*
X109186525Y-15195750D01*
X117350000Y-15195750D01*
X117350000Y-15536310D01*
X117446673Y-15769699D01*
X117625302Y-15948327D01*
X117858691Y-16045000D01*
X118499250Y-16045000D01*
X118658000Y-15886250D01*
X118658000Y-15037000D01*
X118912000Y-15037000D01*
X118912000Y-15886250D01*
X119070750Y-16045000D01*
X119711309Y-16045000D01*
X119944698Y-15948327D01*
X120123327Y-15769699D01*
X120220000Y-15536310D01*
X120220000Y-15195750D01*
X120061250Y-15037000D01*
X118912000Y-15037000D01*
X118658000Y-15037000D01*
X117508750Y-15037000D01*
X117350000Y-15195750D01*
X109186525Y-15195750D01*
X110287287Y-14283690D01*
X117350000Y-14283690D01*
X117350000Y-14624250D01*
X117508750Y-14783000D01*
X118658000Y-14783000D01*
X118658000Y-13933750D01*
X118912000Y-13933750D01*
X118912000Y-14783000D01*
X120061250Y-14783000D01*
X120220000Y-14624250D01*
X120220000Y-14283690D01*
X120123327Y-14050301D01*
X119944698Y-13871673D01*
X119711309Y-13775000D01*
X119070750Y-13775000D01*
X118912000Y-13933750D01*
X118658000Y-13933750D01*
X118499250Y-13775000D01*
X117858691Y-13775000D01*
X117625302Y-13871673D01*
X117446673Y-14050301D01*
X117350000Y-14283690D01*
X110287287Y-14283690D01*
X111371914Y-13385000D01*
X126670772Y-13385000D01*
X139015000Y-28815285D01*
X139015000Y-53734715D01*
X126670772Y-69165000D01*
X111371914Y-69165000D01*
X101290859Y-60812125D01*
X101956417Y-60812125D01*
X101975984Y-61035777D01*
X102466681Y-61447520D01*
X102707607Y-61523484D01*
X102959265Y-61501468D01*
X103183340Y-61384822D01*
X103345721Y-61191304D01*
X103402248Y-61123937D01*
X103382681Y-60900285D01*
X102502305Y-60161562D01*
X101956417Y-60812125D01*
X101290859Y-60812125D01*
X100046335Y-59780948D01*
X100908829Y-59780948D01*
X100930847Y-60032605D01*
X101047493Y-60256680D01*
X101538190Y-60668424D01*
X101761842Y-60648857D01*
X102307729Y-59998294D01*
X102270418Y-59966986D01*
X102665573Y-59966986D01*
X103545949Y-60705710D01*
X103769601Y-60686143D01*
X103826129Y-60618776D01*
X103988509Y-60425259D01*
X104064473Y-60184332D01*
X104042455Y-59932675D01*
X103925809Y-59708600D01*
X103435112Y-59296856D01*
X103211460Y-59316423D01*
X102665573Y-59966986D01*
X102270418Y-59966986D01*
X101427353Y-59259570D01*
X101203701Y-59279137D01*
X101147173Y-59346504D01*
X100984793Y-59540021D01*
X100908829Y-59780948D01*
X100046335Y-59780948D01*
X98912329Y-58841343D01*
X101571054Y-58841343D01*
X101590621Y-59064995D01*
X102470997Y-59803718D01*
X103016885Y-59153155D01*
X102997318Y-58929503D01*
X102506621Y-58517760D01*
X102265695Y-58441796D01*
X102014037Y-58463812D01*
X101789962Y-58580458D01*
X101627581Y-58773976D01*
X101571054Y-58841343D01*
X98912329Y-58841343D01*
X94569871Y-55243307D01*
X94703360Y-55269860D01*
X98160107Y-55269860D01*
X98070006Y-55295112D01*
X97869019Y-55455284D01*
X97226232Y-56221328D01*
X97108892Y-56430052D01*
X97076506Y-56685007D01*
X97145862Y-56932475D01*
X97306034Y-57133462D01*
X98531705Y-58161922D01*
X98740429Y-58279262D01*
X98995384Y-58311648D01*
X99242852Y-58242292D01*
X99443839Y-58082120D01*
X99976261Y-57447603D01*
X102963648Y-57447603D01*
X103033004Y-57695071D01*
X103193176Y-57896058D01*
X104418847Y-58924518D01*
X104627571Y-59041858D01*
X104828012Y-59067319D01*
X114026481Y-68265787D01*
X114026483Y-68265790D01*
X114313598Y-68457633D01*
X114652273Y-68525000D01*
X117478156Y-68525000D01*
X117520910Y-68591441D01*
X117733110Y-68736431D01*
X117985000Y-68787440D01*
X119585000Y-68787440D01*
X119820317Y-68743162D01*
X120036441Y-68604090D01*
X120181431Y-68391890D01*
X120232440Y-68140000D01*
X120232440Y-67925750D01*
X122350000Y-67925750D01*
X122350000Y-68266310D01*
X122446673Y-68499699D01*
X122625302Y-68678327D01*
X122858691Y-68775000D01*
X123499250Y-68775000D01*
X123658000Y-68616250D01*
X123658000Y-67767000D01*
X123912000Y-67767000D01*
X123912000Y-68616250D01*
X124070750Y-68775000D01*
X124711309Y-68775000D01*
X124944698Y-68678327D01*
X125123327Y-68499699D01*
X125220000Y-68266310D01*
X125220000Y-67925750D01*
X125061250Y-67767000D01*
X123912000Y-67767000D01*
X123658000Y-67767000D01*
X122508750Y-67767000D01*
X122350000Y-67925750D01*
X120232440Y-67925750D01*
X120232440Y-67140000D01*
X120208674Y-67013690D01*
X122350000Y-67013690D01*
X122350000Y-67354250D01*
X122508750Y-67513000D01*
X123658000Y-67513000D01*
X123658000Y-66663750D01*
X123912000Y-66663750D01*
X123912000Y-67513000D01*
X125061250Y-67513000D01*
X125220000Y-67354250D01*
X125220000Y-67013690D01*
X125123327Y-66780301D01*
X124944698Y-66601673D01*
X124711309Y-66505000D01*
X124070750Y-66505000D01*
X123912000Y-66663750D01*
X123658000Y-66663750D01*
X123499250Y-66505000D01*
X122858691Y-66505000D01*
X122625302Y-66601673D01*
X122446673Y-66780301D01*
X122350000Y-67013690D01*
X120208674Y-67013690D01*
X120188162Y-66904683D01*
X120049090Y-66688559D01*
X119836890Y-66543569D01*
X119585000Y-66492560D01*
X117985000Y-66492560D01*
X117749683Y-66536838D01*
X117533559Y-66675910D01*
X117479519Y-66755000D01*
X115018852Y-66755000D01*
X106095920Y-57832067D01*
X106123494Y-57614993D01*
X106054138Y-57367525D01*
X105893966Y-57166538D01*
X104668295Y-56138078D01*
X104459571Y-56020738D01*
X104204616Y-55988352D01*
X103957148Y-56057708D01*
X103756161Y-56217880D01*
X103113374Y-56983924D01*
X102996034Y-57192648D01*
X102963648Y-57447603D01*
X99976261Y-57447603D01*
X100086626Y-57316076D01*
X100203966Y-57107352D01*
X100236352Y-56852397D01*
X100166996Y-56604929D01*
X100006824Y-56403942D01*
X98781153Y-55375482D01*
X98593273Y-55269860D01*
X100063395Y-55269860D01*
X100588625Y-55710580D01*
X100797349Y-55827920D01*
X101052304Y-55860306D01*
X101299772Y-55790950D01*
X101500759Y-55630778D01*
X101860244Y-55202360D01*
X108295780Y-55202360D01*
X117337560Y-64244139D01*
X117337560Y-64940000D01*
X117381838Y-65175317D01*
X117520910Y-65391441D01*
X117733110Y-65536431D01*
X117985000Y-65587440D01*
X119585000Y-65587440D01*
X119820317Y-65543162D01*
X120036441Y-65404090D01*
X120181431Y-65191890D01*
X120232440Y-64940000D01*
X120232440Y-64534140D01*
X131216579Y-53550000D01*
X133158554Y-53550000D01*
X133186838Y-53700317D01*
X133325910Y-53916441D01*
X133538110Y-54061431D01*
X133790000Y-54112440D01*
X134790000Y-54112440D01*
X134791208Y-54112213D01*
X125348420Y-63555000D01*
X125091844Y-63555000D01*
X125049090Y-63488559D01*
X124836890Y-63343569D01*
X124585000Y-63292560D01*
X122985000Y-63292560D01*
X122749683Y-63336838D01*
X122533559Y-63475910D01*
X122388569Y-63688110D01*
X122337560Y-63940000D01*
X122337560Y-64940000D01*
X122381838Y-65175317D01*
X122520910Y-65391441D01*
X122733110Y-65536431D01*
X122985000Y-65587440D01*
X124585000Y-65587440D01*
X124820317Y-65543162D01*
X125036441Y-65404090D01*
X125090481Y-65325000D01*
X125714995Y-65325000D01*
X125715000Y-65325001D01*
X125997484Y-65268810D01*
X126053675Y-65257633D01*
X126340790Y-65065790D01*
X126340791Y-65065789D01*
X137294139Y-54112440D01*
X137990000Y-54112440D01*
X138225317Y-54068162D01*
X138441441Y-53929090D01*
X138586431Y-53716890D01*
X138637440Y-53465000D01*
X138637440Y-51865000D01*
X138593162Y-51629683D01*
X138454090Y-51413559D01*
X138241890Y-51268569D01*
X137990000Y-51217560D01*
X136990000Y-51217560D01*
X136754683Y-51261838D01*
X136538559Y-51400910D01*
X136393569Y-51613110D01*
X136342560Y-51865000D01*
X136342560Y-52560861D01*
X135437191Y-53466230D01*
X135437440Y-53465000D01*
X135437440Y-51865000D01*
X135393162Y-51629683D01*
X135254090Y-51413559D01*
X135041890Y-51268569D01*
X134790000Y-51217560D01*
X133790000Y-51217560D01*
X133554683Y-51261838D01*
X133371636Y-51379626D01*
X133532633Y-51138675D01*
X133551267Y-51044995D01*
X133600001Y-50800000D01*
X133600000Y-50799995D01*
X133600000Y-49073964D01*
X133790000Y-49112440D01*
X134790000Y-49112440D01*
X135025317Y-49068162D01*
X135241441Y-48929090D01*
X135386431Y-48716890D01*
X135437440Y-48465000D01*
X135437440Y-47950750D01*
X136355000Y-47950750D01*
X136355000Y-48591309D01*
X136451673Y-48824698D01*
X136630301Y-49003327D01*
X136863690Y-49100000D01*
X137204250Y-49100000D01*
X137363000Y-48941250D01*
X137363000Y-47792000D01*
X137617000Y-47792000D01*
X137617000Y-48941250D01*
X137775750Y-49100000D01*
X138116310Y-49100000D01*
X138349699Y-49003327D01*
X138528327Y-48824698D01*
X138625000Y-48591309D01*
X138625000Y-47950750D01*
X138466250Y-47792000D01*
X137617000Y-47792000D01*
X137363000Y-47792000D01*
X136513750Y-47792000D01*
X136355000Y-47950750D01*
X135437440Y-47950750D01*
X135437440Y-47769140D01*
X136355000Y-46851580D01*
X136355000Y-47379250D01*
X136513750Y-47538000D01*
X137363000Y-47538000D01*
X137363000Y-46388750D01*
X137617000Y-46388750D01*
X137617000Y-47538000D01*
X138466250Y-47538000D01*
X138625000Y-47379250D01*
X138625000Y-46738691D01*
X138528327Y-46505302D01*
X138349699Y-46326673D01*
X138116310Y-46230000D01*
X137775750Y-46230000D01*
X137617000Y-46388750D01*
X137363000Y-46388750D01*
X137204250Y-46230000D01*
X136976579Y-46230000D01*
X138115787Y-45090792D01*
X138115790Y-45090790D01*
X138307633Y-44803675D01*
X138375000Y-44465000D01*
X138375000Y-36191844D01*
X138441441Y-36149090D01*
X138586431Y-35936890D01*
X138637440Y-35685000D01*
X138637440Y-34085000D01*
X138593162Y-33849683D01*
X138454090Y-33633559D01*
X138241890Y-33488569D01*
X137990000Y-33437560D01*
X136990000Y-33437560D01*
X136754683Y-33481838D01*
X136538559Y-33620910D01*
X136393569Y-33833110D01*
X136342560Y-34085000D01*
X136342560Y-35685000D01*
X136342787Y-35686208D01*
X135437440Y-34780860D01*
X135437440Y-34085000D01*
X135393162Y-33849683D01*
X135254090Y-33633559D01*
X135175000Y-33579519D01*
X135175000Y-33325000D01*
X135107633Y-32986325D01*
X134915790Y-32699210D01*
X134915787Y-32699208D01*
X133411504Y-31194925D01*
X133538110Y-31281431D01*
X133790000Y-31332440D01*
X134790000Y-31332440D01*
X135025317Y-31288162D01*
X135241441Y-31149090D01*
X135386431Y-30936890D01*
X135437440Y-30685000D01*
X135437440Y-30170750D01*
X136355000Y-30170750D01*
X136355000Y-30811309D01*
X136451673Y-31044698D01*
X136630301Y-31223327D01*
X136863690Y-31320000D01*
X137204250Y-31320000D01*
X137363000Y-31161250D01*
X137363000Y-30012000D01*
X137617000Y-30012000D01*
X137617000Y-31161250D01*
X137775750Y-31320000D01*
X138116310Y-31320000D01*
X138349699Y-31223327D01*
X138528327Y-31044698D01*
X138625000Y-30811309D01*
X138625000Y-30170750D01*
X138466250Y-30012000D01*
X137617000Y-30012000D01*
X137363000Y-30012000D01*
X136513750Y-30012000D01*
X136355000Y-30170750D01*
X135437440Y-30170750D01*
X135437440Y-29085000D01*
X135413674Y-28958691D01*
X136355000Y-28958691D01*
X136355000Y-29599250D01*
X136513750Y-29758000D01*
X137363000Y-29758000D01*
X137363000Y-28608750D01*
X137617000Y-28608750D01*
X137617000Y-29758000D01*
X138466250Y-29758000D01*
X138625000Y-29599250D01*
X138625000Y-28958691D01*
X138528327Y-28725302D01*
X138349699Y-28546673D01*
X138116310Y-28450000D01*
X137775750Y-28450000D01*
X137617000Y-28608750D01*
X137363000Y-28608750D01*
X137204250Y-28450000D01*
X136863690Y-28450000D01*
X136630301Y-28546673D01*
X136451673Y-28725302D01*
X136355000Y-28958691D01*
X135413674Y-28958691D01*
X135393162Y-28849683D01*
X135254090Y-28633559D01*
X135175000Y-28579519D01*
X135175000Y-26975005D01*
X135175001Y-26975000D01*
X135107633Y-26636325D01*
X135090566Y-26610783D01*
X134915790Y-26349210D01*
X134915787Y-26349208D01*
X126615000Y-18048420D01*
X126615000Y-16855000D01*
X126547633Y-16516325D01*
X126355790Y-16229210D01*
X126355787Y-16229208D01*
X125232440Y-15105860D01*
X125232440Y-14410000D01*
X125188162Y-14174683D01*
X125049090Y-13958559D01*
X124836890Y-13813569D01*
X124585000Y-13762560D01*
X122985000Y-13762560D01*
X122749683Y-13806838D01*
X122533559Y-13945910D01*
X122388569Y-14158110D01*
X122337560Y-14410000D01*
X122337560Y-15410000D01*
X122381838Y-15645317D01*
X122520910Y-15861441D01*
X122733110Y-16006431D01*
X122985000Y-16057440D01*
X123680860Y-16057440D01*
X124586230Y-16962809D01*
X124585000Y-16962560D01*
X122985000Y-16962560D01*
X122749683Y-17006838D01*
X122533559Y-17145910D01*
X122479519Y-17225000D01*
X122225005Y-17225000D01*
X122225000Y-17224999D01*
X121942516Y-17281190D01*
X121886325Y-17292367D01*
X121599210Y-17484210D01*
X121599208Y-17484213D01*
X120094925Y-18988496D01*
X120181431Y-18861890D01*
X120232440Y-18610000D01*
X120232440Y-17610000D01*
X120188162Y-17374683D01*
X120049090Y-17158559D01*
X119836890Y-17013569D01*
X119585000Y-16962560D01*
X117985000Y-16962560D01*
X117749683Y-17006838D01*
X117533559Y-17145910D01*
X117388569Y-17358110D01*
X117337560Y-17610000D01*
X117337560Y-17935861D01*
X114309210Y-20964210D01*
X114309208Y-20964213D01*
X113966850Y-21306570D01*
X113966849Y-21306572D01*
X113591060Y-21682360D01*
X103633546Y-21682360D01*
X103274061Y-21253942D01*
X103088883Y-21102140D01*
X102843426Y-21025973D01*
X102587674Y-21051303D01*
X102361927Y-21174140D01*
X101136256Y-22202600D01*
X100984454Y-22387778D01*
X100908287Y-22633235D01*
X100933617Y-22888987D01*
X101056454Y-23114734D01*
X101699241Y-23880778D01*
X101884419Y-24032580D01*
X102129876Y-24108747D01*
X102385628Y-24083417D01*
X102611375Y-23960580D01*
X103217048Y-23452360D01*
X113957635Y-23452360D01*
X113957640Y-23452361D01*
X114240124Y-23396170D01*
X114296315Y-23384993D01*
X114583430Y-23193150D01*
X115218428Y-22558151D01*
X115218430Y-22558150D01*
X115560787Y-22215792D01*
X115560790Y-22215790D01*
X118519139Y-19257440D01*
X119585000Y-19257440D01*
X119820317Y-19213162D01*
X119960399Y-19123022D01*
X115579210Y-23504210D01*
X115579208Y-23504213D01*
X115325508Y-23757912D01*
X115325507Y-23757914D01*
X114949718Y-24133702D01*
X105690466Y-24133702D01*
X105330981Y-23705284D01*
X105145803Y-23553482D01*
X104900346Y-23477315D01*
X104644594Y-23502645D01*
X104418847Y-23625482D01*
X103193176Y-24653942D01*
X103041374Y-24839120D01*
X102965207Y-25084577D01*
X102990537Y-25340329D01*
X103113374Y-25566076D01*
X103591071Y-26135373D01*
X103591071Y-26633891D01*
X102270669Y-27954293D01*
X102266383Y-27911013D01*
X102143546Y-27685266D01*
X101500759Y-26919222D01*
X101315581Y-26767420D01*
X101070124Y-26691253D01*
X100814372Y-26716583D01*
X100588625Y-26839420D01*
X100063395Y-27280140D01*
X98568686Y-27280140D01*
X98676399Y-27246178D01*
X99167096Y-26834435D01*
X99186663Y-26610783D01*
X98640775Y-25960220D01*
X97760399Y-26698943D01*
X97740832Y-26922595D01*
X97797359Y-26989962D01*
X97959740Y-27183480D01*
X98145422Y-27280140D01*
X96989360Y-27280140D01*
X96650016Y-27347640D01*
X96624854Y-27352645D01*
X96315840Y-27559121D01*
X91807462Y-32067500D01*
X80518000Y-32067500D01*
X80153494Y-32140005D01*
X79844481Y-32346481D01*
X78026481Y-34164481D01*
X77820005Y-34473494D01*
X77747500Y-34838000D01*
X77747500Y-37921255D01*
X77664683Y-37936838D01*
X77448559Y-38075910D01*
X77303569Y-38288110D01*
X77252560Y-38540000D01*
X77252560Y-39540000D01*
X77296838Y-39775317D01*
X77435910Y-39991441D01*
X77648110Y-40136431D01*
X77900000Y-40187440D01*
X78607522Y-40187440D01*
X78026481Y-40768481D01*
X77820005Y-41077494D01*
X77813781Y-41108783D01*
X77664683Y-41136838D01*
X77448559Y-41275910D01*
X77303569Y-41488110D01*
X77252560Y-41740000D01*
X77252560Y-42145861D01*
X76468420Y-42930000D01*
X75108964Y-42930000D01*
X75147440Y-42740000D01*
X75147440Y-41740000D01*
X75103162Y-41504683D01*
X74964090Y-41288559D01*
X74751890Y-41143569D01*
X74500000Y-41092560D01*
X72900000Y-41092560D01*
X72664683Y-41136838D01*
X72448559Y-41275910D01*
X72394519Y-41355000D01*
X70568852Y-41355000D01*
X68539603Y-39325750D01*
X72265000Y-39325750D01*
X72265000Y-39666310D01*
X72361673Y-39899699D01*
X72540302Y-40078327D01*
X72773691Y-40175000D01*
X73414250Y-40175000D01*
X73573000Y-40016250D01*
X73573000Y-39167000D01*
X73827000Y-39167000D01*
X73827000Y-40016250D01*
X73985750Y-40175000D01*
X74626309Y-40175000D01*
X74859698Y-40078327D01*
X75038327Y-39899699D01*
X75135000Y-39666310D01*
X75135000Y-39325750D01*
X74976250Y-39167000D01*
X73827000Y-39167000D01*
X73573000Y-39167000D01*
X72423750Y-39167000D01*
X72265000Y-39325750D01*
X68539603Y-39325750D01*
X67627543Y-38413690D01*
X72265000Y-38413690D01*
X72265000Y-38754250D01*
X72423750Y-38913000D01*
X73573000Y-38913000D01*
X73573000Y-38063750D01*
X73827000Y-38063750D01*
X73827000Y-38913000D01*
X74976250Y-38913000D01*
X75135000Y-38754250D01*
X75135000Y-38413690D01*
X75038327Y-38180301D01*
X74859698Y-38001673D01*
X74626309Y-37905000D01*
X73985750Y-37905000D01*
X73827000Y-38063750D01*
X73573000Y-38063750D01*
X73414250Y-37905000D01*
X72773691Y-37905000D01*
X72540302Y-38001673D01*
X72361673Y-38180301D01*
X72265000Y-38413690D01*
X67627543Y-38413690D01*
X55295920Y-26082067D01*
X55323494Y-25864993D01*
X55254138Y-25617525D01*
X55093966Y-25416538D01*
X53868295Y-24388078D01*
X53659571Y-24270738D01*
X53404616Y-24238352D01*
X53157148Y-24307708D01*
X52956161Y-24467880D01*
X52313374Y-25233924D01*
X52196034Y-25442648D01*
X52163648Y-25697603D01*
X52233004Y-25945071D01*
X52393176Y-26146058D01*
X53618847Y-27174518D01*
X53827571Y-27291858D01*
X54028012Y-27317319D01*
X69576481Y-42865787D01*
X69576483Y-42865790D01*
X69672581Y-42930000D01*
X67635590Y-42930000D01*
X55119740Y-30414149D01*
X54927519Y-30126470D01*
X54836402Y-30065587D01*
X54775519Y-29974470D01*
X53249759Y-28448710D01*
X53266574Y-28316335D01*
X53197218Y-28068867D01*
X53037046Y-27867880D01*
X51811375Y-26839420D01*
X51602651Y-26722080D01*
X51347696Y-26689694D01*
X51100228Y-26759050D01*
X50899241Y-26919222D01*
X50539756Y-27347640D01*
X49554219Y-27347640D01*
X48585328Y-26378749D01*
X48643839Y-26332120D01*
X49286626Y-25566076D01*
X49403966Y-25357352D01*
X49436352Y-25102397D01*
X49366996Y-24854929D01*
X49206824Y-24653942D01*
X48741429Y-24263429D01*
X48741429Y-23396845D01*
X49383115Y-23396845D01*
X49402682Y-23620497D01*
X49893379Y-24032240D01*
X50134305Y-24108204D01*
X50385963Y-24086188D01*
X50610038Y-23969542D01*
X50772419Y-23776024D01*
X50828946Y-23708657D01*
X50809379Y-23485005D01*
X49929003Y-22746282D01*
X49383115Y-23396845D01*
X48741429Y-23396845D01*
X48741429Y-23065639D01*
X48964888Y-23253144D01*
X49188540Y-23233577D01*
X49734427Y-22583014D01*
X49697116Y-22551706D01*
X50092271Y-22551706D01*
X50972647Y-23290430D01*
X51196299Y-23270863D01*
X51252827Y-23203496D01*
X51415207Y-23009979D01*
X51491171Y-22769052D01*
X51469153Y-22517395D01*
X51352507Y-22293320D01*
X50861810Y-21881576D01*
X50638158Y-21901143D01*
X50092271Y-22551706D01*
X49697116Y-22551706D01*
X48854051Y-21844290D01*
X48630399Y-21863857D01*
X48573871Y-21931224D01*
X48560263Y-21947442D01*
X48556340Y-21941570D01*
X48482219Y-21830639D01*
X48482216Y-21830637D01*
X48077643Y-21426063D01*
X48997752Y-21426063D01*
X49017319Y-21649715D01*
X49897695Y-22388438D01*
X50443583Y-21737875D01*
X50424016Y-21514223D01*
X49933319Y-21102480D01*
X49692393Y-21026516D01*
X49440735Y-21048532D01*
X49216660Y-21165178D01*
X49054279Y-21358696D01*
X48997752Y-21426063D01*
X48077643Y-21426063D01*
X40935790Y-14284210D01*
X40771870Y-14174683D01*
X40648675Y-14092367D01*
X40592484Y-14081190D01*
X40310000Y-14024999D01*
X40309995Y-14025000D01*
X34921844Y-14025000D01*
X34879090Y-13958559D01*
X34666890Y-13813569D01*
X34415000Y-13762560D01*
X32815000Y-13762560D01*
X32579683Y-13806838D01*
X32363559Y-13945910D01*
X32218569Y-14158110D01*
X32167560Y-14410000D01*
X32167560Y-15410000D01*
X32211838Y-15645317D01*
X32350910Y-15861441D01*
X32563110Y-16006431D01*
X32815000Y-16057440D01*
X34415000Y-16057440D01*
X34650317Y-16013162D01*
X34866441Y-15874090D01*
X34920481Y-15795000D01*
X39943420Y-15795000D01*
X46971429Y-22823008D01*
X46971429Y-23821587D01*
X46541060Y-24334481D01*
X41583290Y-19376710D01*
X41583287Y-19376708D01*
X39690790Y-17484210D01*
X39526870Y-17374683D01*
X39403675Y-17292367D01*
X39347484Y-17281190D01*
X39065000Y-17224999D01*
X39064995Y-17225000D01*
X34921844Y-17225000D01*
X34879090Y-17158559D01*
X34666890Y-17013569D01*
X34415000Y-16962560D01*
X32815000Y-16962560D01*
X32579683Y-17006838D01*
X32363559Y-17145910D01*
X32218569Y-17358110D01*
X32167560Y-17610000D01*
X32167560Y-18015861D01*
X30748420Y-19435000D01*
X27675005Y-19435000D01*
X27675000Y-19434999D01*
X27392516Y-19491190D01*
X27336325Y-19502367D01*
X27049210Y-19694210D01*
X27049208Y-19694213D01*
X18305860Y-28437560D01*
X17610000Y-28437560D01*
X17374683Y-28481838D01*
X17158559Y-28620910D01*
X17013569Y-28833110D01*
X16962560Y-29085000D01*
X16962560Y-30685000D01*
X17006838Y-30920317D01*
X17145910Y-31136441D01*
X17358110Y-31281431D01*
X17610000Y-31332440D01*
X18047402Y-31332440D01*
X18351500Y-31636538D01*
X18351500Y-33437560D01*
X17610000Y-33437560D01*
X17374683Y-33481838D01*
X17158559Y-33620910D01*
X17013569Y-33833110D01*
X16962560Y-34085000D01*
X16962560Y-35685000D01*
X17006838Y-35920317D01*
X17145910Y-36136441D01*
X17225000Y-36190481D01*
X17225000Y-44098421D01*
X15105860Y-46217560D01*
X14410000Y-46217560D01*
X14174683Y-46261838D01*
X13958559Y-46400910D01*
X13813569Y-46613110D01*
X13762560Y-46865000D01*
X13762560Y-48465000D01*
X13806838Y-48700317D01*
X13945910Y-48916441D01*
X14158110Y-49061431D01*
X14410000Y-49112440D01*
X15410000Y-49112440D01*
X15645317Y-49068162D01*
X15861441Y-48929090D01*
X16006431Y-48716890D01*
X16057440Y-48465000D01*
X16057440Y-47769140D01*
X16962809Y-46863771D01*
X16962560Y-46865000D01*
X16962560Y-48465000D01*
X17006838Y-48700317D01*
X17145910Y-48916441D01*
X17358110Y-49061431D01*
X17384664Y-49066808D01*
X17453961Y-49170519D01*
X17484210Y-49215790D01*
X19435000Y-51166579D01*
X19435000Y-56144995D01*
X19434999Y-56145000D01*
X19486507Y-56403942D01*
X19502367Y-56483675D01*
X19682355Y-56753048D01*
X19694210Y-56770790D01*
X27167560Y-64244139D01*
X27167560Y-64940000D01*
X27167787Y-64941208D01*
X18995000Y-56768420D01*
X18995000Y-53971844D01*
X19061441Y-53929090D01*
X19206431Y-53716890D01*
X19257440Y-53465000D01*
X19257440Y-51865000D01*
X19213162Y-51629683D01*
X19074090Y-51413559D01*
X18861890Y-51268569D01*
X18610000Y-51217560D01*
X17610000Y-51217560D01*
X17374683Y-51261838D01*
X17158559Y-51400910D01*
X17013569Y-51613110D01*
X16962560Y-51865000D01*
X16962560Y-53465000D01*
X17006838Y-53700317D01*
X17145910Y-53916441D01*
X17225000Y-53970481D01*
X17225000Y-57134995D01*
X17224999Y-57135000D01*
X17271252Y-57367525D01*
X17292367Y-57473675D01*
X17484210Y-57760790D01*
X27167560Y-67444139D01*
X27167560Y-68140000D01*
X27211838Y-68375317D01*
X27350910Y-68591441D01*
X27563110Y-68736431D01*
X27815000Y-68787440D01*
X29415000Y-68787440D01*
X29650317Y-68743162D01*
X29866441Y-68604090D01*
X30011431Y-68391890D01*
X30062440Y-68140000D01*
X30062440Y-67925750D01*
X32180000Y-67925750D01*
X32180000Y-68266310D01*
X32276673Y-68499699D01*
X32455302Y-68678327D01*
X32688691Y-68775000D01*
X33329250Y-68775000D01*
X33488000Y-68616250D01*
X33488000Y-67767000D01*
X33742000Y-67767000D01*
X33742000Y-68616250D01*
X33900750Y-68775000D01*
X34541309Y-68775000D01*
X34774698Y-68678327D01*
X34953327Y-68499699D01*
X35050000Y-68266310D01*
X35050000Y-67925750D01*
X34891250Y-67767000D01*
X33742000Y-67767000D01*
X33488000Y-67767000D01*
X32338750Y-67767000D01*
X32180000Y-67925750D01*
X30062440Y-67925750D01*
X30062440Y-67140000D01*
X30038674Y-67013690D01*
X32180000Y-67013690D01*
X32180000Y-67354250D01*
X32338750Y-67513000D01*
X33488000Y-67513000D01*
X33488000Y-66663750D01*
X33742000Y-66663750D01*
X33742000Y-67513000D01*
X34891250Y-67513000D01*
X35050000Y-67354250D01*
X35050000Y-67013690D01*
X34953327Y-66780301D01*
X34774698Y-66601673D01*
X34541309Y-66505000D01*
X33900750Y-66505000D01*
X33742000Y-66663750D01*
X33488000Y-66663750D01*
X33329250Y-66505000D01*
X32688691Y-66505000D01*
X32455302Y-66601673D01*
X32276673Y-66780301D01*
X32180000Y-67013690D01*
X30038674Y-67013690D01*
X30018162Y-66904683D01*
X29879090Y-66688559D01*
X29666890Y-66543569D01*
X29415000Y-66492560D01*
X28719139Y-66492560D01*
X27813770Y-65587191D01*
X27815000Y-65587440D01*
X29415000Y-65587440D01*
X29650317Y-65543162D01*
X29866441Y-65404090D01*
X30011431Y-65191890D01*
X30062440Y-64940000D01*
X30062440Y-64534140D01*
X30656579Y-63940000D01*
X32167560Y-63940000D01*
X32167560Y-64940000D01*
X32211838Y-65175317D01*
X32350910Y-65391441D01*
X32563110Y-65536431D01*
X32815000Y-65587440D01*
X34415000Y-65587440D01*
X34650317Y-65543162D01*
X34866441Y-65404090D01*
X34920481Y-65325000D01*
X43509995Y-65325000D01*
X43510000Y-65325001D01*
X43792484Y-65268810D01*
X43848675Y-65257633D01*
X44135790Y-65065790D01*
X44135791Y-65065789D01*
X48333939Y-60867640D01*
X48766454Y-60867640D01*
X49125939Y-61296058D01*
X49311117Y-61447860D01*
X49556574Y-61524027D01*
X49812326Y-61498697D01*
X50038073Y-61375860D01*
X51263744Y-60347400D01*
X51415546Y-60162222D01*
X51491713Y-59916765D01*
X51466383Y-59661013D01*
X51343546Y-59435266D01*
X50700759Y-58669222D01*
X50515581Y-58517420D01*
X50270124Y-58441253D01*
X50014372Y-58466583D01*
X49788625Y-58589420D01*
X49182952Y-59097640D01*
X47967365Y-59097640D01*
X47967360Y-59097639D01*
X47688269Y-59153155D01*
X47628685Y-59165007D01*
X47341570Y-59356850D01*
X47341568Y-59356853D01*
X43143420Y-63555000D01*
X34921844Y-63555000D01*
X34879090Y-63488559D01*
X34666890Y-63343569D01*
X34415000Y-63292560D01*
X32815000Y-63292560D01*
X32579683Y-63336838D01*
X32363559Y-63475910D01*
X32218569Y-63688110D01*
X32167560Y-63940000D01*
X30656579Y-63940000D01*
X32116579Y-62480000D01*
X43792722Y-62480000D01*
X43792727Y-62480001D01*
X44075211Y-62423810D01*
X44131402Y-62412633D01*
X44418517Y-62220790D01*
X44418518Y-62220789D01*
X47573983Y-59065323D01*
X47755406Y-59047355D01*
X47981153Y-58924518D01*
X49190209Y-57909999D01*
X52827974Y-57909999D01*
X52884501Y-57977366D01*
X53046882Y-58170884D01*
X53270957Y-58287530D01*
X53522615Y-58309546D01*
X53763541Y-58233582D01*
X54254238Y-57821839D01*
X54273805Y-57598187D01*
X53727917Y-56947624D01*
X52847541Y-57686347D01*
X52827974Y-57909999D01*
X49190209Y-57909999D01*
X49206824Y-57896058D01*
X49358626Y-57710880D01*
X49434793Y-57465423D01*
X49409463Y-57209671D01*
X49286626Y-56983924D01*
X49275273Y-56970394D01*
X52165749Y-56970394D01*
X52241713Y-57211321D01*
X52404093Y-57404838D01*
X52460621Y-57472205D01*
X52684273Y-57491772D01*
X53527337Y-56784356D01*
X53922493Y-56784356D01*
X54468380Y-57434919D01*
X54692032Y-57454486D01*
X55182729Y-57042742D01*
X55299375Y-56818667D01*
X55321393Y-56567010D01*
X55245429Y-56326083D01*
X55083049Y-56132566D01*
X55026521Y-56065199D01*
X54802869Y-56045632D01*
X53922493Y-56784356D01*
X53527337Y-56784356D01*
X53564649Y-56753048D01*
X53018762Y-56102485D01*
X52795110Y-56082918D01*
X52304413Y-56494662D01*
X52187767Y-56718737D01*
X52165749Y-56970394D01*
X49275273Y-56970394D01*
X48643839Y-56217880D01*
X48458661Y-56066078D01*
X48213204Y-55989911D01*
X47957452Y-56015241D01*
X47731705Y-56138078D01*
X46506034Y-57166538D01*
X46354232Y-57351716D01*
X46278065Y-57597173D01*
X46301577Y-57834571D01*
X43426147Y-60710000D01*
X31750005Y-60710000D01*
X31750000Y-60709999D01*
X31411326Y-60777366D01*
X31316054Y-60841025D01*
X31124210Y-60969210D01*
X31124208Y-60969213D01*
X28800860Y-63292560D01*
X28719139Y-63292560D01*
X21365797Y-55939217D01*
X53213337Y-55939217D01*
X53759225Y-56589780D01*
X54639601Y-55851057D01*
X54659168Y-55627405D01*
X54602641Y-55560038D01*
X54440260Y-55366520D01*
X54216185Y-55249874D01*
X53964527Y-55227858D01*
X53723601Y-55303822D01*
X53232904Y-55715565D01*
X53213337Y-55939217D01*
X21365797Y-55939217D01*
X21205000Y-55778420D01*
X21205000Y-53397630D01*
X21686185Y-53878816D01*
X21834377Y-53977834D01*
X21933395Y-54043996D01*
X22225000Y-54102000D01*
X41275000Y-54102000D01*
X41566605Y-54043996D01*
X41813815Y-53878815D01*
X43068506Y-52624125D01*
X43111167Y-52624162D01*
X43454943Y-52482117D01*
X43718192Y-52219327D01*
X43860838Y-51875799D01*
X43861162Y-51503833D01*
X43719117Y-51160057D01*
X43456327Y-50896808D01*
X43361519Y-50857440D01*
X43475000Y-50857440D01*
X43710317Y-50813162D01*
X43926441Y-50674090D01*
X43927390Y-50672701D01*
X44040000Y-50749644D01*
X44040000Y-52544995D01*
X44039999Y-52545000D01*
X44096190Y-52827484D01*
X44107367Y-52883675D01*
X44251910Y-53100000D01*
X44299210Y-53170790D01*
X46071568Y-54943147D01*
X46071570Y-54943150D01*
X46263414Y-55071335D01*
X46358686Y-55134994D01*
X46697360Y-55202361D01*
X46697365Y-55202360D01*
X50539756Y-55202360D01*
X50899241Y-55630778D01*
X51084419Y-55782580D01*
X51329876Y-55858747D01*
X51585628Y-55833417D01*
X51811375Y-55710580D01*
X53037046Y-54682120D01*
X53188848Y-54496942D01*
X53265015Y-54251485D01*
X53239685Y-53995733D01*
X53116848Y-53769986D01*
X52474061Y-53003942D01*
X52288883Y-52852140D01*
X52043426Y-52775973D01*
X51787674Y-52801303D01*
X51561927Y-52924140D01*
X50956254Y-53432360D01*
X47063939Y-53432360D01*
X45810000Y-52178420D01*
X45810000Y-50749018D01*
X45926441Y-50674090D01*
X45927390Y-50672701D01*
X46123110Y-50806431D01*
X46375000Y-50857440D01*
X47475000Y-50857440D01*
X47710317Y-50813162D01*
X47926441Y-50674090D01*
X47927390Y-50672701D01*
X48123110Y-50806431D01*
X48375000Y-50857440D01*
X49475000Y-50857440D01*
X49710317Y-50813162D01*
X49926441Y-50674090D01*
X50071431Y-50461890D01*
X50122440Y-50210000D01*
X50122440Y-49212500D01*
X54876000Y-49212500D01*
X55240506Y-49139995D01*
X55549519Y-48933519D01*
X56788704Y-47694334D01*
X57004185Y-47909815D01*
X57251395Y-48074996D01*
X57543000Y-48133000D01*
X59291279Y-48133000D01*
X59404883Y-48407943D01*
X59667673Y-48671192D01*
X60011201Y-48813838D01*
X60383167Y-48814162D01*
X60726943Y-48672117D01*
X60990192Y-48409327D01*
X61104934Y-48133000D01*
X62484000Y-48133000D01*
X62775605Y-48074996D01*
X63022815Y-47909815D01*
X63391816Y-47540815D01*
X63519276Y-47350057D01*
X63556996Y-47293605D01*
X63564924Y-47253747D01*
X63699431Y-47056890D01*
X63750440Y-46805000D01*
X63750440Y-45905000D01*
X63706162Y-45669683D01*
X63657566Y-45594162D01*
X63699431Y-45532890D01*
X63750440Y-45281000D01*
X63750440Y-44381000D01*
X63706162Y-44145683D01*
X63567090Y-43929559D01*
X63354890Y-43784569D01*
X63103000Y-43733560D01*
X62603000Y-43733560D01*
X62367683Y-43777838D01*
X62151559Y-43916910D01*
X62103866Y-43986711D01*
X62067090Y-43929559D01*
X61922952Y-43831073D01*
X62092327Y-43661699D01*
X62189000Y-43428310D01*
X62189000Y-41687750D01*
X62030250Y-41529000D01*
X60681000Y-41529000D01*
X60681000Y-43778250D01*
X60753842Y-43851092D01*
X60651559Y-43916910D01*
X60603645Y-43987035D01*
X60384799Y-43896162D01*
X60309154Y-43896096D01*
X60427000Y-43778250D01*
X60427000Y-41529000D01*
X59077750Y-41529000D01*
X58919000Y-41687750D01*
X58919000Y-43428310D01*
X59015673Y-43661699D01*
X59194302Y-43840327D01*
X59427691Y-43937000D01*
X59913213Y-43937000D01*
X59669057Y-44037883D01*
X59405808Y-44300673D01*
X59263162Y-44644201D01*
X59262838Y-45016167D01*
X59404883Y-45359943D01*
X59637709Y-45593176D01*
X59405808Y-45824673D01*
X59263162Y-46168201D01*
X59262838Y-46540167D01*
X59291279Y-46609000D01*
X58007000Y-46609000D01*
X58007000Y-46355000D01*
X58027000Y-46355000D01*
X58027000Y-45630750D01*
X58281000Y-45630750D01*
X58281000Y-46355000D01*
X59030250Y-46355000D01*
X59189000Y-46196250D01*
X59189000Y-45980690D01*
X59092327Y-45747301D01*
X58913698Y-45568673D01*
X58680309Y-45472000D01*
X58439750Y-45472000D01*
X58281000Y-45630750D01*
X58027000Y-45630750D01*
X57868250Y-45472000D01*
X57627691Y-45472000D01*
X57415363Y-45559949D01*
X57327520Y-45428481D01*
X55901440Y-44002402D01*
X55901440Y-42952000D01*
X55857162Y-42716683D01*
X55751518Y-42552508D01*
X55792327Y-42511699D01*
X55889000Y-42278310D01*
X55889000Y-41687750D01*
X55730250Y-41529000D01*
X54381000Y-41529000D01*
X54381000Y-41549000D01*
X54127000Y-41549000D01*
X54127000Y-41529000D01*
X52777750Y-41529000D01*
X52619000Y-41687750D01*
X52619000Y-42278310D01*
X52715673Y-42511699D01*
X52757634Y-42553660D01*
X52657569Y-42700110D01*
X52606560Y-42952000D01*
X52606560Y-44452000D01*
X52650838Y-44687317D01*
X52789910Y-44903441D01*
X53002110Y-45048431D01*
X53254000Y-45099440D01*
X54304402Y-45099440D01*
X55496962Y-46292000D01*
X54481462Y-47307500D01*
X52290061Y-47307500D01*
X52326441Y-47284090D01*
X52471431Y-47071890D01*
X52522440Y-46820000D01*
X52522440Y-45720000D01*
X52478162Y-45484683D01*
X52339090Y-45268559D01*
X52337701Y-45267610D01*
X52471431Y-45071890D01*
X52522440Y-44820000D01*
X52522440Y-43720000D01*
X52478162Y-43484683D01*
X52339090Y-43268559D01*
X52337701Y-43267610D01*
X52471431Y-43071890D01*
X52522440Y-42820000D01*
X52522440Y-41720000D01*
X52478162Y-41484683D01*
X52339090Y-41268559D01*
X52337701Y-41267610D01*
X52471431Y-41071890D01*
X52522440Y-40820000D01*
X52522440Y-39720000D01*
X52478162Y-39484683D01*
X52339090Y-39268559D01*
X52337701Y-39267610D01*
X52471431Y-39071890D01*
X52522440Y-38820000D01*
X52522440Y-37720000D01*
X52478162Y-37484683D01*
X52339090Y-37268559D01*
X52337701Y-37267610D01*
X52471431Y-37071890D01*
X52522440Y-36820000D01*
X52522440Y-35720000D01*
X52478162Y-35484683D01*
X52339090Y-35268559D01*
X52126890Y-35123569D01*
X51875000Y-35072560D01*
X50053563Y-35072560D01*
X50110000Y-34936309D01*
X50110000Y-33845750D01*
X49951250Y-33687000D01*
X49052000Y-33687000D01*
X49052000Y-33707000D01*
X48798000Y-33707000D01*
X48798000Y-33687000D01*
X48778000Y-33687000D01*
X48778000Y-33433000D01*
X48798000Y-33433000D01*
X48798000Y-33413000D01*
X49052000Y-33413000D01*
X49052000Y-33433000D01*
X49951250Y-33433000D01*
X50110000Y-33274250D01*
X50110000Y-32183691D01*
X50013327Y-31950302D01*
X49834699Y-31771673D01*
X49601310Y-31675000D01*
X49413025Y-31675000D01*
X49544327Y-31543699D01*
X49641000Y-31310310D01*
X49641000Y-31019750D01*
X49482250Y-30861000D01*
X48881000Y-30861000D01*
X48881000Y-30881000D01*
X48631000Y-30881000D01*
X48631000Y-30861000D01*
X48609000Y-30861000D01*
X48609000Y-30607000D01*
X48631000Y-30607000D01*
X48631000Y-29807750D01*
X48881000Y-29807750D01*
X48881000Y-30607000D01*
X49482250Y-30607000D01*
X49641000Y-30448250D01*
X49641000Y-30157690D01*
X49544327Y-29924301D01*
X49365698Y-29745673D01*
X49132309Y-29649000D01*
X49039750Y-29649000D01*
X48881000Y-29807750D01*
X48631000Y-29807750D01*
X48472250Y-29649000D01*
X48379691Y-29649000D01*
X48146302Y-29745673D01*
X48005064Y-29886910D01*
X47970090Y-29832559D01*
X47757890Y-29687569D01*
X47506000Y-29636560D01*
X47006000Y-29636560D01*
X46770683Y-29680838D01*
X46554559Y-29819910D01*
X46409569Y-30032110D01*
X46358560Y-30284000D01*
X46358560Y-30567529D01*
X46221004Y-30773395D01*
X46163000Y-31065000D01*
X46163000Y-31702451D01*
X46139683Y-31706838D01*
X45923559Y-31845910D01*
X45922610Y-31847299D01*
X45726890Y-31713569D01*
X45687000Y-31705491D01*
X45687000Y-31475000D01*
X45628996Y-31183395D01*
X45537194Y-31046004D01*
X45463815Y-30936184D01*
X45081440Y-30553810D01*
X45081440Y-30284000D01*
X45037162Y-30048683D01*
X44898090Y-29832559D01*
X44685890Y-29687569D01*
X44434000Y-29636560D01*
X43934000Y-29636560D01*
X43698683Y-29680838D01*
X43482559Y-29819910D01*
X43434866Y-29889711D01*
X43398090Y-29832559D01*
X43185890Y-29687569D01*
X42934000Y-29636560D01*
X42434000Y-29636560D01*
X42198683Y-29680838D01*
X41982559Y-29819910D01*
X41878640Y-29972000D01*
X25146000Y-29972000D01*
X24854395Y-30030004D01*
X24607185Y-30195185D01*
X20416185Y-34386185D01*
X20256500Y-34625170D01*
X20256500Y-31242000D01*
X20183995Y-30877494D01*
X19977519Y-30568481D01*
X19332374Y-29923336D01*
X19334642Y-29911938D01*
X28041579Y-21205000D01*
X31114995Y-21205000D01*
X31115000Y-21205001D01*
X31397484Y-21148810D01*
X31453675Y-21137633D01*
X31740790Y-20945790D01*
X31740791Y-20945789D01*
X33429139Y-19257440D01*
X34415000Y-19257440D01*
X34650317Y-19213162D01*
X34866441Y-19074090D01*
X34920481Y-18995000D01*
X38698420Y-18995000D01*
X40331708Y-20628287D01*
X40331710Y-20628290D01*
X48561848Y-28858427D01*
X48561850Y-28858430D01*
X48711902Y-28958691D01*
X48848966Y-29050274D01*
X49187640Y-29117641D01*
X49187645Y-29117640D01*
X50956254Y-29117640D01*
X51561927Y-29625860D01*
X51770651Y-29743200D01*
X51861744Y-29754771D01*
X53301500Y-31194527D01*
X53301500Y-37704560D01*
X53254000Y-37704560D01*
X53018683Y-37748838D01*
X52802559Y-37887910D01*
X52657569Y-38100110D01*
X52606560Y-38352000D01*
X52606560Y-39852000D01*
X52650838Y-40087317D01*
X52756482Y-40251492D01*
X52715673Y-40292301D01*
X52619000Y-40525690D01*
X52619000Y-41116250D01*
X52777750Y-41275000D01*
X54127000Y-41275000D01*
X54127000Y-41255000D01*
X54381000Y-41255000D01*
X54381000Y-41275000D01*
X55730250Y-41275000D01*
X55889000Y-41116250D01*
X55889000Y-40525690D01*
X55792327Y-40292301D01*
X55750366Y-40250340D01*
X55850431Y-40103890D01*
X55901440Y-39852000D01*
X55901440Y-39375690D01*
X58919000Y-39375690D01*
X58919000Y-41116250D01*
X59077750Y-41275000D01*
X60427000Y-41275000D01*
X60427000Y-39025750D01*
X60268250Y-38867000D01*
X59427691Y-38867000D01*
X59194302Y-38963673D01*
X59015673Y-39142301D01*
X58919000Y-39375690D01*
X55901440Y-39375690D01*
X55901440Y-38352000D01*
X55857162Y-38116683D01*
X55718090Y-37900559D01*
X55505890Y-37755569D01*
X55254000Y-37704560D01*
X55206500Y-37704560D01*
X55206500Y-33004069D01*
X61069432Y-38867000D01*
X60839750Y-38867000D01*
X60681000Y-39025750D01*
X60681000Y-41275000D01*
X62030250Y-41275000D01*
X62189000Y-41116250D01*
X62189000Y-39986568D01*
X66643219Y-44440787D01*
X66643221Y-44440790D01*
X66813489Y-44554559D01*
X66930337Y-44632634D01*
X67269011Y-44700001D01*
X67269016Y-44700000D01*
X70538962Y-44700000D01*
X69696481Y-45542481D01*
X69490005Y-45851494D01*
X69417500Y-46216000D01*
X69417500Y-46806815D01*
X69373569Y-46871110D01*
X69322560Y-47123000D01*
X69322560Y-47467810D01*
X69281185Y-47509185D01*
X69116004Y-47756395D01*
X69058000Y-48048000D01*
X69058000Y-48429287D01*
X68891708Y-48360237D01*
X68350666Y-48359764D01*
X67850628Y-48566376D01*
X67467720Y-48948616D01*
X67260237Y-49448292D01*
X67259764Y-49989334D01*
X67466376Y-50489372D01*
X67798983Y-50822560D01*
X67713569Y-50822560D01*
X67620000Y-50803948D01*
X67147386Y-50897957D01*
X66746723Y-51165671D01*
X66479009Y-51566334D01*
X66385000Y-52038948D01*
X66385000Y-52801052D01*
X66479009Y-53273666D01*
X66489923Y-53290000D01*
X66323736Y-53290000D01*
X63984368Y-50950632D01*
X63899381Y-50893846D01*
X63820065Y-50829374D01*
X63789049Y-50820124D01*
X63762138Y-50802143D01*
X63661887Y-50782202D01*
X63563938Y-50752991D01*
X63531745Y-50756315D01*
X63500000Y-50750000D01*
X63399746Y-50769942D01*
X63298078Y-50780438D01*
X63269607Y-50795829D01*
X63237862Y-50802143D01*
X63152876Y-50858929D01*
X63062958Y-50907535D01*
X41028086Y-69165000D01*
X25729228Y-69165000D01*
X13385000Y-53734715D01*
X13385000Y-52950750D01*
X13775000Y-52950750D01*
X13775000Y-53591309D01*
X13871673Y-53824698D01*
X14050301Y-54003327D01*
X14283690Y-54100000D01*
X14624250Y-54100000D01*
X14783000Y-53941250D01*
X14783000Y-52792000D01*
X15037000Y-52792000D01*
X15037000Y-53941250D01*
X15195750Y-54100000D01*
X15536310Y-54100000D01*
X15769699Y-54003327D01*
X15948327Y-53824698D01*
X16045000Y-53591309D01*
X16045000Y-52950750D01*
X15886250Y-52792000D01*
X15037000Y-52792000D01*
X14783000Y-52792000D01*
X13933750Y-52792000D01*
X13775000Y-52950750D01*
X13385000Y-52950750D01*
X13385000Y-51738691D01*
X13775000Y-51738691D01*
X13775000Y-52379250D01*
X13933750Y-52538000D01*
X14783000Y-52538000D01*
X14783000Y-51388750D01*
X15037000Y-51388750D01*
X15037000Y-52538000D01*
X15886250Y-52538000D01*
X16045000Y-52379250D01*
X16045000Y-51738691D01*
X15948327Y-51505302D01*
X15769699Y-51326673D01*
X15536310Y-51230000D01*
X15195750Y-51230000D01*
X15037000Y-51388750D01*
X14783000Y-51388750D01*
X14624250Y-51230000D01*
X14283690Y-51230000D01*
X14050301Y-51326673D01*
X13871673Y-51505302D01*
X13775000Y-51738691D01*
X13385000Y-51738691D01*
X13385000Y-35170750D01*
X13775000Y-35170750D01*
X13775000Y-35811309D01*
X13871673Y-36044698D01*
X14050301Y-36223327D01*
X14283690Y-36320000D01*
X14624250Y-36320000D01*
X14783000Y-36161250D01*
X14783000Y-35012000D01*
X15037000Y-35012000D01*
X15037000Y-36161250D01*
X15195750Y-36320000D01*
X15536310Y-36320000D01*
X15769699Y-36223327D01*
X15948327Y-36044698D01*
X16045000Y-35811309D01*
X16045000Y-35170750D01*
X15886250Y-35012000D01*
X15037000Y-35012000D01*
X14783000Y-35012000D01*
X13933750Y-35012000D01*
X13775000Y-35170750D01*
X13385000Y-35170750D01*
X13385000Y-33958691D01*
X13775000Y-33958691D01*
X13775000Y-34599250D01*
X13933750Y-34758000D01*
X14783000Y-34758000D01*
X14783000Y-33608750D01*
X15037000Y-33608750D01*
X15037000Y-34758000D01*
X15886250Y-34758000D01*
X16045000Y-34599250D01*
X16045000Y-33958691D01*
X15948327Y-33725302D01*
X15769699Y-33546673D01*
X15536310Y-33450000D01*
X15195750Y-33450000D01*
X15037000Y-33608750D01*
X14783000Y-33608750D01*
X14624250Y-33450000D01*
X14283690Y-33450000D01*
X14050301Y-33546673D01*
X13871673Y-33725302D01*
X13775000Y-33958691D01*
X13385000Y-33958691D01*
X13385000Y-29085000D01*
X13762560Y-29085000D01*
X13762560Y-30685000D01*
X13806838Y-30920317D01*
X13945910Y-31136441D01*
X14158110Y-31281431D01*
X14410000Y-31332440D01*
X15410000Y-31332440D01*
X15645317Y-31288162D01*
X15861441Y-31149090D01*
X16006431Y-30936890D01*
X16057440Y-30685000D01*
X16057440Y-29644140D01*
X26706579Y-18995000D01*
X27308156Y-18995000D01*
X27350910Y-19061441D01*
X27563110Y-19206431D01*
X27815000Y-19257440D01*
X29415000Y-19257440D01*
X29650317Y-19213162D01*
X29866441Y-19074090D01*
X30011431Y-18861890D01*
X30062440Y-18610000D01*
X30062440Y-17610000D01*
X30018162Y-17374683D01*
X29879090Y-17158559D01*
X29666890Y-17013569D01*
X29415000Y-16962560D01*
X27815000Y-16962560D01*
X27579683Y-17006838D01*
X27363559Y-17145910D01*
X27309519Y-17225000D01*
X26340005Y-17225000D01*
X26340000Y-17224999D01*
X26057516Y-17281190D01*
X26001325Y-17292367D01*
X25714210Y-17484210D01*
X25714208Y-17484213D01*
X14760860Y-28437560D01*
X14410000Y-28437560D01*
X14174683Y-28481838D01*
X13958559Y-28620910D01*
X13813569Y-28833110D01*
X13762560Y-29085000D01*
X13385000Y-29085000D01*
X13385000Y-28815285D01*
X24280628Y-15195750D01*
X27180000Y-15195750D01*
X27180000Y-15536310D01*
X27276673Y-15769699D01*
X27455302Y-15948327D01*
X27688691Y-16045000D01*
X28329250Y-16045000D01*
X28488000Y-15886250D01*
X28488000Y-15037000D01*
X28742000Y-15037000D01*
X28742000Y-15886250D01*
X28900750Y-16045000D01*
X29541309Y-16045000D01*
X29774698Y-15948327D01*
X29953327Y-15769699D01*
X30050000Y-15536310D01*
X30050000Y-15195750D01*
X29891250Y-15037000D01*
X28742000Y-15037000D01*
X28488000Y-15037000D01*
X27338750Y-15037000D01*
X27180000Y-15195750D01*
X24280628Y-15195750D01*
X25010276Y-14283690D01*
X27180000Y-14283690D01*
X27180000Y-14624250D01*
X27338750Y-14783000D01*
X28488000Y-14783000D01*
X28488000Y-13933750D01*
X28742000Y-13933750D01*
X28742000Y-14783000D01*
X29891250Y-14783000D01*
X30050000Y-14624250D01*
X30050000Y-14283690D01*
X29953327Y-14050301D01*
X29774698Y-13871673D01*
X29541309Y-13775000D01*
X28900750Y-13775000D01*
X28742000Y-13933750D01*
X28488000Y-13933750D01*
X28329250Y-13775000D01*
X27688691Y-13775000D01*
X27455302Y-13871673D01*
X27276673Y-14050301D01*
X27180000Y-14283690D01*
X25010276Y-14283690D01*
X25729228Y-13385000D01*
X41028086Y-13385000D01*
X63062958Y-31642465D01*
G36*
X122733110Y-19206431D02*
X122900000Y-19240227D01*
X122900000Y-22819995D01*
X122899999Y-22820000D01*
X122922302Y-22932120D01*
X122967367Y-23158675D01*
X123118587Y-23384993D01*
X123159210Y-23445790D01*
X133336843Y-33623422D01*
X133193569Y-33833110D01*
X133142560Y-34085000D01*
X133142560Y-35685000D01*
X133186838Y-35920317D01*
X133325910Y-36136441D01*
X133538110Y-36281431D01*
X133790000Y-36332440D01*
X134485861Y-36332440D01*
X135005000Y-36851579D01*
X135005000Y-42813421D01*
X132089210Y-45729210D01*
X131897367Y-46016325D01*
X131889014Y-46058319D01*
X131829999Y-46355000D01*
X131830000Y-46355005D01*
X131830000Y-50433421D01*
X130184210Y-52079210D01*
X130184208Y-52079213D01*
X118970860Y-63292560D01*
X118889139Y-63292560D01*
X109288150Y-53691570D01*
X109216718Y-53643841D01*
X109001035Y-53499727D01*
X108926048Y-53484811D01*
X108662360Y-53432359D01*
X108662355Y-53432360D01*
X101443746Y-53432360D01*
X100838073Y-52924140D01*
X100629349Y-52806800D01*
X100374394Y-52774414D01*
X100126926Y-52843770D01*
X99925939Y-53003942D01*
X99623093Y-53364860D01*
X95097898Y-53364860D01*
X90424000Y-48690962D01*
X90424000Y-48175888D01*
X90519883Y-48407943D01*
X90782673Y-48671192D01*
X91126201Y-48813838D01*
X91498167Y-48814162D01*
X91841943Y-48672117D01*
X92105192Y-48409327D01*
X92247838Y-48065799D01*
X92248162Y-47693833D01*
X92106117Y-47350057D01*
X92087000Y-47330907D01*
X92087000Y-46457284D01*
X92110910Y-46494441D01*
X92323110Y-46639431D01*
X92575000Y-46690440D01*
X93075000Y-46690440D01*
X93310317Y-46646162D01*
X93526441Y-46507090D01*
X93671431Y-46294890D01*
X93722440Y-46043000D01*
X93722440Y-45143000D01*
X93678162Y-44907683D01*
X93588276Y-44767997D01*
X93726441Y-44679090D01*
X93871431Y-44466890D01*
X93922440Y-44215000D01*
X93922440Y-43415000D01*
X93878162Y-43179683D01*
X93739090Y-42963559D01*
X93526890Y-42818569D01*
X93275000Y-42767560D01*
X92475000Y-42767560D01*
X92239683Y-42811838D01*
X92073523Y-42918759D01*
X91926890Y-42818569D01*
X91675000Y-42767560D01*
X90875000Y-42767560D01*
X90639683Y-42811838D01*
X90423559Y-42950910D01*
X90325790Y-43094000D01*
X89291008Y-43094000D01*
X89116000Y-43058560D01*
X88166000Y-43058560D01*
X88075972Y-43075500D01*
X87942890Y-42984569D01*
X87691000Y-42933560D01*
X85791000Y-42933560D01*
X85555683Y-42977838D01*
X85402892Y-43076156D01*
X85316000Y-43058560D01*
X84366000Y-43058560D01*
X84130683Y-43102838D01*
X83914559Y-43241910D01*
X83769569Y-43454110D01*
X83718560Y-43706000D01*
X83718560Y-44006000D01*
X83752697Y-44187424D01*
X83727719Y-44310774D01*
X83724117Y-44302057D01*
X83461327Y-44038808D01*
X83117799Y-43896162D01*
X82745833Y-43895838D01*
X82402057Y-44037883D01*
X82138808Y-44300673D01*
X81996162Y-44644201D01*
X81995838Y-45016167D01*
X82137883Y-45359943D01*
X82370709Y-45593176D01*
X82138808Y-45824673D01*
X81996162Y-46168201D01*
X81995838Y-46540167D01*
X82137883Y-46883943D01*
X82400673Y-47147192D01*
X82744201Y-47289838D01*
X83116167Y-47290162D01*
X83459943Y-47148117D01*
X83723192Y-46885327D01*
X83854958Y-46568000D01*
X84190992Y-46568000D01*
X84366000Y-46603440D01*
X85316000Y-46603440D01*
X85406028Y-46586500D01*
X85539110Y-46677431D01*
X85791000Y-46728440D01*
X87691000Y-46728440D01*
X87926317Y-46684162D01*
X88071095Y-46591000D01*
X88355250Y-46591000D01*
X88514000Y-46432250D01*
X88514000Y-45881000D01*
X88494000Y-45881000D01*
X88494000Y-45802250D01*
X88514000Y-45782250D01*
X88514000Y-45659000D01*
X88768000Y-45659000D01*
X88768000Y-45782250D01*
X88788000Y-45802250D01*
X88788000Y-45881000D01*
X88768000Y-45881000D01*
X88768000Y-46432250D01*
X88900000Y-46564250D01*
X88900000Y-48323500D01*
X82296000Y-48323500D01*
X81931494Y-48396005D01*
X81622481Y-48602481D01*
X81356481Y-48868481D01*
X81150005Y-49177494D01*
X81077500Y-49542000D01*
X81077500Y-49668080D01*
X81032560Y-49890000D01*
X81032560Y-51390000D01*
X81076838Y-51625317D01*
X81215910Y-51841441D01*
X81428110Y-51986431D01*
X81680000Y-52037440D01*
X81755728Y-52037440D01*
X81695189Y-52183233D01*
X81694812Y-52614873D01*
X81859646Y-53013800D01*
X82135364Y-53290000D01*
X80424207Y-53290000D01*
X80699282Y-53015405D01*
X80864811Y-52616767D01*
X80865188Y-52185127D01*
X80700354Y-51786200D01*
X80395405Y-51480718D01*
X80027440Y-51327926D01*
X80027440Y-49890000D01*
X79983162Y-49654683D01*
X79919000Y-49554972D01*
X79919000Y-46179236D01*
X83242118Y-42856118D01*
X83434829Y-42567706D01*
X83502500Y-42227500D01*
X83502500Y-39801736D01*
X83955560Y-39348676D01*
X83955560Y-39629000D01*
X83999838Y-39864317D01*
X84138910Y-40080441D01*
X84351110Y-40225431D01*
X84603000Y-40276440D01*
X84721000Y-40276440D01*
X84721000Y-40830541D01*
X84636569Y-40954110D01*
X84585560Y-41206000D01*
X84585560Y-42106000D01*
X84629838Y-42341317D01*
X84768910Y-42557441D01*
X84981110Y-42702431D01*
X85233000Y-42753440D01*
X85733000Y-42753440D01*
X85968317Y-42709162D01*
X86184441Y-42570090D01*
X86230969Y-42501994D01*
X86373302Y-42644327D01*
X86606691Y-42741000D01*
X86699250Y-42741000D01*
X86858000Y-42582250D01*
X86858000Y-41783000D01*
X87108000Y-41783000D01*
X87108000Y-42582250D01*
X87266750Y-42741000D01*
X87359309Y-42741000D01*
X87592698Y-42644327D01*
X87771327Y-42465699D01*
X87868000Y-42232310D01*
X87868000Y-41941750D01*
X87709250Y-41783000D01*
X87108000Y-41783000D01*
X86858000Y-41783000D01*
X86836000Y-41783000D01*
X86836000Y-41529000D01*
X86858000Y-41529000D01*
X86858000Y-40729750D01*
X87108000Y-40729750D01*
X87108000Y-41529000D01*
X87709250Y-41529000D01*
X87804500Y-41433750D01*
X90240000Y-41433750D01*
X90240000Y-41674310D01*
X90336673Y-41907699D01*
X90515302Y-42086327D01*
X90748691Y-42183000D01*
X90989250Y-42183000D01*
X91148000Y-42024250D01*
X91148000Y-41275000D01*
X90398750Y-41275000D01*
X90240000Y-41433750D01*
X87804500Y-41433750D01*
X87868000Y-41370250D01*
X87868000Y-41079690D01*
X87771327Y-40846301D01*
X87592698Y-40667673D01*
X87359309Y-40571000D01*
X87266750Y-40571000D01*
X87108000Y-40729750D01*
X86858000Y-40729750D01*
X86699250Y-40571000D01*
X86606691Y-40571000D01*
X86373302Y-40667673D01*
X86245000Y-40795974D01*
X86245000Y-39934501D01*
X86338910Y-40080441D01*
X86551110Y-40225431D01*
X86803000Y-40276440D01*
X87863000Y-40276440D01*
X88098317Y-40232162D01*
X88314441Y-40093090D01*
X88374630Y-40005000D01*
X88398000Y-40005000D01*
X88398000Y-40120002D01*
X88556748Y-40120002D01*
X88398000Y-40278750D01*
X88398000Y-40519309D01*
X88494673Y-40752698D01*
X88673301Y-40931327D01*
X88906690Y-41028000D01*
X89122250Y-41028000D01*
X89281000Y-40869250D01*
X89281000Y-40120000D01*
X89261000Y-40120000D01*
X89261000Y-40005000D01*
X89555000Y-40005000D01*
X89555000Y-40120000D01*
X89535000Y-40120000D01*
X89535000Y-40869250D01*
X89693750Y-41028000D01*
X89909310Y-41028000D01*
X90142699Y-40931327D01*
X90240000Y-40834025D01*
X90240000Y-40862250D01*
X90398750Y-41021000D01*
X91148000Y-41021000D01*
X91148000Y-41001000D01*
X91402000Y-41001000D01*
X91402000Y-41021000D01*
X91422000Y-41021000D01*
X91422000Y-41275000D01*
X91402000Y-41275000D01*
X91402000Y-42024250D01*
X91560750Y-42183000D01*
X91801309Y-42183000D01*
X92034698Y-42086327D01*
X92076660Y-42044366D01*
X92223110Y-42144431D01*
X92475000Y-42195440D01*
X93275000Y-42195440D01*
X93510317Y-42151162D01*
X93726441Y-42012090D01*
X93871431Y-41799890D01*
X93922440Y-41548000D01*
X93922440Y-40748000D01*
X93878162Y-40512683D01*
X93739090Y-40296559D01*
X93587000Y-40192640D01*
X93587000Y-40068459D01*
X93671431Y-39944890D01*
X93722440Y-39693000D01*
X93722440Y-38793000D01*
X93678162Y-38557683D01*
X93539090Y-38341559D01*
X93465521Y-38291291D01*
X93526441Y-38252090D01*
X93671431Y-38039890D01*
X93722440Y-37788000D01*
X93722440Y-36888000D01*
X93678162Y-36652683D01*
X93637000Y-36588715D01*
X93637000Y-36354644D01*
X93726441Y-36297090D01*
X93871431Y-36084890D01*
X93922440Y-35833000D01*
X93922440Y-35033000D01*
X93878162Y-34797683D01*
X93749422Y-34597616D01*
X94311038Y-34036000D01*
X94742000Y-34036000D01*
X94742000Y-35687000D01*
X94800004Y-35978605D01*
X94924005Y-36164185D01*
X94965185Y-36225815D01*
X95854185Y-37114815D01*
X96362184Y-37622815D01*
X96362187Y-37622817D01*
X97257579Y-38518210D01*
X97199569Y-38603110D01*
X97148560Y-38855000D01*
X97148560Y-39655000D01*
X97192838Y-39890317D01*
X97266620Y-40004978D01*
X97199569Y-40103110D01*
X97148560Y-40355000D01*
X97148560Y-40699810D01*
X96870185Y-40978185D01*
X96705004Y-41225395D01*
X96647000Y-41517000D01*
X96647000Y-44069000D01*
X96705004Y-44360605D01*
X96838233Y-44559996D01*
X96870185Y-44607815D01*
X96997185Y-44734815D01*
X97148560Y-44835961D01*
X97148560Y-45346000D01*
X97192838Y-45581317D01*
X97331910Y-45797441D01*
X97409000Y-45850114D01*
X97409000Y-46482000D01*
X97467004Y-46773605D01*
X97628703Y-47015604D01*
X97632185Y-47020815D01*
X99791185Y-49179815D01*
X100038395Y-49344996D01*
X100330000Y-49403000D01*
X113919000Y-49403000D01*
X114210605Y-49344996D01*
X114457815Y-49179815D01*
X118806190Y-44831440D01*
X120126000Y-44831440D01*
X120361317Y-44787162D01*
X120577441Y-44648090D01*
X120722431Y-44435890D01*
X120773440Y-44184000D01*
X120773440Y-42684000D01*
X120729162Y-42448683D01*
X120590090Y-42232559D01*
X120377890Y-42087569D01*
X120126000Y-42036560D01*
X118126000Y-42036560D01*
X117890683Y-42080838D01*
X117674559Y-42219910D01*
X117529569Y-42432110D01*
X117478560Y-42684000D01*
X117478560Y-44003810D01*
X113603370Y-47879000D01*
X111186630Y-47879000D01*
X118822835Y-40242796D01*
X118843968Y-40247000D01*
X119408032Y-40247000D01*
X119938049Y-40141573D01*
X120387375Y-39841343D01*
X120687605Y-39392017D01*
X120793032Y-38862000D01*
X120687605Y-38331983D01*
X120387375Y-37882657D01*
X119938049Y-37582427D01*
X119408032Y-37477000D01*
X118843968Y-37477000D01*
X118313951Y-37582427D01*
X117864625Y-37882657D01*
X117564395Y-38331983D01*
X117458968Y-38862000D01*
X117556756Y-39353613D01*
X109926370Y-46984000D01*
X103838415Y-46984000D01*
X103840440Y-46974000D01*
X103840440Y-46704190D01*
X104297815Y-46246815D01*
X104330977Y-46197185D01*
X104462996Y-45999605D01*
X104521000Y-45708000D01*
X104521000Y-43307000D01*
X104462996Y-43015395D01*
X104297815Y-42768185D01*
X102532523Y-41002893D01*
X102512162Y-40894683D01*
X102406440Y-40730386D01*
X102406440Y-39276768D01*
X102505431Y-39131890D01*
X102556440Y-38880000D01*
X102556440Y-38835190D01*
X102661528Y-38730102D01*
X102724815Y-38687815D01*
X102773815Y-38638816D01*
X102773817Y-38638813D01*
X103916815Y-37495815D01*
X104297815Y-37114816D01*
X104297817Y-37114813D01*
X104424815Y-36987815D01*
X104457066Y-36939548D01*
X104496317Y-36932162D01*
X104712441Y-36793090D01*
X104857431Y-36580890D01*
X104908440Y-36329000D01*
X104908440Y-35529000D01*
X104864162Y-35293683D01*
X104797671Y-35190354D01*
X104799327Y-35188698D01*
X104896000Y-34955309D01*
X104896000Y-34714750D01*
X104737250Y-34556000D01*
X104013000Y-34556000D01*
X104013000Y-34576000D01*
X103759000Y-34576000D01*
X103759000Y-33552750D01*
X104013000Y-33552750D01*
X104013000Y-34302000D01*
X104737250Y-34302000D01*
X104896000Y-34143250D01*
X104896000Y-33902691D01*
X104799327Y-33669302D01*
X104620699Y-33490673D01*
X104387310Y-33394000D01*
X104171750Y-33394000D01*
X104013000Y-33552750D01*
X103759000Y-33552750D01*
X103702076Y-33495826D01*
X103700996Y-33490395D01*
X103616137Y-33363395D01*
X103535815Y-33243184D01*
X103281815Y-32989185D01*
X103195404Y-32931447D01*
X103034605Y-32824004D01*
X102743000Y-32766000D01*
X96012000Y-32766000D01*
X95720395Y-32824004D01*
X95473184Y-32989185D01*
X94965185Y-33497185D01*
X94800004Y-33744395D01*
X94742000Y-34036000D01*
X94311038Y-34036000D01*
X97422538Y-30924500D01*
X101600000Y-30924500D01*
X101964506Y-30851995D01*
X102273519Y-30645519D01*
X105217090Y-27701948D01*
X105423566Y-27392935D01*
X105496071Y-27028429D01*
X105496071Y-25903702D01*
X115316293Y-25903702D01*
X115316298Y-25903703D01*
X115598782Y-25847512D01*
X115654973Y-25836335D01*
X115942088Y-25644492D01*
X116577086Y-25009493D01*
X116577088Y-25009492D01*
X116830787Y-24755792D01*
X116830790Y-24755790D01*
X122523422Y-19063157D01*
X122733110Y-19206431D01*
X122733110Y-19206431D01*
G37*
X122733110Y-19206431D02*
X122900000Y-19240227D01*
X122900000Y-22819995D01*
X122899999Y-22820000D01*
X122922302Y-22932120D01*
X122967367Y-23158675D01*
X123118587Y-23384993D01*
X123159210Y-23445790D01*
X133336843Y-33623422D01*
X133193569Y-33833110D01*
X133142560Y-34085000D01*
X133142560Y-35685000D01*
X133186838Y-35920317D01*
X133325910Y-36136441D01*
X133538110Y-36281431D01*
X133790000Y-36332440D01*
X134485861Y-36332440D01*
X135005000Y-36851579D01*
X135005000Y-42813421D01*
X132089210Y-45729210D01*
X131897367Y-46016325D01*
X131889014Y-46058319D01*
X131829999Y-46355000D01*
X131830000Y-46355005D01*
X131830000Y-50433421D01*
X130184210Y-52079210D01*
X130184208Y-52079213D01*
X118970860Y-63292560D01*
X118889139Y-63292560D01*
X109288150Y-53691570D01*
X109216718Y-53643841D01*
X109001035Y-53499727D01*
X108926048Y-53484811D01*
X108662360Y-53432359D01*
X108662355Y-53432360D01*
X101443746Y-53432360D01*
X100838073Y-52924140D01*
X100629349Y-52806800D01*
X100374394Y-52774414D01*
X100126926Y-52843770D01*
X99925939Y-53003942D01*
X99623093Y-53364860D01*
X95097898Y-53364860D01*
X90424000Y-48690962D01*
X90424000Y-48175888D01*
X90519883Y-48407943D01*
X90782673Y-48671192D01*
X91126201Y-48813838D01*
X91498167Y-48814162D01*
X91841943Y-48672117D01*
X92105192Y-48409327D01*
X92247838Y-48065799D01*
X92248162Y-47693833D01*
X92106117Y-47350057D01*
X92087000Y-47330907D01*
X92087000Y-46457284D01*
X92110910Y-46494441D01*
X92323110Y-46639431D01*
X92575000Y-46690440D01*
X93075000Y-46690440D01*
X93310317Y-46646162D01*
X93526441Y-46507090D01*
X93671431Y-46294890D01*
X93722440Y-46043000D01*
X93722440Y-45143000D01*
X93678162Y-44907683D01*
X93588276Y-44767997D01*
X93726441Y-44679090D01*
X93871431Y-44466890D01*
X93922440Y-44215000D01*
X93922440Y-43415000D01*
X93878162Y-43179683D01*
X93739090Y-42963559D01*
X93526890Y-42818569D01*
X93275000Y-42767560D01*
X92475000Y-42767560D01*
X92239683Y-42811838D01*
X92073523Y-42918759D01*
X91926890Y-42818569D01*
X91675000Y-42767560D01*
X90875000Y-42767560D01*
X90639683Y-42811838D01*
X90423559Y-42950910D01*
X90325790Y-43094000D01*
X89291008Y-43094000D01*
X89116000Y-43058560D01*
X88166000Y-43058560D01*
X88075972Y-43075500D01*
X87942890Y-42984569D01*
X87691000Y-42933560D01*
X85791000Y-42933560D01*
X85555683Y-42977838D01*
X85402892Y-43076156D01*
X85316000Y-43058560D01*
X84366000Y-43058560D01*
X84130683Y-43102838D01*
X83914559Y-43241910D01*
X83769569Y-43454110D01*
X83718560Y-43706000D01*
X83718560Y-44006000D01*
X83752697Y-44187424D01*
X83727719Y-44310774D01*
X83724117Y-44302057D01*
X83461327Y-44038808D01*
X83117799Y-43896162D01*
X82745833Y-43895838D01*
X82402057Y-44037883D01*
X82138808Y-44300673D01*
X81996162Y-44644201D01*
X81995838Y-45016167D01*
X82137883Y-45359943D01*
X82370709Y-45593176D01*
X82138808Y-45824673D01*
X81996162Y-46168201D01*
X81995838Y-46540167D01*
X82137883Y-46883943D01*
X82400673Y-47147192D01*
X82744201Y-47289838D01*
X83116167Y-47290162D01*
X83459943Y-47148117D01*
X83723192Y-46885327D01*
X83854958Y-46568000D01*
X84190992Y-46568000D01*
X84366000Y-46603440D01*
X85316000Y-46603440D01*
X85406028Y-46586500D01*
X85539110Y-46677431D01*
X85791000Y-46728440D01*
X87691000Y-46728440D01*
X87926317Y-46684162D01*
X88071095Y-46591000D01*
X88355250Y-46591000D01*
X88514000Y-46432250D01*
X88514000Y-45881000D01*
X88494000Y-45881000D01*
X88494000Y-45802250D01*
X88514000Y-45782250D01*
X88514000Y-45659000D01*
X88768000Y-45659000D01*
X88768000Y-45782250D01*
X88788000Y-45802250D01*
X88788000Y-45881000D01*
X88768000Y-45881000D01*
X88768000Y-46432250D01*
X88900000Y-46564250D01*
X88900000Y-48323500D01*
X82296000Y-48323500D01*
X81931494Y-48396005D01*
X81622481Y-48602481D01*
X81356481Y-48868481D01*
X81150005Y-49177494D01*
X81077500Y-49542000D01*
X81077500Y-49668080D01*
X81032560Y-49890000D01*
X81032560Y-51390000D01*
X81076838Y-51625317D01*
X81215910Y-51841441D01*
X81428110Y-51986431D01*
X81680000Y-52037440D01*
X81755728Y-52037440D01*
X81695189Y-52183233D01*
X81694812Y-52614873D01*
X81859646Y-53013800D01*
X82135364Y-53290000D01*
X80424207Y-53290000D01*
X80699282Y-53015405D01*
X80864811Y-52616767D01*
X80865188Y-52185127D01*
X80700354Y-51786200D01*
X80395405Y-51480718D01*
X80027440Y-51327926D01*
X80027440Y-49890000D01*
X79983162Y-49654683D01*
X79919000Y-49554972D01*
X79919000Y-46179236D01*
X83242118Y-42856118D01*
X83434829Y-42567706D01*
X83502500Y-42227500D01*
X83502500Y-39801736D01*
X83955560Y-39348676D01*
X83955560Y-39629000D01*
X83999838Y-39864317D01*
X84138910Y-40080441D01*
X84351110Y-40225431D01*
X84603000Y-40276440D01*
X84721000Y-40276440D01*
X84721000Y-40830541D01*
X84636569Y-40954110D01*
X84585560Y-41206000D01*
X84585560Y-42106000D01*
X84629838Y-42341317D01*
X84768910Y-42557441D01*
X84981110Y-42702431D01*
X85233000Y-42753440D01*
X85733000Y-42753440D01*
X85968317Y-42709162D01*
X86184441Y-42570090D01*
X86230969Y-42501994D01*
X86373302Y-42644327D01*
X86606691Y-42741000D01*
X86699250Y-42741000D01*
X86858000Y-42582250D01*
X86858000Y-41783000D01*
X87108000Y-41783000D01*
X87108000Y-42582250D01*
X87266750Y-42741000D01*
X87359309Y-42741000D01*
X87592698Y-42644327D01*
X87771327Y-42465699D01*
X87868000Y-42232310D01*
X87868000Y-41941750D01*
X87709250Y-41783000D01*
X87108000Y-41783000D01*
X86858000Y-41783000D01*
X86836000Y-41783000D01*
X86836000Y-41529000D01*
X86858000Y-41529000D01*
X86858000Y-40729750D01*
X87108000Y-40729750D01*
X87108000Y-41529000D01*
X87709250Y-41529000D01*
X87804500Y-41433750D01*
X90240000Y-41433750D01*
X90240000Y-41674310D01*
X90336673Y-41907699D01*
X90515302Y-42086327D01*
X90748691Y-42183000D01*
X90989250Y-42183000D01*
X91148000Y-42024250D01*
X91148000Y-41275000D01*
X90398750Y-41275000D01*
X90240000Y-41433750D01*
X87804500Y-41433750D01*
X87868000Y-41370250D01*
X87868000Y-41079690D01*
X87771327Y-40846301D01*
X87592698Y-40667673D01*
X87359309Y-40571000D01*
X87266750Y-40571000D01*
X87108000Y-40729750D01*
X86858000Y-40729750D01*
X86699250Y-40571000D01*
X86606691Y-40571000D01*
X86373302Y-40667673D01*
X86245000Y-40795974D01*
X86245000Y-39934501D01*
X86338910Y-40080441D01*
X86551110Y-40225431D01*
X86803000Y-40276440D01*
X87863000Y-40276440D01*
X88098317Y-40232162D01*
X88314441Y-40093090D01*
X88374630Y-40005000D01*
X88398000Y-40005000D01*
X88398000Y-40120002D01*
X88556748Y-40120002D01*
X88398000Y-40278750D01*
X88398000Y-40519309D01*
X88494673Y-40752698D01*
X88673301Y-40931327D01*
X88906690Y-41028000D01*
X89122250Y-41028000D01*
X89281000Y-40869250D01*
X89281000Y-40120000D01*
X89261000Y-40120000D01*
X89261000Y-40005000D01*
X89555000Y-40005000D01*
X89555000Y-40120000D01*
X89535000Y-40120000D01*
X89535000Y-40869250D01*
X89693750Y-41028000D01*
X89909310Y-41028000D01*
X90142699Y-40931327D01*
X90240000Y-40834025D01*
X90240000Y-40862250D01*
X90398750Y-41021000D01*
X91148000Y-41021000D01*
X91148000Y-41001000D01*
X91402000Y-41001000D01*
X91402000Y-41021000D01*
X91422000Y-41021000D01*
X91422000Y-41275000D01*
X91402000Y-41275000D01*
X91402000Y-42024250D01*
X91560750Y-42183000D01*
X91801309Y-42183000D01*
X92034698Y-42086327D01*
X92076660Y-42044366D01*
X92223110Y-42144431D01*
X92475000Y-42195440D01*
X93275000Y-42195440D01*
X93510317Y-42151162D01*
X93726441Y-42012090D01*
X93871431Y-41799890D01*
X93922440Y-41548000D01*
X93922440Y-40748000D01*
X93878162Y-40512683D01*
X93739090Y-40296559D01*
X93587000Y-40192640D01*
X93587000Y-40068459D01*
X93671431Y-39944890D01*
X93722440Y-39693000D01*
X93722440Y-38793000D01*
X93678162Y-38557683D01*
X93539090Y-38341559D01*
X93465521Y-38291291D01*
X93526441Y-38252090D01*
X93671431Y-38039890D01*
X93722440Y-37788000D01*
X93722440Y-36888000D01*
X93678162Y-36652683D01*
X93637000Y-36588715D01*
X93637000Y-36354644D01*
X93726441Y-36297090D01*
X93871431Y-36084890D01*
X93922440Y-35833000D01*
X93922440Y-35033000D01*
X93878162Y-34797683D01*
X93749422Y-34597616D01*
X94311038Y-34036000D01*
X94742000Y-34036000D01*
X94742000Y-35687000D01*
X94800004Y-35978605D01*
X94924005Y-36164185D01*
X94965185Y-36225815D01*
X95854185Y-37114815D01*
X96362184Y-37622815D01*
X96362187Y-37622817D01*
X97257579Y-38518210D01*
X97199569Y-38603110D01*
X97148560Y-38855000D01*
X97148560Y-39655000D01*
X97192838Y-39890317D01*
X97266620Y-40004978D01*
X97199569Y-40103110D01*
X97148560Y-40355000D01*
X97148560Y-40699810D01*
X96870185Y-40978185D01*
X96705004Y-41225395D01*
X96647000Y-41517000D01*
X96647000Y-44069000D01*
X96705004Y-44360605D01*
X96838233Y-44559996D01*
X96870185Y-44607815D01*
X96997185Y-44734815D01*
X97148560Y-44835961D01*
X97148560Y-45346000D01*
X97192838Y-45581317D01*
X97331910Y-45797441D01*
X97409000Y-45850114D01*
X97409000Y-46482000D01*
X97467004Y-46773605D01*
X97628703Y-47015604D01*
X97632185Y-47020815D01*
X99791185Y-49179815D01*
X100038395Y-49344996D01*
X100330000Y-49403000D01*
X113919000Y-49403000D01*
X114210605Y-49344996D01*
X114457815Y-49179815D01*
X118806190Y-44831440D01*
X120126000Y-44831440D01*
X120361317Y-44787162D01*
X120577441Y-44648090D01*
X120722431Y-44435890D01*
X120773440Y-44184000D01*
X120773440Y-42684000D01*
X120729162Y-42448683D01*
X120590090Y-42232559D01*
X120377890Y-42087569D01*
X120126000Y-42036560D01*
X118126000Y-42036560D01*
X117890683Y-42080838D01*
X117674559Y-42219910D01*
X117529569Y-42432110D01*
X117478560Y-42684000D01*
X117478560Y-44003810D01*
X113603370Y-47879000D01*
X111186630Y-47879000D01*
X118822835Y-40242796D01*
X118843968Y-40247000D01*
X119408032Y-40247000D01*
X119938049Y-40141573D01*
X120387375Y-39841343D01*
X120687605Y-39392017D01*
X120793032Y-38862000D01*
X120687605Y-38331983D01*
X120387375Y-37882657D01*
X119938049Y-37582427D01*
X119408032Y-37477000D01*
X118843968Y-37477000D01*
X118313951Y-37582427D01*
X117864625Y-37882657D01*
X117564395Y-38331983D01*
X117458968Y-38862000D01*
X117556756Y-39353613D01*
X109926370Y-46984000D01*
X103838415Y-46984000D01*
X103840440Y-46974000D01*
X103840440Y-46704190D01*
X104297815Y-46246815D01*
X104330977Y-46197185D01*
X104462996Y-45999605D01*
X104521000Y-45708000D01*
X104521000Y-43307000D01*
X104462996Y-43015395D01*
X104297815Y-42768185D01*
X102532523Y-41002893D01*
X102512162Y-40894683D01*
X102406440Y-40730386D01*
X102406440Y-39276768D01*
X102505431Y-39131890D01*
X102556440Y-38880000D01*
X102556440Y-38835190D01*
X102661528Y-38730102D01*
X102724815Y-38687815D01*
X102773815Y-38638816D01*
X102773817Y-38638813D01*
X103916815Y-37495815D01*
X104297815Y-37114816D01*
X104297817Y-37114813D01*
X104424815Y-36987815D01*
X104457066Y-36939548D01*
X104496317Y-36932162D01*
X104712441Y-36793090D01*
X104857431Y-36580890D01*
X104908440Y-36329000D01*
X104908440Y-35529000D01*
X104864162Y-35293683D01*
X104797671Y-35190354D01*
X104799327Y-35188698D01*
X104896000Y-34955309D01*
X104896000Y-34714750D01*
X104737250Y-34556000D01*
X104013000Y-34556000D01*
X104013000Y-34576000D01*
X103759000Y-34576000D01*
X103759000Y-33552750D01*
X104013000Y-33552750D01*
X104013000Y-34302000D01*
X104737250Y-34302000D01*
X104896000Y-34143250D01*
X104896000Y-33902691D01*
X104799327Y-33669302D01*
X104620699Y-33490673D01*
X104387310Y-33394000D01*
X104171750Y-33394000D01*
X104013000Y-33552750D01*
X103759000Y-33552750D01*
X103702076Y-33495826D01*
X103700996Y-33490395D01*
X103616137Y-33363395D01*
X103535815Y-33243184D01*
X103281815Y-32989185D01*
X103195404Y-32931447D01*
X103034605Y-32824004D01*
X102743000Y-32766000D01*
X96012000Y-32766000D01*
X95720395Y-32824004D01*
X95473184Y-32989185D01*
X94965185Y-33497185D01*
X94800004Y-33744395D01*
X94742000Y-34036000D01*
X94311038Y-34036000D01*
X97422538Y-30924500D01*
X101600000Y-30924500D01*
X101964506Y-30851995D01*
X102273519Y-30645519D01*
X105217090Y-27701948D01*
X105423566Y-27392935D01*
X105496071Y-27028429D01*
X105496071Y-25903702D01*
X115316293Y-25903702D01*
X115316298Y-25903703D01*
X115598782Y-25847512D01*
X115654973Y-25836335D01*
X115942088Y-25644492D01*
X116577086Y-25009493D01*
X116577088Y-25009492D01*
X116830787Y-24755792D01*
X116830790Y-24755790D01*
X122523422Y-19063157D01*
X122733110Y-19206431D01*
G36*
X97155000Y-36088000D02*
X97040000Y-36088000D01*
X97040000Y-36068000D01*
X97020000Y-36068000D01*
X97020000Y-35814000D01*
X97040000Y-35814000D01*
X97040000Y-35794000D01*
X97155000Y-35794000D01*
X97155000Y-36088000D01*
X97155000Y-36088000D01*
G37*
X97155000Y-36088000D02*
X97040000Y-36088000D01*
X97040000Y-36068000D01*
X97020000Y-36068000D01*
X97020000Y-35814000D01*
X97040000Y-35814000D01*
X97040000Y-35794000D01*
X97155000Y-35794000D01*
X97155000Y-36088000D01*
G36*
X78141000Y-49554057D02*
X78083569Y-49638110D01*
X78032560Y-49890000D01*
X78032560Y-50242560D01*
X77130000Y-50242560D01*
X76894683Y-50286838D01*
X76678559Y-50425910D01*
X76533569Y-50638110D01*
X76482560Y-50890000D01*
X76482560Y-51690000D01*
X76526838Y-51925317D01*
X76665910Y-52141441D01*
X76878110Y-52286431D01*
X77130000Y-52337440D01*
X78130000Y-52337440D01*
X78365317Y-52293162D01*
X78581441Y-52154090D01*
X78663436Y-52034086D01*
X78680000Y-52037440D01*
X78755728Y-52037440D01*
X78695189Y-52183233D01*
X78694812Y-52614873D01*
X78859646Y-53013800D01*
X79135364Y-53290000D01*
X78777440Y-53290000D01*
X78777440Y-53100000D01*
X78733162Y-52864683D01*
X78594090Y-52648559D01*
X78381890Y-52503569D01*
X78130000Y-52452560D01*
X77130000Y-52452560D01*
X76894683Y-52496838D01*
X76678559Y-52635910D01*
X76533569Y-52848110D01*
X76482560Y-53100000D01*
X76482560Y-53290000D01*
X75750077Y-53290000D01*
X75760991Y-53273666D01*
X75855000Y-52801052D01*
X75855000Y-52038948D01*
X75760991Y-51566334D01*
X75493277Y-51165671D01*
X75092614Y-50897957D01*
X74620000Y-50803948D01*
X74526431Y-50822560D01*
X74505000Y-50822560D01*
X74505000Y-50758198D01*
X74772280Y-50491384D01*
X74979763Y-49991708D01*
X74980236Y-49450666D01*
X74773624Y-48950628D01*
X74391384Y-48567720D01*
X73891708Y-48360237D01*
X73350666Y-48359764D01*
X72984207Y-48511182D01*
X72979698Y-48506673D01*
X72746309Y-48410000D01*
X72678750Y-48410000D01*
X72547002Y-48541748D01*
X72547002Y-48445581D01*
X72629698Y-48411327D01*
X72808327Y-48232699D01*
X72905000Y-47999310D01*
X72905000Y-47783750D01*
X72746250Y-47625000D01*
X71997000Y-47625000D01*
X71997000Y-47645000D01*
X71743000Y-47645000D01*
X71743000Y-47625000D01*
X71723000Y-47625000D01*
X71723000Y-47371000D01*
X71743000Y-47371000D01*
X71743000Y-46646750D01*
X71997000Y-46646750D01*
X71997000Y-47371000D01*
X72746250Y-47371000D01*
X72905000Y-47212250D01*
X72905000Y-46996690D01*
X72808327Y-46763301D01*
X72629698Y-46584673D01*
X72396309Y-46488000D01*
X72155750Y-46488000D01*
X71997000Y-46646750D01*
X71743000Y-46646750D01*
X71584250Y-46488000D01*
X71445038Y-46488000D01*
X72022538Y-45910500D01*
X78141000Y-45910500D01*
X78141000Y-49554057D01*
X78141000Y-49554057D01*
G37*
X78141000Y-49554057D02*
X78083569Y-49638110D01*
X78032560Y-49890000D01*
X78032560Y-50242560D01*
X77130000Y-50242560D01*
X76894683Y-50286838D01*
X76678559Y-50425910D01*
X76533569Y-50638110D01*
X76482560Y-50890000D01*
X76482560Y-51690000D01*
X76526838Y-51925317D01*
X76665910Y-52141441D01*
X76878110Y-52286431D01*
X77130000Y-52337440D01*
X78130000Y-52337440D01*
X78365317Y-52293162D01*
X78581441Y-52154090D01*
X78663436Y-52034086D01*
X78680000Y-52037440D01*
X78755728Y-52037440D01*
X78695189Y-52183233D01*
X78694812Y-52614873D01*
X78859646Y-53013800D01*
X79135364Y-53290000D01*
X78777440Y-53290000D01*
X78777440Y-53100000D01*
X78733162Y-52864683D01*
X78594090Y-52648559D01*
X78381890Y-52503569D01*
X78130000Y-52452560D01*
X77130000Y-52452560D01*
X76894683Y-52496838D01*
X76678559Y-52635910D01*
X76533569Y-52848110D01*
X76482560Y-53100000D01*
X76482560Y-53290000D01*
X75750077Y-53290000D01*
X75760991Y-53273666D01*
X75855000Y-52801052D01*
X75855000Y-52038948D01*
X75760991Y-51566334D01*
X75493277Y-51165671D01*
X75092614Y-50897957D01*
X74620000Y-50803948D01*
X74526431Y-50822560D01*
X74505000Y-50822560D01*
X74505000Y-50758198D01*
X74772280Y-50491384D01*
X74979763Y-49991708D01*
X74980236Y-49450666D01*
X74773624Y-48950628D01*
X74391384Y-48567720D01*
X73891708Y-48360237D01*
X73350666Y-48359764D01*
X72984207Y-48511182D01*
X72979698Y-48506673D01*
X72746309Y-48410000D01*
X72678750Y-48410000D01*
X72547002Y-48541748D01*
X72547002Y-48445581D01*
X72629698Y-48411327D01*
X72808327Y-48232699D01*
X72905000Y-47999310D01*
X72905000Y-47783750D01*
X72746250Y-47625000D01*
X71997000Y-47625000D01*
X71997000Y-47645000D01*
X71743000Y-47645000D01*
X71743000Y-47625000D01*
X71723000Y-47625000D01*
X71723000Y-47371000D01*
X71743000Y-47371000D01*
X71743000Y-46646750D01*
X71997000Y-46646750D01*
X71997000Y-47371000D01*
X72746250Y-47371000D01*
X72905000Y-47212250D01*
X72905000Y-46996690D01*
X72808327Y-46763301D01*
X72629698Y-46584673D01*
X72396309Y-46488000D01*
X72155750Y-46488000D01*
X71997000Y-46646750D01*
X71743000Y-46646750D01*
X71584250Y-46488000D01*
X71445038Y-46488000D01*
X72022538Y-45910500D01*
X78141000Y-45910500D01*
X78141000Y-49554057D01*
G36*
X20349952Y-41079690D02*
X20416185Y-41178815D01*
X21051185Y-41813816D01*
X21199377Y-41912834D01*
X21298395Y-41978996D01*
X21566117Y-42032249D01*
X21600344Y-42115086D01*
X22017717Y-42533188D01*
X22065312Y-42552951D01*
X21995647Y-42771042D01*
X22860000Y-43635395D01*
X22874143Y-43621253D01*
X23053748Y-43800858D01*
X23039605Y-43815000D01*
X23053748Y-43829143D01*
X22874143Y-44008748D01*
X22860000Y-43994605D01*
X21995647Y-44858958D01*
X22065181Y-45076640D01*
X22019914Y-45095344D01*
X21601812Y-45512717D01*
X21375258Y-46058319D01*
X21375198Y-46127172D01*
X21051185Y-46451185D01*
X20886004Y-46698395D01*
X20828000Y-46990000D01*
X20828000Y-50056421D01*
X19253927Y-48482347D01*
X19257440Y-48465000D01*
X19257440Y-47864598D01*
X19977519Y-47144519D01*
X20183995Y-46835506D01*
X20256500Y-46471000D01*
X20256500Y-43586279D01*
X21363282Y-43586279D01*
X21389685Y-44176458D01*
X21564741Y-44599080D01*
X21816042Y-44679353D01*
X22680395Y-43815000D01*
X21816042Y-42950647D01*
X21564741Y-43030920D01*
X21363282Y-43586279D01*
X20256500Y-43586279D01*
X20256500Y-40939830D01*
X20349952Y-41079690D01*
X20349952Y-41079690D01*
G37*
X20349952Y-41079690D02*
X20416185Y-41178815D01*
X21051185Y-41813816D01*
X21199377Y-41912834D01*
X21298395Y-41978996D01*
X21566117Y-42032249D01*
X21600344Y-42115086D01*
X22017717Y-42533188D01*
X22065312Y-42552951D01*
X21995647Y-42771042D01*
X22860000Y-43635395D01*
X22874143Y-43621253D01*
X23053748Y-43800858D01*
X23039605Y-43815000D01*
X23053748Y-43829143D01*
X22874143Y-44008748D01*
X22860000Y-43994605D01*
X21995647Y-44858958D01*
X22065181Y-45076640D01*
X22019914Y-45095344D01*
X21601812Y-45512717D01*
X21375258Y-46058319D01*
X21375198Y-46127172D01*
X21051185Y-46451185D01*
X20886004Y-46698395D01*
X20828000Y-46990000D01*
X20828000Y-50056421D01*
X19253927Y-48482347D01*
X19257440Y-48465000D01*
X19257440Y-47864598D01*
X19977519Y-47144519D01*
X20183995Y-46835506D01*
X20256500Y-46471000D01*
X20256500Y-43586279D01*
X21363282Y-43586279D01*
X21389685Y-44176458D01*
X21564741Y-44599080D01*
X21816042Y-44679353D01*
X22680395Y-43815000D01*
X21816042Y-42950647D01*
X21564741Y-43030920D01*
X21363282Y-43586279D01*
X20256500Y-43586279D01*
X20256500Y-40939830D01*
X20349952Y-41079690D01*
M02*
