<?xml version="1.0" standalone="no"?>
 <!DOCTYPE svg PUBLIC "-//W3C//DTD SVG 1.1//EN" 
 "http://www.w3.org/Graphics/SVG/1.1/DTD/svg11.dtd"> 
<svg xmlns="http://www.w3.org/2000/svg" version="1.1" 
    width="29.7002cm" height="21.0007cm" viewBox="0 0 116930 82680 ">
<title>SVG Picture created as glowtie-B.Cu.svg date 2019/01/06 16:51:35 </title>
  <desc>Picture generated by PCBNEW </desc>
<g style="fill:#000000; fill-opacity:1;stroke:#000000; stroke-opacity:1;
stroke-linecap:round; stroke-linejoin:round; "
 transform="translate(0 0) scale(1 1)">
</g>
<g style="fill:#000000; fill-opacity:0.0; 
stroke:#000000; stroke-width:-0.000393701; stroke-opacity:1; 
stroke-linecap:round; stroke-linejoin:round;">
</g>
<g style="fill:#000000; fill-opacity:1.0; 
stroke:#000000; stroke-width:0; stroke-opacity:1; 
stroke-linecap:round; stroke-linejoin:round;">
<circle cx="44950" cy="10750" r="590.551" /> 
</g>
<g style="fill:#000000; fill-opacity:1.0; 
stroke:#000000; stroke-width:39.3701; stroke-opacity:1; 
stroke-linecap:round; stroke-linejoin:round;">
</g>
<g style="fill:#000000; fill-opacity:1.0; 
stroke:#000000; stroke-width:0; stroke-opacity:1; 
stroke-linecap:round; stroke-linejoin:round;">
<circle cx="13000" cy="10750" r="590.551" /> 
</g>
<g style="fill:#000000; fill-opacity:1.0; 
stroke:#000000; stroke-width:39.3701; stroke-opacity:1; 
stroke-linecap:round; stroke-linejoin:round;">
</g>
<g style="fill:#000000; fill-opacity:1.0; 
stroke:#000000; stroke-width:0; stroke-opacity:1; 
stroke-linecap:round; stroke-linejoin:round;">
<polyline style="fill-rule:evenodd;"
points="46409,11340
46409,10159
47590,10159
47590,11340
46409,11340
" /> 
<polyline style="fill-rule:evenodd;"
points="14409,11340
14409,10159
15590,10159
15590,11340
14409,11340
" /> 
</g>
<g style="fill:#000000; fill-opacity:1.0; 
stroke:#000000; stroke-width:374.016; stroke-opacity:1; 
stroke-linecap:round; stroke-linejoin:round;">
</g>
<g style="fill:#000000; fill-opacity:0.0; 
stroke:#000000; stroke-width:374.016; stroke-opacity:1; 
stroke-linecap:round; stroke-linejoin:round;">
<path d="M26956 19518
L27074 19518
" />
<path d="M28925 19518
L29043 19518
" />
</g>
<g style="fill:#000000; fill-opacity:0.0; 
stroke:#000000; stroke-width:393.701; stroke-opacity:1; 
stroke-linecap:round; stroke-linejoin:round;">
<path d="M26622 20689
L26622 20473
" />
<path d="M29377 20689
L29377 20473
" />
</g>
<g style="fill:#000000; fill-opacity:1.0; 
stroke:#000000; stroke-width:0; stroke-opacity:1; 
stroke-linecap:round; stroke-linejoin:round;">
<circle cx="9000" cy="17250" r="334.646" /> 
</g>
<g style="fill:#000000; fill-opacity:1.0; 
stroke:#000000; stroke-width:39.3701; stroke-opacity:1; 
stroke-linecap:round; stroke-linejoin:round;">
</g>
<g style="fill:#000000; fill-opacity:1.0; 
stroke:#000000; stroke-width:0; stroke-opacity:1; 
stroke-linecap:round; stroke-linejoin:round;">
<circle cx="9000" cy="16250" r="334.646" /> 
</g>
<g style="fill:#000000; fill-opacity:1.0; 
stroke:#000000; stroke-width:39.3701; stroke-opacity:1; 
stroke-linecap:round; stroke-linejoin:round;">
</g>
<g style="fill:#000000; fill-opacity:1.0; 
stroke:#000000; stroke-width:0; stroke-opacity:1; 
stroke-linecap:round; stroke-linejoin:round;">
<circle cx="9000" cy="18250" r="334.646" /> 
</g>
<g style="fill:#000000; fill-opacity:1.0; 
stroke:#000000; stroke-width:39.3701; stroke-opacity:1; 
stroke-linecap:round; stroke-linejoin:round;">
</g>
<g style="fill:#000000; fill-opacity:1.0; 
stroke:#000000; stroke-width:0; stroke-opacity:1; 
stroke-linecap:round; stroke-linejoin:round;">
<circle cx="9000" cy="15250" r="334.646" /> 
</g>
<g style="fill:#000000; fill-opacity:1.0; 
stroke:#000000; stroke-width:39.3701; stroke-opacity:1; 
stroke-linecap:round; stroke-linejoin:round;">
</g>
<g style="fill:#000000; fill-opacity:1.0; 
stroke:#000000; stroke-width:0; stroke-opacity:1; 
stroke-linecap:round; stroke-linejoin:round;">
<circle cx="9000" cy="14250" r="334.646" /> 
</g>
<g style="fill:#000000; fill-opacity:1.0; 
stroke:#000000; stroke-width:39.3701; stroke-opacity:1; 
stroke-linecap:round; stroke-linejoin:round;">
</g>
<g style="fill:#000000; fill-opacity:1.0; 
stroke:#000000; stroke-width:0; stroke-opacity:1; 
stroke-linecap:round; stroke-linejoin:round;">
<circle cx="44100" cy="15975" r="118.11" /> 
</g>
<g style="fill:#000000; fill-opacity:1.0; 
stroke:#000000; stroke-width:39.3701; stroke-opacity:1; 
stroke-linecap:round; stroke-linejoin:round;">
</g>
<g style="fill:#000000; fill-opacity:1.0; 
stroke:#000000; stroke-width:0; stroke-opacity:1; 
stroke-linecap:round; stroke-linejoin:round;">
<circle cx="45650" cy="17375" r="118.11" /> 
</g>
<g style="fill:#000000; fill-opacity:1.0; 
stroke:#000000; stroke-width:39.3701; stroke-opacity:1; 
stroke-linecap:round; stroke-linejoin:round;">
</g>
<g style="fill:#000000; fill-opacity:1.0; 
stroke:#000000; stroke-width:0; stroke-opacity:1; 
stroke-linecap:round; stroke-linejoin:round;">
<circle cx="28150" cy="15350" r="118.11" /> 
</g>
<g style="fill:#000000; fill-opacity:1.0; 
stroke:#000000; stroke-width:39.3701; stroke-opacity:1; 
stroke-linecap:round; stroke-linejoin:round;">
</g>
<g style="fill:#000000; fill-opacity:1.0; 
stroke:#000000; stroke-width:0; stroke-opacity:1; 
stroke-linecap:round; stroke-linejoin:round;">
<circle cx="24850" cy="16300" r="118.11" /> 
</g>
<g style="fill:#000000; fill-opacity:1.0; 
stroke:#000000; stroke-width:39.3701; stroke-opacity:1; 
stroke-linecap:round; stroke-linejoin:round;">
</g>
<g style="fill:#000000; fill-opacity:1.0; 
stroke:#000000; stroke-width:0; stroke-opacity:1; 
stroke-linecap:round; stroke-linejoin:round;">
<circle cx="44500" cy="8100" r="118.11" /> 
</g>
<g style="fill:#000000; fill-opacity:1.0; 
stroke:#000000; stroke-width:39.3701; stroke-opacity:1; 
stroke-linecap:round; stroke-linejoin:round;">
</g>
<g style="fill:#000000; fill-opacity:1.0; 
stroke:#000000; stroke-width:0; stroke-opacity:1; 
stroke-linecap:round; stroke-linejoin:round;">
<circle cx="20400" cy="12850" r="118.11" /> 
</g>
<g style="fill:#000000; fill-opacity:1.0; 
stroke:#000000; stroke-width:39.3701; stroke-opacity:1; 
stroke-linecap:round; stroke-linejoin:round;">
</g>
<g style="fill:#000000; fill-opacity:1.0; 
stroke:#000000; stroke-width:0; stroke-opacity:1; 
stroke-linecap:round; stroke-linejoin:round;">
<circle cx="31125" cy="18225" r="118.11" /> 
</g>
<g style="fill:#000000; fill-opacity:1.0; 
stroke:#000000; stroke-width:39.3701; stroke-opacity:1; 
stroke-linecap:round; stroke-linejoin:round;">
</g>
<g style="fill:#000000; fill-opacity:1.0; 
stroke:#000000; stroke-width:0; stroke-opacity:1; 
stroke-linecap:round; stroke-linejoin:round;">
<circle cx="45850" cy="15925" r="118.11" /> 
</g>
<g style="fill:#000000; fill-opacity:1.0; 
stroke:#000000; stroke-width:39.3701; stroke-opacity:1; 
stroke-linecap:round; stroke-linejoin:round;">
</g>
<g style="fill:#000000; fill-opacity:1.0; 
stroke:#000000; stroke-width:0; stroke-opacity:1; 
stroke-linecap:round; stroke-linejoin:round;">
<circle cx="46000" cy="16600" r="118.11" /> 
</g>
<g style="fill:#000000; fill-opacity:1.0; 
stroke:#000000; stroke-width:39.3701; stroke-opacity:1; 
stroke-linecap:round; stroke-linejoin:round;">
</g>
<g style="fill:#000000; fill-opacity:1.0; 
stroke:#000000; stroke-width:0; stroke-opacity:1; 
stroke-linecap:round; stroke-linejoin:round;">
<circle cx="44100" cy="16600" r="118.11" /> 
</g>
<g style="fill:#000000; fill-opacity:1.0; 
stroke:#000000; stroke-width:39.3701; stroke-opacity:1; 
stroke-linecap:round; stroke-linejoin:round;">
</g>
<g style="fill:#000000; fill-opacity:1.0; 
stroke:#000000; stroke-width:0; stroke-opacity:1; 
stroke-linecap:round; stroke-linejoin:round;">
<circle cx="16900" cy="15400" r="118.11" /> 
</g>
<g style="fill:#000000; fill-opacity:1.0; 
stroke:#000000; stroke-width:39.3701; stroke-opacity:1; 
stroke-linecap:round; stroke-linejoin:round;">
</g>
<g style="fill:#000000; fill-opacity:1.0; 
stroke:#000000; stroke-width:0; stroke-opacity:1; 
stroke-linecap:round; stroke-linejoin:round;">
<circle cx="15700" cy="21000" r="118.11" /> 
</g>
<g style="fill:#000000; fill-opacity:1.0; 
stroke:#000000; stroke-width:39.3701; stroke-opacity:1; 
stroke-linecap:round; stroke-linejoin:round;">
</g>
<g style="fill:#000000; fill-opacity:1.0; 
stroke:#000000; stroke-width:200; stroke-opacity:1; 
stroke-linecap:round; stroke-linejoin:round;">
</g>
<g style="fill:#000000; fill-opacity:0.0; 
stroke:#000000; stroke-width:200; stroke-opacity:1; 
stroke-linecap:round; stroke-linejoin:round;">
<path d="M43925 17375
L45650 17375
" />
<path d="M43450 16900
L43925 17375
" />
<path d="M43450 16225
L43450 16900
" />
<path d="M43700 15975
L43450 16225
" />
<path d="M44100 15975
L43700 15975
" />
<path d="M45650 17375
L45650 18025
" />
<path d="M45650 18025
L46150 18525
" />
<path d="M46150 18525
L47925 18525
" />
<path d="M47925 18525
L48825 17625
" />
<path d="M48825 17625
L48825 12575
" />
<path d="M48825 12575
L47000 10750
" />
<path d="M46987 10762
L47000 10750
" />
<path d="M25800 15350
L28150 15350
" />
<path d="M24850 16300
L25800 15350
" />
<path d="M44500 8100
L44500 8250
" />
<path d="M44500 8250
L47000 10750
" />
<path d="M20400 12850
L18200 10650
" />
<path d="M18200 10650
L15150 10650
" />
<path d="M15150 10650
L15000 10500
" />
<path d="M31125 18225
L31125 13800
" />
<path d="M31125 13800
L31125 13875
" />
<path d="M31125 13875
L31125 13800
" />
<path d="M45850 15925
L45850 11650
" />
<path d="M45850 11650
L44950 10750
" />
<path d="M44950 10750
L44950 10800
" />
</g>
<g style="fill:#000000; fill-opacity:0.0; 
stroke:#000000; stroke-width:500; stroke-opacity:1; 
stroke-linecap:round; stroke-linejoin:round;">
<path d="M14250 8500
L13050 9700
" />
<path d="M23500 12999
L19000 8500
" />
<path d="M14250 8500
L19000 8500
" />
<path d="M13050 9700
L13050 10700
" />
<path d="M13050 10700
L13000 10750
" />
<path d="M34000 13800
L35450 13800
" />
<path d="M36250 13000
L38000 11250
" />
<path d="M35450 13800
L36250 13000
" />
<path d="M24300 13800
L31125 13800
" />
<path d="M31125 13800
L34000 13800
" />
<path d="M23500 13000
L24300 13800
" />
<path d="M23500 12999
L23500 13000
" />
<path d="M38500 10750
L45000 10750
" />
<path d="M38000 11250
L38500 10750
" />
<path d="M23500 12999
L23500 13000
" />
</g>
<g style="fill:#000000; fill-opacity:0.0; 
stroke:#000000; stroke-width:200; stroke-opacity:1; 
stroke-linecap:round; stroke-linejoin:round;">
<path d="M44100 16600
L46000 16600
" />
</g>
<g style="fill:#000000; fill-opacity:0.0; 
stroke:#000000; stroke-width:250; stroke-opacity:1; 
stroke-linecap:round; stroke-linejoin:round;">
<path d="M15700 16600
L16900 15400
" />
<path d="M15700 21000
L15700 16600
" />
</g>
<g style="fill:#000000; fill-opacity:1.0; 
stroke:#000000; stroke-width:100; stroke-opacity:1; 
stroke-linecap:round; stroke-linejoin:round;">
<polyline style="fill-rule:evenodd;"
points="24797,12432
24805,12444
24838,12466
24848,12474
24860,12481
24894,12504
24907,12506
24918,12512
24959,12516
25000,12524
25012,12522
25025,12523
25064,12512
25105,12504
25116,12496
25128,12493
25160,12467
25171,12459
25180,12450
25211,12425
25218,12412
26111,11519
33888,11519
34781,12412
34788,12425
34819,12450
34828,12459
34839,12467
34871,12493
34883,12496
34894,12504
34935,12512
34974,12523
34987,12522
34999,12524
35040,12516
35081,12512
35092,12506
35105,12504
35139,12481
35151,12474
35161,12466
35194,12444
35202,12432
43847,5269
49870,5269
54730,11344
54730,21155
49870,27230
43847,27230
35202,20067
35194,20055
35161,20033
35151,20025
35139,20018
35105,19995
35092,19993
35081,19987
35040,19983
34999,19975
34987,19977
34974,19976
34935,19987
34894,19995
34883,20003
34871,20006
34839,20032
34828,20040
34819,20049
34788,20074
34781,20087
33888,20980
32844,20980
32952,20871
33017,20714
33017,20544
32952,20387
32832,20267
32675,20202
32505,20202
32348,20267
32228,20387
32163,20544
32163,20714
32228,20871
32336,20980
31663,20980
31771,20871
31836,20714
31836,20544
31771,20387
31651,20267
31494,20202
31324,20202
31167,20267
31047,20387
30982,20544
30982,20714
31047,20871
31155,20980
29721,20980
29798,20864
29824,20733
29824,20429
29798,20298
29700,20151
29552,20052
29377,20017
29203,20052
29055,20151
28957,20298
28931,20429
28931,20733
28957,20864
29034,20980
26965,20980
27042,20864
27068,20733
27068,20429
27042,20298
26944,20151
26796,20052
26622,20017
26447,20052
26299,20151
26201,20298
26175,20429
26175,20733
26201,20864
26278,20980
26111,20980
25218,20087
25211,20074
25180,20049
25171,20040
25160,20032
25128,20006
25116,20003
25105,19995
25064,19987
25025,19976
25012,19977
25000,19975
24959,19983
24918,19987
24907,19993
24894,19995
24860,20018
24848,20025
24838,20033
24805,20055
24797,20067
16152,27230
10129,27230
5269,21155
5269,18133
8415,18133
8415,18366
8504,18581
8668,18745
8883,18834
9116,18834
9331,18745
9495,18581
9584,18366
9584,18133
9495,17918
9331,17754
9312,17746
9340,17661
9000,17320
8659,17661
8687,17746
8668,17754
8504,17918
8415,18133
5269,18133
5269,17159
8410,17159
8421,17392
8490,17558
8588,17590
8929,17250
9070,17250
9411,17590
9509,17558
9589,17340
9578,17107
9509,16941
9411,16909
9070,17250
8929,17250
8588,16909
8490,16941
8410,17159
5269,17159
5269,14133
8415,14133
8415,14366
8504,14581
8668,14745
8679,14750
8668,14754
8504,14918
8415,15133
8415,15366
8504,15581
8668,15745
8679,15750
8668,15754
8504,15918
8415,16133
8415,16366
8504,16581
8668,16745
8687,16753
8659,16838
9000,17179
9340,16838
9312,16753
9331,16745
9495,16581
9584,16366
9584,16133
9495,15918
9331,15754
9320,15750
9331,15745
9495,15581
9584,15366
9584,15133
9495,14918
9331,14754
9320,14750
9331,14745
9495,14581
9584,14366
9584,14133
9495,13918
9331,13754
9116,13665
8883,13665
8668,13754
8504,13918
8415,14133
5269,14133
5269,13000
10200,13000
10200,19500
10203,19519
10214,19535
10230,19546
10250,19550
12750,19550
12769,19546
12785,19535
12796,19519
12800,19500
12800,16600
15317,16600
15325,16636
15325,21036
15331,21071
15331,21073
15332,21074
15346,21146
15387,21206
15387,21208
15389,21209
15429,21270
15490,21310
15491,21312
15493,21312
15553,21353
15625,21367
15626,21368
15628,21368
15700,21382
15771,21368
15773,21368
15774,21367
15846,21353
15906,21312
15908,21312
15909,21310
15970,21270
16010,21209
16012,21208
16012,21206
16053,21146
16067,21074
16068,21073
16068,21071
16075,21036
16075,19518
26511,19518
26545,19689
26641,19833
26786,19930
26913,19955
27117,19955
27245,19930
27389,19833
27486,19689
27520,19518
28479,19518
28513,19689
28610,19833
28754,19930
28882,19955
29086,19955
29213,19930
29358,19833
29454,19689
29488,19518
29454,19347
29358,19203
29213,19106
29086,19081
28882,19081
28754,19106
28610,19203
28513,19347
28479,19518
27520,19518
27486,19347
27389,19203
27245,19106
27117,19081
26913,19081
26786,19106
26641,19203
26545,19347
26511,19518
16075,19518
16075,16755
17191,15639
17210,15609
17212,15608
17212,15606
17253,15546
17267,15474
17268,15473
17268,15471
17282,15400
17268,15328
17268,15326
17267,15325
17253,15253
17212,15193
17212,15191
17210,15190
17170,15129
17109,15089
17108,15087
17106,15087
17046,15046
16974,15032
16973,15031
16971,15031
16900,15017
16828,15031
16826,15031
16825,15032
16753,15046
16693,15087
16691,15087
16690,15089
16660,15108
15460,16308
15429,16329
15388,16391
15346,16453
15317,16600
12800,16600
12800,13000
12796,12980
12785,12964
12769,12953
12750,12950
10250,12950
10230,12953
10214,12964
10203,12980
10200,13000
5269,13000
5269,11344
5879,10582
12159,10582
12159,10917
12287,11226
12523,11462
12832,11590
13167,11590
13476,11462
13712,11226
13840,10917
13840,10862
14159,10862
14159,11390
14197,11482
14267,11552
14359,11590
14887,11590
14950,11528
14950,10800
15050,10800
15050,11528
15112,11590
15640,11590
15732,11552
15802,11482
15840,11390
15840,10862
15778,10800
15050,10800
14950,10800
14221,10800
14159,10862
13840,10862
13840,10582
13712,10273
13550,10111
13550,10109
14159,10109
14159,10637
14221,10700
14950,10700
14950,9971
15050,9971
15050,10700
15778,10700
15840,10637
15840,10109
15802,10017
15732,9947
15640,9909
15112,9909
15050,9971
14950,9971
14887,9909
14359,9909
14267,9947
14197,10017
14159,10109
13550,10109
13550,9907
14457,9000
18792,9000
23111,13318
23139,13360
23181,13388
23911,14118
23939,14160
24104,14270
24250,14300
24250,14300
24300,14309
24349,14300
30775,14300
30775,18108
30756,18151
30756,18298
30812,18433
30916,18537
31051,18593
31198,18593
31333,18537
31437,18433
31493,18298
31493,18151
31475,18108
31475,14300
35400,14300
35450,14309
35499,14300
35499,14300
35645,14270
35810,14160
35838,14118
36638,13318
36638,13318
38388,11568
38388,11568
38707,11250
44261,11250
44473,11462
44782,11590
45117,11590
45243,11538
45500,11794
45500,15808
45481,15851
45481,15998
45537,16133
45641,16237
45672,16250
44216,16250
44173,16231
44026,16231
43891,16287
43787,16391
43731,16526
43731,16673
43787,16808
43891,16912
44026,16968
44173,16968
44216,16950
45883,16950
45926,16968
46073,16968
46208,16912
46312,16808
46368,16673
46368,16526
46312,16391
46208,16287
46073,16231
46063,16231
46162,16133
46218,15998
46218,15851
46200,15808
46200,11684
46206,11649
46200,11615
46200,11615
46179,11513
46102,11397
46073,11378
45738,11043
45790,10917
45790,10862
46159,10862
46159,11390
46197,11482
46267,11552
46359,11590
46887,11590
46950,11528
46950,10800
47050,10800
47050,11528
47112,11590
47640,11590
47732,11552
47802,11482
47840,11390
47840,10862
47778,10800
47050,10800
46950,10800
46221,10800
46159,10862
45790,10862
45790,10582
45662,10273
45498,10109
46159,10109
46159,10637
46221,10700
46950,10700
46950,9971
47050,9971
47050,10700
47778,10700
47840,10637
47840,10109
47802,10017
47732,9947
47640,9909
47112,9909
47050,9971
46950,9971
46887,9909
46359,9909
46267,9947
46197,10017
46159,10109
45498,10109
45426,10037
45117,9909
44782,9909
44473,10037
44261,10250
38549,10250
38499,10240
38450,10250
38450,10250
38304,10279
38304,10279
38304,10279
38214,10339
38139,10389
38111,10431
37681,10861
37681,10861
35931,12611
35931,12611
35242,13300
24507,13300
23888,12681
23860,12639
23818,12611
19388,8181
19360,8139
19195,8029
19049,8000
19049,8000
19000,7990
18950,8000
14299,8000
14250,7990
14200,8000
14200,8000
14054,8029
13889,8139
13861,8181
12731,9311
12689,9339
12579,9504
12550,9650
12550,9650
12540,9700
12550,9749
12550,10026
12523,10037
12287,10273
12159,10582
5879,10582
10129,5269
16152,5269
24797,12432
" /> 
</g> 
</svg>
