<?xml version="1.0" standalone="no"?>
 <!DOCTYPE svg PUBLIC "-//W3C//DTD SVG 1.1//EN" 
 "http://www.w3.org/Graphics/SVG/1.1/DTD/svg11.dtd"> 
<svg xmlns="http://www.w3.org/2000/svg" version="1.1" 
    width="29.7002cm" height="21.0007cm" viewBox="0 0 116930 82680 ">
<title>SVG Picture created as glowtie-F.Mask.svg date 2019/01/06 16:51:35 </title>
  <desc>Picture generated by PCBNEW </desc>
<g style="fill:#000000; fill-opacity:1;stroke:#000000; stroke-opacity:1;
stroke-linecap:round; stroke-linejoin:round; "
 transform="translate(0 0) scale(1 1)">
</g>
<g style="fill:#000000; fill-opacity:0.0; 
stroke:#000000; stroke-width:-0.000393701; stroke-opacity:1; 
stroke-linecap:round; stroke-linejoin:round;">
</g>
<g style="fill:#000000; fill-opacity:1.0; 
stroke:#000000; stroke-width:3.93701; stroke-opacity:1; 
stroke-linecap:round; stroke-linejoin:round;">
<polyline style="fill-rule:evenodd;"
points="27372,12734
27415,12739
27454,12748
27492,12761
27525,12775
27542,12785
27557,12794
27570,12804
27584,12816
27596,12827
27623,12858
27646,12894
27665,12934
27680,12980
27691,13030
27694,13050
27697,13066
27492,13065
27486,13036
27477,13001
27463,12972
27446,12948
27424,12929
27399,12915
27369,12906
27335,12903
27325,12902
27297,12904
27273,12911
27250,12923
27228,12940
27217,12950
27200,12971
27185,12994
27172,13021
27162,13050
27156,13066
27152,13081
27148,13096
27146,13112
27143,13130
27142,13149
27141,13172
27140,13198
27140,13229
27140,13265
27141,13300
27141,13338
27141,13369
27142,13395
27143,13417
27144,13435
27145,13450
27147,13464
27149,13476
27152,13488
27155,13501
27158,13511
27172,13549
27189,13582
27210,13609
27235,13631
27263,13647
27294,13657
27329,13661
27366,13660
27369,13659
27398,13655
27425,13648
27449,13640
27468,13630
27479,13622
27481,13620
27483,13617
27484,13614
27485,13608
27485,13600
27486,13588
27486,13572
27486,13552
27486,13525
27486,13426
27310,13426
27310,13266
27696,13266
27696,13693
27683,13706
27650,13735
27611,13760
27567,13782
27519,13800
27482,13811
27462,13816
27441,13820
27422,13824
27408,13826
27388,13828
27364,13829
27338,13829
27312,13829
27287,13828
27265,13826
27248,13824
27248,13824
27199,13812
27154,13795
27112,13772
27075,13744
27041,13710
27012,13672
26986,13629
26965,13581
26948,13528
26936,13471
26934,13457
26932,13440
26931,13418
26929,13391
26928,13361
26928,13328
26928,13294
26928,13260
26928,13226
26929,13194
26930,13165
26931,13140
26933,13120
26934,13110
26946,13050
26962,12996
26983,12946
27008,12901
27038,12860
27071,12825
27109,12795
27114,12791
27151,12770
27188,12754
27227,12742
27270,12735
27316,12733
27324,12733
27372,12734
" /> 
<polyline style="fill-rule:evenodd;"
points="29111,12735
29135,12735
29154,12735
29168,12736
29180,12737
29190,12738
29200,12740
29212,12743
29214,12744
29261,12760
29304,12781
29344,12808
29380,12840
29412,12878
29440,12920
29463,12967
29482,13019
29484,13028
29489,13043
29492,13057
29495,13070
29498,13082
29500,13096
29501,13110
29503,13127
29503,13147
29504,13170
29504,13197
29504,13229
29504,13267
29504,13283
29504,13320
29504,13352
29504,13378
29504,13400
29504,13418
29503,13432
29503,13444
29502,13454
29501,13463
29500,13471
29498,13480
29497,13485
29483,13542
29464,13594
29441,13642
29413,13684
29382,13721
29345,13753
29305,13780
29284,13791
29258,13804
29234,13813
29210,13820
29185,13824
29156,13827
29123,13828
29121,13828
29088,13828
29061,13827
29041,13826
29036,13825
28989,13813
28946,13796
28905,13773
28868,13745
28835,13711
28806,13673
28780,13630
28759,13582
28748,13547
28743,13529
28738,13512
28735,13496
28732,13479
28729,13462
28728,13442
28726,13420
28725,13394
28725,13363
28724,13328
28724,13311
28724,13281
28936,13281
28936,13323
28937,13359
28937,13390
28938,13416
28940,13439
28941,13459
28944,13477
28947,13493
28950,13508
28953,13520
28965,13555
28981,13586
29001,13611
29023,13632
29049,13646
29076,13655
29084,13656
29111,13657
29138,13655
29154,13652
29182,13642
29207,13626
29229,13603
29248,13576
29265,13542
29278,13503
29288,13459
29290,13446
29291,13435
29292,13421
29293,13401
29294,13377
29294,13347
29294,13311
29294,13276
29294,13237
29294,13204
29294,13176
29293,13152
29292,13132
29290,13114
29288,13099
29286,13084
29282,13071
29279,13057
29275,13046
29262,13011
29245,12980
29225,12954
29201,12934
29176,12919
29168,12916
29148,12910
29124,12907
29100,12907
29079,12908
29073,12909
29045,12919
29019,12935
28997,12956
28978,12982
28962,13014
28953,13043
28949,13058
28946,13074
28943,13090
28941,13108
28939,13129
28938,13152
28937,13180
28936,13212
28936,13249
28936,13281
28724,13281
28723,13264
28723,13223
28724,13189
28724,13162
28726,13141
28726,13136
28734,13077
28747,13021
28764,12970
28786,12923
28812,12881
28842,12844
28876,12811
28914,12784
28955,12762
29001,12745
29011,12742
29022,12740
29032,12738
29042,12736
29054,12735
29069,12735
29089,12735
29111,12735
" /> 
<polyline style="fill-rule:evenodd;"
points="28083,13646
28583,13646
28583,13816
27873,13816
27873,12746
28083,12746
28083,13646
" /> 
<polyline style="fill-rule:evenodd;"
points="29709,12746
29732,12746
29749,12747
29762,12747
29770,12748
29775,12749
29776,12750
29777,12755
29778,12765
29779,12781
29782,12802
29785,12827
29788,12855
29792,12887
29796,12921
29800,12958
29805,12996
29809,13034
29814,13073
29819,13112
29823,13149
29827,13186
29832,13220
29835,13252
29839,13280
29842,13305
29845,13326
29847,13342
29848,13352
29849,13356
29849,13356
29849,13354
29851,13345
29853,13331
29856,13311
29860,13287
29865,13258
29870,13225
29875,13189
29881,13150
29887,13108
29893,13064
29895,13055
29901,13010
29907,12968
29913,12928
29918,12890
29923,12856
29928,12826
29932,12800
29935,12779
29937,12762
29939,12752
29939,12747
29939,12747
29943,12747
29951,12747
29965,12746
29983,12746
30003,12746
30014,12746
30089,12746
30090,12755
30091,12760
30093,12771
30095,12787
30098,12808
30102,12835
30107,12865
30112,12899
30118,12936
30124,12976
30130,13018
30136,13062
30136,13063
30143,13107
30149,13149
30155,13188
30161,13225
30166,13258
30170,13288
30174,13313
30178,13334
30180,13350
30182,13360
30183,13364
30183,13364
30183,13361
30185,13352
30187,13337
30190,13317
30193,13292
30196,13263
30201,13230
30205,13194
30210,13155
30215,13113
30220,13069
30221,13065
30226,13021
30231,12979
30236,12938
30241,12901
30245,12867
30249,12836
30252,12810
30254,12788
30257,12771
30258,12760
30259,12755
30259,12755
30260,12746
30452,12746
30451,12759
30450,12763
30448,12774
30446,12791
30443,12813
30439,12841
30435,12873
30430,12910
30424,12950
30418,12995
30411,13042
30404,13093
30397,13147
30389,13202
30381,13260
30376,13293
30304,13815
30114,13816
30067,13517
30060,13473
30053,13431
30046,13391
30040,13353
30035,13319
30030,13289
30026,13263
30022,13241
30019,13225
30018,13214
30017,13209
30017,13209
30016,13210
30014,13218
30011,13232
30008,13253
30003,13279
29998,13311
29992,13349
29985,13392
29977,13440
29970,13489
29963,13532
29957,13574
29951,13614
29945,13652
29939,13686
29935,13716
29931,13743
29927,13765
29925,13782
29923,13793
29922,13797
29919,13816
29824,13816
29800,13816
29778,13816
29759,13816
29744,13815
29734,13815
29730,13814
29730,13814
29729,13811
29728,13801
29726,13786
29723,13765
29719,13739
29715,13709
29711,13675
29705,13637
29700,13596
29694,13552
29688,13506
29681,13458
29674,13409
29667,13358
29660,13307
29653,13256
29646,13205
29639,13155
29633,13106
29626,13058
29620,13012
29614,12969
29608,12928
29603,12891
29598,12858
29594,12828
29591,12803
29588,12783
29586,12768
29585,12760
29584,12757
29583,12746
29679,12746
29709,12746
" /> 
<polyline style="fill-rule:evenodd;"
points="31346,12916
31020,12916
31020,13816
30810,13816
30810,12916
30483,12916
30483,12746
31346,12746
31346,12916
" /> 
<polyline style="fill-rule:evenodd;"
points="32126,12916
31920,12916
31920,13646
32126,13646
32126,13816
31506,13816
31506,13646
31710,13646
31710,12916
31506,12916
31506,12746
32126,12746
32126,12916
" /> 
<polyline style="fill-rule:evenodd;"
points="33093,12916
32583,12916
32583,13183
33020,13183
33020,13350
32583,13350
32583,13646
33093,13646
33093,13816
32373,13816
32373,12746
33093,12746
33093,12916
" /> 
</g>
<g style="fill:#000000; fill-opacity:1.0; 
stroke:#000000; stroke-width:0; stroke-opacity:1; 
stroke-linecap:round; stroke-linejoin:round;">
<polyline style="fill-rule:evenodd;"
points="49068,26846
48399,26846
48399,26413
49068,26413
49068,26846
" /> 
<polyline style="fill-rule:evenodd;"
points="47100,26846
46431,26846
46431,26413
47100,26413
47100,26846
" /> 
<polyline style="fill-rule:evenodd;"
points="13568,26846
12899,26846
12899,26413
13568,26413
13568,26846
" /> 
<polyline style="fill-rule:evenodd;"
points="11600,26846
10931,26846
10931,26413
11600,26413
11600,26846
" /> 
<polyline style="fill-rule:evenodd;"
points="49068,25586
48399,25586
48399,25153
49068,25153
49068,25586
" /> 
<polyline style="fill-rule:evenodd;"
points="47100,25586
46431,25586
46431,25153
47100,25153
47100,25586
" /> 
<polyline style="fill-rule:evenodd;"
points="13568,25586
12899,25586
12899,25153
13568,25153
13568,25586
" /> 
<polyline style="fill-rule:evenodd;"
points="11600,25586
10931,25586
10931,25153
11600,25153
11600,25586
" /> 
<polyline style="fill-rule:evenodd;"
points="20046,23565
19533,23996
19255,23664
19768,23234
20046,23565
" /> 
<polyline style="fill-rule:evenodd;"
points="40744,23664
40466,23996
39953,23565
40231,23234
40744,23664
" /> 
<polyline style="fill-rule:evenodd;"
points="19236,22600
18723,23031
18445,22699
18958,22269
19236,22600
" /> 
<polyline style="fill-rule:evenodd;"
points="41554,22699
41276,23031
40763,22600
41041,22269
41554,22699
" /> 
<polyline style="fill-rule:evenodd;"
points="21554,22300
21041,22730
20763,22399
21276,21968
21554,22300
" /> 
<polyline style="fill-rule:evenodd;"
points="39236,22399
38958,22730
38445,22300
38723,21968
39236,22399
" /> 
<polyline style="fill-rule:evenodd;"
points="40046,21434
39768,21765
39255,21335
39533,21003
40046,21434
" /> 
<polyline style="fill-rule:evenodd;"
points="20744,21335
20231,21765
19953,21434
20466,21003
20744,21335
" /> 
<polyline style="fill-rule:evenodd;"
points="30779,21240
30346,21240
30346,20885
30779,20885
30779,21240
" /> 
<polyline style="fill-rule:evenodd;"
points="33653,21240
33220,21240
33220,20885
33653,20885
33653,21240
" /> 
<polyline style="fill-rule:evenodd;"
points="53086,21068
52653,21068
52653,20399
53086,20399
53086,21068
" /> 
<polyline style="fill-rule:evenodd;"
points="54346,21068
53913,21068
53913,20399
54346,20399
54346,21068
" /> 
<polyline style="fill-rule:evenodd;"
points="7346,21068
6913,21068
6913,20399
7346,20399
7346,21068
" /> 
<polyline style="fill-rule:evenodd;"
points="6086,21068
5653,21068
5653,20399
6086,20399
6086,21068
" /> 
<polyline style="fill-rule:evenodd;"
points="26664,20259
26705,20272
26742,20292
26775,20319
26802,20352
26823,20389
26835,20430
26838,20462
26838,20700
26835,20732
26823,20773
26802,20810
26775,20843
26742,20870
26705,20890
26664,20903
26622,20907
26579,20903
26538,20890
26501,20870
26468,20843
26441,20810
26421,20773
26408,20732
26405,20700
26405,20462
26408,20430
26421,20389
26441,20352
26468,20319
26501,20292
26538,20272
26579,20259
26622,20255
26664,20259
" /> 
<polyline style="fill-rule:evenodd;"
points="29420,20259
29461,20272
29498,20292
29531,20319
29558,20352
29578,20389
29591,20430
29594,20462
29594,20700
29591,20732
29578,20773
29558,20810
29531,20843
29498,20870
29461,20890
29420,20903
29377,20907
29335,20903
29294,20890
29257,20870
29224,20843
29197,20810
29176,20773
29164,20732
29161,20700
29161,20462
29164,20430
29176,20389
29197,20352
29224,20319
29257,20292
29294,20272
29335,20259
29377,20255
29420,20259
" /> 
<polyline style="fill-rule:evenodd;"
points="32647,20440
32647,20440
32647,20440
32683,20455
32705,20469
32716,20477
32743,20504
32743,20504
32764,20536
32764,20536
32779,20572
32787,20610
32787,20649
32779,20687
32779,20687
32764,20723
32758,20732
32743,20755
32716,20782
32705,20790
32683,20804
32658,20814
32647,20819
32609,20826
32571,20826
32533,20819
32522,20814
32497,20804
32475,20790
32465,20782
32437,20755
32422,20732
32416,20723
32401,20687
32401,20687
32393,20649
32393,20610
32401,20572
32416,20536
32416,20536
32437,20504
32437,20504
32465,20477
32475,20469
32497,20455
32533,20440
32533,20440
32533,20440
32571,20433
32609,20433
32647,20440
" /> 
<polyline style="fill-rule:evenodd;"
points="31466,20440
31466,20440
31466,20440
31502,20455
31524,20469
31534,20477
31562,20504
31562,20504
31583,20536
31583,20536
31598,20572
31606,20610
31606,20649
31598,20687
31598,20687
31583,20723
31577,20732
31562,20755
31534,20782
31524,20790
31502,20804
31477,20814
31466,20819
31428,20826
31390,20826
31352,20819
31341,20814
31316,20804
31294,20790
31283,20782
31256,20755
31241,20732
31235,20723
31220,20687
31220,20687
31212,20649
31212,20610
31220,20572
31235,20536
31235,20536
31256,20504
31256,20504
31283,20477
31294,20469
31316,20455
31352,20440
31352,20440
31352,20440
31390,20433
31428,20433
31466,20440
" /> 
<polyline style="fill-rule:evenodd;"
points="14483,20775
14168,20775
14168,20224
14483,20224
14483,20775
" /> 
<polyline style="fill-rule:evenodd;"
points="15231,20775
14916,20775
14916,20224
15231,20224
15231,20775
" /> 
<polyline style="fill-rule:evenodd;"
points="33653,20370
33220,20370
33220,20015
33653,20015
33653,20370
" /> 
<polyline style="fill-rule:evenodd;"
points="30779,20370
30346,20370
30346,20015
30779,20015
30779,20370
" /> 
<polyline style="fill-rule:evenodd;"
points="33043,20251
32728,20251
32728,19622
33043,19622
33043,20251
" /> 
<polyline style="fill-rule:evenodd;"
points="32452,20251
32137,20251
32137,19622
32452,19622
32452,20251
" /> 
<polyline style="fill-rule:evenodd;"
points="31271,20251
30956,20251
30956,19622
31271,19622
31271,20251
" /> 
<polyline style="fill-rule:evenodd;"
points="9275,20231
8724,20231
8724,19916
9275,19916
9275,20231
" /> 
<polyline style="fill-rule:evenodd;"
points="28610,19803
28413,19803
28413,19233
28610,19233
28610,19803
" /> 
<polyline style="fill-rule:evenodd;"
points="28354,19803
28157,19803
28157,19233
28354,19233
28354,19803
" /> 
<polyline style="fill-rule:evenodd;"
points="28098,19803
27901,19803
27901,19233
28098,19233
28098,19803
" /> 
<polyline style="fill-rule:evenodd;"
points="27842,19803
27645,19803
27645,19233
27842,19233
27842,19803
" /> 
<polyline style="fill-rule:evenodd;"
points="27586,19803
27389,19803
27389,19233
27586,19233
27586,19803
" /> 
<polyline style="fill-rule:evenodd;"
points="18710,19787
18238,19787
18238,18763
18710,18763
18710,19787
" /> 
<polyline style="fill-rule:evenodd;"
points="19498,19787
19025,19787
19025,18763
19498,18763
19498,19787
" /> 
<polyline style="fill-rule:evenodd;"
points="17923,19787
17450,19787
17450,18763
17923,18763
17923,19787
" /> 
<polyline style="fill-rule:evenodd;"
points="17135,19787
16663,19787
16663,18763
17135,18763
17135,19787
" /> 
<polyline style="fill-rule:evenodd;"
points="16348,19787
15875,19787
15875,18763
16348,18763
16348,19787
" /> 
<polyline style="fill-rule:evenodd;"
points="15561,19787
15088,19787
15088,18763
15561,18763
15561,19787
" /> 
<polyline style="fill-rule:evenodd;"
points="14773,19787
14301,19787
14301,18763
14773,18763
14773,19787
" /> 
<polyline style="fill-rule:evenodd;"
points="13986,19787
13513,19787
13513,18763
13986,18763
13986,19787
" /> 
<polyline style="fill-rule:evenodd;"
points="29083,19314
29122,19326
29158,19345
29190,19371
29215,19403
29235,19439
29247,19477
29251,19518
29247,19559
29235,19597
29215,19633
29190,19665
29158,19691
29122,19710
29083,19722
29053,19725
28915,19725
28884,19722
28845,19710
28809,19691
28778,19665
28752,19633
28733,19597
28721,19559
28717,19518
28721,19477
28733,19439
28752,19403
28778,19371
28809,19345
28845,19326
28884,19314
28915,19311
29053,19311
29083,19314
" /> 
<polyline style="fill-rule:evenodd;"
points="27115,19314
27154,19326
27190,19345
27221,19371
27247,19403
27266,19439
27278,19477
27282,19518
27278,19559
27266,19597
27247,19633
27221,19665
27190,19691
27154,19710
27115,19722
27084,19725
26946,19725
26916,19722
26877,19710
26841,19691
26809,19665
26784,19633
26764,19597
26752,19559
26749,19518
26752,19477
26764,19439
26784,19403
26809,19371
26841,19345
26877,19326
26916,19314
26946,19311
27084,19311
27115,19314
" /> 
<polyline style="fill-rule:evenodd;"
points="9275,19483
8724,19483
8724,19168
9275,19168
9275,19483
" /> 
<polyline style="fill-rule:evenodd;"
points="6086,19100
5653,19100
5653,18431
6086,18431
6086,19100
" /> 
<polyline style="fill-rule:evenodd;"
points="54346,19100
53913,19100
53913,18431
54346,18431
54346,19100
" /> 
<polyline style="fill-rule:evenodd;"
points="7346,19100
6913,19100
6913,18431
7346,18431
7346,19100
" /> 
<polyline style="fill-rule:evenodd;"
points="53086,19100
52653,19100
52653,18431
53086,18431
53086,19100
" /> 
<polyline style="fill-rule:evenodd;"
points="27822,18665
27389,18665
27389,18134
27822,18134
27822,18665
" /> 
<polyline style="fill-rule:evenodd;"
points="28610,18665
28177,18665
28177,18134
28610,18134
28610,18665
" /> 
<polyline style="fill-rule:evenodd;"
points="9103,17909
9167,17935
9225,17974
9275,18024
9314,18082
9340,18146
9354,18215
9354,18284
9340,18353
9314,18417
9275,18475
9225,18525
9167,18564
9103,18590
9034,18604
8965,18604
8896,18590
8832,18564
8774,18525
8724,18475
8685,18417
8659,18353
8645,18284
8645,18215
8659,18146
8685,18082
8724,18024
8774,17974
8832,17935
8896,17909
8965,17895
9034,17895
9103,17909
" /> 
<polyline style="fill-rule:evenodd;"
points="22422,18565
21989,18565
21989,18034
22422,18034
22422,18565
" /> 
<polyline style="fill-rule:evenodd;"
points="23210,18565
22777,18565
22777,18034
23210,18034
23210,18565
" /> 
<polyline style="fill-rule:evenodd;"
points="20442,18452
19419,18452
19419,17980
20442,17980
20442,18452
" /> 
<polyline style="fill-rule:evenodd;"
points="43431,18100
43116,18100
43116,17549
43431,17549
43431,18100
" /> 
<polyline style="fill-rule:evenodd;"
points="42683,18100
42368,18100
42368,17549
42683,17549
42683,18100
" /> 
<polyline style="fill-rule:evenodd;"
points="20442,17665
19419,17665
19419,17192
20442,17192
20442,17665
" /> 
<polyline style="fill-rule:evenodd;"
points="46872,17630
46361,17630
46361,17119
46872,17119
46872,17630
" /> 
<polyline style="fill-rule:evenodd;"
points="47738,17630
47227,17630
47227,17119
47738,17119
47738,17630
" /> 
<polyline style="fill-rule:evenodd;"
points="9059,16900
9103,16909
9167,16935
9225,16974
9275,17024
9314,17082
9340,17146
9354,17215
9354,17284
9340,17353
9314,17417
9275,17475
9225,17525
9167,17564
9103,17590
9034,17604
8965,17604
8896,17590
8832,17564
8774,17525
8724,17475
8685,17417
8659,17353
8645,17284
8645,17215
8659,17146
8685,17082
8724,17024
8774,16974
8832,16935
8896,16909
8940,16900
8965,16895
9034,16895
9059,16900
" /> 
<polyline style="fill-rule:evenodd;"
points="21773,17520
20946,17520
20946,16890
21773,16890
21773,17520
" /> 
<polyline style="fill-rule:evenodd;"
points="45215,17185
44684,17185
44684,16752
45215,16752
45215,17185
" /> 
<polyline style="fill-rule:evenodd;"
points="24253,17067
23426,17067
23426,15532
24253,15532
24253,17067
" /> 
<polyline style="fill-rule:evenodd;"
points="47581,16900
47266,16900
47266,16349
47581,16349
47581,16900
" /> 
<polyline style="fill-rule:evenodd;"
points="46833,16900
46518,16900
46518,16349
46833,16349
46833,16900
" /> 
<polyline style="fill-rule:evenodd;"
points="20442,16877
19419,16877
19419,16405
20442,16405
20442,16877
" /> 
<polyline style="fill-rule:evenodd;"
points="29350,16846
28681,16846
28681,16413
29350,16413
29350,16846
" /> 
<polyline style="fill-rule:evenodd;"
points="31318,16846
30649,16846
30649,16413
31318,16413
31318,16846
" /> 
<polyline style="fill-rule:evenodd;"
points="42695,16746
42238,16746
42238,16451
42695,16451
42695,16746
" /> 
<polyline style="fill-rule:evenodd;"
points="43561,16746
43104,16746
43104,16451
43561,16451
43561,16746
" /> 
<polyline style="fill-rule:evenodd;"
points="21773,16614
20946,16614
20946,15985
21773,15985
21773,16614
" /> 
<polyline style="fill-rule:evenodd;"
points="9103,15909
9167,15935
9225,15974
9275,16024
9314,16082
9340,16146
9354,16215
9354,16284
9340,16353
9314,16417
9275,16475
9225,16525
9167,16564
9103,16590
9034,16604
8965,16604
8896,16590
8832,16564
8774,16525
8724,16475
8685,16417
8659,16353
8645,16284
8645,16215
8659,16146
8685,16082
8724,16024
8774,15974
8832,15935
8896,15909
8965,15895
9034,15895
9103,15909
" /> 
<polyline style="fill-rule:evenodd;"
points="45215,16397
44684,16397
44684,15964
45215,15964
45215,16397
" /> 
<polyline style="fill-rule:evenodd;"
points="43561,16372
43104,16372
43104,16077
43561,16077
43561,16372
" /> 
<polyline style="fill-rule:evenodd;"
points="47581,16150
47266,16150
47266,15599
47581,15599
47581,16150
" /> 
<polyline style="fill-rule:evenodd;"
points="46833,16150
46518,16150
46518,15599
46833,15599
46833,16150
" /> 
<polyline style="fill-rule:evenodd;"
points="20442,16090
19419,16090
19419,15618
20442,15618
20442,16090
" /> 
<polyline style="fill-rule:evenodd;"
points="43561,15998
43104,15998
43104,15703
43561,15703
43561,15998
" /> 
<polyline style="fill-rule:evenodd;"
points="42695,15998
42238,15998
42238,15703
42695,15703
42695,15998
" /> 
<polyline style="fill-rule:evenodd;"
points="21773,15709
20946,15709
20946,15079
21773,15079
21773,15709
" /> 
<polyline style="fill-rule:evenodd;"
points="9103,14909
9167,14935
9225,14974
9275,15024
9314,15082
9340,15146
9354,15215
9354,15284
9340,15353
9314,15417
9275,15475
9225,15525
9167,15564
9103,15590
9034,15604
8965,15604
8896,15590
8832,15564
8774,15525
8724,15475
8685,15417
8659,15353
8645,15284
8645,15215
8659,15146
8685,15082
8724,15024
8774,14974
8832,14935
8896,14909
8965,14895
9034,14895
9103,14909
" /> 
<polyline style="fill-rule:evenodd;"
points="31318,15586
30649,15586
30649,15153
31318,15153
31318,15586
" /> 
<polyline style="fill-rule:evenodd;"
points="29350,15586
28681,15586
28681,15153
29350,15153
29350,15586
" /> 
<polyline style="fill-rule:evenodd;"
points="46872,15380
46361,15380
46361,14869
46872,14869
46872,15380
" /> 
<polyline style="fill-rule:evenodd;"
points="47738,15380
47227,15380
47227,14869
47738,14869
47738,15380
" /> 
<polyline style="fill-rule:evenodd;"
points="20442,15303
19419,15303
19419,14830
20442,14830
20442,15303
" /> 
<polyline style="fill-rule:evenodd;"
points="9103,13909
9167,13935
9225,13974
9275,14024
9314,14082
9340,14146
9354,14215
9354,14284
9340,14353
9314,14417
9275,14475
9225,14525
9167,14564
9103,14590
9034,14604
8965,14604
8896,14590
8832,14564
8774,14525
8724,14475
8685,14417
8659,14353
8645,14284
8645,14215
8659,14146
8685,14082
8724,14024
8774,13974
8832,13935
8896,13909
8965,13895
9034,13895
9103,13909
" /> 
<polyline style="fill-rule:evenodd;"
points="20442,14515
19419,14515
19419,14043
20442,14043
20442,14515
" /> 
<polyline style="fill-rule:evenodd;"
points="7346,14068
6913,14068
6913,13399
7346,13399
7346,14068
" /> 
<polyline style="fill-rule:evenodd;"
points="54346,14068
53913,14068
53913,13399
54346,13399
54346,14068
" /> 
<polyline style="fill-rule:evenodd;"
points="6086,14068
5653,14068
5653,13399
6086,13399
6086,14068
" /> 
<polyline style="fill-rule:evenodd;"
points="53086,14068
52653,14068
52653,13399
53086,13399
53086,14068
" /> 
<polyline style="fill-rule:evenodd;"
points="15561,13724
15088,13724
15088,12700
15561,12700
15561,13724
" /> 
<polyline style="fill-rule:evenodd;"
points="17923,13724
17450,13724
17450,12700
17923,12700
17923,13724
" /> 
<polyline style="fill-rule:evenodd;"
points="14773,13724
14301,13724
14301,12700
14773,12700
14773,13724
" /> 
<polyline style="fill-rule:evenodd;"
points="13986,13724
13513,13724
13513,12700
13986,12700
13986,13724
" /> 
<polyline style="fill-rule:evenodd;"
points="19498,13724
19025,13724
19025,12700
19498,12700
19498,13724
" /> 
<polyline style="fill-rule:evenodd;"
points="18710,13724
18238,13724
18238,12700
18710,12700
18710,13724
" /> 
<polyline style="fill-rule:evenodd;"
points="17135,13724
16663,13724
16663,12700
17135,12700
17135,13724
" /> 
<polyline style="fill-rule:evenodd;"
points="16348,13724
15875,13724
15875,12700
16348,12700
16348,13724
" /> 
<polyline style="fill-rule:evenodd;"
points="19381,12175
19066,12175
19066,11624
19381,11624
19381,12175
" /> 
<polyline style="fill-rule:evenodd;"
points="18633,12175
18318,12175
18318,11624
18633,11624
18633,12175
" /> 
<polyline style="fill-rule:evenodd;"
points="17781,12175
17466,12175
17466,11624
17781,11624
17781,12175
" /> 
<polyline style="fill-rule:evenodd;"
points="17033,12175
16718,12175
16718,11624
17033,11624
17033,12175
" /> 
<polyline style="fill-rule:evenodd;"
points="54346,12100
53913,12100
53913,11431
54346,11431
54346,12100
" /> 
<polyline style="fill-rule:evenodd;"
points="53086,12100
52653,12100
52653,11431
53086,11431
53086,12100
" /> 
<polyline style="fill-rule:evenodd;"
points="6086,12100
5653,12100
5653,11431
6086,11431
6086,12100
" /> 
<polyline style="fill-rule:evenodd;"
points="7346,12100
6913,12100
6913,11431
7346,11431
7346,12100
" /> 
<polyline style="fill-rule:evenodd;"
points="40046,11065
39533,11496
39255,11164
39768,10734
40046,11065
" /> 
<polyline style="fill-rule:evenodd;"
points="20744,11164
20466,11496
19953,11065
20231,10734
20744,11164
" /> 
<polyline style="fill-rule:evenodd;"
points="39236,10100
38723,10531
38445,10199
38958,9769
39236,10100
" /> 
<polyline style="fill-rule:evenodd;"
points="21554,10199
21276,10531
20763,10100
21041,9769
21554,10199
" /> 
<polyline style="fill-rule:evenodd;"
points="41554,9800
41041,10230
40763,9899
41276,9468
41554,9800
" /> 
<polyline style="fill-rule:evenodd;"
points="19236,9899
18958,10230
18445,9800
18723,9468
19236,9899
" /> 
<polyline style="fill-rule:evenodd;"
points="40744,8835
40231,9265
39953,8934
40466,8503
40744,8835
" /> 
<polyline style="fill-rule:evenodd;"
points="20046,8934
19768,9265
19255,8835
19533,8503
20046,8934
" /> 
<polyline style="fill-rule:evenodd;"
points="13568,7346
12899,7346
12899,6913
13568,6913
13568,7346
" /> 
<polyline style="fill-rule:evenodd;"
points="47100,7346
46431,7346
46431,6913
47100,6913
47100,7346
" /> 
<polyline style="fill-rule:evenodd;"
points="49068,7346
48399,7346
48399,6913
49068,6913
49068,7346
" /> 
<polyline style="fill-rule:evenodd;"
points="11600,7346
10931,7346
10931,6913
11600,6913
11600,7346
" /> 
<polyline style="fill-rule:evenodd;"
points="49068,6086
48399,6086
48399,5653
49068,5653
49068,6086
" /> 
<polyline style="fill-rule:evenodd;"
points="47100,6086
46431,6086
46431,5653
47100,5653
47100,6086
" /> 
<polyline style="fill-rule:evenodd;"
points="13568,6086
12899,6086
12899,5653
13568,5653
13568,6086
" /> 
<polyline style="fill-rule:evenodd;"
points="11600,6086
10931,6086
10931,5653
11600,5653
11600,6086
" /> 
</g> 
</svg>
