<?xml version="1.0" standalone="no"?>
 <!DOCTYPE svg PUBLIC "-//W3C//DTD SVG 1.1//EN" 
 "http://www.w3.org/Graphics/SVG/1.1/DTD/svg11.dtd"> 
<svg xmlns="http://www.w3.org/2000/svg" version="1.1" 
    width="29.7002cm" height="21.0007cm" viewBox="0 0 116930 82680 ">
<title>SVG Picture created as glowtie-F.SilkS.svg date 2019/01/06 16:51:35 </title>
  <desc>Picture generated by PCBNEW </desc>
<g style="fill:#000000; fill-opacity:1;stroke:#000000; stroke-opacity:1;
stroke-linecap:round; stroke-linejoin:round; "
 transform="translate(0 0) scale(1 1)">
</g>
<g style="fill:#000000; fill-opacity:0.0; 
stroke:#000000; stroke-width:-0.000393701; stroke-opacity:1; 
stroke-linecap:round; stroke-linejoin:round;">
</g>
<g style="fill:#000000; fill-opacity:0.0; 
stroke:#000000; stroke-width:78.7402; stroke-opacity:1; 
stroke-linecap:round; stroke-linejoin:round;">
<path d="M29387 17765
L29481 18028
L29575 17765
" />
<path d="M29800 17634
L29837 17634
L29875 17653
L29893 17671
L29912 17709
L29931 17784
L29931 17878
L29912 17953
L29893 17990
L29875 18009
L29837 18028
L29800 18028
L29762 18009
L29743 17990
L29725 17953
L29706 17878
L29706 17784
L29725 17709
L29743 17671
L29762 17653
L29800 17634
" />
<path d="M30099 17990
L30118 18009
L30099 18028
L30081 18009
L30099 17990
L30099 18028
" />
<path d="M30456 17765
L30456 18028
" />
<path d="M30362 17615
L30268 17896
L30512 17896
" />
</g>
<g style="fill:#000000; fill-opacity:0.0; 
stroke:#000000; stroke-width:59.0551; stroke-opacity:1; 
stroke-linecap:round; stroke-linejoin:round;">
<path d="M7831 18478
L7831 18084
L7962 18365
L8093 18084
L8093 18478
" />
<path d="M8262 18459
L8318 18478
L8412 18478
L8449 18459
L8468 18440
L8487 18403
L8487 18365
L8468 18328
L8449 18309
L8412 18290
L8337 18271
L8299 18253
L8281 18234
L8262 18196
L8262 18159
L8281 18121
L8299 18103
L8337 18084
L8431 18084
L8487 18103
" />
<path d="M7650 17103
L7612 17084
L7556 17084
L7500 17103
L7462 17140
L7443 17178
L7425 17253
L7425 17309
L7443 17384
L7462 17421
L7500 17459
L7556 17478
L7593 17478
L7650 17459
L7668 17440
L7668 17309
L7593 17309
" />
<path d="M7837 17478
L7837 17084
L8062 17478
L8062 17084
" />
<path d="M8249 17478
L8249 17084
L8343 17084
L8399 17103
L8437 17140
L8456 17178
L8474 17253
L8474 17309
L8456 17384
L8437 17421
L8399 17459
L8343 17478
L8249 17478
" />
<path d="M7512 16084
L7756 16084
L7625 16234
L7681 16234
L7718 16253
L7737 16271
L7756 16309
L7756 16403
L7737 16440
L7718 16459
L7681 16478
L7568 16478
L7531 16459
L7512 16440
" />
<path d="M7868 16084
L8000 16478
L8131 16084
" />
<path d="M8224 16084
L8468 16084
L8337 16234
L8393 16234
L8431 16253
L8449 16271
L8468 16309
L8468 16403
L8449 16440
L8431 16459
L8393 16478
L8281 16478
L8243 16459
L8224 16440
" />
<path d="M7900 15084
L8125 15084
" />
<path d="M8012 15478
L8012 15084
" />
<path d="M8218 15084
L8481 15478
" />
<path d="M8481 15084
L8218 15478
" />
<path d="M8084 14478
L7953 14290
" />
<path d="M7859 14478
L7859 14084
L8009 14084
L8046 14103
L8065 14121
L8084 14159
L8084 14215
L8065 14253
L8046 14271
L8009 14290
L7859 14290
" />
<path d="M8215 14084
L8478 14478
" />
<path d="M8478 14084
L8215 14478
" />
</g>
<g style="fill:#000000; fill-opacity:0.0; 
stroke:#000000; stroke-width:47.2441; stroke-opacity:1; 
stroke-linecap:round; stroke-linejoin:round;">
<path d="M18286 22601
L20397 20830
" />
<path d="M19602 24169
L21713 22398
" />
<path d="M21713 22398
L21460 22096
" />
<path d="M10872 24976
L13627 24976
" />
<path d="M10872 27023
L13627 27023
" />
<path d="M13627 27023
L13627 26629
" />
<path d="M7523 18372
L7523 21127
" />
<path d="M5476 18372
L5476 21127
" />
<path d="M5476 21127
L5870 21127
" />
<path d="M7523 11372
L7523 14127
" />
<path d="M5476 11372
L5476 14127
" />
<path d="M5476 14127
L5870 14127
" />
<path d="M13627 7523
L10872 7523
" />
<path d="M13627 5476
L10872 5476
" />
<path d="M10872 5476
L10872 5870
" />
<path d="M20397 11669
L18286 9898
" />
<path d="M21713 10101
L19602 8330
" />
<path d="M19602 8330
L19349 8631
" />
<path d="M31377 17023
L28622 17023
" />
<path d="M31377 14976
L28622 14976
" />
<path d="M28622 14976
L28622 15370
" />
<path d="M41713 9898
L39602 11669
" />
<path d="M40397 8330
L38286 10101
" />
<path d="M38286 10101
L38539 10403
" />
<path d="M49127 7523
L46372 7523
" />
<path d="M49127 5476
L46372 5476
" />
<path d="M46372 5476
L46372 5870
" />
<path d="M32551 20059
L32629 20059
" />
<path d="M31448 21688
L31527 21771
" />
<path d="M31960 21688
L31881 21771
" />
<path d="M31448 21181
L31448 21688
" />
<path d="M31527 21771
L31881 21771
" />
<path d="M31960 21688
L31960 21181
" />
<path d="M30877 21181
L33122 21181
" />
<path d="M31370 20059
L32039 20059
" />
<path d="M30641 20472
L30641 20783
" />
<path d="M33358 20783
L33358 20472
" />
<path d="M52476 14127
L52476 11372
" />
<path d="M54523 14127
L54523 11372
" />
<path d="M54523 11372
L54129 11372
" />
<path d="M52476 21127
L52476 18372
" />
<path d="M54523 21127
L54523 18372
" />
<path d="M54523 18372
L54129 18372
" />
<path d="M46372 24976
L49127 24976
" />
<path d="M46372 27023
L49127 27023
" />
<path d="M49127 27023
L49127 26629
" />
<path d="M39602 20830
L41713 22601
" />
<path d="M38286 22398
L40397 24169
" />
<path d="M40397 24169
L40650 23868
" />
<path d="M23351 17642
L23351 17146
" />
<path d="M23351 14957
L23351 15453
" />
<path d="M21871 17642
L23351 17642
" />
<path d="M20985 14957
L23351 14957
" />
</g>
<g style="fill:#000000; fill-opacity:0.0; 
stroke:#000000; stroke-width:60; stroke-opacity:1; 
stroke-linecap:round; stroke-linejoin:round;">
<path d="M19600 19400
L19900 19400
" />
<path d="M19900 19400
L19900 13100
" />
<path d="M19900 13100
L19600 13100
" />
</g>
<g style="fill:#000000; fill-opacity:0.0; 
stroke:#000000; stroke-width:47.2441; stroke-opacity:1; 
stroke-linecap:round; stroke-linejoin:round;">
<path d="M43254 15591
L42545 15591
" />
<path d="M42545 16858
L43510 16858
" />
<path d="M22796 17965
L22403 17965
" />
<path d="M22403 18634
L22796 18634
" />
<path d="M28196 18065
L27803 18065
" />
<path d="M27803 18734
L28196 18734
" />
<path d="M45284 16771
L45284 16378
" />
<path d="M44615 16378
L44615 16771
" />
<path d="M47758 15400
L47758 14849
" />
<path d="M47758 14849
L46656 14849
" />
<path d="M47758 15400
L46656 15400
" />
<path d="M46341 17099
L46341 17650
" />
<path d="M46341 17650
L47443 17650
" />
<path d="M46341 17099
L47443 17099
" />
<path d="M26287 21636
L29712 21636
" />
<path d="M26287 19112
L29712 19112
" />
<path d="M29712 19112
L29712 21636
" />
<path d="M29712 21152
L26287 21152
" />
<path d="M26287 21636
L26287 19112
" />
<path d="M14936 20846
L14463 20846
" />
<path d="M14463 20153
L14936 20153
" />
<path d="M43136 18171
L42663 18171
" />
<path d="M42663 17478
L43136 17478
" />
<path d="M19086 12246
L18613 12246
" />
<path d="M18613 11553
L19086 11553
" />
<path d="M9346 19463
L9346 19936
" />
<path d="M8653 19936
L8653 19463
" />
<path d="M17486 12246
L17013 12246
" />
<path d="M17013 11553
L17486 11553
" />
<path d="M47286 16221
L46813 16221
" />
<path d="M46813 15528
L47286 15528
" />
<path d="M47286 16971
L46813 16971
" />
<path d="M46813 16278
L47286 16278
" />
</g> 
</svg>
