<?xml version="1.0" standalone="no"?>
 <!DOCTYPE svg PUBLIC "-//W3C//DTD SVG 1.1//EN" 
 "http://www.w3.org/Graphics/SVG/1.1/DTD/svg11.dtd"> 
<svg xmlns="http://www.w3.org/2000/svg" version="1.1" 
    width="29.7002cm" height="21.0007cm" viewBox="0 0 116930 82680 ">
<title>SVG Picture created as glowtie-Edge.Cuts.svg date 2019/01/06 16:51:35 </title>
  <desc>Picture generated by PCBNEW </desc>
<g style="fill:#000000; fill-opacity:1;stroke:#000000; stroke-opacity:1;
stroke-linecap:round; stroke-linejoin:round; "
 transform="translate(0 0) scale(1 1)">
</g>
<g style="fill:#000000; fill-opacity:0.0; 
stroke:#000000; stroke-width:-0.000393701; stroke-opacity:1; 
stroke-linecap:round; stroke-linejoin:round;">
</g>
<g style="fill:#000000; fill-opacity:0.0; 
stroke:#000000; stroke-width:39.3701; stroke-opacity:1; 
stroke-linecap:round; stroke-linejoin:round;">
<path d="M5000 11250
L5000 21250
" />
<path d="M55000 21250
L55000 11250
" />
<path d="M43750 27500
L35000 20250
" />
<path d="M50000 27500
L43750 27500
" />
<path d="M55000 21250
L50000 27500
" />
<path d="M43750 5000
L35000 12250
" />
<path d="M50000 5000
L43750 5000
" />
<path d="M50000 5000
L55000 11250
" />
<path d="M34000 11250
L35000 12250
" />
<path d="M26000 11250
L34000 11250
" />
<path d="M25000 12250
L26000 11250
" />
<path d="M25000 12250
L16250 5000
" />
<path d="M16250 27500
L25000 20250
" />
<path d="M26000 21250
L25000 20250
" />
<path d="M30000 21250
L26000 21250
" />
<path d="M34000 21250
L35000 20250
" />
<path d="M30000 21250
L34000 21250
" />
<path d="M10000 5000
L16250 5000
" />
<path d="M10000 27500
L16250 27500
" />
<path d="M5000 21250
L10000 27500
" />
<path d="M10000 5000
L5000 11250
" />
</g> 
</svg>
