M48
;DRILL file {KiCad (5.0.1-3-g963ef8bb5)} date Sunday, January 06, 2019 at 04:51:40 PM
;FORMAT={-:-/ absolute / inch / decimal}
FMAT,2
INCH,TZ
T1C0.0157
T2C0.0197
T3C0.0217
T4C0.0394
T5C0.0354
%
G90
G05
M72
T1
X1.57Y-2.1
X1.69Y-1.54
X2.04Y-1.285
X2.485Y-1.63
X2.815Y-1.535
X3.1125Y-1.8225
X4.41Y-1.5975
X4.41Y-1.66
X4.45Y-0.81
X4.565Y-1.7375
X4.585Y-1.5925
X4.6Y-1.66
T4
X0.9Y-1.625
X0.9Y-1.725
X0.9Y-1.525
X0.9Y-1.825
X0.9Y-1.425
T5
X3.1409Y-2.063
X3.2591Y-2.063
T2
X2.6622Y-2.0709G85X2.6622Y-2.0454
G05
X2.9378Y-2.0709G85X2.9378Y-2.0454
G05
T3
X2.6957Y-1.9519G85X2.7075Y-1.9519
G05
X2.8925Y-1.9519G85X2.9043Y-1.9519
G05
T0
M30
