G04 #@! TF.FileFunction,Soldermask,Top*
%FSLAX46Y46*%
G04 Gerber Fmt 4.6, Leading zero omitted, Abs format (unit mm)*
G04 Created by KiCad (PCBNEW 4.0.7) date Thursday, August 02, 2018 'PMt' 05:34:58 PM*
%MOMM*%
%LPD*%
G01*
G04 APERTURE LIST*
%ADD10C,0.100000*%
G04 APERTURE END LIST*
D10*
G36*
X124635000Y-68190000D02*
X122935000Y-68190000D01*
X122935000Y-67090000D01*
X124635000Y-67090000D01*
X124635000Y-68190000D01*
X124635000Y-68190000D01*
G37*
G36*
X29465000Y-68190000D02*
X27765000Y-68190000D01*
X27765000Y-67090000D01*
X29465000Y-67090000D01*
X29465000Y-68190000D01*
X29465000Y-68190000D01*
G37*
G36*
X34465000Y-68190000D02*
X32765000Y-68190000D01*
X32765000Y-67090000D01*
X34465000Y-67090000D01*
X34465000Y-68190000D01*
X34465000Y-68190000D01*
G37*
G36*
X119635000Y-68190000D02*
X117935000Y-68190000D01*
X117935000Y-67090000D01*
X119635000Y-67090000D01*
X119635000Y-68190000D01*
X119635000Y-68190000D01*
G37*
G36*
X124635000Y-64990000D02*
X122935000Y-64990000D01*
X122935000Y-63890000D01*
X124635000Y-63890000D01*
X124635000Y-64990000D01*
X124635000Y-64990000D01*
G37*
G36*
X119635000Y-64990000D02*
X117935000Y-64990000D01*
X117935000Y-63890000D01*
X119635000Y-63890000D01*
X119635000Y-64990000D01*
X119635000Y-64990000D01*
G37*
G36*
X34465000Y-64990000D02*
X32765000Y-64990000D01*
X32765000Y-63890000D01*
X34465000Y-63890000D01*
X34465000Y-64990000D01*
X34465000Y-64990000D01*
G37*
G36*
X29465000Y-64990000D02*
X27765000Y-64990000D01*
X27765000Y-63890000D01*
X29465000Y-63890000D01*
X29465000Y-64990000D01*
X29465000Y-64990000D01*
G37*
G36*
X50918021Y-59857595D02*
X49615745Y-60950335D01*
X48908677Y-60107685D01*
X50210953Y-59014945D01*
X50918021Y-59857595D01*
X50918021Y-59857595D01*
G37*
G36*
X103491323Y-60107685D02*
X102784255Y-60950335D01*
X101481979Y-59857595D01*
X102189047Y-59014945D01*
X103491323Y-60107685D01*
X103491323Y-60107685D01*
G37*
G36*
X48861101Y-57406253D02*
X47558825Y-58498993D01*
X46851757Y-57656343D01*
X48154033Y-56563603D01*
X48861101Y-57406253D01*
X48861101Y-57406253D01*
G37*
G36*
X105548243Y-57656343D02*
X104841175Y-58498993D01*
X103538899Y-57406253D01*
X104245967Y-56563603D01*
X105548243Y-57656343D01*
X105548243Y-57656343D01*
G37*
G36*
X54748243Y-56643657D02*
X53445967Y-57736397D01*
X52738899Y-56893747D01*
X54041175Y-55801007D01*
X54748243Y-56643657D01*
X54748243Y-56643657D01*
G37*
G36*
X99661101Y-56893747D02*
X98954033Y-57736397D01*
X97651757Y-56643657D01*
X98358825Y-55801007D01*
X99661101Y-56893747D01*
X99661101Y-56893747D01*
G37*
G36*
X51984256Y-53349666D02*
X52043273Y-53420000D01*
X52691323Y-54192315D01*
X51389047Y-55285055D01*
X50681979Y-54442405D01*
X51984255Y-53349665D01*
X51984256Y-53349666D01*
X51984256Y-53349666D01*
G37*
G36*
X101718021Y-54442405D02*
X101010953Y-55285055D01*
X99708677Y-54192315D01*
X100356727Y-53420000D01*
X100415744Y-53349666D01*
X100415745Y-53349665D01*
X101718021Y-54442405D01*
X101718021Y-54442405D01*
G37*
G36*
X85480000Y-53950000D02*
X84380000Y-53950000D01*
X84380000Y-53050000D01*
X85480000Y-53050000D01*
X85480000Y-53950000D01*
X85480000Y-53950000D01*
G37*
G36*
X78180000Y-53950000D02*
X77080000Y-53950000D01*
X77080000Y-53050000D01*
X78180000Y-53050000D01*
X78180000Y-53950000D01*
X78180000Y-53950000D01*
G37*
G36*
X15460000Y-53515000D02*
X14360000Y-53515000D01*
X14360000Y-51815000D01*
X15460000Y-51815000D01*
X15460000Y-53515000D01*
X15460000Y-53515000D01*
G37*
G36*
X18660000Y-53515000D02*
X17560000Y-53515000D01*
X17560000Y-51815000D01*
X18660000Y-51815000D01*
X18660000Y-53515000D01*
X18660000Y-53515000D01*
G37*
G36*
X134840000Y-53515000D02*
X133740000Y-53515000D01*
X133740000Y-51815000D01*
X134840000Y-51815000D01*
X134840000Y-53515000D01*
X134840000Y-53515000D01*
G37*
G36*
X138040000Y-53515000D02*
X136940000Y-53515000D01*
X136940000Y-51815000D01*
X138040000Y-51815000D01*
X138040000Y-53515000D01*
X138040000Y-53515000D01*
G37*
G36*
X74667843Y-51419726D02*
X74673069Y-51420000D01*
X74698425Y-51420000D01*
X74698636Y-51420139D01*
X74714774Y-51424659D01*
X74750651Y-51428429D01*
X74750664Y-51428433D01*
X74750701Y-51428437D01*
X74871885Y-51465950D01*
X74983475Y-51526287D01*
X75081221Y-51607149D01*
X75161399Y-51705456D01*
X75220955Y-51817465D01*
X75257621Y-51938909D01*
X75270000Y-52065161D01*
X75270000Y-52774839D01*
X75269937Y-52783914D01*
X75255796Y-52909982D01*
X75217438Y-53030901D01*
X75156324Y-53142068D01*
X75074781Y-53239246D01*
X74975916Y-53318736D01*
X74863494Y-53377509D01*
X74741798Y-53413326D01*
X74741764Y-53413329D01*
X74741751Y-53413333D01*
X74715469Y-53415724D01*
X74701776Y-53418957D01*
X74699930Y-53420000D01*
X74670756Y-53420000D01*
X74666224Y-53420206D01*
X74615464Y-53424826D01*
X74572157Y-53420274D01*
X74566931Y-53420000D01*
X73370000Y-53420000D01*
X73370000Y-51420000D01*
X74569244Y-51420000D01*
X74573776Y-51419794D01*
X74624536Y-51415174D01*
X74667843Y-51419726D01*
X74667843Y-51419726D01*
G37*
G36*
X67667843Y-51419726D02*
X67673069Y-51420000D01*
X68870000Y-51420000D01*
X68870000Y-53420000D01*
X67670756Y-53420000D01*
X67666224Y-53420206D01*
X67615464Y-53424826D01*
X67572157Y-53420274D01*
X67566931Y-53420000D01*
X67541575Y-53420000D01*
X67541364Y-53419861D01*
X67525226Y-53415341D01*
X67489349Y-53411571D01*
X67489336Y-53411567D01*
X67489299Y-53411563D01*
X67368115Y-53374050D01*
X67256525Y-53313713D01*
X67158779Y-53232851D01*
X67078601Y-53134544D01*
X67019045Y-53022535D01*
X66982379Y-52901091D01*
X66970000Y-52774839D01*
X66970000Y-52065161D01*
X66970063Y-52056086D01*
X66984204Y-51930018D01*
X67022562Y-51809099D01*
X67083676Y-51697932D01*
X67165219Y-51600754D01*
X67264084Y-51521264D01*
X67376506Y-51462491D01*
X67498202Y-51426674D01*
X67498236Y-51426671D01*
X67498249Y-51426667D01*
X67524531Y-51424276D01*
X67538224Y-51421043D01*
X67540070Y-51420000D01*
X67569244Y-51420000D01*
X67573776Y-51419794D01*
X67624536Y-51415174D01*
X67667843Y-51419726D01*
X67667843Y-51419726D01*
G37*
G36*
X70920000Y-53420000D02*
X69320000Y-53420000D01*
X69320000Y-51420000D01*
X70920000Y-51420000D01*
X70920000Y-53420000D01*
X70920000Y-53420000D01*
G37*
G36*
X72920000Y-53420000D02*
X71320000Y-53420000D01*
X71320000Y-51420000D01*
X72920000Y-51420000D01*
X72920000Y-53420000D01*
X72920000Y-53420000D01*
G37*
G36*
X82832517Y-51900332D02*
X82928571Y-51920049D01*
X83018965Y-51958047D01*
X83100255Y-52012877D01*
X83169348Y-52082454D01*
X83223614Y-52164130D01*
X83260976Y-52254780D01*
X83279955Y-52350629D01*
X83279955Y-52350638D01*
X83280021Y-52350972D01*
X83278457Y-52462970D01*
X83278381Y-52463304D01*
X83278381Y-52463316D01*
X83256737Y-52558587D01*
X83216852Y-52648168D01*
X83160334Y-52728289D01*
X83089321Y-52795913D01*
X83006527Y-52848455D01*
X82915110Y-52883913D01*
X82818547Y-52900940D01*
X82720514Y-52898887D01*
X82624741Y-52877830D01*
X82534889Y-52838574D01*
X82454370Y-52782613D01*
X82386254Y-52712076D01*
X82333139Y-52629658D01*
X82297042Y-52538488D01*
X82279340Y-52442038D01*
X82280710Y-52343995D01*
X82301096Y-52248085D01*
X82339725Y-52157957D01*
X82395123Y-52077050D01*
X82465183Y-52008442D01*
X82547230Y-51954752D01*
X82638146Y-51918020D01*
X82734461Y-51899647D01*
X82832517Y-51900332D01*
X82832517Y-51900332D01*
G37*
G36*
X79832517Y-51900332D02*
X79928571Y-51920049D01*
X80018965Y-51958047D01*
X80100255Y-52012877D01*
X80169348Y-52082454D01*
X80223614Y-52164130D01*
X80260976Y-52254780D01*
X80279955Y-52350629D01*
X80279955Y-52350638D01*
X80280021Y-52350972D01*
X80278457Y-52462970D01*
X80278381Y-52463304D01*
X80278381Y-52463316D01*
X80256737Y-52558587D01*
X80216852Y-52648168D01*
X80160334Y-52728289D01*
X80089321Y-52795913D01*
X80006527Y-52848455D01*
X79915110Y-52883913D01*
X79818547Y-52900940D01*
X79720514Y-52898887D01*
X79624741Y-52877830D01*
X79534889Y-52838574D01*
X79454370Y-52782613D01*
X79386254Y-52712076D01*
X79333139Y-52629658D01*
X79297042Y-52538488D01*
X79279340Y-52442038D01*
X79280710Y-52343995D01*
X79301096Y-52248085D01*
X79339725Y-52157957D01*
X79395123Y-52077050D01*
X79465183Y-52008442D01*
X79547230Y-51954752D01*
X79638146Y-51918020D01*
X79734461Y-51899647D01*
X79832517Y-51900332D01*
X79832517Y-51900332D01*
G37*
G36*
X36888000Y-52570000D02*
X36288000Y-52570000D01*
X36288000Y-51570000D01*
X36888000Y-51570000D01*
X36888000Y-52570000D01*
X36888000Y-52570000D01*
G37*
G36*
X38388000Y-52570000D02*
X37788000Y-52570000D01*
X37788000Y-51570000D01*
X38388000Y-51570000D01*
X38388000Y-52570000D01*
X38388000Y-52570000D01*
G37*
G36*
X85480000Y-51740000D02*
X84380000Y-51740000D01*
X84380000Y-50840000D01*
X85480000Y-50840000D01*
X85480000Y-51740000D01*
X85480000Y-51740000D01*
G37*
G36*
X78180000Y-51740000D02*
X77080000Y-51740000D01*
X77080000Y-50840000D01*
X78180000Y-50840000D01*
X78180000Y-51740000D01*
X78180000Y-51740000D01*
G37*
G36*
X83930000Y-51440000D02*
X83130000Y-51440000D01*
X83130000Y-49840000D01*
X83930000Y-49840000D01*
X83930000Y-51440000D01*
X83930000Y-51440000D01*
G37*
G36*
X82430000Y-51440000D02*
X81630000Y-51440000D01*
X81630000Y-49840000D01*
X82430000Y-49840000D01*
X82430000Y-51440000D01*
X82430000Y-51440000D01*
G37*
G36*
X79430000Y-51440000D02*
X78630000Y-51440000D01*
X78630000Y-49840000D01*
X79430000Y-49840000D01*
X79430000Y-51440000D01*
X79430000Y-51440000D01*
G37*
G36*
X23360000Y-51088000D02*
X22360000Y-51088000D01*
X22360000Y-50488000D01*
X23360000Y-50488000D01*
X23360000Y-51088000D01*
X23360000Y-51088000D01*
G37*
G36*
X73701401Y-48945514D02*
X73850285Y-48976076D01*
X73990392Y-49034971D01*
X74116397Y-49119963D01*
X74223491Y-49227807D01*
X74307596Y-49354397D01*
X74365514Y-49494914D01*
X74394968Y-49643664D01*
X74394968Y-49643678D01*
X74395033Y-49644007D01*
X74392609Y-49817603D01*
X74392533Y-49817937D01*
X74392533Y-49817945D01*
X74358939Y-49965816D01*
X74297121Y-50104658D01*
X74209513Y-50228851D01*
X74099444Y-50333668D01*
X73971123Y-50415103D01*
X73829421Y-50470066D01*
X73679747Y-50496457D01*
X73527795Y-50493274D01*
X73379350Y-50460636D01*
X73240077Y-50399789D01*
X73115276Y-50313050D01*
X73009695Y-50203718D01*
X72927366Y-50075969D01*
X72871416Y-49934655D01*
X72843978Y-49785161D01*
X72846101Y-49633192D01*
X72877700Y-49484531D01*
X72937575Y-49344833D01*
X73023441Y-49219428D01*
X73132032Y-49113087D01*
X73259207Y-49029866D01*
X73400126Y-48972931D01*
X73549416Y-48944453D01*
X73701401Y-48945514D01*
X73701401Y-48945514D01*
G37*
G36*
X68701401Y-48945514D02*
X68850285Y-48976076D01*
X68990392Y-49034971D01*
X69116397Y-49119963D01*
X69223491Y-49227807D01*
X69307596Y-49354397D01*
X69365514Y-49494914D01*
X69394968Y-49643664D01*
X69394968Y-49643678D01*
X69395033Y-49644007D01*
X69392609Y-49817603D01*
X69392533Y-49817937D01*
X69392533Y-49817945D01*
X69358939Y-49965816D01*
X69297121Y-50104658D01*
X69209513Y-50228851D01*
X69099444Y-50333668D01*
X68971123Y-50415103D01*
X68829421Y-50470066D01*
X68679747Y-50496457D01*
X68527795Y-50493274D01*
X68379350Y-50460636D01*
X68240077Y-50399789D01*
X68115276Y-50313050D01*
X68009695Y-50203718D01*
X67927366Y-50075969D01*
X67871416Y-49934655D01*
X67843978Y-49785161D01*
X67846101Y-49633192D01*
X67877700Y-49484531D01*
X67937575Y-49344833D01*
X68023441Y-49219428D01*
X68132032Y-49113087D01*
X68259207Y-49029866D01*
X68400126Y-48972931D01*
X68549416Y-48944453D01*
X68701401Y-48945514D01*
X68701401Y-48945514D01*
G37*
G36*
X71370000Y-50445000D02*
X70870000Y-50445000D01*
X70870000Y-48995000D01*
X71370000Y-48995000D01*
X71370000Y-50445000D01*
X71370000Y-50445000D01*
G37*
G36*
X72020000Y-50445000D02*
X71520000Y-50445000D01*
X71520000Y-48995000D01*
X72020000Y-48995000D01*
X72020000Y-50445000D01*
X72020000Y-50445000D01*
G37*
G36*
X72670000Y-50445000D02*
X72170000Y-50445000D01*
X72170000Y-48995000D01*
X72670000Y-48995000D01*
X72670000Y-50445000D01*
X72670000Y-50445000D01*
G37*
G36*
X70070000Y-50445000D02*
X69570000Y-50445000D01*
X69570000Y-48995000D01*
X70070000Y-48995000D01*
X70070000Y-50445000D01*
X70070000Y-50445000D01*
G37*
G36*
X70720000Y-50445000D02*
X70220000Y-50445000D01*
X70220000Y-48995000D01*
X70720000Y-48995000D01*
X70720000Y-50445000D01*
X70720000Y-50445000D01*
G37*
G36*
X49525000Y-50260000D02*
X48325000Y-50260000D01*
X48325000Y-47660000D01*
X49525000Y-47660000D01*
X49525000Y-50260000D01*
X49525000Y-50260000D01*
G37*
G36*
X47525000Y-50260000D02*
X46325000Y-50260000D01*
X46325000Y-47660000D01*
X47525000Y-47660000D01*
X47525000Y-50260000D01*
X47525000Y-50260000D01*
G37*
G36*
X45525000Y-50260000D02*
X44325000Y-50260000D01*
X44325000Y-47660000D01*
X45525000Y-47660000D01*
X45525000Y-50260000D01*
X45525000Y-50260000D01*
G37*
G36*
X43525000Y-50260000D02*
X42325000Y-50260000D01*
X42325000Y-47660000D01*
X43525000Y-47660000D01*
X43525000Y-50260000D01*
X43525000Y-50260000D01*
G37*
G36*
X41525000Y-50260000D02*
X40325000Y-50260000D01*
X40325000Y-47660000D01*
X41525000Y-47660000D01*
X41525000Y-50260000D01*
X41525000Y-50260000D01*
G37*
G36*
X39525000Y-50260000D02*
X38325000Y-50260000D01*
X38325000Y-47660000D01*
X39525000Y-47660000D01*
X39525000Y-50260000D01*
X39525000Y-50260000D01*
G37*
G36*
X37525000Y-50260000D02*
X36325000Y-50260000D01*
X36325000Y-47660000D01*
X37525000Y-47660000D01*
X37525000Y-50260000D01*
X37525000Y-50260000D01*
G37*
G36*
X35525000Y-50260000D02*
X34325000Y-50260000D01*
X34325000Y-47660000D01*
X35525000Y-47660000D01*
X35525000Y-50260000D01*
X35525000Y-50260000D01*
G37*
G36*
X23360000Y-49588000D02*
X22360000Y-49588000D01*
X22360000Y-48988000D01*
X23360000Y-48988000D01*
X23360000Y-49588000D01*
X23360000Y-49588000D01*
G37*
G36*
X138040000Y-48515000D02*
X136940000Y-48515000D01*
X136940000Y-46815000D01*
X138040000Y-46815000D01*
X138040000Y-48515000D01*
X138040000Y-48515000D01*
G37*
G36*
X134840000Y-48515000D02*
X133740000Y-48515000D01*
X133740000Y-46815000D01*
X134840000Y-46815000D01*
X134840000Y-48515000D01*
X134840000Y-48515000D01*
G37*
G36*
X18660000Y-48515000D02*
X17560000Y-48515000D01*
X17560000Y-46815000D01*
X18660000Y-46815000D01*
X18660000Y-48515000D01*
X18660000Y-48515000D01*
G37*
G36*
X15460000Y-48515000D02*
X14360000Y-48515000D01*
X14360000Y-46815000D01*
X15460000Y-46815000D01*
X15460000Y-48515000D01*
X15460000Y-48515000D01*
G37*
G36*
X70820000Y-47923000D02*
X69920000Y-47923000D01*
X69920000Y-47073000D01*
X70820000Y-47073000D01*
X70820000Y-47923000D01*
X70820000Y-47923000D01*
G37*
G36*
X72320000Y-47923000D02*
X71420000Y-47923000D01*
X71420000Y-47073000D01*
X72320000Y-47073000D01*
X72320000Y-47923000D01*
X72320000Y-47923000D01*
G37*
G36*
X22954531Y-45455597D02*
X23127427Y-45491088D01*
X23290132Y-45559483D01*
X23436458Y-45658180D01*
X23560828Y-45783422D01*
X23658502Y-45930433D01*
X23725757Y-46093608D01*
X23759973Y-46266407D01*
X23759973Y-46266416D01*
X23760039Y-46266750D01*
X23757224Y-46468346D01*
X23757148Y-46468680D01*
X23757148Y-46468691D01*
X23718123Y-46640459D01*
X23646334Y-46801699D01*
X23544592Y-46945927D01*
X23416778Y-47067644D01*
X23267755Y-47162216D01*
X23103199Y-47226043D01*
X22929383Y-47256692D01*
X22752923Y-47252996D01*
X22580536Y-47215094D01*
X22418800Y-47144433D01*
X22273869Y-47043703D01*
X22151260Y-46916738D01*
X22055651Y-46768382D01*
X21990676Y-46604277D01*
X21958814Y-46430672D01*
X21961279Y-46254191D01*
X21997974Y-46081552D01*
X22067506Y-45919322D01*
X22167222Y-45773691D01*
X22293328Y-45650198D01*
X22441015Y-45553555D01*
X22604663Y-45487437D01*
X22778032Y-45454365D01*
X22954531Y-45455597D01*
X22954531Y-45455597D01*
G37*
G36*
X101634000Y-47236000D02*
X101034000Y-47236000D01*
X101034000Y-46236000D01*
X101634000Y-46236000D01*
X101634000Y-47236000D01*
X101634000Y-47236000D01*
G37*
G36*
X100134000Y-47236000D02*
X99534000Y-47236000D01*
X99534000Y-46236000D01*
X100134000Y-46236000D01*
X100134000Y-47236000D01*
X100134000Y-47236000D01*
G37*
G36*
X103243000Y-47024000D02*
X102243000Y-47024000D01*
X102243000Y-46424000D01*
X103243000Y-46424000D01*
X103243000Y-47024000D01*
X103243000Y-47024000D01*
G37*
G36*
X57104000Y-46907000D02*
X56204000Y-46907000D01*
X56204000Y-46057000D01*
X57104000Y-46057000D01*
X57104000Y-46907000D01*
X57104000Y-46907000D01*
G37*
G36*
X58604000Y-46907000D02*
X57704000Y-46907000D01*
X57704000Y-46057000D01*
X58604000Y-46057000D01*
X58604000Y-46907000D01*
X58604000Y-46907000D01*
G37*
G36*
X51925000Y-46870000D02*
X49325000Y-46870000D01*
X49325000Y-45670000D01*
X51925000Y-45670000D01*
X51925000Y-46870000D01*
X51925000Y-46870000D01*
G37*
G36*
X63153000Y-46855000D02*
X62553000Y-46855000D01*
X62553000Y-45855000D01*
X63153000Y-45855000D01*
X63153000Y-46855000D01*
X63153000Y-46855000D01*
G37*
G36*
X61653000Y-46855000D02*
X61053000Y-46855000D01*
X61053000Y-45855000D01*
X61653000Y-45855000D01*
X61653000Y-46855000D01*
X61653000Y-46855000D01*
G37*
G36*
X87741000Y-46131000D02*
X85741000Y-46131000D01*
X85741000Y-43531000D01*
X87741000Y-43531000D01*
X87741000Y-46131000D01*
X87741000Y-46131000D01*
G37*
G36*
X91625000Y-46093000D02*
X91025000Y-46093000D01*
X91025000Y-45093000D01*
X91625000Y-45093000D01*
X91625000Y-46093000D01*
X91625000Y-46093000D01*
G37*
G36*
X93125000Y-46093000D02*
X92525000Y-46093000D01*
X92525000Y-45093000D01*
X93125000Y-45093000D01*
X93125000Y-46093000D01*
X93125000Y-46093000D01*
G37*
G36*
X85366000Y-46006000D02*
X84316000Y-46006000D01*
X84316000Y-45606000D01*
X85366000Y-45606000D01*
X85366000Y-46006000D01*
X85366000Y-46006000D01*
G37*
G36*
X89166000Y-46006000D02*
X88116000Y-46006000D01*
X88116000Y-45606000D01*
X89166000Y-45606000D01*
X89166000Y-46006000D01*
X89166000Y-46006000D01*
G37*
G36*
X101634000Y-45585000D02*
X101034000Y-45585000D01*
X101034000Y-44585000D01*
X101634000Y-44585000D01*
X101634000Y-45585000D01*
X101634000Y-45585000D01*
G37*
G36*
X100134000Y-45585000D02*
X99534000Y-45585000D01*
X99534000Y-44585000D01*
X100134000Y-44585000D01*
X100134000Y-45585000D01*
X100134000Y-45585000D01*
G37*
G36*
X103243000Y-45524000D02*
X102243000Y-45524000D01*
X102243000Y-44924000D01*
X103243000Y-44924000D01*
X103243000Y-45524000D01*
X103243000Y-45524000D01*
G37*
G36*
X98596000Y-45396000D02*
X97746000Y-45396000D01*
X97746000Y-44496000D01*
X98596000Y-44496000D01*
X98596000Y-45396000D01*
X98596000Y-45396000D01*
G37*
G36*
X85366000Y-45356000D02*
X84316000Y-45356000D01*
X84316000Y-44956000D01*
X85366000Y-44956000D01*
X85366000Y-45356000D01*
X85366000Y-45356000D01*
G37*
G36*
X89166000Y-45356000D02*
X88116000Y-45356000D01*
X88116000Y-44956000D01*
X89166000Y-44956000D01*
X89166000Y-45356000D01*
X89166000Y-45356000D01*
G37*
G36*
X63153000Y-45331000D02*
X62553000Y-45331000D01*
X62553000Y-44331000D01*
X63153000Y-44331000D01*
X63153000Y-45331000D01*
X63153000Y-45331000D01*
G37*
G36*
X61653000Y-45331000D02*
X61053000Y-45331000D01*
X61053000Y-44331000D01*
X61653000Y-44331000D01*
X61653000Y-45331000D01*
X61653000Y-45331000D01*
G37*
G36*
X51925000Y-44870000D02*
X49325000Y-44870000D01*
X49325000Y-43670000D01*
X51925000Y-43670000D01*
X51925000Y-44870000D01*
X51925000Y-44870000D01*
G37*
G36*
X22954531Y-42915597D02*
X23127427Y-42951088D01*
X23290132Y-43019483D01*
X23436458Y-43118180D01*
X23560828Y-43243422D01*
X23658502Y-43390433D01*
X23725757Y-43553608D01*
X23759973Y-43726407D01*
X23759973Y-43726416D01*
X23760039Y-43726750D01*
X23757224Y-43928346D01*
X23757148Y-43928680D01*
X23757148Y-43928691D01*
X23718123Y-44100459D01*
X23646334Y-44261699D01*
X23544592Y-44405927D01*
X23416778Y-44527644D01*
X23267755Y-44622216D01*
X23103199Y-44686043D01*
X22929383Y-44716692D01*
X22752923Y-44712996D01*
X22580536Y-44675094D01*
X22418800Y-44604433D01*
X22273869Y-44503703D01*
X22151260Y-44376738D01*
X22055651Y-44228382D01*
X21990676Y-44064277D01*
X21958814Y-43890672D01*
X21961279Y-43714191D01*
X21997974Y-43541552D01*
X22067506Y-43379322D01*
X22167222Y-43233691D01*
X22293328Y-43110198D01*
X22441015Y-43013555D01*
X22604663Y-42947437D01*
X22778032Y-42914365D01*
X22954531Y-42915597D01*
X22954531Y-42915597D01*
G37*
G36*
X89166000Y-44706000D02*
X88116000Y-44706000D01*
X88116000Y-44306000D01*
X89166000Y-44306000D01*
X89166000Y-44706000D01*
X89166000Y-44706000D01*
G37*
G36*
X85366000Y-44706000D02*
X84316000Y-44706000D01*
X84316000Y-44306000D01*
X85366000Y-44306000D01*
X85366000Y-44706000D01*
X85366000Y-44706000D01*
G37*
G36*
X55304000Y-44502000D02*
X53204000Y-44502000D01*
X53204000Y-42902000D01*
X55304000Y-42902000D01*
X55304000Y-44502000D01*
X55304000Y-44502000D01*
G37*
G36*
X93325000Y-44265000D02*
X92425000Y-44265000D01*
X92425000Y-43365000D01*
X93325000Y-43365000D01*
X93325000Y-44265000D01*
X93325000Y-44265000D01*
G37*
G36*
X91725000Y-44265000D02*
X90825000Y-44265000D01*
X90825000Y-43365000D01*
X91725000Y-43365000D01*
X91725000Y-44265000D01*
X91725000Y-44265000D01*
G37*
G36*
X120176000Y-44234000D02*
X118076000Y-44234000D01*
X118076000Y-42634000D01*
X120176000Y-42634000D01*
X120176000Y-44234000D01*
X120176000Y-44234000D01*
G37*
G36*
X89166000Y-44056000D02*
X88116000Y-44056000D01*
X88116000Y-43656000D01*
X89166000Y-43656000D01*
X89166000Y-44056000D01*
X89166000Y-44056000D01*
G37*
G36*
X85366000Y-44056000D02*
X84316000Y-44056000D01*
X84316000Y-43656000D01*
X85366000Y-43656000D01*
X85366000Y-44056000D01*
X85366000Y-44056000D01*
G37*
G36*
X98596000Y-43896000D02*
X97746000Y-43896000D01*
X97746000Y-42996000D01*
X98596000Y-42996000D01*
X98596000Y-43896000D01*
X98596000Y-43896000D01*
G37*
G36*
X100284000Y-43859000D02*
X99384000Y-43859000D01*
X99384000Y-43009000D01*
X100284000Y-43009000D01*
X100284000Y-43859000D01*
X100284000Y-43859000D01*
G37*
G36*
X101784000Y-43859000D02*
X100884000Y-43859000D01*
X100884000Y-43009000D01*
X101784000Y-43009000D01*
X101784000Y-43859000D01*
X101784000Y-43859000D01*
G37*
G36*
X61604000Y-43352000D02*
X59504000Y-43352000D01*
X59504000Y-39452000D01*
X61604000Y-39452000D01*
X61604000Y-43352000D01*
X61604000Y-43352000D01*
G37*
G36*
X51925000Y-42870000D02*
X49325000Y-42870000D01*
X49325000Y-41670000D01*
X51925000Y-41670000D01*
X51925000Y-42870000D01*
X51925000Y-42870000D01*
G37*
G36*
X79550000Y-42790000D02*
X77850000Y-42790000D01*
X77850000Y-41690000D01*
X79550000Y-41690000D01*
X79550000Y-42790000D01*
X79550000Y-42790000D01*
G37*
G36*
X74550000Y-42790000D02*
X72850000Y-42790000D01*
X72850000Y-41690000D01*
X74550000Y-41690000D01*
X74550000Y-42790000D01*
X74550000Y-42790000D01*
G37*
G36*
X55304000Y-42202000D02*
X53204000Y-42202000D01*
X53204000Y-40602000D01*
X55304000Y-40602000D01*
X55304000Y-42202000D01*
X55304000Y-42202000D01*
G37*
G36*
X22954531Y-40375597D02*
X23127427Y-40411088D01*
X23290132Y-40479483D01*
X23436458Y-40578180D01*
X23560828Y-40703422D01*
X23658502Y-40850433D01*
X23725757Y-41013608D01*
X23759973Y-41186407D01*
X23759973Y-41186416D01*
X23760039Y-41186750D01*
X23757224Y-41388346D01*
X23757148Y-41388680D01*
X23757148Y-41388691D01*
X23718123Y-41560459D01*
X23646334Y-41721699D01*
X23544592Y-41865927D01*
X23416778Y-41987644D01*
X23267755Y-42082216D01*
X23103199Y-42146043D01*
X22929383Y-42176692D01*
X22752923Y-42172996D01*
X22580536Y-42135094D01*
X22418800Y-42064433D01*
X22273869Y-41963703D01*
X22151260Y-41836738D01*
X22055651Y-41688382D01*
X21990676Y-41524277D01*
X21958814Y-41350672D01*
X21961279Y-41174191D01*
X21997974Y-41001552D01*
X22067506Y-40839322D01*
X22167222Y-40693691D01*
X22293328Y-40570198D01*
X22441015Y-40473555D01*
X22604663Y-40407437D01*
X22778032Y-40374365D01*
X22954531Y-40375597D01*
X22954531Y-40375597D01*
G37*
G36*
X87283000Y-42156000D02*
X86683000Y-42156000D01*
X86683000Y-41156000D01*
X87283000Y-41156000D01*
X87283000Y-42156000D01*
X87283000Y-42156000D01*
G37*
G36*
X85783000Y-42156000D02*
X85183000Y-42156000D01*
X85183000Y-41156000D01*
X85783000Y-41156000D01*
X85783000Y-42156000D01*
X85783000Y-42156000D01*
G37*
G36*
X101959000Y-41880000D02*
X99209000Y-41880000D01*
X99209000Y-41080000D01*
X101959000Y-41080000D01*
X101959000Y-41880000D01*
X101959000Y-41880000D01*
G37*
G36*
X93325000Y-41598000D02*
X92425000Y-41598000D01*
X92425000Y-40698000D01*
X93325000Y-40698000D01*
X93325000Y-41598000D01*
X93325000Y-41598000D01*
G37*
G36*
X91725000Y-41598000D02*
X90825000Y-41598000D01*
X90825000Y-40698000D01*
X91725000Y-40698000D01*
X91725000Y-41598000D01*
X91725000Y-41598000D01*
G37*
G36*
X98596000Y-41205000D02*
X97746000Y-41205000D01*
X97746000Y-40305000D01*
X98596000Y-40305000D01*
X98596000Y-41205000D01*
X98596000Y-41205000D01*
G37*
G36*
X101809000Y-40945000D02*
X99359000Y-40945000D01*
X99359000Y-39065000D01*
X101809000Y-39065000D01*
X101809000Y-40945000D01*
X101809000Y-40945000D01*
G37*
G36*
X51925000Y-40870000D02*
X49325000Y-40870000D01*
X49325000Y-39670000D01*
X51925000Y-39670000D01*
X51925000Y-40870000D01*
X51925000Y-40870000D01*
G37*
G36*
X89833000Y-40443000D02*
X88983000Y-40443000D01*
X88983000Y-39543000D01*
X89833000Y-39543000D01*
X89833000Y-40443000D01*
X89833000Y-40443000D01*
G37*
G36*
X55304000Y-39902000D02*
X53204000Y-39902000D01*
X53204000Y-38302000D01*
X55304000Y-38302000D01*
X55304000Y-39902000D01*
X55304000Y-39902000D01*
G37*
G36*
X91625000Y-39743000D02*
X91025000Y-39743000D01*
X91025000Y-38743000D01*
X91625000Y-38743000D01*
X91625000Y-39743000D01*
X91625000Y-39743000D01*
G37*
G36*
X93125000Y-39743000D02*
X92525000Y-39743000D01*
X92525000Y-38743000D01*
X93125000Y-38743000D01*
X93125000Y-39743000D01*
X93125000Y-39743000D01*
G37*
G36*
X98596000Y-39705000D02*
X97746000Y-39705000D01*
X97746000Y-38805000D01*
X98596000Y-38805000D01*
X98596000Y-39705000D01*
X98596000Y-39705000D01*
G37*
G36*
X85713000Y-39679000D02*
X84553000Y-39679000D01*
X84553000Y-38929000D01*
X85713000Y-38929000D01*
X85713000Y-39679000D01*
X85713000Y-39679000D01*
G37*
G36*
X87913000Y-39679000D02*
X86753000Y-39679000D01*
X86753000Y-38929000D01*
X87913000Y-38929000D01*
X87913000Y-39679000D01*
X87913000Y-39679000D01*
G37*
G36*
X119386838Y-38062040D02*
X119392251Y-38062078D01*
X119547410Y-38079482D01*
X119696235Y-38126692D01*
X119833055Y-38201909D01*
X119952659Y-38302269D01*
X120050492Y-38423949D01*
X120122828Y-38562315D01*
X120166911Y-38712095D01*
X120166915Y-38712138D01*
X120166916Y-38712142D01*
X120181063Y-38867583D01*
X120164748Y-39022814D01*
X120164745Y-39022824D01*
X120164741Y-39022862D01*
X120118572Y-39172012D01*
X120044311Y-39309354D01*
X119944788Y-39429657D01*
X119823794Y-39528337D01*
X119685937Y-39601637D01*
X119536468Y-39646764D01*
X119381081Y-39662000D01*
X118870885Y-39662000D01*
X118865162Y-39661960D01*
X118859749Y-39661922D01*
X118704590Y-39644518D01*
X118555765Y-39597308D01*
X118418945Y-39522091D01*
X118299341Y-39421731D01*
X118201508Y-39300051D01*
X118129172Y-39161685D01*
X118085089Y-39011905D01*
X118085085Y-39011862D01*
X118085084Y-39011858D01*
X118070937Y-38856417D01*
X118087252Y-38701186D01*
X118087255Y-38701176D01*
X118087259Y-38701138D01*
X118133428Y-38551988D01*
X118207689Y-38414646D01*
X118307212Y-38294343D01*
X118428206Y-38195663D01*
X118566063Y-38122363D01*
X118715532Y-38077236D01*
X118870919Y-38062000D01*
X119381115Y-38062000D01*
X119386838Y-38062040D01*
X119386838Y-38062040D01*
G37*
G36*
X22954531Y-37835597D02*
X23127427Y-37871088D01*
X23290132Y-37939483D01*
X23436458Y-38038180D01*
X23560828Y-38163422D01*
X23658502Y-38310433D01*
X23725757Y-38473608D01*
X23759973Y-38646407D01*
X23759973Y-38646416D01*
X23760039Y-38646750D01*
X23757224Y-38848346D01*
X23757148Y-38848680D01*
X23757148Y-38848691D01*
X23718123Y-39020459D01*
X23646334Y-39181699D01*
X23544592Y-39325927D01*
X23416778Y-39447644D01*
X23267755Y-39542216D01*
X23103199Y-39606043D01*
X22929383Y-39636692D01*
X22752923Y-39632996D01*
X22580536Y-39595094D01*
X22418800Y-39524433D01*
X22273869Y-39423703D01*
X22151260Y-39296738D01*
X22055651Y-39148382D01*
X21990676Y-38984277D01*
X21958814Y-38810672D01*
X21961279Y-38634191D01*
X21997974Y-38461552D01*
X22067506Y-38299322D01*
X22167222Y-38153691D01*
X22293328Y-38030198D01*
X22441015Y-37933555D01*
X22604663Y-37867437D01*
X22778032Y-37834365D01*
X22954531Y-37835597D01*
X22954531Y-37835597D01*
G37*
G36*
X79550000Y-39590000D02*
X77850000Y-39590000D01*
X77850000Y-38490000D01*
X79550000Y-38490000D01*
X79550000Y-39590000D01*
X79550000Y-39590000D01*
G37*
G36*
X74550000Y-39590000D02*
X72850000Y-39590000D01*
X72850000Y-38490000D01*
X74550000Y-38490000D01*
X74550000Y-39590000D01*
X74550000Y-39590000D01*
G37*
G36*
X89833000Y-38943000D02*
X88983000Y-38943000D01*
X88983000Y-38043000D01*
X89833000Y-38043000D01*
X89833000Y-38943000D01*
X89833000Y-38943000D01*
G37*
G36*
X101959000Y-38930000D02*
X99209000Y-38930000D01*
X99209000Y-38130000D01*
X101959000Y-38130000D01*
X101959000Y-38930000D01*
X101959000Y-38930000D01*
G37*
G36*
X51925000Y-38870000D02*
X49325000Y-38870000D01*
X49325000Y-37670000D01*
X51925000Y-37670000D01*
X51925000Y-38870000D01*
X51925000Y-38870000D01*
G37*
G36*
X87913000Y-38729000D02*
X86753000Y-38729000D01*
X86753000Y-37979000D01*
X87913000Y-37979000D01*
X87913000Y-38729000D01*
X87913000Y-38729000D01*
G37*
G36*
X91625000Y-37838000D02*
X91025000Y-37838000D01*
X91025000Y-36838000D01*
X91625000Y-36838000D01*
X91625000Y-37838000D01*
X91625000Y-37838000D01*
G37*
G36*
X93125000Y-37838000D02*
X92525000Y-37838000D01*
X92525000Y-36838000D01*
X93125000Y-36838000D01*
X93125000Y-37838000D01*
X93125000Y-37838000D01*
G37*
G36*
X85713000Y-37779000D02*
X84553000Y-37779000D01*
X84553000Y-37029000D01*
X85713000Y-37029000D01*
X85713000Y-37779000D01*
X85713000Y-37779000D01*
G37*
G36*
X87913000Y-37779000D02*
X86753000Y-37779000D01*
X86753000Y-37029000D01*
X87913000Y-37029000D01*
X87913000Y-37779000D01*
X87913000Y-37779000D01*
G37*
G36*
X22954531Y-35295597D02*
X23127427Y-35331088D01*
X23290132Y-35399483D01*
X23436458Y-35498180D01*
X23560828Y-35623422D01*
X23658502Y-35770433D01*
X23725757Y-35933608D01*
X23759973Y-36106407D01*
X23759973Y-36106416D01*
X23760039Y-36106750D01*
X23757224Y-36308346D01*
X23757148Y-36308680D01*
X23757148Y-36308691D01*
X23718123Y-36480459D01*
X23646334Y-36641699D01*
X23544592Y-36785927D01*
X23416778Y-36907644D01*
X23267755Y-37002216D01*
X23103199Y-37066043D01*
X22929383Y-37096692D01*
X22752923Y-37092996D01*
X22580536Y-37055094D01*
X22418800Y-36984433D01*
X22273869Y-36883703D01*
X22151260Y-36756738D01*
X22055651Y-36608382D01*
X21990676Y-36444277D01*
X21958814Y-36270672D01*
X21961279Y-36094191D01*
X21997974Y-35921552D01*
X22067506Y-35759322D01*
X22167222Y-35613691D01*
X22293328Y-35490198D01*
X22441015Y-35393555D01*
X22604663Y-35327437D01*
X22778032Y-35294365D01*
X22954531Y-35295597D01*
X22954531Y-35295597D01*
G37*
G36*
X51925000Y-36870000D02*
X49325000Y-36870000D01*
X49325000Y-35670000D01*
X51925000Y-35670000D01*
X51925000Y-36870000D01*
X51925000Y-36870000D01*
G37*
G36*
X104311000Y-36379000D02*
X103461000Y-36379000D01*
X103461000Y-35479000D01*
X104311000Y-35479000D01*
X104311000Y-36379000D01*
X104311000Y-36379000D01*
G37*
G36*
X102406000Y-36379000D02*
X101556000Y-36379000D01*
X101556000Y-35479000D01*
X102406000Y-35479000D01*
X102406000Y-36379000D01*
X102406000Y-36379000D01*
G37*
G36*
X99117000Y-36366000D02*
X98217000Y-36366000D01*
X98217000Y-35516000D01*
X99117000Y-35516000D01*
X99117000Y-36366000D01*
X99117000Y-36366000D01*
G37*
G36*
X97617000Y-36366000D02*
X96717000Y-36366000D01*
X96717000Y-35516000D01*
X97617000Y-35516000D01*
X97617000Y-36366000D01*
X97617000Y-36366000D01*
G37*
G36*
X91725000Y-35883000D02*
X90825000Y-35883000D01*
X90825000Y-34983000D01*
X91725000Y-34983000D01*
X91725000Y-35883000D01*
X91725000Y-35883000D01*
G37*
G36*
X93325000Y-35883000D02*
X92425000Y-35883000D01*
X92425000Y-34983000D01*
X93325000Y-34983000D01*
X93325000Y-35883000D01*
X93325000Y-35883000D01*
G37*
G36*
X15460000Y-35735000D02*
X14360000Y-35735000D01*
X14360000Y-34035000D01*
X15460000Y-34035000D01*
X15460000Y-35735000D01*
X15460000Y-35735000D01*
G37*
G36*
X18660000Y-35735000D02*
X17560000Y-35735000D01*
X17560000Y-34035000D01*
X18660000Y-34035000D01*
X18660000Y-35735000D01*
X18660000Y-35735000D01*
G37*
G36*
X134840000Y-35735000D02*
X133740000Y-35735000D01*
X133740000Y-34035000D01*
X134840000Y-34035000D01*
X134840000Y-35735000D01*
X134840000Y-35735000D01*
G37*
G36*
X138040000Y-35735000D02*
X136940000Y-35735000D01*
X136940000Y-34035000D01*
X138040000Y-34035000D01*
X138040000Y-35735000D01*
X138040000Y-35735000D01*
G37*
G36*
X104311000Y-34879000D02*
X103461000Y-34879000D01*
X103461000Y-33979000D01*
X104311000Y-33979000D01*
X104311000Y-34879000D01*
X104311000Y-34879000D01*
G37*
G36*
X102406000Y-34879000D02*
X101556000Y-34879000D01*
X101556000Y-33979000D01*
X102406000Y-33979000D01*
X102406000Y-34879000D01*
X102406000Y-34879000D01*
G37*
G36*
X49525000Y-34860000D02*
X48325000Y-34860000D01*
X48325000Y-32260000D01*
X49525000Y-32260000D01*
X49525000Y-34860000D01*
X49525000Y-34860000D01*
G37*
G36*
X47525000Y-34860000D02*
X46325000Y-34860000D01*
X46325000Y-32260000D01*
X47525000Y-32260000D01*
X47525000Y-34860000D01*
X47525000Y-34860000D01*
G37*
G36*
X45525000Y-34860000D02*
X44325000Y-34860000D01*
X44325000Y-32260000D01*
X45525000Y-32260000D01*
X45525000Y-34860000D01*
X45525000Y-34860000D01*
G37*
G36*
X43525000Y-34860000D02*
X42325000Y-34860000D01*
X42325000Y-32260000D01*
X43525000Y-32260000D01*
X43525000Y-34860000D01*
X43525000Y-34860000D01*
G37*
G36*
X41525000Y-34860000D02*
X40325000Y-34860000D01*
X40325000Y-32260000D01*
X41525000Y-32260000D01*
X41525000Y-34860000D01*
X41525000Y-34860000D01*
G37*
G36*
X39525000Y-34860000D02*
X38325000Y-34860000D01*
X38325000Y-32260000D01*
X39525000Y-32260000D01*
X39525000Y-34860000D01*
X39525000Y-34860000D01*
G37*
G36*
X37525000Y-34860000D02*
X36325000Y-34860000D01*
X36325000Y-32260000D01*
X37525000Y-32260000D01*
X37525000Y-34860000D01*
X37525000Y-34860000D01*
G37*
G36*
X35525000Y-34860000D02*
X34325000Y-34860000D01*
X34325000Y-32260000D01*
X35525000Y-32260000D01*
X35525000Y-34860000D01*
X35525000Y-34860000D01*
G37*
G36*
X99117000Y-34842000D02*
X98217000Y-34842000D01*
X98217000Y-33992000D01*
X99117000Y-33992000D01*
X99117000Y-34842000D01*
X99117000Y-34842000D01*
G37*
G36*
X97617000Y-34842000D02*
X96717000Y-34842000D01*
X96717000Y-33992000D01*
X97617000Y-33992000D01*
X97617000Y-34842000D01*
X97617000Y-34842000D01*
G37*
G36*
X47556000Y-31234000D02*
X46956000Y-31234000D01*
X46956000Y-30234000D01*
X47556000Y-30234000D01*
X47556000Y-31234000D01*
X47556000Y-31234000D01*
G37*
G36*
X49056000Y-31234000D02*
X48456000Y-31234000D01*
X48456000Y-30234000D01*
X49056000Y-30234000D01*
X49056000Y-31234000D01*
X49056000Y-31234000D01*
G37*
G36*
X42984000Y-31234000D02*
X42384000Y-31234000D01*
X42384000Y-30234000D01*
X42984000Y-30234000D01*
X42984000Y-31234000D01*
X42984000Y-31234000D01*
G37*
G36*
X44484000Y-31234000D02*
X43884000Y-31234000D01*
X43884000Y-30234000D01*
X44484000Y-30234000D01*
X44484000Y-31234000D01*
X44484000Y-31234000D01*
G37*
G36*
X138040000Y-30735000D02*
X136940000Y-30735000D01*
X136940000Y-29035000D01*
X138040000Y-29035000D01*
X138040000Y-30735000D01*
X138040000Y-30735000D01*
G37*
G36*
X134840000Y-30735000D02*
X133740000Y-30735000D01*
X133740000Y-29035000D01*
X134840000Y-29035000D01*
X134840000Y-30735000D01*
X134840000Y-30735000D01*
G37*
G36*
X18660000Y-30735000D02*
X17560000Y-30735000D01*
X17560000Y-29035000D01*
X18660000Y-29035000D01*
X18660000Y-30735000D01*
X18660000Y-30735000D01*
G37*
G36*
X15460000Y-30735000D02*
X14360000Y-30735000D01*
X14360000Y-29035000D01*
X15460000Y-29035000D01*
X15460000Y-30735000D01*
X15460000Y-30735000D01*
G37*
G36*
X101718021Y-28107595D02*
X100415745Y-29200335D01*
X99708677Y-28357685D01*
X101010953Y-27264945D01*
X101718021Y-28107595D01*
X101718021Y-28107595D01*
G37*
G36*
X52691323Y-28357685D02*
X51984255Y-29200335D01*
X50681979Y-28107595D01*
X51389047Y-27264945D01*
X52691323Y-28357685D01*
X52691323Y-28357685D01*
G37*
G36*
X54748243Y-25906343D02*
X54041175Y-26748993D01*
X52738899Y-25656253D01*
X53445967Y-24813603D01*
X54748243Y-25906343D01*
X54748243Y-25906343D01*
G37*
G36*
X99661101Y-25656253D02*
X98358825Y-26748993D01*
X97651757Y-25906343D01*
X98954033Y-24813603D01*
X99661101Y-25656253D01*
X99661101Y-25656253D01*
G37*
G36*
X105548243Y-24893657D02*
X104245967Y-25986397D01*
X103538899Y-25143747D01*
X104841175Y-24051007D01*
X105548243Y-24893657D01*
X105548243Y-24893657D01*
G37*
G36*
X48861101Y-25143747D02*
X48154033Y-25986397D01*
X46851757Y-24893657D01*
X47558825Y-24051007D01*
X48861101Y-25143747D01*
X48861101Y-25143747D01*
G37*
G36*
X50918021Y-22692405D02*
X50210953Y-23535055D01*
X48908677Y-22442315D01*
X49615745Y-21599665D01*
X50918021Y-22692405D01*
X50918021Y-22692405D01*
G37*
G36*
X103491323Y-22442315D02*
X102189047Y-23535055D01*
X101481979Y-22692405D01*
X102784255Y-21599665D01*
X103491323Y-22442315D01*
X103491323Y-22442315D01*
G37*
G36*
X119635000Y-18660000D02*
X117935000Y-18660000D01*
X117935000Y-17560000D01*
X119635000Y-17560000D01*
X119635000Y-18660000D01*
X119635000Y-18660000D01*
G37*
G36*
X124635000Y-18660000D02*
X122935000Y-18660000D01*
X122935000Y-17560000D01*
X124635000Y-17560000D01*
X124635000Y-18660000D01*
X124635000Y-18660000D01*
G37*
G36*
X29465000Y-18660000D02*
X27765000Y-18660000D01*
X27765000Y-17560000D01*
X29465000Y-17560000D01*
X29465000Y-18660000D01*
X29465000Y-18660000D01*
G37*
G36*
X34465000Y-18660000D02*
X32765000Y-18660000D01*
X32765000Y-17560000D01*
X34465000Y-17560000D01*
X34465000Y-18660000D01*
X34465000Y-18660000D01*
G37*
G36*
X34465000Y-15460000D02*
X32765000Y-15460000D01*
X32765000Y-14360000D01*
X34465000Y-14360000D01*
X34465000Y-15460000D01*
X34465000Y-15460000D01*
G37*
G36*
X119635000Y-15460000D02*
X117935000Y-15460000D01*
X117935000Y-14360000D01*
X119635000Y-14360000D01*
X119635000Y-15460000D01*
X119635000Y-15460000D01*
G37*
G36*
X124635000Y-15460000D02*
X122935000Y-15460000D01*
X122935000Y-14360000D01*
X124635000Y-14360000D01*
X124635000Y-15460000D01*
X124635000Y-15460000D01*
G37*
G36*
X29465000Y-15460000D02*
X27765000Y-15460000D01*
X27765000Y-14360000D01*
X29465000Y-14360000D01*
X29465000Y-15460000D01*
X29465000Y-15460000D01*
G37*
M02*
