G04 #@! TF.GenerationSoftware,KiCad,Pcbnew,(5.0.2-5-10.14)*
G04 #@! TF.CreationDate,2019-03-10T19:37:15-04:00*
G04 #@! TF.ProjectId,glowtie,676c6f77-7469-4652-9e6b-696361645f70,rev?*
G04 #@! TF.SameCoordinates,Original*
G04 #@! TF.FileFunction,Soldermask,Bot*
G04 #@! TF.FilePolarity,Negative*
%FSLAX46Y46*%
G04 Gerber Fmt 4.6, Leading zero omitted, Abs format (unit mm)*
G04 Created by KiCad (PCBNEW (5.0.2-5-10.14)) date Sunday, March 10, 2019 at 07:37:15 PM*
%MOMM*%
%LPD*%
G01*
G04 APERTURE LIST*
%ADD10C,0.100000*%
G04 APERTURE END LIST*
D10*
G36*
X74860644Y-51483704D02*
X75010784Y-51545894D01*
X75010785Y-51545895D01*
X75145908Y-51636181D01*
X75260819Y-51751092D01*
X75321147Y-51841379D01*
X75351106Y-51886216D01*
X75413296Y-52036356D01*
X75445000Y-52195745D01*
X75445000Y-52358255D01*
X75413296Y-52517644D01*
X75351106Y-52667784D01*
X75351105Y-52667785D01*
X75260819Y-52802908D01*
X75145908Y-52917819D01*
X75055621Y-52978147D01*
X75010784Y-53008106D01*
X74860644Y-53070296D01*
X74701256Y-53102000D01*
X74538744Y-53102000D01*
X74379356Y-53070296D01*
X74229216Y-53008106D01*
X74184379Y-52978147D01*
X74094092Y-52917819D01*
X73979181Y-52802908D01*
X73888895Y-52667785D01*
X73888894Y-52667784D01*
X73826704Y-52517644D01*
X73795000Y-52358255D01*
X73795000Y-52195745D01*
X73826704Y-52036356D01*
X73888894Y-51886216D01*
X73918853Y-51841379D01*
X73979181Y-51751092D01*
X74094092Y-51636181D01*
X74229215Y-51545895D01*
X74229216Y-51545894D01*
X74379356Y-51483704D01*
X74459051Y-51467852D01*
X74538744Y-51452000D01*
X74701256Y-51452000D01*
X74860644Y-51483704D01*
X74860644Y-51483704D01*
G37*
G36*
X67860644Y-51483704D02*
X68010784Y-51545894D01*
X68010785Y-51545895D01*
X68145908Y-51636181D01*
X68260819Y-51751092D01*
X68321147Y-51841379D01*
X68351106Y-51886216D01*
X68413296Y-52036356D01*
X68445000Y-52195745D01*
X68445000Y-52358255D01*
X68413296Y-52517644D01*
X68351106Y-52667784D01*
X68351105Y-52667785D01*
X68260819Y-52802908D01*
X68145908Y-52917819D01*
X68055621Y-52978147D01*
X68010784Y-53008106D01*
X67860644Y-53070296D01*
X67701256Y-53102000D01*
X67538744Y-53102000D01*
X67379356Y-53070296D01*
X67229216Y-53008106D01*
X67184379Y-52978147D01*
X67094092Y-52917819D01*
X66979181Y-52802908D01*
X66888895Y-52667785D01*
X66888894Y-52667784D01*
X66826704Y-52517644D01*
X66795000Y-52358255D01*
X66795000Y-52195745D01*
X66826704Y-52036356D01*
X66888894Y-51886216D01*
X66918853Y-51841379D01*
X66979181Y-51751092D01*
X67094092Y-51636181D01*
X67229215Y-51545895D01*
X67229216Y-51545894D01*
X67379356Y-51483704D01*
X67459051Y-51467852D01*
X67538744Y-51452000D01*
X67701256Y-51452000D01*
X67860644Y-51483704D01*
X67860644Y-51483704D01*
G37*
G36*
X82925843Y-51919214D02*
X82925846Y-51919215D01*
X82925845Y-51919215D01*
X83016839Y-51956906D01*
X83071311Y-51993303D01*
X83098733Y-52011626D01*
X83168374Y-52081267D01*
X83168375Y-52081269D01*
X83223094Y-52163161D01*
X83223094Y-52163162D01*
X83260786Y-52254157D01*
X83280000Y-52350753D01*
X83280000Y-52449247D01*
X83260786Y-52545843D01*
X83260785Y-52545845D01*
X83223094Y-52636839D01*
X83202417Y-52667784D01*
X83168374Y-52718733D01*
X83098733Y-52788374D01*
X83076983Y-52802907D01*
X83016839Y-52843094D01*
X82952495Y-52869746D01*
X82925843Y-52880786D01*
X82829247Y-52900000D01*
X82730753Y-52900000D01*
X82634157Y-52880786D01*
X82607505Y-52869746D01*
X82543161Y-52843094D01*
X82483017Y-52802907D01*
X82461267Y-52788374D01*
X82391626Y-52718733D01*
X82357583Y-52667784D01*
X82336906Y-52636839D01*
X82299215Y-52545845D01*
X82299214Y-52545843D01*
X82280000Y-52449247D01*
X82280000Y-52350753D01*
X82299214Y-52254157D01*
X82336906Y-52163162D01*
X82336906Y-52163161D01*
X82391625Y-52081269D01*
X82391626Y-52081267D01*
X82461267Y-52011626D01*
X82488689Y-51993303D01*
X82543161Y-51956906D01*
X82634155Y-51919215D01*
X82634154Y-51919215D01*
X82634157Y-51919214D01*
X82730753Y-51900000D01*
X82829247Y-51900000D01*
X82925843Y-51919214D01*
X82925843Y-51919214D01*
G37*
G36*
X79925843Y-51919214D02*
X79925846Y-51919215D01*
X79925845Y-51919215D01*
X80016839Y-51956906D01*
X80071311Y-51993303D01*
X80098733Y-52011626D01*
X80168374Y-52081267D01*
X80168375Y-52081269D01*
X80223094Y-52163161D01*
X80223094Y-52163162D01*
X80260786Y-52254157D01*
X80280000Y-52350753D01*
X80280000Y-52449247D01*
X80260786Y-52545843D01*
X80260785Y-52545845D01*
X80223094Y-52636839D01*
X80202417Y-52667784D01*
X80168374Y-52718733D01*
X80098733Y-52788374D01*
X80076983Y-52802907D01*
X80016839Y-52843094D01*
X79952495Y-52869746D01*
X79925843Y-52880786D01*
X79829247Y-52900000D01*
X79730753Y-52900000D01*
X79634157Y-52880786D01*
X79607505Y-52869746D01*
X79543161Y-52843094D01*
X79483017Y-52802907D01*
X79461267Y-52788374D01*
X79391626Y-52718733D01*
X79357583Y-52667784D01*
X79336906Y-52636839D01*
X79299215Y-52545845D01*
X79299214Y-52545843D01*
X79280000Y-52449247D01*
X79280000Y-52350753D01*
X79299214Y-52254157D01*
X79336906Y-52163162D01*
X79336906Y-52163161D01*
X79391625Y-52081269D01*
X79391626Y-52081267D01*
X79461267Y-52011626D01*
X79488689Y-51993303D01*
X79543161Y-51956906D01*
X79634155Y-51919215D01*
X79634154Y-51919215D01*
X79634157Y-51919214D01*
X79730753Y-51900000D01*
X79829247Y-51900000D01*
X79925843Y-51919214D01*
X79925843Y-51919214D01*
G37*
G36*
X73773136Y-49072175D02*
X73829105Y-49095358D01*
X73868681Y-49111751D01*
X73925877Y-49149968D01*
X73954670Y-49169207D01*
X74027793Y-49242330D01*
X74027794Y-49242332D01*
X74085249Y-49328319D01*
X74085249Y-49328320D01*
X74124825Y-49423864D01*
X74145000Y-49525291D01*
X74145000Y-49628709D01*
X74124825Y-49730136D01*
X74101642Y-49786105D01*
X74085249Y-49825681D01*
X74047032Y-49882877D01*
X74027793Y-49911670D01*
X73954670Y-49984793D01*
X73925877Y-50004032D01*
X73868681Y-50042249D01*
X73829105Y-50058642D01*
X73773136Y-50081825D01*
X73671709Y-50102000D01*
X73568291Y-50102000D01*
X73466864Y-50081825D01*
X73410895Y-50058642D01*
X73371319Y-50042249D01*
X73314123Y-50004032D01*
X73285330Y-49984793D01*
X73212207Y-49911670D01*
X73192968Y-49882877D01*
X73154751Y-49825681D01*
X73138358Y-49786105D01*
X73115175Y-49730136D01*
X73095000Y-49628709D01*
X73095000Y-49525291D01*
X73115175Y-49423864D01*
X73154751Y-49328320D01*
X73154751Y-49328319D01*
X73212206Y-49242332D01*
X73212207Y-49242330D01*
X73285330Y-49169207D01*
X73314123Y-49149968D01*
X73371319Y-49111751D01*
X73410895Y-49095358D01*
X73466864Y-49072175D01*
X73568291Y-49052000D01*
X73671709Y-49052000D01*
X73773136Y-49072175D01*
X73773136Y-49072175D01*
G37*
G36*
X68773136Y-49072175D02*
X68829105Y-49095358D01*
X68868681Y-49111751D01*
X68925877Y-49149968D01*
X68954670Y-49169207D01*
X69027793Y-49242330D01*
X69027794Y-49242332D01*
X69085249Y-49328319D01*
X69085249Y-49328320D01*
X69124825Y-49423864D01*
X69145000Y-49525291D01*
X69145000Y-49628709D01*
X69124825Y-49730136D01*
X69101642Y-49786105D01*
X69085249Y-49825681D01*
X69047032Y-49882877D01*
X69027793Y-49911670D01*
X68954670Y-49984793D01*
X68925877Y-50004032D01*
X68868681Y-50042249D01*
X68829105Y-50058642D01*
X68773136Y-50081825D01*
X68671709Y-50102000D01*
X68568291Y-50102000D01*
X68466864Y-50081825D01*
X68410895Y-50058642D01*
X68371319Y-50042249D01*
X68314123Y-50004032D01*
X68285330Y-49984793D01*
X68212207Y-49911670D01*
X68192968Y-49882877D01*
X68154751Y-49825681D01*
X68138358Y-49786105D01*
X68115175Y-49730136D01*
X68095000Y-49628709D01*
X68095000Y-49525291D01*
X68115175Y-49423864D01*
X68154751Y-49328320D01*
X68154751Y-49328319D01*
X68212206Y-49242332D01*
X68212207Y-49242330D01*
X68285330Y-49169207D01*
X68314123Y-49149968D01*
X68371319Y-49111751D01*
X68410895Y-49095358D01*
X68466864Y-49072175D01*
X68568291Y-49052000D01*
X68671709Y-49052000D01*
X68773136Y-49072175D01*
X68773136Y-49072175D01*
G37*
G36*
X120930000Y-28855000D02*
X117830000Y-28855000D01*
X117830000Y-25755000D01*
X120930000Y-25755000D01*
X120930000Y-28855000D01*
X120930000Y-28855000D01*
G37*
G36*
X114475390Y-25784782D02*
X114625118Y-25814565D01*
X114766159Y-25872987D01*
X114907201Y-25931408D01*
X115161069Y-26101037D01*
X115376963Y-26316931D01*
X115546592Y-26570799D01*
X115663435Y-26852883D01*
X115723000Y-27152337D01*
X115723000Y-27457663D01*
X115663435Y-27757117D01*
X115546592Y-28039201D01*
X115376963Y-28293069D01*
X115161069Y-28508963D01*
X114907201Y-28678592D01*
X114766159Y-28737013D01*
X114625118Y-28795435D01*
X114475390Y-28825217D01*
X114325663Y-28855000D01*
X114020337Y-28855000D01*
X113870610Y-28825217D01*
X113720882Y-28795435D01*
X113579841Y-28737013D01*
X113438799Y-28678592D01*
X113184931Y-28508963D01*
X112969037Y-28293069D01*
X112799408Y-28039201D01*
X112682565Y-27757117D01*
X112623000Y-27457663D01*
X112623000Y-27152337D01*
X112682565Y-26852883D01*
X112799408Y-26570799D01*
X112969037Y-26316931D01*
X113184931Y-26101037D01*
X113438799Y-25931408D01*
X113579841Y-25872987D01*
X113720882Y-25814565D01*
X113870610Y-25784782D01*
X114020337Y-25755000D01*
X114325663Y-25755000D01*
X114475390Y-25784782D01*
X114475390Y-25784782D01*
G37*
G36*
X39650000Y-28855000D02*
X36550000Y-28855000D01*
X36550000Y-25755000D01*
X39650000Y-25755000D01*
X39650000Y-28855000D01*
X39650000Y-28855000D01*
G37*
G36*
X33322390Y-25784782D02*
X33472118Y-25814565D01*
X33613159Y-25872987D01*
X33754201Y-25931408D01*
X34008069Y-26101037D01*
X34223963Y-26316931D01*
X34393592Y-26570799D01*
X34510435Y-26852883D01*
X34570000Y-27152337D01*
X34570000Y-27457663D01*
X34510435Y-27757117D01*
X34393592Y-28039201D01*
X34223963Y-28293069D01*
X34008069Y-28508963D01*
X33754201Y-28678592D01*
X33613159Y-28737013D01*
X33472118Y-28795435D01*
X33322390Y-28825217D01*
X33172663Y-28855000D01*
X32867337Y-28855000D01*
X32717610Y-28825217D01*
X32567882Y-28795435D01*
X32426841Y-28737013D01*
X32285799Y-28678592D01*
X32031931Y-28508963D01*
X31816037Y-28293069D01*
X31646408Y-28039201D01*
X31529565Y-27757117D01*
X31470000Y-27457663D01*
X31470000Y-27152337D01*
X31529565Y-26852883D01*
X31646408Y-26570799D01*
X31816037Y-26316931D01*
X32031931Y-26101037D01*
X32285799Y-25931408D01*
X32426841Y-25872987D01*
X32567882Y-25814565D01*
X32717610Y-25784782D01*
X32867337Y-25755000D01*
X33172663Y-25755000D01*
X33322390Y-25784782D01*
X33322390Y-25784782D01*
G37*
M02*
