M48
;DRILL file {KiCad 4.0.5} date Sunday, March 11, 2018 'PMt' 06:28:54 PM
;FORMAT={2:4/ absolute / inch / suppress leading zeros}
FMAT,2
INCH,TZ
T1C0.016
T2C0.024
T3C0.026
T4C0.033
%
G90
G05
M72
T1
X37000Y-21000
X43000Y-17000
X48000Y-12250
X48000Y-16500
T3
X13750Y-13488
X13750Y-19000
X14537Y-13488
X14537Y-19000
X15325Y-13488
X15325Y-19000
X16112Y-13488
X16112Y-19000
X16900Y-13488
X16900Y-19000
X17687Y-13488
X17687Y-19000
X18474Y-13488
X18474Y-19000
X19262Y-13488
X19262Y-19000
T4
X27016Y-19575
X28984Y-19575
T2
X26622Y-20776G85X26622Y-20500
G05
X29378Y-20500G85X29378Y-20776
G05
T0
M30
