G04 #@! TF.FileFunction,Copper,L2,Bot,Signal*
%FSLAX46Y46*%
G04 Gerber Fmt 4.6, Leading zero omitted, Abs format (unit mm)*
G04 Created by KiCad (PCBNEW 4.0.5) date Sunday, March 11, 2018 'PMt' 06:28:43 PM*
%MOMM*%
%LPD*%
G01*
G04 APERTURE LIST*
%ADD10C,0.100000*%
%ADD11C,1.450000*%
%ADD12O,1.200000X1.900000*%
%ADD13R,1.100000X2.500000*%
%ADD14O,1.100000X2.500000*%
%ADD15C,3.000000*%
%ADD16C,0.600000*%
%ADD17C,0.500000*%
%ADD18C,0.254000*%
G04 APERTURE END LIST*
D10*
D11*
X68620000Y-49720000D03*
X73620000Y-49720000D03*
D12*
X67620000Y-52420000D03*
X74620000Y-52420000D03*
D13*
X34925000Y-48960000D03*
D14*
X36925000Y-48960000D03*
X38925000Y-48960000D03*
X40925000Y-48960000D03*
X42925000Y-48960000D03*
X44925000Y-48960000D03*
X46925000Y-48960000D03*
X48925000Y-48960000D03*
X48925000Y-33560000D03*
X46925000Y-33660000D03*
X44925000Y-33560000D03*
X42925000Y-33560000D03*
X40925000Y-33560000D03*
X38925000Y-33560000D03*
X36925000Y-33560000D03*
X34925000Y-33560000D03*
D15*
X111125000Y-27305000D03*
X33020000Y-27305000D03*
X119380000Y-27305000D03*
X41275000Y-27305000D03*
D16*
X121920000Y-41910000D03*
X109220000Y-43180000D03*
X93980000Y-53340000D03*
X121920000Y-31115000D03*
D17*
X41275000Y-30480000D02*
X36195000Y-30480000D01*
X99377500Y-37782500D02*
X103505000Y-41910000D01*
X99377500Y-37782500D02*
X57150000Y-37782500D01*
X121920000Y-41910000D02*
X103505000Y-41910000D01*
X49530000Y-30480000D02*
X41275000Y-30480000D01*
X56832500Y-37782500D02*
X49530000Y-30480000D01*
X57150000Y-37782500D02*
X56832500Y-37782500D01*
X36195000Y-30480000D02*
X33020000Y-27305000D01*
X124460000Y-39370000D02*
X124460000Y-26670000D01*
X121920000Y-41910000D02*
X124460000Y-39370000D01*
X114300000Y-24130000D02*
X111125000Y-27305000D01*
X121920000Y-24130000D02*
X114300000Y-24130000D01*
X124460000Y-26670000D02*
X121920000Y-24130000D01*
X106045000Y-46355000D02*
X100965000Y-46355000D01*
X109220000Y-43180000D02*
X106045000Y-46355000D01*
X100965000Y-46355000D02*
X93980000Y-53340000D01*
X58102500Y-35242500D02*
X56832500Y-35242500D01*
X121920000Y-31115000D02*
X103505000Y-31115000D01*
X62547500Y-35242500D02*
X99377500Y-35242500D01*
X99377500Y-35242500D02*
X103505000Y-31115000D01*
X62547500Y-35242500D02*
X58102500Y-35242500D01*
X48895000Y-27305000D02*
X41275000Y-27305000D01*
X56832500Y-35242500D02*
X48895000Y-27305000D01*
X121920000Y-31115000D02*
X121920000Y-29845000D01*
X121920000Y-29845000D02*
X119380000Y-27305000D01*
D18*
G36*
X63062958Y-31642465D02*
X63152876Y-31691071D01*
X63237862Y-31747857D01*
X63269607Y-31754171D01*
X63298078Y-31769562D01*
X63399746Y-31780058D01*
X63500000Y-31800000D01*
X63531745Y-31793685D01*
X63563938Y-31797009D01*
X63661887Y-31767798D01*
X63762138Y-31747857D01*
X63789049Y-31729876D01*
X63820065Y-31720626D01*
X63899381Y-31656154D01*
X63984368Y-31599368D01*
X66323736Y-29260000D01*
X86076264Y-29260000D01*
X88415632Y-31599368D01*
X88500619Y-31656154D01*
X88579935Y-31720626D01*
X88610951Y-31729876D01*
X88637862Y-31747857D01*
X88738109Y-31767797D01*
X88836062Y-31797009D01*
X88868258Y-31793685D01*
X88900000Y-31799999D01*
X89000247Y-31780059D01*
X89101922Y-31769562D01*
X89130394Y-31754171D01*
X89162138Y-31747857D01*
X89247124Y-31691071D01*
X89337042Y-31642465D01*
X92744708Y-28818970D01*
X109790635Y-28818970D01*
X109950418Y-29137739D01*
X110741187Y-29447723D01*
X111590387Y-29431497D01*
X112299582Y-29137739D01*
X112459365Y-28818970D01*
X111125000Y-27484605D01*
X109790635Y-28818970D01*
X92744708Y-28818970D01*
X95035136Y-26921187D01*
X108982277Y-26921187D01*
X108998503Y-27770387D01*
X109292261Y-28479582D01*
X109611030Y-28639365D01*
X110945395Y-27305000D01*
X111304605Y-27305000D01*
X112638970Y-28639365D01*
X112957739Y-28479582D01*
X113267723Y-27688813D01*
X113251497Y-26839613D01*
X112957739Y-26130418D01*
X112638970Y-25970635D01*
X111304605Y-27305000D01*
X110945395Y-27305000D01*
X109611030Y-25970635D01*
X109292261Y-26130418D01*
X108982277Y-26921187D01*
X95035136Y-26921187D01*
X96399118Y-25791030D01*
X109790635Y-25791030D01*
X111125000Y-27125395D01*
X112459365Y-25791030D01*
X112299582Y-25472261D01*
X111508813Y-25162277D01*
X110659613Y-25178503D01*
X109950418Y-25472261D01*
X109790635Y-25791030D01*
X96399118Y-25791030D01*
X111371914Y-13385000D01*
X126670772Y-13385000D01*
X139015000Y-28815285D01*
X139015000Y-53734715D01*
X126670772Y-69165000D01*
X111371914Y-69165000D01*
X89337042Y-50907535D01*
X89247124Y-50858929D01*
X89162138Y-50802143D01*
X89130394Y-50795829D01*
X89101922Y-50780438D01*
X89000247Y-50769941D01*
X88900000Y-50750001D01*
X88868258Y-50756315D01*
X88836062Y-50752991D01*
X88738109Y-50782203D01*
X88637862Y-50802143D01*
X88610951Y-50820124D01*
X88579935Y-50829374D01*
X88500619Y-50893846D01*
X88415632Y-50950632D01*
X86076264Y-53290000D01*
X83424207Y-53290000D01*
X83699282Y-53015405D01*
X83864811Y-52616767D01*
X83865188Y-52185127D01*
X83700354Y-51786200D01*
X83395405Y-51480718D01*
X82996767Y-51315189D01*
X82565127Y-51314812D01*
X82166200Y-51479646D01*
X81860718Y-51784595D01*
X81695189Y-52183233D01*
X81694812Y-52614873D01*
X81859646Y-53013800D01*
X82135364Y-53290000D01*
X80424207Y-53290000D01*
X80699282Y-53015405D01*
X80864811Y-52616767D01*
X80865188Y-52185127D01*
X80700354Y-51786200D01*
X80395405Y-51480718D01*
X79996767Y-51315189D01*
X79565127Y-51314812D01*
X79166200Y-51479646D01*
X78860718Y-51784595D01*
X78695189Y-52183233D01*
X78694812Y-52614873D01*
X78859646Y-53013800D01*
X79135364Y-53290000D01*
X75750077Y-53290000D01*
X75760991Y-53273666D01*
X75855000Y-52801052D01*
X75855000Y-52038948D01*
X75760991Y-51566334D01*
X75493277Y-51165671D01*
X75092614Y-50897957D01*
X74620000Y-50803948D01*
X74419148Y-50843900D01*
X74772280Y-50491384D01*
X74979763Y-49991708D01*
X74980236Y-49450666D01*
X74773624Y-48950628D01*
X74391384Y-48567720D01*
X73891708Y-48360237D01*
X73350666Y-48359764D01*
X72850628Y-48566376D01*
X72467720Y-48948616D01*
X72260237Y-49448292D01*
X72259764Y-49989334D01*
X72466376Y-50489372D01*
X72848616Y-50872280D01*
X73348292Y-51079763D01*
X73874605Y-51080223D01*
X73746723Y-51165671D01*
X73479009Y-51566334D01*
X73385000Y-52038948D01*
X73385000Y-52801052D01*
X73479009Y-53273666D01*
X73489923Y-53290000D01*
X68750077Y-53290000D01*
X68760991Y-53273666D01*
X68855000Y-52801052D01*
X68855000Y-52038948D01*
X68760991Y-51566334D01*
X68493277Y-51165671D01*
X68364728Y-51079777D01*
X68889334Y-51080236D01*
X69389372Y-50873624D01*
X69772280Y-50491384D01*
X69979763Y-49991708D01*
X69980236Y-49450666D01*
X69773624Y-48950628D01*
X69391384Y-48567720D01*
X68891708Y-48360237D01*
X68350666Y-48359764D01*
X67850628Y-48566376D01*
X67467720Y-48948616D01*
X67260237Y-49448292D01*
X67259764Y-49989334D01*
X67466376Y-50489372D01*
X67820145Y-50843759D01*
X67620000Y-50803948D01*
X67147386Y-50897957D01*
X66746723Y-51165671D01*
X66479009Y-51566334D01*
X66385000Y-52038948D01*
X66385000Y-52801052D01*
X66479009Y-53273666D01*
X66489923Y-53290000D01*
X66323736Y-53290000D01*
X63984368Y-50950632D01*
X63899381Y-50893846D01*
X63820065Y-50829374D01*
X63789049Y-50820124D01*
X63762138Y-50802143D01*
X63661887Y-50782202D01*
X63563938Y-50752991D01*
X63531745Y-50756315D01*
X63500000Y-50750000D01*
X63399746Y-50769942D01*
X63298078Y-50780438D01*
X63269607Y-50795829D01*
X63237862Y-50802143D01*
X63152876Y-50858929D01*
X63062958Y-50907535D01*
X41028086Y-69165000D01*
X25729228Y-69165000D01*
X13385000Y-53734715D01*
X13385000Y-47710000D01*
X33727560Y-47710000D01*
X33727560Y-50210000D01*
X33771838Y-50445317D01*
X33910910Y-50661441D01*
X34123110Y-50806431D01*
X34375000Y-50857440D01*
X35475000Y-50857440D01*
X35710317Y-50813162D01*
X35926441Y-50674090D01*
X36054694Y-50486385D01*
X36087078Y-50534851D01*
X36471520Y-50791726D01*
X36925000Y-50881929D01*
X37378480Y-50791726D01*
X37762922Y-50534851D01*
X37925000Y-50292283D01*
X38087078Y-50534851D01*
X38471520Y-50791726D01*
X38925000Y-50881929D01*
X39378480Y-50791726D01*
X39762922Y-50534851D01*
X39925000Y-50292283D01*
X40087078Y-50534851D01*
X40471520Y-50791726D01*
X40925000Y-50881929D01*
X41378480Y-50791726D01*
X41762922Y-50534851D01*
X41925000Y-50292283D01*
X42087078Y-50534851D01*
X42471520Y-50791726D01*
X42925000Y-50881929D01*
X43378480Y-50791726D01*
X43762922Y-50534851D01*
X43925000Y-50292283D01*
X44087078Y-50534851D01*
X44471520Y-50791726D01*
X44925000Y-50881929D01*
X45378480Y-50791726D01*
X45762922Y-50534851D01*
X45925000Y-50292283D01*
X46087078Y-50534851D01*
X46471520Y-50791726D01*
X46925000Y-50881929D01*
X47378480Y-50791726D01*
X47762922Y-50534851D01*
X47925000Y-50292283D01*
X48087078Y-50534851D01*
X48471520Y-50791726D01*
X48925000Y-50881929D01*
X49378480Y-50791726D01*
X49762922Y-50534851D01*
X50019797Y-50150409D01*
X50110000Y-49696929D01*
X50110000Y-48223071D01*
X50019797Y-47769591D01*
X49762922Y-47385149D01*
X49378480Y-47128274D01*
X48925000Y-47038071D01*
X48471520Y-47128274D01*
X48087078Y-47385149D01*
X47925000Y-47627717D01*
X47762922Y-47385149D01*
X47378480Y-47128274D01*
X46925000Y-47038071D01*
X46471520Y-47128274D01*
X46087078Y-47385149D01*
X45925000Y-47627717D01*
X45762922Y-47385149D01*
X45378480Y-47128274D01*
X44925000Y-47038071D01*
X44471520Y-47128274D01*
X44087078Y-47385149D01*
X43925000Y-47627717D01*
X43762922Y-47385149D01*
X43378480Y-47128274D01*
X42925000Y-47038071D01*
X42471520Y-47128274D01*
X42087078Y-47385149D01*
X41925000Y-47627717D01*
X41762922Y-47385149D01*
X41378480Y-47128274D01*
X40925000Y-47038071D01*
X40471520Y-47128274D01*
X40087078Y-47385149D01*
X39925000Y-47627717D01*
X39762922Y-47385149D01*
X39378480Y-47128274D01*
X38925000Y-47038071D01*
X38471520Y-47128274D01*
X38087078Y-47385149D01*
X37925000Y-47627717D01*
X37762922Y-47385149D01*
X37378480Y-47128274D01*
X36925000Y-47038071D01*
X36471520Y-47128274D01*
X36087078Y-47385149D01*
X36053187Y-47435871D01*
X35939090Y-47258559D01*
X35726890Y-47113569D01*
X35475000Y-47062560D01*
X34375000Y-47062560D01*
X34139683Y-47106838D01*
X33923559Y-47245910D01*
X33778569Y-47458110D01*
X33727560Y-47710000D01*
X13385000Y-47710000D01*
X13385000Y-32823071D01*
X33740000Y-32823071D01*
X33740000Y-34296929D01*
X33830203Y-34750409D01*
X34087078Y-35134851D01*
X34471520Y-35391726D01*
X34925000Y-35481929D01*
X35378480Y-35391726D01*
X35762922Y-35134851D01*
X35925000Y-34892283D01*
X36087078Y-35134851D01*
X36471520Y-35391726D01*
X36925000Y-35481929D01*
X37378480Y-35391726D01*
X37762922Y-35134851D01*
X37925000Y-34892283D01*
X38087078Y-35134851D01*
X38471520Y-35391726D01*
X38925000Y-35481929D01*
X39378480Y-35391726D01*
X39762922Y-35134851D01*
X39925000Y-34892283D01*
X40087078Y-35134851D01*
X40471520Y-35391726D01*
X40925000Y-35481929D01*
X41378480Y-35391726D01*
X41762922Y-35134851D01*
X41925000Y-34892283D01*
X42087078Y-35134851D01*
X42471520Y-35391726D01*
X42925000Y-35481929D01*
X43378480Y-35391726D01*
X43762922Y-35134851D01*
X43925000Y-34892283D01*
X44087078Y-35134851D01*
X44471520Y-35391726D01*
X44925000Y-35481929D01*
X45378480Y-35391726D01*
X45762922Y-35134851D01*
X45891591Y-34942283D01*
X46087078Y-35234851D01*
X46471520Y-35491726D01*
X46925000Y-35581929D01*
X47378480Y-35491726D01*
X47762922Y-35234851D01*
X47964405Y-34933309D01*
X48176882Y-35187724D01*
X48588854Y-35403398D01*
X48615256Y-35403803D01*
X48798000Y-35278361D01*
X48798000Y-33687000D01*
X49052000Y-33687000D01*
X49052000Y-35278361D01*
X49234744Y-35403803D01*
X49261146Y-35403398D01*
X49673118Y-35187724D01*
X49971196Y-34830813D01*
X50110000Y-34387000D01*
X50110000Y-33687000D01*
X49052000Y-33687000D01*
X48798000Y-33687000D01*
X48778000Y-33687000D01*
X48778000Y-33433000D01*
X48798000Y-33433000D01*
X48798000Y-31841639D01*
X49052000Y-31841639D01*
X49052000Y-33433000D01*
X50110000Y-33433000D01*
X50110000Y-32733000D01*
X49971196Y-32289187D01*
X49673118Y-31932276D01*
X49261146Y-31716602D01*
X49234744Y-31716197D01*
X49052000Y-31841639D01*
X48798000Y-31841639D01*
X48615256Y-31716197D01*
X48588854Y-31716602D01*
X48176882Y-31932276D01*
X47890165Y-32275583D01*
X47762922Y-32085149D01*
X47378480Y-31828274D01*
X46925000Y-31738071D01*
X46471520Y-31828274D01*
X46087078Y-32085149D01*
X45958409Y-32277717D01*
X45762922Y-31985149D01*
X45378480Y-31728274D01*
X44925000Y-31638071D01*
X44471520Y-31728274D01*
X44087078Y-31985149D01*
X43925000Y-32227717D01*
X43762922Y-31985149D01*
X43378480Y-31728274D01*
X42925000Y-31638071D01*
X42471520Y-31728274D01*
X42087078Y-31985149D01*
X41925000Y-32227717D01*
X41762922Y-31985149D01*
X41378480Y-31728274D01*
X40925000Y-31638071D01*
X40471520Y-31728274D01*
X40087078Y-31985149D01*
X39925000Y-32227717D01*
X39762922Y-31985149D01*
X39378480Y-31728274D01*
X38925000Y-31638071D01*
X38471520Y-31728274D01*
X38087078Y-31985149D01*
X37925000Y-32227717D01*
X37762922Y-31985149D01*
X37378480Y-31728274D01*
X36925000Y-31638071D01*
X36471520Y-31728274D01*
X36087078Y-31985149D01*
X35925000Y-32227717D01*
X35762922Y-31985149D01*
X35378480Y-31728274D01*
X34925000Y-31638071D01*
X34471520Y-31728274D01*
X34087078Y-31985149D01*
X33830203Y-32369591D01*
X33740000Y-32823071D01*
X13385000Y-32823071D01*
X13385000Y-28818970D01*
X31685635Y-28818970D01*
X31845418Y-29137739D01*
X32636187Y-29447723D01*
X33485387Y-29431497D01*
X34194582Y-29137739D01*
X34354365Y-28818970D01*
X33020000Y-27484605D01*
X31685635Y-28818970D01*
X13385000Y-28818970D01*
X13385000Y-28815285D01*
X14900278Y-26921187D01*
X30877277Y-26921187D01*
X30893503Y-27770387D01*
X31187261Y-28479582D01*
X31506030Y-28639365D01*
X32840395Y-27305000D01*
X33199605Y-27305000D01*
X34533970Y-28639365D01*
X34852739Y-28479582D01*
X35147434Y-27727815D01*
X39139630Y-27727815D01*
X39463980Y-28512800D01*
X40064041Y-29113909D01*
X40848459Y-29439628D01*
X41697815Y-29440370D01*
X42482800Y-29116020D01*
X43083909Y-28515959D01*
X43219259Y-28190000D01*
X48528420Y-28190000D01*
X56206708Y-35868287D01*
X56206710Y-35868290D01*
X56493825Y-36060133D01*
X56832500Y-36127501D01*
X56832505Y-36127500D01*
X99377495Y-36127500D01*
X99377500Y-36127501D01*
X99659984Y-36071310D01*
X99716175Y-36060133D01*
X100003290Y-35868290D01*
X100003291Y-35868289D01*
X103871579Y-32000000D01*
X121613178Y-32000000D01*
X121733201Y-32049838D01*
X122105167Y-32050162D01*
X122448943Y-31908117D01*
X122712192Y-31645327D01*
X122854838Y-31301799D01*
X122855162Y-30929833D01*
X122805000Y-30808431D01*
X122805000Y-29845000D01*
X122737633Y-29506325D01*
X122545790Y-29219210D01*
X122545787Y-29219208D01*
X121380687Y-28054107D01*
X121514628Y-27731541D01*
X121515370Y-26882185D01*
X121191020Y-26097200D01*
X120590959Y-25496091D01*
X119806541Y-25170372D01*
X118957185Y-25169630D01*
X118172200Y-25493980D01*
X117571091Y-26094041D01*
X117245372Y-26878459D01*
X117244630Y-27727815D01*
X117568980Y-28512800D01*
X118169041Y-29113909D01*
X118953459Y-29439628D01*
X119802815Y-29440370D01*
X120129009Y-29305589D01*
X121035000Y-30211579D01*
X121035000Y-30230000D01*
X103505000Y-30230000D01*
X103166325Y-30297367D01*
X102879210Y-30489210D01*
X102879208Y-30489213D01*
X99010920Y-34357500D01*
X57199079Y-34357500D01*
X49520790Y-26679210D01*
X49233675Y-26487367D01*
X49177484Y-26476190D01*
X48895000Y-26419999D01*
X48894995Y-26420000D01*
X43219399Y-26420000D01*
X43086020Y-26097200D01*
X42485959Y-25496091D01*
X41701541Y-25170372D01*
X40852185Y-25169630D01*
X40067200Y-25493980D01*
X39466091Y-26094041D01*
X39140372Y-26878459D01*
X39139630Y-27727815D01*
X35147434Y-27727815D01*
X35162723Y-27688813D01*
X35146497Y-26839613D01*
X34852739Y-26130418D01*
X34533970Y-25970635D01*
X33199605Y-27305000D01*
X32840395Y-27305000D01*
X31506030Y-25970635D01*
X31187261Y-26130418D01*
X30877277Y-26921187D01*
X14900278Y-26921187D01*
X15804403Y-25791030D01*
X31685635Y-25791030D01*
X33020000Y-27125395D01*
X34354365Y-25791030D01*
X34194582Y-25472261D01*
X33403813Y-25162277D01*
X32554613Y-25178503D01*
X31845418Y-25472261D01*
X31685635Y-25791030D01*
X15804403Y-25791030D01*
X25729228Y-13385000D01*
X41028086Y-13385000D01*
X63062958Y-31642465D01*
X63062958Y-31642465D01*
G37*
X63062958Y-31642465D02*
X63152876Y-31691071D01*
X63237862Y-31747857D01*
X63269607Y-31754171D01*
X63298078Y-31769562D01*
X63399746Y-31780058D01*
X63500000Y-31800000D01*
X63531745Y-31793685D01*
X63563938Y-31797009D01*
X63661887Y-31767798D01*
X63762138Y-31747857D01*
X63789049Y-31729876D01*
X63820065Y-31720626D01*
X63899381Y-31656154D01*
X63984368Y-31599368D01*
X66323736Y-29260000D01*
X86076264Y-29260000D01*
X88415632Y-31599368D01*
X88500619Y-31656154D01*
X88579935Y-31720626D01*
X88610951Y-31729876D01*
X88637862Y-31747857D01*
X88738109Y-31767797D01*
X88836062Y-31797009D01*
X88868258Y-31793685D01*
X88900000Y-31799999D01*
X89000247Y-31780059D01*
X89101922Y-31769562D01*
X89130394Y-31754171D01*
X89162138Y-31747857D01*
X89247124Y-31691071D01*
X89337042Y-31642465D01*
X92744708Y-28818970D01*
X109790635Y-28818970D01*
X109950418Y-29137739D01*
X110741187Y-29447723D01*
X111590387Y-29431497D01*
X112299582Y-29137739D01*
X112459365Y-28818970D01*
X111125000Y-27484605D01*
X109790635Y-28818970D01*
X92744708Y-28818970D01*
X95035136Y-26921187D01*
X108982277Y-26921187D01*
X108998503Y-27770387D01*
X109292261Y-28479582D01*
X109611030Y-28639365D01*
X110945395Y-27305000D01*
X111304605Y-27305000D01*
X112638970Y-28639365D01*
X112957739Y-28479582D01*
X113267723Y-27688813D01*
X113251497Y-26839613D01*
X112957739Y-26130418D01*
X112638970Y-25970635D01*
X111304605Y-27305000D01*
X110945395Y-27305000D01*
X109611030Y-25970635D01*
X109292261Y-26130418D01*
X108982277Y-26921187D01*
X95035136Y-26921187D01*
X96399118Y-25791030D01*
X109790635Y-25791030D01*
X111125000Y-27125395D01*
X112459365Y-25791030D01*
X112299582Y-25472261D01*
X111508813Y-25162277D01*
X110659613Y-25178503D01*
X109950418Y-25472261D01*
X109790635Y-25791030D01*
X96399118Y-25791030D01*
X111371914Y-13385000D01*
X126670772Y-13385000D01*
X139015000Y-28815285D01*
X139015000Y-53734715D01*
X126670772Y-69165000D01*
X111371914Y-69165000D01*
X89337042Y-50907535D01*
X89247124Y-50858929D01*
X89162138Y-50802143D01*
X89130394Y-50795829D01*
X89101922Y-50780438D01*
X89000247Y-50769941D01*
X88900000Y-50750001D01*
X88868258Y-50756315D01*
X88836062Y-50752991D01*
X88738109Y-50782203D01*
X88637862Y-50802143D01*
X88610951Y-50820124D01*
X88579935Y-50829374D01*
X88500619Y-50893846D01*
X88415632Y-50950632D01*
X86076264Y-53290000D01*
X83424207Y-53290000D01*
X83699282Y-53015405D01*
X83864811Y-52616767D01*
X83865188Y-52185127D01*
X83700354Y-51786200D01*
X83395405Y-51480718D01*
X82996767Y-51315189D01*
X82565127Y-51314812D01*
X82166200Y-51479646D01*
X81860718Y-51784595D01*
X81695189Y-52183233D01*
X81694812Y-52614873D01*
X81859646Y-53013800D01*
X82135364Y-53290000D01*
X80424207Y-53290000D01*
X80699282Y-53015405D01*
X80864811Y-52616767D01*
X80865188Y-52185127D01*
X80700354Y-51786200D01*
X80395405Y-51480718D01*
X79996767Y-51315189D01*
X79565127Y-51314812D01*
X79166200Y-51479646D01*
X78860718Y-51784595D01*
X78695189Y-52183233D01*
X78694812Y-52614873D01*
X78859646Y-53013800D01*
X79135364Y-53290000D01*
X75750077Y-53290000D01*
X75760991Y-53273666D01*
X75855000Y-52801052D01*
X75855000Y-52038948D01*
X75760991Y-51566334D01*
X75493277Y-51165671D01*
X75092614Y-50897957D01*
X74620000Y-50803948D01*
X74419148Y-50843900D01*
X74772280Y-50491384D01*
X74979763Y-49991708D01*
X74980236Y-49450666D01*
X74773624Y-48950628D01*
X74391384Y-48567720D01*
X73891708Y-48360237D01*
X73350666Y-48359764D01*
X72850628Y-48566376D01*
X72467720Y-48948616D01*
X72260237Y-49448292D01*
X72259764Y-49989334D01*
X72466376Y-50489372D01*
X72848616Y-50872280D01*
X73348292Y-51079763D01*
X73874605Y-51080223D01*
X73746723Y-51165671D01*
X73479009Y-51566334D01*
X73385000Y-52038948D01*
X73385000Y-52801052D01*
X73479009Y-53273666D01*
X73489923Y-53290000D01*
X68750077Y-53290000D01*
X68760991Y-53273666D01*
X68855000Y-52801052D01*
X68855000Y-52038948D01*
X68760991Y-51566334D01*
X68493277Y-51165671D01*
X68364728Y-51079777D01*
X68889334Y-51080236D01*
X69389372Y-50873624D01*
X69772280Y-50491384D01*
X69979763Y-49991708D01*
X69980236Y-49450666D01*
X69773624Y-48950628D01*
X69391384Y-48567720D01*
X68891708Y-48360237D01*
X68350666Y-48359764D01*
X67850628Y-48566376D01*
X67467720Y-48948616D01*
X67260237Y-49448292D01*
X67259764Y-49989334D01*
X67466376Y-50489372D01*
X67820145Y-50843759D01*
X67620000Y-50803948D01*
X67147386Y-50897957D01*
X66746723Y-51165671D01*
X66479009Y-51566334D01*
X66385000Y-52038948D01*
X66385000Y-52801052D01*
X66479009Y-53273666D01*
X66489923Y-53290000D01*
X66323736Y-53290000D01*
X63984368Y-50950632D01*
X63899381Y-50893846D01*
X63820065Y-50829374D01*
X63789049Y-50820124D01*
X63762138Y-50802143D01*
X63661887Y-50782202D01*
X63563938Y-50752991D01*
X63531745Y-50756315D01*
X63500000Y-50750000D01*
X63399746Y-50769942D01*
X63298078Y-50780438D01*
X63269607Y-50795829D01*
X63237862Y-50802143D01*
X63152876Y-50858929D01*
X63062958Y-50907535D01*
X41028086Y-69165000D01*
X25729228Y-69165000D01*
X13385000Y-53734715D01*
X13385000Y-47710000D01*
X33727560Y-47710000D01*
X33727560Y-50210000D01*
X33771838Y-50445317D01*
X33910910Y-50661441D01*
X34123110Y-50806431D01*
X34375000Y-50857440D01*
X35475000Y-50857440D01*
X35710317Y-50813162D01*
X35926441Y-50674090D01*
X36054694Y-50486385D01*
X36087078Y-50534851D01*
X36471520Y-50791726D01*
X36925000Y-50881929D01*
X37378480Y-50791726D01*
X37762922Y-50534851D01*
X37925000Y-50292283D01*
X38087078Y-50534851D01*
X38471520Y-50791726D01*
X38925000Y-50881929D01*
X39378480Y-50791726D01*
X39762922Y-50534851D01*
X39925000Y-50292283D01*
X40087078Y-50534851D01*
X40471520Y-50791726D01*
X40925000Y-50881929D01*
X41378480Y-50791726D01*
X41762922Y-50534851D01*
X41925000Y-50292283D01*
X42087078Y-50534851D01*
X42471520Y-50791726D01*
X42925000Y-50881929D01*
X43378480Y-50791726D01*
X43762922Y-50534851D01*
X43925000Y-50292283D01*
X44087078Y-50534851D01*
X44471520Y-50791726D01*
X44925000Y-50881929D01*
X45378480Y-50791726D01*
X45762922Y-50534851D01*
X45925000Y-50292283D01*
X46087078Y-50534851D01*
X46471520Y-50791726D01*
X46925000Y-50881929D01*
X47378480Y-50791726D01*
X47762922Y-50534851D01*
X47925000Y-50292283D01*
X48087078Y-50534851D01*
X48471520Y-50791726D01*
X48925000Y-50881929D01*
X49378480Y-50791726D01*
X49762922Y-50534851D01*
X50019797Y-50150409D01*
X50110000Y-49696929D01*
X50110000Y-48223071D01*
X50019797Y-47769591D01*
X49762922Y-47385149D01*
X49378480Y-47128274D01*
X48925000Y-47038071D01*
X48471520Y-47128274D01*
X48087078Y-47385149D01*
X47925000Y-47627717D01*
X47762922Y-47385149D01*
X47378480Y-47128274D01*
X46925000Y-47038071D01*
X46471520Y-47128274D01*
X46087078Y-47385149D01*
X45925000Y-47627717D01*
X45762922Y-47385149D01*
X45378480Y-47128274D01*
X44925000Y-47038071D01*
X44471520Y-47128274D01*
X44087078Y-47385149D01*
X43925000Y-47627717D01*
X43762922Y-47385149D01*
X43378480Y-47128274D01*
X42925000Y-47038071D01*
X42471520Y-47128274D01*
X42087078Y-47385149D01*
X41925000Y-47627717D01*
X41762922Y-47385149D01*
X41378480Y-47128274D01*
X40925000Y-47038071D01*
X40471520Y-47128274D01*
X40087078Y-47385149D01*
X39925000Y-47627717D01*
X39762922Y-47385149D01*
X39378480Y-47128274D01*
X38925000Y-47038071D01*
X38471520Y-47128274D01*
X38087078Y-47385149D01*
X37925000Y-47627717D01*
X37762922Y-47385149D01*
X37378480Y-47128274D01*
X36925000Y-47038071D01*
X36471520Y-47128274D01*
X36087078Y-47385149D01*
X36053187Y-47435871D01*
X35939090Y-47258559D01*
X35726890Y-47113569D01*
X35475000Y-47062560D01*
X34375000Y-47062560D01*
X34139683Y-47106838D01*
X33923559Y-47245910D01*
X33778569Y-47458110D01*
X33727560Y-47710000D01*
X13385000Y-47710000D01*
X13385000Y-32823071D01*
X33740000Y-32823071D01*
X33740000Y-34296929D01*
X33830203Y-34750409D01*
X34087078Y-35134851D01*
X34471520Y-35391726D01*
X34925000Y-35481929D01*
X35378480Y-35391726D01*
X35762922Y-35134851D01*
X35925000Y-34892283D01*
X36087078Y-35134851D01*
X36471520Y-35391726D01*
X36925000Y-35481929D01*
X37378480Y-35391726D01*
X37762922Y-35134851D01*
X37925000Y-34892283D01*
X38087078Y-35134851D01*
X38471520Y-35391726D01*
X38925000Y-35481929D01*
X39378480Y-35391726D01*
X39762922Y-35134851D01*
X39925000Y-34892283D01*
X40087078Y-35134851D01*
X40471520Y-35391726D01*
X40925000Y-35481929D01*
X41378480Y-35391726D01*
X41762922Y-35134851D01*
X41925000Y-34892283D01*
X42087078Y-35134851D01*
X42471520Y-35391726D01*
X42925000Y-35481929D01*
X43378480Y-35391726D01*
X43762922Y-35134851D01*
X43925000Y-34892283D01*
X44087078Y-35134851D01*
X44471520Y-35391726D01*
X44925000Y-35481929D01*
X45378480Y-35391726D01*
X45762922Y-35134851D01*
X45891591Y-34942283D01*
X46087078Y-35234851D01*
X46471520Y-35491726D01*
X46925000Y-35581929D01*
X47378480Y-35491726D01*
X47762922Y-35234851D01*
X47964405Y-34933309D01*
X48176882Y-35187724D01*
X48588854Y-35403398D01*
X48615256Y-35403803D01*
X48798000Y-35278361D01*
X48798000Y-33687000D01*
X49052000Y-33687000D01*
X49052000Y-35278361D01*
X49234744Y-35403803D01*
X49261146Y-35403398D01*
X49673118Y-35187724D01*
X49971196Y-34830813D01*
X50110000Y-34387000D01*
X50110000Y-33687000D01*
X49052000Y-33687000D01*
X48798000Y-33687000D01*
X48778000Y-33687000D01*
X48778000Y-33433000D01*
X48798000Y-33433000D01*
X48798000Y-31841639D01*
X49052000Y-31841639D01*
X49052000Y-33433000D01*
X50110000Y-33433000D01*
X50110000Y-32733000D01*
X49971196Y-32289187D01*
X49673118Y-31932276D01*
X49261146Y-31716602D01*
X49234744Y-31716197D01*
X49052000Y-31841639D01*
X48798000Y-31841639D01*
X48615256Y-31716197D01*
X48588854Y-31716602D01*
X48176882Y-31932276D01*
X47890165Y-32275583D01*
X47762922Y-32085149D01*
X47378480Y-31828274D01*
X46925000Y-31738071D01*
X46471520Y-31828274D01*
X46087078Y-32085149D01*
X45958409Y-32277717D01*
X45762922Y-31985149D01*
X45378480Y-31728274D01*
X44925000Y-31638071D01*
X44471520Y-31728274D01*
X44087078Y-31985149D01*
X43925000Y-32227717D01*
X43762922Y-31985149D01*
X43378480Y-31728274D01*
X42925000Y-31638071D01*
X42471520Y-31728274D01*
X42087078Y-31985149D01*
X41925000Y-32227717D01*
X41762922Y-31985149D01*
X41378480Y-31728274D01*
X40925000Y-31638071D01*
X40471520Y-31728274D01*
X40087078Y-31985149D01*
X39925000Y-32227717D01*
X39762922Y-31985149D01*
X39378480Y-31728274D01*
X38925000Y-31638071D01*
X38471520Y-31728274D01*
X38087078Y-31985149D01*
X37925000Y-32227717D01*
X37762922Y-31985149D01*
X37378480Y-31728274D01*
X36925000Y-31638071D01*
X36471520Y-31728274D01*
X36087078Y-31985149D01*
X35925000Y-32227717D01*
X35762922Y-31985149D01*
X35378480Y-31728274D01*
X34925000Y-31638071D01*
X34471520Y-31728274D01*
X34087078Y-31985149D01*
X33830203Y-32369591D01*
X33740000Y-32823071D01*
X13385000Y-32823071D01*
X13385000Y-28818970D01*
X31685635Y-28818970D01*
X31845418Y-29137739D01*
X32636187Y-29447723D01*
X33485387Y-29431497D01*
X34194582Y-29137739D01*
X34354365Y-28818970D01*
X33020000Y-27484605D01*
X31685635Y-28818970D01*
X13385000Y-28818970D01*
X13385000Y-28815285D01*
X14900278Y-26921187D01*
X30877277Y-26921187D01*
X30893503Y-27770387D01*
X31187261Y-28479582D01*
X31506030Y-28639365D01*
X32840395Y-27305000D01*
X33199605Y-27305000D01*
X34533970Y-28639365D01*
X34852739Y-28479582D01*
X35147434Y-27727815D01*
X39139630Y-27727815D01*
X39463980Y-28512800D01*
X40064041Y-29113909D01*
X40848459Y-29439628D01*
X41697815Y-29440370D01*
X42482800Y-29116020D01*
X43083909Y-28515959D01*
X43219259Y-28190000D01*
X48528420Y-28190000D01*
X56206708Y-35868287D01*
X56206710Y-35868290D01*
X56493825Y-36060133D01*
X56832500Y-36127501D01*
X56832505Y-36127500D01*
X99377495Y-36127500D01*
X99377500Y-36127501D01*
X99659984Y-36071310D01*
X99716175Y-36060133D01*
X100003290Y-35868290D01*
X100003291Y-35868289D01*
X103871579Y-32000000D01*
X121613178Y-32000000D01*
X121733201Y-32049838D01*
X122105167Y-32050162D01*
X122448943Y-31908117D01*
X122712192Y-31645327D01*
X122854838Y-31301799D01*
X122855162Y-30929833D01*
X122805000Y-30808431D01*
X122805000Y-29845000D01*
X122737633Y-29506325D01*
X122545790Y-29219210D01*
X122545787Y-29219208D01*
X121380687Y-28054107D01*
X121514628Y-27731541D01*
X121515370Y-26882185D01*
X121191020Y-26097200D01*
X120590959Y-25496091D01*
X119806541Y-25170372D01*
X118957185Y-25169630D01*
X118172200Y-25493980D01*
X117571091Y-26094041D01*
X117245372Y-26878459D01*
X117244630Y-27727815D01*
X117568980Y-28512800D01*
X118169041Y-29113909D01*
X118953459Y-29439628D01*
X119802815Y-29440370D01*
X120129009Y-29305589D01*
X121035000Y-30211579D01*
X121035000Y-30230000D01*
X103505000Y-30230000D01*
X103166325Y-30297367D01*
X102879210Y-30489210D01*
X102879208Y-30489213D01*
X99010920Y-34357500D01*
X57199079Y-34357500D01*
X49520790Y-26679210D01*
X49233675Y-26487367D01*
X49177484Y-26476190D01*
X48895000Y-26419999D01*
X48894995Y-26420000D01*
X43219399Y-26420000D01*
X43086020Y-26097200D01*
X42485959Y-25496091D01*
X41701541Y-25170372D01*
X40852185Y-25169630D01*
X40067200Y-25493980D01*
X39466091Y-26094041D01*
X39140372Y-26878459D01*
X39139630Y-27727815D01*
X35147434Y-27727815D01*
X35162723Y-27688813D01*
X35146497Y-26839613D01*
X34852739Y-26130418D01*
X34533970Y-25970635D01*
X33199605Y-27305000D01*
X32840395Y-27305000D01*
X31506030Y-25970635D01*
X31187261Y-26130418D01*
X30877277Y-26921187D01*
X14900278Y-26921187D01*
X15804403Y-25791030D01*
X31685635Y-25791030D01*
X33020000Y-27125395D01*
X34354365Y-25791030D01*
X34194582Y-25472261D01*
X33403813Y-25162277D01*
X32554613Y-25178503D01*
X31845418Y-25472261D01*
X31685635Y-25791030D01*
X15804403Y-25791030D01*
X25729228Y-13385000D01*
X41028086Y-13385000D01*
X63062958Y-31642465D01*
M02*
