M48
;DRILL file {KiCad 4.0.7} date Tuesday, February 20, 2018 'PMt' 09:34:24 PM
;FORMAT={-:-/ absolute / metric / decimal}
FMAT,2
METRIC,TZ
T1C0.600
T2C0.650
T3C0.850
T4C1.000
%
G90
G05
M71
T2
X34.925Y-34.26
X34.925Y-48.26
X36.925Y-34.26
X36.925Y-48.26
X38.925Y-34.26
X38.925Y-48.26
X40.925Y-34.26
X40.925Y-48.26
X42.925Y-34.26
X42.925Y-48.26
X44.925Y-34.26
X44.925Y-48.26
X46.925Y-34.26
X46.925Y-48.26
X48.925Y-34.26
X48.925Y-48.26
T3
X68.62Y-49.72
X73.62Y-49.72
T4
X125.412Y-35.242
X125.412Y-37.782
T1
X67.62Y-52.77G85X67.62Y-52.07
G05
X74.62Y-52.07G85X74.62Y-52.77
G05
T0
M30
