G04 #@! TF.FileFunction,Copper,L1,Top,Signal*
%FSLAX46Y46*%
G04 Gerber Fmt 4.6, Leading zero omitted, Abs format (unit mm)*
G04 Created by KiCad (PCBNEW 4.0.7) date Tuesday, February 20, 2018 'PMt' 09:34:08 PM*
%MOMM*%
%LPD*%
G01*
G04 APERTURE LIST*
%ADD10C,0.100000*%
%ADD11C,0.300000*%
%ADD12R,1.700000X1.700000*%
%ADD13O,1.700000X1.700000*%
%ADD14R,1.500000X1.900000*%
%ADD15C,1.450000*%
%ADD16R,0.400000X1.350000*%
%ADD17O,1.200000X1.900000*%
%ADD18R,1.200000X1.900000*%
%ADD19C,3.000000*%
%ADD20R,1.600000X1.000000*%
%ADD21R,1.000000X1.600000*%
%ADD22R,0.700000X1.500000*%
%ADD23R,1.000000X0.800000*%
%ADD24R,1.700000X0.900000*%
%ADD25R,0.650000X1.560000*%
%ADD26R,1.100000X2.500000*%
%ADD27O,1.100000X2.500000*%
%ADD28R,2.000000X1.600000*%
%ADD29R,1.600000X2.000000*%
%ADD30R,1.700000X2.000000*%
%ADD31R,2.000000X1.700000*%
%ADD32C,0.500000*%
%ADD33C,0.250000*%
G04 APERTURE END LIST*
D10*
D11*
X71378572Y-31087143D02*
X71592858Y-31158571D01*
X71950001Y-31158571D01*
X72092858Y-31087143D01*
X72164287Y-31015714D01*
X72235715Y-30872857D01*
X72235715Y-30730000D01*
X72164287Y-30587143D01*
X72092858Y-30515714D01*
X71950001Y-30444286D01*
X71664287Y-30372857D01*
X71521429Y-30301429D01*
X71450001Y-30230000D01*
X71378572Y-30087143D01*
X71378572Y-29944286D01*
X71450001Y-29801429D01*
X71521429Y-29730000D01*
X71664287Y-29658571D01*
X72021429Y-29658571D01*
X72235715Y-29730000D01*
X72878572Y-31158571D02*
X72878572Y-29658571D01*
X73450000Y-29658571D01*
X73592858Y-29730000D01*
X73664286Y-29801429D01*
X73735715Y-29944286D01*
X73735715Y-30158571D01*
X73664286Y-30301429D01*
X73592858Y-30372857D01*
X73450000Y-30444286D01*
X72878572Y-30444286D01*
X74378572Y-31158571D02*
X74378572Y-29658571D01*
X74378572Y-30372857D02*
X75235715Y-30372857D01*
X75235715Y-31158571D02*
X75235715Y-29658571D01*
X75878572Y-29801429D02*
X75950001Y-29730000D01*
X76092858Y-29658571D01*
X76450001Y-29658571D01*
X76592858Y-29730000D01*
X76664287Y-29801429D01*
X76735715Y-29944286D01*
X76735715Y-30087143D01*
X76664287Y-30301429D01*
X75807144Y-31158571D01*
X76735715Y-31158571D01*
X77664286Y-29658571D02*
X77807143Y-29658571D01*
X77950000Y-29730000D01*
X78021429Y-29801429D01*
X78092858Y-29944286D01*
X78164286Y-30230000D01*
X78164286Y-30587143D01*
X78092858Y-30872857D01*
X78021429Y-31015714D01*
X77950000Y-31087143D01*
X77807143Y-31158571D01*
X77664286Y-31158571D01*
X77521429Y-31087143D01*
X77450000Y-31015714D01*
X77378572Y-30872857D01*
X77307143Y-30587143D01*
X77307143Y-30230000D01*
X77378572Y-29944286D01*
X77450000Y-29801429D01*
X77521429Y-29730000D01*
X77664286Y-29658571D01*
X79592857Y-31158571D02*
X78735714Y-31158571D01*
X79164286Y-31158571D02*
X79164286Y-29658571D01*
X79021429Y-29872857D01*
X78878571Y-30015714D01*
X78735714Y-30087143D01*
X80450000Y-30301429D02*
X80307142Y-30230000D01*
X80235714Y-30158571D01*
X80164285Y-30015714D01*
X80164285Y-29944286D01*
X80235714Y-29801429D01*
X80307142Y-29730000D01*
X80450000Y-29658571D01*
X80735714Y-29658571D01*
X80878571Y-29730000D01*
X80950000Y-29801429D01*
X81021428Y-29944286D01*
X81021428Y-30015714D01*
X80950000Y-30158571D01*
X80878571Y-30230000D01*
X80735714Y-30301429D01*
X80450000Y-30301429D01*
X80307142Y-30372857D01*
X80235714Y-30444286D01*
X80164285Y-30587143D01*
X80164285Y-30872857D01*
X80235714Y-31015714D01*
X80307142Y-31087143D01*
X80450000Y-31158571D01*
X80735714Y-31158571D01*
X80878571Y-31087143D01*
X80950000Y-31015714D01*
X81021428Y-30872857D01*
X81021428Y-30587143D01*
X80950000Y-30444286D01*
X80878571Y-30372857D01*
X80735714Y-30301429D01*
D12*
X125412500Y-35242500D03*
D13*
X125412500Y-37782500D03*
D14*
X72120000Y-52420000D03*
D15*
X68620000Y-49720000D03*
D16*
X70470000Y-49720000D03*
X69820000Y-49720000D03*
X72420000Y-49720000D03*
X71770000Y-49720000D03*
X71120000Y-49720000D03*
D15*
X73620000Y-49720000D03*
D14*
X70120000Y-52420000D03*
D17*
X67620000Y-52420000D03*
X74620000Y-52420000D03*
D18*
X74020000Y-52420000D03*
X68220000Y-52420000D03*
D19*
X24130000Y-31115000D03*
X24130000Y-43815000D03*
X24130000Y-37465000D03*
X24130000Y-50165000D03*
D10*
G36*
X53452129Y-57665954D02*
X52809342Y-56899910D01*
X54035013Y-55871450D01*
X54677800Y-56637494D01*
X53452129Y-57665954D01*
X53452129Y-57665954D01*
G37*
G36*
X51395209Y-55214612D02*
X50752422Y-54448568D01*
X51978093Y-53420108D01*
X52620880Y-54186152D01*
X51395209Y-55214612D01*
X51395209Y-55214612D01*
G37*
G36*
X49621907Y-60879892D02*
X48979120Y-60113848D01*
X50204791Y-59085388D01*
X50847578Y-59851432D01*
X49621907Y-60879892D01*
X49621907Y-60879892D01*
G37*
G36*
X47564987Y-58428550D02*
X46922200Y-57662506D01*
X48147871Y-56634046D01*
X48790658Y-57400090D01*
X47564987Y-58428550D01*
X47564987Y-58428550D01*
G37*
D20*
X33615000Y-67640000D03*
X33615000Y-64440000D03*
X28615000Y-67640000D03*
X28615000Y-64440000D03*
D21*
X14910000Y-52665000D03*
X18110000Y-52665000D03*
X14910000Y-47665000D03*
X18110000Y-47665000D03*
X14910000Y-34885000D03*
X18110000Y-34885000D03*
X14910000Y-29885000D03*
X18110000Y-29885000D03*
D20*
X28615000Y-14910000D03*
X28615000Y-18110000D03*
X33615000Y-14910000D03*
X33615000Y-18110000D03*
D10*
G36*
X50847578Y-22698568D02*
X50204791Y-23464612D01*
X48979120Y-22436152D01*
X49621907Y-21670108D01*
X50847578Y-22698568D01*
X50847578Y-22698568D01*
G37*
G36*
X48790658Y-25149910D02*
X48147871Y-25915954D01*
X46922200Y-24887494D01*
X47564987Y-24121450D01*
X48790658Y-25149910D01*
X48790658Y-25149910D01*
G37*
G36*
X54677800Y-25912506D02*
X54035013Y-26678550D01*
X52809342Y-25650090D01*
X53452129Y-24884046D01*
X54677800Y-25912506D01*
X54677800Y-25912506D01*
G37*
G36*
X52620880Y-28363848D02*
X51978093Y-29129892D01*
X50752422Y-28101432D01*
X51395209Y-27335388D01*
X52620880Y-28363848D01*
X52620880Y-28363848D01*
G37*
D20*
X73700000Y-39040000D03*
X73700000Y-42240000D03*
X78700000Y-39040000D03*
X78700000Y-42240000D03*
D10*
G36*
X98947871Y-24884046D02*
X99590658Y-25650090D01*
X98364987Y-26678550D01*
X97722200Y-25912506D01*
X98947871Y-24884046D01*
X98947871Y-24884046D01*
G37*
G36*
X101004791Y-27335388D02*
X101647578Y-28101432D01*
X100421907Y-29129892D01*
X99779120Y-28363848D01*
X101004791Y-27335388D01*
X101004791Y-27335388D01*
G37*
G36*
X102778093Y-21670108D02*
X103420880Y-22436152D01*
X102195209Y-23464612D01*
X101552422Y-22698568D01*
X102778093Y-21670108D01*
X102778093Y-21670108D01*
G37*
G36*
X104835013Y-24121450D02*
X105477800Y-24887494D01*
X104252129Y-25915954D01*
X103609342Y-25149910D01*
X104835013Y-24121450D01*
X104835013Y-24121450D01*
G37*
D20*
X118785000Y-14910000D03*
X118785000Y-18110000D03*
X123785000Y-14910000D03*
X123785000Y-18110000D03*
D22*
X79030000Y-50640000D03*
X82030000Y-50640000D03*
X83530000Y-50640000D03*
D23*
X77630000Y-53500000D03*
X84930000Y-53500000D03*
X84930000Y-51290000D03*
X77630000Y-51290000D03*
D24*
X52705000Y-39575000D03*
X52705000Y-42975000D03*
D25*
X115255000Y-36910000D03*
X116205000Y-36910000D03*
X117155000Y-36910000D03*
X117155000Y-34210000D03*
X115255000Y-34210000D03*
D10*
G36*
X95040699Y-54272478D02*
X97483292Y-51361509D01*
X99015381Y-52647084D01*
X96572788Y-55558053D01*
X95040699Y-54272478D01*
X95040699Y-54272478D01*
G37*
G36*
X90953825Y-49341965D02*
X91918006Y-48192898D01*
X93450095Y-49478473D01*
X92485914Y-50627540D01*
X90953825Y-49341965D01*
X90953825Y-49341965D01*
G37*
G36*
X89475414Y-51103867D02*
X90439595Y-49954800D01*
X91971684Y-51240375D01*
X91007503Y-52389442D01*
X89475414Y-51103867D01*
X89475414Y-51103867D01*
G37*
G36*
X92432237Y-47580063D02*
X93396418Y-46430996D01*
X94928507Y-47716571D01*
X93964326Y-48865638D01*
X92432237Y-47580063D01*
X92432237Y-47580063D01*
G37*
D26*
X34925000Y-48960000D03*
D27*
X36925000Y-48960000D03*
X38925000Y-48960000D03*
X40925000Y-48960000D03*
X42925000Y-48960000D03*
X44925000Y-48960000D03*
X46925000Y-48960000D03*
X48925000Y-48960000D03*
X48925000Y-33560000D03*
X46925000Y-33660000D03*
X44925000Y-33560000D03*
X42925000Y-33560000D03*
X40925000Y-33560000D03*
X38925000Y-33560000D03*
X36925000Y-33560000D03*
X34925000Y-33560000D03*
D21*
X137490000Y-29885000D03*
X134290000Y-29885000D03*
X137490000Y-34885000D03*
X134290000Y-34885000D03*
X137490000Y-47665000D03*
X134290000Y-47665000D03*
X137490000Y-52665000D03*
X134290000Y-52665000D03*
D20*
X123785000Y-67640000D03*
X123785000Y-64440000D03*
X118785000Y-67640000D03*
X118785000Y-64440000D03*
D10*
G36*
X101552422Y-59851432D02*
X102195209Y-59085388D01*
X103420880Y-60113848D01*
X102778093Y-60879892D01*
X101552422Y-59851432D01*
X101552422Y-59851432D01*
G37*
G36*
X103609342Y-57400090D02*
X104252129Y-56634046D01*
X105477800Y-57662506D01*
X104835013Y-58428550D01*
X103609342Y-57400090D01*
X103609342Y-57400090D01*
G37*
G36*
X97722200Y-56637494D02*
X98364987Y-55871450D01*
X99590658Y-56899910D01*
X98947871Y-57665954D01*
X97722200Y-56637494D01*
X97722200Y-56637494D01*
G37*
G36*
X99779120Y-54186152D02*
X100421907Y-53420108D01*
X101647578Y-54448568D01*
X101004791Y-55214612D01*
X99779120Y-54186152D01*
X99779120Y-54186152D01*
G37*
D28*
X69120000Y-46990000D03*
X73120000Y-46990000D03*
D29*
X122872500Y-34512500D03*
X122872500Y-38512500D03*
D10*
G36*
X100602364Y-48940527D02*
X99573903Y-50166198D01*
X98041814Y-48880623D01*
X99070275Y-47654952D01*
X100602364Y-48940527D01*
X100602364Y-48940527D01*
G37*
G36*
X97538186Y-46369377D02*
X96509725Y-47595048D01*
X94977636Y-46309473D01*
X96006097Y-45083802D01*
X97538186Y-46369377D01*
X97538186Y-46369377D01*
G37*
D28*
X111220000Y-41275000D03*
X107220000Y-41275000D03*
D30*
X107315000Y-34195000D03*
X107315000Y-38195000D03*
X111125000Y-34195000D03*
X111125000Y-38195000D03*
D31*
X45815000Y-29845000D03*
X41815000Y-29845000D03*
D30*
X57785000Y-38640000D03*
X57785000Y-42640000D03*
D31*
X38005000Y-26035000D03*
X42005000Y-26035000D03*
D30*
X38735000Y-57880000D03*
X38735000Y-53880000D03*
D32*
X69120000Y-46990000D02*
X69215000Y-46990000D01*
X69215000Y-46990000D02*
X71120000Y-45085000D01*
X81280000Y-45085000D02*
X81915000Y-44450000D01*
X71120000Y-45085000D02*
X81280000Y-45085000D01*
X117155000Y-33335000D02*
X117155000Y-34210000D01*
X115570000Y-31750000D02*
X117155000Y-33335000D01*
X100330000Y-31750000D02*
X115570000Y-31750000D01*
X87630000Y-44450000D02*
X100330000Y-31750000D01*
X81915000Y-44450000D02*
X87630000Y-44450000D01*
D33*
X69820000Y-49720000D02*
X69820000Y-47690000D01*
X69820000Y-47690000D02*
X69120000Y-46990000D01*
D32*
X24130000Y-50165000D02*
X32385000Y-50165000D01*
X51435000Y-46355000D02*
X53340000Y-44450000D01*
X33655000Y-46355000D02*
X51435000Y-46355000D01*
X33020000Y-46990000D02*
X33655000Y-46355000D01*
X33020000Y-49530000D02*
X33020000Y-46990000D01*
X32385000Y-50165000D02*
X33020000Y-49530000D01*
X57245000Y-43180000D02*
X57785000Y-42640000D01*
X57785000Y-42640000D02*
X55245000Y-42640000D01*
X55245000Y-42640000D02*
X55245000Y-43180000D01*
X52705000Y-42975000D02*
X52705000Y-43815000D01*
X53340000Y-44450000D02*
X55245000Y-44450000D01*
X52705000Y-43815000D02*
X53340000Y-44450000D01*
X53743571Y-56768702D02*
X54356298Y-56768702D01*
X54356298Y-56768702D02*
X55245000Y-55880000D01*
X51405000Y-34260000D02*
X48925000Y-34260000D01*
X55245000Y-38100000D02*
X51405000Y-34260000D01*
X55245000Y-55880000D02*
X55245000Y-51435000D01*
X55245000Y-51435000D02*
X55245000Y-44450000D01*
X55245000Y-44450000D02*
X55245000Y-43180000D01*
X55245000Y-43180000D02*
X55245000Y-41275000D01*
X55245000Y-41275000D02*
X55245000Y-38100000D01*
X33615000Y-67640000D02*
X42215000Y-67640000D01*
X53743571Y-58016429D02*
X53743571Y-56768702D01*
X48895000Y-62865000D02*
X53743571Y-58016429D01*
X46990000Y-62865000D02*
X48895000Y-62865000D01*
X42215000Y-67640000D02*
X46990000Y-62865000D01*
X14910000Y-52665000D02*
X14910000Y-56185000D01*
X32040000Y-69215000D02*
X33615000Y-67640000D01*
X27940000Y-69215000D02*
X32040000Y-69215000D01*
X14910000Y-56185000D02*
X27940000Y-69215000D01*
X14910000Y-34885000D02*
X14910000Y-35255000D01*
X14910000Y-35255000D02*
X13335000Y-36830000D01*
X13335000Y-51090000D02*
X14910000Y-52665000D01*
X13335000Y-36830000D02*
X13335000Y-51090000D01*
X28615000Y-14910000D02*
X27635000Y-14910000D01*
X13335000Y-33310000D02*
X14910000Y-34885000D01*
X13335000Y-29210000D02*
X13335000Y-33310000D01*
X27635000Y-14910000D02*
X13335000Y-29210000D01*
X49913349Y-22567360D02*
X49872360Y-22567360D01*
X49872360Y-22567360D02*
X40640000Y-13335000D01*
X30190000Y-13335000D02*
X28615000Y-14910000D01*
X40640000Y-13335000D02*
X30190000Y-13335000D01*
X73700000Y-39040000D02*
X69520000Y-39040000D01*
X52412360Y-22567360D02*
X49913349Y-22567360D01*
X57785000Y-27940000D02*
X52412360Y-22567360D01*
X58420000Y-27940000D02*
X57785000Y-27940000D01*
X69520000Y-39040000D02*
X58420000Y-27940000D01*
X73700000Y-39040000D02*
X73700000Y-37425000D01*
X90147727Y-34290000D02*
X98656429Y-25781298D01*
X76835000Y-34290000D02*
X90147727Y-34290000D01*
X73700000Y-37425000D02*
X76835000Y-34290000D01*
X98656429Y-25781298D02*
X98656429Y-24533571D01*
X114645000Y-19050000D02*
X118785000Y-14910000D01*
X104140000Y-19050000D02*
X114645000Y-19050000D01*
X98656429Y-24533571D02*
X104140000Y-19050000D01*
X137490000Y-29885000D02*
X137490000Y-27000000D01*
X120360000Y-13335000D02*
X118785000Y-14910000D01*
X125095000Y-13335000D02*
X120360000Y-13335000D01*
X125730000Y-13970000D02*
X125095000Y-13335000D01*
X125730000Y-15240000D02*
X125730000Y-13970000D01*
X137490000Y-27000000D02*
X125730000Y-15240000D01*
X137490000Y-47665000D02*
X137755000Y-47665000D01*
X137755000Y-47665000D02*
X139065000Y-46355000D01*
X139065000Y-31460000D02*
X137490000Y-29885000D01*
X139065000Y-46355000D02*
X139065000Y-31460000D01*
X123785000Y-67640000D02*
X124765000Y-67640000D01*
X139065000Y-49240000D02*
X137490000Y-47665000D01*
X139065000Y-53340000D02*
X139065000Y-49240000D01*
X124765000Y-67640000D02*
X139065000Y-53340000D01*
X102486651Y-59982640D02*
X103797640Y-59982640D01*
X122210000Y-69215000D02*
X123785000Y-67640000D01*
X113030000Y-69215000D02*
X122210000Y-69215000D01*
X103797640Y-59982640D02*
X113030000Y-69215000D01*
X73120000Y-46990000D02*
X81280000Y-46990000D01*
X109315000Y-43180000D02*
X111220000Y-41275000D01*
X93345000Y-43180000D02*
X109315000Y-43180000D01*
X90805000Y-45720000D02*
X93345000Y-43180000D01*
X82550000Y-45720000D02*
X90805000Y-45720000D01*
X81280000Y-46990000D02*
X82550000Y-45720000D01*
X116205000Y-36910000D02*
X116205000Y-35560000D01*
X127015575Y-46339425D02*
X96257911Y-46339425D01*
X130810000Y-42545000D02*
X127015575Y-46339425D01*
X130810000Y-33655000D02*
X130810000Y-42545000D01*
X128905000Y-31750000D02*
X130810000Y-33655000D01*
X121285000Y-31750000D02*
X128905000Y-31750000D01*
X120650000Y-32385000D02*
X121285000Y-31750000D01*
X120650000Y-33655000D02*
X120650000Y-32385000D01*
X118745000Y-35560000D02*
X120650000Y-33655000D01*
X116205000Y-35560000D02*
X118745000Y-35560000D01*
X111125000Y-38195000D02*
X111125000Y-41180000D01*
X111125000Y-41180000D02*
X111220000Y-41275000D01*
X116205000Y-38100000D02*
X116840000Y-38735000D01*
X116840000Y-38735000D02*
X122650000Y-38735000D01*
X122650000Y-38735000D02*
X122872500Y-38512500D01*
X116205000Y-36910000D02*
X116205000Y-38100000D01*
X115570000Y-38735000D02*
X111665000Y-38735000D01*
X116205000Y-38100000D02*
X115570000Y-38735000D01*
X111665000Y-38735000D02*
X111125000Y-38195000D01*
X102486651Y-59982640D02*
X99987640Y-59982640D01*
X99987640Y-59982640D02*
X93345000Y-53340000D01*
X93345000Y-53340000D02*
X93345000Y-51435000D01*
X93345000Y-51435000D02*
X96257911Y-48522089D01*
X96257911Y-48522089D02*
X96257911Y-46339425D01*
X93680372Y-47648317D02*
X94949019Y-47648317D01*
X94949019Y-47648317D02*
X96257911Y-46339425D01*
X125412500Y-37782500D02*
X123602500Y-37782500D01*
X123602500Y-37782500D02*
X122872500Y-38512500D01*
D33*
X72420000Y-49720000D02*
X72420000Y-47690000D01*
X72420000Y-47690000D02*
X73120000Y-46990000D01*
D32*
X93980000Y-44450000D02*
X91440000Y-46990000D01*
X126365000Y-44450000D02*
X128905000Y-41275000D01*
X128905000Y-41275000D02*
X128905000Y-36830000D01*
X128905000Y-36830000D02*
X127317500Y-35242500D01*
X125412500Y-35242500D02*
X127317500Y-35242500D01*
X93980000Y-44450000D02*
X126365000Y-44450000D01*
X82680000Y-46990000D02*
X79030000Y-50640000D01*
X91440000Y-46990000D02*
X82680000Y-46990000D01*
X117155000Y-36910000D02*
X119935000Y-36910000D01*
X119935000Y-36910000D02*
X122332500Y-34512500D01*
X122332500Y-34512500D02*
X122872500Y-34512500D01*
X79757500Y-49912500D02*
X79030000Y-50640000D01*
X125412500Y-35242500D02*
X123602500Y-35242500D01*
X123602500Y-35242500D02*
X122872500Y-34512500D01*
X24130000Y-43815000D02*
X22225000Y-43815000D01*
X19685000Y-46355000D02*
X19685000Y-46090000D01*
X22225000Y-43815000D02*
X19685000Y-46355000D01*
X38735000Y-57880000D02*
X47507727Y-57880000D01*
X47507727Y-57880000D02*
X47856429Y-57531298D01*
X38005000Y-26035000D02*
X38005000Y-22955000D01*
X38005000Y-22955000D02*
X40957500Y-20002500D01*
X47856429Y-57531298D02*
X50418702Y-57531298D01*
X52705000Y-48260000D02*
X48925000Y-48260000D01*
X53975000Y-49530000D02*
X52705000Y-48260000D01*
X53975000Y-53975000D02*
X53975000Y-49530000D01*
X50418702Y-57531298D02*
X53975000Y-53975000D01*
X45815000Y-29845000D02*
X50074291Y-29845000D01*
X50074291Y-29845000D02*
X51686651Y-28232640D01*
X28615000Y-64440000D02*
X28905000Y-64440000D01*
X28905000Y-64440000D02*
X31750000Y-61595000D01*
X31750000Y-61595000D02*
X39370000Y-61595000D01*
X43792727Y-61595000D02*
X47856429Y-57531298D01*
X39370000Y-61595000D02*
X43792727Y-61595000D01*
X18110000Y-47665000D02*
X18110000Y-48590000D01*
X20320000Y-56145000D02*
X28615000Y-64440000D01*
X20320000Y-50800000D02*
X20320000Y-56145000D01*
X18110000Y-48590000D02*
X20320000Y-50800000D01*
X18110000Y-29885000D02*
X18455000Y-29885000D01*
X18455000Y-29885000D02*
X19685000Y-31115000D01*
X19685000Y-46090000D02*
X19685000Y-46090000D01*
X19685000Y-46090000D02*
X18110000Y-47665000D01*
X19685000Y-31115000D02*
X19685000Y-46090000D01*
X33615000Y-18110000D02*
X33325000Y-18110000D01*
X33325000Y-18110000D02*
X31115000Y-20320000D01*
X27675000Y-20320000D02*
X18110000Y-29885000D01*
X31115000Y-20320000D02*
X27675000Y-20320000D01*
X51686651Y-28232640D02*
X49187640Y-28232640D01*
X49187640Y-28232640D02*
X40957500Y-20002500D01*
X40957500Y-20002500D02*
X39065000Y-18110000D01*
X39065000Y-18110000D02*
X33615000Y-18110000D01*
X78700000Y-42240000D02*
X78410000Y-42240000D01*
X78410000Y-42240000D02*
X76835000Y-43815000D01*
X76835000Y-43815000D02*
X67269011Y-43815000D01*
X67269011Y-43815000D02*
X51686651Y-28232640D01*
X78700000Y-42240000D02*
X87935000Y-42240000D01*
X104543571Y-28171429D02*
X104543571Y-25018702D01*
X102235000Y-30480000D02*
X104543571Y-28171429D01*
X99695000Y-30480000D02*
X102235000Y-30480000D01*
X87935000Y-42240000D02*
X99695000Y-30480000D01*
X123785000Y-18110000D02*
X122225000Y-18110000D01*
X115951298Y-24383702D02*
X104543571Y-25018702D01*
X122225000Y-18110000D02*
X115951298Y-24383702D01*
X134290000Y-34885000D02*
X134290000Y-33325000D01*
X123785000Y-22820000D02*
X123785000Y-18110000D01*
X134290000Y-33325000D02*
X123785000Y-22820000D01*
X130810000Y-52705000D02*
X130810000Y-46355000D01*
X132715000Y-36460000D02*
X134290000Y-34885000D01*
X132715000Y-44450000D02*
X132715000Y-36460000D01*
X130810000Y-46355000D02*
X132715000Y-44450000D01*
X118785000Y-64440000D02*
X119075000Y-64440000D01*
X119075000Y-64440000D02*
X130810000Y-52705000D01*
X130810000Y-52705000D02*
X130850000Y-52665000D01*
X130850000Y-52665000D02*
X134290000Y-52665000D01*
X100713349Y-54317360D02*
X108662360Y-54317360D01*
X108662360Y-54317360D02*
X118785000Y-64440000D01*
X100713349Y-54317360D02*
X97885619Y-54317360D01*
X97885619Y-54317360D02*
X97028040Y-53459781D01*
X99322089Y-48910575D02*
X99322089Y-51165732D01*
X99322089Y-51165732D02*
X97028040Y-53459781D01*
X107315000Y-38195000D02*
X107315000Y-41180000D01*
X107315000Y-41180000D02*
X107220000Y-41275000D01*
X68620000Y-49720000D02*
X68620000Y-52020000D01*
X68620000Y-52020000D02*
X68220000Y-52420000D01*
X68220000Y-52420000D02*
X67620000Y-52420000D01*
X67620000Y-52420000D02*
X70120000Y-52420000D01*
X70120000Y-52420000D02*
X72120000Y-52420000D01*
X72120000Y-52420000D02*
X74020000Y-52420000D01*
X74020000Y-52420000D02*
X73620000Y-52020000D01*
X73620000Y-52020000D02*
X73620000Y-49720000D01*
X36925000Y-34260000D02*
X36925000Y-31210000D01*
X25400000Y-29845000D02*
X24130000Y-31115000D01*
X35560000Y-29845000D02*
X25400000Y-29845000D01*
X36925000Y-31210000D02*
X35560000Y-29845000D01*
X34925000Y-34260000D02*
X34925000Y-31750000D01*
X26670000Y-34925000D02*
X24130000Y-37465000D01*
X26670000Y-32385000D02*
X26670000Y-34925000D01*
X27940000Y-31115000D02*
X26670000Y-32385000D01*
X34290000Y-31115000D02*
X27940000Y-31115000D01*
X34925000Y-31750000D02*
X34290000Y-31115000D01*
X51686651Y-54317360D02*
X46697360Y-54317360D01*
X44925000Y-52545000D02*
X44925000Y-48260000D01*
X46697360Y-54317360D02*
X44925000Y-52545000D01*
X33615000Y-64440000D02*
X43510000Y-64440000D01*
X47967360Y-59982640D02*
X49913349Y-59982640D01*
X43510000Y-64440000D02*
X47967360Y-59982640D01*
X18110000Y-52665000D02*
X18110000Y-57135000D01*
X18110000Y-57135000D02*
X28615000Y-67640000D01*
X18110000Y-34885000D02*
X18110000Y-44465000D01*
X18110000Y-44465000D02*
X14910000Y-47665000D01*
X14910000Y-29885000D02*
X14910000Y-29540000D01*
X14910000Y-29540000D02*
X26340000Y-18110000D01*
X26340000Y-18110000D02*
X28615000Y-18110000D01*
X47856429Y-25018702D02*
X47856429Y-22456429D01*
X40310000Y-14910000D02*
X33615000Y-14910000D01*
X47856429Y-22456429D02*
X40310000Y-14910000D01*
X73700000Y-42240000D02*
X70202273Y-42240000D01*
X70202273Y-42240000D02*
X53743571Y-25781298D01*
X78700000Y-39040000D02*
X89230000Y-39040000D01*
X89230000Y-39040000D02*
X100037360Y-28232640D01*
X100037360Y-28232640D02*
X100713349Y-28232640D01*
X118785000Y-18110000D02*
X118415000Y-18110000D01*
X118415000Y-18110000D02*
X114592640Y-21932360D01*
X114592640Y-21932360D02*
X102486651Y-22567360D01*
X134290000Y-29885000D02*
X134290000Y-26975000D01*
X125730000Y-16855000D02*
X123785000Y-14910000D01*
X125730000Y-18415000D02*
X125730000Y-16855000D01*
X134290000Y-26975000D02*
X125730000Y-18415000D01*
X134290000Y-47665000D02*
X134290000Y-44145000D01*
X137490000Y-40945000D02*
X137490000Y-34885000D01*
X134290000Y-44145000D02*
X137490000Y-40945000D01*
X123785000Y-64440000D02*
X125715000Y-64440000D01*
X125715000Y-64440000D02*
X137490000Y-52665000D01*
X118785000Y-67640000D02*
X114652273Y-67640000D01*
X114652273Y-67640000D02*
X104543571Y-57531298D01*
X115255000Y-36910000D02*
X113110000Y-36910000D01*
X109315000Y-36195000D02*
X107315000Y-34195000D01*
X112395000Y-36195000D02*
X109315000Y-36195000D01*
X113110000Y-36910000D02*
X112395000Y-36195000D01*
X115255000Y-36910000D02*
X115255000Y-37145000D01*
X115255000Y-34210000D02*
X111140000Y-34210000D01*
X111140000Y-34210000D02*
X111125000Y-34195000D01*
X42925000Y-34260000D02*
X42925000Y-32765000D01*
X42925000Y-32765000D02*
X41815000Y-31655000D01*
X41815000Y-31655000D02*
X41815000Y-29845000D01*
X42925000Y-34260000D02*
X42925000Y-35305000D01*
X52705000Y-37465000D02*
X52705000Y-39575000D01*
X51435000Y-36195000D02*
X52705000Y-37465000D01*
X43815000Y-36195000D02*
X51435000Y-36195000D01*
X42925000Y-35305000D02*
X43815000Y-36195000D01*
X82030000Y-50640000D02*
X82030000Y-49415000D01*
X88446428Y-48895000D02*
X90723549Y-51172121D01*
X82550000Y-48895000D02*
X88446428Y-48895000D01*
X82030000Y-49415000D02*
X82550000Y-48895000D01*
X46925000Y-34260000D02*
X46925000Y-32450000D01*
X46925000Y-32450000D02*
X48260000Y-31115000D01*
X50260000Y-31115000D02*
X57785000Y-38640000D01*
X48260000Y-31115000D02*
X50260000Y-31115000D01*
X38735000Y-53880000D02*
X38735000Y-48450000D01*
X38735000Y-48450000D02*
X38925000Y-48260000D01*
X44925000Y-34260000D02*
X44925000Y-32860000D01*
X44925000Y-32860000D02*
X43815000Y-31750000D01*
X43815000Y-31750000D02*
X43815000Y-27845000D01*
X43815000Y-27845000D02*
X42005000Y-26035000D01*
M02*
