G04 #@! TF.FileFunction,Soldermask,Top*
%FSLAX46Y46*%
G04 Gerber Fmt 4.6, Leading zero omitted, Abs format (unit mm)*
G04 Created by KiCad (PCBNEW 4.0.5) date Sunday, March 11, 2018 'PMt' 06:28:43 PM*
%MOMM*%
%LPD*%
G01*
G04 APERTURE LIST*
%ADD10C,0.100000*%
G04 APERTURE END LIST*
D10*
G36*
X124635000Y-68190000D02*
X122935000Y-68190000D01*
X122935000Y-67090000D01*
X124635000Y-67090000D01*
X124635000Y-68190000D01*
X124635000Y-68190000D01*
G37*
G36*
X119635000Y-68190000D02*
X117935000Y-68190000D01*
X117935000Y-67090000D01*
X119635000Y-67090000D01*
X119635000Y-68190000D01*
X119635000Y-68190000D01*
G37*
G36*
X34465000Y-68190000D02*
X32765000Y-68190000D01*
X32765000Y-67090000D01*
X34465000Y-67090000D01*
X34465000Y-68190000D01*
X34465000Y-68190000D01*
G37*
G36*
X29465000Y-68190000D02*
X27765000Y-68190000D01*
X27765000Y-67090000D01*
X29465000Y-67090000D01*
X29465000Y-68190000D01*
X29465000Y-68190000D01*
G37*
G36*
X119635000Y-64990000D02*
X117935000Y-64990000D01*
X117935000Y-63890000D01*
X119635000Y-63890000D01*
X119635000Y-64990000D01*
X119635000Y-64990000D01*
G37*
G36*
X124635000Y-64990000D02*
X122935000Y-64990000D01*
X122935000Y-63890000D01*
X124635000Y-63890000D01*
X124635000Y-64990000D01*
X124635000Y-64990000D01*
G37*
G36*
X29465000Y-64990000D02*
X27765000Y-64990000D01*
X27765000Y-63890000D01*
X29465000Y-63890000D01*
X29465000Y-64990000D01*
X29465000Y-64990000D01*
G37*
G36*
X34465000Y-64990000D02*
X32765000Y-64990000D01*
X32765000Y-63890000D01*
X34465000Y-63890000D01*
X34465000Y-64990000D01*
X34465000Y-64990000D01*
G37*
G36*
X50918021Y-59857595D02*
X49615745Y-60950335D01*
X48908677Y-60107685D01*
X50210953Y-59014945D01*
X50918021Y-59857595D01*
X50918021Y-59857595D01*
G37*
G36*
X103491323Y-60107685D02*
X102784255Y-60950335D01*
X101481979Y-59857595D01*
X102189047Y-59014945D01*
X103491323Y-60107685D01*
X103491323Y-60107685D01*
G37*
G36*
X39635000Y-58930000D02*
X37835000Y-58930000D01*
X37835000Y-56830000D01*
X39635000Y-56830000D01*
X39635000Y-58930000D01*
X39635000Y-58930000D01*
G37*
G36*
X48861101Y-57406253D02*
X47558825Y-58498993D01*
X46851757Y-57656343D01*
X48154033Y-56563603D01*
X48861101Y-57406253D01*
X48861101Y-57406253D01*
G37*
G36*
X105548243Y-57656343D02*
X104841175Y-58498993D01*
X103538899Y-57406253D01*
X104245967Y-56563603D01*
X105548243Y-57656343D01*
X105548243Y-57656343D01*
G37*
G36*
X99661101Y-56893747D02*
X98954033Y-57736397D01*
X97651757Y-56643657D01*
X98358825Y-55801007D01*
X99661101Y-56893747D01*
X99661101Y-56893747D01*
G37*
G36*
X54748243Y-56643657D02*
X53445967Y-57736397D01*
X52738899Y-56893747D01*
X54041175Y-55801007D01*
X54748243Y-56643657D01*
X54748243Y-56643657D01*
G37*
G36*
X51984256Y-53349666D02*
X52043273Y-53420000D01*
X52691323Y-54192315D01*
X51389047Y-55285055D01*
X50681979Y-54442405D01*
X51984255Y-53349665D01*
X51984256Y-53349666D01*
X51984256Y-53349666D01*
G37*
G36*
X101718021Y-54442405D02*
X101010953Y-55285055D01*
X99708677Y-54192315D01*
X100356727Y-53420000D01*
X100415744Y-53349666D01*
X100415745Y-53349665D01*
X101718021Y-54442405D01*
X101718021Y-54442405D01*
G37*
G36*
X99720823Y-52005921D02*
X97213951Y-54993495D01*
X95605257Y-53643641D01*
X98112129Y-50656067D01*
X99720823Y-52005921D01*
X99720823Y-52005921D01*
G37*
G36*
X39635000Y-54930000D02*
X37835000Y-54930000D01*
X37835000Y-52830000D01*
X39635000Y-52830000D01*
X39635000Y-54930000D01*
X39635000Y-54930000D01*
G37*
G36*
X85480000Y-53950000D02*
X84380000Y-53950000D01*
X84380000Y-53050000D01*
X85480000Y-53050000D01*
X85480000Y-53950000D01*
X85480000Y-53950000D01*
G37*
G36*
X78180000Y-53950000D02*
X77080000Y-53950000D01*
X77080000Y-53050000D01*
X78180000Y-53050000D01*
X78180000Y-53950000D01*
X78180000Y-53950000D01*
G37*
G36*
X138040000Y-53515000D02*
X136940000Y-53515000D01*
X136940000Y-51815000D01*
X138040000Y-51815000D01*
X138040000Y-53515000D01*
X138040000Y-53515000D01*
G37*
G36*
X134840000Y-53515000D02*
X133740000Y-53515000D01*
X133740000Y-51815000D01*
X134840000Y-51815000D01*
X134840000Y-53515000D01*
X134840000Y-53515000D01*
G37*
G36*
X18660000Y-53515000D02*
X17560000Y-53515000D01*
X17560000Y-51815000D01*
X18660000Y-51815000D01*
X18660000Y-53515000D01*
X18660000Y-53515000D01*
G37*
G36*
X15460000Y-53515000D02*
X14360000Y-53515000D01*
X14360000Y-51815000D01*
X15460000Y-51815000D01*
X15460000Y-53515000D01*
X15460000Y-53515000D01*
G37*
G36*
X67667843Y-51419726D02*
X67673069Y-51420000D01*
X68870000Y-51420000D01*
X68870000Y-53420000D01*
X67670756Y-53420000D01*
X67666224Y-53420206D01*
X67615464Y-53424826D01*
X67572157Y-53420274D01*
X67566931Y-53420000D01*
X67541575Y-53420000D01*
X67541364Y-53419861D01*
X67525226Y-53415341D01*
X67489349Y-53411571D01*
X67489336Y-53411567D01*
X67489299Y-53411563D01*
X67368115Y-53374050D01*
X67256525Y-53313713D01*
X67158779Y-53232851D01*
X67078601Y-53134544D01*
X67019045Y-53022535D01*
X66982379Y-52901091D01*
X66970000Y-52774839D01*
X66970000Y-52065161D01*
X66970063Y-52056086D01*
X66984204Y-51930018D01*
X67022562Y-51809099D01*
X67083676Y-51697932D01*
X67165219Y-51600754D01*
X67264084Y-51521264D01*
X67376506Y-51462491D01*
X67498202Y-51426674D01*
X67498236Y-51426671D01*
X67498249Y-51426667D01*
X67524531Y-51424276D01*
X67538224Y-51421043D01*
X67540070Y-51420000D01*
X67569244Y-51420000D01*
X67573776Y-51419794D01*
X67624536Y-51415174D01*
X67667843Y-51419726D01*
X67667843Y-51419726D01*
G37*
G36*
X74667843Y-51419726D02*
X74673069Y-51420000D01*
X74698425Y-51420000D01*
X74698636Y-51420139D01*
X74714774Y-51424659D01*
X74750651Y-51428429D01*
X74750664Y-51428433D01*
X74750701Y-51428437D01*
X74871885Y-51465950D01*
X74983475Y-51526287D01*
X75081221Y-51607149D01*
X75161399Y-51705456D01*
X75220955Y-51817465D01*
X75257621Y-51938909D01*
X75270000Y-52065161D01*
X75270000Y-52774839D01*
X75269937Y-52783914D01*
X75255796Y-52909982D01*
X75217438Y-53030901D01*
X75156324Y-53142068D01*
X75074781Y-53239246D01*
X74975916Y-53318736D01*
X74863494Y-53377509D01*
X74741798Y-53413326D01*
X74741764Y-53413329D01*
X74741751Y-53413333D01*
X74715469Y-53415724D01*
X74701776Y-53418957D01*
X74699930Y-53420000D01*
X74670756Y-53420000D01*
X74666224Y-53420206D01*
X74615464Y-53424826D01*
X74572157Y-53420274D01*
X74566931Y-53420000D01*
X73370000Y-53420000D01*
X73370000Y-51420000D01*
X74569244Y-51420000D01*
X74573776Y-51419794D01*
X74624536Y-51415174D01*
X74667843Y-51419726D01*
X74667843Y-51419726D01*
G37*
G36*
X72920000Y-53420000D02*
X71320000Y-53420000D01*
X71320000Y-51420000D01*
X72920000Y-51420000D01*
X72920000Y-53420000D01*
X72920000Y-53420000D01*
G37*
G36*
X70920000Y-53420000D02*
X69320000Y-53420000D01*
X69320000Y-51420000D01*
X70920000Y-51420000D01*
X70920000Y-53420000D01*
X70920000Y-53420000D01*
G37*
G36*
X79832517Y-51900332D02*
X79928571Y-51920049D01*
X80018965Y-51958047D01*
X80100255Y-52012877D01*
X80169348Y-52082454D01*
X80223614Y-52164130D01*
X80260976Y-52254780D01*
X80279955Y-52350629D01*
X80279955Y-52350638D01*
X80280021Y-52350972D01*
X80278457Y-52462970D01*
X80278381Y-52463304D01*
X80278381Y-52463316D01*
X80256737Y-52558587D01*
X80216852Y-52648168D01*
X80160334Y-52728289D01*
X80089321Y-52795913D01*
X80006527Y-52848455D01*
X79915110Y-52883913D01*
X79818547Y-52900940D01*
X79720514Y-52898887D01*
X79624741Y-52877830D01*
X79534889Y-52838574D01*
X79454370Y-52782613D01*
X79386254Y-52712076D01*
X79333139Y-52629658D01*
X79297042Y-52538488D01*
X79279340Y-52442038D01*
X79280710Y-52343995D01*
X79301096Y-52248085D01*
X79339725Y-52157957D01*
X79395123Y-52077050D01*
X79465183Y-52008442D01*
X79547230Y-51954752D01*
X79638146Y-51918020D01*
X79734461Y-51899647D01*
X79832517Y-51900332D01*
X79832517Y-51900332D01*
G37*
G36*
X82832517Y-51900332D02*
X82928571Y-51920049D01*
X83018965Y-51958047D01*
X83100255Y-52012877D01*
X83169348Y-52082454D01*
X83223614Y-52164130D01*
X83260976Y-52254780D01*
X83279955Y-52350629D01*
X83279955Y-52350638D01*
X83280021Y-52350972D01*
X83278457Y-52462970D01*
X83278381Y-52463304D01*
X83278381Y-52463316D01*
X83256737Y-52558587D01*
X83216852Y-52648168D01*
X83160334Y-52728289D01*
X83089321Y-52795913D01*
X83006527Y-52848455D01*
X82915110Y-52883913D01*
X82818547Y-52900940D01*
X82720514Y-52898887D01*
X82624741Y-52877830D01*
X82534889Y-52838574D01*
X82454370Y-52782613D01*
X82386254Y-52712076D01*
X82333139Y-52629658D01*
X82297042Y-52538488D01*
X82279340Y-52442038D01*
X82280710Y-52343995D01*
X82301096Y-52248085D01*
X82339725Y-52157957D01*
X82395123Y-52077050D01*
X82465183Y-52008442D01*
X82547230Y-51954752D01*
X82638146Y-51918020D01*
X82734461Y-51899647D01*
X82832517Y-51900332D01*
X82832517Y-51900332D01*
G37*
G36*
X91706981Y-49785164D02*
X92677126Y-50599212D01*
X92677126Y-50599213D01*
X92207885Y-51158432D01*
X91648666Y-51824884D01*
X91648665Y-51824884D01*
X90914690Y-51209005D01*
X90039972Y-50475030D01*
X90039972Y-50475029D01*
X90591618Y-49817603D01*
X91068433Y-49249358D01*
X91706981Y-49785164D01*
X91706981Y-49785164D01*
G37*
G36*
X85480000Y-51740000D02*
X84380000Y-51740000D01*
X84380000Y-50840000D01*
X85480000Y-50840000D01*
X85480000Y-51740000D01*
X85480000Y-51740000D01*
G37*
G36*
X78180000Y-51740000D02*
X77080000Y-51740000D01*
X77080000Y-50840000D01*
X78180000Y-50840000D01*
X78180000Y-51740000D01*
X78180000Y-51740000D01*
G37*
G36*
X79430000Y-51440000D02*
X78630000Y-51440000D01*
X78630000Y-49840000D01*
X79430000Y-49840000D01*
X79430000Y-51440000D01*
X79430000Y-51440000D01*
G37*
G36*
X82430000Y-51440000D02*
X81630000Y-51440000D01*
X81630000Y-49840000D01*
X82430000Y-49840000D01*
X82430000Y-51440000D01*
X82430000Y-51440000D01*
G37*
G36*
X83930000Y-51440000D02*
X83130000Y-51440000D01*
X83130000Y-49840000D01*
X83930000Y-49840000D01*
X83930000Y-51440000D01*
X83930000Y-51440000D01*
G37*
G36*
X68701401Y-48945514D02*
X68850285Y-48976076D01*
X68990392Y-49034971D01*
X69116397Y-49119963D01*
X69223491Y-49227807D01*
X69307596Y-49354397D01*
X69365514Y-49494914D01*
X69394968Y-49643664D01*
X69394968Y-49643678D01*
X69395033Y-49644007D01*
X69392609Y-49817603D01*
X69392533Y-49817937D01*
X69392533Y-49817945D01*
X69358939Y-49965816D01*
X69297121Y-50104658D01*
X69209513Y-50228851D01*
X69099444Y-50333668D01*
X68971123Y-50415103D01*
X68829421Y-50470066D01*
X68679747Y-50496457D01*
X68527795Y-50493274D01*
X68379350Y-50460636D01*
X68240077Y-50399789D01*
X68115276Y-50313050D01*
X68009695Y-50203718D01*
X67927366Y-50075969D01*
X67871416Y-49934655D01*
X67843978Y-49785161D01*
X67846101Y-49633192D01*
X67877700Y-49484531D01*
X67937575Y-49344833D01*
X68023441Y-49219428D01*
X68132032Y-49113087D01*
X68259207Y-49029866D01*
X68400126Y-48972931D01*
X68549416Y-48944453D01*
X68701401Y-48945514D01*
X68701401Y-48945514D01*
G37*
G36*
X73701401Y-48945514D02*
X73850285Y-48976076D01*
X73990392Y-49034971D01*
X74116397Y-49119963D01*
X74223491Y-49227807D01*
X74307596Y-49354397D01*
X74365514Y-49494914D01*
X74394968Y-49643664D01*
X74394968Y-49643678D01*
X74395033Y-49644007D01*
X74392609Y-49817603D01*
X74392533Y-49817937D01*
X74392533Y-49817945D01*
X74358939Y-49965816D01*
X74297121Y-50104658D01*
X74209513Y-50228851D01*
X74099444Y-50333668D01*
X73971123Y-50415103D01*
X73829421Y-50470066D01*
X73679747Y-50496457D01*
X73527795Y-50493274D01*
X73379350Y-50460636D01*
X73240077Y-50399789D01*
X73115276Y-50313050D01*
X73009695Y-50203718D01*
X72927366Y-50075969D01*
X72871416Y-49934655D01*
X72843978Y-49785161D01*
X72846101Y-49633192D01*
X72877700Y-49484531D01*
X72937575Y-49344833D01*
X73023441Y-49219428D01*
X73132032Y-49113087D01*
X73259207Y-49029866D01*
X73400126Y-48972931D01*
X73549416Y-48944453D01*
X73701401Y-48945514D01*
X73701401Y-48945514D01*
G37*
G36*
X70720000Y-50445000D02*
X70220000Y-50445000D01*
X70220000Y-48995000D01*
X70720000Y-48995000D01*
X70720000Y-50445000D01*
X70720000Y-50445000D01*
G37*
G36*
X72670000Y-50445000D02*
X72170000Y-50445000D01*
X72170000Y-48995000D01*
X72670000Y-48995000D01*
X72670000Y-50445000D01*
X72670000Y-50445000D01*
G37*
G36*
X72020000Y-50445000D02*
X71520000Y-50445000D01*
X71520000Y-48995000D01*
X72020000Y-48995000D01*
X72020000Y-50445000D01*
X72020000Y-50445000D01*
G37*
G36*
X71370000Y-50445000D02*
X70870000Y-50445000D01*
X70870000Y-48995000D01*
X71370000Y-48995000D01*
X71370000Y-50445000D01*
X71370000Y-50445000D01*
G37*
G36*
X70070000Y-50445000D02*
X69570000Y-50445000D01*
X69570000Y-48995000D01*
X70070000Y-48995000D01*
X70070000Y-50445000D01*
X70070000Y-50445000D01*
G37*
G36*
X37045597Y-47665957D02*
X37045610Y-47665961D01*
X37045647Y-47665965D01*
X37157509Y-47700592D01*
X37260516Y-47756287D01*
X37350742Y-47830929D01*
X37424753Y-47921675D01*
X37479728Y-48025068D01*
X37513573Y-48137169D01*
X37525000Y-48253710D01*
X37525000Y-49666290D01*
X37524942Y-49674667D01*
X37511889Y-49791037D01*
X37476481Y-49902655D01*
X37420068Y-50005270D01*
X37344798Y-50094974D01*
X37253538Y-50168349D01*
X37149764Y-50222600D01*
X37037429Y-50255662D01*
X37037399Y-50255665D01*
X37037381Y-50255670D01*
X36920813Y-50266278D01*
X36804403Y-50254043D01*
X36804390Y-50254039D01*
X36804353Y-50254035D01*
X36692491Y-50219408D01*
X36589484Y-50163713D01*
X36499258Y-50089071D01*
X36425247Y-49998325D01*
X36370272Y-49894932D01*
X36336427Y-49782831D01*
X36325000Y-49666290D01*
X36325000Y-48253710D01*
X36325058Y-48245333D01*
X36338111Y-48128963D01*
X36373519Y-48017345D01*
X36429932Y-47914730D01*
X36505202Y-47825026D01*
X36596462Y-47751651D01*
X36700236Y-47697400D01*
X36812571Y-47664338D01*
X36812601Y-47664335D01*
X36812619Y-47664330D01*
X36929187Y-47653722D01*
X37045597Y-47665957D01*
X37045597Y-47665957D01*
G37*
G36*
X39045597Y-47665957D02*
X39045610Y-47665961D01*
X39045647Y-47665965D01*
X39157509Y-47700592D01*
X39260516Y-47756287D01*
X39350742Y-47830929D01*
X39424753Y-47921675D01*
X39479728Y-48025068D01*
X39513573Y-48137169D01*
X39525000Y-48253710D01*
X39525000Y-49666290D01*
X39524942Y-49674667D01*
X39511889Y-49791037D01*
X39476481Y-49902655D01*
X39420068Y-50005270D01*
X39344798Y-50094974D01*
X39253538Y-50168349D01*
X39149764Y-50222600D01*
X39037429Y-50255662D01*
X39037399Y-50255665D01*
X39037381Y-50255670D01*
X38920813Y-50266278D01*
X38804403Y-50254043D01*
X38804390Y-50254039D01*
X38804353Y-50254035D01*
X38692491Y-50219408D01*
X38589484Y-50163713D01*
X38499258Y-50089071D01*
X38425247Y-49998325D01*
X38370272Y-49894932D01*
X38336427Y-49782831D01*
X38325000Y-49666290D01*
X38325000Y-48253710D01*
X38325058Y-48245333D01*
X38338111Y-48128963D01*
X38373519Y-48017345D01*
X38429932Y-47914730D01*
X38505202Y-47825026D01*
X38596462Y-47751651D01*
X38700236Y-47697400D01*
X38812571Y-47664338D01*
X38812601Y-47664335D01*
X38812619Y-47664330D01*
X38929187Y-47653722D01*
X39045597Y-47665957D01*
X39045597Y-47665957D01*
G37*
G36*
X41045597Y-47665957D02*
X41045610Y-47665961D01*
X41045647Y-47665965D01*
X41157509Y-47700592D01*
X41260516Y-47756287D01*
X41350742Y-47830929D01*
X41424753Y-47921675D01*
X41479728Y-48025068D01*
X41513573Y-48137169D01*
X41525000Y-48253710D01*
X41525000Y-49666290D01*
X41524942Y-49674667D01*
X41511889Y-49791037D01*
X41476481Y-49902655D01*
X41420068Y-50005270D01*
X41344798Y-50094974D01*
X41253538Y-50168349D01*
X41149764Y-50222600D01*
X41037429Y-50255662D01*
X41037399Y-50255665D01*
X41037381Y-50255670D01*
X40920813Y-50266278D01*
X40804403Y-50254043D01*
X40804390Y-50254039D01*
X40804353Y-50254035D01*
X40692491Y-50219408D01*
X40589484Y-50163713D01*
X40499258Y-50089071D01*
X40425247Y-49998325D01*
X40370272Y-49894932D01*
X40336427Y-49782831D01*
X40325000Y-49666290D01*
X40325000Y-48253710D01*
X40325058Y-48245333D01*
X40338111Y-48128963D01*
X40373519Y-48017345D01*
X40429932Y-47914730D01*
X40505202Y-47825026D01*
X40596462Y-47751651D01*
X40700236Y-47697400D01*
X40812571Y-47664338D01*
X40812601Y-47664335D01*
X40812619Y-47664330D01*
X40929187Y-47653722D01*
X41045597Y-47665957D01*
X41045597Y-47665957D01*
G37*
G36*
X43045597Y-47665957D02*
X43045610Y-47665961D01*
X43045647Y-47665965D01*
X43157509Y-47700592D01*
X43260516Y-47756287D01*
X43350742Y-47830929D01*
X43424753Y-47921675D01*
X43479728Y-48025068D01*
X43513573Y-48137169D01*
X43525000Y-48253710D01*
X43525000Y-49666290D01*
X43524942Y-49674667D01*
X43511889Y-49791037D01*
X43476481Y-49902655D01*
X43420068Y-50005270D01*
X43344798Y-50094974D01*
X43253538Y-50168349D01*
X43149764Y-50222600D01*
X43037429Y-50255662D01*
X43037399Y-50255665D01*
X43037381Y-50255670D01*
X42920813Y-50266278D01*
X42804403Y-50254043D01*
X42804390Y-50254039D01*
X42804353Y-50254035D01*
X42692491Y-50219408D01*
X42589484Y-50163713D01*
X42499258Y-50089071D01*
X42425247Y-49998325D01*
X42370272Y-49894932D01*
X42336427Y-49782831D01*
X42325000Y-49666290D01*
X42325000Y-48253710D01*
X42325058Y-48245333D01*
X42338111Y-48128963D01*
X42373519Y-48017345D01*
X42429932Y-47914730D01*
X42505202Y-47825026D01*
X42596462Y-47751651D01*
X42700236Y-47697400D01*
X42812571Y-47664338D01*
X42812601Y-47664335D01*
X42812619Y-47664330D01*
X42929187Y-47653722D01*
X43045597Y-47665957D01*
X43045597Y-47665957D01*
G37*
G36*
X45045597Y-47665957D02*
X45045610Y-47665961D01*
X45045647Y-47665965D01*
X45157509Y-47700592D01*
X45260516Y-47756287D01*
X45350742Y-47830929D01*
X45424753Y-47921675D01*
X45479728Y-48025068D01*
X45513573Y-48137169D01*
X45525000Y-48253710D01*
X45525000Y-49666290D01*
X45524942Y-49674667D01*
X45511889Y-49791037D01*
X45476481Y-49902655D01*
X45420068Y-50005270D01*
X45344798Y-50094974D01*
X45253538Y-50168349D01*
X45149764Y-50222600D01*
X45037429Y-50255662D01*
X45037399Y-50255665D01*
X45037381Y-50255670D01*
X44920813Y-50266278D01*
X44804403Y-50254043D01*
X44804390Y-50254039D01*
X44804353Y-50254035D01*
X44692491Y-50219408D01*
X44589484Y-50163713D01*
X44499258Y-50089071D01*
X44425247Y-49998325D01*
X44370272Y-49894932D01*
X44336427Y-49782831D01*
X44325000Y-49666290D01*
X44325000Y-48253710D01*
X44325058Y-48245333D01*
X44338111Y-48128963D01*
X44373519Y-48017345D01*
X44429932Y-47914730D01*
X44505202Y-47825026D01*
X44596462Y-47751651D01*
X44700236Y-47697400D01*
X44812571Y-47664338D01*
X44812601Y-47664335D01*
X44812619Y-47664330D01*
X44929187Y-47653722D01*
X45045597Y-47665957D01*
X45045597Y-47665957D01*
G37*
G36*
X47045597Y-47665957D02*
X47045610Y-47665961D01*
X47045647Y-47665965D01*
X47157509Y-47700592D01*
X47260516Y-47756287D01*
X47350742Y-47830929D01*
X47424753Y-47921675D01*
X47479728Y-48025068D01*
X47513573Y-48137169D01*
X47525000Y-48253710D01*
X47525000Y-49666290D01*
X47524942Y-49674667D01*
X47511889Y-49791037D01*
X47476481Y-49902655D01*
X47420068Y-50005270D01*
X47344798Y-50094974D01*
X47253538Y-50168349D01*
X47149764Y-50222600D01*
X47037429Y-50255662D01*
X47037399Y-50255665D01*
X47037381Y-50255670D01*
X46920813Y-50266278D01*
X46804403Y-50254043D01*
X46804390Y-50254039D01*
X46804353Y-50254035D01*
X46692491Y-50219408D01*
X46589484Y-50163713D01*
X46499258Y-50089071D01*
X46425247Y-49998325D01*
X46370272Y-49894932D01*
X46336427Y-49782831D01*
X46325000Y-49666290D01*
X46325000Y-48253710D01*
X46325058Y-48245333D01*
X46338111Y-48128963D01*
X46373519Y-48017345D01*
X46429932Y-47914730D01*
X46505202Y-47825026D01*
X46596462Y-47751651D01*
X46700236Y-47697400D01*
X46812571Y-47664338D01*
X46812601Y-47664335D01*
X46812619Y-47664330D01*
X46929187Y-47653722D01*
X47045597Y-47665957D01*
X47045597Y-47665957D01*
G37*
G36*
X49045597Y-47665957D02*
X49045610Y-47665961D01*
X49045647Y-47665965D01*
X49157509Y-47700592D01*
X49260516Y-47756287D01*
X49350742Y-47830929D01*
X49424753Y-47921675D01*
X49479728Y-48025068D01*
X49513573Y-48137169D01*
X49525000Y-48253710D01*
X49525000Y-49666290D01*
X49524942Y-49674667D01*
X49511889Y-49791037D01*
X49476481Y-49902655D01*
X49420068Y-50005270D01*
X49344798Y-50094974D01*
X49253538Y-50168349D01*
X49149764Y-50222600D01*
X49037429Y-50255662D01*
X49037399Y-50255665D01*
X49037381Y-50255670D01*
X48920813Y-50266278D01*
X48804403Y-50254043D01*
X48804390Y-50254039D01*
X48804353Y-50254035D01*
X48692491Y-50219408D01*
X48589484Y-50163713D01*
X48499258Y-50089071D01*
X48425247Y-49998325D01*
X48370272Y-49894932D01*
X48336427Y-49782831D01*
X48325000Y-49666290D01*
X48325000Y-48253710D01*
X48325058Y-48245333D01*
X48338111Y-48128963D01*
X48373519Y-48017345D01*
X48429932Y-47914730D01*
X48505202Y-47825026D01*
X48596462Y-47751651D01*
X48700236Y-47697400D01*
X48812571Y-47664338D01*
X48812601Y-47664335D01*
X48812619Y-47664330D01*
X48929187Y-47653722D01*
X49045597Y-47665957D01*
X49045597Y-47665957D01*
G37*
G36*
X35525000Y-50260000D02*
X34325000Y-50260000D01*
X34325000Y-47660000D01*
X35525000Y-47660000D01*
X35525000Y-50260000D01*
X35525000Y-50260000D01*
G37*
G36*
X93187363Y-48024916D02*
X94155537Y-48837310D01*
X94155537Y-48837311D01*
X93809788Y-49249358D01*
X93127077Y-50062982D01*
X93127076Y-50062982D01*
X92191218Y-49277703D01*
X91518383Y-48713128D01*
X91518383Y-48713127D01*
X92044282Y-48086385D01*
X92546844Y-47487456D01*
X93187363Y-48024916D01*
X93187363Y-48024916D01*
G37*
G36*
X23022803Y-46711030D02*
X23320567Y-46772153D01*
X23600784Y-46889945D01*
X23852788Y-47059923D01*
X24066979Y-47275615D01*
X24235194Y-47528798D01*
X24351027Y-47809830D01*
X24410001Y-48107671D01*
X24410001Y-48107681D01*
X24410067Y-48108015D01*
X24405219Y-48455207D01*
X24405142Y-48455545D01*
X24405142Y-48455553D01*
X24337878Y-48751622D01*
X24214241Y-49029315D01*
X24039023Y-49277703D01*
X23818891Y-49487331D01*
X23562244Y-49650204D01*
X23278843Y-49760129D01*
X22979492Y-49812912D01*
X22675588Y-49806546D01*
X22378703Y-49741272D01*
X22100161Y-49619579D01*
X21850549Y-49446095D01*
X21639394Y-49227437D01*
X21474733Y-48971934D01*
X21362833Y-48689308D01*
X21307960Y-48390325D01*
X21312205Y-48086385D01*
X21375402Y-47789061D01*
X21495151Y-47509667D01*
X21666884Y-47258857D01*
X21884065Y-47046178D01*
X22138416Y-46879735D01*
X22420253Y-46765866D01*
X22718836Y-46708908D01*
X23022803Y-46711030D01*
X23022803Y-46711030D01*
G37*
G36*
X138040000Y-48515000D02*
X136940000Y-48515000D01*
X136940000Y-46815000D01*
X138040000Y-46815000D01*
X138040000Y-48515000D01*
X138040000Y-48515000D01*
G37*
G36*
X134840000Y-48515000D02*
X133740000Y-48515000D01*
X133740000Y-46815000D01*
X134840000Y-46815000D01*
X134840000Y-48515000D01*
X134840000Y-48515000D01*
G37*
G36*
X18660000Y-48515000D02*
X17560000Y-48515000D01*
X17560000Y-46815000D01*
X18660000Y-46815000D01*
X18660000Y-48515000D01*
X18660000Y-48515000D01*
G37*
G36*
X15460000Y-48515000D02*
X14360000Y-48515000D01*
X14360000Y-46815000D01*
X15460000Y-46815000D01*
X15460000Y-48515000D01*
X15460000Y-48515000D01*
G37*
G36*
X94355798Y-46002912D02*
X95633949Y-47075408D01*
X95633949Y-47075409D01*
X95465956Y-47275615D01*
X94605489Y-48301080D01*
X94605488Y-48301080D01*
X93834001Y-47653725D01*
X92996795Y-46951226D01*
X92996795Y-46951225D01*
X93677494Y-46140000D01*
X94025256Y-45725554D01*
X94355798Y-46002912D01*
X94355798Y-46002912D01*
G37*
G36*
X74170000Y-47840000D02*
X72070000Y-47840000D01*
X72070000Y-46140000D01*
X74170000Y-46140000D01*
X74170000Y-47840000D01*
X74170000Y-47840000D01*
G37*
G36*
X70170000Y-47840000D02*
X68070000Y-47840000D01*
X68070000Y-46140000D01*
X70170000Y-46140000D01*
X70170000Y-47840000D01*
X70170000Y-47840000D01*
G37*
G36*
X61860000Y-46865000D02*
X60060000Y-46865000D01*
X60060000Y-44765000D01*
X61860000Y-44765000D01*
X61860000Y-46865000D01*
X61860000Y-46865000D01*
G37*
G36*
X53502803Y-42901030D02*
X53800567Y-42962153D01*
X54080784Y-43079945D01*
X54332788Y-43249923D01*
X54546979Y-43465615D01*
X54715194Y-43718798D01*
X54831027Y-43999830D01*
X54890001Y-44297671D01*
X54890001Y-44297681D01*
X54890067Y-44298015D01*
X54885219Y-44645207D01*
X54885142Y-44645545D01*
X54885142Y-44645553D01*
X54817878Y-44941622D01*
X54694241Y-45219315D01*
X54519023Y-45467703D01*
X54298891Y-45677331D01*
X54042244Y-45840204D01*
X53758843Y-45950129D01*
X53459492Y-46002912D01*
X53155588Y-45996546D01*
X52858703Y-45931272D01*
X52580161Y-45809579D01*
X52330549Y-45636095D01*
X52119394Y-45417437D01*
X51954733Y-45161934D01*
X51842833Y-44879308D01*
X51787960Y-44580325D01*
X51792205Y-44276385D01*
X51855402Y-43979061D01*
X51975151Y-43699667D01*
X52146884Y-43448857D01*
X52364065Y-43236178D01*
X52618416Y-43069735D01*
X52900253Y-42955866D01*
X53198836Y-42898908D01*
X53502803Y-42901030D01*
X53502803Y-42901030D01*
G37*
G36*
X23022803Y-41631030D02*
X23320567Y-41692153D01*
X23600784Y-41809945D01*
X23852788Y-41979923D01*
X24066979Y-42195615D01*
X24235194Y-42448798D01*
X24351027Y-42729830D01*
X24410001Y-43027671D01*
X24410001Y-43027681D01*
X24410067Y-43028015D01*
X24405219Y-43375207D01*
X24405142Y-43375545D01*
X24405142Y-43375553D01*
X24337878Y-43671622D01*
X24214241Y-43949315D01*
X24039023Y-44197703D01*
X23818891Y-44407331D01*
X23562244Y-44570204D01*
X23278843Y-44680129D01*
X22979492Y-44732912D01*
X22675588Y-44726546D01*
X22378703Y-44661272D01*
X22100161Y-44539579D01*
X21850549Y-44366095D01*
X21639394Y-44147437D01*
X21474733Y-43891934D01*
X21362833Y-43609308D01*
X21307960Y-43310325D01*
X21312205Y-43006385D01*
X21375402Y-42709061D01*
X21495151Y-42429667D01*
X21666884Y-42178857D01*
X21884065Y-41966178D01*
X22138416Y-41799735D01*
X22420253Y-41685866D01*
X22718836Y-41628908D01*
X23022803Y-41631030D01*
X23022803Y-41631030D01*
G37*
G36*
X61860000Y-42865000D02*
X60060000Y-42865000D01*
X60060000Y-40765000D01*
X61860000Y-40765000D01*
X61860000Y-42865000D01*
X61860000Y-42865000D01*
G37*
G36*
X74550000Y-42790000D02*
X72850000Y-42790000D01*
X72850000Y-41690000D01*
X74550000Y-41690000D01*
X74550000Y-42790000D01*
X74550000Y-42790000D01*
G37*
G36*
X79550000Y-42790000D02*
X77850000Y-42790000D01*
X77850000Y-41690000D01*
X79550000Y-41690000D01*
X79550000Y-42790000D01*
X79550000Y-42790000D01*
G37*
G36*
X53502803Y-37821030D02*
X53800567Y-37882153D01*
X54080784Y-37999945D01*
X54332788Y-38169923D01*
X54546979Y-38385615D01*
X54715194Y-38638798D01*
X54831027Y-38919830D01*
X54890001Y-39217671D01*
X54890001Y-39217681D01*
X54890067Y-39218015D01*
X54885219Y-39565207D01*
X54885142Y-39565545D01*
X54885142Y-39565553D01*
X54817878Y-39861622D01*
X54694241Y-40139315D01*
X54519023Y-40387703D01*
X54298891Y-40597331D01*
X54042244Y-40760204D01*
X53758843Y-40870129D01*
X53459492Y-40922912D01*
X53155588Y-40916546D01*
X52858703Y-40851272D01*
X52580161Y-40729579D01*
X52330549Y-40556095D01*
X52119394Y-40337437D01*
X51954733Y-40081934D01*
X51842833Y-39799308D01*
X51787960Y-39500325D01*
X51792205Y-39196385D01*
X51855402Y-38899061D01*
X51975151Y-38619667D01*
X52146884Y-38368857D01*
X52364065Y-38156178D01*
X52618416Y-37989735D01*
X52900253Y-37875866D01*
X53198836Y-37818908D01*
X53502803Y-37821030D01*
X53502803Y-37821030D01*
G37*
G36*
X23022803Y-36551030D02*
X23320567Y-36612153D01*
X23600784Y-36729945D01*
X23852788Y-36899923D01*
X24066979Y-37115615D01*
X24235194Y-37368798D01*
X24351027Y-37649830D01*
X24410001Y-37947671D01*
X24410001Y-37947681D01*
X24410067Y-37948015D01*
X24405219Y-38295207D01*
X24405142Y-38295545D01*
X24405142Y-38295553D01*
X24337878Y-38591622D01*
X24214241Y-38869315D01*
X24039023Y-39117703D01*
X23818891Y-39327331D01*
X23562244Y-39490204D01*
X23278843Y-39600129D01*
X22979492Y-39652912D01*
X22675588Y-39646546D01*
X22378703Y-39581272D01*
X22100161Y-39459579D01*
X21850549Y-39286095D01*
X21639394Y-39067437D01*
X21474733Y-38811934D01*
X21362833Y-38529308D01*
X21307960Y-38230325D01*
X21312205Y-37926385D01*
X21375402Y-37629061D01*
X21495151Y-37349667D01*
X21666884Y-37098857D01*
X21884065Y-36886178D01*
X22138416Y-36719735D01*
X22420253Y-36605866D01*
X22718836Y-36548908D01*
X23022803Y-36551030D01*
X23022803Y-36551030D01*
G37*
G36*
X74550000Y-39590000D02*
X72850000Y-39590000D01*
X72850000Y-38490000D01*
X74550000Y-38490000D01*
X74550000Y-39590000D01*
X74550000Y-39590000D01*
G37*
G36*
X79550000Y-39590000D02*
X77850000Y-39590000D01*
X77850000Y-38490000D01*
X79550000Y-38490000D01*
X79550000Y-39590000D01*
X79550000Y-39590000D01*
G37*
G36*
X108850000Y-37975000D02*
X107050000Y-37975000D01*
X107050000Y-35875000D01*
X108850000Y-35875000D01*
X108850000Y-37975000D01*
X108850000Y-37975000D01*
G37*
G36*
X122770000Y-37975000D02*
X121070000Y-37975000D01*
X121070000Y-35875000D01*
X122770000Y-35875000D01*
X122770000Y-37975000D01*
X122770000Y-37975000D01*
G37*
G36*
X114995000Y-37105000D02*
X114245000Y-37105000D01*
X114245000Y-35445000D01*
X114995000Y-35445000D01*
X114995000Y-37105000D01*
X114995000Y-37105000D01*
G37*
G36*
X115945000Y-37105000D02*
X115195000Y-37105000D01*
X115195000Y-35445000D01*
X115945000Y-35445000D01*
X115945000Y-37105000D01*
X115945000Y-37105000D01*
G37*
G36*
X116895000Y-37105000D02*
X116145000Y-37105000D01*
X116145000Y-35445000D01*
X116895000Y-35445000D01*
X116895000Y-37105000D01*
X116895000Y-37105000D01*
G37*
G36*
X138040000Y-35735000D02*
X136940000Y-35735000D01*
X136940000Y-34035000D01*
X138040000Y-34035000D01*
X138040000Y-35735000D01*
X138040000Y-35735000D01*
G37*
G36*
X15460000Y-35735000D02*
X14360000Y-35735000D01*
X14360000Y-34035000D01*
X15460000Y-34035000D01*
X15460000Y-35735000D01*
X15460000Y-35735000D01*
G37*
G36*
X18660000Y-35735000D02*
X17560000Y-35735000D01*
X17560000Y-34035000D01*
X18660000Y-34035000D01*
X18660000Y-35735000D01*
X18660000Y-35735000D01*
G37*
G36*
X134840000Y-35735000D02*
X133740000Y-35735000D01*
X133740000Y-34035000D01*
X134840000Y-34035000D01*
X134840000Y-35735000D01*
X134840000Y-35735000D01*
G37*
G36*
X47045597Y-32365957D02*
X47045610Y-32365961D01*
X47045647Y-32365965D01*
X47157509Y-32400592D01*
X47260516Y-32456287D01*
X47350742Y-32530929D01*
X47424753Y-32621675D01*
X47479728Y-32725068D01*
X47513573Y-32837169D01*
X47525000Y-32953710D01*
X47525000Y-34366290D01*
X47524942Y-34374667D01*
X47511889Y-34491037D01*
X47476481Y-34602655D01*
X47420068Y-34705270D01*
X47344798Y-34794974D01*
X47253538Y-34868349D01*
X47149764Y-34922600D01*
X47037429Y-34955662D01*
X47037399Y-34955665D01*
X47037381Y-34955670D01*
X46920813Y-34966278D01*
X46804403Y-34954043D01*
X46804390Y-34954039D01*
X46804353Y-34954035D01*
X46692491Y-34919408D01*
X46589484Y-34863713D01*
X46499258Y-34789071D01*
X46425247Y-34698325D01*
X46370272Y-34594932D01*
X46336427Y-34482831D01*
X46325000Y-34366290D01*
X46325000Y-32953710D01*
X46325058Y-32945333D01*
X46338111Y-32828963D01*
X46373519Y-32717345D01*
X46429932Y-32614730D01*
X46505202Y-32525026D01*
X46596462Y-32451651D01*
X46700236Y-32397400D01*
X46812571Y-32364338D01*
X46812601Y-32364335D01*
X46812619Y-32364330D01*
X46929187Y-32353722D01*
X47045597Y-32365957D01*
X47045597Y-32365957D01*
G37*
G36*
X49045597Y-32265957D02*
X49045610Y-32265961D01*
X49045647Y-32265965D01*
X49157509Y-32300592D01*
X49260516Y-32356287D01*
X49350742Y-32430929D01*
X49424753Y-32521675D01*
X49479728Y-32625068D01*
X49513573Y-32737169D01*
X49525000Y-32853710D01*
X49525000Y-34266290D01*
X49524942Y-34274667D01*
X49511889Y-34391037D01*
X49476481Y-34502655D01*
X49420068Y-34605270D01*
X49344798Y-34694974D01*
X49253538Y-34768349D01*
X49149764Y-34822600D01*
X49037429Y-34855662D01*
X49037399Y-34855665D01*
X49037381Y-34855670D01*
X48920813Y-34866278D01*
X48804403Y-34854043D01*
X48804390Y-34854039D01*
X48804353Y-34854035D01*
X48692491Y-34819408D01*
X48589484Y-34763713D01*
X48499258Y-34689071D01*
X48425247Y-34598325D01*
X48370272Y-34494932D01*
X48336427Y-34382831D01*
X48325000Y-34266290D01*
X48325000Y-32853710D01*
X48325058Y-32845333D01*
X48338111Y-32728963D01*
X48373519Y-32617345D01*
X48429932Y-32514730D01*
X48505202Y-32425026D01*
X48596462Y-32351651D01*
X48700236Y-32297400D01*
X48812571Y-32264338D01*
X48812601Y-32264335D01*
X48812619Y-32264330D01*
X48929187Y-32253722D01*
X49045597Y-32265957D01*
X49045597Y-32265957D01*
G37*
G36*
X45045597Y-32265957D02*
X45045610Y-32265961D01*
X45045647Y-32265965D01*
X45157509Y-32300592D01*
X45260516Y-32356287D01*
X45350742Y-32430929D01*
X45424753Y-32521675D01*
X45479728Y-32625068D01*
X45513573Y-32737169D01*
X45525000Y-32853710D01*
X45525000Y-34266290D01*
X45524942Y-34274667D01*
X45511889Y-34391037D01*
X45476481Y-34502655D01*
X45420068Y-34605270D01*
X45344798Y-34694974D01*
X45253538Y-34768349D01*
X45149764Y-34822600D01*
X45037429Y-34855662D01*
X45037399Y-34855665D01*
X45037381Y-34855670D01*
X44920813Y-34866278D01*
X44804403Y-34854043D01*
X44804390Y-34854039D01*
X44804353Y-34854035D01*
X44692491Y-34819408D01*
X44589484Y-34763713D01*
X44499258Y-34689071D01*
X44425247Y-34598325D01*
X44370272Y-34494932D01*
X44336427Y-34382831D01*
X44325000Y-34266290D01*
X44325000Y-32853710D01*
X44325058Y-32845333D01*
X44338111Y-32728963D01*
X44373519Y-32617345D01*
X44429932Y-32514730D01*
X44505202Y-32425026D01*
X44596462Y-32351651D01*
X44700236Y-32297400D01*
X44812571Y-32264338D01*
X44812601Y-32264335D01*
X44812619Y-32264330D01*
X44929187Y-32253722D01*
X45045597Y-32265957D01*
X45045597Y-32265957D01*
G37*
G36*
X43045597Y-32265957D02*
X43045610Y-32265961D01*
X43045647Y-32265965D01*
X43157509Y-32300592D01*
X43260516Y-32356287D01*
X43350742Y-32430929D01*
X43424753Y-32521675D01*
X43479728Y-32625068D01*
X43513573Y-32737169D01*
X43525000Y-32853710D01*
X43525000Y-34266290D01*
X43524942Y-34274667D01*
X43511889Y-34391037D01*
X43476481Y-34502655D01*
X43420068Y-34605270D01*
X43344798Y-34694974D01*
X43253538Y-34768349D01*
X43149764Y-34822600D01*
X43037429Y-34855662D01*
X43037399Y-34855665D01*
X43037381Y-34855670D01*
X42920813Y-34866278D01*
X42804403Y-34854043D01*
X42804390Y-34854039D01*
X42804353Y-34854035D01*
X42692491Y-34819408D01*
X42589484Y-34763713D01*
X42499258Y-34689071D01*
X42425247Y-34598325D01*
X42370272Y-34494932D01*
X42336427Y-34382831D01*
X42325000Y-34266290D01*
X42325000Y-32853710D01*
X42325058Y-32845333D01*
X42338111Y-32728963D01*
X42373519Y-32617345D01*
X42429932Y-32514730D01*
X42505202Y-32425026D01*
X42596462Y-32351651D01*
X42700236Y-32297400D01*
X42812571Y-32264338D01*
X42812601Y-32264335D01*
X42812619Y-32264330D01*
X42929187Y-32253722D01*
X43045597Y-32265957D01*
X43045597Y-32265957D01*
G37*
G36*
X41045597Y-32265957D02*
X41045610Y-32265961D01*
X41045647Y-32265965D01*
X41157509Y-32300592D01*
X41260516Y-32356287D01*
X41350742Y-32430929D01*
X41424753Y-32521675D01*
X41479728Y-32625068D01*
X41513573Y-32737169D01*
X41525000Y-32853710D01*
X41525000Y-34266290D01*
X41524942Y-34274667D01*
X41511889Y-34391037D01*
X41476481Y-34502655D01*
X41420068Y-34605270D01*
X41344798Y-34694974D01*
X41253538Y-34768349D01*
X41149764Y-34822600D01*
X41037429Y-34855662D01*
X41037399Y-34855665D01*
X41037381Y-34855670D01*
X40920813Y-34866278D01*
X40804403Y-34854043D01*
X40804390Y-34854039D01*
X40804353Y-34854035D01*
X40692491Y-34819408D01*
X40589484Y-34763713D01*
X40499258Y-34689071D01*
X40425247Y-34598325D01*
X40370272Y-34494932D01*
X40336427Y-34382831D01*
X40325000Y-34266290D01*
X40325000Y-32853710D01*
X40325058Y-32845333D01*
X40338111Y-32728963D01*
X40373519Y-32617345D01*
X40429932Y-32514730D01*
X40505202Y-32425026D01*
X40596462Y-32351651D01*
X40700236Y-32297400D01*
X40812571Y-32264338D01*
X40812601Y-32264335D01*
X40812619Y-32264330D01*
X40929187Y-32253722D01*
X41045597Y-32265957D01*
X41045597Y-32265957D01*
G37*
G36*
X39045597Y-32265957D02*
X39045610Y-32265961D01*
X39045647Y-32265965D01*
X39157509Y-32300592D01*
X39260516Y-32356287D01*
X39350742Y-32430929D01*
X39424753Y-32521675D01*
X39479728Y-32625068D01*
X39513573Y-32737169D01*
X39525000Y-32853710D01*
X39525000Y-34266290D01*
X39524942Y-34274667D01*
X39511889Y-34391037D01*
X39476481Y-34502655D01*
X39420068Y-34605270D01*
X39344798Y-34694974D01*
X39253538Y-34768349D01*
X39149764Y-34822600D01*
X39037429Y-34855662D01*
X39037399Y-34855665D01*
X39037381Y-34855670D01*
X38920813Y-34866278D01*
X38804403Y-34854043D01*
X38804390Y-34854039D01*
X38804353Y-34854035D01*
X38692491Y-34819408D01*
X38589484Y-34763713D01*
X38499258Y-34689071D01*
X38425247Y-34598325D01*
X38370272Y-34494932D01*
X38336427Y-34382831D01*
X38325000Y-34266290D01*
X38325000Y-32853710D01*
X38325058Y-32845333D01*
X38338111Y-32728963D01*
X38373519Y-32617345D01*
X38429932Y-32514730D01*
X38505202Y-32425026D01*
X38596462Y-32351651D01*
X38700236Y-32297400D01*
X38812571Y-32264338D01*
X38812601Y-32264335D01*
X38812619Y-32264330D01*
X38929187Y-32253722D01*
X39045597Y-32265957D01*
X39045597Y-32265957D01*
G37*
G36*
X37045597Y-32265957D02*
X37045610Y-32265961D01*
X37045647Y-32265965D01*
X37157509Y-32300592D01*
X37260516Y-32356287D01*
X37350742Y-32430929D01*
X37424753Y-32521675D01*
X37479728Y-32625068D01*
X37513573Y-32737169D01*
X37525000Y-32853710D01*
X37525000Y-34266290D01*
X37524942Y-34274667D01*
X37511889Y-34391037D01*
X37476481Y-34502655D01*
X37420068Y-34605270D01*
X37344798Y-34694974D01*
X37253538Y-34768349D01*
X37149764Y-34822600D01*
X37037429Y-34855662D01*
X37037399Y-34855665D01*
X37037381Y-34855670D01*
X36920813Y-34866278D01*
X36804403Y-34854043D01*
X36804390Y-34854039D01*
X36804353Y-34854035D01*
X36692491Y-34819408D01*
X36589484Y-34763713D01*
X36499258Y-34689071D01*
X36425247Y-34598325D01*
X36370272Y-34494932D01*
X36336427Y-34382831D01*
X36325000Y-34266290D01*
X36325000Y-32853710D01*
X36325058Y-32845333D01*
X36338111Y-32728963D01*
X36373519Y-32617345D01*
X36429932Y-32514730D01*
X36505202Y-32425026D01*
X36596462Y-32351651D01*
X36700236Y-32297400D01*
X36812571Y-32264338D01*
X36812601Y-32264335D01*
X36812619Y-32264330D01*
X36929187Y-32253722D01*
X37045597Y-32265957D01*
X37045597Y-32265957D01*
G37*
G36*
X35045597Y-32265957D02*
X35045610Y-32265961D01*
X35045647Y-32265965D01*
X35157509Y-32300592D01*
X35260516Y-32356287D01*
X35350742Y-32430929D01*
X35424753Y-32521675D01*
X35479728Y-32625068D01*
X35513573Y-32737169D01*
X35525000Y-32853710D01*
X35525000Y-34266290D01*
X35524942Y-34274667D01*
X35511889Y-34391037D01*
X35476481Y-34502655D01*
X35420068Y-34605270D01*
X35344798Y-34694974D01*
X35253538Y-34768349D01*
X35149764Y-34822600D01*
X35037429Y-34855662D01*
X35037399Y-34855665D01*
X35037381Y-34855670D01*
X34920813Y-34866278D01*
X34804403Y-34854043D01*
X34804390Y-34854039D01*
X34804353Y-34854035D01*
X34692491Y-34819408D01*
X34589484Y-34763713D01*
X34499258Y-34689071D01*
X34425247Y-34598325D01*
X34370272Y-34494932D01*
X34336427Y-34382831D01*
X34325000Y-34266290D01*
X34325000Y-32853710D01*
X34325058Y-32845333D01*
X34338111Y-32728963D01*
X34373519Y-32617345D01*
X34429932Y-32514730D01*
X34505202Y-32425026D01*
X34596462Y-32351651D01*
X34700236Y-32297400D01*
X34812571Y-32264338D01*
X34812601Y-32264335D01*
X34812619Y-32264330D01*
X34929187Y-32253722D01*
X35045597Y-32265957D01*
X35045597Y-32265957D01*
G37*
G36*
X23022803Y-31471030D02*
X23320567Y-31532153D01*
X23600784Y-31649945D01*
X23852788Y-31819923D01*
X24066979Y-32035615D01*
X24235194Y-32288798D01*
X24351027Y-32569830D01*
X24410001Y-32867671D01*
X24410001Y-32867681D01*
X24410067Y-32868015D01*
X24405219Y-33215207D01*
X24405142Y-33215545D01*
X24405142Y-33215553D01*
X24337878Y-33511622D01*
X24214241Y-33789315D01*
X24039023Y-34037703D01*
X23818891Y-34247331D01*
X23562244Y-34410204D01*
X23278843Y-34520129D01*
X22979492Y-34572912D01*
X22675588Y-34566546D01*
X22378703Y-34501272D01*
X22100161Y-34379579D01*
X21850549Y-34206095D01*
X21639394Y-33987437D01*
X21474733Y-33731934D01*
X21362833Y-33449308D01*
X21307960Y-33150325D01*
X21312205Y-32846385D01*
X21375402Y-32549061D01*
X21495151Y-32269667D01*
X21666884Y-32018857D01*
X21884065Y-31806178D01*
X22138416Y-31639735D01*
X22420253Y-31525866D01*
X22718836Y-31468908D01*
X23022803Y-31471030D01*
X23022803Y-31471030D01*
G37*
G36*
X116895000Y-34405000D02*
X116145000Y-34405000D01*
X116145000Y-32745000D01*
X116895000Y-32745000D01*
X116895000Y-34405000D01*
X116895000Y-34405000D01*
G37*
G36*
X114995000Y-34405000D02*
X114245000Y-34405000D01*
X114245000Y-32745000D01*
X114995000Y-32745000D01*
X114995000Y-34405000D01*
X114995000Y-34405000D01*
G37*
G36*
X122770000Y-33975000D02*
X121070000Y-33975000D01*
X121070000Y-31875000D01*
X122770000Y-31875000D01*
X122770000Y-33975000D01*
X122770000Y-33975000D01*
G37*
G36*
X108850000Y-33975000D02*
X107050000Y-33975000D01*
X107050000Y-31875000D01*
X108850000Y-31875000D01*
X108850000Y-33975000D01*
X108850000Y-33975000D01*
G37*
G36*
X42865000Y-30745000D02*
X40765000Y-30745000D01*
X40765000Y-28945000D01*
X42865000Y-28945000D01*
X42865000Y-30745000D01*
X42865000Y-30745000D01*
G37*
G36*
X46865000Y-30745000D02*
X44765000Y-30745000D01*
X44765000Y-28945000D01*
X46865000Y-28945000D01*
X46865000Y-30745000D01*
X46865000Y-30745000D01*
G37*
G36*
X134840000Y-30735000D02*
X133740000Y-30735000D01*
X133740000Y-29035000D01*
X134840000Y-29035000D01*
X134840000Y-30735000D01*
X134840000Y-30735000D01*
G37*
G36*
X18660000Y-30735000D02*
X17560000Y-30735000D01*
X17560000Y-29035000D01*
X18660000Y-29035000D01*
X18660000Y-30735000D01*
X18660000Y-30735000D01*
G37*
G36*
X15460000Y-30735000D02*
X14360000Y-30735000D01*
X14360000Y-29035000D01*
X15460000Y-29035000D01*
X15460000Y-30735000D01*
X15460000Y-30735000D01*
G37*
G36*
X138040000Y-30735000D02*
X136940000Y-30735000D01*
X136940000Y-29035000D01*
X138040000Y-29035000D01*
X138040000Y-30735000D01*
X138040000Y-30735000D01*
G37*
G36*
X101718021Y-28107595D02*
X100415745Y-29200335D01*
X99708677Y-28357685D01*
X101010953Y-27264945D01*
X101718021Y-28107595D01*
X101718021Y-28107595D01*
G37*
G36*
X52691323Y-28357685D02*
X51984255Y-29200335D01*
X50681979Y-28107595D01*
X51389047Y-27264945D01*
X52691323Y-28357685D01*
X52691323Y-28357685D01*
G37*
G36*
X39055000Y-26935000D02*
X36955000Y-26935000D01*
X36955000Y-25135000D01*
X39055000Y-25135000D01*
X39055000Y-26935000D01*
X39055000Y-26935000D01*
G37*
G36*
X43055000Y-26935000D02*
X40955000Y-26935000D01*
X40955000Y-25135000D01*
X43055000Y-25135000D01*
X43055000Y-26935000D01*
X43055000Y-26935000D01*
G37*
G36*
X54748243Y-25906343D02*
X54041175Y-26748993D01*
X52738899Y-25656253D01*
X53445967Y-24813603D01*
X54748243Y-25906343D01*
X54748243Y-25906343D01*
G37*
G36*
X99661101Y-25656253D02*
X98358825Y-26748993D01*
X97651757Y-25906343D01*
X98954033Y-24813603D01*
X99661101Y-25656253D01*
X99661101Y-25656253D01*
G37*
G36*
X105548243Y-24893657D02*
X104245967Y-25986397D01*
X103538899Y-25143747D01*
X104841175Y-24051007D01*
X105548243Y-24893657D01*
X105548243Y-24893657D01*
G37*
G36*
X48861101Y-25143747D02*
X48154033Y-25986397D01*
X46851757Y-24893657D01*
X47558825Y-24051007D01*
X48861101Y-25143747D01*
X48861101Y-25143747D01*
G37*
G36*
X50918021Y-22692405D02*
X50210953Y-23535055D01*
X48908677Y-22442315D01*
X49615745Y-21599665D01*
X50918021Y-22692405D01*
X50918021Y-22692405D01*
G37*
G36*
X103491323Y-22442315D02*
X102189047Y-23535055D01*
X101481979Y-22692405D01*
X102784255Y-21599665D01*
X103491323Y-22442315D01*
X103491323Y-22442315D01*
G37*
G36*
X34465000Y-18660000D02*
X32765000Y-18660000D01*
X32765000Y-17560000D01*
X34465000Y-17560000D01*
X34465000Y-18660000D01*
X34465000Y-18660000D01*
G37*
G36*
X119635000Y-18660000D02*
X117935000Y-18660000D01*
X117935000Y-17560000D01*
X119635000Y-17560000D01*
X119635000Y-18660000D01*
X119635000Y-18660000D01*
G37*
G36*
X124635000Y-18660000D02*
X122935000Y-18660000D01*
X122935000Y-17560000D01*
X124635000Y-17560000D01*
X124635000Y-18660000D01*
X124635000Y-18660000D01*
G37*
G36*
X29465000Y-18660000D02*
X27765000Y-18660000D01*
X27765000Y-17560000D01*
X29465000Y-17560000D01*
X29465000Y-18660000D01*
X29465000Y-18660000D01*
G37*
G36*
X29465000Y-15460000D02*
X27765000Y-15460000D01*
X27765000Y-14360000D01*
X29465000Y-14360000D01*
X29465000Y-15460000D01*
X29465000Y-15460000D01*
G37*
G36*
X34465000Y-15460000D02*
X32765000Y-15460000D01*
X32765000Y-14360000D01*
X34465000Y-14360000D01*
X34465000Y-15460000D01*
X34465000Y-15460000D01*
G37*
G36*
X124635000Y-15460000D02*
X122935000Y-15460000D01*
X122935000Y-14360000D01*
X124635000Y-14360000D01*
X124635000Y-15460000D01*
X124635000Y-15460000D01*
G37*
G36*
X119635000Y-15460000D02*
X117935000Y-15460000D01*
X117935000Y-14360000D01*
X119635000Y-14360000D01*
X119635000Y-15460000D01*
X119635000Y-15460000D01*
G37*
M02*
