G04 #@! TF.FileFunction,Copper,L1,Top,Signal*
%FSLAX46Y46*%
G04 Gerber Fmt 4.6, Leading zero omitted, Abs format (unit mm)*
G04 Created by KiCad (PCBNEW 4.0.5) date Sunday, March 11, 2018 'PMt' 06:28:43 PM*
%MOMM*%
%LPD*%
G01*
G04 APERTURE LIST*
%ADD10C,0.100000*%
%ADD11R,1.500000X1.900000*%
%ADD12C,1.450000*%
%ADD13R,0.400000X1.350000*%
%ADD14O,1.200000X1.900000*%
%ADD15R,1.200000X1.900000*%
%ADD16C,3.000000*%
%ADD17R,1.600000X1.000000*%
%ADD18R,1.000000X1.600000*%
%ADD19R,0.700000X1.500000*%
%ADD20R,1.000000X0.800000*%
%ADD21R,0.650000X1.560000*%
%ADD22R,1.100000X2.500000*%
%ADD23O,1.100000X2.500000*%
%ADD24R,1.700000X2.000000*%
%ADD25R,2.000000X1.700000*%
%ADD26R,2.000000X1.600000*%
%ADD27R,1.600000X2.000000*%
%ADD28C,0.600000*%
%ADD29C,0.500000*%
%ADD30C,0.250000*%
%ADD31C,0.254000*%
G04 APERTURE END LIST*
D10*
D11*
X72120000Y-52420000D03*
D12*
X68620000Y-49720000D03*
D13*
X70470000Y-49720000D03*
X69820000Y-49720000D03*
X72420000Y-49720000D03*
X71770000Y-49720000D03*
X71120000Y-49720000D03*
D12*
X73620000Y-49720000D03*
D11*
X70120000Y-52420000D03*
D14*
X67620000Y-52420000D03*
X74620000Y-52420000D03*
D15*
X74020000Y-52420000D03*
X68220000Y-52420000D03*
D16*
X22860000Y-33020000D03*
X22860000Y-43180000D03*
X22860000Y-38100000D03*
X22860000Y-48260000D03*
D10*
G36*
X53452129Y-57665954D02*
X52809342Y-56899910D01*
X54035013Y-55871450D01*
X54677800Y-56637494D01*
X53452129Y-57665954D01*
X53452129Y-57665954D01*
G37*
G36*
X51395209Y-55214612D02*
X50752422Y-54448568D01*
X51978093Y-53420108D01*
X52620880Y-54186152D01*
X51395209Y-55214612D01*
X51395209Y-55214612D01*
G37*
G36*
X49621907Y-60879892D02*
X48979120Y-60113848D01*
X50204791Y-59085388D01*
X50847578Y-59851432D01*
X49621907Y-60879892D01*
X49621907Y-60879892D01*
G37*
G36*
X47564987Y-58428550D02*
X46922200Y-57662506D01*
X48147871Y-56634046D01*
X48790658Y-57400090D01*
X47564987Y-58428550D01*
X47564987Y-58428550D01*
G37*
D17*
X33615000Y-67640000D03*
X33615000Y-64440000D03*
X28615000Y-67640000D03*
X28615000Y-64440000D03*
D18*
X14910000Y-52665000D03*
X18110000Y-52665000D03*
X14910000Y-47665000D03*
X18110000Y-47665000D03*
X14910000Y-34885000D03*
X18110000Y-34885000D03*
X14910000Y-29885000D03*
X18110000Y-29885000D03*
D17*
X28615000Y-14910000D03*
X28615000Y-18110000D03*
X33615000Y-14910000D03*
X33615000Y-18110000D03*
D10*
G36*
X50847578Y-22698568D02*
X50204791Y-23464612D01*
X48979120Y-22436152D01*
X49621907Y-21670108D01*
X50847578Y-22698568D01*
X50847578Y-22698568D01*
G37*
G36*
X48790658Y-25149910D02*
X48147871Y-25915954D01*
X46922200Y-24887494D01*
X47564987Y-24121450D01*
X48790658Y-25149910D01*
X48790658Y-25149910D01*
G37*
G36*
X54677800Y-25912506D02*
X54035013Y-26678550D01*
X52809342Y-25650090D01*
X53452129Y-24884046D01*
X54677800Y-25912506D01*
X54677800Y-25912506D01*
G37*
G36*
X52620880Y-28363848D02*
X51978093Y-29129892D01*
X50752422Y-28101432D01*
X51395209Y-27335388D01*
X52620880Y-28363848D01*
X52620880Y-28363848D01*
G37*
D17*
X73700000Y-39040000D03*
X73700000Y-42240000D03*
X78700000Y-39040000D03*
X78700000Y-42240000D03*
D10*
G36*
X98947871Y-24884046D02*
X99590658Y-25650090D01*
X98364987Y-26678550D01*
X97722200Y-25912506D01*
X98947871Y-24884046D01*
X98947871Y-24884046D01*
G37*
G36*
X101004791Y-27335388D02*
X101647578Y-28101432D01*
X100421907Y-29129892D01*
X99779120Y-28363848D01*
X101004791Y-27335388D01*
X101004791Y-27335388D01*
G37*
G36*
X102778093Y-21670108D02*
X103420880Y-22436152D01*
X102195209Y-23464612D01*
X101552422Y-22698568D01*
X102778093Y-21670108D01*
X102778093Y-21670108D01*
G37*
G36*
X104835013Y-24121450D02*
X105477800Y-24887494D01*
X104252129Y-25915954D01*
X103609342Y-25149910D01*
X104835013Y-24121450D01*
X104835013Y-24121450D01*
G37*
D17*
X118785000Y-14910000D03*
X118785000Y-18110000D03*
X123785000Y-14910000D03*
X123785000Y-18110000D03*
D19*
X79030000Y-50640000D03*
X82030000Y-50640000D03*
X83530000Y-50640000D03*
D20*
X77630000Y-53500000D03*
X84930000Y-53500000D03*
X84930000Y-51290000D03*
X77630000Y-51290000D03*
D21*
X114620000Y-36275000D03*
X115570000Y-36275000D03*
X116520000Y-36275000D03*
X116520000Y-33575000D03*
X114620000Y-33575000D03*
D22*
X34925000Y-48960000D03*
D23*
X36925000Y-48960000D03*
X38925000Y-48960000D03*
X40925000Y-48960000D03*
X42925000Y-48960000D03*
X44925000Y-48960000D03*
X46925000Y-48960000D03*
X48925000Y-48960000D03*
X48925000Y-33560000D03*
X46925000Y-33660000D03*
X44925000Y-33560000D03*
X42925000Y-33560000D03*
X40925000Y-33560000D03*
X38925000Y-33560000D03*
X36925000Y-33560000D03*
X34925000Y-33560000D03*
D18*
X137490000Y-29885000D03*
X134290000Y-29885000D03*
X137490000Y-34885000D03*
X134290000Y-34885000D03*
X137490000Y-47665000D03*
X134290000Y-47665000D03*
X137490000Y-52665000D03*
X134290000Y-52665000D03*
D17*
X123785000Y-67640000D03*
X123785000Y-64440000D03*
X118785000Y-67640000D03*
X118785000Y-64440000D03*
D10*
G36*
X101552422Y-59851432D02*
X102195209Y-59085388D01*
X103420880Y-60113848D01*
X102778093Y-60879892D01*
X101552422Y-59851432D01*
X101552422Y-59851432D01*
G37*
G36*
X103609342Y-57400090D02*
X104252129Y-56634046D01*
X105477800Y-57662506D01*
X104835013Y-58428550D01*
X103609342Y-57400090D01*
X103609342Y-57400090D01*
G37*
G36*
X97722200Y-56637494D02*
X98364987Y-55871450D01*
X99590658Y-56899910D01*
X98947871Y-57665954D01*
X97722200Y-56637494D01*
X97722200Y-56637494D01*
G37*
G36*
X99779120Y-54186152D02*
X100421907Y-53420108D01*
X101647578Y-54448568D01*
X101004791Y-55214612D01*
X99779120Y-54186152D01*
X99779120Y-54186152D01*
G37*
D24*
X107950000Y-32925000D03*
X107950000Y-36925000D03*
D25*
X45815000Y-29845000D03*
X41815000Y-29845000D03*
D24*
X60960000Y-41815000D03*
X60960000Y-45815000D03*
D25*
X38005000Y-26035000D03*
X42005000Y-26035000D03*
D24*
X38735000Y-57880000D03*
X38735000Y-53880000D03*
D26*
X69120000Y-46990000D03*
X73120000Y-46990000D03*
D27*
X121920000Y-32925000D03*
X121920000Y-36925000D03*
D16*
X53340000Y-39370000D03*
X53340000Y-44450000D03*
D10*
G36*
X95675699Y-53637478D02*
X98118292Y-50726509D01*
X99650381Y-52012084D01*
X97207788Y-54923053D01*
X95675699Y-53637478D01*
X95675699Y-53637478D01*
G37*
G36*
X91588825Y-48706965D02*
X92553006Y-47557898D01*
X94085095Y-48843473D01*
X93120914Y-49992540D01*
X91588825Y-48706965D01*
X91588825Y-48706965D01*
G37*
G36*
X90110414Y-50468867D02*
X91074595Y-49319800D01*
X92606684Y-50605375D01*
X91642503Y-51754442D01*
X90110414Y-50468867D01*
X90110414Y-50468867D01*
G37*
G36*
X93067237Y-46945063D02*
X94031418Y-45795996D01*
X95563507Y-47081571D01*
X94599326Y-48230638D01*
X93067237Y-46945063D01*
X93067237Y-46945063D01*
G37*
D28*
X121920000Y-41910000D03*
X109220000Y-43180000D03*
X93980000Y-53340000D03*
X121920000Y-31115000D03*
D29*
X92836960Y-48775219D02*
X92590219Y-48775219D01*
X32385000Y-50165000D02*
X24765000Y-50165000D01*
X53340000Y-44450000D02*
X51435000Y-46355000D01*
X32385000Y-50165000D02*
X33020000Y-49530000D01*
X33020000Y-49530000D02*
X33020000Y-46990000D01*
X33020000Y-46990000D02*
X33655000Y-46355000D01*
X33655000Y-46355000D02*
X50800000Y-46355000D01*
X50800000Y-46355000D02*
X51435000Y-46355000D01*
X24765000Y-50165000D02*
X22860000Y-48260000D01*
X121920000Y-41910000D02*
X121920000Y-36925000D01*
X115570000Y-38100000D02*
X120745000Y-38100000D01*
X120745000Y-38100000D02*
X121920000Y-36925000D01*
X95877821Y-54610000D02*
X97663040Y-52824781D01*
X95250000Y-54610000D02*
X95877821Y-54610000D01*
X93980000Y-53340000D02*
X95250000Y-54610000D01*
X97663040Y-52824781D02*
X97663040Y-53213040D01*
X97663040Y-53213040D02*
X102486651Y-58036651D01*
X102486651Y-58036651D02*
X102486651Y-59982640D01*
X55245000Y-45515000D02*
X54405000Y-45515000D01*
X54405000Y-45515000D02*
X53340000Y-44450000D01*
X109220000Y-43180000D02*
X113347500Y-39052500D01*
X122650000Y-36830000D02*
X121920000Y-37560000D01*
X82550000Y-45720000D02*
X81915000Y-45720000D01*
X81915000Y-45720000D02*
X80645000Y-46990000D01*
X80645000Y-46990000D02*
X73025000Y-46990000D01*
X72420000Y-47595000D02*
X72420000Y-47655000D01*
X82550000Y-45720000D02*
X88265000Y-45720000D01*
X88265000Y-45720000D02*
X90805000Y-43180000D01*
X109220000Y-43180000D02*
X90805000Y-43180000D01*
X72420000Y-47595000D02*
X73025000Y-46990000D01*
X73700000Y-39040000D02*
X73700000Y-37505000D01*
X90147727Y-34290000D02*
X98656429Y-25781298D01*
X87607727Y-36830000D02*
X90147727Y-34290000D01*
X74375000Y-36830000D02*
X87607727Y-36830000D01*
X73700000Y-37505000D02*
X74375000Y-36830000D01*
X58420000Y-44450000D02*
X57150000Y-45720000D01*
X57150000Y-45720000D02*
X55450000Y-45720000D01*
X55450000Y-45720000D02*
X55245000Y-45515000D01*
X55245000Y-38100000D02*
X58420000Y-41275000D01*
X55245000Y-38100000D02*
X51405000Y-34260000D01*
X48925000Y-34260000D02*
X51405000Y-34260000D01*
X59785000Y-45815000D02*
X60960000Y-45815000D01*
X58420000Y-44450000D02*
X59785000Y-45815000D01*
X58420000Y-41275000D02*
X58420000Y-44450000D01*
X55245000Y-45515000D02*
X55245000Y-51435000D01*
X55245000Y-55880000D02*
X55245000Y-51435000D01*
X55245000Y-55880000D02*
X54356298Y-56768702D01*
X107950000Y-36925000D02*
X111220000Y-36925000D01*
X111220000Y-36925000D02*
X113347500Y-39052500D01*
X113347500Y-39052500D02*
X114300000Y-38100000D01*
X114300000Y-38100000D02*
X115570000Y-38100000D01*
X121825000Y-37465000D02*
X121920000Y-37560000D01*
X115570000Y-38100000D02*
X115570000Y-36275000D01*
X109220000Y-43180000D02*
X109315000Y-43180000D01*
D30*
X72420000Y-49720000D02*
X72420000Y-47655000D01*
X72420000Y-47655000D02*
X72390000Y-47625000D01*
D29*
X60420000Y-46355000D02*
X60960000Y-46450000D01*
X53743571Y-56768702D02*
X54356298Y-56768702D01*
X33615000Y-67640000D02*
X42215000Y-67640000D01*
X42215000Y-67640000D02*
X46990000Y-62865000D01*
X46990000Y-62865000D02*
X48895000Y-62865000D01*
X48895000Y-62865000D02*
X53743571Y-58016429D01*
X53743571Y-58016429D02*
X53743571Y-56768702D01*
X14910000Y-52665000D02*
X14910000Y-56185000D01*
X14910000Y-56185000D02*
X27940000Y-69215000D01*
X27940000Y-69215000D02*
X32040000Y-69215000D01*
X32040000Y-69215000D02*
X33615000Y-67640000D01*
X14910000Y-34885000D02*
X14910000Y-35255000D01*
X14910000Y-35255000D02*
X13335000Y-36830000D01*
X13335000Y-51090000D02*
X14910000Y-52665000D01*
X13335000Y-36830000D02*
X13335000Y-51090000D01*
X28615000Y-14910000D02*
X27635000Y-14910000D01*
X13335000Y-33310000D02*
X14910000Y-34885000D01*
X13335000Y-29210000D02*
X13335000Y-33310000D01*
X27635000Y-14910000D02*
X13335000Y-29210000D01*
X49913349Y-22567360D02*
X49872360Y-22567360D01*
X49872360Y-22567360D02*
X40640000Y-13335000D01*
X30190000Y-13335000D02*
X28615000Y-14910000D01*
X40640000Y-13335000D02*
X30190000Y-13335000D01*
X73700000Y-39040000D02*
X69520000Y-39040000D01*
X52412360Y-22567360D02*
X49913349Y-22567360D01*
X57785000Y-27940000D02*
X52412360Y-22567360D01*
X58420000Y-27940000D02*
X57785000Y-27940000D01*
X69520000Y-39040000D02*
X58420000Y-27940000D01*
X98656429Y-25781298D02*
X98656429Y-24533571D01*
X98656429Y-24533571D02*
X104140000Y-19050000D01*
X104140000Y-19050000D02*
X114645000Y-19050000D01*
X114645000Y-19050000D02*
X118785000Y-14910000D01*
X137490000Y-29885000D02*
X137490000Y-27000000D01*
X120360000Y-13335000D02*
X118785000Y-14910000D01*
X125095000Y-13335000D02*
X120360000Y-13335000D01*
X125730000Y-13970000D02*
X125095000Y-13335000D01*
X125730000Y-15240000D02*
X125730000Y-13970000D01*
X137490000Y-27000000D02*
X125730000Y-15240000D01*
X137490000Y-47665000D02*
X137755000Y-47665000D01*
X137755000Y-47665000D02*
X139065000Y-46355000D01*
X139065000Y-31460000D02*
X137490000Y-29885000D01*
X139065000Y-46355000D02*
X139065000Y-31460000D01*
X123785000Y-67640000D02*
X124765000Y-67640000D01*
X139065000Y-49240000D02*
X137490000Y-47665000D01*
X139065000Y-53340000D02*
X139065000Y-49240000D01*
X124765000Y-67640000D02*
X139065000Y-53340000D01*
X102486651Y-59982640D02*
X103797640Y-59982640D01*
X122210000Y-69215000D02*
X123785000Y-67640000D01*
X113030000Y-69215000D02*
X122210000Y-69215000D01*
X103797640Y-59982640D02*
X113030000Y-69215000D01*
X108490000Y-37465000D02*
X107950000Y-36925000D01*
X97670219Y-52824781D02*
X97663040Y-52824781D01*
X19685000Y-46355000D02*
X22860000Y-43180000D01*
X18110000Y-47665000D02*
X18375000Y-47665000D01*
X18375000Y-47665000D02*
X19685000Y-46355000D01*
X19685000Y-31115000D02*
X18455000Y-29885000D01*
X19685000Y-46355000D02*
X19685000Y-31115000D01*
X91358549Y-50537121D02*
X91358549Y-50718549D01*
X91358549Y-50718549D02*
X92710000Y-52070000D01*
X92710000Y-52070000D02*
X93980000Y-52070000D01*
X93980000Y-52070000D02*
X96520000Y-49530000D01*
X96520000Y-49530000D02*
X99060000Y-49530000D01*
X99060000Y-49530000D02*
X100713349Y-51183349D01*
X100713349Y-51183349D02*
X100713349Y-54317360D01*
X104543571Y-25018702D02*
X115316298Y-25018702D01*
X115316298Y-25018702D02*
X116205000Y-24130000D01*
X130810000Y-52705000D02*
X132715000Y-50800000D01*
X135890000Y-36485000D02*
X134290000Y-34885000D01*
X135890000Y-43180000D02*
X135890000Y-36485000D01*
X132715000Y-46355000D02*
X135890000Y-43180000D01*
X132715000Y-50800000D02*
X132715000Y-46355000D01*
X22860000Y-43180000D02*
X22225000Y-43815000D01*
X38735000Y-57880000D02*
X47507727Y-57880000D01*
X47507727Y-57880000D02*
X47856429Y-57531298D01*
X38005000Y-26035000D02*
X38005000Y-22955000D01*
X38005000Y-22955000D02*
X40957500Y-20002500D01*
X47856429Y-57531298D02*
X50418702Y-57531298D01*
X52705000Y-48260000D02*
X48925000Y-48260000D01*
X53975000Y-49530000D02*
X52705000Y-48260000D01*
X53975000Y-53975000D02*
X53975000Y-49530000D01*
X50418702Y-57531298D02*
X53975000Y-53975000D01*
X45815000Y-29845000D02*
X50074291Y-29845000D01*
X50074291Y-29845000D02*
X51686651Y-28232640D01*
X28615000Y-64440000D02*
X28905000Y-64440000D01*
X28905000Y-64440000D02*
X31750000Y-61595000D01*
X31750000Y-61595000D02*
X39370000Y-61595000D01*
X43792727Y-61595000D02*
X47856429Y-57531298D01*
X39370000Y-61595000D02*
X43792727Y-61595000D01*
X18110000Y-47665000D02*
X18110000Y-48590000D01*
X20320000Y-56145000D02*
X28615000Y-64440000D01*
X20320000Y-50800000D02*
X20320000Y-56145000D01*
X18110000Y-48590000D02*
X20320000Y-50800000D01*
X18110000Y-29885000D02*
X18455000Y-29885000D01*
X33615000Y-18110000D02*
X33325000Y-18110000D01*
X33325000Y-18110000D02*
X31115000Y-20320000D01*
X27675000Y-20320000D02*
X18110000Y-29885000D01*
X31115000Y-20320000D02*
X27675000Y-20320000D01*
X51686651Y-28232640D02*
X49187640Y-28232640D01*
X49187640Y-28232640D02*
X40957500Y-20002500D01*
X40957500Y-20002500D02*
X39065000Y-18110000D01*
X39065000Y-18110000D02*
X33615000Y-18110000D01*
X78700000Y-42240000D02*
X78410000Y-42240000D01*
X78410000Y-42240000D02*
X76835000Y-43815000D01*
X76835000Y-43815000D02*
X67269011Y-43815000D01*
X67269011Y-43815000D02*
X51686651Y-28232640D01*
X78700000Y-42240000D02*
X87935000Y-42240000D01*
X104543571Y-28171429D02*
X104543571Y-25018702D01*
X102235000Y-30480000D02*
X104543571Y-28171429D01*
X99695000Y-30480000D02*
X102235000Y-30480000D01*
X87935000Y-42240000D02*
X99695000Y-30480000D01*
X123785000Y-18110000D02*
X122225000Y-18110000D01*
X122225000Y-18110000D02*
X116205000Y-24130000D01*
X116205000Y-24130000D02*
X115951298Y-24383702D01*
X134290000Y-34885000D02*
X134290000Y-33325000D01*
X134290000Y-33325000D02*
X123785000Y-22820000D01*
X123785000Y-22820000D02*
X123785000Y-18110000D01*
X118785000Y-64440000D02*
X119075000Y-64440000D01*
X119075000Y-64440000D02*
X130810000Y-52705000D01*
X130810000Y-52705000D02*
X130850000Y-52665000D01*
X130850000Y-52665000D02*
X134290000Y-52665000D01*
X100713349Y-54317360D02*
X108585000Y-54317360D01*
X108585000Y-54317360D02*
X108662360Y-54317360D01*
X108662360Y-54317360D02*
X118785000Y-64440000D01*
X68620000Y-49720000D02*
X68620000Y-52020000D01*
X68620000Y-52020000D02*
X68220000Y-52420000D01*
X68220000Y-52420000D02*
X67620000Y-52420000D01*
X67620000Y-52420000D02*
X70120000Y-52420000D01*
X70120000Y-52420000D02*
X72120000Y-52420000D01*
X72120000Y-52420000D02*
X74020000Y-52420000D01*
X74020000Y-52420000D02*
X73620000Y-52020000D01*
X73620000Y-52020000D02*
X73620000Y-49720000D01*
X35560000Y-29845000D02*
X26035000Y-29845000D01*
X36925000Y-31210000D02*
X35560000Y-29845000D01*
X36925000Y-34260000D02*
X36925000Y-31210000D01*
X26035000Y-29845000D02*
X22860000Y-33020000D01*
X26670000Y-32385000D02*
X26670000Y-34290000D01*
X34925000Y-31750000D02*
X34290000Y-31115000D01*
X34290000Y-31115000D02*
X27940000Y-31115000D01*
X27940000Y-31115000D02*
X26670000Y-32385000D01*
X34925000Y-34260000D02*
X34925000Y-31750000D01*
X26670000Y-34290000D02*
X22860000Y-38100000D01*
X51686651Y-54317360D02*
X46697360Y-54317360D01*
X44925000Y-52545000D02*
X44925000Y-48260000D01*
X46697360Y-54317360D02*
X44925000Y-52545000D01*
X33615000Y-64440000D02*
X43510000Y-64440000D01*
X47967360Y-59982640D02*
X49913349Y-59982640D01*
X43510000Y-64440000D02*
X47967360Y-59982640D01*
X18110000Y-52665000D02*
X18110000Y-57135000D01*
X18110000Y-57135000D02*
X28615000Y-67640000D01*
X18110000Y-34885000D02*
X18110000Y-44465000D01*
X18110000Y-44465000D02*
X14910000Y-47665000D01*
X14910000Y-29885000D02*
X14910000Y-29540000D01*
X14910000Y-29540000D02*
X26340000Y-18110000D01*
X26340000Y-18110000D02*
X28615000Y-18110000D01*
X47856429Y-25018702D02*
X47856429Y-22456429D01*
X40310000Y-14910000D02*
X33615000Y-14910000D01*
X47856429Y-22456429D02*
X40310000Y-14910000D01*
X73700000Y-42240000D02*
X70202273Y-42240000D01*
X70202273Y-42240000D02*
X53743571Y-25781298D01*
X78700000Y-39040000D02*
X89230000Y-39040000D01*
X89230000Y-39040000D02*
X100037360Y-28232640D01*
X100037360Y-28232640D02*
X100713349Y-28232640D01*
X102486651Y-22567360D02*
X113957640Y-22567360D01*
X113957640Y-22567360D02*
X114935000Y-21590000D01*
X118785000Y-18110000D02*
X118415000Y-18110000D01*
X118415000Y-18110000D02*
X114935000Y-21590000D01*
X114935000Y-21590000D02*
X114592640Y-21932360D01*
X134290000Y-29885000D02*
X134290000Y-26975000D01*
X125730000Y-16855000D02*
X123785000Y-14910000D01*
X125730000Y-18415000D02*
X125730000Y-16855000D01*
X134290000Y-26975000D02*
X125730000Y-18415000D01*
X137490000Y-40945000D02*
X137490000Y-44465000D01*
X137490000Y-34885000D02*
X137490000Y-40945000D01*
X137490000Y-44465000D02*
X134290000Y-47665000D01*
X123785000Y-64440000D02*
X125715000Y-64440000D01*
X125715000Y-64440000D02*
X137490000Y-52665000D01*
X118785000Y-67640000D02*
X114652273Y-67640000D01*
X114652273Y-67640000D02*
X104543571Y-57531298D01*
X107950000Y-32925000D02*
X113970000Y-32925000D01*
X113970000Y-32925000D02*
X114620000Y-33575000D01*
X107965000Y-32940000D02*
X107950000Y-32925000D01*
X46925000Y-34260000D02*
X46925000Y-32450000D01*
X46925000Y-32450000D02*
X48260000Y-31115000D01*
X50260000Y-31115000D02*
X60960000Y-41815000D01*
X48260000Y-31115000D02*
X50260000Y-31115000D01*
X38735000Y-53880000D02*
X38735000Y-48450000D01*
X38735000Y-48450000D02*
X38925000Y-48260000D01*
X44925000Y-34260000D02*
X44925000Y-32860000D01*
X44925000Y-32860000D02*
X43815000Y-31750000D01*
X43815000Y-31750000D02*
X43815000Y-27845000D01*
X43815000Y-27845000D02*
X42005000Y-26035000D01*
X72390000Y-45085000D02*
X71025000Y-45085000D01*
X100330000Y-35560000D02*
X105410000Y-30480000D01*
X116520000Y-32700000D02*
X114300000Y-30480000D01*
X114300000Y-30480000D02*
X105410000Y-30480000D01*
X88265000Y-43815000D02*
X96520000Y-35560000D01*
X81280000Y-43815000D02*
X88265000Y-43815000D01*
X80010000Y-45085000D02*
X81280000Y-43815000D01*
X72390000Y-45085000D02*
X80010000Y-45085000D01*
X116520000Y-33575000D02*
X116520000Y-32700000D01*
X96520000Y-35560000D02*
X100330000Y-35560000D01*
X71025000Y-45085000D02*
X69120000Y-46990000D01*
D30*
X69820000Y-47655000D02*
X69820000Y-49720000D01*
X69820000Y-47655000D02*
X69850000Y-47625000D01*
D29*
X130175000Y-34925000D02*
X128270000Y-33020000D01*
X79030000Y-50640000D02*
X82680000Y-46990000D01*
X91440000Y-44450000D02*
X88900000Y-46990000D01*
X88900000Y-46990000D02*
X82680000Y-46990000D01*
X91440000Y-44450000D02*
X126365000Y-44450000D01*
X126365000Y-44450000D02*
X127000000Y-44450000D01*
X127000000Y-44450000D02*
X132080000Y-39370000D01*
X132080000Y-39370000D02*
X132080000Y-36830000D01*
X132080000Y-36830000D02*
X130175000Y-34925000D01*
X128270000Y-33020000D02*
X122015000Y-33020000D01*
X122015000Y-33020000D02*
X121920000Y-32925000D01*
X121920000Y-32925000D02*
X121920000Y-31115000D01*
X118030000Y-36275000D02*
X118570000Y-36275000D01*
X116520000Y-36275000D02*
X118030000Y-36275000D01*
X118570000Y-36275000D02*
X121920000Y-32925000D01*
X79757500Y-49912500D02*
X79030000Y-50640000D01*
X52705000Y-38735000D02*
X52705000Y-37465000D01*
X42925000Y-35305000D02*
X42925000Y-34260000D01*
X51435000Y-36195000D02*
X52705000Y-37465000D01*
X43815000Y-36195000D02*
X51435000Y-36195000D01*
X42925000Y-35305000D02*
X43815000Y-36195000D01*
X52705000Y-38735000D02*
X53340000Y-39370000D01*
X42925000Y-34260000D02*
X42925000Y-32765000D01*
X42925000Y-32765000D02*
X41815000Y-31655000D01*
X41815000Y-31655000D02*
X41815000Y-29845000D01*
X88265000Y-48895000D02*
X88900000Y-48895000D01*
X91440000Y-46355000D02*
X93657055Y-46355000D01*
X88900000Y-48895000D02*
X91440000Y-46355000D01*
X93657055Y-46355000D02*
X94315372Y-47013317D01*
X82030000Y-50640000D02*
X82030000Y-49415000D01*
X82030000Y-49415000D02*
X82550000Y-48895000D01*
X82550000Y-48895000D02*
X88265000Y-48895000D01*
X88265000Y-48895000D02*
X88446428Y-48895000D01*
X114620000Y-36275000D02*
X114620000Y-36510000D01*
D31*
G36*
X63062958Y-31642465D02*
X63152876Y-31691071D01*
X63237862Y-31747857D01*
X63269607Y-31754171D01*
X63298078Y-31769562D01*
X63399746Y-31780058D01*
X63500000Y-31800000D01*
X63531745Y-31793685D01*
X63563938Y-31797009D01*
X63661887Y-31767798D01*
X63762138Y-31747857D01*
X63789049Y-31729876D01*
X63820065Y-31720626D01*
X63899381Y-31656154D01*
X63984368Y-31599368D01*
X66323736Y-29260000D01*
X86076264Y-29260000D01*
X88415632Y-31599368D01*
X88500619Y-31656154D01*
X88579935Y-31720626D01*
X88610951Y-31729876D01*
X88637862Y-31747857D01*
X88738109Y-31767797D01*
X88836062Y-31797009D01*
X88868258Y-31793685D01*
X88900000Y-31799999D01*
X89000247Y-31780059D01*
X89101922Y-31769562D01*
X89130394Y-31754171D01*
X89162138Y-31747857D01*
X89247124Y-31691071D01*
X89337042Y-31642465D01*
X95033436Y-26922595D01*
X97740832Y-26922595D01*
X97797359Y-26989962D01*
X97959740Y-27183480D01*
X98183815Y-27300126D01*
X98435473Y-27322142D01*
X98676399Y-27246178D01*
X99167096Y-26834435D01*
X99186663Y-26610783D01*
X98640775Y-25960220D01*
X97760399Y-26698943D01*
X97740832Y-26922595D01*
X95033436Y-26922595D01*
X96167443Y-25982990D01*
X97078607Y-25982990D01*
X97154571Y-26223917D01*
X97316951Y-26417434D01*
X97373479Y-26484801D01*
X97597131Y-26504368D01*
X98440195Y-25796952D01*
X98835351Y-25796952D01*
X99381238Y-26447515D01*
X99604890Y-26467082D01*
X100095587Y-26055338D01*
X100212233Y-25831263D01*
X100234251Y-25579606D01*
X100158287Y-25338679D01*
X99995907Y-25145162D01*
X99939379Y-25077795D01*
X99715727Y-25058228D01*
X98835351Y-25796952D01*
X98440195Y-25796952D01*
X98477507Y-25765644D01*
X97931620Y-25115081D01*
X97707968Y-25095514D01*
X97217271Y-25507258D01*
X97100625Y-25731333D01*
X97078607Y-25982990D01*
X96167443Y-25982990D01*
X97411966Y-24951813D01*
X98126195Y-24951813D01*
X98672083Y-25602376D01*
X99552459Y-24863653D01*
X99572026Y-24640001D01*
X99515499Y-24572634D01*
X99353118Y-24379116D01*
X99129043Y-24262470D01*
X98877385Y-24240454D01*
X98636459Y-24316418D01*
X98145762Y-24728161D01*
X98126195Y-24951813D01*
X97411966Y-24951813D01*
X109186525Y-15195750D01*
X117350000Y-15195750D01*
X117350000Y-15536310D01*
X117446673Y-15769699D01*
X117625302Y-15948327D01*
X117858691Y-16045000D01*
X118499250Y-16045000D01*
X118658000Y-15886250D01*
X118658000Y-15037000D01*
X118912000Y-15037000D01*
X118912000Y-15886250D01*
X119070750Y-16045000D01*
X119711309Y-16045000D01*
X119944698Y-15948327D01*
X120123327Y-15769699D01*
X120220000Y-15536310D01*
X120220000Y-15195750D01*
X120061250Y-15037000D01*
X118912000Y-15037000D01*
X118658000Y-15037000D01*
X117508750Y-15037000D01*
X117350000Y-15195750D01*
X109186525Y-15195750D01*
X110287287Y-14283690D01*
X117350000Y-14283690D01*
X117350000Y-14624250D01*
X117508750Y-14783000D01*
X118658000Y-14783000D01*
X118658000Y-13933750D01*
X118912000Y-13933750D01*
X118912000Y-14783000D01*
X120061250Y-14783000D01*
X120220000Y-14624250D01*
X120220000Y-14283690D01*
X120123327Y-14050301D01*
X119944698Y-13871673D01*
X119711309Y-13775000D01*
X119070750Y-13775000D01*
X118912000Y-13933750D01*
X118658000Y-13933750D01*
X118499250Y-13775000D01*
X117858691Y-13775000D01*
X117625302Y-13871673D01*
X117446673Y-14050301D01*
X117350000Y-14283690D01*
X110287287Y-14283690D01*
X111371914Y-13385000D01*
X126670772Y-13385000D01*
X139015000Y-28815285D01*
X139015000Y-53734715D01*
X126670772Y-69165000D01*
X111371914Y-69165000D01*
X101290860Y-60812125D01*
X101956417Y-60812125D01*
X101975984Y-61035777D01*
X102466681Y-61447520D01*
X102707607Y-61523484D01*
X102959265Y-61501468D01*
X103183340Y-61384822D01*
X103345721Y-61191304D01*
X103402248Y-61123937D01*
X103382681Y-60900285D01*
X102502305Y-60161562D01*
X101956417Y-60812125D01*
X101290860Y-60812125D01*
X100046336Y-59780948D01*
X100908829Y-59780948D01*
X100930847Y-60032605D01*
X101047493Y-60256680D01*
X101538190Y-60668424D01*
X101761842Y-60648857D01*
X102307729Y-59998294D01*
X102270418Y-59966986D01*
X102665573Y-59966986D01*
X103545949Y-60705710D01*
X103769601Y-60686143D01*
X103826129Y-60618776D01*
X103988509Y-60425259D01*
X104064473Y-60184332D01*
X104042455Y-59932675D01*
X103925809Y-59708600D01*
X103435112Y-59296856D01*
X103211460Y-59316423D01*
X102665573Y-59966986D01*
X102270418Y-59966986D01*
X101427353Y-59259570D01*
X101203701Y-59279137D01*
X101147173Y-59346504D01*
X100984793Y-59540021D01*
X100908829Y-59780948D01*
X100046336Y-59780948D01*
X98912330Y-58841343D01*
X101571054Y-58841343D01*
X101590621Y-59064995D01*
X102470997Y-59803718D01*
X103016885Y-59153155D01*
X102997318Y-58929503D01*
X102506621Y-58517760D01*
X102265695Y-58441796D01*
X102014037Y-58463812D01*
X101789962Y-58580458D01*
X101627581Y-58773976D01*
X101571054Y-58841343D01*
X98912330Y-58841343D01*
X96309855Y-56685007D01*
X97076506Y-56685007D01*
X97145862Y-56932475D01*
X97306034Y-57133462D01*
X98531705Y-58161922D01*
X98740429Y-58279262D01*
X98995384Y-58311648D01*
X99242852Y-58242292D01*
X99443839Y-58082120D01*
X99976261Y-57447603D01*
X102963648Y-57447603D01*
X103033004Y-57695071D01*
X103193176Y-57896058D01*
X104418847Y-58924518D01*
X104627571Y-59041858D01*
X104828012Y-59067319D01*
X114026481Y-68265787D01*
X114026483Y-68265790D01*
X114313598Y-68457633D01*
X114652273Y-68525000D01*
X117478156Y-68525000D01*
X117520910Y-68591441D01*
X117733110Y-68736431D01*
X117985000Y-68787440D01*
X119585000Y-68787440D01*
X119820317Y-68743162D01*
X120036441Y-68604090D01*
X120181431Y-68391890D01*
X120232440Y-68140000D01*
X120232440Y-67925750D01*
X122350000Y-67925750D01*
X122350000Y-68266310D01*
X122446673Y-68499699D01*
X122625302Y-68678327D01*
X122858691Y-68775000D01*
X123499250Y-68775000D01*
X123658000Y-68616250D01*
X123658000Y-67767000D01*
X123912000Y-67767000D01*
X123912000Y-68616250D01*
X124070750Y-68775000D01*
X124711309Y-68775000D01*
X124944698Y-68678327D01*
X125123327Y-68499699D01*
X125220000Y-68266310D01*
X125220000Y-67925750D01*
X125061250Y-67767000D01*
X123912000Y-67767000D01*
X123658000Y-67767000D01*
X122508750Y-67767000D01*
X122350000Y-67925750D01*
X120232440Y-67925750D01*
X120232440Y-67140000D01*
X120208674Y-67013690D01*
X122350000Y-67013690D01*
X122350000Y-67354250D01*
X122508750Y-67513000D01*
X123658000Y-67513000D01*
X123658000Y-66663750D01*
X123912000Y-66663750D01*
X123912000Y-67513000D01*
X125061250Y-67513000D01*
X125220000Y-67354250D01*
X125220000Y-67013690D01*
X125123327Y-66780301D01*
X124944698Y-66601673D01*
X124711309Y-66505000D01*
X124070750Y-66505000D01*
X123912000Y-66663750D01*
X123658000Y-66663750D01*
X123499250Y-66505000D01*
X122858691Y-66505000D01*
X122625302Y-66601673D01*
X122446673Y-66780301D01*
X122350000Y-67013690D01*
X120208674Y-67013690D01*
X120188162Y-66904683D01*
X120049090Y-66688559D01*
X119836890Y-66543569D01*
X119585000Y-66492560D01*
X117985000Y-66492560D01*
X117749683Y-66536838D01*
X117533559Y-66675910D01*
X117479519Y-66755000D01*
X115018852Y-66755000D01*
X106095920Y-57832067D01*
X106123494Y-57614993D01*
X106054138Y-57367525D01*
X105893966Y-57166538D01*
X104668295Y-56138078D01*
X104459571Y-56020738D01*
X104204616Y-55988352D01*
X103957148Y-56057708D01*
X103756161Y-56217880D01*
X103113374Y-56983924D01*
X102996034Y-57192648D01*
X102963648Y-57447603D01*
X99976261Y-57447603D01*
X100086626Y-57316076D01*
X100203966Y-57107352D01*
X100236352Y-56852397D01*
X100166996Y-56604929D01*
X100006824Y-56403942D01*
X98781153Y-55375482D01*
X98572429Y-55258142D01*
X98317474Y-55225756D01*
X98070006Y-55295112D01*
X97869019Y-55455284D01*
X97226232Y-56221328D01*
X97108892Y-56430052D01*
X97076506Y-56685007D01*
X96309855Y-56685007D01*
X93946414Y-54726728D01*
X96232904Y-54726728D01*
X96252471Y-54950380D01*
X96896376Y-55490681D01*
X97137303Y-55566645D01*
X97388960Y-55544628D01*
X97613036Y-55427982D01*
X97775416Y-55234465D01*
X98731846Y-54094636D01*
X98712279Y-53870984D01*
X97678694Y-53003703D01*
X96232904Y-54726728D01*
X93946414Y-54726728D01*
X92546733Y-53566993D01*
X95032107Y-53566993D01*
X95054125Y-53818651D01*
X95170771Y-54042726D01*
X95814676Y-54583027D01*
X96038328Y-54563460D01*
X97484118Y-52840435D01*
X96450533Y-51973153D01*
X96226881Y-51992720D01*
X95270451Y-53132549D01*
X95108070Y-53326067D01*
X95032107Y-53566993D01*
X92546733Y-53566993D01*
X89337042Y-50907535D01*
X89247124Y-50858929D01*
X89162138Y-50802143D01*
X89130394Y-50795829D01*
X89101922Y-50780438D01*
X89000247Y-50769941D01*
X88900000Y-50750001D01*
X88868258Y-50756315D01*
X88836062Y-50752991D01*
X88738109Y-50782203D01*
X88637862Y-50802143D01*
X88610951Y-50820124D01*
X88579935Y-50829374D01*
X88500619Y-50893846D01*
X88415632Y-50950632D01*
X86077440Y-53288824D01*
X86077440Y-53100000D01*
X86033162Y-52864683D01*
X85894090Y-52648559D01*
X85681890Y-52503569D01*
X85430000Y-52452560D01*
X84430000Y-52452560D01*
X84194683Y-52496838D01*
X83978559Y-52635910D01*
X83833569Y-52848110D01*
X83782560Y-53100000D01*
X83782560Y-53290000D01*
X83424207Y-53290000D01*
X83699282Y-53015405D01*
X83864811Y-52616767D01*
X83865188Y-52185127D01*
X83804165Y-52037440D01*
X83880000Y-52037440D01*
X83896937Y-52034253D01*
X83965910Y-52141441D01*
X84178110Y-52286431D01*
X84430000Y-52337440D01*
X85430000Y-52337440D01*
X85665317Y-52293162D01*
X85881441Y-52154090D01*
X86026431Y-51941890D01*
X86077440Y-51690000D01*
X86077440Y-50890000D01*
X86033162Y-50654683D01*
X85894090Y-50438559D01*
X85681890Y-50293569D01*
X85430000Y-50242560D01*
X84527440Y-50242560D01*
X84527440Y-49890000D01*
X84506742Y-49780000D01*
X88899995Y-49780000D01*
X88900000Y-49780001D01*
X89182484Y-49723810D01*
X89238675Y-49712633D01*
X89525790Y-49520790D01*
X91806579Y-47240000D01*
X91990820Y-47240000D01*
X91985378Y-47246486D01*
X91768154Y-47505364D01*
X91787721Y-47729016D01*
X92821306Y-48596297D01*
X92834162Y-48580976D01*
X93028737Y-48744245D01*
X93015882Y-48759565D01*
X94049467Y-49626847D01*
X94273119Y-49607280D01*
X94490344Y-49348402D01*
X94652724Y-49154884D01*
X94728688Y-48913958D01*
X94723516Y-48854842D01*
X94894307Y-48806976D01*
X95095294Y-48646804D01*
X96059475Y-47497737D01*
X96176815Y-47289013D01*
X96209201Y-47034058D01*
X96139845Y-46786590D01*
X95979673Y-46585603D01*
X94489262Y-45335000D01*
X126999995Y-45335000D01*
X127000000Y-45335001D01*
X127282484Y-45278810D01*
X127338675Y-45267633D01*
X127625790Y-45075790D01*
X132705787Y-39995792D01*
X132705790Y-39995790D01*
X132897633Y-39708675D01*
X132931185Y-39540000D01*
X132965001Y-39370000D01*
X132965000Y-39369995D01*
X132965000Y-36830005D01*
X132965001Y-36830000D01*
X132897633Y-36491326D01*
X132897633Y-36491325D01*
X132705790Y-36204210D01*
X132705787Y-36204208D01*
X130800790Y-34299210D01*
X130800787Y-34299208D01*
X128895790Y-32394210D01*
X128801054Y-32330910D01*
X128608675Y-32202367D01*
X128552484Y-32191190D01*
X128270000Y-32134999D01*
X128269995Y-32135000D01*
X123367440Y-32135000D01*
X123367440Y-31925000D01*
X123323162Y-31689683D01*
X123184090Y-31473559D01*
X122971890Y-31328569D01*
X122853663Y-31304628D01*
X122854838Y-31301799D01*
X122855162Y-30929833D01*
X122713117Y-30586057D01*
X122450327Y-30322808D01*
X122106799Y-30180162D01*
X121734833Y-30179838D01*
X121391057Y-30321883D01*
X121127808Y-30584673D01*
X120985162Y-30928201D01*
X120984838Y-31300167D01*
X120985921Y-31302789D01*
X120884683Y-31321838D01*
X120668559Y-31460910D01*
X120523569Y-31673110D01*
X120472560Y-31925000D01*
X120472560Y-33120861D01*
X118203420Y-35390000D01*
X117472683Y-35390000D01*
X117448162Y-35259683D01*
X117309090Y-35043559D01*
X117133768Y-34923767D01*
X117296441Y-34819090D01*
X117441431Y-34606890D01*
X117492440Y-34355000D01*
X117492440Y-32795000D01*
X117448162Y-32559683D01*
X117345289Y-32399814D01*
X117337633Y-32361325D01*
X117289432Y-32289187D01*
X117145790Y-32074210D01*
X117145787Y-32074208D01*
X114925790Y-29854210D01*
X114805787Y-29774027D01*
X114638675Y-29662367D01*
X114582484Y-29651190D01*
X114300000Y-29594999D01*
X114299995Y-29595000D01*
X105410005Y-29595000D01*
X105410000Y-29594999D01*
X105127516Y-29651190D01*
X105071325Y-29662367D01*
X104784210Y-29854210D01*
X104784208Y-29854213D01*
X99963420Y-34675000D01*
X96751579Y-34675000D01*
X100061579Y-31365000D01*
X102234995Y-31365000D01*
X102235000Y-31365001D01*
X102552731Y-31301799D01*
X102573675Y-31297633D01*
X102860790Y-31105790D01*
X102860791Y-31105789D01*
X105169358Y-28797221D01*
X105169361Y-28797219D01*
X105361204Y-28510104D01*
X105428571Y-28171429D01*
X105428571Y-25903702D01*
X115316293Y-25903702D01*
X115316298Y-25903703D01*
X115598782Y-25847512D01*
X115654973Y-25836335D01*
X115942088Y-25644492D01*
X116577086Y-25009493D01*
X116577088Y-25009492D01*
X116830787Y-24755792D01*
X116830790Y-24755790D01*
X122523422Y-19063157D01*
X122733110Y-19206431D01*
X122900000Y-19240227D01*
X122900000Y-22819995D01*
X122899999Y-22820000D01*
X122922302Y-22932120D01*
X122967367Y-23158675D01*
X123118587Y-23384993D01*
X123159210Y-23445790D01*
X133336843Y-33623422D01*
X133193569Y-33833110D01*
X133142560Y-34085000D01*
X133142560Y-35685000D01*
X133186838Y-35920317D01*
X133325910Y-36136441D01*
X133538110Y-36281431D01*
X133790000Y-36332440D01*
X134485861Y-36332440D01*
X135005000Y-36851579D01*
X135005000Y-42813421D01*
X132089210Y-45729210D01*
X131897367Y-46016325D01*
X131897367Y-46016326D01*
X131829999Y-46355000D01*
X131830000Y-46355005D01*
X131830000Y-50433421D01*
X130184210Y-52079210D01*
X130184208Y-52079213D01*
X118970860Y-63292560D01*
X118889139Y-63292560D01*
X109288150Y-53691570D01*
X109262347Y-53674329D01*
X109001035Y-53499727D01*
X108926048Y-53484811D01*
X108662360Y-53432359D01*
X108662355Y-53432360D01*
X101598349Y-53432360D01*
X101598349Y-51183354D01*
X101598350Y-51183349D01*
X101530983Y-50844675D01*
X101408550Y-50661441D01*
X101339139Y-50557559D01*
X101339136Y-50557557D01*
X99685790Y-48904210D01*
X99565495Y-48823832D01*
X99398675Y-48712367D01*
X99338096Y-48700317D01*
X99060000Y-48644999D01*
X99059995Y-48645000D01*
X96520000Y-48645000D01*
X96181325Y-48712367D01*
X95894210Y-48904210D01*
X95894208Y-48904213D01*
X93613420Y-51185000D01*
X93076579Y-51185000D01*
X93016177Y-51124598D01*
X93102652Y-51021541D01*
X93219992Y-50812817D01*
X93244593Y-50619145D01*
X93302086Y-50614115D01*
X93526161Y-50497469D01*
X93688542Y-50303952D01*
X93905766Y-50045074D01*
X93886199Y-49821422D01*
X92852614Y-48954141D01*
X92839758Y-48969462D01*
X92645183Y-48806193D01*
X92658038Y-48790873D01*
X91624453Y-47923591D01*
X91400801Y-47943158D01*
X91183576Y-48202036D01*
X91021196Y-48395554D01*
X90945232Y-48636480D01*
X90950404Y-48695596D01*
X90779614Y-48743462D01*
X90578627Y-48903634D01*
X89614446Y-50052701D01*
X89497106Y-50261425D01*
X89464720Y-50516380D01*
X89534076Y-50763848D01*
X89694248Y-50964835D01*
X91226337Y-52250410D01*
X91435061Y-52367750D01*
X91690016Y-52400136D01*
X91766985Y-52378564D01*
X92084208Y-52695787D01*
X92084210Y-52695790D01*
X92318206Y-52852140D01*
X92371325Y-52887633D01*
X92710000Y-52955000D01*
X93979995Y-52955000D01*
X93980000Y-52955001D01*
X94262484Y-52898810D01*
X94318675Y-52887633D01*
X94605790Y-52695790D01*
X94605791Y-52695789D01*
X96886579Y-50415000D01*
X97550745Y-50415000D01*
X97550664Y-50415097D01*
X96594234Y-51554926D01*
X96613801Y-51778578D01*
X97647386Y-52645859D01*
X97660242Y-52630538D01*
X97854817Y-52793807D01*
X97841962Y-52809127D01*
X98875547Y-53676409D01*
X99099199Y-53656842D01*
X99828349Y-52787875D01*
X99828349Y-53120245D01*
X99283152Y-53769986D01*
X99165812Y-53978710D01*
X99133426Y-54233665D01*
X99202782Y-54481133D01*
X99362954Y-54682120D01*
X100588625Y-55710580D01*
X100797349Y-55827920D01*
X101052304Y-55860306D01*
X101299772Y-55790950D01*
X101500759Y-55630778D01*
X101860244Y-55202360D01*
X108295780Y-55202360D01*
X117337560Y-64244139D01*
X117337560Y-64940000D01*
X117381838Y-65175317D01*
X117520910Y-65391441D01*
X117733110Y-65536431D01*
X117985000Y-65587440D01*
X119585000Y-65587440D01*
X119820317Y-65543162D01*
X120036441Y-65404090D01*
X120181431Y-65191890D01*
X120232440Y-64940000D01*
X120232440Y-64534140D01*
X131216579Y-53550000D01*
X133158554Y-53550000D01*
X133186838Y-53700317D01*
X133325910Y-53916441D01*
X133538110Y-54061431D01*
X133790000Y-54112440D01*
X134790000Y-54112440D01*
X134791208Y-54112213D01*
X125348420Y-63555000D01*
X125091844Y-63555000D01*
X125049090Y-63488559D01*
X124836890Y-63343569D01*
X124585000Y-63292560D01*
X122985000Y-63292560D01*
X122749683Y-63336838D01*
X122533559Y-63475910D01*
X122388569Y-63688110D01*
X122337560Y-63940000D01*
X122337560Y-64940000D01*
X122381838Y-65175317D01*
X122520910Y-65391441D01*
X122733110Y-65536431D01*
X122985000Y-65587440D01*
X124585000Y-65587440D01*
X124820317Y-65543162D01*
X125036441Y-65404090D01*
X125090481Y-65325000D01*
X125714995Y-65325000D01*
X125715000Y-65325001D01*
X125997484Y-65268810D01*
X126053675Y-65257633D01*
X126340790Y-65065790D01*
X126340791Y-65065789D01*
X137294139Y-54112440D01*
X137990000Y-54112440D01*
X138225317Y-54068162D01*
X138441441Y-53929090D01*
X138586431Y-53716890D01*
X138637440Y-53465000D01*
X138637440Y-51865000D01*
X138593162Y-51629683D01*
X138454090Y-51413559D01*
X138241890Y-51268569D01*
X137990000Y-51217560D01*
X136990000Y-51217560D01*
X136754683Y-51261838D01*
X136538559Y-51400910D01*
X136393569Y-51613110D01*
X136342560Y-51865000D01*
X136342560Y-52560861D01*
X135437191Y-53466230D01*
X135437440Y-53465000D01*
X135437440Y-51865000D01*
X135393162Y-51629683D01*
X135254090Y-51413559D01*
X135041890Y-51268569D01*
X134790000Y-51217560D01*
X133790000Y-51217560D01*
X133554683Y-51261838D01*
X133371636Y-51379626D01*
X133532633Y-51138675D01*
X133548835Y-51057223D01*
X133600001Y-50800000D01*
X133600000Y-50799995D01*
X133600000Y-49073964D01*
X133790000Y-49112440D01*
X134790000Y-49112440D01*
X135025317Y-49068162D01*
X135241441Y-48929090D01*
X135386431Y-48716890D01*
X135437440Y-48465000D01*
X135437440Y-47950750D01*
X136355000Y-47950750D01*
X136355000Y-48591309D01*
X136451673Y-48824698D01*
X136630301Y-49003327D01*
X136863690Y-49100000D01*
X137204250Y-49100000D01*
X137363000Y-48941250D01*
X137363000Y-47792000D01*
X137617000Y-47792000D01*
X137617000Y-48941250D01*
X137775750Y-49100000D01*
X138116310Y-49100000D01*
X138349699Y-49003327D01*
X138528327Y-48824698D01*
X138625000Y-48591309D01*
X138625000Y-47950750D01*
X138466250Y-47792000D01*
X137617000Y-47792000D01*
X137363000Y-47792000D01*
X136513750Y-47792000D01*
X136355000Y-47950750D01*
X135437440Y-47950750D01*
X135437440Y-47769140D01*
X136355000Y-46851580D01*
X136355000Y-47379250D01*
X136513750Y-47538000D01*
X137363000Y-47538000D01*
X137363000Y-46388750D01*
X137617000Y-46388750D01*
X137617000Y-47538000D01*
X138466250Y-47538000D01*
X138625000Y-47379250D01*
X138625000Y-46738691D01*
X138528327Y-46505302D01*
X138349699Y-46326673D01*
X138116310Y-46230000D01*
X137775750Y-46230000D01*
X137617000Y-46388750D01*
X137363000Y-46388750D01*
X137204250Y-46230000D01*
X136976579Y-46230000D01*
X138115787Y-45090792D01*
X138115790Y-45090790D01*
X138307633Y-44803675D01*
X138375000Y-44465000D01*
X138375000Y-36191844D01*
X138441441Y-36149090D01*
X138586431Y-35936890D01*
X138637440Y-35685000D01*
X138637440Y-34085000D01*
X138593162Y-33849683D01*
X138454090Y-33633559D01*
X138241890Y-33488569D01*
X137990000Y-33437560D01*
X136990000Y-33437560D01*
X136754683Y-33481838D01*
X136538559Y-33620910D01*
X136393569Y-33833110D01*
X136342560Y-34085000D01*
X136342560Y-35685000D01*
X136342787Y-35686208D01*
X135437440Y-34780860D01*
X135437440Y-34085000D01*
X135393162Y-33849683D01*
X135254090Y-33633559D01*
X135175000Y-33579519D01*
X135175000Y-33325000D01*
X135107633Y-32986325D01*
X134915790Y-32699210D01*
X134915787Y-32699208D01*
X133411504Y-31194925D01*
X133538110Y-31281431D01*
X133790000Y-31332440D01*
X134790000Y-31332440D01*
X135025317Y-31288162D01*
X135241441Y-31149090D01*
X135386431Y-30936890D01*
X135437440Y-30685000D01*
X135437440Y-30170750D01*
X136355000Y-30170750D01*
X136355000Y-30811309D01*
X136451673Y-31044698D01*
X136630301Y-31223327D01*
X136863690Y-31320000D01*
X137204250Y-31320000D01*
X137363000Y-31161250D01*
X137363000Y-30012000D01*
X137617000Y-30012000D01*
X137617000Y-31161250D01*
X137775750Y-31320000D01*
X138116310Y-31320000D01*
X138349699Y-31223327D01*
X138528327Y-31044698D01*
X138625000Y-30811309D01*
X138625000Y-30170750D01*
X138466250Y-30012000D01*
X137617000Y-30012000D01*
X137363000Y-30012000D01*
X136513750Y-30012000D01*
X136355000Y-30170750D01*
X135437440Y-30170750D01*
X135437440Y-29085000D01*
X135413674Y-28958691D01*
X136355000Y-28958691D01*
X136355000Y-29599250D01*
X136513750Y-29758000D01*
X137363000Y-29758000D01*
X137363000Y-28608750D01*
X137617000Y-28608750D01*
X137617000Y-29758000D01*
X138466250Y-29758000D01*
X138625000Y-29599250D01*
X138625000Y-28958691D01*
X138528327Y-28725302D01*
X138349699Y-28546673D01*
X138116310Y-28450000D01*
X137775750Y-28450000D01*
X137617000Y-28608750D01*
X137363000Y-28608750D01*
X137204250Y-28450000D01*
X136863690Y-28450000D01*
X136630301Y-28546673D01*
X136451673Y-28725302D01*
X136355000Y-28958691D01*
X135413674Y-28958691D01*
X135393162Y-28849683D01*
X135254090Y-28633559D01*
X135175000Y-28579519D01*
X135175000Y-26975005D01*
X135175001Y-26975000D01*
X135107633Y-26636325D01*
X135090566Y-26610783D01*
X134915790Y-26349210D01*
X134915787Y-26349208D01*
X126615000Y-18048420D01*
X126615000Y-16855000D01*
X126547633Y-16516325D01*
X126355790Y-16229210D01*
X126355787Y-16229208D01*
X125232440Y-15105860D01*
X125232440Y-14410000D01*
X125188162Y-14174683D01*
X125049090Y-13958559D01*
X124836890Y-13813569D01*
X124585000Y-13762560D01*
X122985000Y-13762560D01*
X122749683Y-13806838D01*
X122533559Y-13945910D01*
X122388569Y-14158110D01*
X122337560Y-14410000D01*
X122337560Y-15410000D01*
X122381838Y-15645317D01*
X122520910Y-15861441D01*
X122733110Y-16006431D01*
X122985000Y-16057440D01*
X123680860Y-16057440D01*
X124586230Y-16962809D01*
X124585000Y-16962560D01*
X122985000Y-16962560D01*
X122749683Y-17006838D01*
X122533559Y-17145910D01*
X122479519Y-17225000D01*
X122225005Y-17225000D01*
X122225000Y-17224999D01*
X121942516Y-17281190D01*
X121886325Y-17292367D01*
X121599210Y-17484210D01*
X121599208Y-17484213D01*
X120094925Y-18988496D01*
X120181431Y-18861890D01*
X120232440Y-18610000D01*
X120232440Y-17610000D01*
X120188162Y-17374683D01*
X120049090Y-17158559D01*
X119836890Y-17013569D01*
X119585000Y-16962560D01*
X117985000Y-16962560D01*
X117749683Y-17006838D01*
X117533559Y-17145910D01*
X117388569Y-17358110D01*
X117337560Y-17610000D01*
X117337560Y-17935861D01*
X114309210Y-20964210D01*
X114309208Y-20964213D01*
X113966850Y-21306570D01*
X113966849Y-21306572D01*
X113591060Y-21682360D01*
X103633546Y-21682360D01*
X103274061Y-21253942D01*
X103088883Y-21102140D01*
X102843426Y-21025973D01*
X102587674Y-21051303D01*
X102361927Y-21174140D01*
X101136256Y-22202600D01*
X100984454Y-22387778D01*
X100908287Y-22633235D01*
X100933617Y-22888987D01*
X101056454Y-23114734D01*
X101699241Y-23880778D01*
X101884419Y-24032580D01*
X102129876Y-24108747D01*
X102385628Y-24083417D01*
X102611375Y-23960580D01*
X103217048Y-23452360D01*
X113957635Y-23452360D01*
X113957640Y-23452361D01*
X114240124Y-23396170D01*
X114296315Y-23384993D01*
X114583430Y-23193150D01*
X115218428Y-22558151D01*
X115218430Y-22558150D01*
X115560787Y-22215792D01*
X115560790Y-22215790D01*
X118519139Y-19257440D01*
X119585000Y-19257440D01*
X119820317Y-19213162D01*
X119960399Y-19123022D01*
X115579210Y-23504210D01*
X115579208Y-23504213D01*
X115325508Y-23757912D01*
X115325507Y-23757914D01*
X114949718Y-24133702D01*
X105690466Y-24133702D01*
X105330981Y-23705284D01*
X105145803Y-23553482D01*
X104900346Y-23477315D01*
X104644594Y-23502645D01*
X104418847Y-23625482D01*
X103193176Y-24653942D01*
X103041374Y-24839120D01*
X102965207Y-25084577D01*
X102990537Y-25340329D01*
X103113374Y-25566076D01*
X103658571Y-26215817D01*
X103658571Y-27804850D01*
X101868420Y-29595000D01*
X100874851Y-29595000D01*
X102063744Y-28597400D01*
X102215546Y-28412222D01*
X102291713Y-28166765D01*
X102266383Y-27911013D01*
X102143546Y-27685266D01*
X101500759Y-26919222D01*
X101315581Y-26767420D01*
X101070124Y-26691253D01*
X100814372Y-26716583D01*
X100588625Y-26839420D01*
X99966048Y-27361824D01*
X99698685Y-27415007D01*
X99411570Y-27606850D01*
X99411568Y-27606853D01*
X88863420Y-38155000D01*
X80006844Y-38155000D01*
X79964090Y-38088559D01*
X79751890Y-37943569D01*
X79500000Y-37892560D01*
X77900000Y-37892560D01*
X77664683Y-37936838D01*
X77448559Y-38075910D01*
X77303569Y-38288110D01*
X77252560Y-38540000D01*
X77252560Y-39540000D01*
X77296838Y-39775317D01*
X77435910Y-39991441D01*
X77648110Y-40136431D01*
X77900000Y-40187440D01*
X79500000Y-40187440D01*
X79735317Y-40143162D01*
X79951441Y-40004090D01*
X80005481Y-39925000D01*
X88998420Y-39925000D01*
X87568420Y-41355000D01*
X80006844Y-41355000D01*
X79964090Y-41288559D01*
X79751890Y-41143569D01*
X79500000Y-41092560D01*
X77900000Y-41092560D01*
X77664683Y-41136838D01*
X77448559Y-41275910D01*
X77303569Y-41488110D01*
X77252560Y-41740000D01*
X77252560Y-42145861D01*
X76468420Y-42930000D01*
X75108964Y-42930000D01*
X75147440Y-42740000D01*
X75147440Y-41740000D01*
X75103162Y-41504683D01*
X74964090Y-41288559D01*
X74751890Y-41143569D01*
X74500000Y-41092560D01*
X72900000Y-41092560D01*
X72664683Y-41136838D01*
X72448559Y-41275910D01*
X72394519Y-41355000D01*
X70568852Y-41355000D01*
X68539603Y-39325750D01*
X72265000Y-39325750D01*
X72265000Y-39666310D01*
X72361673Y-39899699D01*
X72540302Y-40078327D01*
X72773691Y-40175000D01*
X73414250Y-40175000D01*
X73573000Y-40016250D01*
X73573000Y-39167000D01*
X73827000Y-39167000D01*
X73827000Y-40016250D01*
X73985750Y-40175000D01*
X74626309Y-40175000D01*
X74859698Y-40078327D01*
X75038327Y-39899699D01*
X75135000Y-39666310D01*
X75135000Y-39325750D01*
X74976250Y-39167000D01*
X73827000Y-39167000D01*
X73573000Y-39167000D01*
X72423750Y-39167000D01*
X72265000Y-39325750D01*
X68539603Y-39325750D01*
X67627543Y-38413690D01*
X72265000Y-38413690D01*
X72265000Y-38754250D01*
X72423750Y-38913000D01*
X73573000Y-38913000D01*
X73573000Y-38063750D01*
X73827000Y-38063750D01*
X73827000Y-38913000D01*
X74976250Y-38913000D01*
X75135000Y-38754250D01*
X75135000Y-38413690D01*
X75038327Y-38180301D01*
X74859698Y-38001673D01*
X74626309Y-37905000D01*
X73985750Y-37905000D01*
X73827000Y-38063750D01*
X73573000Y-38063750D01*
X73414250Y-37905000D01*
X72773691Y-37905000D01*
X72540302Y-38001673D01*
X72361673Y-38180301D01*
X72265000Y-38413690D01*
X67627543Y-38413690D01*
X55295920Y-26082067D01*
X55323494Y-25864993D01*
X55254138Y-25617525D01*
X55093966Y-25416538D01*
X53868295Y-24388078D01*
X53659571Y-24270738D01*
X53404616Y-24238352D01*
X53157148Y-24307708D01*
X52956161Y-24467880D01*
X52313374Y-25233924D01*
X52196034Y-25442648D01*
X52163648Y-25697603D01*
X52233004Y-25945071D01*
X52393176Y-26146058D01*
X53618847Y-27174518D01*
X53827571Y-27291858D01*
X54028012Y-27317319D01*
X69576481Y-42865787D01*
X69576483Y-42865790D01*
X69672581Y-42930000D01*
X67635590Y-42930000D01*
X53239000Y-28533409D01*
X53266574Y-28316335D01*
X53197218Y-28068867D01*
X53037046Y-27867880D01*
X51811375Y-26839420D01*
X51602651Y-26722080D01*
X51347696Y-26689694D01*
X51100228Y-26759050D01*
X50899241Y-26919222D01*
X50539756Y-27347640D01*
X49554219Y-27347640D01*
X48585328Y-26378749D01*
X48643839Y-26332120D01*
X49286626Y-25566076D01*
X49403966Y-25357352D01*
X49436352Y-25102397D01*
X49366996Y-24854929D01*
X49206824Y-24653942D01*
X48741429Y-24263429D01*
X48741429Y-23396845D01*
X49383115Y-23396845D01*
X49402682Y-23620497D01*
X49893379Y-24032240D01*
X50134305Y-24108204D01*
X50385963Y-24086188D01*
X50610038Y-23969542D01*
X50772419Y-23776024D01*
X50828946Y-23708657D01*
X50809379Y-23485005D01*
X49929003Y-22746282D01*
X49383115Y-23396845D01*
X48741429Y-23396845D01*
X48741429Y-23065639D01*
X48964888Y-23253144D01*
X49188540Y-23233577D01*
X49734427Y-22583014D01*
X49697116Y-22551706D01*
X50092271Y-22551706D01*
X50972647Y-23290430D01*
X51196299Y-23270863D01*
X51252827Y-23203496D01*
X51415207Y-23009979D01*
X51491171Y-22769052D01*
X51469153Y-22517395D01*
X51352507Y-22293320D01*
X50861810Y-21881576D01*
X50638158Y-21901143D01*
X50092271Y-22551706D01*
X49697116Y-22551706D01*
X48854051Y-21844290D01*
X48630399Y-21863857D01*
X48573871Y-21931224D01*
X48560263Y-21947442D01*
X48556340Y-21941570D01*
X48482219Y-21830639D01*
X48482216Y-21830637D01*
X48077643Y-21426063D01*
X48997752Y-21426063D01*
X49017319Y-21649715D01*
X49897695Y-22388438D01*
X50443583Y-21737875D01*
X50424016Y-21514223D01*
X49933319Y-21102480D01*
X49692393Y-21026516D01*
X49440735Y-21048532D01*
X49216660Y-21165178D01*
X49054279Y-21358696D01*
X48997752Y-21426063D01*
X48077643Y-21426063D01*
X40935790Y-14284210D01*
X40771870Y-14174683D01*
X40648675Y-14092367D01*
X40592484Y-14081190D01*
X40310000Y-14024999D01*
X40309995Y-14025000D01*
X34921844Y-14025000D01*
X34879090Y-13958559D01*
X34666890Y-13813569D01*
X34415000Y-13762560D01*
X32815000Y-13762560D01*
X32579683Y-13806838D01*
X32363559Y-13945910D01*
X32218569Y-14158110D01*
X32167560Y-14410000D01*
X32167560Y-15410000D01*
X32211838Y-15645317D01*
X32350910Y-15861441D01*
X32563110Y-16006431D01*
X32815000Y-16057440D01*
X34415000Y-16057440D01*
X34650317Y-16013162D01*
X34866441Y-15874090D01*
X34920481Y-15795000D01*
X39943420Y-15795000D01*
X46971429Y-22823008D01*
X46971429Y-23821587D01*
X46541060Y-24334481D01*
X41583290Y-19376710D01*
X41583287Y-19376708D01*
X39690790Y-17484210D01*
X39526870Y-17374683D01*
X39403675Y-17292367D01*
X39347484Y-17281190D01*
X39065000Y-17224999D01*
X39064995Y-17225000D01*
X34921844Y-17225000D01*
X34879090Y-17158559D01*
X34666890Y-17013569D01*
X34415000Y-16962560D01*
X32815000Y-16962560D01*
X32579683Y-17006838D01*
X32363559Y-17145910D01*
X32218569Y-17358110D01*
X32167560Y-17610000D01*
X32167560Y-18015861D01*
X30748420Y-19435000D01*
X27675005Y-19435000D01*
X27675000Y-19434999D01*
X27392516Y-19491190D01*
X27336325Y-19502367D01*
X27049210Y-19694210D01*
X27049208Y-19694213D01*
X18305860Y-28437560D01*
X17610000Y-28437560D01*
X17374683Y-28481838D01*
X17158559Y-28620910D01*
X17013569Y-28833110D01*
X16962560Y-29085000D01*
X16962560Y-30685000D01*
X17006838Y-30920317D01*
X17145910Y-31136441D01*
X17358110Y-31281431D01*
X17610000Y-31332440D01*
X18610000Y-31332440D01*
X18644390Y-31325969D01*
X18800000Y-31481579D01*
X18800000Y-33476036D01*
X18610000Y-33437560D01*
X17610000Y-33437560D01*
X17374683Y-33481838D01*
X17158559Y-33620910D01*
X17013569Y-33833110D01*
X16962560Y-34085000D01*
X16962560Y-35685000D01*
X17006838Y-35920317D01*
X17145910Y-36136441D01*
X17225000Y-36190481D01*
X17225000Y-44098421D01*
X15105860Y-46217560D01*
X14410000Y-46217560D01*
X14174683Y-46261838D01*
X13958559Y-46400910D01*
X13813569Y-46613110D01*
X13762560Y-46865000D01*
X13762560Y-48465000D01*
X13806838Y-48700317D01*
X13945910Y-48916441D01*
X14158110Y-49061431D01*
X14410000Y-49112440D01*
X15410000Y-49112440D01*
X15645317Y-49068162D01*
X15861441Y-48929090D01*
X16006431Y-48716890D01*
X16057440Y-48465000D01*
X16057440Y-47769140D01*
X16962809Y-46863771D01*
X16962560Y-46865000D01*
X16962560Y-48465000D01*
X17006838Y-48700317D01*
X17145910Y-48916441D01*
X17358110Y-49061431D01*
X17384664Y-49066808D01*
X17415154Y-49112440D01*
X17484210Y-49215790D01*
X19435000Y-51166579D01*
X19435000Y-56144995D01*
X19434999Y-56145000D01*
X19486507Y-56403942D01*
X19502367Y-56483675D01*
X19682355Y-56753048D01*
X19694210Y-56770790D01*
X27167560Y-64244139D01*
X27167560Y-64940000D01*
X27167787Y-64941208D01*
X18995000Y-56768420D01*
X18995000Y-53971844D01*
X19061441Y-53929090D01*
X19206431Y-53716890D01*
X19257440Y-53465000D01*
X19257440Y-51865000D01*
X19213162Y-51629683D01*
X19074090Y-51413559D01*
X18861890Y-51268569D01*
X18610000Y-51217560D01*
X17610000Y-51217560D01*
X17374683Y-51261838D01*
X17158559Y-51400910D01*
X17013569Y-51613110D01*
X16962560Y-51865000D01*
X16962560Y-53465000D01*
X17006838Y-53700317D01*
X17145910Y-53916441D01*
X17225000Y-53970481D01*
X17225000Y-57134995D01*
X17224999Y-57135000D01*
X17271252Y-57367525D01*
X17292367Y-57473675D01*
X17484210Y-57760790D01*
X27167560Y-67444139D01*
X27167560Y-68140000D01*
X27211838Y-68375317D01*
X27350910Y-68591441D01*
X27563110Y-68736431D01*
X27815000Y-68787440D01*
X29415000Y-68787440D01*
X29650317Y-68743162D01*
X29866441Y-68604090D01*
X30011431Y-68391890D01*
X30062440Y-68140000D01*
X30062440Y-67925750D01*
X32180000Y-67925750D01*
X32180000Y-68266310D01*
X32276673Y-68499699D01*
X32455302Y-68678327D01*
X32688691Y-68775000D01*
X33329250Y-68775000D01*
X33488000Y-68616250D01*
X33488000Y-67767000D01*
X33742000Y-67767000D01*
X33742000Y-68616250D01*
X33900750Y-68775000D01*
X34541309Y-68775000D01*
X34774698Y-68678327D01*
X34953327Y-68499699D01*
X35050000Y-68266310D01*
X35050000Y-67925750D01*
X34891250Y-67767000D01*
X33742000Y-67767000D01*
X33488000Y-67767000D01*
X32338750Y-67767000D01*
X32180000Y-67925750D01*
X30062440Y-67925750D01*
X30062440Y-67140000D01*
X30038674Y-67013690D01*
X32180000Y-67013690D01*
X32180000Y-67354250D01*
X32338750Y-67513000D01*
X33488000Y-67513000D01*
X33488000Y-66663750D01*
X33742000Y-66663750D01*
X33742000Y-67513000D01*
X34891250Y-67513000D01*
X35050000Y-67354250D01*
X35050000Y-67013690D01*
X34953327Y-66780301D01*
X34774698Y-66601673D01*
X34541309Y-66505000D01*
X33900750Y-66505000D01*
X33742000Y-66663750D01*
X33488000Y-66663750D01*
X33329250Y-66505000D01*
X32688691Y-66505000D01*
X32455302Y-66601673D01*
X32276673Y-66780301D01*
X32180000Y-67013690D01*
X30038674Y-67013690D01*
X30018162Y-66904683D01*
X29879090Y-66688559D01*
X29666890Y-66543569D01*
X29415000Y-66492560D01*
X28719139Y-66492560D01*
X27813770Y-65587191D01*
X27815000Y-65587440D01*
X29415000Y-65587440D01*
X29650317Y-65543162D01*
X29866441Y-65404090D01*
X30011431Y-65191890D01*
X30062440Y-64940000D01*
X30062440Y-64534140D01*
X30656579Y-63940000D01*
X32167560Y-63940000D01*
X32167560Y-64940000D01*
X32211838Y-65175317D01*
X32350910Y-65391441D01*
X32563110Y-65536431D01*
X32815000Y-65587440D01*
X34415000Y-65587440D01*
X34650317Y-65543162D01*
X34866441Y-65404090D01*
X34920481Y-65325000D01*
X43509995Y-65325000D01*
X43510000Y-65325001D01*
X43792484Y-65268810D01*
X43848675Y-65257633D01*
X44135790Y-65065790D01*
X44135791Y-65065789D01*
X48333939Y-60867640D01*
X48766454Y-60867640D01*
X49125939Y-61296058D01*
X49311117Y-61447860D01*
X49556574Y-61524027D01*
X49812326Y-61498697D01*
X50038073Y-61375860D01*
X51263744Y-60347400D01*
X51415546Y-60162222D01*
X51491713Y-59916765D01*
X51466383Y-59661013D01*
X51343546Y-59435266D01*
X50700759Y-58669222D01*
X50515581Y-58517420D01*
X50270124Y-58441253D01*
X50014372Y-58466583D01*
X49788625Y-58589420D01*
X49182952Y-59097640D01*
X47967365Y-59097640D01*
X47967360Y-59097639D01*
X47688269Y-59153155D01*
X47628685Y-59165007D01*
X47341570Y-59356850D01*
X47341568Y-59356853D01*
X43143420Y-63555000D01*
X34921844Y-63555000D01*
X34879090Y-63488559D01*
X34666890Y-63343569D01*
X34415000Y-63292560D01*
X32815000Y-63292560D01*
X32579683Y-63336838D01*
X32363559Y-63475910D01*
X32218569Y-63688110D01*
X32167560Y-63940000D01*
X30656579Y-63940000D01*
X32116579Y-62480000D01*
X43792722Y-62480000D01*
X43792727Y-62480001D01*
X44075211Y-62423810D01*
X44131402Y-62412633D01*
X44418517Y-62220790D01*
X44418518Y-62220789D01*
X47573983Y-59065323D01*
X47755406Y-59047355D01*
X47981153Y-58924518D01*
X48586826Y-58416298D01*
X50418697Y-58416298D01*
X50418702Y-58416299D01*
X50701186Y-58360108D01*
X50757377Y-58348931D01*
X51044492Y-58157088D01*
X51291580Y-57909999D01*
X52827974Y-57909999D01*
X52884501Y-57977366D01*
X53046882Y-58170884D01*
X53270957Y-58287530D01*
X53522615Y-58309546D01*
X53763541Y-58233582D01*
X54254238Y-57821839D01*
X54273805Y-57598187D01*
X53727917Y-56947624D01*
X52847541Y-57686347D01*
X52827974Y-57909999D01*
X51291580Y-57909999D01*
X52181435Y-57020144D01*
X52241713Y-57211321D01*
X52404093Y-57404838D01*
X52460621Y-57472205D01*
X52684273Y-57491772D01*
X53527337Y-56784356D01*
X53922493Y-56784356D01*
X54468380Y-57434919D01*
X54692032Y-57454486D01*
X55182729Y-57042742D01*
X55299375Y-56818667D01*
X55321393Y-56567010D01*
X55245429Y-56326083D01*
X55083049Y-56132566D01*
X55026521Y-56065199D01*
X54802869Y-56045632D01*
X53922493Y-56784356D01*
X53527337Y-56784356D01*
X53564649Y-56753048D01*
X53551794Y-56737728D01*
X53746369Y-56574459D01*
X53759225Y-56589780D01*
X54639601Y-55851057D01*
X54659168Y-55627405D01*
X54602641Y-55560038D01*
X54440260Y-55366520D01*
X54216185Y-55249874D01*
X53972982Y-55228598D01*
X54600787Y-54600792D01*
X54600790Y-54600790D01*
X54792633Y-54313675D01*
X54824477Y-54153587D01*
X54860001Y-53975000D01*
X54860000Y-53974995D01*
X54860000Y-49530005D01*
X54860001Y-49530000D01*
X54792633Y-49191325D01*
X54727743Y-49094210D01*
X54600790Y-48904210D01*
X54600787Y-48904208D01*
X53330790Y-47634210D01*
X53227209Y-47565000D01*
X53043675Y-47442367D01*
X52987484Y-47431190D01*
X52705000Y-47374999D01*
X52704995Y-47375000D01*
X49747733Y-47375000D01*
X49378480Y-47128274D01*
X48925000Y-47038071D01*
X48471520Y-47128274D01*
X48087078Y-47385149D01*
X47925000Y-47627717D01*
X47762922Y-47385149D01*
X47378480Y-47128274D01*
X46925000Y-47038071D01*
X46471520Y-47128274D01*
X46087078Y-47385149D01*
X45925000Y-47627717D01*
X45762922Y-47385149D01*
X45378480Y-47128274D01*
X44925000Y-47038071D01*
X44471520Y-47128274D01*
X44087078Y-47385149D01*
X43925000Y-47627717D01*
X43762922Y-47385149D01*
X43378480Y-47128274D01*
X42925000Y-47038071D01*
X42471520Y-47128274D01*
X42087078Y-47385149D01*
X41925000Y-47627717D01*
X41762922Y-47385149D01*
X41378480Y-47128274D01*
X40925000Y-47038071D01*
X40471520Y-47128274D01*
X40087078Y-47385149D01*
X39925000Y-47627717D01*
X39762922Y-47385149D01*
X39378480Y-47128274D01*
X38925000Y-47038071D01*
X38471520Y-47128274D01*
X38087078Y-47385149D01*
X37925000Y-47627717D01*
X37762922Y-47385149D01*
X37378480Y-47128274D01*
X36925000Y-47038071D01*
X36471520Y-47128274D01*
X36087078Y-47385149D01*
X36053187Y-47435871D01*
X35939090Y-47258559D01*
X35726890Y-47113569D01*
X35475000Y-47062560D01*
X34375000Y-47062560D01*
X34139683Y-47106838D01*
X33923559Y-47245910D01*
X33778569Y-47458110D01*
X33727560Y-47710000D01*
X33727560Y-50210000D01*
X33771838Y-50445317D01*
X33910910Y-50661441D01*
X34123110Y-50806431D01*
X34375000Y-50857440D01*
X35475000Y-50857440D01*
X35710317Y-50813162D01*
X35926441Y-50674090D01*
X36054694Y-50486385D01*
X36087078Y-50534851D01*
X36471520Y-50791726D01*
X36925000Y-50881929D01*
X37378480Y-50791726D01*
X37762922Y-50534851D01*
X37850000Y-50404529D01*
X37850000Y-52239146D01*
X37649683Y-52276838D01*
X37433559Y-52415910D01*
X37288569Y-52628110D01*
X37237560Y-52880000D01*
X37237560Y-54880000D01*
X37281838Y-55115317D01*
X37420910Y-55331441D01*
X37633110Y-55476431D01*
X37885000Y-55527440D01*
X39585000Y-55527440D01*
X39820317Y-55483162D01*
X40036441Y-55344090D01*
X40181431Y-55131890D01*
X40232440Y-54880000D01*
X40232440Y-52880000D01*
X40188162Y-52644683D01*
X40049090Y-52428559D01*
X39836890Y-52283569D01*
X39620000Y-52239648D01*
X39620000Y-50630348D01*
X39762922Y-50534851D01*
X39925000Y-50292283D01*
X40087078Y-50534851D01*
X40471520Y-50791726D01*
X40925000Y-50881929D01*
X41378480Y-50791726D01*
X41762922Y-50534851D01*
X41925000Y-50292283D01*
X42087078Y-50534851D01*
X42471520Y-50791726D01*
X42925000Y-50881929D01*
X43378480Y-50791726D01*
X43762922Y-50534851D01*
X43925000Y-50292283D01*
X44040000Y-50464394D01*
X44040000Y-52544995D01*
X44039999Y-52545000D01*
X44092538Y-52809127D01*
X44107367Y-52883675D01*
X44251910Y-53100000D01*
X44299210Y-53170790D01*
X46071568Y-54943147D01*
X46071570Y-54943150D01*
X46082391Y-54950380D01*
X46358686Y-55134994D01*
X46697360Y-55202361D01*
X46697365Y-55202360D01*
X50539756Y-55202360D01*
X50899241Y-55630778D01*
X50991781Y-55706639D01*
X50052122Y-56646298D01*
X49003324Y-56646298D01*
X48643839Y-56217880D01*
X48458661Y-56066078D01*
X48213204Y-55989911D01*
X47957452Y-56015241D01*
X47731705Y-56138078D01*
X46710465Y-56995000D01*
X40232440Y-56995000D01*
X40232440Y-56880000D01*
X40188162Y-56644683D01*
X40049090Y-56428559D01*
X39836890Y-56283569D01*
X39585000Y-56232560D01*
X37885000Y-56232560D01*
X37649683Y-56276838D01*
X37433559Y-56415910D01*
X37288569Y-56628110D01*
X37237560Y-56880000D01*
X37237560Y-58880000D01*
X37281838Y-59115317D01*
X37420910Y-59331441D01*
X37633110Y-59476431D01*
X37885000Y-59527440D01*
X39585000Y-59527440D01*
X39820317Y-59483162D01*
X40036441Y-59344090D01*
X40181431Y-59131890D01*
X40232440Y-58880000D01*
X40232440Y-58765000D01*
X45371148Y-58765000D01*
X43426147Y-60710000D01*
X31750005Y-60710000D01*
X31750000Y-60709999D01*
X31411326Y-60777366D01*
X31316054Y-60841025D01*
X31124210Y-60969210D01*
X31124208Y-60969213D01*
X28800860Y-63292560D01*
X28719139Y-63292560D01*
X21205000Y-55778420D01*
X21205000Y-50800005D01*
X21205001Y-50800000D01*
X21148584Y-50516380D01*
X21137633Y-50461325D01*
X20945790Y-50174210D01*
X20945787Y-50174208D01*
X20545550Y-49773970D01*
X21525635Y-49773970D01*
X21685418Y-50092739D01*
X22476187Y-50402723D01*
X23325387Y-50386497D01*
X24034582Y-50092739D01*
X24194365Y-49773970D01*
X22860000Y-48439605D01*
X21525635Y-49773970D01*
X20545550Y-49773970D01*
X19253927Y-48482347D01*
X19257440Y-48465000D01*
X19257440Y-48034140D01*
X19415392Y-47876187D01*
X20717277Y-47876187D01*
X20733503Y-48725387D01*
X21027261Y-49434582D01*
X21346030Y-49594365D01*
X22680395Y-48260000D01*
X23039605Y-48260000D01*
X24373970Y-49594365D01*
X24692739Y-49434582D01*
X25002723Y-48643813D01*
X24986497Y-47794613D01*
X24692739Y-47085418D01*
X24373970Y-46925635D01*
X23039605Y-48260000D01*
X22680395Y-48260000D01*
X21346030Y-46925635D01*
X21027261Y-47085418D01*
X20717277Y-47876187D01*
X19415392Y-47876187D01*
X20310787Y-46980792D01*
X20310790Y-46980790D01*
X20545550Y-46746030D01*
X21525635Y-46746030D01*
X22860000Y-48080395D01*
X24194365Y-46746030D01*
X24034582Y-46427261D01*
X23243813Y-46117277D01*
X22394613Y-46133503D01*
X21685418Y-46427261D01*
X21525635Y-46746030D01*
X20545550Y-46746030D01*
X22110893Y-45180687D01*
X22433459Y-45314628D01*
X23282815Y-45315370D01*
X24067800Y-44991020D01*
X24668909Y-44390959D01*
X24994628Y-43606541D01*
X24995370Y-42757185D01*
X24671020Y-41972200D01*
X24070959Y-41371091D01*
X23286541Y-41045372D01*
X22437185Y-41044630D01*
X21652200Y-41368980D01*
X21051091Y-41969041D01*
X20725372Y-42753459D01*
X20724630Y-43602815D01*
X20859411Y-43929009D01*
X20570000Y-44218420D01*
X20570000Y-31115005D01*
X20570001Y-31115000D01*
X20502633Y-30776326D01*
X20502633Y-30776325D01*
X20310790Y-30489210D01*
X20310787Y-30489208D01*
X19534080Y-29712500D01*
X28041579Y-21205000D01*
X31114995Y-21205000D01*
X31115000Y-21205001D01*
X31397484Y-21148810D01*
X31453675Y-21137633D01*
X31740790Y-20945790D01*
X31740791Y-20945789D01*
X33429139Y-19257440D01*
X34415000Y-19257440D01*
X34650317Y-19213162D01*
X34866441Y-19074090D01*
X34920481Y-18995000D01*
X38698420Y-18995000D01*
X39705921Y-20002500D01*
X37379210Y-22329210D01*
X37187367Y-22616325D01*
X37176190Y-22672516D01*
X37119999Y-22955000D01*
X37120000Y-22955005D01*
X37120000Y-24537560D01*
X37005000Y-24537560D01*
X36769683Y-24581838D01*
X36553559Y-24720910D01*
X36408569Y-24933110D01*
X36357560Y-25185000D01*
X36357560Y-26885000D01*
X36401838Y-27120317D01*
X36540910Y-27336441D01*
X36753110Y-27481431D01*
X37005000Y-27532440D01*
X39005000Y-27532440D01*
X39240317Y-27488162D01*
X39456441Y-27349090D01*
X39601431Y-27136890D01*
X39652440Y-26885000D01*
X39652440Y-25185000D01*
X39608162Y-24949683D01*
X39469090Y-24733559D01*
X39256890Y-24588569D01*
X39005000Y-24537560D01*
X38890000Y-24537560D01*
X38890000Y-23321580D01*
X40957500Y-21254080D01*
X48561848Y-28858427D01*
X48561850Y-28858430D01*
X48711902Y-28958691D01*
X48713861Y-28960000D01*
X47455854Y-28960000D01*
X47418162Y-28759683D01*
X47279090Y-28543559D01*
X47066890Y-28398569D01*
X46815000Y-28347560D01*
X44815000Y-28347560D01*
X44700000Y-28369199D01*
X44700000Y-27845005D01*
X44700001Y-27845000D01*
X44632634Y-27506326D01*
X44530717Y-27353796D01*
X44440790Y-27219210D01*
X44440787Y-27219208D01*
X43652440Y-26430861D01*
X43652440Y-25185000D01*
X43608162Y-24949683D01*
X43469090Y-24733559D01*
X43256890Y-24588569D01*
X43005000Y-24537560D01*
X41005000Y-24537560D01*
X40769683Y-24581838D01*
X40553559Y-24720910D01*
X40408569Y-24933110D01*
X40357560Y-25185000D01*
X40357560Y-26885000D01*
X40401838Y-27120317D01*
X40540910Y-27336441D01*
X40753110Y-27481431D01*
X41005000Y-27532440D01*
X42250860Y-27532440D01*
X42930000Y-28211579D01*
X42930000Y-28370848D01*
X42815000Y-28347560D01*
X40815000Y-28347560D01*
X40579683Y-28391838D01*
X40363559Y-28530910D01*
X40218569Y-28743110D01*
X40167560Y-28995000D01*
X40167560Y-30695000D01*
X40211838Y-30930317D01*
X40350910Y-31146441D01*
X40563110Y-31291431D01*
X40815000Y-31342440D01*
X40930000Y-31342440D01*
X40930000Y-31639066D01*
X40925000Y-31638071D01*
X40471520Y-31728274D01*
X40087078Y-31985149D01*
X39925000Y-32227717D01*
X39762922Y-31985149D01*
X39378480Y-31728274D01*
X38925000Y-31638071D01*
X38471520Y-31728274D01*
X38087078Y-31985149D01*
X37925000Y-32227717D01*
X37810000Y-32055606D01*
X37810000Y-31210005D01*
X37810001Y-31210000D01*
X37742634Y-30871326D01*
X37581808Y-30630632D01*
X37550790Y-30584210D01*
X37550787Y-30584208D01*
X36185790Y-29219210D01*
X36168799Y-29207857D01*
X35898675Y-29027367D01*
X35842484Y-29016190D01*
X35560000Y-28959999D01*
X35559995Y-28960000D01*
X26035005Y-28960000D01*
X26035000Y-28959999D01*
X25752516Y-29016190D01*
X25696325Y-29027367D01*
X25409210Y-29219210D01*
X25409208Y-29219213D01*
X23609107Y-31019313D01*
X23286541Y-30885372D01*
X22437185Y-30884630D01*
X21652200Y-31208980D01*
X21051091Y-31809041D01*
X20725372Y-32593459D01*
X20724630Y-33442815D01*
X21048980Y-34227800D01*
X21649041Y-34828909D01*
X22433459Y-35154628D01*
X23282815Y-35155370D01*
X24067800Y-34831020D01*
X24668909Y-34230959D01*
X24994628Y-33446541D01*
X24995370Y-32597185D01*
X24860589Y-32270991D01*
X26401579Y-30730000D01*
X27073421Y-30730000D01*
X26044210Y-31759210D01*
X25852367Y-32046325D01*
X25852367Y-32046326D01*
X25784999Y-32385000D01*
X25785000Y-32385005D01*
X25785000Y-33923421D01*
X23609107Y-36099313D01*
X23286541Y-35965372D01*
X22437185Y-35964630D01*
X21652200Y-36288980D01*
X21051091Y-36889041D01*
X20725372Y-37673459D01*
X20724630Y-38522815D01*
X21048980Y-39307800D01*
X21649041Y-39908909D01*
X22433459Y-40234628D01*
X23282815Y-40235370D01*
X24067800Y-39911020D01*
X24668909Y-39310959D01*
X24994628Y-38526541D01*
X24995370Y-37677185D01*
X24860589Y-37350991D01*
X27295787Y-34915792D01*
X27295790Y-34915790D01*
X27487633Y-34628675D01*
X27504014Y-34546325D01*
X27555001Y-34290000D01*
X27555000Y-34289995D01*
X27555000Y-33020000D01*
X27813000Y-33020000D01*
X27813000Y-49530000D01*
X27821685Y-49576159D01*
X27848965Y-49618553D01*
X27890590Y-49646994D01*
X27940000Y-49657000D01*
X32385000Y-49657000D01*
X32431159Y-49648315D01*
X32473553Y-49621035D01*
X32501994Y-49579410D01*
X32512000Y-49530000D01*
X32512000Y-45963970D01*
X52005635Y-45963970D01*
X52165418Y-46282739D01*
X52956187Y-46592723D01*
X53805387Y-46576497D01*
X54514582Y-46282739D01*
X54605804Y-46100750D01*
X59475000Y-46100750D01*
X59475000Y-46941309D01*
X59571673Y-47174698D01*
X59750301Y-47353327D01*
X59983690Y-47450000D01*
X60674250Y-47450000D01*
X60833000Y-47291250D01*
X60833000Y-45942000D01*
X61087000Y-45942000D01*
X61087000Y-47291250D01*
X61245750Y-47450000D01*
X61936310Y-47450000D01*
X62169699Y-47353327D01*
X62348327Y-47174698D01*
X62445000Y-46941309D01*
X62445000Y-46100750D01*
X62286250Y-45942000D01*
X61087000Y-45942000D01*
X60833000Y-45942000D01*
X59633750Y-45942000D01*
X59475000Y-46100750D01*
X54605804Y-46100750D01*
X54674365Y-45963970D01*
X53340000Y-44629605D01*
X52005635Y-45963970D01*
X32512000Y-45963970D01*
X32512000Y-44066187D01*
X51197277Y-44066187D01*
X51213503Y-44915387D01*
X51507261Y-45624582D01*
X51826030Y-45784365D01*
X53160395Y-44450000D01*
X53519605Y-44450000D01*
X54853970Y-45784365D01*
X55172739Y-45624582D01*
X55482723Y-44833813D01*
X55479951Y-44688691D01*
X59475000Y-44688691D01*
X59475000Y-45529250D01*
X59633750Y-45688000D01*
X60833000Y-45688000D01*
X60833000Y-44338750D01*
X61087000Y-44338750D01*
X61087000Y-45688000D01*
X62286250Y-45688000D01*
X62445000Y-45529250D01*
X62445000Y-44688691D01*
X62348327Y-44455302D01*
X62169699Y-44276673D01*
X61936310Y-44180000D01*
X61245750Y-44180000D01*
X61087000Y-44338750D01*
X60833000Y-44338750D01*
X60674250Y-44180000D01*
X59983690Y-44180000D01*
X59750301Y-44276673D01*
X59571673Y-44455302D01*
X59475000Y-44688691D01*
X55479951Y-44688691D01*
X55466497Y-43984613D01*
X55172739Y-43275418D01*
X54853970Y-43115635D01*
X53519605Y-44450000D01*
X53160395Y-44450000D01*
X51826030Y-43115635D01*
X51507261Y-43275418D01*
X51197277Y-44066187D01*
X32512000Y-44066187D01*
X32512000Y-42936030D01*
X52005635Y-42936030D01*
X53340000Y-44270395D01*
X54674365Y-42936030D01*
X54514582Y-42617261D01*
X53723813Y-42307277D01*
X52874613Y-42323503D01*
X52165418Y-42617261D01*
X52005635Y-42936030D01*
X32512000Y-42936030D01*
X32512000Y-33020000D01*
X32503315Y-32973841D01*
X32476035Y-32931447D01*
X32434410Y-32903006D01*
X32385000Y-32893000D01*
X27940000Y-32893000D01*
X27893841Y-32901685D01*
X27851447Y-32928965D01*
X27823006Y-32970590D01*
X27813000Y-33020000D01*
X27555000Y-33020000D01*
X27555000Y-32751580D01*
X28306579Y-32000000D01*
X33923420Y-32000000D01*
X34015578Y-32092157D01*
X33830203Y-32369591D01*
X33740000Y-32823071D01*
X33740000Y-34296929D01*
X33830203Y-34750409D01*
X34087078Y-35134851D01*
X34471520Y-35391726D01*
X34925000Y-35481929D01*
X35378480Y-35391726D01*
X35762922Y-35134851D01*
X35925000Y-34892283D01*
X36087078Y-35134851D01*
X36471520Y-35391726D01*
X36925000Y-35481929D01*
X37378480Y-35391726D01*
X37762922Y-35134851D01*
X37925000Y-34892283D01*
X38087078Y-35134851D01*
X38471520Y-35391726D01*
X38925000Y-35481929D01*
X39378480Y-35391726D01*
X39762922Y-35134851D01*
X39925000Y-34892283D01*
X40087078Y-35134851D01*
X40471520Y-35391726D01*
X40925000Y-35481929D01*
X41378480Y-35391726D01*
X41762922Y-35134851D01*
X41925000Y-34892283D01*
X42040000Y-35064394D01*
X42040000Y-35304995D01*
X42039999Y-35305000D01*
X42092555Y-35569210D01*
X42107367Y-35643675D01*
X42249455Y-35856326D01*
X42299210Y-35930790D01*
X43189208Y-36820787D01*
X43189210Y-36820790D01*
X43476325Y-37012633D01*
X43532516Y-37023810D01*
X43815000Y-37080001D01*
X43815005Y-37080000D01*
X51068420Y-37080000D01*
X51820000Y-37831579D01*
X51820000Y-37870636D01*
X51531091Y-38159041D01*
X51205372Y-38943459D01*
X51204630Y-39792815D01*
X51528980Y-40577800D01*
X52129041Y-41178909D01*
X52913459Y-41504628D01*
X53762815Y-41505370D01*
X54547800Y-41181020D01*
X55148909Y-40580959D01*
X55474628Y-39796541D01*
X55475370Y-38947185D01*
X55151020Y-38162200D01*
X54550959Y-37561091D01*
X53766541Y-37235372D01*
X53544286Y-37235178D01*
X53522633Y-37126325D01*
X53472971Y-37052000D01*
X53330790Y-36839210D01*
X53330787Y-36839208D01*
X52060790Y-35569210D01*
X52033222Y-35550790D01*
X51773675Y-35377367D01*
X51717484Y-35366190D01*
X51435000Y-35309999D01*
X51434995Y-35310000D01*
X49439551Y-35310000D01*
X49673118Y-35187724D01*
X49971196Y-34830813D01*
X50110000Y-34387000D01*
X50110000Y-33687000D01*
X49052000Y-33687000D01*
X49052000Y-33707000D01*
X48798000Y-33707000D01*
X48798000Y-33687000D01*
X48778000Y-33687000D01*
X48778000Y-33433000D01*
X48798000Y-33433000D01*
X48798000Y-33413000D01*
X49052000Y-33413000D01*
X49052000Y-33433000D01*
X50110000Y-33433000D01*
X50110000Y-32733000D01*
X49971196Y-32289187D01*
X49729678Y-32000000D01*
X49893420Y-32000000D01*
X59462560Y-41569139D01*
X59462560Y-42815000D01*
X59506838Y-43050317D01*
X59645910Y-43266441D01*
X59858110Y-43411431D01*
X60110000Y-43462440D01*
X61810000Y-43462440D01*
X62045317Y-43418162D01*
X62261441Y-43279090D01*
X62406431Y-43066890D01*
X62457440Y-42815000D01*
X62457440Y-40815000D01*
X62413162Y-40579683D01*
X62274090Y-40363559D01*
X62061890Y-40218569D01*
X61810000Y-40167560D01*
X60564139Y-40167560D01*
X50885790Y-30489210D01*
X50763423Y-30407448D01*
X51552729Y-29618142D01*
X51561927Y-29625860D01*
X51770651Y-29743200D01*
X51971092Y-29768661D01*
X66643219Y-44440787D01*
X66643221Y-44440790D01*
X66930336Y-44632633D01*
X66986527Y-44643810D01*
X67269011Y-44700001D01*
X67269016Y-44700000D01*
X70158421Y-44700000D01*
X69315860Y-45542560D01*
X68120000Y-45542560D01*
X67884683Y-45586838D01*
X67668559Y-45725910D01*
X67523569Y-45938110D01*
X67472560Y-46190000D01*
X67472560Y-47790000D01*
X67516838Y-48025317D01*
X67655910Y-48241441D01*
X67868110Y-48386431D01*
X68120000Y-48437440D01*
X68162676Y-48437440D01*
X67850628Y-48566376D01*
X67467720Y-48948616D01*
X67260237Y-49448292D01*
X67259764Y-49989334D01*
X67466376Y-50489372D01*
X67735000Y-50758465D01*
X67735000Y-50822560D01*
X67713569Y-50822560D01*
X67620000Y-50803948D01*
X67147386Y-50897957D01*
X66746723Y-51165671D01*
X66479009Y-51566334D01*
X66385000Y-52038948D01*
X66385000Y-52801052D01*
X66479009Y-53273666D01*
X66489923Y-53290000D01*
X66323736Y-53290000D01*
X63984368Y-50950632D01*
X63899381Y-50893846D01*
X63820065Y-50829374D01*
X63789049Y-50820124D01*
X63762138Y-50802143D01*
X63661887Y-50782202D01*
X63563938Y-50752991D01*
X63531745Y-50756315D01*
X63500000Y-50750000D01*
X63399746Y-50769942D01*
X63298078Y-50780438D01*
X63269607Y-50795829D01*
X63237862Y-50802143D01*
X63152876Y-50858929D01*
X63062958Y-50907535D01*
X41028086Y-69165000D01*
X25729228Y-69165000D01*
X13385000Y-53734715D01*
X13385000Y-52950750D01*
X13775000Y-52950750D01*
X13775000Y-53591309D01*
X13871673Y-53824698D01*
X14050301Y-54003327D01*
X14283690Y-54100000D01*
X14624250Y-54100000D01*
X14783000Y-53941250D01*
X14783000Y-52792000D01*
X15037000Y-52792000D01*
X15037000Y-53941250D01*
X15195750Y-54100000D01*
X15536310Y-54100000D01*
X15769699Y-54003327D01*
X15948327Y-53824698D01*
X16045000Y-53591309D01*
X16045000Y-52950750D01*
X15886250Y-52792000D01*
X15037000Y-52792000D01*
X14783000Y-52792000D01*
X13933750Y-52792000D01*
X13775000Y-52950750D01*
X13385000Y-52950750D01*
X13385000Y-51738691D01*
X13775000Y-51738691D01*
X13775000Y-52379250D01*
X13933750Y-52538000D01*
X14783000Y-52538000D01*
X14783000Y-51388750D01*
X15037000Y-51388750D01*
X15037000Y-52538000D01*
X15886250Y-52538000D01*
X16045000Y-52379250D01*
X16045000Y-51738691D01*
X15948327Y-51505302D01*
X15769699Y-51326673D01*
X15536310Y-51230000D01*
X15195750Y-51230000D01*
X15037000Y-51388750D01*
X14783000Y-51388750D01*
X14624250Y-51230000D01*
X14283690Y-51230000D01*
X14050301Y-51326673D01*
X13871673Y-51505302D01*
X13775000Y-51738691D01*
X13385000Y-51738691D01*
X13385000Y-35170750D01*
X13775000Y-35170750D01*
X13775000Y-35811309D01*
X13871673Y-36044698D01*
X14050301Y-36223327D01*
X14283690Y-36320000D01*
X14624250Y-36320000D01*
X14783000Y-36161250D01*
X14783000Y-35012000D01*
X15037000Y-35012000D01*
X15037000Y-36161250D01*
X15195750Y-36320000D01*
X15536310Y-36320000D01*
X15769699Y-36223327D01*
X15948327Y-36044698D01*
X16045000Y-35811309D01*
X16045000Y-35170750D01*
X15886250Y-35012000D01*
X15037000Y-35012000D01*
X14783000Y-35012000D01*
X13933750Y-35012000D01*
X13775000Y-35170750D01*
X13385000Y-35170750D01*
X13385000Y-33958691D01*
X13775000Y-33958691D01*
X13775000Y-34599250D01*
X13933750Y-34758000D01*
X14783000Y-34758000D01*
X14783000Y-33608750D01*
X15037000Y-33608750D01*
X15037000Y-34758000D01*
X15886250Y-34758000D01*
X16045000Y-34599250D01*
X16045000Y-33958691D01*
X15948327Y-33725302D01*
X15769699Y-33546673D01*
X15536310Y-33450000D01*
X15195750Y-33450000D01*
X15037000Y-33608750D01*
X14783000Y-33608750D01*
X14624250Y-33450000D01*
X14283690Y-33450000D01*
X14050301Y-33546673D01*
X13871673Y-33725302D01*
X13775000Y-33958691D01*
X13385000Y-33958691D01*
X13385000Y-29085000D01*
X13762560Y-29085000D01*
X13762560Y-30685000D01*
X13806838Y-30920317D01*
X13945910Y-31136441D01*
X14158110Y-31281431D01*
X14410000Y-31332440D01*
X15410000Y-31332440D01*
X15645317Y-31288162D01*
X15861441Y-31149090D01*
X16006431Y-30936890D01*
X16057440Y-30685000D01*
X16057440Y-29644140D01*
X26706579Y-18995000D01*
X27308156Y-18995000D01*
X27350910Y-19061441D01*
X27563110Y-19206431D01*
X27815000Y-19257440D01*
X29415000Y-19257440D01*
X29650317Y-19213162D01*
X29866441Y-19074090D01*
X30011431Y-18861890D01*
X30062440Y-18610000D01*
X30062440Y-17610000D01*
X30018162Y-17374683D01*
X29879090Y-17158559D01*
X29666890Y-17013569D01*
X29415000Y-16962560D01*
X27815000Y-16962560D01*
X27579683Y-17006838D01*
X27363559Y-17145910D01*
X27309519Y-17225000D01*
X26340005Y-17225000D01*
X26340000Y-17224999D01*
X26057516Y-17281190D01*
X26001325Y-17292367D01*
X25714210Y-17484210D01*
X25714208Y-17484213D01*
X14760860Y-28437560D01*
X14410000Y-28437560D01*
X14174683Y-28481838D01*
X13958559Y-28620910D01*
X13813569Y-28833110D01*
X13762560Y-29085000D01*
X13385000Y-29085000D01*
X13385000Y-28815285D01*
X24280628Y-15195750D01*
X27180000Y-15195750D01*
X27180000Y-15536310D01*
X27276673Y-15769699D01*
X27455302Y-15948327D01*
X27688691Y-16045000D01*
X28329250Y-16045000D01*
X28488000Y-15886250D01*
X28488000Y-15037000D01*
X28742000Y-15037000D01*
X28742000Y-15886250D01*
X28900750Y-16045000D01*
X29541309Y-16045000D01*
X29774698Y-15948327D01*
X29953327Y-15769699D01*
X30050000Y-15536310D01*
X30050000Y-15195750D01*
X29891250Y-15037000D01*
X28742000Y-15037000D01*
X28488000Y-15037000D01*
X27338750Y-15037000D01*
X27180000Y-15195750D01*
X24280628Y-15195750D01*
X25010276Y-14283690D01*
X27180000Y-14283690D01*
X27180000Y-14624250D01*
X27338750Y-14783000D01*
X28488000Y-14783000D01*
X28488000Y-13933750D01*
X28742000Y-13933750D01*
X28742000Y-14783000D01*
X29891250Y-14783000D01*
X30050000Y-14624250D01*
X30050000Y-14283690D01*
X29953327Y-14050301D01*
X29774698Y-13871673D01*
X29541309Y-13775000D01*
X28900750Y-13775000D01*
X28742000Y-13933750D01*
X28488000Y-13933750D01*
X28329250Y-13775000D01*
X27688691Y-13775000D01*
X27455302Y-13871673D01*
X27276673Y-14050301D01*
X27180000Y-14283690D01*
X25010276Y-14283690D01*
X25729228Y-13385000D01*
X41028086Y-13385000D01*
X63062958Y-31642465D01*
X63062958Y-31642465D01*
G37*
X63062958Y-31642465D02*
X63152876Y-31691071D01*
X63237862Y-31747857D01*
X63269607Y-31754171D01*
X63298078Y-31769562D01*
X63399746Y-31780058D01*
X63500000Y-31800000D01*
X63531745Y-31793685D01*
X63563938Y-31797009D01*
X63661887Y-31767798D01*
X63762138Y-31747857D01*
X63789049Y-31729876D01*
X63820065Y-31720626D01*
X63899381Y-31656154D01*
X63984368Y-31599368D01*
X66323736Y-29260000D01*
X86076264Y-29260000D01*
X88415632Y-31599368D01*
X88500619Y-31656154D01*
X88579935Y-31720626D01*
X88610951Y-31729876D01*
X88637862Y-31747857D01*
X88738109Y-31767797D01*
X88836062Y-31797009D01*
X88868258Y-31793685D01*
X88900000Y-31799999D01*
X89000247Y-31780059D01*
X89101922Y-31769562D01*
X89130394Y-31754171D01*
X89162138Y-31747857D01*
X89247124Y-31691071D01*
X89337042Y-31642465D01*
X95033436Y-26922595D01*
X97740832Y-26922595D01*
X97797359Y-26989962D01*
X97959740Y-27183480D01*
X98183815Y-27300126D01*
X98435473Y-27322142D01*
X98676399Y-27246178D01*
X99167096Y-26834435D01*
X99186663Y-26610783D01*
X98640775Y-25960220D01*
X97760399Y-26698943D01*
X97740832Y-26922595D01*
X95033436Y-26922595D01*
X96167443Y-25982990D01*
X97078607Y-25982990D01*
X97154571Y-26223917D01*
X97316951Y-26417434D01*
X97373479Y-26484801D01*
X97597131Y-26504368D01*
X98440195Y-25796952D01*
X98835351Y-25796952D01*
X99381238Y-26447515D01*
X99604890Y-26467082D01*
X100095587Y-26055338D01*
X100212233Y-25831263D01*
X100234251Y-25579606D01*
X100158287Y-25338679D01*
X99995907Y-25145162D01*
X99939379Y-25077795D01*
X99715727Y-25058228D01*
X98835351Y-25796952D01*
X98440195Y-25796952D01*
X98477507Y-25765644D01*
X97931620Y-25115081D01*
X97707968Y-25095514D01*
X97217271Y-25507258D01*
X97100625Y-25731333D01*
X97078607Y-25982990D01*
X96167443Y-25982990D01*
X97411966Y-24951813D01*
X98126195Y-24951813D01*
X98672083Y-25602376D01*
X99552459Y-24863653D01*
X99572026Y-24640001D01*
X99515499Y-24572634D01*
X99353118Y-24379116D01*
X99129043Y-24262470D01*
X98877385Y-24240454D01*
X98636459Y-24316418D01*
X98145762Y-24728161D01*
X98126195Y-24951813D01*
X97411966Y-24951813D01*
X109186525Y-15195750D01*
X117350000Y-15195750D01*
X117350000Y-15536310D01*
X117446673Y-15769699D01*
X117625302Y-15948327D01*
X117858691Y-16045000D01*
X118499250Y-16045000D01*
X118658000Y-15886250D01*
X118658000Y-15037000D01*
X118912000Y-15037000D01*
X118912000Y-15886250D01*
X119070750Y-16045000D01*
X119711309Y-16045000D01*
X119944698Y-15948327D01*
X120123327Y-15769699D01*
X120220000Y-15536310D01*
X120220000Y-15195750D01*
X120061250Y-15037000D01*
X118912000Y-15037000D01*
X118658000Y-15037000D01*
X117508750Y-15037000D01*
X117350000Y-15195750D01*
X109186525Y-15195750D01*
X110287287Y-14283690D01*
X117350000Y-14283690D01*
X117350000Y-14624250D01*
X117508750Y-14783000D01*
X118658000Y-14783000D01*
X118658000Y-13933750D01*
X118912000Y-13933750D01*
X118912000Y-14783000D01*
X120061250Y-14783000D01*
X120220000Y-14624250D01*
X120220000Y-14283690D01*
X120123327Y-14050301D01*
X119944698Y-13871673D01*
X119711309Y-13775000D01*
X119070750Y-13775000D01*
X118912000Y-13933750D01*
X118658000Y-13933750D01*
X118499250Y-13775000D01*
X117858691Y-13775000D01*
X117625302Y-13871673D01*
X117446673Y-14050301D01*
X117350000Y-14283690D01*
X110287287Y-14283690D01*
X111371914Y-13385000D01*
X126670772Y-13385000D01*
X139015000Y-28815285D01*
X139015000Y-53734715D01*
X126670772Y-69165000D01*
X111371914Y-69165000D01*
X101290860Y-60812125D01*
X101956417Y-60812125D01*
X101975984Y-61035777D01*
X102466681Y-61447520D01*
X102707607Y-61523484D01*
X102959265Y-61501468D01*
X103183340Y-61384822D01*
X103345721Y-61191304D01*
X103402248Y-61123937D01*
X103382681Y-60900285D01*
X102502305Y-60161562D01*
X101956417Y-60812125D01*
X101290860Y-60812125D01*
X100046336Y-59780948D01*
X100908829Y-59780948D01*
X100930847Y-60032605D01*
X101047493Y-60256680D01*
X101538190Y-60668424D01*
X101761842Y-60648857D01*
X102307729Y-59998294D01*
X102270418Y-59966986D01*
X102665573Y-59966986D01*
X103545949Y-60705710D01*
X103769601Y-60686143D01*
X103826129Y-60618776D01*
X103988509Y-60425259D01*
X104064473Y-60184332D01*
X104042455Y-59932675D01*
X103925809Y-59708600D01*
X103435112Y-59296856D01*
X103211460Y-59316423D01*
X102665573Y-59966986D01*
X102270418Y-59966986D01*
X101427353Y-59259570D01*
X101203701Y-59279137D01*
X101147173Y-59346504D01*
X100984793Y-59540021D01*
X100908829Y-59780948D01*
X100046336Y-59780948D01*
X98912330Y-58841343D01*
X101571054Y-58841343D01*
X101590621Y-59064995D01*
X102470997Y-59803718D01*
X103016885Y-59153155D01*
X102997318Y-58929503D01*
X102506621Y-58517760D01*
X102265695Y-58441796D01*
X102014037Y-58463812D01*
X101789962Y-58580458D01*
X101627581Y-58773976D01*
X101571054Y-58841343D01*
X98912330Y-58841343D01*
X96309855Y-56685007D01*
X97076506Y-56685007D01*
X97145862Y-56932475D01*
X97306034Y-57133462D01*
X98531705Y-58161922D01*
X98740429Y-58279262D01*
X98995384Y-58311648D01*
X99242852Y-58242292D01*
X99443839Y-58082120D01*
X99976261Y-57447603D01*
X102963648Y-57447603D01*
X103033004Y-57695071D01*
X103193176Y-57896058D01*
X104418847Y-58924518D01*
X104627571Y-59041858D01*
X104828012Y-59067319D01*
X114026481Y-68265787D01*
X114026483Y-68265790D01*
X114313598Y-68457633D01*
X114652273Y-68525000D01*
X117478156Y-68525000D01*
X117520910Y-68591441D01*
X117733110Y-68736431D01*
X117985000Y-68787440D01*
X119585000Y-68787440D01*
X119820317Y-68743162D01*
X120036441Y-68604090D01*
X120181431Y-68391890D01*
X120232440Y-68140000D01*
X120232440Y-67925750D01*
X122350000Y-67925750D01*
X122350000Y-68266310D01*
X122446673Y-68499699D01*
X122625302Y-68678327D01*
X122858691Y-68775000D01*
X123499250Y-68775000D01*
X123658000Y-68616250D01*
X123658000Y-67767000D01*
X123912000Y-67767000D01*
X123912000Y-68616250D01*
X124070750Y-68775000D01*
X124711309Y-68775000D01*
X124944698Y-68678327D01*
X125123327Y-68499699D01*
X125220000Y-68266310D01*
X125220000Y-67925750D01*
X125061250Y-67767000D01*
X123912000Y-67767000D01*
X123658000Y-67767000D01*
X122508750Y-67767000D01*
X122350000Y-67925750D01*
X120232440Y-67925750D01*
X120232440Y-67140000D01*
X120208674Y-67013690D01*
X122350000Y-67013690D01*
X122350000Y-67354250D01*
X122508750Y-67513000D01*
X123658000Y-67513000D01*
X123658000Y-66663750D01*
X123912000Y-66663750D01*
X123912000Y-67513000D01*
X125061250Y-67513000D01*
X125220000Y-67354250D01*
X125220000Y-67013690D01*
X125123327Y-66780301D01*
X124944698Y-66601673D01*
X124711309Y-66505000D01*
X124070750Y-66505000D01*
X123912000Y-66663750D01*
X123658000Y-66663750D01*
X123499250Y-66505000D01*
X122858691Y-66505000D01*
X122625302Y-66601673D01*
X122446673Y-66780301D01*
X122350000Y-67013690D01*
X120208674Y-67013690D01*
X120188162Y-66904683D01*
X120049090Y-66688559D01*
X119836890Y-66543569D01*
X119585000Y-66492560D01*
X117985000Y-66492560D01*
X117749683Y-66536838D01*
X117533559Y-66675910D01*
X117479519Y-66755000D01*
X115018852Y-66755000D01*
X106095920Y-57832067D01*
X106123494Y-57614993D01*
X106054138Y-57367525D01*
X105893966Y-57166538D01*
X104668295Y-56138078D01*
X104459571Y-56020738D01*
X104204616Y-55988352D01*
X103957148Y-56057708D01*
X103756161Y-56217880D01*
X103113374Y-56983924D01*
X102996034Y-57192648D01*
X102963648Y-57447603D01*
X99976261Y-57447603D01*
X100086626Y-57316076D01*
X100203966Y-57107352D01*
X100236352Y-56852397D01*
X100166996Y-56604929D01*
X100006824Y-56403942D01*
X98781153Y-55375482D01*
X98572429Y-55258142D01*
X98317474Y-55225756D01*
X98070006Y-55295112D01*
X97869019Y-55455284D01*
X97226232Y-56221328D01*
X97108892Y-56430052D01*
X97076506Y-56685007D01*
X96309855Y-56685007D01*
X93946414Y-54726728D01*
X96232904Y-54726728D01*
X96252471Y-54950380D01*
X96896376Y-55490681D01*
X97137303Y-55566645D01*
X97388960Y-55544628D01*
X97613036Y-55427982D01*
X97775416Y-55234465D01*
X98731846Y-54094636D01*
X98712279Y-53870984D01*
X97678694Y-53003703D01*
X96232904Y-54726728D01*
X93946414Y-54726728D01*
X92546733Y-53566993D01*
X95032107Y-53566993D01*
X95054125Y-53818651D01*
X95170771Y-54042726D01*
X95814676Y-54583027D01*
X96038328Y-54563460D01*
X97484118Y-52840435D01*
X96450533Y-51973153D01*
X96226881Y-51992720D01*
X95270451Y-53132549D01*
X95108070Y-53326067D01*
X95032107Y-53566993D01*
X92546733Y-53566993D01*
X89337042Y-50907535D01*
X89247124Y-50858929D01*
X89162138Y-50802143D01*
X89130394Y-50795829D01*
X89101922Y-50780438D01*
X89000247Y-50769941D01*
X88900000Y-50750001D01*
X88868258Y-50756315D01*
X88836062Y-50752991D01*
X88738109Y-50782203D01*
X88637862Y-50802143D01*
X88610951Y-50820124D01*
X88579935Y-50829374D01*
X88500619Y-50893846D01*
X88415632Y-50950632D01*
X86077440Y-53288824D01*
X86077440Y-53100000D01*
X86033162Y-52864683D01*
X85894090Y-52648559D01*
X85681890Y-52503569D01*
X85430000Y-52452560D01*
X84430000Y-52452560D01*
X84194683Y-52496838D01*
X83978559Y-52635910D01*
X83833569Y-52848110D01*
X83782560Y-53100000D01*
X83782560Y-53290000D01*
X83424207Y-53290000D01*
X83699282Y-53015405D01*
X83864811Y-52616767D01*
X83865188Y-52185127D01*
X83804165Y-52037440D01*
X83880000Y-52037440D01*
X83896937Y-52034253D01*
X83965910Y-52141441D01*
X84178110Y-52286431D01*
X84430000Y-52337440D01*
X85430000Y-52337440D01*
X85665317Y-52293162D01*
X85881441Y-52154090D01*
X86026431Y-51941890D01*
X86077440Y-51690000D01*
X86077440Y-50890000D01*
X86033162Y-50654683D01*
X85894090Y-50438559D01*
X85681890Y-50293569D01*
X85430000Y-50242560D01*
X84527440Y-50242560D01*
X84527440Y-49890000D01*
X84506742Y-49780000D01*
X88899995Y-49780000D01*
X88900000Y-49780001D01*
X89182484Y-49723810D01*
X89238675Y-49712633D01*
X89525790Y-49520790D01*
X91806579Y-47240000D01*
X91990820Y-47240000D01*
X91985378Y-47246486D01*
X91768154Y-47505364D01*
X91787721Y-47729016D01*
X92821306Y-48596297D01*
X92834162Y-48580976D01*
X93028737Y-48744245D01*
X93015882Y-48759565D01*
X94049467Y-49626847D01*
X94273119Y-49607280D01*
X94490344Y-49348402D01*
X94652724Y-49154884D01*
X94728688Y-48913958D01*
X94723516Y-48854842D01*
X94894307Y-48806976D01*
X95095294Y-48646804D01*
X96059475Y-47497737D01*
X96176815Y-47289013D01*
X96209201Y-47034058D01*
X96139845Y-46786590D01*
X95979673Y-46585603D01*
X94489262Y-45335000D01*
X126999995Y-45335000D01*
X127000000Y-45335001D01*
X127282484Y-45278810D01*
X127338675Y-45267633D01*
X127625790Y-45075790D01*
X132705787Y-39995792D01*
X132705790Y-39995790D01*
X132897633Y-39708675D01*
X132931185Y-39540000D01*
X132965001Y-39370000D01*
X132965000Y-39369995D01*
X132965000Y-36830005D01*
X132965001Y-36830000D01*
X132897633Y-36491326D01*
X132897633Y-36491325D01*
X132705790Y-36204210D01*
X132705787Y-36204208D01*
X130800790Y-34299210D01*
X130800787Y-34299208D01*
X128895790Y-32394210D01*
X128801054Y-32330910D01*
X128608675Y-32202367D01*
X128552484Y-32191190D01*
X128270000Y-32134999D01*
X128269995Y-32135000D01*
X123367440Y-32135000D01*
X123367440Y-31925000D01*
X123323162Y-31689683D01*
X123184090Y-31473559D01*
X122971890Y-31328569D01*
X122853663Y-31304628D01*
X122854838Y-31301799D01*
X122855162Y-30929833D01*
X122713117Y-30586057D01*
X122450327Y-30322808D01*
X122106799Y-30180162D01*
X121734833Y-30179838D01*
X121391057Y-30321883D01*
X121127808Y-30584673D01*
X120985162Y-30928201D01*
X120984838Y-31300167D01*
X120985921Y-31302789D01*
X120884683Y-31321838D01*
X120668559Y-31460910D01*
X120523569Y-31673110D01*
X120472560Y-31925000D01*
X120472560Y-33120861D01*
X118203420Y-35390000D01*
X117472683Y-35390000D01*
X117448162Y-35259683D01*
X117309090Y-35043559D01*
X117133768Y-34923767D01*
X117296441Y-34819090D01*
X117441431Y-34606890D01*
X117492440Y-34355000D01*
X117492440Y-32795000D01*
X117448162Y-32559683D01*
X117345289Y-32399814D01*
X117337633Y-32361325D01*
X117289432Y-32289187D01*
X117145790Y-32074210D01*
X117145787Y-32074208D01*
X114925790Y-29854210D01*
X114805787Y-29774027D01*
X114638675Y-29662367D01*
X114582484Y-29651190D01*
X114300000Y-29594999D01*
X114299995Y-29595000D01*
X105410005Y-29595000D01*
X105410000Y-29594999D01*
X105127516Y-29651190D01*
X105071325Y-29662367D01*
X104784210Y-29854210D01*
X104784208Y-29854213D01*
X99963420Y-34675000D01*
X96751579Y-34675000D01*
X100061579Y-31365000D01*
X102234995Y-31365000D01*
X102235000Y-31365001D01*
X102552731Y-31301799D01*
X102573675Y-31297633D01*
X102860790Y-31105790D01*
X102860791Y-31105789D01*
X105169358Y-28797221D01*
X105169361Y-28797219D01*
X105361204Y-28510104D01*
X105428571Y-28171429D01*
X105428571Y-25903702D01*
X115316293Y-25903702D01*
X115316298Y-25903703D01*
X115598782Y-25847512D01*
X115654973Y-25836335D01*
X115942088Y-25644492D01*
X116577086Y-25009493D01*
X116577088Y-25009492D01*
X116830787Y-24755792D01*
X116830790Y-24755790D01*
X122523422Y-19063157D01*
X122733110Y-19206431D01*
X122900000Y-19240227D01*
X122900000Y-22819995D01*
X122899999Y-22820000D01*
X122922302Y-22932120D01*
X122967367Y-23158675D01*
X123118587Y-23384993D01*
X123159210Y-23445790D01*
X133336843Y-33623422D01*
X133193569Y-33833110D01*
X133142560Y-34085000D01*
X133142560Y-35685000D01*
X133186838Y-35920317D01*
X133325910Y-36136441D01*
X133538110Y-36281431D01*
X133790000Y-36332440D01*
X134485861Y-36332440D01*
X135005000Y-36851579D01*
X135005000Y-42813421D01*
X132089210Y-45729210D01*
X131897367Y-46016325D01*
X131897367Y-46016326D01*
X131829999Y-46355000D01*
X131830000Y-46355005D01*
X131830000Y-50433421D01*
X130184210Y-52079210D01*
X130184208Y-52079213D01*
X118970860Y-63292560D01*
X118889139Y-63292560D01*
X109288150Y-53691570D01*
X109262347Y-53674329D01*
X109001035Y-53499727D01*
X108926048Y-53484811D01*
X108662360Y-53432359D01*
X108662355Y-53432360D01*
X101598349Y-53432360D01*
X101598349Y-51183354D01*
X101598350Y-51183349D01*
X101530983Y-50844675D01*
X101408550Y-50661441D01*
X101339139Y-50557559D01*
X101339136Y-50557557D01*
X99685790Y-48904210D01*
X99565495Y-48823832D01*
X99398675Y-48712367D01*
X99338096Y-48700317D01*
X99060000Y-48644999D01*
X99059995Y-48645000D01*
X96520000Y-48645000D01*
X96181325Y-48712367D01*
X95894210Y-48904210D01*
X95894208Y-48904213D01*
X93613420Y-51185000D01*
X93076579Y-51185000D01*
X93016177Y-51124598D01*
X93102652Y-51021541D01*
X93219992Y-50812817D01*
X93244593Y-50619145D01*
X93302086Y-50614115D01*
X93526161Y-50497469D01*
X93688542Y-50303952D01*
X93905766Y-50045074D01*
X93886199Y-49821422D01*
X92852614Y-48954141D01*
X92839758Y-48969462D01*
X92645183Y-48806193D01*
X92658038Y-48790873D01*
X91624453Y-47923591D01*
X91400801Y-47943158D01*
X91183576Y-48202036D01*
X91021196Y-48395554D01*
X90945232Y-48636480D01*
X90950404Y-48695596D01*
X90779614Y-48743462D01*
X90578627Y-48903634D01*
X89614446Y-50052701D01*
X89497106Y-50261425D01*
X89464720Y-50516380D01*
X89534076Y-50763848D01*
X89694248Y-50964835D01*
X91226337Y-52250410D01*
X91435061Y-52367750D01*
X91690016Y-52400136D01*
X91766985Y-52378564D01*
X92084208Y-52695787D01*
X92084210Y-52695790D01*
X92318206Y-52852140D01*
X92371325Y-52887633D01*
X92710000Y-52955000D01*
X93979995Y-52955000D01*
X93980000Y-52955001D01*
X94262484Y-52898810D01*
X94318675Y-52887633D01*
X94605790Y-52695790D01*
X94605791Y-52695789D01*
X96886579Y-50415000D01*
X97550745Y-50415000D01*
X97550664Y-50415097D01*
X96594234Y-51554926D01*
X96613801Y-51778578D01*
X97647386Y-52645859D01*
X97660242Y-52630538D01*
X97854817Y-52793807D01*
X97841962Y-52809127D01*
X98875547Y-53676409D01*
X99099199Y-53656842D01*
X99828349Y-52787875D01*
X99828349Y-53120245D01*
X99283152Y-53769986D01*
X99165812Y-53978710D01*
X99133426Y-54233665D01*
X99202782Y-54481133D01*
X99362954Y-54682120D01*
X100588625Y-55710580D01*
X100797349Y-55827920D01*
X101052304Y-55860306D01*
X101299772Y-55790950D01*
X101500759Y-55630778D01*
X101860244Y-55202360D01*
X108295780Y-55202360D01*
X117337560Y-64244139D01*
X117337560Y-64940000D01*
X117381838Y-65175317D01*
X117520910Y-65391441D01*
X117733110Y-65536431D01*
X117985000Y-65587440D01*
X119585000Y-65587440D01*
X119820317Y-65543162D01*
X120036441Y-65404090D01*
X120181431Y-65191890D01*
X120232440Y-64940000D01*
X120232440Y-64534140D01*
X131216579Y-53550000D01*
X133158554Y-53550000D01*
X133186838Y-53700317D01*
X133325910Y-53916441D01*
X133538110Y-54061431D01*
X133790000Y-54112440D01*
X134790000Y-54112440D01*
X134791208Y-54112213D01*
X125348420Y-63555000D01*
X125091844Y-63555000D01*
X125049090Y-63488559D01*
X124836890Y-63343569D01*
X124585000Y-63292560D01*
X122985000Y-63292560D01*
X122749683Y-63336838D01*
X122533559Y-63475910D01*
X122388569Y-63688110D01*
X122337560Y-63940000D01*
X122337560Y-64940000D01*
X122381838Y-65175317D01*
X122520910Y-65391441D01*
X122733110Y-65536431D01*
X122985000Y-65587440D01*
X124585000Y-65587440D01*
X124820317Y-65543162D01*
X125036441Y-65404090D01*
X125090481Y-65325000D01*
X125714995Y-65325000D01*
X125715000Y-65325001D01*
X125997484Y-65268810D01*
X126053675Y-65257633D01*
X126340790Y-65065790D01*
X126340791Y-65065789D01*
X137294139Y-54112440D01*
X137990000Y-54112440D01*
X138225317Y-54068162D01*
X138441441Y-53929090D01*
X138586431Y-53716890D01*
X138637440Y-53465000D01*
X138637440Y-51865000D01*
X138593162Y-51629683D01*
X138454090Y-51413559D01*
X138241890Y-51268569D01*
X137990000Y-51217560D01*
X136990000Y-51217560D01*
X136754683Y-51261838D01*
X136538559Y-51400910D01*
X136393569Y-51613110D01*
X136342560Y-51865000D01*
X136342560Y-52560861D01*
X135437191Y-53466230D01*
X135437440Y-53465000D01*
X135437440Y-51865000D01*
X135393162Y-51629683D01*
X135254090Y-51413559D01*
X135041890Y-51268569D01*
X134790000Y-51217560D01*
X133790000Y-51217560D01*
X133554683Y-51261838D01*
X133371636Y-51379626D01*
X133532633Y-51138675D01*
X133548835Y-51057223D01*
X133600001Y-50800000D01*
X133600000Y-50799995D01*
X133600000Y-49073964D01*
X133790000Y-49112440D01*
X134790000Y-49112440D01*
X135025317Y-49068162D01*
X135241441Y-48929090D01*
X135386431Y-48716890D01*
X135437440Y-48465000D01*
X135437440Y-47950750D01*
X136355000Y-47950750D01*
X136355000Y-48591309D01*
X136451673Y-48824698D01*
X136630301Y-49003327D01*
X136863690Y-49100000D01*
X137204250Y-49100000D01*
X137363000Y-48941250D01*
X137363000Y-47792000D01*
X137617000Y-47792000D01*
X137617000Y-48941250D01*
X137775750Y-49100000D01*
X138116310Y-49100000D01*
X138349699Y-49003327D01*
X138528327Y-48824698D01*
X138625000Y-48591309D01*
X138625000Y-47950750D01*
X138466250Y-47792000D01*
X137617000Y-47792000D01*
X137363000Y-47792000D01*
X136513750Y-47792000D01*
X136355000Y-47950750D01*
X135437440Y-47950750D01*
X135437440Y-47769140D01*
X136355000Y-46851580D01*
X136355000Y-47379250D01*
X136513750Y-47538000D01*
X137363000Y-47538000D01*
X137363000Y-46388750D01*
X137617000Y-46388750D01*
X137617000Y-47538000D01*
X138466250Y-47538000D01*
X138625000Y-47379250D01*
X138625000Y-46738691D01*
X138528327Y-46505302D01*
X138349699Y-46326673D01*
X138116310Y-46230000D01*
X137775750Y-46230000D01*
X137617000Y-46388750D01*
X137363000Y-46388750D01*
X137204250Y-46230000D01*
X136976579Y-46230000D01*
X138115787Y-45090792D01*
X138115790Y-45090790D01*
X138307633Y-44803675D01*
X138375000Y-44465000D01*
X138375000Y-36191844D01*
X138441441Y-36149090D01*
X138586431Y-35936890D01*
X138637440Y-35685000D01*
X138637440Y-34085000D01*
X138593162Y-33849683D01*
X138454090Y-33633559D01*
X138241890Y-33488569D01*
X137990000Y-33437560D01*
X136990000Y-33437560D01*
X136754683Y-33481838D01*
X136538559Y-33620910D01*
X136393569Y-33833110D01*
X136342560Y-34085000D01*
X136342560Y-35685000D01*
X136342787Y-35686208D01*
X135437440Y-34780860D01*
X135437440Y-34085000D01*
X135393162Y-33849683D01*
X135254090Y-33633559D01*
X135175000Y-33579519D01*
X135175000Y-33325000D01*
X135107633Y-32986325D01*
X134915790Y-32699210D01*
X134915787Y-32699208D01*
X133411504Y-31194925D01*
X133538110Y-31281431D01*
X133790000Y-31332440D01*
X134790000Y-31332440D01*
X135025317Y-31288162D01*
X135241441Y-31149090D01*
X135386431Y-30936890D01*
X135437440Y-30685000D01*
X135437440Y-30170750D01*
X136355000Y-30170750D01*
X136355000Y-30811309D01*
X136451673Y-31044698D01*
X136630301Y-31223327D01*
X136863690Y-31320000D01*
X137204250Y-31320000D01*
X137363000Y-31161250D01*
X137363000Y-30012000D01*
X137617000Y-30012000D01*
X137617000Y-31161250D01*
X137775750Y-31320000D01*
X138116310Y-31320000D01*
X138349699Y-31223327D01*
X138528327Y-31044698D01*
X138625000Y-30811309D01*
X138625000Y-30170750D01*
X138466250Y-30012000D01*
X137617000Y-30012000D01*
X137363000Y-30012000D01*
X136513750Y-30012000D01*
X136355000Y-30170750D01*
X135437440Y-30170750D01*
X135437440Y-29085000D01*
X135413674Y-28958691D01*
X136355000Y-28958691D01*
X136355000Y-29599250D01*
X136513750Y-29758000D01*
X137363000Y-29758000D01*
X137363000Y-28608750D01*
X137617000Y-28608750D01*
X137617000Y-29758000D01*
X138466250Y-29758000D01*
X138625000Y-29599250D01*
X138625000Y-28958691D01*
X138528327Y-28725302D01*
X138349699Y-28546673D01*
X138116310Y-28450000D01*
X137775750Y-28450000D01*
X137617000Y-28608750D01*
X137363000Y-28608750D01*
X137204250Y-28450000D01*
X136863690Y-28450000D01*
X136630301Y-28546673D01*
X136451673Y-28725302D01*
X136355000Y-28958691D01*
X135413674Y-28958691D01*
X135393162Y-28849683D01*
X135254090Y-28633559D01*
X135175000Y-28579519D01*
X135175000Y-26975005D01*
X135175001Y-26975000D01*
X135107633Y-26636325D01*
X135090566Y-26610783D01*
X134915790Y-26349210D01*
X134915787Y-26349208D01*
X126615000Y-18048420D01*
X126615000Y-16855000D01*
X126547633Y-16516325D01*
X126355790Y-16229210D01*
X126355787Y-16229208D01*
X125232440Y-15105860D01*
X125232440Y-14410000D01*
X125188162Y-14174683D01*
X125049090Y-13958559D01*
X124836890Y-13813569D01*
X124585000Y-13762560D01*
X122985000Y-13762560D01*
X122749683Y-13806838D01*
X122533559Y-13945910D01*
X122388569Y-14158110D01*
X122337560Y-14410000D01*
X122337560Y-15410000D01*
X122381838Y-15645317D01*
X122520910Y-15861441D01*
X122733110Y-16006431D01*
X122985000Y-16057440D01*
X123680860Y-16057440D01*
X124586230Y-16962809D01*
X124585000Y-16962560D01*
X122985000Y-16962560D01*
X122749683Y-17006838D01*
X122533559Y-17145910D01*
X122479519Y-17225000D01*
X122225005Y-17225000D01*
X122225000Y-17224999D01*
X121942516Y-17281190D01*
X121886325Y-17292367D01*
X121599210Y-17484210D01*
X121599208Y-17484213D01*
X120094925Y-18988496D01*
X120181431Y-18861890D01*
X120232440Y-18610000D01*
X120232440Y-17610000D01*
X120188162Y-17374683D01*
X120049090Y-17158559D01*
X119836890Y-17013569D01*
X119585000Y-16962560D01*
X117985000Y-16962560D01*
X117749683Y-17006838D01*
X117533559Y-17145910D01*
X117388569Y-17358110D01*
X117337560Y-17610000D01*
X117337560Y-17935861D01*
X114309210Y-20964210D01*
X114309208Y-20964213D01*
X113966850Y-21306570D01*
X113966849Y-21306572D01*
X113591060Y-21682360D01*
X103633546Y-21682360D01*
X103274061Y-21253942D01*
X103088883Y-21102140D01*
X102843426Y-21025973D01*
X102587674Y-21051303D01*
X102361927Y-21174140D01*
X101136256Y-22202600D01*
X100984454Y-22387778D01*
X100908287Y-22633235D01*
X100933617Y-22888987D01*
X101056454Y-23114734D01*
X101699241Y-23880778D01*
X101884419Y-24032580D01*
X102129876Y-24108747D01*
X102385628Y-24083417D01*
X102611375Y-23960580D01*
X103217048Y-23452360D01*
X113957635Y-23452360D01*
X113957640Y-23452361D01*
X114240124Y-23396170D01*
X114296315Y-23384993D01*
X114583430Y-23193150D01*
X115218428Y-22558151D01*
X115218430Y-22558150D01*
X115560787Y-22215792D01*
X115560790Y-22215790D01*
X118519139Y-19257440D01*
X119585000Y-19257440D01*
X119820317Y-19213162D01*
X119960399Y-19123022D01*
X115579210Y-23504210D01*
X115579208Y-23504213D01*
X115325508Y-23757912D01*
X115325507Y-23757914D01*
X114949718Y-24133702D01*
X105690466Y-24133702D01*
X105330981Y-23705284D01*
X105145803Y-23553482D01*
X104900346Y-23477315D01*
X104644594Y-23502645D01*
X104418847Y-23625482D01*
X103193176Y-24653942D01*
X103041374Y-24839120D01*
X102965207Y-25084577D01*
X102990537Y-25340329D01*
X103113374Y-25566076D01*
X103658571Y-26215817D01*
X103658571Y-27804850D01*
X101868420Y-29595000D01*
X100874851Y-29595000D01*
X102063744Y-28597400D01*
X102215546Y-28412222D01*
X102291713Y-28166765D01*
X102266383Y-27911013D01*
X102143546Y-27685266D01*
X101500759Y-26919222D01*
X101315581Y-26767420D01*
X101070124Y-26691253D01*
X100814372Y-26716583D01*
X100588625Y-26839420D01*
X99966048Y-27361824D01*
X99698685Y-27415007D01*
X99411570Y-27606850D01*
X99411568Y-27606853D01*
X88863420Y-38155000D01*
X80006844Y-38155000D01*
X79964090Y-38088559D01*
X79751890Y-37943569D01*
X79500000Y-37892560D01*
X77900000Y-37892560D01*
X77664683Y-37936838D01*
X77448559Y-38075910D01*
X77303569Y-38288110D01*
X77252560Y-38540000D01*
X77252560Y-39540000D01*
X77296838Y-39775317D01*
X77435910Y-39991441D01*
X77648110Y-40136431D01*
X77900000Y-40187440D01*
X79500000Y-40187440D01*
X79735317Y-40143162D01*
X79951441Y-40004090D01*
X80005481Y-39925000D01*
X88998420Y-39925000D01*
X87568420Y-41355000D01*
X80006844Y-41355000D01*
X79964090Y-41288559D01*
X79751890Y-41143569D01*
X79500000Y-41092560D01*
X77900000Y-41092560D01*
X77664683Y-41136838D01*
X77448559Y-41275910D01*
X77303569Y-41488110D01*
X77252560Y-41740000D01*
X77252560Y-42145861D01*
X76468420Y-42930000D01*
X75108964Y-42930000D01*
X75147440Y-42740000D01*
X75147440Y-41740000D01*
X75103162Y-41504683D01*
X74964090Y-41288559D01*
X74751890Y-41143569D01*
X74500000Y-41092560D01*
X72900000Y-41092560D01*
X72664683Y-41136838D01*
X72448559Y-41275910D01*
X72394519Y-41355000D01*
X70568852Y-41355000D01*
X68539603Y-39325750D01*
X72265000Y-39325750D01*
X72265000Y-39666310D01*
X72361673Y-39899699D01*
X72540302Y-40078327D01*
X72773691Y-40175000D01*
X73414250Y-40175000D01*
X73573000Y-40016250D01*
X73573000Y-39167000D01*
X73827000Y-39167000D01*
X73827000Y-40016250D01*
X73985750Y-40175000D01*
X74626309Y-40175000D01*
X74859698Y-40078327D01*
X75038327Y-39899699D01*
X75135000Y-39666310D01*
X75135000Y-39325750D01*
X74976250Y-39167000D01*
X73827000Y-39167000D01*
X73573000Y-39167000D01*
X72423750Y-39167000D01*
X72265000Y-39325750D01*
X68539603Y-39325750D01*
X67627543Y-38413690D01*
X72265000Y-38413690D01*
X72265000Y-38754250D01*
X72423750Y-38913000D01*
X73573000Y-38913000D01*
X73573000Y-38063750D01*
X73827000Y-38063750D01*
X73827000Y-38913000D01*
X74976250Y-38913000D01*
X75135000Y-38754250D01*
X75135000Y-38413690D01*
X75038327Y-38180301D01*
X74859698Y-38001673D01*
X74626309Y-37905000D01*
X73985750Y-37905000D01*
X73827000Y-38063750D01*
X73573000Y-38063750D01*
X73414250Y-37905000D01*
X72773691Y-37905000D01*
X72540302Y-38001673D01*
X72361673Y-38180301D01*
X72265000Y-38413690D01*
X67627543Y-38413690D01*
X55295920Y-26082067D01*
X55323494Y-25864993D01*
X55254138Y-25617525D01*
X55093966Y-25416538D01*
X53868295Y-24388078D01*
X53659571Y-24270738D01*
X53404616Y-24238352D01*
X53157148Y-24307708D01*
X52956161Y-24467880D01*
X52313374Y-25233924D01*
X52196034Y-25442648D01*
X52163648Y-25697603D01*
X52233004Y-25945071D01*
X52393176Y-26146058D01*
X53618847Y-27174518D01*
X53827571Y-27291858D01*
X54028012Y-27317319D01*
X69576481Y-42865787D01*
X69576483Y-42865790D01*
X69672581Y-42930000D01*
X67635590Y-42930000D01*
X53239000Y-28533409D01*
X53266574Y-28316335D01*
X53197218Y-28068867D01*
X53037046Y-27867880D01*
X51811375Y-26839420D01*
X51602651Y-26722080D01*
X51347696Y-26689694D01*
X51100228Y-26759050D01*
X50899241Y-26919222D01*
X50539756Y-27347640D01*
X49554219Y-27347640D01*
X48585328Y-26378749D01*
X48643839Y-26332120D01*
X49286626Y-25566076D01*
X49403966Y-25357352D01*
X49436352Y-25102397D01*
X49366996Y-24854929D01*
X49206824Y-24653942D01*
X48741429Y-24263429D01*
X48741429Y-23396845D01*
X49383115Y-23396845D01*
X49402682Y-23620497D01*
X49893379Y-24032240D01*
X50134305Y-24108204D01*
X50385963Y-24086188D01*
X50610038Y-23969542D01*
X50772419Y-23776024D01*
X50828946Y-23708657D01*
X50809379Y-23485005D01*
X49929003Y-22746282D01*
X49383115Y-23396845D01*
X48741429Y-23396845D01*
X48741429Y-23065639D01*
X48964888Y-23253144D01*
X49188540Y-23233577D01*
X49734427Y-22583014D01*
X49697116Y-22551706D01*
X50092271Y-22551706D01*
X50972647Y-23290430D01*
X51196299Y-23270863D01*
X51252827Y-23203496D01*
X51415207Y-23009979D01*
X51491171Y-22769052D01*
X51469153Y-22517395D01*
X51352507Y-22293320D01*
X50861810Y-21881576D01*
X50638158Y-21901143D01*
X50092271Y-22551706D01*
X49697116Y-22551706D01*
X48854051Y-21844290D01*
X48630399Y-21863857D01*
X48573871Y-21931224D01*
X48560263Y-21947442D01*
X48556340Y-21941570D01*
X48482219Y-21830639D01*
X48482216Y-21830637D01*
X48077643Y-21426063D01*
X48997752Y-21426063D01*
X49017319Y-21649715D01*
X49897695Y-22388438D01*
X50443583Y-21737875D01*
X50424016Y-21514223D01*
X49933319Y-21102480D01*
X49692393Y-21026516D01*
X49440735Y-21048532D01*
X49216660Y-21165178D01*
X49054279Y-21358696D01*
X48997752Y-21426063D01*
X48077643Y-21426063D01*
X40935790Y-14284210D01*
X40771870Y-14174683D01*
X40648675Y-14092367D01*
X40592484Y-14081190D01*
X40310000Y-14024999D01*
X40309995Y-14025000D01*
X34921844Y-14025000D01*
X34879090Y-13958559D01*
X34666890Y-13813569D01*
X34415000Y-13762560D01*
X32815000Y-13762560D01*
X32579683Y-13806838D01*
X32363559Y-13945910D01*
X32218569Y-14158110D01*
X32167560Y-14410000D01*
X32167560Y-15410000D01*
X32211838Y-15645317D01*
X32350910Y-15861441D01*
X32563110Y-16006431D01*
X32815000Y-16057440D01*
X34415000Y-16057440D01*
X34650317Y-16013162D01*
X34866441Y-15874090D01*
X34920481Y-15795000D01*
X39943420Y-15795000D01*
X46971429Y-22823008D01*
X46971429Y-23821587D01*
X46541060Y-24334481D01*
X41583290Y-19376710D01*
X41583287Y-19376708D01*
X39690790Y-17484210D01*
X39526870Y-17374683D01*
X39403675Y-17292367D01*
X39347484Y-17281190D01*
X39065000Y-17224999D01*
X39064995Y-17225000D01*
X34921844Y-17225000D01*
X34879090Y-17158559D01*
X34666890Y-17013569D01*
X34415000Y-16962560D01*
X32815000Y-16962560D01*
X32579683Y-17006838D01*
X32363559Y-17145910D01*
X32218569Y-17358110D01*
X32167560Y-17610000D01*
X32167560Y-18015861D01*
X30748420Y-19435000D01*
X27675005Y-19435000D01*
X27675000Y-19434999D01*
X27392516Y-19491190D01*
X27336325Y-19502367D01*
X27049210Y-19694210D01*
X27049208Y-19694213D01*
X18305860Y-28437560D01*
X17610000Y-28437560D01*
X17374683Y-28481838D01*
X17158559Y-28620910D01*
X17013569Y-28833110D01*
X16962560Y-29085000D01*
X16962560Y-30685000D01*
X17006838Y-30920317D01*
X17145910Y-31136441D01*
X17358110Y-31281431D01*
X17610000Y-31332440D01*
X18610000Y-31332440D01*
X18644390Y-31325969D01*
X18800000Y-31481579D01*
X18800000Y-33476036D01*
X18610000Y-33437560D01*
X17610000Y-33437560D01*
X17374683Y-33481838D01*
X17158559Y-33620910D01*
X17013569Y-33833110D01*
X16962560Y-34085000D01*
X16962560Y-35685000D01*
X17006838Y-35920317D01*
X17145910Y-36136441D01*
X17225000Y-36190481D01*
X17225000Y-44098421D01*
X15105860Y-46217560D01*
X14410000Y-46217560D01*
X14174683Y-46261838D01*
X13958559Y-46400910D01*
X13813569Y-46613110D01*
X13762560Y-46865000D01*
X13762560Y-48465000D01*
X13806838Y-48700317D01*
X13945910Y-48916441D01*
X14158110Y-49061431D01*
X14410000Y-49112440D01*
X15410000Y-49112440D01*
X15645317Y-49068162D01*
X15861441Y-48929090D01*
X16006431Y-48716890D01*
X16057440Y-48465000D01*
X16057440Y-47769140D01*
X16962809Y-46863771D01*
X16962560Y-46865000D01*
X16962560Y-48465000D01*
X17006838Y-48700317D01*
X17145910Y-48916441D01*
X17358110Y-49061431D01*
X17384664Y-49066808D01*
X17415154Y-49112440D01*
X17484210Y-49215790D01*
X19435000Y-51166579D01*
X19435000Y-56144995D01*
X19434999Y-56145000D01*
X19486507Y-56403942D01*
X19502367Y-56483675D01*
X19682355Y-56753048D01*
X19694210Y-56770790D01*
X27167560Y-64244139D01*
X27167560Y-64940000D01*
X27167787Y-64941208D01*
X18995000Y-56768420D01*
X18995000Y-53971844D01*
X19061441Y-53929090D01*
X19206431Y-53716890D01*
X19257440Y-53465000D01*
X19257440Y-51865000D01*
X19213162Y-51629683D01*
X19074090Y-51413559D01*
X18861890Y-51268569D01*
X18610000Y-51217560D01*
X17610000Y-51217560D01*
X17374683Y-51261838D01*
X17158559Y-51400910D01*
X17013569Y-51613110D01*
X16962560Y-51865000D01*
X16962560Y-53465000D01*
X17006838Y-53700317D01*
X17145910Y-53916441D01*
X17225000Y-53970481D01*
X17225000Y-57134995D01*
X17224999Y-57135000D01*
X17271252Y-57367525D01*
X17292367Y-57473675D01*
X17484210Y-57760790D01*
X27167560Y-67444139D01*
X27167560Y-68140000D01*
X27211838Y-68375317D01*
X27350910Y-68591441D01*
X27563110Y-68736431D01*
X27815000Y-68787440D01*
X29415000Y-68787440D01*
X29650317Y-68743162D01*
X29866441Y-68604090D01*
X30011431Y-68391890D01*
X30062440Y-68140000D01*
X30062440Y-67925750D01*
X32180000Y-67925750D01*
X32180000Y-68266310D01*
X32276673Y-68499699D01*
X32455302Y-68678327D01*
X32688691Y-68775000D01*
X33329250Y-68775000D01*
X33488000Y-68616250D01*
X33488000Y-67767000D01*
X33742000Y-67767000D01*
X33742000Y-68616250D01*
X33900750Y-68775000D01*
X34541309Y-68775000D01*
X34774698Y-68678327D01*
X34953327Y-68499699D01*
X35050000Y-68266310D01*
X35050000Y-67925750D01*
X34891250Y-67767000D01*
X33742000Y-67767000D01*
X33488000Y-67767000D01*
X32338750Y-67767000D01*
X32180000Y-67925750D01*
X30062440Y-67925750D01*
X30062440Y-67140000D01*
X30038674Y-67013690D01*
X32180000Y-67013690D01*
X32180000Y-67354250D01*
X32338750Y-67513000D01*
X33488000Y-67513000D01*
X33488000Y-66663750D01*
X33742000Y-66663750D01*
X33742000Y-67513000D01*
X34891250Y-67513000D01*
X35050000Y-67354250D01*
X35050000Y-67013690D01*
X34953327Y-66780301D01*
X34774698Y-66601673D01*
X34541309Y-66505000D01*
X33900750Y-66505000D01*
X33742000Y-66663750D01*
X33488000Y-66663750D01*
X33329250Y-66505000D01*
X32688691Y-66505000D01*
X32455302Y-66601673D01*
X32276673Y-66780301D01*
X32180000Y-67013690D01*
X30038674Y-67013690D01*
X30018162Y-66904683D01*
X29879090Y-66688559D01*
X29666890Y-66543569D01*
X29415000Y-66492560D01*
X28719139Y-66492560D01*
X27813770Y-65587191D01*
X27815000Y-65587440D01*
X29415000Y-65587440D01*
X29650317Y-65543162D01*
X29866441Y-65404090D01*
X30011431Y-65191890D01*
X30062440Y-64940000D01*
X30062440Y-64534140D01*
X30656579Y-63940000D01*
X32167560Y-63940000D01*
X32167560Y-64940000D01*
X32211838Y-65175317D01*
X32350910Y-65391441D01*
X32563110Y-65536431D01*
X32815000Y-65587440D01*
X34415000Y-65587440D01*
X34650317Y-65543162D01*
X34866441Y-65404090D01*
X34920481Y-65325000D01*
X43509995Y-65325000D01*
X43510000Y-65325001D01*
X43792484Y-65268810D01*
X43848675Y-65257633D01*
X44135790Y-65065790D01*
X44135791Y-65065789D01*
X48333939Y-60867640D01*
X48766454Y-60867640D01*
X49125939Y-61296058D01*
X49311117Y-61447860D01*
X49556574Y-61524027D01*
X49812326Y-61498697D01*
X50038073Y-61375860D01*
X51263744Y-60347400D01*
X51415546Y-60162222D01*
X51491713Y-59916765D01*
X51466383Y-59661013D01*
X51343546Y-59435266D01*
X50700759Y-58669222D01*
X50515581Y-58517420D01*
X50270124Y-58441253D01*
X50014372Y-58466583D01*
X49788625Y-58589420D01*
X49182952Y-59097640D01*
X47967365Y-59097640D01*
X47967360Y-59097639D01*
X47688269Y-59153155D01*
X47628685Y-59165007D01*
X47341570Y-59356850D01*
X47341568Y-59356853D01*
X43143420Y-63555000D01*
X34921844Y-63555000D01*
X34879090Y-63488559D01*
X34666890Y-63343569D01*
X34415000Y-63292560D01*
X32815000Y-63292560D01*
X32579683Y-63336838D01*
X32363559Y-63475910D01*
X32218569Y-63688110D01*
X32167560Y-63940000D01*
X30656579Y-63940000D01*
X32116579Y-62480000D01*
X43792722Y-62480000D01*
X43792727Y-62480001D01*
X44075211Y-62423810D01*
X44131402Y-62412633D01*
X44418517Y-62220790D01*
X44418518Y-62220789D01*
X47573983Y-59065323D01*
X47755406Y-59047355D01*
X47981153Y-58924518D01*
X48586826Y-58416298D01*
X50418697Y-58416298D01*
X50418702Y-58416299D01*
X50701186Y-58360108D01*
X50757377Y-58348931D01*
X51044492Y-58157088D01*
X51291580Y-57909999D01*
X52827974Y-57909999D01*
X52884501Y-57977366D01*
X53046882Y-58170884D01*
X53270957Y-58287530D01*
X53522615Y-58309546D01*
X53763541Y-58233582D01*
X54254238Y-57821839D01*
X54273805Y-57598187D01*
X53727917Y-56947624D01*
X52847541Y-57686347D01*
X52827974Y-57909999D01*
X51291580Y-57909999D01*
X52181435Y-57020144D01*
X52241713Y-57211321D01*
X52404093Y-57404838D01*
X52460621Y-57472205D01*
X52684273Y-57491772D01*
X53527337Y-56784356D01*
X53922493Y-56784356D01*
X54468380Y-57434919D01*
X54692032Y-57454486D01*
X55182729Y-57042742D01*
X55299375Y-56818667D01*
X55321393Y-56567010D01*
X55245429Y-56326083D01*
X55083049Y-56132566D01*
X55026521Y-56065199D01*
X54802869Y-56045632D01*
X53922493Y-56784356D01*
X53527337Y-56784356D01*
X53564649Y-56753048D01*
X53551794Y-56737728D01*
X53746369Y-56574459D01*
X53759225Y-56589780D01*
X54639601Y-55851057D01*
X54659168Y-55627405D01*
X54602641Y-55560038D01*
X54440260Y-55366520D01*
X54216185Y-55249874D01*
X53972982Y-55228598D01*
X54600787Y-54600792D01*
X54600790Y-54600790D01*
X54792633Y-54313675D01*
X54824477Y-54153587D01*
X54860001Y-53975000D01*
X54860000Y-53974995D01*
X54860000Y-49530005D01*
X54860001Y-49530000D01*
X54792633Y-49191325D01*
X54727743Y-49094210D01*
X54600790Y-48904210D01*
X54600787Y-48904208D01*
X53330790Y-47634210D01*
X53227209Y-47565000D01*
X53043675Y-47442367D01*
X52987484Y-47431190D01*
X52705000Y-47374999D01*
X52704995Y-47375000D01*
X49747733Y-47375000D01*
X49378480Y-47128274D01*
X48925000Y-47038071D01*
X48471520Y-47128274D01*
X48087078Y-47385149D01*
X47925000Y-47627717D01*
X47762922Y-47385149D01*
X47378480Y-47128274D01*
X46925000Y-47038071D01*
X46471520Y-47128274D01*
X46087078Y-47385149D01*
X45925000Y-47627717D01*
X45762922Y-47385149D01*
X45378480Y-47128274D01*
X44925000Y-47038071D01*
X44471520Y-47128274D01*
X44087078Y-47385149D01*
X43925000Y-47627717D01*
X43762922Y-47385149D01*
X43378480Y-47128274D01*
X42925000Y-47038071D01*
X42471520Y-47128274D01*
X42087078Y-47385149D01*
X41925000Y-47627717D01*
X41762922Y-47385149D01*
X41378480Y-47128274D01*
X40925000Y-47038071D01*
X40471520Y-47128274D01*
X40087078Y-47385149D01*
X39925000Y-47627717D01*
X39762922Y-47385149D01*
X39378480Y-47128274D01*
X38925000Y-47038071D01*
X38471520Y-47128274D01*
X38087078Y-47385149D01*
X37925000Y-47627717D01*
X37762922Y-47385149D01*
X37378480Y-47128274D01*
X36925000Y-47038071D01*
X36471520Y-47128274D01*
X36087078Y-47385149D01*
X36053187Y-47435871D01*
X35939090Y-47258559D01*
X35726890Y-47113569D01*
X35475000Y-47062560D01*
X34375000Y-47062560D01*
X34139683Y-47106838D01*
X33923559Y-47245910D01*
X33778569Y-47458110D01*
X33727560Y-47710000D01*
X33727560Y-50210000D01*
X33771838Y-50445317D01*
X33910910Y-50661441D01*
X34123110Y-50806431D01*
X34375000Y-50857440D01*
X35475000Y-50857440D01*
X35710317Y-50813162D01*
X35926441Y-50674090D01*
X36054694Y-50486385D01*
X36087078Y-50534851D01*
X36471520Y-50791726D01*
X36925000Y-50881929D01*
X37378480Y-50791726D01*
X37762922Y-50534851D01*
X37850000Y-50404529D01*
X37850000Y-52239146D01*
X37649683Y-52276838D01*
X37433559Y-52415910D01*
X37288569Y-52628110D01*
X37237560Y-52880000D01*
X37237560Y-54880000D01*
X37281838Y-55115317D01*
X37420910Y-55331441D01*
X37633110Y-55476431D01*
X37885000Y-55527440D01*
X39585000Y-55527440D01*
X39820317Y-55483162D01*
X40036441Y-55344090D01*
X40181431Y-55131890D01*
X40232440Y-54880000D01*
X40232440Y-52880000D01*
X40188162Y-52644683D01*
X40049090Y-52428559D01*
X39836890Y-52283569D01*
X39620000Y-52239648D01*
X39620000Y-50630348D01*
X39762922Y-50534851D01*
X39925000Y-50292283D01*
X40087078Y-50534851D01*
X40471520Y-50791726D01*
X40925000Y-50881929D01*
X41378480Y-50791726D01*
X41762922Y-50534851D01*
X41925000Y-50292283D01*
X42087078Y-50534851D01*
X42471520Y-50791726D01*
X42925000Y-50881929D01*
X43378480Y-50791726D01*
X43762922Y-50534851D01*
X43925000Y-50292283D01*
X44040000Y-50464394D01*
X44040000Y-52544995D01*
X44039999Y-52545000D01*
X44092538Y-52809127D01*
X44107367Y-52883675D01*
X44251910Y-53100000D01*
X44299210Y-53170790D01*
X46071568Y-54943147D01*
X46071570Y-54943150D01*
X46082391Y-54950380D01*
X46358686Y-55134994D01*
X46697360Y-55202361D01*
X46697365Y-55202360D01*
X50539756Y-55202360D01*
X50899241Y-55630778D01*
X50991781Y-55706639D01*
X50052122Y-56646298D01*
X49003324Y-56646298D01*
X48643839Y-56217880D01*
X48458661Y-56066078D01*
X48213204Y-55989911D01*
X47957452Y-56015241D01*
X47731705Y-56138078D01*
X46710465Y-56995000D01*
X40232440Y-56995000D01*
X40232440Y-56880000D01*
X40188162Y-56644683D01*
X40049090Y-56428559D01*
X39836890Y-56283569D01*
X39585000Y-56232560D01*
X37885000Y-56232560D01*
X37649683Y-56276838D01*
X37433559Y-56415910D01*
X37288569Y-56628110D01*
X37237560Y-56880000D01*
X37237560Y-58880000D01*
X37281838Y-59115317D01*
X37420910Y-59331441D01*
X37633110Y-59476431D01*
X37885000Y-59527440D01*
X39585000Y-59527440D01*
X39820317Y-59483162D01*
X40036441Y-59344090D01*
X40181431Y-59131890D01*
X40232440Y-58880000D01*
X40232440Y-58765000D01*
X45371148Y-58765000D01*
X43426147Y-60710000D01*
X31750005Y-60710000D01*
X31750000Y-60709999D01*
X31411326Y-60777366D01*
X31316054Y-60841025D01*
X31124210Y-60969210D01*
X31124208Y-60969213D01*
X28800860Y-63292560D01*
X28719139Y-63292560D01*
X21205000Y-55778420D01*
X21205000Y-50800005D01*
X21205001Y-50800000D01*
X21148584Y-50516380D01*
X21137633Y-50461325D01*
X20945790Y-50174210D01*
X20945787Y-50174208D01*
X20545550Y-49773970D01*
X21525635Y-49773970D01*
X21685418Y-50092739D01*
X22476187Y-50402723D01*
X23325387Y-50386497D01*
X24034582Y-50092739D01*
X24194365Y-49773970D01*
X22860000Y-48439605D01*
X21525635Y-49773970D01*
X20545550Y-49773970D01*
X19253927Y-48482347D01*
X19257440Y-48465000D01*
X19257440Y-48034140D01*
X19415392Y-47876187D01*
X20717277Y-47876187D01*
X20733503Y-48725387D01*
X21027261Y-49434582D01*
X21346030Y-49594365D01*
X22680395Y-48260000D01*
X23039605Y-48260000D01*
X24373970Y-49594365D01*
X24692739Y-49434582D01*
X25002723Y-48643813D01*
X24986497Y-47794613D01*
X24692739Y-47085418D01*
X24373970Y-46925635D01*
X23039605Y-48260000D01*
X22680395Y-48260000D01*
X21346030Y-46925635D01*
X21027261Y-47085418D01*
X20717277Y-47876187D01*
X19415392Y-47876187D01*
X20310787Y-46980792D01*
X20310790Y-46980790D01*
X20545550Y-46746030D01*
X21525635Y-46746030D01*
X22860000Y-48080395D01*
X24194365Y-46746030D01*
X24034582Y-46427261D01*
X23243813Y-46117277D01*
X22394613Y-46133503D01*
X21685418Y-46427261D01*
X21525635Y-46746030D01*
X20545550Y-46746030D01*
X22110893Y-45180687D01*
X22433459Y-45314628D01*
X23282815Y-45315370D01*
X24067800Y-44991020D01*
X24668909Y-44390959D01*
X24994628Y-43606541D01*
X24995370Y-42757185D01*
X24671020Y-41972200D01*
X24070959Y-41371091D01*
X23286541Y-41045372D01*
X22437185Y-41044630D01*
X21652200Y-41368980D01*
X21051091Y-41969041D01*
X20725372Y-42753459D01*
X20724630Y-43602815D01*
X20859411Y-43929009D01*
X20570000Y-44218420D01*
X20570000Y-31115005D01*
X20570001Y-31115000D01*
X20502633Y-30776326D01*
X20502633Y-30776325D01*
X20310790Y-30489210D01*
X20310787Y-30489208D01*
X19534080Y-29712500D01*
X28041579Y-21205000D01*
X31114995Y-21205000D01*
X31115000Y-21205001D01*
X31397484Y-21148810D01*
X31453675Y-21137633D01*
X31740790Y-20945790D01*
X31740791Y-20945789D01*
X33429139Y-19257440D01*
X34415000Y-19257440D01*
X34650317Y-19213162D01*
X34866441Y-19074090D01*
X34920481Y-18995000D01*
X38698420Y-18995000D01*
X39705921Y-20002500D01*
X37379210Y-22329210D01*
X37187367Y-22616325D01*
X37176190Y-22672516D01*
X37119999Y-22955000D01*
X37120000Y-22955005D01*
X37120000Y-24537560D01*
X37005000Y-24537560D01*
X36769683Y-24581838D01*
X36553559Y-24720910D01*
X36408569Y-24933110D01*
X36357560Y-25185000D01*
X36357560Y-26885000D01*
X36401838Y-27120317D01*
X36540910Y-27336441D01*
X36753110Y-27481431D01*
X37005000Y-27532440D01*
X39005000Y-27532440D01*
X39240317Y-27488162D01*
X39456441Y-27349090D01*
X39601431Y-27136890D01*
X39652440Y-26885000D01*
X39652440Y-25185000D01*
X39608162Y-24949683D01*
X39469090Y-24733559D01*
X39256890Y-24588569D01*
X39005000Y-24537560D01*
X38890000Y-24537560D01*
X38890000Y-23321580D01*
X40957500Y-21254080D01*
X48561848Y-28858427D01*
X48561850Y-28858430D01*
X48711902Y-28958691D01*
X48713861Y-28960000D01*
X47455854Y-28960000D01*
X47418162Y-28759683D01*
X47279090Y-28543559D01*
X47066890Y-28398569D01*
X46815000Y-28347560D01*
X44815000Y-28347560D01*
X44700000Y-28369199D01*
X44700000Y-27845005D01*
X44700001Y-27845000D01*
X44632634Y-27506326D01*
X44530717Y-27353796D01*
X44440790Y-27219210D01*
X44440787Y-27219208D01*
X43652440Y-26430861D01*
X43652440Y-25185000D01*
X43608162Y-24949683D01*
X43469090Y-24733559D01*
X43256890Y-24588569D01*
X43005000Y-24537560D01*
X41005000Y-24537560D01*
X40769683Y-24581838D01*
X40553559Y-24720910D01*
X40408569Y-24933110D01*
X40357560Y-25185000D01*
X40357560Y-26885000D01*
X40401838Y-27120317D01*
X40540910Y-27336441D01*
X40753110Y-27481431D01*
X41005000Y-27532440D01*
X42250860Y-27532440D01*
X42930000Y-28211579D01*
X42930000Y-28370848D01*
X42815000Y-28347560D01*
X40815000Y-28347560D01*
X40579683Y-28391838D01*
X40363559Y-28530910D01*
X40218569Y-28743110D01*
X40167560Y-28995000D01*
X40167560Y-30695000D01*
X40211838Y-30930317D01*
X40350910Y-31146441D01*
X40563110Y-31291431D01*
X40815000Y-31342440D01*
X40930000Y-31342440D01*
X40930000Y-31639066D01*
X40925000Y-31638071D01*
X40471520Y-31728274D01*
X40087078Y-31985149D01*
X39925000Y-32227717D01*
X39762922Y-31985149D01*
X39378480Y-31728274D01*
X38925000Y-31638071D01*
X38471520Y-31728274D01*
X38087078Y-31985149D01*
X37925000Y-32227717D01*
X37810000Y-32055606D01*
X37810000Y-31210005D01*
X37810001Y-31210000D01*
X37742634Y-30871326D01*
X37581808Y-30630632D01*
X37550790Y-30584210D01*
X37550787Y-30584208D01*
X36185790Y-29219210D01*
X36168799Y-29207857D01*
X35898675Y-29027367D01*
X35842484Y-29016190D01*
X35560000Y-28959999D01*
X35559995Y-28960000D01*
X26035005Y-28960000D01*
X26035000Y-28959999D01*
X25752516Y-29016190D01*
X25696325Y-29027367D01*
X25409210Y-29219210D01*
X25409208Y-29219213D01*
X23609107Y-31019313D01*
X23286541Y-30885372D01*
X22437185Y-30884630D01*
X21652200Y-31208980D01*
X21051091Y-31809041D01*
X20725372Y-32593459D01*
X20724630Y-33442815D01*
X21048980Y-34227800D01*
X21649041Y-34828909D01*
X22433459Y-35154628D01*
X23282815Y-35155370D01*
X24067800Y-34831020D01*
X24668909Y-34230959D01*
X24994628Y-33446541D01*
X24995370Y-32597185D01*
X24860589Y-32270991D01*
X26401579Y-30730000D01*
X27073421Y-30730000D01*
X26044210Y-31759210D01*
X25852367Y-32046325D01*
X25852367Y-32046326D01*
X25784999Y-32385000D01*
X25785000Y-32385005D01*
X25785000Y-33923421D01*
X23609107Y-36099313D01*
X23286541Y-35965372D01*
X22437185Y-35964630D01*
X21652200Y-36288980D01*
X21051091Y-36889041D01*
X20725372Y-37673459D01*
X20724630Y-38522815D01*
X21048980Y-39307800D01*
X21649041Y-39908909D01*
X22433459Y-40234628D01*
X23282815Y-40235370D01*
X24067800Y-39911020D01*
X24668909Y-39310959D01*
X24994628Y-38526541D01*
X24995370Y-37677185D01*
X24860589Y-37350991D01*
X27295787Y-34915792D01*
X27295790Y-34915790D01*
X27487633Y-34628675D01*
X27504014Y-34546325D01*
X27555001Y-34290000D01*
X27555000Y-34289995D01*
X27555000Y-33020000D01*
X27813000Y-33020000D01*
X27813000Y-49530000D01*
X27821685Y-49576159D01*
X27848965Y-49618553D01*
X27890590Y-49646994D01*
X27940000Y-49657000D01*
X32385000Y-49657000D01*
X32431159Y-49648315D01*
X32473553Y-49621035D01*
X32501994Y-49579410D01*
X32512000Y-49530000D01*
X32512000Y-45963970D01*
X52005635Y-45963970D01*
X52165418Y-46282739D01*
X52956187Y-46592723D01*
X53805387Y-46576497D01*
X54514582Y-46282739D01*
X54605804Y-46100750D01*
X59475000Y-46100750D01*
X59475000Y-46941309D01*
X59571673Y-47174698D01*
X59750301Y-47353327D01*
X59983690Y-47450000D01*
X60674250Y-47450000D01*
X60833000Y-47291250D01*
X60833000Y-45942000D01*
X61087000Y-45942000D01*
X61087000Y-47291250D01*
X61245750Y-47450000D01*
X61936310Y-47450000D01*
X62169699Y-47353327D01*
X62348327Y-47174698D01*
X62445000Y-46941309D01*
X62445000Y-46100750D01*
X62286250Y-45942000D01*
X61087000Y-45942000D01*
X60833000Y-45942000D01*
X59633750Y-45942000D01*
X59475000Y-46100750D01*
X54605804Y-46100750D01*
X54674365Y-45963970D01*
X53340000Y-44629605D01*
X52005635Y-45963970D01*
X32512000Y-45963970D01*
X32512000Y-44066187D01*
X51197277Y-44066187D01*
X51213503Y-44915387D01*
X51507261Y-45624582D01*
X51826030Y-45784365D01*
X53160395Y-44450000D01*
X53519605Y-44450000D01*
X54853970Y-45784365D01*
X55172739Y-45624582D01*
X55482723Y-44833813D01*
X55479951Y-44688691D01*
X59475000Y-44688691D01*
X59475000Y-45529250D01*
X59633750Y-45688000D01*
X60833000Y-45688000D01*
X60833000Y-44338750D01*
X61087000Y-44338750D01*
X61087000Y-45688000D01*
X62286250Y-45688000D01*
X62445000Y-45529250D01*
X62445000Y-44688691D01*
X62348327Y-44455302D01*
X62169699Y-44276673D01*
X61936310Y-44180000D01*
X61245750Y-44180000D01*
X61087000Y-44338750D01*
X60833000Y-44338750D01*
X60674250Y-44180000D01*
X59983690Y-44180000D01*
X59750301Y-44276673D01*
X59571673Y-44455302D01*
X59475000Y-44688691D01*
X55479951Y-44688691D01*
X55466497Y-43984613D01*
X55172739Y-43275418D01*
X54853970Y-43115635D01*
X53519605Y-44450000D01*
X53160395Y-44450000D01*
X51826030Y-43115635D01*
X51507261Y-43275418D01*
X51197277Y-44066187D01*
X32512000Y-44066187D01*
X32512000Y-42936030D01*
X52005635Y-42936030D01*
X53340000Y-44270395D01*
X54674365Y-42936030D01*
X54514582Y-42617261D01*
X53723813Y-42307277D01*
X52874613Y-42323503D01*
X52165418Y-42617261D01*
X52005635Y-42936030D01*
X32512000Y-42936030D01*
X32512000Y-33020000D01*
X32503315Y-32973841D01*
X32476035Y-32931447D01*
X32434410Y-32903006D01*
X32385000Y-32893000D01*
X27940000Y-32893000D01*
X27893841Y-32901685D01*
X27851447Y-32928965D01*
X27823006Y-32970590D01*
X27813000Y-33020000D01*
X27555000Y-33020000D01*
X27555000Y-32751580D01*
X28306579Y-32000000D01*
X33923420Y-32000000D01*
X34015578Y-32092157D01*
X33830203Y-32369591D01*
X33740000Y-32823071D01*
X33740000Y-34296929D01*
X33830203Y-34750409D01*
X34087078Y-35134851D01*
X34471520Y-35391726D01*
X34925000Y-35481929D01*
X35378480Y-35391726D01*
X35762922Y-35134851D01*
X35925000Y-34892283D01*
X36087078Y-35134851D01*
X36471520Y-35391726D01*
X36925000Y-35481929D01*
X37378480Y-35391726D01*
X37762922Y-35134851D01*
X37925000Y-34892283D01*
X38087078Y-35134851D01*
X38471520Y-35391726D01*
X38925000Y-35481929D01*
X39378480Y-35391726D01*
X39762922Y-35134851D01*
X39925000Y-34892283D01*
X40087078Y-35134851D01*
X40471520Y-35391726D01*
X40925000Y-35481929D01*
X41378480Y-35391726D01*
X41762922Y-35134851D01*
X41925000Y-34892283D01*
X42040000Y-35064394D01*
X42040000Y-35304995D01*
X42039999Y-35305000D01*
X42092555Y-35569210D01*
X42107367Y-35643675D01*
X42249455Y-35856326D01*
X42299210Y-35930790D01*
X43189208Y-36820787D01*
X43189210Y-36820790D01*
X43476325Y-37012633D01*
X43532516Y-37023810D01*
X43815000Y-37080001D01*
X43815005Y-37080000D01*
X51068420Y-37080000D01*
X51820000Y-37831579D01*
X51820000Y-37870636D01*
X51531091Y-38159041D01*
X51205372Y-38943459D01*
X51204630Y-39792815D01*
X51528980Y-40577800D01*
X52129041Y-41178909D01*
X52913459Y-41504628D01*
X53762815Y-41505370D01*
X54547800Y-41181020D01*
X55148909Y-40580959D01*
X55474628Y-39796541D01*
X55475370Y-38947185D01*
X55151020Y-38162200D01*
X54550959Y-37561091D01*
X53766541Y-37235372D01*
X53544286Y-37235178D01*
X53522633Y-37126325D01*
X53472971Y-37052000D01*
X53330790Y-36839210D01*
X53330787Y-36839208D01*
X52060790Y-35569210D01*
X52033222Y-35550790D01*
X51773675Y-35377367D01*
X51717484Y-35366190D01*
X51435000Y-35309999D01*
X51434995Y-35310000D01*
X49439551Y-35310000D01*
X49673118Y-35187724D01*
X49971196Y-34830813D01*
X50110000Y-34387000D01*
X50110000Y-33687000D01*
X49052000Y-33687000D01*
X49052000Y-33707000D01*
X48798000Y-33707000D01*
X48798000Y-33687000D01*
X48778000Y-33687000D01*
X48778000Y-33433000D01*
X48798000Y-33433000D01*
X48798000Y-33413000D01*
X49052000Y-33413000D01*
X49052000Y-33433000D01*
X50110000Y-33433000D01*
X50110000Y-32733000D01*
X49971196Y-32289187D01*
X49729678Y-32000000D01*
X49893420Y-32000000D01*
X59462560Y-41569139D01*
X59462560Y-42815000D01*
X59506838Y-43050317D01*
X59645910Y-43266441D01*
X59858110Y-43411431D01*
X60110000Y-43462440D01*
X61810000Y-43462440D01*
X62045317Y-43418162D01*
X62261441Y-43279090D01*
X62406431Y-43066890D01*
X62457440Y-42815000D01*
X62457440Y-40815000D01*
X62413162Y-40579683D01*
X62274090Y-40363559D01*
X62061890Y-40218569D01*
X61810000Y-40167560D01*
X60564139Y-40167560D01*
X50885790Y-30489210D01*
X50763423Y-30407448D01*
X51552729Y-29618142D01*
X51561927Y-29625860D01*
X51770651Y-29743200D01*
X51971092Y-29768661D01*
X66643219Y-44440787D01*
X66643221Y-44440790D01*
X66930336Y-44632633D01*
X66986527Y-44643810D01*
X67269011Y-44700001D01*
X67269016Y-44700000D01*
X70158421Y-44700000D01*
X69315860Y-45542560D01*
X68120000Y-45542560D01*
X67884683Y-45586838D01*
X67668559Y-45725910D01*
X67523569Y-45938110D01*
X67472560Y-46190000D01*
X67472560Y-47790000D01*
X67516838Y-48025317D01*
X67655910Y-48241441D01*
X67868110Y-48386431D01*
X68120000Y-48437440D01*
X68162676Y-48437440D01*
X67850628Y-48566376D01*
X67467720Y-48948616D01*
X67260237Y-49448292D01*
X67259764Y-49989334D01*
X67466376Y-50489372D01*
X67735000Y-50758465D01*
X67735000Y-50822560D01*
X67713569Y-50822560D01*
X67620000Y-50803948D01*
X67147386Y-50897957D01*
X66746723Y-51165671D01*
X66479009Y-51566334D01*
X66385000Y-52038948D01*
X66385000Y-52801052D01*
X66479009Y-53273666D01*
X66489923Y-53290000D01*
X66323736Y-53290000D01*
X63984368Y-50950632D01*
X63899381Y-50893846D01*
X63820065Y-50829374D01*
X63789049Y-50820124D01*
X63762138Y-50802143D01*
X63661887Y-50782202D01*
X63563938Y-50752991D01*
X63531745Y-50756315D01*
X63500000Y-50750000D01*
X63399746Y-50769942D01*
X63298078Y-50780438D01*
X63269607Y-50795829D01*
X63237862Y-50802143D01*
X63152876Y-50858929D01*
X63062958Y-50907535D01*
X41028086Y-69165000D01*
X25729228Y-69165000D01*
X13385000Y-53734715D01*
X13385000Y-52950750D01*
X13775000Y-52950750D01*
X13775000Y-53591309D01*
X13871673Y-53824698D01*
X14050301Y-54003327D01*
X14283690Y-54100000D01*
X14624250Y-54100000D01*
X14783000Y-53941250D01*
X14783000Y-52792000D01*
X15037000Y-52792000D01*
X15037000Y-53941250D01*
X15195750Y-54100000D01*
X15536310Y-54100000D01*
X15769699Y-54003327D01*
X15948327Y-53824698D01*
X16045000Y-53591309D01*
X16045000Y-52950750D01*
X15886250Y-52792000D01*
X15037000Y-52792000D01*
X14783000Y-52792000D01*
X13933750Y-52792000D01*
X13775000Y-52950750D01*
X13385000Y-52950750D01*
X13385000Y-51738691D01*
X13775000Y-51738691D01*
X13775000Y-52379250D01*
X13933750Y-52538000D01*
X14783000Y-52538000D01*
X14783000Y-51388750D01*
X15037000Y-51388750D01*
X15037000Y-52538000D01*
X15886250Y-52538000D01*
X16045000Y-52379250D01*
X16045000Y-51738691D01*
X15948327Y-51505302D01*
X15769699Y-51326673D01*
X15536310Y-51230000D01*
X15195750Y-51230000D01*
X15037000Y-51388750D01*
X14783000Y-51388750D01*
X14624250Y-51230000D01*
X14283690Y-51230000D01*
X14050301Y-51326673D01*
X13871673Y-51505302D01*
X13775000Y-51738691D01*
X13385000Y-51738691D01*
X13385000Y-35170750D01*
X13775000Y-35170750D01*
X13775000Y-35811309D01*
X13871673Y-36044698D01*
X14050301Y-36223327D01*
X14283690Y-36320000D01*
X14624250Y-36320000D01*
X14783000Y-36161250D01*
X14783000Y-35012000D01*
X15037000Y-35012000D01*
X15037000Y-36161250D01*
X15195750Y-36320000D01*
X15536310Y-36320000D01*
X15769699Y-36223327D01*
X15948327Y-36044698D01*
X16045000Y-35811309D01*
X16045000Y-35170750D01*
X15886250Y-35012000D01*
X15037000Y-35012000D01*
X14783000Y-35012000D01*
X13933750Y-35012000D01*
X13775000Y-35170750D01*
X13385000Y-35170750D01*
X13385000Y-33958691D01*
X13775000Y-33958691D01*
X13775000Y-34599250D01*
X13933750Y-34758000D01*
X14783000Y-34758000D01*
X14783000Y-33608750D01*
X15037000Y-33608750D01*
X15037000Y-34758000D01*
X15886250Y-34758000D01*
X16045000Y-34599250D01*
X16045000Y-33958691D01*
X15948327Y-33725302D01*
X15769699Y-33546673D01*
X15536310Y-33450000D01*
X15195750Y-33450000D01*
X15037000Y-33608750D01*
X14783000Y-33608750D01*
X14624250Y-33450000D01*
X14283690Y-33450000D01*
X14050301Y-33546673D01*
X13871673Y-33725302D01*
X13775000Y-33958691D01*
X13385000Y-33958691D01*
X13385000Y-29085000D01*
X13762560Y-29085000D01*
X13762560Y-30685000D01*
X13806838Y-30920317D01*
X13945910Y-31136441D01*
X14158110Y-31281431D01*
X14410000Y-31332440D01*
X15410000Y-31332440D01*
X15645317Y-31288162D01*
X15861441Y-31149090D01*
X16006431Y-30936890D01*
X16057440Y-30685000D01*
X16057440Y-29644140D01*
X26706579Y-18995000D01*
X27308156Y-18995000D01*
X27350910Y-19061441D01*
X27563110Y-19206431D01*
X27815000Y-19257440D01*
X29415000Y-19257440D01*
X29650317Y-19213162D01*
X29866441Y-19074090D01*
X30011431Y-18861890D01*
X30062440Y-18610000D01*
X30062440Y-17610000D01*
X30018162Y-17374683D01*
X29879090Y-17158559D01*
X29666890Y-17013569D01*
X29415000Y-16962560D01*
X27815000Y-16962560D01*
X27579683Y-17006838D01*
X27363559Y-17145910D01*
X27309519Y-17225000D01*
X26340005Y-17225000D01*
X26340000Y-17224999D01*
X26057516Y-17281190D01*
X26001325Y-17292367D01*
X25714210Y-17484210D01*
X25714208Y-17484213D01*
X14760860Y-28437560D01*
X14410000Y-28437560D01*
X14174683Y-28481838D01*
X13958559Y-28620910D01*
X13813569Y-28833110D01*
X13762560Y-29085000D01*
X13385000Y-29085000D01*
X13385000Y-28815285D01*
X24280628Y-15195750D01*
X27180000Y-15195750D01*
X27180000Y-15536310D01*
X27276673Y-15769699D01*
X27455302Y-15948327D01*
X27688691Y-16045000D01*
X28329250Y-16045000D01*
X28488000Y-15886250D01*
X28488000Y-15037000D01*
X28742000Y-15037000D01*
X28742000Y-15886250D01*
X28900750Y-16045000D01*
X29541309Y-16045000D01*
X29774698Y-15948327D01*
X29953327Y-15769699D01*
X30050000Y-15536310D01*
X30050000Y-15195750D01*
X29891250Y-15037000D01*
X28742000Y-15037000D01*
X28488000Y-15037000D01*
X27338750Y-15037000D01*
X27180000Y-15195750D01*
X24280628Y-15195750D01*
X25010276Y-14283690D01*
X27180000Y-14283690D01*
X27180000Y-14624250D01*
X27338750Y-14783000D01*
X28488000Y-14783000D01*
X28488000Y-13933750D01*
X28742000Y-13933750D01*
X28742000Y-14783000D01*
X29891250Y-14783000D01*
X30050000Y-14624250D01*
X30050000Y-14283690D01*
X29953327Y-14050301D01*
X29774698Y-13871673D01*
X29541309Y-13775000D01*
X28900750Y-13775000D01*
X28742000Y-13933750D01*
X28488000Y-13933750D01*
X28329250Y-13775000D01*
X27688691Y-13775000D01*
X27455302Y-13871673D01*
X27276673Y-14050301D01*
X27180000Y-14283690D01*
X25010276Y-14283690D01*
X25729228Y-13385000D01*
X41028086Y-13385000D01*
X63062958Y-31642465D01*
G36*
X106648559Y-31460910D02*
X106503569Y-31673110D01*
X106452560Y-31925000D01*
X106452560Y-33925000D01*
X106496838Y-34160317D01*
X106635910Y-34376441D01*
X106848110Y-34521431D01*
X107100000Y-34572440D01*
X108800000Y-34572440D01*
X109035317Y-34528162D01*
X109251441Y-34389090D01*
X109396431Y-34176890D01*
X109447440Y-33925000D01*
X109447440Y-33810000D01*
X113603420Y-33810000D01*
X113647560Y-33854140D01*
X113647560Y-34355000D01*
X113691838Y-34590317D01*
X113830910Y-34806441D01*
X114006232Y-34926233D01*
X113843559Y-35030910D01*
X113698569Y-35243110D01*
X113647560Y-35495000D01*
X113647560Y-37055000D01*
X113691838Y-37290317D01*
X113830910Y-37506441D01*
X114043110Y-37651431D01*
X114295000Y-37702440D01*
X114945000Y-37702440D01*
X115085086Y-37676081D01*
X115118690Y-37690000D01*
X115284250Y-37690000D01*
X115443000Y-37531250D01*
X115443000Y-37450949D01*
X115541431Y-37306890D01*
X115569176Y-37169880D01*
X115591838Y-37290317D01*
X115697000Y-37453743D01*
X115697000Y-37531250D01*
X115855750Y-37690000D01*
X116021310Y-37690000D01*
X116058171Y-37674732D01*
X116195000Y-37702440D01*
X116845000Y-37702440D01*
X117080317Y-37658162D01*
X117296441Y-37519090D01*
X117441431Y-37306890D01*
X117460899Y-37210750D01*
X120485000Y-37210750D01*
X120485000Y-38051309D01*
X120581673Y-38284698D01*
X120760301Y-38463327D01*
X120993690Y-38560000D01*
X121634250Y-38560000D01*
X121793000Y-38401250D01*
X121793000Y-37052000D01*
X122047000Y-37052000D01*
X122047000Y-38401250D01*
X122205750Y-38560000D01*
X122846310Y-38560000D01*
X123079699Y-38463327D01*
X123258327Y-38284698D01*
X123355000Y-38051309D01*
X123355000Y-37210750D01*
X123196250Y-37052000D01*
X122047000Y-37052000D01*
X121793000Y-37052000D01*
X120643750Y-37052000D01*
X120485000Y-37210750D01*
X117460899Y-37210750D01*
X117471177Y-37160000D01*
X118569995Y-37160000D01*
X118570000Y-37160001D01*
X118852484Y-37103810D01*
X118908675Y-37092633D01*
X119195790Y-36900790D01*
X120297888Y-35798691D01*
X120485000Y-35798691D01*
X120485000Y-36639250D01*
X120643750Y-36798000D01*
X121793000Y-36798000D01*
X121793000Y-35448750D01*
X122047000Y-35448750D01*
X122047000Y-36798000D01*
X123196250Y-36798000D01*
X123355000Y-36639250D01*
X123355000Y-35798691D01*
X123258327Y-35565302D01*
X123079699Y-35386673D01*
X122846310Y-35290000D01*
X122205750Y-35290000D01*
X122047000Y-35448750D01*
X121793000Y-35448750D01*
X121634250Y-35290000D01*
X120993690Y-35290000D01*
X120760301Y-35386673D01*
X120581673Y-35565302D01*
X120485000Y-35798691D01*
X120297888Y-35798691D01*
X121524139Y-34572440D01*
X122720000Y-34572440D01*
X122955317Y-34528162D01*
X123171441Y-34389090D01*
X123316431Y-34176890D01*
X123367440Y-33925000D01*
X123367440Y-33905000D01*
X127903420Y-33905000D01*
X129549208Y-35550787D01*
X129549210Y-35550790D01*
X131195000Y-37196579D01*
X131195000Y-39003421D01*
X126633420Y-43565000D01*
X91440000Y-43565000D01*
X91101325Y-43632367D01*
X90814210Y-43824210D01*
X90814208Y-43824213D01*
X88533420Y-46105000D01*
X82680005Y-46105000D01*
X82680000Y-46104999D01*
X82341326Y-46172366D01*
X82255071Y-46230000D01*
X82054210Y-46364210D01*
X82054208Y-46364213D01*
X79175860Y-49242560D01*
X78680000Y-49242560D01*
X78444683Y-49286838D01*
X78228559Y-49425910D01*
X78083569Y-49638110D01*
X78032560Y-49890000D01*
X78032560Y-50242560D01*
X77130000Y-50242560D01*
X76894683Y-50286838D01*
X76678559Y-50425910D01*
X76533569Y-50638110D01*
X76482560Y-50890000D01*
X76482560Y-51690000D01*
X76526838Y-51925317D01*
X76665910Y-52141441D01*
X76878110Y-52286431D01*
X77130000Y-52337440D01*
X78130000Y-52337440D01*
X78365317Y-52293162D01*
X78581441Y-52154090D01*
X78663436Y-52034086D01*
X78680000Y-52037440D01*
X78755728Y-52037440D01*
X78695189Y-52183233D01*
X78694812Y-52614873D01*
X78859646Y-53013800D01*
X79135364Y-53290000D01*
X78777440Y-53290000D01*
X78777440Y-53100000D01*
X78733162Y-52864683D01*
X78594090Y-52648559D01*
X78381890Y-52503569D01*
X78130000Y-52452560D01*
X77130000Y-52452560D01*
X76894683Y-52496838D01*
X76678559Y-52635910D01*
X76533569Y-52848110D01*
X76482560Y-53100000D01*
X76482560Y-53290000D01*
X75750077Y-53290000D01*
X75760991Y-53273666D01*
X75855000Y-52801052D01*
X75855000Y-52038948D01*
X75760991Y-51566334D01*
X75493277Y-51165671D01*
X75092614Y-50897957D01*
X74620000Y-50803948D01*
X74526431Y-50822560D01*
X74505000Y-50822560D01*
X74505000Y-50758198D01*
X74772280Y-50491384D01*
X74979763Y-49991708D01*
X74980236Y-49450666D01*
X74773624Y-48950628D01*
X74391384Y-48567720D01*
X74047675Y-48425000D01*
X74246309Y-48425000D01*
X74479698Y-48328327D01*
X74658327Y-48149699D01*
X74755000Y-47916310D01*
X74755000Y-47275750D01*
X74596250Y-47117000D01*
X73247000Y-47117000D01*
X73247000Y-48266250D01*
X73343482Y-48362732D01*
X72984207Y-48511182D01*
X72979698Y-48506673D01*
X72782522Y-48425000D01*
X72834250Y-48425000D01*
X72993000Y-48266250D01*
X72993000Y-47117000D01*
X71643750Y-47117000D01*
X71485000Y-47275750D01*
X71485000Y-47916310D01*
X71581673Y-48149699D01*
X71760302Y-48328327D01*
X71927445Y-48397560D01*
X71570000Y-48397560D01*
X71440411Y-48421944D01*
X71320000Y-48397560D01*
X70920000Y-48397560D01*
X70790411Y-48421944D01*
X70670000Y-48397560D01*
X70580000Y-48397560D01*
X70580000Y-48241563D01*
X70716431Y-48041890D01*
X70767440Y-47790000D01*
X70767440Y-46594139D01*
X71391579Y-45970000D01*
X71523808Y-45970000D01*
X71485000Y-46063690D01*
X71485000Y-46704250D01*
X71643750Y-46863000D01*
X72993000Y-46863000D01*
X72993000Y-46843000D01*
X73247000Y-46843000D01*
X73247000Y-46863000D01*
X74596250Y-46863000D01*
X74755000Y-46704250D01*
X74755000Y-46063690D01*
X74716192Y-45970000D01*
X80009995Y-45970000D01*
X80010000Y-45970001D01*
X80292484Y-45913810D01*
X80348675Y-45902633D01*
X80635790Y-45710790D01*
X80635791Y-45710789D01*
X81646579Y-44700000D01*
X88264995Y-44700000D01*
X88265000Y-44700001D01*
X88547484Y-44643810D01*
X88603675Y-44632633D01*
X88890790Y-44440790D01*
X96120829Y-37210750D01*
X106465000Y-37210750D01*
X106465000Y-38051309D01*
X106561673Y-38284698D01*
X106740301Y-38463327D01*
X106973690Y-38560000D01*
X107664250Y-38560000D01*
X107823000Y-38401250D01*
X107823000Y-37052000D01*
X108077000Y-37052000D01*
X108077000Y-38401250D01*
X108235750Y-38560000D01*
X108926310Y-38560000D01*
X109159699Y-38463327D01*
X109338327Y-38284698D01*
X109435000Y-38051309D01*
X109435000Y-37210750D01*
X109276250Y-37052000D01*
X108077000Y-37052000D01*
X107823000Y-37052000D01*
X106623750Y-37052000D01*
X106465000Y-37210750D01*
X96120829Y-37210750D01*
X96886579Y-36445000D01*
X100329995Y-36445000D01*
X100330000Y-36445001D01*
X100612484Y-36388810D01*
X100668675Y-36377633D01*
X100955790Y-36185790D01*
X100955791Y-36185789D01*
X101342888Y-35798691D01*
X106465000Y-35798691D01*
X106465000Y-36639250D01*
X106623750Y-36798000D01*
X107823000Y-36798000D01*
X107823000Y-35448750D01*
X108077000Y-35448750D01*
X108077000Y-36798000D01*
X109276250Y-36798000D01*
X109435000Y-36639250D01*
X109435000Y-35798691D01*
X109338327Y-35565302D01*
X109159699Y-35386673D01*
X108926310Y-35290000D01*
X108235750Y-35290000D01*
X108077000Y-35448750D01*
X107823000Y-35448750D01*
X107664250Y-35290000D01*
X106973690Y-35290000D01*
X106740301Y-35386673D01*
X106561673Y-35565302D01*
X106465000Y-35798691D01*
X101342888Y-35798691D01*
X105776579Y-31365000D01*
X106797607Y-31365000D01*
X106648559Y-31460910D01*
X106648559Y-31460910D01*
G37*
X106648559Y-31460910D02*
X106503569Y-31673110D01*
X106452560Y-31925000D01*
X106452560Y-33925000D01*
X106496838Y-34160317D01*
X106635910Y-34376441D01*
X106848110Y-34521431D01*
X107100000Y-34572440D01*
X108800000Y-34572440D01*
X109035317Y-34528162D01*
X109251441Y-34389090D01*
X109396431Y-34176890D01*
X109447440Y-33925000D01*
X109447440Y-33810000D01*
X113603420Y-33810000D01*
X113647560Y-33854140D01*
X113647560Y-34355000D01*
X113691838Y-34590317D01*
X113830910Y-34806441D01*
X114006232Y-34926233D01*
X113843559Y-35030910D01*
X113698569Y-35243110D01*
X113647560Y-35495000D01*
X113647560Y-37055000D01*
X113691838Y-37290317D01*
X113830910Y-37506441D01*
X114043110Y-37651431D01*
X114295000Y-37702440D01*
X114945000Y-37702440D01*
X115085086Y-37676081D01*
X115118690Y-37690000D01*
X115284250Y-37690000D01*
X115443000Y-37531250D01*
X115443000Y-37450949D01*
X115541431Y-37306890D01*
X115569176Y-37169880D01*
X115591838Y-37290317D01*
X115697000Y-37453743D01*
X115697000Y-37531250D01*
X115855750Y-37690000D01*
X116021310Y-37690000D01*
X116058171Y-37674732D01*
X116195000Y-37702440D01*
X116845000Y-37702440D01*
X117080317Y-37658162D01*
X117296441Y-37519090D01*
X117441431Y-37306890D01*
X117460899Y-37210750D01*
X120485000Y-37210750D01*
X120485000Y-38051309D01*
X120581673Y-38284698D01*
X120760301Y-38463327D01*
X120993690Y-38560000D01*
X121634250Y-38560000D01*
X121793000Y-38401250D01*
X121793000Y-37052000D01*
X122047000Y-37052000D01*
X122047000Y-38401250D01*
X122205750Y-38560000D01*
X122846310Y-38560000D01*
X123079699Y-38463327D01*
X123258327Y-38284698D01*
X123355000Y-38051309D01*
X123355000Y-37210750D01*
X123196250Y-37052000D01*
X122047000Y-37052000D01*
X121793000Y-37052000D01*
X120643750Y-37052000D01*
X120485000Y-37210750D01*
X117460899Y-37210750D01*
X117471177Y-37160000D01*
X118569995Y-37160000D01*
X118570000Y-37160001D01*
X118852484Y-37103810D01*
X118908675Y-37092633D01*
X119195790Y-36900790D01*
X120297888Y-35798691D01*
X120485000Y-35798691D01*
X120485000Y-36639250D01*
X120643750Y-36798000D01*
X121793000Y-36798000D01*
X121793000Y-35448750D01*
X122047000Y-35448750D01*
X122047000Y-36798000D01*
X123196250Y-36798000D01*
X123355000Y-36639250D01*
X123355000Y-35798691D01*
X123258327Y-35565302D01*
X123079699Y-35386673D01*
X122846310Y-35290000D01*
X122205750Y-35290000D01*
X122047000Y-35448750D01*
X121793000Y-35448750D01*
X121634250Y-35290000D01*
X120993690Y-35290000D01*
X120760301Y-35386673D01*
X120581673Y-35565302D01*
X120485000Y-35798691D01*
X120297888Y-35798691D01*
X121524139Y-34572440D01*
X122720000Y-34572440D01*
X122955317Y-34528162D01*
X123171441Y-34389090D01*
X123316431Y-34176890D01*
X123367440Y-33925000D01*
X123367440Y-33905000D01*
X127903420Y-33905000D01*
X129549208Y-35550787D01*
X129549210Y-35550790D01*
X131195000Y-37196579D01*
X131195000Y-39003421D01*
X126633420Y-43565000D01*
X91440000Y-43565000D01*
X91101325Y-43632367D01*
X90814210Y-43824210D01*
X90814208Y-43824213D01*
X88533420Y-46105000D01*
X82680005Y-46105000D01*
X82680000Y-46104999D01*
X82341326Y-46172366D01*
X82255071Y-46230000D01*
X82054210Y-46364210D01*
X82054208Y-46364213D01*
X79175860Y-49242560D01*
X78680000Y-49242560D01*
X78444683Y-49286838D01*
X78228559Y-49425910D01*
X78083569Y-49638110D01*
X78032560Y-49890000D01*
X78032560Y-50242560D01*
X77130000Y-50242560D01*
X76894683Y-50286838D01*
X76678559Y-50425910D01*
X76533569Y-50638110D01*
X76482560Y-50890000D01*
X76482560Y-51690000D01*
X76526838Y-51925317D01*
X76665910Y-52141441D01*
X76878110Y-52286431D01*
X77130000Y-52337440D01*
X78130000Y-52337440D01*
X78365317Y-52293162D01*
X78581441Y-52154090D01*
X78663436Y-52034086D01*
X78680000Y-52037440D01*
X78755728Y-52037440D01*
X78695189Y-52183233D01*
X78694812Y-52614873D01*
X78859646Y-53013800D01*
X79135364Y-53290000D01*
X78777440Y-53290000D01*
X78777440Y-53100000D01*
X78733162Y-52864683D01*
X78594090Y-52648559D01*
X78381890Y-52503569D01*
X78130000Y-52452560D01*
X77130000Y-52452560D01*
X76894683Y-52496838D01*
X76678559Y-52635910D01*
X76533569Y-52848110D01*
X76482560Y-53100000D01*
X76482560Y-53290000D01*
X75750077Y-53290000D01*
X75760991Y-53273666D01*
X75855000Y-52801052D01*
X75855000Y-52038948D01*
X75760991Y-51566334D01*
X75493277Y-51165671D01*
X75092614Y-50897957D01*
X74620000Y-50803948D01*
X74526431Y-50822560D01*
X74505000Y-50822560D01*
X74505000Y-50758198D01*
X74772280Y-50491384D01*
X74979763Y-49991708D01*
X74980236Y-49450666D01*
X74773624Y-48950628D01*
X74391384Y-48567720D01*
X74047675Y-48425000D01*
X74246309Y-48425000D01*
X74479698Y-48328327D01*
X74658327Y-48149699D01*
X74755000Y-47916310D01*
X74755000Y-47275750D01*
X74596250Y-47117000D01*
X73247000Y-47117000D01*
X73247000Y-48266250D01*
X73343482Y-48362732D01*
X72984207Y-48511182D01*
X72979698Y-48506673D01*
X72782522Y-48425000D01*
X72834250Y-48425000D01*
X72993000Y-48266250D01*
X72993000Y-47117000D01*
X71643750Y-47117000D01*
X71485000Y-47275750D01*
X71485000Y-47916310D01*
X71581673Y-48149699D01*
X71760302Y-48328327D01*
X71927445Y-48397560D01*
X71570000Y-48397560D01*
X71440411Y-48421944D01*
X71320000Y-48397560D01*
X70920000Y-48397560D01*
X70790411Y-48421944D01*
X70670000Y-48397560D01*
X70580000Y-48397560D01*
X70580000Y-48241563D01*
X70716431Y-48041890D01*
X70767440Y-47790000D01*
X70767440Y-46594139D01*
X71391579Y-45970000D01*
X71523808Y-45970000D01*
X71485000Y-46063690D01*
X71485000Y-46704250D01*
X71643750Y-46863000D01*
X72993000Y-46863000D01*
X72993000Y-46843000D01*
X73247000Y-46843000D01*
X73247000Y-46863000D01*
X74596250Y-46863000D01*
X74755000Y-46704250D01*
X74755000Y-46063690D01*
X74716192Y-45970000D01*
X80009995Y-45970000D01*
X80010000Y-45970001D01*
X80292484Y-45913810D01*
X80348675Y-45902633D01*
X80635790Y-45710790D01*
X80635791Y-45710789D01*
X81646579Y-44700000D01*
X88264995Y-44700000D01*
X88265000Y-44700001D01*
X88547484Y-44643810D01*
X88603675Y-44632633D01*
X88890790Y-44440790D01*
X96120829Y-37210750D01*
X106465000Y-37210750D01*
X106465000Y-38051309D01*
X106561673Y-38284698D01*
X106740301Y-38463327D01*
X106973690Y-38560000D01*
X107664250Y-38560000D01*
X107823000Y-38401250D01*
X107823000Y-37052000D01*
X108077000Y-37052000D01*
X108077000Y-38401250D01*
X108235750Y-38560000D01*
X108926310Y-38560000D01*
X109159699Y-38463327D01*
X109338327Y-38284698D01*
X109435000Y-38051309D01*
X109435000Y-37210750D01*
X109276250Y-37052000D01*
X108077000Y-37052000D01*
X107823000Y-37052000D01*
X106623750Y-37052000D01*
X106465000Y-37210750D01*
X96120829Y-37210750D01*
X96886579Y-36445000D01*
X100329995Y-36445000D01*
X100330000Y-36445001D01*
X100612484Y-36388810D01*
X100668675Y-36377633D01*
X100955790Y-36185790D01*
X100955791Y-36185789D01*
X101342888Y-35798691D01*
X106465000Y-35798691D01*
X106465000Y-36639250D01*
X106623750Y-36798000D01*
X107823000Y-36798000D01*
X107823000Y-35448750D01*
X108077000Y-35448750D01*
X108077000Y-36798000D01*
X109276250Y-36798000D01*
X109435000Y-36639250D01*
X109435000Y-35798691D01*
X109338327Y-35565302D01*
X109159699Y-35386673D01*
X108926310Y-35290000D01*
X108235750Y-35290000D01*
X108077000Y-35448750D01*
X107823000Y-35448750D01*
X107664250Y-35290000D01*
X106973690Y-35290000D01*
X106740301Y-35386673D01*
X106561673Y-35565302D01*
X106465000Y-35798691D01*
X101342888Y-35798691D01*
X105776579Y-31365000D01*
X106797607Y-31365000D01*
X106648559Y-31460910D01*
M02*
